G04 #@! TF.GenerationSoftware,KiCad,Pcbnew,(5.1.5)-3*
G04 #@! TF.CreationDate,2020-07-27T21:58:35-03:00*
G04 #@! TF.ProjectId,ESP32-BOARD,45535033-322d-4424-9f41-52442e6b6963,rev?*
G04 #@! TF.SameCoordinates,Original*
G04 #@! TF.FileFunction,Copper,L3,Inr*
G04 #@! TF.FilePolarity,Positive*
%FSLAX46Y46*%
G04 Gerber Fmt 4.6, Leading zero omitted, Abs format (unit mm)*
G04 Created by KiCad (PCBNEW (5.1.5)-3) date 2020-07-27 21:58:35*
%MOMM*%
%LPD*%
G04 APERTURE LIST*
%ADD10O,1.700000X1.700000*%
%ADD11R,1.700000X1.700000*%
%ADD12C,1.700000*%
%ADD13C,9.400000*%
%ADD14C,0.800000*%
%ADD15C,6.000000*%
%ADD16C,2.600000*%
%ADD17R,2.600000X2.600000*%
%ADD18C,3.000000*%
%ADD19R,3.000000X3.000000*%
%ADD20C,8.000000*%
%ADD21C,1.250000*%
%ADD22C,0.300000*%
%ADD23C,0.500000*%
%ADD24C,0.800000*%
G04 APERTURE END LIST*
D10*
X204698600Y-126974600D03*
X209778600Y-126974600D03*
X197078600Y-126974600D03*
X214858600Y-126974600D03*
X207238600Y-126974600D03*
X212318600Y-126974600D03*
X235204000Y-101676200D03*
X212344000Y-101676200D03*
X240284000Y-101676200D03*
X225044000Y-101676200D03*
X217424000Y-101676200D03*
X209804000Y-101676200D03*
X232664000Y-101676200D03*
X230124000Y-101676200D03*
X204724000Y-101676200D03*
X202184000Y-101676200D03*
X237744000Y-101676200D03*
X227584000Y-101676200D03*
X222504000Y-101676200D03*
X219964000Y-101676200D03*
X207264000Y-101676200D03*
X199644000Y-101676200D03*
X214884000Y-101676200D03*
X197104000Y-101676200D03*
X194564000Y-101676200D03*
X235178600Y-126974600D03*
X240258600Y-126974600D03*
X225018600Y-126974600D03*
X217398600Y-126974600D03*
X232638600Y-126974600D03*
X230098600Y-126974600D03*
X202158600Y-126974600D03*
X237718600Y-126974600D03*
X227558600Y-126974600D03*
X222478600Y-126974600D03*
X219938600Y-126974600D03*
X199618600Y-126974600D03*
D11*
X194538600Y-126974600D03*
D10*
X116903500Y-128651000D03*
X116903500Y-131191000D03*
X116903500Y-126111000D03*
X116903500Y-133731000D03*
X116903500Y-136271000D03*
X116903500Y-138811000D03*
X138645900Y-131216400D03*
X138645900Y-133756400D03*
X138645900Y-128676400D03*
X138645900Y-136296400D03*
X138645900Y-138836400D03*
D12*
X138645900Y-141376400D03*
D10*
X210820000Y-138938000D03*
X213360000Y-138938000D03*
X215900000Y-138938000D03*
X218440000Y-138938000D03*
X220980000Y-138938000D03*
X223520000Y-138938000D03*
D11*
X226060000Y-138938000D03*
D13*
X109207300Y-137541000D03*
D14*
X236207300Y-45339000D03*
X237985300Y-44577000D03*
X239763300Y-48895000D03*
X235445300Y-47117000D03*
X236207300Y-48895000D03*
X237985300Y-49657000D03*
X239763300Y-45339000D03*
X240525300Y-47117000D03*
D15*
X237985300Y-47117000D03*
D14*
X236207300Y-137541000D03*
X237985300Y-136779000D03*
X239763300Y-141097000D03*
X235445300Y-139319000D03*
X236207300Y-141097000D03*
X237985300Y-141859000D03*
X239763300Y-137541000D03*
X240525300Y-139319000D03*
D15*
X237985300Y-139319000D03*
D14*
X93967300Y-137541000D03*
X95745300Y-136779000D03*
X97523300Y-141097000D03*
X93205300Y-139319000D03*
X93967300Y-141097000D03*
X95745300Y-141859000D03*
X97523300Y-137541000D03*
X98285300Y-139319000D03*
D15*
X95745300Y-139319000D03*
D14*
X93967300Y-45339000D03*
X95745300Y-44577000D03*
X97523300Y-48895000D03*
X93205300Y-47117000D03*
X93967300Y-48895000D03*
X95745300Y-49657000D03*
X97523300Y-45339000D03*
X98285300Y-47117000D03*
D15*
X95745300Y-47117000D03*
D16*
X121920000Y-49149000D03*
X116840000Y-49149000D03*
X111760000Y-49149000D03*
D17*
X106680000Y-49149000D03*
D16*
X163817300Y-49149000D03*
X158737300Y-49149000D03*
X153657300Y-49149000D03*
X148577300Y-49149000D03*
X143497300Y-49149000D03*
X138417300Y-49149000D03*
X133337300Y-49149000D03*
D17*
X128257300Y-49149000D03*
D16*
X97777300Y-96774000D03*
X97777300Y-101854000D03*
X97777300Y-106934000D03*
X97777300Y-112014000D03*
X97777300Y-117094000D03*
X97777300Y-122174000D03*
X97777300Y-127254000D03*
D17*
X97777300Y-132334000D03*
D16*
X97777300Y-54102000D03*
X97777300Y-59182000D03*
X97777300Y-64262000D03*
X97777300Y-69342000D03*
X97777300Y-74422000D03*
X97777300Y-79502000D03*
X97777300Y-84582000D03*
D17*
X97777300Y-89662000D03*
D16*
X148805900Y-137287000D03*
X153885900Y-137287000D03*
X158965900Y-137287000D03*
X164045900Y-137287000D03*
X169125900Y-137287000D03*
X174205900Y-137287000D03*
X179285900Y-137287000D03*
D17*
X184365900Y-137287000D03*
D18*
X201375000Y-48387000D03*
D19*
X206375000Y-48387000D03*
D20*
X138671300Y-120015000D03*
D14*
X162801300Y-80899000D03*
X201676000Y-58293000D03*
X200660000Y-58293000D03*
X199644000Y-58293000D03*
X198628000Y-58293000D03*
X197612000Y-58293000D03*
X196596000Y-58293000D03*
X195580000Y-58293000D03*
X202692000Y-58293000D03*
X208788000Y-58293000D03*
X207772000Y-58293000D03*
X209804000Y-58293000D03*
X210820000Y-58293000D03*
X211836000Y-58293000D03*
X206756000Y-58293000D03*
X205740000Y-58293000D03*
X204724000Y-58293000D03*
X203708000Y-58293000D03*
X124333000Y-97663000D03*
X124333000Y-100711000D03*
X124333000Y-109728000D03*
X124333000Y-112776000D03*
X124333000Y-115824000D03*
X197104000Y-135382000D03*
X124333000Y-94361000D03*
X124333000Y-106680000D03*
X124333000Y-103759000D03*
X114808000Y-104648000D03*
X168135300Y-113792000D03*
X182867300Y-113792000D03*
X158610300Y-125857000D03*
X172961300Y-125857000D03*
X151371300Y-80899000D03*
X139941300Y-80899000D03*
X128511300Y-80899000D03*
X115303300Y-66294000D03*
X107951407Y-66294000D03*
X132156200Y-126111000D03*
X176022000Y-89408000D03*
X174752000Y-89408000D03*
X132156200Y-125095000D03*
X224409000Y-89916000D03*
X224408998Y-88646004D03*
X188455300Y-117728990D03*
X166484296Y-113792000D03*
X180708300Y-113792000D03*
X160782000Y-113792000D03*
X160782000Y-110998000D03*
X169672000Y-113792000D03*
X169672000Y-109982000D03*
X174993302Y-108966000D03*
X174993300Y-113792000D03*
X139687300Y-114935000D03*
X138417300Y-114935000D03*
X128016000Y-68707000D03*
X139445994Y-68707000D03*
X150954500Y-68755500D03*
X162306002Y-68707000D03*
X167894000Y-98552000D03*
X173990000Y-96520000D03*
X172974000Y-97536000D03*
X167131994Y-97536000D03*
X171958000Y-98425000D03*
X169418000Y-98424994D03*
X159004000Y-92710000D03*
X159004000Y-108203994D03*
X160274000Y-92709998D03*
X160273992Y-107315000D03*
X131826000Y-107188000D03*
X128270000Y-113919000D03*
X131825994Y-104648000D03*
X128270000Y-116967000D03*
X180340000Y-57404000D03*
X180340000Y-58420000D03*
X188455300Y-122808998D03*
D21*
X167119300Y-95377000D02*
X173088300Y-89408000D01*
X152895300Y-95377000D02*
X167119300Y-95377000D01*
X138417300Y-138811000D02*
X135369300Y-138811000D01*
X173088300Y-89408000D02*
X176022000Y-89408000D01*
X138671300Y-139065000D02*
X138417300Y-138811000D01*
X132156200Y-135597900D02*
X132156200Y-116116100D01*
X132156200Y-116116100D02*
X152895300Y-95377000D01*
X135369300Y-138811000D02*
X132156200Y-135597900D01*
X224408998Y-89915998D02*
X224409000Y-89916000D01*
X224408998Y-88646004D02*
X224408998Y-89915998D01*
X224409000Y-90481685D02*
X220783685Y-94107000D01*
X224409000Y-89916000D02*
X224409000Y-90481685D01*
X220783685Y-94107000D02*
X193027300Y-94107000D01*
X188455300Y-98679000D02*
X188455300Y-117728990D01*
X193027300Y-94107000D02*
X188455300Y-98679000D01*
D22*
X170421286Y-117728990D02*
X166884295Y-114191999D01*
X166884295Y-114191999D02*
X166484296Y-113792000D01*
X188455300Y-117728990D02*
X170421286Y-117728990D01*
X181108299Y-114191999D02*
X180708300Y-113792000D01*
X184137300Y-117221000D02*
X181108299Y-114191999D01*
X188455300Y-117728990D02*
X188201290Y-117728990D01*
X187693300Y-117221000D02*
X184137300Y-117221000D01*
X188201290Y-117728990D02*
X187693300Y-117221000D01*
D23*
X194538600Y-126974600D02*
X194538600Y-136258300D01*
X194538600Y-136258300D02*
X197091300Y-138811000D01*
X197091300Y-138811000D02*
X210807300Y-138811000D01*
X194538600Y-136258300D02*
X194538600Y-136283700D01*
X194538600Y-136283700D02*
X189979300Y-140843000D01*
X189979300Y-140843000D02*
X148831300Y-140843000D01*
X148831300Y-140843000D02*
X146545300Y-138557000D01*
X146545300Y-138557000D02*
X145529300Y-137541000D01*
X145529300Y-137541000D02*
X145529300Y-133985000D01*
X145529300Y-133985000D02*
X148577300Y-130937000D01*
X148577300Y-130937000D02*
X148577300Y-129413000D01*
X148577300Y-129413000D02*
X148577300Y-118999000D01*
X148577300Y-118999000D02*
X144513300Y-114935000D01*
X144513300Y-114935000D02*
X139687300Y-114935000D01*
X139687300Y-114935000D02*
X138417300Y-114935000D01*
X139687300Y-114935000D02*
X139687300Y-114935000D01*
D24*
X97282000Y-127254000D02*
X93980000Y-123952000D01*
X93980000Y-57404000D02*
X97282000Y-54102000D01*
X94234000Y-64262000D02*
X93980000Y-64008000D01*
X97282000Y-64262000D02*
X94234000Y-64262000D01*
X93980000Y-64008000D02*
X93980000Y-57404000D01*
X94234000Y-74422000D02*
X93980000Y-74168000D01*
X97282000Y-74422000D02*
X94234000Y-74422000D01*
X93980000Y-74168000D02*
X93980000Y-64008000D01*
X97282000Y-84582000D02*
X93980000Y-84582000D01*
X93980000Y-84582000D02*
X93980000Y-74168000D01*
X97282000Y-96774000D02*
X93980000Y-96774000D01*
X93980000Y-96774000D02*
X93980000Y-84582000D01*
X97282000Y-106934000D02*
X93980000Y-106934000D01*
X93980000Y-106934000D02*
X93980000Y-96774000D01*
X97282000Y-117094000D02*
X93980000Y-117094000D01*
X93980000Y-123952000D02*
X93980000Y-117094000D01*
X93980000Y-117094000D02*
X93980000Y-106934000D01*
X180340000Y-52578000D02*
X180086000Y-52324000D01*
X97282000Y-54102000D02*
X97028000Y-54102000D01*
X180340000Y-52578000D02*
X180340000Y-58420000D01*
X172974000Y-45212000D02*
X104762300Y-45212000D01*
X97650300Y-54102000D02*
X97282000Y-54102000D01*
X180340000Y-52578000D02*
X172974000Y-45212000D01*
X97777300Y-52197000D02*
X97777300Y-53975000D01*
X104762300Y-45212000D02*
X97777300Y-52197000D01*
X97777300Y-53975000D02*
X97650300Y-54102000D01*
D22*
X240271300Y-130175000D02*
X240271300Y-126873000D01*
X238112300Y-132334000D02*
X240271300Y-130175000D01*
X215900000Y-138938000D02*
X215900000Y-136766300D01*
D21*
X240258600Y-130187700D02*
X238112300Y-132334000D01*
X240258600Y-126974600D02*
X240258600Y-130187700D01*
X220332300Y-132334000D02*
X215887300Y-136779000D01*
X238112300Y-132334000D02*
X220332300Y-132334000D01*
D22*
X215900000Y-136766300D02*
X215887300Y-136779000D01*
D21*
X215900000Y-136766300D02*
X215900000Y-138925300D01*
X215900000Y-138925300D02*
X215887300Y-138938000D01*
X233667300Y-118237000D02*
X240271300Y-124841000D01*
X219697300Y-118237000D02*
X233667300Y-118237000D01*
X188455300Y-122808998D02*
X215125302Y-122808998D01*
X240271300Y-124841000D02*
X240271300Y-126873000D01*
X215125302Y-122808998D02*
X219697300Y-118237000D01*
M02*
