G04 #@! TF.GenerationSoftware,KiCad,Pcbnew,(5.1.5)-3*
G04 #@! TF.CreationDate,2020-07-27T21:58:35-03:00*
G04 #@! TF.ProjectId,ESP32-BOARD,45535033-322d-4424-9f41-52442e6b6963,rev?*
G04 #@! TF.SameCoordinates,Original*
G04 #@! TF.FileFunction,Copper,L2,Inr*
G04 #@! TF.FilePolarity,Positive*
%FSLAX46Y46*%
G04 Gerber Fmt 4.6, Leading zero omitted, Abs format (unit mm)*
G04 Created by KiCad (PCBNEW (5.1.5)-3) date 2020-07-27 21:58:35*
%MOMM*%
%LPD*%
G04 APERTURE LIST*
%ADD10O,1.700000X1.700000*%
%ADD11R,1.700000X1.700000*%
%ADD12C,1.700000*%
%ADD13C,9.400000*%
%ADD14C,0.800000*%
%ADD15C,6.000000*%
%ADD16C,2.600000*%
%ADD17R,2.600000X2.600000*%
%ADD18C,3.000000*%
%ADD19R,3.000000X3.000000*%
%ADD20C,8.000000*%
%ADD21C,0.254000*%
G04 APERTURE END LIST*
D10*
X204698600Y-126974600D03*
X209778600Y-126974600D03*
X197078600Y-126974600D03*
X214858600Y-126974600D03*
X207238600Y-126974600D03*
X212318600Y-126974600D03*
X235204000Y-101676200D03*
X212344000Y-101676200D03*
X240284000Y-101676200D03*
X225044000Y-101676200D03*
X217424000Y-101676200D03*
X209804000Y-101676200D03*
X232664000Y-101676200D03*
X230124000Y-101676200D03*
X204724000Y-101676200D03*
X202184000Y-101676200D03*
X237744000Y-101676200D03*
X227584000Y-101676200D03*
X222504000Y-101676200D03*
X219964000Y-101676200D03*
X207264000Y-101676200D03*
X199644000Y-101676200D03*
X214884000Y-101676200D03*
X197104000Y-101676200D03*
X194564000Y-101676200D03*
X235178600Y-126974600D03*
X240258600Y-126974600D03*
X225018600Y-126974600D03*
X217398600Y-126974600D03*
X232638600Y-126974600D03*
X230098600Y-126974600D03*
X202158600Y-126974600D03*
X237718600Y-126974600D03*
X227558600Y-126974600D03*
X222478600Y-126974600D03*
X219938600Y-126974600D03*
X199618600Y-126974600D03*
D11*
X194538600Y-126974600D03*
D10*
X116903500Y-128651000D03*
X116903500Y-131191000D03*
X116903500Y-126111000D03*
X116903500Y-133731000D03*
X116903500Y-136271000D03*
X116903500Y-138811000D03*
X138645900Y-131216400D03*
X138645900Y-133756400D03*
X138645900Y-128676400D03*
X138645900Y-136296400D03*
X138645900Y-138836400D03*
D12*
X138645900Y-141376400D03*
D10*
X210820000Y-138938000D03*
X213360000Y-138938000D03*
X215900000Y-138938000D03*
X218440000Y-138938000D03*
X220980000Y-138938000D03*
X223520000Y-138938000D03*
D11*
X226060000Y-138938000D03*
D13*
X109207300Y-137541000D03*
D14*
X236207300Y-45339000D03*
X237985300Y-44577000D03*
X239763300Y-48895000D03*
X235445300Y-47117000D03*
X236207300Y-48895000D03*
X237985300Y-49657000D03*
X239763300Y-45339000D03*
X240525300Y-47117000D03*
D15*
X237985300Y-47117000D03*
D14*
X236207300Y-137541000D03*
X237985300Y-136779000D03*
X239763300Y-141097000D03*
X235445300Y-139319000D03*
X236207300Y-141097000D03*
X237985300Y-141859000D03*
X239763300Y-137541000D03*
X240525300Y-139319000D03*
D15*
X237985300Y-139319000D03*
D14*
X93967300Y-137541000D03*
X95745300Y-136779000D03*
X97523300Y-141097000D03*
X93205300Y-139319000D03*
X93967300Y-141097000D03*
X95745300Y-141859000D03*
X97523300Y-137541000D03*
X98285300Y-139319000D03*
D15*
X95745300Y-139319000D03*
D14*
X93967300Y-45339000D03*
X95745300Y-44577000D03*
X97523300Y-48895000D03*
X93205300Y-47117000D03*
X93967300Y-48895000D03*
X95745300Y-49657000D03*
X97523300Y-45339000D03*
X98285300Y-47117000D03*
D15*
X95745300Y-47117000D03*
D16*
X121920000Y-49149000D03*
X116840000Y-49149000D03*
X111760000Y-49149000D03*
D17*
X106680000Y-49149000D03*
D16*
X163817300Y-49149000D03*
X158737300Y-49149000D03*
X153657300Y-49149000D03*
X148577300Y-49149000D03*
X143497300Y-49149000D03*
X138417300Y-49149000D03*
X133337300Y-49149000D03*
D17*
X128257300Y-49149000D03*
D16*
X97777300Y-96774000D03*
X97777300Y-101854000D03*
X97777300Y-106934000D03*
X97777300Y-112014000D03*
X97777300Y-117094000D03*
X97777300Y-122174000D03*
X97777300Y-127254000D03*
D17*
X97777300Y-132334000D03*
D16*
X97777300Y-54102000D03*
X97777300Y-59182000D03*
X97777300Y-64262000D03*
X97777300Y-69342000D03*
X97777300Y-74422000D03*
X97777300Y-79502000D03*
X97777300Y-84582000D03*
D17*
X97777300Y-89662000D03*
D16*
X148805900Y-137287000D03*
X153885900Y-137287000D03*
X158965900Y-137287000D03*
X164045900Y-137287000D03*
X169125900Y-137287000D03*
X174205900Y-137287000D03*
X179285900Y-137287000D03*
D17*
X184365900Y-137287000D03*
D18*
X201375000Y-48387000D03*
D19*
X206375000Y-48387000D03*
D20*
X138671300Y-120015000D03*
D14*
X162801300Y-80899000D03*
X201676000Y-58293000D03*
X200660000Y-58293000D03*
X199644000Y-58293000D03*
X198628000Y-58293000D03*
X197612000Y-58293000D03*
X196596000Y-58293000D03*
X195580000Y-58293000D03*
X202692000Y-58293000D03*
X208788000Y-58293000D03*
X207772000Y-58293000D03*
X209804000Y-58293000D03*
X210820000Y-58293000D03*
X211836000Y-58293000D03*
X206756000Y-58293000D03*
X205740000Y-58293000D03*
X204724000Y-58293000D03*
X203708000Y-58293000D03*
X124333000Y-97663000D03*
X124333000Y-100711000D03*
X124333000Y-109728000D03*
X124333000Y-112776000D03*
X124333000Y-115824000D03*
X197104000Y-135382000D03*
X124333000Y-94361000D03*
X124333000Y-106680000D03*
X124333000Y-103759000D03*
X114808000Y-104648000D03*
X168135300Y-113792000D03*
X182867300Y-113792000D03*
X158610300Y-125857000D03*
X172961300Y-125857000D03*
X151371300Y-80899000D03*
X139941300Y-80899000D03*
X128511300Y-80899000D03*
X115303300Y-66294000D03*
X107951407Y-66294000D03*
X132156200Y-126111000D03*
X176022000Y-89408000D03*
X174752000Y-89408000D03*
X132156200Y-125095000D03*
X224409000Y-89916000D03*
X224408998Y-88646004D03*
X188455300Y-117728990D03*
X166484296Y-113792000D03*
X180708300Y-113792000D03*
X160782000Y-113792000D03*
X160782000Y-110998000D03*
X169672000Y-113792000D03*
X169672000Y-109982000D03*
X174993302Y-108966000D03*
X174993300Y-113792000D03*
X139687300Y-114935000D03*
X138417300Y-114935000D03*
X128016000Y-68707000D03*
X139445994Y-68707000D03*
X150954500Y-68755500D03*
X162306002Y-68707000D03*
X167894000Y-98552000D03*
X173990000Y-96520000D03*
X172974000Y-97536000D03*
X167131994Y-97536000D03*
X171958000Y-98425000D03*
X169418000Y-98424994D03*
X159004000Y-92710000D03*
X159004000Y-108203994D03*
X160274000Y-92709998D03*
X160273992Y-107315000D03*
X131826000Y-107188000D03*
X128270000Y-113919000D03*
X131825994Y-104648000D03*
X128270000Y-116967000D03*
X180340000Y-57404000D03*
X180340000Y-58420000D03*
X188455300Y-122808998D03*
D21*
G36*
X235606219Y-44558314D02*
G01*
X237985300Y-46937395D01*
X237999443Y-46923253D01*
X238179048Y-47102858D01*
X238164905Y-47117000D01*
X240543986Y-49496081D01*
X240818301Y-49299524D01*
X240818300Y-99974103D01*
X240802332Y-99967489D01*
X240459019Y-99899200D01*
X240108981Y-99899200D01*
X239765668Y-99967489D01*
X239442275Y-100101443D01*
X239151229Y-100295914D01*
X239014000Y-100433143D01*
X238876771Y-100295914D01*
X238585725Y-100101443D01*
X238262332Y-99967489D01*
X237919019Y-99899200D01*
X237568981Y-99899200D01*
X237225668Y-99967489D01*
X236902275Y-100101443D01*
X236611229Y-100295914D01*
X236474000Y-100433143D01*
X236336771Y-100295914D01*
X236045725Y-100101443D01*
X235722332Y-99967489D01*
X235379019Y-99899200D01*
X235028981Y-99899200D01*
X234685668Y-99967489D01*
X234362275Y-100101443D01*
X234071229Y-100295914D01*
X233934000Y-100433143D01*
X233796771Y-100295914D01*
X233505725Y-100101443D01*
X233182332Y-99967489D01*
X232839019Y-99899200D01*
X232488981Y-99899200D01*
X232145668Y-99967489D01*
X231822275Y-100101443D01*
X231531229Y-100295914D01*
X231394000Y-100433143D01*
X231256771Y-100295914D01*
X230965725Y-100101443D01*
X230642332Y-99967489D01*
X230299019Y-99899200D01*
X229948981Y-99899200D01*
X229605668Y-99967489D01*
X229282275Y-100101443D01*
X228991229Y-100295914D01*
X228854000Y-100433143D01*
X228716771Y-100295914D01*
X228425725Y-100101443D01*
X228102332Y-99967489D01*
X227759019Y-99899200D01*
X227408981Y-99899200D01*
X227065668Y-99967489D01*
X226742275Y-100101443D01*
X226451229Y-100295914D01*
X226314000Y-100433143D01*
X226176771Y-100295914D01*
X225885725Y-100101443D01*
X225562332Y-99967489D01*
X225219019Y-99899200D01*
X224868981Y-99899200D01*
X224525668Y-99967489D01*
X224202275Y-100101443D01*
X223911229Y-100295914D01*
X223774000Y-100433143D01*
X223636771Y-100295914D01*
X223345725Y-100101443D01*
X223022332Y-99967489D01*
X222679019Y-99899200D01*
X222328981Y-99899200D01*
X221985668Y-99967489D01*
X221662275Y-100101443D01*
X221371229Y-100295914D01*
X221234000Y-100433143D01*
X221096771Y-100295914D01*
X220805725Y-100101443D01*
X220482332Y-99967489D01*
X220139019Y-99899200D01*
X219788981Y-99899200D01*
X219445668Y-99967489D01*
X219122275Y-100101443D01*
X218831229Y-100295914D01*
X218694000Y-100433143D01*
X218556771Y-100295914D01*
X218265725Y-100101443D01*
X217942332Y-99967489D01*
X217599019Y-99899200D01*
X217248981Y-99899200D01*
X216905668Y-99967489D01*
X216582275Y-100101443D01*
X216291229Y-100295914D01*
X216154000Y-100433143D01*
X216016771Y-100295914D01*
X215725725Y-100101443D01*
X215402332Y-99967489D01*
X215059019Y-99899200D01*
X214708981Y-99899200D01*
X214365668Y-99967489D01*
X214042275Y-100101443D01*
X213751229Y-100295914D01*
X213614000Y-100433143D01*
X213476771Y-100295914D01*
X213185725Y-100101443D01*
X212862332Y-99967489D01*
X212519019Y-99899200D01*
X212168981Y-99899200D01*
X211825668Y-99967489D01*
X211502275Y-100101443D01*
X211211229Y-100295914D01*
X210963714Y-100543429D01*
X210882336Y-100665220D01*
X210804269Y-100578612D01*
X210570920Y-100404559D01*
X210308099Y-100279375D01*
X210160890Y-100234724D01*
X209931000Y-100356045D01*
X209931000Y-101549200D01*
X209951000Y-101549200D01*
X209951000Y-101803200D01*
X209931000Y-101803200D01*
X209931000Y-102996355D01*
X210160890Y-103117676D01*
X210308099Y-103073025D01*
X210570920Y-102947841D01*
X210804269Y-102773788D01*
X210882336Y-102687180D01*
X210963714Y-102808971D01*
X211211229Y-103056486D01*
X211502275Y-103250957D01*
X211825668Y-103384911D01*
X212168981Y-103453200D01*
X212519019Y-103453200D01*
X212862332Y-103384911D01*
X213185725Y-103250957D01*
X213476771Y-103056486D01*
X213614000Y-102919257D01*
X213751229Y-103056486D01*
X214042275Y-103250957D01*
X214365668Y-103384911D01*
X214708981Y-103453200D01*
X215059019Y-103453200D01*
X215402332Y-103384911D01*
X215725725Y-103250957D01*
X216016771Y-103056486D01*
X216154000Y-102919257D01*
X216291229Y-103056486D01*
X216582275Y-103250957D01*
X216905668Y-103384911D01*
X217248981Y-103453200D01*
X217599019Y-103453200D01*
X217942332Y-103384911D01*
X218265725Y-103250957D01*
X218556771Y-103056486D01*
X218694000Y-102919257D01*
X218831229Y-103056486D01*
X219122275Y-103250957D01*
X219445668Y-103384911D01*
X219788981Y-103453200D01*
X220139019Y-103453200D01*
X220482332Y-103384911D01*
X220805725Y-103250957D01*
X221096771Y-103056486D01*
X221234000Y-102919257D01*
X221371229Y-103056486D01*
X221662275Y-103250957D01*
X221985668Y-103384911D01*
X222328981Y-103453200D01*
X222679019Y-103453200D01*
X223022332Y-103384911D01*
X223345725Y-103250957D01*
X223636771Y-103056486D01*
X223774000Y-102919257D01*
X223911229Y-103056486D01*
X224202275Y-103250957D01*
X224525668Y-103384911D01*
X224868981Y-103453200D01*
X225219019Y-103453200D01*
X225562332Y-103384911D01*
X225885725Y-103250957D01*
X226176771Y-103056486D01*
X226314000Y-102919257D01*
X226451229Y-103056486D01*
X226742275Y-103250957D01*
X227065668Y-103384911D01*
X227408981Y-103453200D01*
X227759019Y-103453200D01*
X228102332Y-103384911D01*
X228425725Y-103250957D01*
X228716771Y-103056486D01*
X228854000Y-102919257D01*
X228991229Y-103056486D01*
X229282275Y-103250957D01*
X229605668Y-103384911D01*
X229948981Y-103453200D01*
X230299019Y-103453200D01*
X230642332Y-103384911D01*
X230965725Y-103250957D01*
X231256771Y-103056486D01*
X231394000Y-102919257D01*
X231531229Y-103056486D01*
X231822275Y-103250957D01*
X232145668Y-103384911D01*
X232488981Y-103453200D01*
X232839019Y-103453200D01*
X233182332Y-103384911D01*
X233505725Y-103250957D01*
X233796771Y-103056486D01*
X233934000Y-102919257D01*
X234071229Y-103056486D01*
X234362275Y-103250957D01*
X234685668Y-103384911D01*
X235028981Y-103453200D01*
X235379019Y-103453200D01*
X235722332Y-103384911D01*
X236045725Y-103250957D01*
X236336771Y-103056486D01*
X236474000Y-102919257D01*
X236611229Y-103056486D01*
X236902275Y-103250957D01*
X237225668Y-103384911D01*
X237568981Y-103453200D01*
X237919019Y-103453200D01*
X238262332Y-103384911D01*
X238585725Y-103250957D01*
X238876771Y-103056486D01*
X239014000Y-102919257D01*
X239151229Y-103056486D01*
X239442275Y-103250957D01*
X239765668Y-103384911D01*
X240108981Y-103453200D01*
X240459019Y-103453200D01*
X240802332Y-103384911D01*
X240818300Y-103378297D01*
X240818300Y-125283024D01*
X240776932Y-125265889D01*
X240433619Y-125197600D01*
X240083581Y-125197600D01*
X239740268Y-125265889D01*
X239416875Y-125399843D01*
X239125829Y-125594314D01*
X238988600Y-125731543D01*
X238851371Y-125594314D01*
X238560325Y-125399843D01*
X238236932Y-125265889D01*
X237893619Y-125197600D01*
X237543581Y-125197600D01*
X237200268Y-125265889D01*
X236876875Y-125399843D01*
X236585829Y-125594314D01*
X236448600Y-125731543D01*
X236311371Y-125594314D01*
X236020325Y-125399843D01*
X235696932Y-125265889D01*
X235353619Y-125197600D01*
X235003581Y-125197600D01*
X234660268Y-125265889D01*
X234336875Y-125399843D01*
X234045829Y-125594314D01*
X233908600Y-125731543D01*
X233771371Y-125594314D01*
X233480325Y-125399843D01*
X233156932Y-125265889D01*
X232813619Y-125197600D01*
X232463581Y-125197600D01*
X232120268Y-125265889D01*
X231796875Y-125399843D01*
X231505829Y-125594314D01*
X231368600Y-125731543D01*
X231231371Y-125594314D01*
X230940325Y-125399843D01*
X230616932Y-125265889D01*
X230273619Y-125197600D01*
X229923581Y-125197600D01*
X229580268Y-125265889D01*
X229256875Y-125399843D01*
X228965829Y-125594314D01*
X228828600Y-125731543D01*
X228691371Y-125594314D01*
X228400325Y-125399843D01*
X228076932Y-125265889D01*
X227733619Y-125197600D01*
X227383581Y-125197600D01*
X227040268Y-125265889D01*
X226716875Y-125399843D01*
X226425829Y-125594314D01*
X226288600Y-125731543D01*
X226151371Y-125594314D01*
X225860325Y-125399843D01*
X225536932Y-125265889D01*
X225193619Y-125197600D01*
X224843581Y-125197600D01*
X224500268Y-125265889D01*
X224176875Y-125399843D01*
X223885829Y-125594314D01*
X223748600Y-125731543D01*
X223611371Y-125594314D01*
X223320325Y-125399843D01*
X222996932Y-125265889D01*
X222653619Y-125197600D01*
X222303581Y-125197600D01*
X221960268Y-125265889D01*
X221636875Y-125399843D01*
X221345829Y-125594314D01*
X221208600Y-125731543D01*
X221071371Y-125594314D01*
X220780325Y-125399843D01*
X220456932Y-125265889D01*
X220113619Y-125197600D01*
X219763581Y-125197600D01*
X219420268Y-125265889D01*
X219096875Y-125399843D01*
X218805829Y-125594314D01*
X218668600Y-125731543D01*
X218531371Y-125594314D01*
X218240325Y-125399843D01*
X217916932Y-125265889D01*
X217573619Y-125197600D01*
X217223581Y-125197600D01*
X216880268Y-125265889D01*
X216556875Y-125399843D01*
X216265829Y-125594314D01*
X216128600Y-125731543D01*
X215991371Y-125594314D01*
X215700325Y-125399843D01*
X215376932Y-125265889D01*
X215033619Y-125197600D01*
X214683581Y-125197600D01*
X214340268Y-125265889D01*
X214016875Y-125399843D01*
X213725829Y-125594314D01*
X213588600Y-125731543D01*
X213451371Y-125594314D01*
X213160325Y-125399843D01*
X212836932Y-125265889D01*
X212493619Y-125197600D01*
X212143581Y-125197600D01*
X211800268Y-125265889D01*
X211476875Y-125399843D01*
X211185829Y-125594314D01*
X211048600Y-125731543D01*
X210911371Y-125594314D01*
X210620325Y-125399843D01*
X210296932Y-125265889D01*
X209953619Y-125197600D01*
X209603581Y-125197600D01*
X209260268Y-125265889D01*
X208936875Y-125399843D01*
X208645829Y-125594314D01*
X208508600Y-125731543D01*
X208371371Y-125594314D01*
X208080325Y-125399843D01*
X207756932Y-125265889D01*
X207413619Y-125197600D01*
X207063581Y-125197600D01*
X206720268Y-125265889D01*
X206396875Y-125399843D01*
X206105829Y-125594314D01*
X205968600Y-125731543D01*
X205831371Y-125594314D01*
X205540325Y-125399843D01*
X205216932Y-125265889D01*
X204873619Y-125197600D01*
X204523581Y-125197600D01*
X204180268Y-125265889D01*
X203856875Y-125399843D01*
X203565829Y-125594314D01*
X203428600Y-125731543D01*
X203291371Y-125594314D01*
X203000325Y-125399843D01*
X202676932Y-125265889D01*
X202333619Y-125197600D01*
X201983581Y-125197600D01*
X201640268Y-125265889D01*
X201316875Y-125399843D01*
X201025829Y-125594314D01*
X200888600Y-125731543D01*
X200751371Y-125594314D01*
X200460325Y-125399843D01*
X200136932Y-125265889D01*
X199793619Y-125197600D01*
X199443581Y-125197600D01*
X199100268Y-125265889D01*
X198776875Y-125399843D01*
X198485829Y-125594314D01*
X198348600Y-125731543D01*
X198211371Y-125594314D01*
X197920325Y-125399843D01*
X197596932Y-125265889D01*
X197253619Y-125197600D01*
X196903581Y-125197600D01*
X196560268Y-125265889D01*
X196236875Y-125399843D01*
X196079379Y-125505079D01*
X196047259Y-125465941D01*
X195906105Y-125350099D01*
X195745064Y-125264020D01*
X195570324Y-125211013D01*
X195388600Y-125193115D01*
X193688600Y-125193115D01*
X193506876Y-125211013D01*
X193332136Y-125264020D01*
X193171095Y-125350099D01*
X193029941Y-125465941D01*
X192914099Y-125607095D01*
X192828020Y-125768136D01*
X192775013Y-125942876D01*
X192757115Y-126124600D01*
X192757115Y-127824600D01*
X192775013Y-128006324D01*
X192828020Y-128181064D01*
X192914099Y-128342105D01*
X193029941Y-128483259D01*
X193171095Y-128599101D01*
X193332136Y-128685180D01*
X193506876Y-128738187D01*
X193688600Y-128756085D01*
X195388600Y-128756085D01*
X195570324Y-128738187D01*
X195745064Y-128685180D01*
X195906105Y-128599101D01*
X196047259Y-128483259D01*
X196079379Y-128444121D01*
X196236875Y-128549357D01*
X196560268Y-128683311D01*
X196903581Y-128751600D01*
X197253619Y-128751600D01*
X197596932Y-128683311D01*
X197920325Y-128549357D01*
X198211371Y-128354886D01*
X198348600Y-128217657D01*
X198485829Y-128354886D01*
X198776875Y-128549357D01*
X199100268Y-128683311D01*
X199443581Y-128751600D01*
X199793619Y-128751600D01*
X200136932Y-128683311D01*
X200460325Y-128549357D01*
X200751371Y-128354886D01*
X200888600Y-128217657D01*
X201025829Y-128354886D01*
X201316875Y-128549357D01*
X201640268Y-128683311D01*
X201983581Y-128751600D01*
X202333619Y-128751600D01*
X202676932Y-128683311D01*
X203000325Y-128549357D01*
X203291371Y-128354886D01*
X203428600Y-128217657D01*
X203565829Y-128354886D01*
X203856875Y-128549357D01*
X204180268Y-128683311D01*
X204523581Y-128751600D01*
X204873619Y-128751600D01*
X205216932Y-128683311D01*
X205540325Y-128549357D01*
X205831371Y-128354886D01*
X205968600Y-128217657D01*
X206105829Y-128354886D01*
X206396875Y-128549357D01*
X206720268Y-128683311D01*
X207063581Y-128751600D01*
X207413619Y-128751600D01*
X207756932Y-128683311D01*
X208080325Y-128549357D01*
X208371371Y-128354886D01*
X208508600Y-128217657D01*
X208645829Y-128354886D01*
X208936875Y-128549357D01*
X209260268Y-128683311D01*
X209603581Y-128751600D01*
X209953619Y-128751600D01*
X210296932Y-128683311D01*
X210620325Y-128549357D01*
X210911371Y-128354886D01*
X211048600Y-128217657D01*
X211185829Y-128354886D01*
X211476875Y-128549357D01*
X211800268Y-128683311D01*
X212143581Y-128751600D01*
X212493619Y-128751600D01*
X212836932Y-128683311D01*
X213160325Y-128549357D01*
X213451371Y-128354886D01*
X213588600Y-128217657D01*
X213725829Y-128354886D01*
X214016875Y-128549357D01*
X214340268Y-128683311D01*
X214683581Y-128751600D01*
X215033619Y-128751600D01*
X215376932Y-128683311D01*
X215700325Y-128549357D01*
X215991371Y-128354886D01*
X216128600Y-128217657D01*
X216265829Y-128354886D01*
X216556875Y-128549357D01*
X216880268Y-128683311D01*
X217223581Y-128751600D01*
X217573619Y-128751600D01*
X217916932Y-128683311D01*
X218240325Y-128549357D01*
X218531371Y-128354886D01*
X218668600Y-128217657D01*
X218805829Y-128354886D01*
X219096875Y-128549357D01*
X219420268Y-128683311D01*
X219763581Y-128751600D01*
X220113619Y-128751600D01*
X220456932Y-128683311D01*
X220780325Y-128549357D01*
X221071371Y-128354886D01*
X221208600Y-128217657D01*
X221345829Y-128354886D01*
X221636875Y-128549357D01*
X221960268Y-128683311D01*
X222303581Y-128751600D01*
X222653619Y-128751600D01*
X222996932Y-128683311D01*
X223320325Y-128549357D01*
X223611371Y-128354886D01*
X223748600Y-128217657D01*
X223885829Y-128354886D01*
X224176875Y-128549357D01*
X224500268Y-128683311D01*
X224843581Y-128751600D01*
X225193619Y-128751600D01*
X225536932Y-128683311D01*
X225860325Y-128549357D01*
X226151371Y-128354886D01*
X226288600Y-128217657D01*
X226425829Y-128354886D01*
X226716875Y-128549357D01*
X227040268Y-128683311D01*
X227383581Y-128751600D01*
X227733619Y-128751600D01*
X228076932Y-128683311D01*
X228400325Y-128549357D01*
X228691371Y-128354886D01*
X228828600Y-128217657D01*
X228965829Y-128354886D01*
X229256875Y-128549357D01*
X229580268Y-128683311D01*
X229923581Y-128751600D01*
X230273619Y-128751600D01*
X230616932Y-128683311D01*
X230940325Y-128549357D01*
X231231371Y-128354886D01*
X231368600Y-128217657D01*
X231505829Y-128354886D01*
X231796875Y-128549357D01*
X232120268Y-128683311D01*
X232463581Y-128751600D01*
X232813619Y-128751600D01*
X233156932Y-128683311D01*
X233480325Y-128549357D01*
X233771371Y-128354886D01*
X233908600Y-128217657D01*
X234045829Y-128354886D01*
X234336875Y-128549357D01*
X234660268Y-128683311D01*
X235003581Y-128751600D01*
X235353619Y-128751600D01*
X235696932Y-128683311D01*
X236020325Y-128549357D01*
X236311371Y-128354886D01*
X236448600Y-128217657D01*
X236585829Y-128354886D01*
X236876875Y-128549357D01*
X237200268Y-128683311D01*
X237543581Y-128751600D01*
X237893619Y-128751600D01*
X238236932Y-128683311D01*
X238560325Y-128549357D01*
X238851371Y-128354886D01*
X238988600Y-128217657D01*
X239125829Y-128354886D01*
X239416875Y-128549357D01*
X239740268Y-128683311D01*
X240083581Y-128751600D01*
X240433619Y-128751600D01*
X240776932Y-128683311D01*
X240818300Y-128666176D01*
X240818300Y-137136476D01*
X240543986Y-136939919D01*
X238164905Y-139319000D01*
X238179048Y-139333143D01*
X237999443Y-139512748D01*
X237985300Y-139498605D01*
X235606219Y-141877686D01*
X235802776Y-142152000D01*
X140248047Y-142152000D01*
X140354611Y-141894732D01*
X140422900Y-141551419D01*
X140422900Y-141201381D01*
X140354611Y-140858068D01*
X140220657Y-140534675D01*
X140026186Y-140243629D01*
X139888957Y-140106400D01*
X140026186Y-139969171D01*
X140220657Y-139678125D01*
X140354611Y-139354732D01*
X140422900Y-139011419D01*
X140422900Y-138661381D01*
X140354611Y-138318068D01*
X140220657Y-137994675D01*
X140026186Y-137703629D01*
X139888957Y-137566400D01*
X140026186Y-137429171D01*
X140220657Y-137138125D01*
X140249844Y-137067660D01*
X146578900Y-137067660D01*
X146578900Y-137506340D01*
X146664482Y-137936592D01*
X146832358Y-138341880D01*
X147076076Y-138706630D01*
X147386270Y-139016824D01*
X147751020Y-139260542D01*
X148156308Y-139428418D01*
X148586560Y-139514000D01*
X149025240Y-139514000D01*
X149455492Y-139428418D01*
X149860780Y-139260542D01*
X150225530Y-139016824D01*
X150535724Y-138706630D01*
X150779442Y-138341880D01*
X150947318Y-137936592D01*
X151032900Y-137506340D01*
X151032900Y-137067660D01*
X151658900Y-137067660D01*
X151658900Y-137506340D01*
X151744482Y-137936592D01*
X151912358Y-138341880D01*
X152156076Y-138706630D01*
X152466270Y-139016824D01*
X152831020Y-139260542D01*
X153236308Y-139428418D01*
X153666560Y-139514000D01*
X154105240Y-139514000D01*
X154535492Y-139428418D01*
X154940780Y-139260542D01*
X155305530Y-139016824D01*
X155615724Y-138706630D01*
X155859442Y-138341880D01*
X156027318Y-137936592D01*
X156112900Y-137506340D01*
X156112900Y-137067660D01*
X156738900Y-137067660D01*
X156738900Y-137506340D01*
X156824482Y-137936592D01*
X156992358Y-138341880D01*
X157236076Y-138706630D01*
X157546270Y-139016824D01*
X157911020Y-139260542D01*
X158316308Y-139428418D01*
X158746560Y-139514000D01*
X159185240Y-139514000D01*
X159615492Y-139428418D01*
X160020780Y-139260542D01*
X160385530Y-139016824D01*
X160695724Y-138706630D01*
X160939442Y-138341880D01*
X161107318Y-137936592D01*
X161192900Y-137506340D01*
X161192900Y-137067660D01*
X161818900Y-137067660D01*
X161818900Y-137506340D01*
X161904482Y-137936592D01*
X162072358Y-138341880D01*
X162316076Y-138706630D01*
X162626270Y-139016824D01*
X162991020Y-139260542D01*
X163396308Y-139428418D01*
X163826560Y-139514000D01*
X164265240Y-139514000D01*
X164695492Y-139428418D01*
X165100780Y-139260542D01*
X165465530Y-139016824D01*
X165775724Y-138706630D01*
X166019442Y-138341880D01*
X166187318Y-137936592D01*
X166272900Y-137506340D01*
X166272900Y-137067660D01*
X166898900Y-137067660D01*
X166898900Y-137506340D01*
X166984482Y-137936592D01*
X167152358Y-138341880D01*
X167396076Y-138706630D01*
X167706270Y-139016824D01*
X168071020Y-139260542D01*
X168476308Y-139428418D01*
X168906560Y-139514000D01*
X169345240Y-139514000D01*
X169775492Y-139428418D01*
X170180780Y-139260542D01*
X170545530Y-139016824D01*
X170855724Y-138706630D01*
X171099442Y-138341880D01*
X171267318Y-137936592D01*
X171352900Y-137506340D01*
X171352900Y-137067660D01*
X171978900Y-137067660D01*
X171978900Y-137506340D01*
X172064482Y-137936592D01*
X172232358Y-138341880D01*
X172476076Y-138706630D01*
X172786270Y-139016824D01*
X173151020Y-139260542D01*
X173556308Y-139428418D01*
X173986560Y-139514000D01*
X174425240Y-139514000D01*
X174855492Y-139428418D01*
X175260780Y-139260542D01*
X175625530Y-139016824D01*
X175935724Y-138706630D01*
X176179442Y-138341880D01*
X176347318Y-137936592D01*
X176432900Y-137506340D01*
X176432900Y-137067660D01*
X177058900Y-137067660D01*
X177058900Y-137506340D01*
X177144482Y-137936592D01*
X177312358Y-138341880D01*
X177556076Y-138706630D01*
X177866270Y-139016824D01*
X178231020Y-139260542D01*
X178636308Y-139428418D01*
X179066560Y-139514000D01*
X179505240Y-139514000D01*
X179935492Y-139428418D01*
X180340780Y-139260542D01*
X180705530Y-139016824D01*
X181015724Y-138706630D01*
X181259442Y-138341880D01*
X181427318Y-137936592D01*
X181512900Y-137506340D01*
X181512900Y-137067660D01*
X181427318Y-136637408D01*
X181259442Y-136232120D01*
X181095659Y-135987000D01*
X182134415Y-135987000D01*
X182134415Y-138587000D01*
X182152313Y-138768724D01*
X182205320Y-138943464D01*
X182291399Y-139104505D01*
X182407241Y-139245659D01*
X182548395Y-139361501D01*
X182709436Y-139447580D01*
X182884176Y-139500587D01*
X183065900Y-139518485D01*
X185665900Y-139518485D01*
X185847624Y-139500587D01*
X186022364Y-139447580D01*
X186183405Y-139361501D01*
X186324559Y-139245659D01*
X186440401Y-139104505D01*
X186526480Y-138943464D01*
X186579487Y-138768724D01*
X186580052Y-138762981D01*
X209043000Y-138762981D01*
X209043000Y-139113019D01*
X209111289Y-139456332D01*
X209245243Y-139779725D01*
X209439714Y-140070771D01*
X209687229Y-140318286D01*
X209978275Y-140512757D01*
X210301668Y-140646711D01*
X210644981Y-140715000D01*
X210995019Y-140715000D01*
X211338332Y-140646711D01*
X211661725Y-140512757D01*
X211952771Y-140318286D01*
X212200286Y-140070771D01*
X212281664Y-139948980D01*
X212359731Y-140035588D01*
X212593080Y-140209641D01*
X212855901Y-140334825D01*
X213003110Y-140379476D01*
X213233000Y-140258155D01*
X213233000Y-139065000D01*
X213213000Y-139065000D01*
X213213000Y-138811000D01*
X213233000Y-138811000D01*
X213233000Y-137617845D01*
X213487000Y-137617845D01*
X213487000Y-138811000D01*
X213507000Y-138811000D01*
X213507000Y-139065000D01*
X213487000Y-139065000D01*
X213487000Y-140258155D01*
X213716890Y-140379476D01*
X213864099Y-140334825D01*
X214126920Y-140209641D01*
X214360269Y-140035588D01*
X214438336Y-139948980D01*
X214519714Y-140070771D01*
X214767229Y-140318286D01*
X215058275Y-140512757D01*
X215381668Y-140646711D01*
X215724981Y-140715000D01*
X216075019Y-140715000D01*
X216418332Y-140646711D01*
X216741725Y-140512757D01*
X217032771Y-140318286D01*
X217170000Y-140181057D01*
X217307229Y-140318286D01*
X217598275Y-140512757D01*
X217921668Y-140646711D01*
X218264981Y-140715000D01*
X218615019Y-140715000D01*
X218958332Y-140646711D01*
X219281725Y-140512757D01*
X219572771Y-140318286D01*
X219710000Y-140181057D01*
X219847229Y-140318286D01*
X220138275Y-140512757D01*
X220461668Y-140646711D01*
X220804981Y-140715000D01*
X221155019Y-140715000D01*
X221498332Y-140646711D01*
X221821725Y-140512757D01*
X222112771Y-140318286D01*
X222250000Y-140181057D01*
X222387229Y-140318286D01*
X222678275Y-140512757D01*
X223001668Y-140646711D01*
X223344981Y-140715000D01*
X223695019Y-140715000D01*
X224038332Y-140646711D01*
X224361725Y-140512757D01*
X224519221Y-140407521D01*
X224551341Y-140446659D01*
X224692495Y-140562501D01*
X224853536Y-140648580D01*
X225028276Y-140701587D01*
X225210000Y-140719485D01*
X226910000Y-140719485D01*
X227091724Y-140701587D01*
X227266464Y-140648580D01*
X227427505Y-140562501D01*
X227568659Y-140446659D01*
X227684501Y-140305505D01*
X227770580Y-140144464D01*
X227823587Y-139969724D01*
X227841485Y-139788000D01*
X227841485Y-139302589D01*
X234332750Y-139302589D01*
X234399731Y-140015482D01*
X234604504Y-140701609D01*
X234939198Y-141334603D01*
X234957432Y-141361894D01*
X235426614Y-141698081D01*
X237805695Y-139319000D01*
X235426614Y-136939919D01*
X234957432Y-137276106D01*
X234617063Y-137906068D01*
X234406134Y-138590327D01*
X234332750Y-139302589D01*
X227841485Y-139302589D01*
X227841485Y-138088000D01*
X227823587Y-137906276D01*
X227770580Y-137731536D01*
X227684501Y-137570495D01*
X227568659Y-137429341D01*
X227427505Y-137313499D01*
X227266464Y-137227420D01*
X227091724Y-137174413D01*
X226910000Y-137156515D01*
X225210000Y-137156515D01*
X225028276Y-137174413D01*
X224853536Y-137227420D01*
X224692495Y-137313499D01*
X224551341Y-137429341D01*
X224519221Y-137468479D01*
X224361725Y-137363243D01*
X224038332Y-137229289D01*
X223695019Y-137161000D01*
X223344981Y-137161000D01*
X223001668Y-137229289D01*
X222678275Y-137363243D01*
X222387229Y-137557714D01*
X222250000Y-137694943D01*
X222112771Y-137557714D01*
X221821725Y-137363243D01*
X221498332Y-137229289D01*
X221155019Y-137161000D01*
X220804981Y-137161000D01*
X220461668Y-137229289D01*
X220138275Y-137363243D01*
X219847229Y-137557714D01*
X219710000Y-137694943D01*
X219572771Y-137557714D01*
X219281725Y-137363243D01*
X218958332Y-137229289D01*
X218615019Y-137161000D01*
X218264981Y-137161000D01*
X217921668Y-137229289D01*
X217598275Y-137363243D01*
X217307229Y-137557714D01*
X217170000Y-137694943D01*
X217032771Y-137557714D01*
X216741725Y-137363243D01*
X216418332Y-137229289D01*
X216075019Y-137161000D01*
X215724981Y-137161000D01*
X215381668Y-137229289D01*
X215058275Y-137363243D01*
X214767229Y-137557714D01*
X214519714Y-137805229D01*
X214438336Y-137927020D01*
X214360269Y-137840412D01*
X214126920Y-137666359D01*
X213864099Y-137541175D01*
X213716890Y-137496524D01*
X213487000Y-137617845D01*
X213233000Y-137617845D01*
X213003110Y-137496524D01*
X212855901Y-137541175D01*
X212593080Y-137666359D01*
X212359731Y-137840412D01*
X212281664Y-137927020D01*
X212200286Y-137805229D01*
X211952771Y-137557714D01*
X211661725Y-137363243D01*
X211338332Y-137229289D01*
X210995019Y-137161000D01*
X210644981Y-137161000D01*
X210301668Y-137229289D01*
X209978275Y-137363243D01*
X209687229Y-137557714D01*
X209439714Y-137805229D01*
X209245243Y-138096275D01*
X209111289Y-138419668D01*
X209043000Y-138762981D01*
X186580052Y-138762981D01*
X186597385Y-138587000D01*
X186597385Y-136760314D01*
X235606219Y-136760314D01*
X237985300Y-139139395D01*
X240364381Y-136760314D01*
X240028194Y-136291132D01*
X239398232Y-135950763D01*
X238713973Y-135739834D01*
X238001711Y-135666450D01*
X237288818Y-135733431D01*
X236602691Y-135938204D01*
X235969697Y-136272898D01*
X235942406Y-136291132D01*
X235606219Y-136760314D01*
X186597385Y-136760314D01*
X186597385Y-135987000D01*
X186579487Y-135805276D01*
X186526480Y-135630536D01*
X186440401Y-135469495D01*
X186324559Y-135328341D01*
X186183405Y-135212499D01*
X186022364Y-135126420D01*
X185847624Y-135073413D01*
X185665900Y-135055515D01*
X183065900Y-135055515D01*
X182884176Y-135073413D01*
X182709436Y-135126420D01*
X182548395Y-135212499D01*
X182407241Y-135328341D01*
X182291399Y-135469495D01*
X182205320Y-135630536D01*
X182152313Y-135805276D01*
X182134415Y-135987000D01*
X181095659Y-135987000D01*
X181015724Y-135867370D01*
X180705530Y-135557176D01*
X180340780Y-135313458D01*
X179935492Y-135145582D01*
X179505240Y-135060000D01*
X179066560Y-135060000D01*
X178636308Y-135145582D01*
X178231020Y-135313458D01*
X177866270Y-135557176D01*
X177556076Y-135867370D01*
X177312358Y-136232120D01*
X177144482Y-136637408D01*
X177058900Y-137067660D01*
X176432900Y-137067660D01*
X176347318Y-136637408D01*
X176179442Y-136232120D01*
X175935724Y-135867370D01*
X175625530Y-135557176D01*
X175260780Y-135313458D01*
X174855492Y-135145582D01*
X174425240Y-135060000D01*
X173986560Y-135060000D01*
X173556308Y-135145582D01*
X173151020Y-135313458D01*
X172786270Y-135557176D01*
X172476076Y-135867370D01*
X172232358Y-136232120D01*
X172064482Y-136637408D01*
X171978900Y-137067660D01*
X171352900Y-137067660D01*
X171267318Y-136637408D01*
X171099442Y-136232120D01*
X170855724Y-135867370D01*
X170545530Y-135557176D01*
X170180780Y-135313458D01*
X169775492Y-135145582D01*
X169345240Y-135060000D01*
X168906560Y-135060000D01*
X168476308Y-135145582D01*
X168071020Y-135313458D01*
X167706270Y-135557176D01*
X167396076Y-135867370D01*
X167152358Y-136232120D01*
X166984482Y-136637408D01*
X166898900Y-137067660D01*
X166272900Y-137067660D01*
X166187318Y-136637408D01*
X166019442Y-136232120D01*
X165775724Y-135867370D01*
X165465530Y-135557176D01*
X165100780Y-135313458D01*
X164695492Y-135145582D01*
X164265240Y-135060000D01*
X163826560Y-135060000D01*
X163396308Y-135145582D01*
X162991020Y-135313458D01*
X162626270Y-135557176D01*
X162316076Y-135867370D01*
X162072358Y-136232120D01*
X161904482Y-136637408D01*
X161818900Y-137067660D01*
X161192900Y-137067660D01*
X161107318Y-136637408D01*
X160939442Y-136232120D01*
X160695724Y-135867370D01*
X160385530Y-135557176D01*
X160020780Y-135313458D01*
X159615492Y-135145582D01*
X159185240Y-135060000D01*
X158746560Y-135060000D01*
X158316308Y-135145582D01*
X157911020Y-135313458D01*
X157546270Y-135557176D01*
X157236076Y-135867370D01*
X156992358Y-136232120D01*
X156824482Y-136637408D01*
X156738900Y-137067660D01*
X156112900Y-137067660D01*
X156027318Y-136637408D01*
X155859442Y-136232120D01*
X155615724Y-135867370D01*
X155305530Y-135557176D01*
X154940780Y-135313458D01*
X154535492Y-135145582D01*
X154105240Y-135060000D01*
X153666560Y-135060000D01*
X153236308Y-135145582D01*
X152831020Y-135313458D01*
X152466270Y-135557176D01*
X152156076Y-135867370D01*
X151912358Y-136232120D01*
X151744482Y-136637408D01*
X151658900Y-137067660D01*
X151032900Y-137067660D01*
X150947318Y-136637408D01*
X150779442Y-136232120D01*
X150535724Y-135867370D01*
X150225530Y-135557176D01*
X149860780Y-135313458D01*
X149455492Y-135145582D01*
X149025240Y-135060000D01*
X148586560Y-135060000D01*
X148156308Y-135145582D01*
X147751020Y-135313458D01*
X147386270Y-135557176D01*
X147076076Y-135867370D01*
X146832358Y-136232120D01*
X146664482Y-136637408D01*
X146578900Y-137067660D01*
X140249844Y-137067660D01*
X140354611Y-136814732D01*
X140422900Y-136471419D01*
X140422900Y-136121381D01*
X140354611Y-135778068D01*
X140220657Y-135454675D01*
X140026186Y-135163629D01*
X139888957Y-135026400D01*
X140026186Y-134889171D01*
X140220657Y-134598125D01*
X140354611Y-134274732D01*
X140422900Y-133931419D01*
X140422900Y-133581381D01*
X140354611Y-133238068D01*
X140220657Y-132914675D01*
X140026186Y-132623629D01*
X139888957Y-132486400D01*
X140026186Y-132349171D01*
X140220657Y-132058125D01*
X140354611Y-131734732D01*
X140422900Y-131391419D01*
X140422900Y-131041381D01*
X140354611Y-130698068D01*
X140220657Y-130374675D01*
X140026186Y-130083629D01*
X139778671Y-129836114D01*
X139656880Y-129754736D01*
X139743488Y-129676669D01*
X139917541Y-129443320D01*
X140042725Y-129180499D01*
X140087376Y-129033290D01*
X139966055Y-128803400D01*
X138772900Y-128803400D01*
X138772900Y-128823400D01*
X138518900Y-128823400D01*
X138518900Y-128803400D01*
X137325745Y-128803400D01*
X137204424Y-129033290D01*
X137249075Y-129180499D01*
X137374259Y-129443320D01*
X137548312Y-129676669D01*
X137634920Y-129754736D01*
X137513129Y-129836114D01*
X137265614Y-130083629D01*
X137071143Y-130374675D01*
X136937189Y-130698068D01*
X136868900Y-131041381D01*
X136868900Y-131391419D01*
X136937189Y-131734732D01*
X137071143Y-132058125D01*
X137265614Y-132349171D01*
X137402843Y-132486400D01*
X137265614Y-132623629D01*
X137071143Y-132914675D01*
X136937189Y-133238068D01*
X136868900Y-133581381D01*
X136868900Y-133931419D01*
X136937189Y-134274732D01*
X137071143Y-134598125D01*
X137265614Y-134889171D01*
X137402843Y-135026400D01*
X137265614Y-135163629D01*
X137071143Y-135454675D01*
X136937189Y-135778068D01*
X136868900Y-136121381D01*
X136868900Y-136471419D01*
X136937189Y-136814732D01*
X137071143Y-137138125D01*
X137265614Y-137429171D01*
X137402843Y-137566400D01*
X137265614Y-137703629D01*
X137071143Y-137994675D01*
X136937189Y-138318068D01*
X136868900Y-138661381D01*
X136868900Y-139011419D01*
X136937189Y-139354732D01*
X137071143Y-139678125D01*
X137265614Y-139969171D01*
X137402843Y-140106400D01*
X137265614Y-140243629D01*
X137071143Y-140534675D01*
X136937189Y-140858068D01*
X136868900Y-141201381D01*
X136868900Y-141551419D01*
X136937189Y-141894732D01*
X137043753Y-142152000D01*
X111906363Y-142152000D01*
X112115817Y-142044205D01*
X112254678Y-141951421D01*
X112794816Y-141308121D01*
X109207300Y-137720605D01*
X105619784Y-141308121D01*
X106159922Y-141951421D01*
X106521515Y-142152000D01*
X97927824Y-142152000D01*
X98124381Y-141877686D01*
X95745300Y-139498605D01*
X95731158Y-139512748D01*
X95551553Y-139333143D01*
X95565695Y-139319000D01*
X95924905Y-139319000D01*
X98303986Y-141698081D01*
X98773168Y-141361894D01*
X99113537Y-140731932D01*
X99324466Y-140047673D01*
X99397850Y-139335411D01*
X99330869Y-138622518D01*
X99126096Y-137936391D01*
X98872882Y-137457496D01*
X103847136Y-137457496D01*
X103933840Y-138504817D01*
X104223199Y-139515099D01*
X104704095Y-140449517D01*
X104796879Y-140588378D01*
X105440179Y-141128516D01*
X109027695Y-137541000D01*
X109386905Y-137541000D01*
X112974421Y-141128516D01*
X113617721Y-140588378D01*
X114127490Y-139669393D01*
X114448179Y-138668615D01*
X114567464Y-137624504D01*
X114480760Y-136577183D01*
X114191401Y-135566901D01*
X113710505Y-134632483D01*
X113617721Y-134493622D01*
X112974421Y-133953484D01*
X109386905Y-137541000D01*
X109027695Y-137541000D01*
X105440179Y-133953484D01*
X104796879Y-134493622D01*
X104287110Y-135412607D01*
X103966421Y-136413385D01*
X103847136Y-137457496D01*
X98872882Y-137457496D01*
X98791402Y-137303397D01*
X98773168Y-137276106D01*
X98303986Y-136939919D01*
X95924905Y-139319000D01*
X95565695Y-139319000D01*
X93186614Y-136939919D01*
X92912300Y-137136476D01*
X92912300Y-136760314D01*
X93366219Y-136760314D01*
X95745300Y-139139395D01*
X98124381Y-136760314D01*
X97788194Y-136291132D01*
X97158232Y-135950763D01*
X96473973Y-135739834D01*
X95761711Y-135666450D01*
X95048818Y-135733431D01*
X94362691Y-135938204D01*
X93729697Y-136272898D01*
X93702406Y-136291132D01*
X93366219Y-136760314D01*
X92912300Y-136760314D01*
X92912300Y-131034000D01*
X95545815Y-131034000D01*
X95545815Y-133634000D01*
X95563713Y-133815724D01*
X95616720Y-133990464D01*
X95702799Y-134151505D01*
X95818641Y-134292659D01*
X95959795Y-134408501D01*
X96120836Y-134494580D01*
X96295576Y-134547587D01*
X96477300Y-134565485D01*
X99077300Y-134565485D01*
X99259024Y-134547587D01*
X99433764Y-134494580D01*
X99594805Y-134408501D01*
X99735959Y-134292659D01*
X99851801Y-134151505D01*
X99937880Y-133990464D01*
X99990887Y-133815724D01*
X99995008Y-133773879D01*
X105619784Y-133773879D01*
X109207300Y-137361395D01*
X112794816Y-133773879D01*
X112254678Y-133130579D01*
X111335693Y-132620810D01*
X110334915Y-132300121D01*
X109290804Y-132180836D01*
X108243483Y-132267540D01*
X107233201Y-132556899D01*
X106298783Y-133037795D01*
X106159922Y-133130579D01*
X105619784Y-133773879D01*
X99995008Y-133773879D01*
X100008785Y-133634000D01*
X100008785Y-131034000D01*
X99990887Y-130852276D01*
X99937880Y-130677536D01*
X99851801Y-130516495D01*
X99735959Y-130375341D01*
X99594805Y-130259499D01*
X99433764Y-130173420D01*
X99259024Y-130120413D01*
X99077300Y-130102515D01*
X96477300Y-130102515D01*
X96295576Y-130120413D01*
X96120836Y-130173420D01*
X95959795Y-130259499D01*
X95818641Y-130375341D01*
X95702799Y-130516495D01*
X95616720Y-130677536D01*
X95563713Y-130852276D01*
X95545815Y-131034000D01*
X92912300Y-131034000D01*
X92912300Y-127034660D01*
X95550300Y-127034660D01*
X95550300Y-127473340D01*
X95635882Y-127903592D01*
X95803758Y-128308880D01*
X96047476Y-128673630D01*
X96357670Y-128983824D01*
X96722420Y-129227542D01*
X97127708Y-129395418D01*
X97557960Y-129481000D01*
X97996640Y-129481000D01*
X98426892Y-129395418D01*
X98832180Y-129227542D01*
X99196930Y-128983824D01*
X99507124Y-128673630D01*
X99750842Y-128308880D01*
X99918718Y-127903592D01*
X100004300Y-127473340D01*
X100004300Y-127034660D01*
X99918718Y-126604408D01*
X99750842Y-126199120D01*
X99575019Y-125935981D01*
X115126500Y-125935981D01*
X115126500Y-126286019D01*
X115194789Y-126629332D01*
X115328743Y-126952725D01*
X115523214Y-127243771D01*
X115660443Y-127381000D01*
X115523214Y-127518229D01*
X115328743Y-127809275D01*
X115194789Y-128132668D01*
X115126500Y-128475981D01*
X115126500Y-128826019D01*
X115194789Y-129169332D01*
X115328743Y-129492725D01*
X115523214Y-129783771D01*
X115660443Y-129921000D01*
X115523214Y-130058229D01*
X115328743Y-130349275D01*
X115194789Y-130672668D01*
X115126500Y-131015981D01*
X115126500Y-131366019D01*
X115194789Y-131709332D01*
X115328743Y-132032725D01*
X115523214Y-132323771D01*
X115660443Y-132461000D01*
X115523214Y-132598229D01*
X115328743Y-132889275D01*
X115194789Y-133212668D01*
X115126500Y-133555981D01*
X115126500Y-133906019D01*
X115194789Y-134249332D01*
X115328743Y-134572725D01*
X115523214Y-134863771D01*
X115660443Y-135001000D01*
X115523214Y-135138229D01*
X115328743Y-135429275D01*
X115194789Y-135752668D01*
X115126500Y-136095981D01*
X115126500Y-136446019D01*
X115194789Y-136789332D01*
X115328743Y-137112725D01*
X115523214Y-137403771D01*
X115660443Y-137541000D01*
X115523214Y-137678229D01*
X115328743Y-137969275D01*
X115194789Y-138292668D01*
X115126500Y-138635981D01*
X115126500Y-138986019D01*
X115194789Y-139329332D01*
X115328743Y-139652725D01*
X115523214Y-139943771D01*
X115770729Y-140191286D01*
X116061775Y-140385757D01*
X116385168Y-140519711D01*
X116728481Y-140588000D01*
X117078519Y-140588000D01*
X117421832Y-140519711D01*
X117745225Y-140385757D01*
X118036271Y-140191286D01*
X118283786Y-139943771D01*
X118478257Y-139652725D01*
X118612211Y-139329332D01*
X118680500Y-138986019D01*
X118680500Y-138635981D01*
X118612211Y-138292668D01*
X118478257Y-137969275D01*
X118283786Y-137678229D01*
X118146557Y-137541000D01*
X118283786Y-137403771D01*
X118478257Y-137112725D01*
X118612211Y-136789332D01*
X118680500Y-136446019D01*
X118680500Y-136095981D01*
X118612211Y-135752668D01*
X118478257Y-135429275D01*
X118283786Y-135138229D01*
X118146557Y-135001000D01*
X118283786Y-134863771D01*
X118478257Y-134572725D01*
X118612211Y-134249332D01*
X118680500Y-133906019D01*
X118680500Y-133555981D01*
X118612211Y-133212668D01*
X118478257Y-132889275D01*
X118283786Y-132598229D01*
X118146557Y-132461000D01*
X118283786Y-132323771D01*
X118478257Y-132032725D01*
X118612211Y-131709332D01*
X118680500Y-131366019D01*
X118680500Y-131015981D01*
X118612211Y-130672668D01*
X118478257Y-130349275D01*
X118283786Y-130058229D01*
X118146557Y-129921000D01*
X118283786Y-129783771D01*
X118478257Y-129492725D01*
X118612211Y-129169332D01*
X118680500Y-128826019D01*
X118680500Y-128475981D01*
X118649377Y-128319510D01*
X137204424Y-128319510D01*
X137325745Y-128549400D01*
X138518900Y-128549400D01*
X138518900Y-127355586D01*
X138772900Y-127355586D01*
X138772900Y-128549400D01*
X139966055Y-128549400D01*
X140087376Y-128319510D01*
X140042725Y-128172301D01*
X139917541Y-127909480D01*
X139743488Y-127676131D01*
X139527255Y-127481222D01*
X139277152Y-127332243D01*
X139002791Y-127234919D01*
X138772900Y-127355586D01*
X138518900Y-127355586D01*
X138289009Y-127234919D01*
X138014648Y-127332243D01*
X137764545Y-127481222D01*
X137548312Y-127676131D01*
X137374259Y-127909480D01*
X137249075Y-128172301D01*
X137204424Y-128319510D01*
X118649377Y-128319510D01*
X118612211Y-128132668D01*
X118478257Y-127809275D01*
X118283786Y-127518229D01*
X118146557Y-127381000D01*
X118283786Y-127243771D01*
X118478257Y-126952725D01*
X118612211Y-126629332D01*
X118680500Y-126286019D01*
X118680500Y-125935981D01*
X118612211Y-125592668D01*
X118478257Y-125269275D01*
X118283786Y-124978229D01*
X118269859Y-124964302D01*
X130829200Y-124964302D01*
X130829200Y-125225698D01*
X130880196Y-125482072D01*
X130930286Y-125603000D01*
X130880196Y-125723928D01*
X130829200Y-125980302D01*
X130829200Y-126241698D01*
X130880196Y-126498072D01*
X130980228Y-126739570D01*
X131125452Y-126956913D01*
X131310287Y-127141748D01*
X131527630Y-127286972D01*
X131769128Y-127387004D01*
X132025502Y-127438000D01*
X132286898Y-127438000D01*
X132543272Y-127387004D01*
X132784770Y-127286972D01*
X133002113Y-127141748D01*
X133186948Y-126956913D01*
X133332172Y-126739570D01*
X133432204Y-126498072D01*
X133483200Y-126241698D01*
X133483200Y-125980302D01*
X133432204Y-125723928D01*
X133382114Y-125603000D01*
X133432204Y-125482072D01*
X133483200Y-125225698D01*
X133483200Y-124964302D01*
X133432204Y-124707928D01*
X133332172Y-124466430D01*
X133186948Y-124249087D01*
X133002113Y-124064252D01*
X132784770Y-123919028D01*
X132543272Y-123818996D01*
X132286898Y-123768000D01*
X132025502Y-123768000D01*
X131769128Y-123818996D01*
X131527630Y-123919028D01*
X131310287Y-124064252D01*
X131125452Y-124249087D01*
X130980228Y-124466430D01*
X130880196Y-124707928D01*
X130829200Y-124964302D01*
X118269859Y-124964302D01*
X118036271Y-124730714D01*
X117745225Y-124536243D01*
X117421832Y-124402289D01*
X117078519Y-124334000D01*
X116728481Y-124334000D01*
X116385168Y-124402289D01*
X116061775Y-124536243D01*
X115770729Y-124730714D01*
X115523214Y-124978229D01*
X115328743Y-125269275D01*
X115194789Y-125592668D01*
X115126500Y-125935981D01*
X99575019Y-125935981D01*
X99507124Y-125834370D01*
X99196930Y-125524176D01*
X98832180Y-125280458D01*
X98426892Y-125112582D01*
X97996640Y-125027000D01*
X97557960Y-125027000D01*
X97127708Y-125112582D01*
X96722420Y-125280458D01*
X96357670Y-125524176D01*
X96047476Y-125834370D01*
X95803758Y-126199120D01*
X95635882Y-126604408D01*
X95550300Y-127034660D01*
X92912300Y-127034660D01*
X92912300Y-121954660D01*
X95550300Y-121954660D01*
X95550300Y-122393340D01*
X95635882Y-122823592D01*
X95803758Y-123228880D01*
X96047476Y-123593630D01*
X96357670Y-123903824D01*
X96722420Y-124147542D01*
X97127708Y-124315418D01*
X97557960Y-124401000D01*
X97996640Y-124401000D01*
X98426892Y-124315418D01*
X98832180Y-124147542D01*
X99196930Y-123903824D01*
X99507124Y-123593630D01*
X99750842Y-123228880D01*
X99918718Y-122823592D01*
X100004300Y-122393340D01*
X100004300Y-121954660D01*
X99918718Y-121524408D01*
X99750842Y-121119120D01*
X99507124Y-120754370D01*
X99196930Y-120444176D01*
X98832180Y-120200458D01*
X98426892Y-120032582D01*
X97996640Y-119947000D01*
X97557960Y-119947000D01*
X97127708Y-120032582D01*
X96722420Y-120200458D01*
X96357670Y-120444176D01*
X96047476Y-120754370D01*
X95803758Y-121119120D01*
X95635882Y-121524408D01*
X95550300Y-121954660D01*
X92912300Y-121954660D01*
X92912300Y-119529733D01*
X133744300Y-119529733D01*
X133744300Y-120500267D01*
X133933642Y-121452153D01*
X134305049Y-122348810D01*
X134844249Y-123155780D01*
X135530520Y-123842051D01*
X136337490Y-124381251D01*
X137234147Y-124752658D01*
X138186033Y-124942000D01*
X139156567Y-124942000D01*
X140108453Y-124752658D01*
X141005110Y-124381251D01*
X141812080Y-123842051D01*
X142498351Y-123155780D01*
X142817392Y-122678300D01*
X187128300Y-122678300D01*
X187128300Y-122939696D01*
X187179296Y-123196070D01*
X187279328Y-123437568D01*
X187424552Y-123654911D01*
X187609387Y-123839746D01*
X187826730Y-123984970D01*
X188068228Y-124085002D01*
X188324602Y-124135998D01*
X188585998Y-124135998D01*
X188842372Y-124085002D01*
X189083870Y-123984970D01*
X189301213Y-123839746D01*
X189486048Y-123654911D01*
X189631272Y-123437568D01*
X189731304Y-123196070D01*
X189782300Y-122939696D01*
X189782300Y-122678300D01*
X189731304Y-122421926D01*
X189631272Y-122180428D01*
X189486048Y-121963085D01*
X189301213Y-121778250D01*
X189083870Y-121633026D01*
X188842372Y-121532994D01*
X188585998Y-121481998D01*
X188324602Y-121481998D01*
X188068228Y-121532994D01*
X187826730Y-121633026D01*
X187609387Y-121778250D01*
X187424552Y-121963085D01*
X187279328Y-122180428D01*
X187179296Y-122421926D01*
X187128300Y-122678300D01*
X142817392Y-122678300D01*
X143037551Y-122348810D01*
X143408958Y-121452153D01*
X143598300Y-120500267D01*
X143598300Y-119529733D01*
X143408958Y-118577847D01*
X143037551Y-117681190D01*
X142982161Y-117598292D01*
X187128300Y-117598292D01*
X187128300Y-117859688D01*
X187179296Y-118116062D01*
X187279328Y-118357560D01*
X187424552Y-118574903D01*
X187609387Y-118759738D01*
X187826730Y-118904962D01*
X188068228Y-119004994D01*
X188324602Y-119055990D01*
X188585998Y-119055990D01*
X188842372Y-119004994D01*
X189083870Y-118904962D01*
X189301213Y-118759738D01*
X189486048Y-118574903D01*
X189631272Y-118357560D01*
X189731304Y-118116062D01*
X189782300Y-117859688D01*
X189782300Y-117598292D01*
X189731304Y-117341918D01*
X189631272Y-117100420D01*
X189486048Y-116883077D01*
X189301213Y-116698242D01*
X189083870Y-116553018D01*
X188842372Y-116452986D01*
X188585998Y-116401990D01*
X188324602Y-116401990D01*
X188068228Y-116452986D01*
X187826730Y-116553018D01*
X187609387Y-116698242D01*
X187424552Y-116883077D01*
X187279328Y-117100420D01*
X187179296Y-117341918D01*
X187128300Y-117598292D01*
X142982161Y-117598292D01*
X142498351Y-116874220D01*
X141812080Y-116187949D01*
X141005110Y-115648749D01*
X140849441Y-115584269D01*
X140863272Y-115563570D01*
X140963304Y-115322072D01*
X141014300Y-115065698D01*
X141014300Y-114804302D01*
X140963304Y-114547928D01*
X140863272Y-114306430D01*
X140718048Y-114089087D01*
X140533213Y-113904252D01*
X140315870Y-113759028D01*
X140079940Y-113661302D01*
X159455000Y-113661302D01*
X159455000Y-113922698D01*
X159505996Y-114179072D01*
X159606028Y-114420570D01*
X159751252Y-114637913D01*
X159936087Y-114822748D01*
X160153430Y-114967972D01*
X160394928Y-115068004D01*
X160651302Y-115119000D01*
X160912698Y-115119000D01*
X161169072Y-115068004D01*
X161410570Y-114967972D01*
X161627913Y-114822748D01*
X161812748Y-114637913D01*
X161957972Y-114420570D01*
X162058004Y-114179072D01*
X162109000Y-113922698D01*
X162109000Y-113661302D01*
X165157296Y-113661302D01*
X165157296Y-113922698D01*
X165208292Y-114179072D01*
X165308324Y-114420570D01*
X165453548Y-114637913D01*
X165638383Y-114822748D01*
X165855726Y-114967972D01*
X166097224Y-115068004D01*
X166353598Y-115119000D01*
X166614994Y-115119000D01*
X166871368Y-115068004D01*
X167112866Y-114967972D01*
X167330209Y-114822748D01*
X167515044Y-114637913D01*
X167660268Y-114420570D01*
X167760300Y-114179072D01*
X167811296Y-113922698D01*
X167811296Y-113661302D01*
X168345000Y-113661302D01*
X168345000Y-113922698D01*
X168395996Y-114179072D01*
X168496028Y-114420570D01*
X168641252Y-114637913D01*
X168826087Y-114822748D01*
X169043430Y-114967972D01*
X169284928Y-115068004D01*
X169541302Y-115119000D01*
X169802698Y-115119000D01*
X170059072Y-115068004D01*
X170300570Y-114967972D01*
X170517913Y-114822748D01*
X170702748Y-114637913D01*
X170847972Y-114420570D01*
X170948004Y-114179072D01*
X170999000Y-113922698D01*
X170999000Y-113661302D01*
X173666300Y-113661302D01*
X173666300Y-113922698D01*
X173717296Y-114179072D01*
X173817328Y-114420570D01*
X173962552Y-114637913D01*
X174147387Y-114822748D01*
X174364730Y-114967972D01*
X174606228Y-115068004D01*
X174862602Y-115119000D01*
X175123998Y-115119000D01*
X175380372Y-115068004D01*
X175621870Y-114967972D01*
X175839213Y-114822748D01*
X176024048Y-114637913D01*
X176169272Y-114420570D01*
X176269304Y-114179072D01*
X176320300Y-113922698D01*
X176320300Y-113661302D01*
X179381300Y-113661302D01*
X179381300Y-113922698D01*
X179432296Y-114179072D01*
X179532328Y-114420570D01*
X179677552Y-114637913D01*
X179862387Y-114822748D01*
X180079730Y-114967972D01*
X180321228Y-115068004D01*
X180577602Y-115119000D01*
X180838998Y-115119000D01*
X181095372Y-115068004D01*
X181336870Y-114967972D01*
X181554213Y-114822748D01*
X181739048Y-114637913D01*
X181884272Y-114420570D01*
X181984304Y-114179072D01*
X182035300Y-113922698D01*
X182035300Y-113661302D01*
X181984304Y-113404928D01*
X181884272Y-113163430D01*
X181739048Y-112946087D01*
X181554213Y-112761252D01*
X181336870Y-112616028D01*
X181095372Y-112515996D01*
X180838998Y-112465000D01*
X180577602Y-112465000D01*
X180321228Y-112515996D01*
X180079730Y-112616028D01*
X179862387Y-112761252D01*
X179677552Y-112946087D01*
X179532328Y-113163430D01*
X179432296Y-113404928D01*
X179381300Y-113661302D01*
X176320300Y-113661302D01*
X176269304Y-113404928D01*
X176169272Y-113163430D01*
X176024048Y-112946087D01*
X175839213Y-112761252D01*
X175621870Y-112616028D01*
X175380372Y-112515996D01*
X175123998Y-112465000D01*
X174862602Y-112465000D01*
X174606228Y-112515996D01*
X174364730Y-112616028D01*
X174147387Y-112761252D01*
X173962552Y-112946087D01*
X173817328Y-113163430D01*
X173717296Y-113404928D01*
X173666300Y-113661302D01*
X170999000Y-113661302D01*
X170948004Y-113404928D01*
X170847972Y-113163430D01*
X170702748Y-112946087D01*
X170517913Y-112761252D01*
X170300570Y-112616028D01*
X170059072Y-112515996D01*
X169802698Y-112465000D01*
X169541302Y-112465000D01*
X169284928Y-112515996D01*
X169043430Y-112616028D01*
X168826087Y-112761252D01*
X168641252Y-112946087D01*
X168496028Y-113163430D01*
X168395996Y-113404928D01*
X168345000Y-113661302D01*
X167811296Y-113661302D01*
X167760300Y-113404928D01*
X167660268Y-113163430D01*
X167515044Y-112946087D01*
X167330209Y-112761252D01*
X167112866Y-112616028D01*
X166871368Y-112515996D01*
X166614994Y-112465000D01*
X166353598Y-112465000D01*
X166097224Y-112515996D01*
X165855726Y-112616028D01*
X165638383Y-112761252D01*
X165453548Y-112946087D01*
X165308324Y-113163430D01*
X165208292Y-113404928D01*
X165157296Y-113661302D01*
X162109000Y-113661302D01*
X162058004Y-113404928D01*
X161957972Y-113163430D01*
X161812748Y-112946087D01*
X161627913Y-112761252D01*
X161410570Y-112616028D01*
X161169072Y-112515996D01*
X160912698Y-112465000D01*
X160651302Y-112465000D01*
X160394928Y-112515996D01*
X160153430Y-112616028D01*
X159936087Y-112761252D01*
X159751252Y-112946087D01*
X159606028Y-113163430D01*
X159505996Y-113404928D01*
X159455000Y-113661302D01*
X140079940Y-113661302D01*
X140074372Y-113658996D01*
X139817998Y-113608000D01*
X139556602Y-113608000D01*
X139300228Y-113658996D01*
X139058730Y-113759028D01*
X139052300Y-113763324D01*
X139045870Y-113759028D01*
X138804372Y-113658996D01*
X138547998Y-113608000D01*
X138286602Y-113608000D01*
X138030228Y-113658996D01*
X137788730Y-113759028D01*
X137571387Y-113904252D01*
X137386552Y-114089087D01*
X137241328Y-114306430D01*
X137141296Y-114547928D01*
X137090300Y-114804302D01*
X137090300Y-115065698D01*
X137140144Y-115316279D01*
X136337490Y-115648749D01*
X135530520Y-116187949D01*
X134844249Y-116874220D01*
X134305049Y-117681190D01*
X133933642Y-118577847D01*
X133744300Y-119529733D01*
X92912300Y-119529733D01*
X92912300Y-116874660D01*
X95550300Y-116874660D01*
X95550300Y-117313340D01*
X95635882Y-117743592D01*
X95803758Y-118148880D01*
X96047476Y-118513630D01*
X96357670Y-118823824D01*
X96722420Y-119067542D01*
X97127708Y-119235418D01*
X97557960Y-119321000D01*
X97996640Y-119321000D01*
X98426892Y-119235418D01*
X98832180Y-119067542D01*
X99196930Y-118823824D01*
X99507124Y-118513630D01*
X99750842Y-118148880D01*
X99918718Y-117743592D01*
X100004300Y-117313340D01*
X100004300Y-116874660D01*
X99996671Y-116836302D01*
X126943000Y-116836302D01*
X126943000Y-117097698D01*
X126993996Y-117354072D01*
X127094028Y-117595570D01*
X127239252Y-117812913D01*
X127424087Y-117997748D01*
X127641430Y-118142972D01*
X127882928Y-118243004D01*
X128139302Y-118294000D01*
X128400698Y-118294000D01*
X128657072Y-118243004D01*
X128898570Y-118142972D01*
X129115913Y-117997748D01*
X129300748Y-117812913D01*
X129445972Y-117595570D01*
X129546004Y-117354072D01*
X129597000Y-117097698D01*
X129597000Y-116836302D01*
X129546004Y-116579928D01*
X129445972Y-116338430D01*
X129300748Y-116121087D01*
X129115913Y-115936252D01*
X128898570Y-115791028D01*
X128657072Y-115690996D01*
X128400698Y-115640000D01*
X128139302Y-115640000D01*
X127882928Y-115690996D01*
X127641430Y-115791028D01*
X127424087Y-115936252D01*
X127239252Y-116121087D01*
X127094028Y-116338430D01*
X126993996Y-116579928D01*
X126943000Y-116836302D01*
X99996671Y-116836302D01*
X99918718Y-116444408D01*
X99750842Y-116039120D01*
X99507124Y-115674370D01*
X99196930Y-115364176D01*
X98832180Y-115120458D01*
X98426892Y-114952582D01*
X97996640Y-114867000D01*
X97557960Y-114867000D01*
X97127708Y-114952582D01*
X96722420Y-115120458D01*
X96357670Y-115364176D01*
X96047476Y-115674370D01*
X95803758Y-116039120D01*
X95635882Y-116444408D01*
X95550300Y-116874660D01*
X92912300Y-116874660D01*
X92912300Y-111794660D01*
X95550300Y-111794660D01*
X95550300Y-112233340D01*
X95635882Y-112663592D01*
X95803758Y-113068880D01*
X96047476Y-113433630D01*
X96357670Y-113743824D01*
X96722420Y-113987542D01*
X97127708Y-114155418D01*
X97557960Y-114241000D01*
X97996640Y-114241000D01*
X98426892Y-114155418D01*
X98832180Y-113987542D01*
X99130363Y-113788302D01*
X126943000Y-113788302D01*
X126943000Y-114049698D01*
X126993996Y-114306072D01*
X127094028Y-114547570D01*
X127239252Y-114764913D01*
X127424087Y-114949748D01*
X127641430Y-115094972D01*
X127882928Y-115195004D01*
X128139302Y-115246000D01*
X128400698Y-115246000D01*
X128657072Y-115195004D01*
X128898570Y-115094972D01*
X129115913Y-114949748D01*
X129300748Y-114764913D01*
X129445972Y-114547570D01*
X129546004Y-114306072D01*
X129597000Y-114049698D01*
X129597000Y-113788302D01*
X129546004Y-113531928D01*
X129445972Y-113290430D01*
X129300748Y-113073087D01*
X129115913Y-112888252D01*
X128898570Y-112743028D01*
X128657072Y-112642996D01*
X128400698Y-112592000D01*
X128139302Y-112592000D01*
X127882928Y-112642996D01*
X127641430Y-112743028D01*
X127424087Y-112888252D01*
X127239252Y-113073087D01*
X127094028Y-113290430D01*
X126993996Y-113531928D01*
X126943000Y-113788302D01*
X99130363Y-113788302D01*
X99196930Y-113743824D01*
X99507124Y-113433630D01*
X99750842Y-113068880D01*
X99918718Y-112663592D01*
X100004300Y-112233340D01*
X100004300Y-111794660D01*
X99918718Y-111364408D01*
X99750842Y-110959120D01*
X99689492Y-110867302D01*
X159455000Y-110867302D01*
X159455000Y-111128698D01*
X159505996Y-111385072D01*
X159606028Y-111626570D01*
X159751252Y-111843913D01*
X159936087Y-112028748D01*
X160153430Y-112173972D01*
X160394928Y-112274004D01*
X160651302Y-112325000D01*
X160912698Y-112325000D01*
X161169072Y-112274004D01*
X161410570Y-112173972D01*
X161627913Y-112028748D01*
X161812748Y-111843913D01*
X161957972Y-111626570D01*
X162058004Y-111385072D01*
X162109000Y-111128698D01*
X162109000Y-110867302D01*
X162058004Y-110610928D01*
X161957972Y-110369430D01*
X161812748Y-110152087D01*
X161627913Y-109967252D01*
X161454382Y-109851302D01*
X168345000Y-109851302D01*
X168345000Y-110112698D01*
X168395996Y-110369072D01*
X168496028Y-110610570D01*
X168641252Y-110827913D01*
X168826087Y-111012748D01*
X169043430Y-111157972D01*
X169284928Y-111258004D01*
X169541302Y-111309000D01*
X169802698Y-111309000D01*
X170059072Y-111258004D01*
X170300570Y-111157972D01*
X170517913Y-111012748D01*
X170702748Y-110827913D01*
X170847972Y-110610570D01*
X170948004Y-110369072D01*
X170999000Y-110112698D01*
X170999000Y-109851302D01*
X170948004Y-109594928D01*
X170847972Y-109353430D01*
X170702748Y-109136087D01*
X170517913Y-108951252D01*
X170344382Y-108835302D01*
X173666302Y-108835302D01*
X173666302Y-109096698D01*
X173717298Y-109353072D01*
X173817330Y-109594570D01*
X173962554Y-109811913D01*
X174147389Y-109996748D01*
X174364732Y-110141972D01*
X174606230Y-110242004D01*
X174862604Y-110293000D01*
X175124000Y-110293000D01*
X175380374Y-110242004D01*
X175621872Y-110141972D01*
X175839215Y-109996748D01*
X176024050Y-109811913D01*
X176169274Y-109594570D01*
X176269306Y-109353072D01*
X176320302Y-109096698D01*
X176320302Y-108835302D01*
X176269306Y-108578928D01*
X176169274Y-108337430D01*
X176024050Y-108120087D01*
X175839215Y-107935252D01*
X175621872Y-107790028D01*
X175380374Y-107689996D01*
X175124000Y-107639000D01*
X174862604Y-107639000D01*
X174606230Y-107689996D01*
X174364732Y-107790028D01*
X174147389Y-107935252D01*
X173962554Y-108120087D01*
X173817330Y-108337430D01*
X173717298Y-108578928D01*
X173666302Y-108835302D01*
X170344382Y-108835302D01*
X170300570Y-108806028D01*
X170059072Y-108705996D01*
X169802698Y-108655000D01*
X169541302Y-108655000D01*
X169284928Y-108705996D01*
X169043430Y-108806028D01*
X168826087Y-108951252D01*
X168641252Y-109136087D01*
X168496028Y-109353430D01*
X168395996Y-109594928D01*
X168345000Y-109851302D01*
X161454382Y-109851302D01*
X161410570Y-109822028D01*
X161169072Y-109721996D01*
X160912698Y-109671000D01*
X160651302Y-109671000D01*
X160394928Y-109721996D01*
X160153430Y-109822028D01*
X159936087Y-109967252D01*
X159751252Y-110152087D01*
X159606028Y-110369430D01*
X159505996Y-110610928D01*
X159455000Y-110867302D01*
X99689492Y-110867302D01*
X99507124Y-110594370D01*
X99196930Y-110284176D01*
X98832180Y-110040458D01*
X98426892Y-109872582D01*
X97996640Y-109787000D01*
X97557960Y-109787000D01*
X97127708Y-109872582D01*
X96722420Y-110040458D01*
X96357670Y-110284176D01*
X96047476Y-110594370D01*
X95803758Y-110959120D01*
X95635882Y-111364408D01*
X95550300Y-111794660D01*
X92912300Y-111794660D01*
X92912300Y-106714660D01*
X95550300Y-106714660D01*
X95550300Y-107153340D01*
X95635882Y-107583592D01*
X95803758Y-107988880D01*
X96047476Y-108353630D01*
X96357670Y-108663824D01*
X96722420Y-108907542D01*
X97127708Y-109075418D01*
X97557960Y-109161000D01*
X97996640Y-109161000D01*
X98426892Y-109075418D01*
X98832180Y-108907542D01*
X99196930Y-108663824D01*
X99507124Y-108353630D01*
X99750842Y-107988880D01*
X99918718Y-107583592D01*
X100004300Y-107153340D01*
X100004300Y-106714660D01*
X99918718Y-106284408D01*
X99750842Y-105879120D01*
X99507124Y-105514370D01*
X99196930Y-105204176D01*
X98832180Y-104960458D01*
X98426892Y-104792582D01*
X97996640Y-104707000D01*
X97557960Y-104707000D01*
X97127708Y-104792582D01*
X96722420Y-104960458D01*
X96357670Y-105204176D01*
X96047476Y-105514370D01*
X95803758Y-105879120D01*
X95635882Y-106284408D01*
X95550300Y-106714660D01*
X92912300Y-106714660D01*
X92912300Y-104517302D01*
X130498994Y-104517302D01*
X130498994Y-104778698D01*
X130549990Y-105035072D01*
X130650022Y-105276570D01*
X130795246Y-105493913D01*
X130980081Y-105678748D01*
X131197424Y-105823972D01*
X131424430Y-105918001D01*
X131197430Y-106012028D01*
X130980087Y-106157252D01*
X130795252Y-106342087D01*
X130650028Y-106559430D01*
X130549996Y-106800928D01*
X130499000Y-107057302D01*
X130499000Y-107318698D01*
X130549996Y-107575072D01*
X130650028Y-107816570D01*
X130795252Y-108033913D01*
X130980087Y-108218748D01*
X131197430Y-108363972D01*
X131438928Y-108464004D01*
X131695302Y-108515000D01*
X131956698Y-108515000D01*
X132213072Y-108464004D01*
X132454570Y-108363972D01*
X132671913Y-108218748D01*
X132817365Y-108073296D01*
X157677000Y-108073296D01*
X157677000Y-108334692D01*
X157727996Y-108591066D01*
X157828028Y-108832564D01*
X157973252Y-109049907D01*
X158158087Y-109234742D01*
X158375430Y-109379966D01*
X158616928Y-109479998D01*
X158873302Y-109530994D01*
X159134698Y-109530994D01*
X159391072Y-109479998D01*
X159632570Y-109379966D01*
X159849913Y-109234742D01*
X160034748Y-109049907D01*
X160179972Y-108832564D01*
X160258906Y-108642000D01*
X160404690Y-108642000D01*
X160661064Y-108591004D01*
X160902562Y-108490972D01*
X161119905Y-108345748D01*
X161304740Y-108160913D01*
X161449964Y-107943570D01*
X161549996Y-107702072D01*
X161600992Y-107445698D01*
X161600992Y-107184302D01*
X161549996Y-106927928D01*
X161449964Y-106686430D01*
X161304740Y-106469087D01*
X161119905Y-106284252D01*
X160902562Y-106139028D01*
X160661064Y-106038996D01*
X160404690Y-105988000D01*
X160143294Y-105988000D01*
X159886920Y-106038996D01*
X159645422Y-106139028D01*
X159428079Y-106284252D01*
X159243244Y-106469087D01*
X159098020Y-106686430D01*
X159019086Y-106876994D01*
X158873302Y-106876994D01*
X158616928Y-106927990D01*
X158375430Y-107028022D01*
X158158087Y-107173246D01*
X157973252Y-107358081D01*
X157828028Y-107575424D01*
X157727996Y-107816922D01*
X157677000Y-108073296D01*
X132817365Y-108073296D01*
X132856748Y-108033913D01*
X133001972Y-107816570D01*
X133102004Y-107575072D01*
X133153000Y-107318698D01*
X133153000Y-107057302D01*
X133102004Y-106800928D01*
X133001972Y-106559430D01*
X132856748Y-106342087D01*
X132671913Y-106157252D01*
X132454570Y-106012028D01*
X132227564Y-105917999D01*
X132454564Y-105823972D01*
X132671907Y-105678748D01*
X132856742Y-105493913D01*
X133001966Y-105276570D01*
X133101998Y-105035072D01*
X133152994Y-104778698D01*
X133152994Y-104517302D01*
X133101998Y-104260928D01*
X133001966Y-104019430D01*
X132856742Y-103802087D01*
X132671907Y-103617252D01*
X132454564Y-103472028D01*
X132213066Y-103371996D01*
X131956692Y-103321000D01*
X131695296Y-103321000D01*
X131438922Y-103371996D01*
X131197424Y-103472028D01*
X130980081Y-103617252D01*
X130795246Y-103802087D01*
X130650022Y-104019430D01*
X130549990Y-104260928D01*
X130498994Y-104517302D01*
X92912300Y-104517302D01*
X92912300Y-101634660D01*
X95550300Y-101634660D01*
X95550300Y-102073340D01*
X95635882Y-102503592D01*
X95803758Y-102908880D01*
X96047476Y-103273630D01*
X96357670Y-103583824D01*
X96722420Y-103827542D01*
X97127708Y-103995418D01*
X97557960Y-104081000D01*
X97996640Y-104081000D01*
X98426892Y-103995418D01*
X98832180Y-103827542D01*
X99196930Y-103583824D01*
X99507124Y-103273630D01*
X99750842Y-102908880D01*
X99918718Y-102503592D01*
X100004300Y-102073340D01*
X100004300Y-102033091D01*
X193122519Y-102033091D01*
X193219843Y-102307452D01*
X193368822Y-102557555D01*
X193563731Y-102773788D01*
X193797080Y-102947841D01*
X194059901Y-103073025D01*
X194207110Y-103117676D01*
X194437000Y-102996355D01*
X194437000Y-101803200D01*
X193243186Y-101803200D01*
X193122519Y-102033091D01*
X100004300Y-102033091D01*
X100004300Y-101634660D01*
X99941574Y-101319309D01*
X193122519Y-101319309D01*
X193243186Y-101549200D01*
X194437000Y-101549200D01*
X194437000Y-100356045D01*
X194691000Y-100356045D01*
X194691000Y-101549200D01*
X194711000Y-101549200D01*
X194711000Y-101803200D01*
X194691000Y-101803200D01*
X194691000Y-102996355D01*
X194920890Y-103117676D01*
X195068099Y-103073025D01*
X195330920Y-102947841D01*
X195564269Y-102773788D01*
X195642336Y-102687180D01*
X195723714Y-102808971D01*
X195971229Y-103056486D01*
X196262275Y-103250957D01*
X196585668Y-103384911D01*
X196928981Y-103453200D01*
X197279019Y-103453200D01*
X197622332Y-103384911D01*
X197945725Y-103250957D01*
X198236771Y-103056486D01*
X198374000Y-102919257D01*
X198511229Y-103056486D01*
X198802275Y-103250957D01*
X199125668Y-103384911D01*
X199468981Y-103453200D01*
X199819019Y-103453200D01*
X200162332Y-103384911D01*
X200485725Y-103250957D01*
X200776771Y-103056486D01*
X200914000Y-102919257D01*
X201051229Y-103056486D01*
X201342275Y-103250957D01*
X201665668Y-103384911D01*
X202008981Y-103453200D01*
X202359019Y-103453200D01*
X202702332Y-103384911D01*
X203025725Y-103250957D01*
X203316771Y-103056486D01*
X203454000Y-102919257D01*
X203591229Y-103056486D01*
X203882275Y-103250957D01*
X204205668Y-103384911D01*
X204548981Y-103453200D01*
X204899019Y-103453200D01*
X205242332Y-103384911D01*
X205565725Y-103250957D01*
X205856771Y-103056486D01*
X205994000Y-102919257D01*
X206131229Y-103056486D01*
X206422275Y-103250957D01*
X206745668Y-103384911D01*
X207088981Y-103453200D01*
X207439019Y-103453200D01*
X207782332Y-103384911D01*
X208105725Y-103250957D01*
X208396771Y-103056486D01*
X208644286Y-102808971D01*
X208725664Y-102687180D01*
X208803731Y-102773788D01*
X209037080Y-102947841D01*
X209299901Y-103073025D01*
X209447110Y-103117676D01*
X209677000Y-102996355D01*
X209677000Y-101803200D01*
X209657000Y-101803200D01*
X209657000Y-101549200D01*
X209677000Y-101549200D01*
X209677000Y-100356045D01*
X209447110Y-100234724D01*
X209299901Y-100279375D01*
X209037080Y-100404559D01*
X208803731Y-100578612D01*
X208725664Y-100665220D01*
X208644286Y-100543429D01*
X208396771Y-100295914D01*
X208105725Y-100101443D01*
X207782332Y-99967489D01*
X207439019Y-99899200D01*
X207088981Y-99899200D01*
X206745668Y-99967489D01*
X206422275Y-100101443D01*
X206131229Y-100295914D01*
X205994000Y-100433143D01*
X205856771Y-100295914D01*
X205565725Y-100101443D01*
X205242332Y-99967489D01*
X204899019Y-99899200D01*
X204548981Y-99899200D01*
X204205668Y-99967489D01*
X203882275Y-100101443D01*
X203591229Y-100295914D01*
X203454000Y-100433143D01*
X203316771Y-100295914D01*
X203025725Y-100101443D01*
X202702332Y-99967489D01*
X202359019Y-99899200D01*
X202008981Y-99899200D01*
X201665668Y-99967489D01*
X201342275Y-100101443D01*
X201051229Y-100295914D01*
X200914000Y-100433143D01*
X200776771Y-100295914D01*
X200485725Y-100101443D01*
X200162332Y-99967489D01*
X199819019Y-99899200D01*
X199468981Y-99899200D01*
X199125668Y-99967489D01*
X198802275Y-100101443D01*
X198511229Y-100295914D01*
X198374000Y-100433143D01*
X198236771Y-100295914D01*
X197945725Y-100101443D01*
X197622332Y-99967489D01*
X197279019Y-99899200D01*
X196928981Y-99899200D01*
X196585668Y-99967489D01*
X196262275Y-100101443D01*
X195971229Y-100295914D01*
X195723714Y-100543429D01*
X195642336Y-100665220D01*
X195564269Y-100578612D01*
X195330920Y-100404559D01*
X195068099Y-100279375D01*
X194920890Y-100234724D01*
X194691000Y-100356045D01*
X194437000Y-100356045D01*
X194207110Y-100234724D01*
X194059901Y-100279375D01*
X193797080Y-100404559D01*
X193563731Y-100578612D01*
X193368822Y-100794845D01*
X193219843Y-101044948D01*
X193122519Y-101319309D01*
X99941574Y-101319309D01*
X99918718Y-101204408D01*
X99750842Y-100799120D01*
X99507124Y-100434370D01*
X99196930Y-100124176D01*
X98832180Y-99880458D01*
X98426892Y-99712582D01*
X97996640Y-99627000D01*
X97557960Y-99627000D01*
X97127708Y-99712582D01*
X96722420Y-99880458D01*
X96357670Y-100124176D01*
X96047476Y-100434370D01*
X95803758Y-100799120D01*
X95635882Y-101204408D01*
X95550300Y-101634660D01*
X92912300Y-101634660D01*
X92912300Y-96554660D01*
X95550300Y-96554660D01*
X95550300Y-96993340D01*
X95635882Y-97423592D01*
X95803758Y-97828880D01*
X96047476Y-98193630D01*
X96357670Y-98503824D01*
X96722420Y-98747542D01*
X97127708Y-98915418D01*
X97557960Y-99001000D01*
X97996640Y-99001000D01*
X98426892Y-98915418D01*
X98832180Y-98747542D01*
X99196930Y-98503824D01*
X99507124Y-98193630D01*
X99750842Y-97828880D01*
X99918718Y-97423592D01*
X99922356Y-97405302D01*
X165804994Y-97405302D01*
X165804994Y-97666698D01*
X165855990Y-97923072D01*
X165956022Y-98164570D01*
X166101246Y-98381913D01*
X166286081Y-98566748D01*
X166503424Y-98711972D01*
X166579054Y-98743299D01*
X166617996Y-98939072D01*
X166718028Y-99180570D01*
X166863252Y-99397913D01*
X167048087Y-99582748D01*
X167265430Y-99727972D01*
X167506928Y-99828004D01*
X167763302Y-99879000D01*
X168024698Y-99879000D01*
X168281072Y-99828004D01*
X168522570Y-99727972D01*
X168739913Y-99582748D01*
X168748826Y-99573835D01*
X168789430Y-99600966D01*
X169030928Y-99700998D01*
X169287302Y-99751994D01*
X169548698Y-99751994D01*
X169805072Y-99700998D01*
X170046570Y-99600966D01*
X170263913Y-99455742D01*
X170448748Y-99270907D01*
X170593972Y-99053564D01*
X170687999Y-98826564D01*
X170782028Y-99053570D01*
X170927252Y-99270913D01*
X171112087Y-99455748D01*
X171329430Y-99600972D01*
X171570928Y-99701004D01*
X171827302Y-99752000D01*
X172088698Y-99752000D01*
X172345072Y-99701004D01*
X172586570Y-99600972D01*
X172803913Y-99455748D01*
X172988748Y-99270913D01*
X173133972Y-99053570D01*
X173222625Y-98839543D01*
X173361072Y-98812004D01*
X173602570Y-98711972D01*
X173819913Y-98566748D01*
X174004748Y-98381913D01*
X174149972Y-98164570D01*
X174250004Y-97923072D01*
X174271086Y-97817086D01*
X174377072Y-97796004D01*
X174618570Y-97695972D01*
X174835913Y-97550748D01*
X175020748Y-97365913D01*
X175165972Y-97148570D01*
X175266004Y-96907072D01*
X175317000Y-96650698D01*
X175317000Y-96389302D01*
X175266004Y-96132928D01*
X175165972Y-95891430D01*
X175020748Y-95674087D01*
X174835913Y-95489252D01*
X174618570Y-95344028D01*
X174377072Y-95243996D01*
X174120698Y-95193000D01*
X173859302Y-95193000D01*
X173602928Y-95243996D01*
X173361430Y-95344028D01*
X173144087Y-95489252D01*
X172959252Y-95674087D01*
X172814028Y-95891430D01*
X172713996Y-96132928D01*
X172692914Y-96238914D01*
X172586928Y-96259996D01*
X172345430Y-96360028D01*
X172128087Y-96505252D01*
X171943252Y-96690087D01*
X171798028Y-96907430D01*
X171709375Y-97121457D01*
X171570928Y-97148996D01*
X171329430Y-97249028D01*
X171112087Y-97394252D01*
X170927252Y-97579087D01*
X170782028Y-97796430D01*
X170688001Y-98023430D01*
X170593972Y-97796424D01*
X170448748Y-97579081D01*
X170263913Y-97394246D01*
X170046570Y-97249022D01*
X169805072Y-97148990D01*
X169548698Y-97097994D01*
X169287302Y-97097994D01*
X169030928Y-97148990D01*
X168789430Y-97249022D01*
X168572087Y-97394246D01*
X168563174Y-97403159D01*
X168522570Y-97376028D01*
X168446940Y-97344701D01*
X168407998Y-97148928D01*
X168307966Y-96907430D01*
X168162742Y-96690087D01*
X167977907Y-96505252D01*
X167760564Y-96360028D01*
X167519066Y-96259996D01*
X167262692Y-96209000D01*
X167001296Y-96209000D01*
X166744922Y-96259996D01*
X166503424Y-96360028D01*
X166286081Y-96505252D01*
X166101246Y-96690087D01*
X165956022Y-96907430D01*
X165855990Y-97148928D01*
X165804994Y-97405302D01*
X99922356Y-97405302D01*
X100004300Y-96993340D01*
X100004300Y-96554660D01*
X99918718Y-96124408D01*
X99750842Y-95719120D01*
X99507124Y-95354370D01*
X99196930Y-95044176D01*
X98832180Y-94800458D01*
X98426892Y-94632582D01*
X97996640Y-94547000D01*
X97557960Y-94547000D01*
X97127708Y-94632582D01*
X96722420Y-94800458D01*
X96357670Y-95044176D01*
X96047476Y-95354370D01*
X95803758Y-95719120D01*
X95635882Y-96124408D01*
X95550300Y-96554660D01*
X92912300Y-96554660D01*
X92912300Y-92579302D01*
X157677000Y-92579302D01*
X157677000Y-92840698D01*
X157727996Y-93097072D01*
X157828028Y-93338570D01*
X157973252Y-93555913D01*
X158158087Y-93740748D01*
X158375430Y-93885972D01*
X158616928Y-93986004D01*
X158873302Y-94037000D01*
X159134698Y-94037000D01*
X159391072Y-93986004D01*
X159632570Y-93885972D01*
X159639001Y-93881675D01*
X159645430Y-93885970D01*
X159886928Y-93986002D01*
X160143302Y-94036998D01*
X160404698Y-94036998D01*
X160661072Y-93986002D01*
X160902570Y-93885970D01*
X161119913Y-93740746D01*
X161304748Y-93555911D01*
X161449972Y-93338568D01*
X161550004Y-93097070D01*
X161601000Y-92840696D01*
X161601000Y-92579300D01*
X161550004Y-92322926D01*
X161449972Y-92081428D01*
X161304748Y-91864085D01*
X161119913Y-91679250D01*
X160902570Y-91534026D01*
X160661072Y-91433994D01*
X160404698Y-91382998D01*
X160143302Y-91382998D01*
X159886928Y-91433994D01*
X159645430Y-91534026D01*
X159638999Y-91538323D01*
X159632570Y-91534028D01*
X159391072Y-91433996D01*
X159134698Y-91383000D01*
X158873302Y-91383000D01*
X158616928Y-91433996D01*
X158375430Y-91534028D01*
X158158087Y-91679252D01*
X157973252Y-91864087D01*
X157828028Y-92081430D01*
X157727996Y-92322928D01*
X157677000Y-92579302D01*
X92912300Y-92579302D01*
X92912300Y-88362000D01*
X95545815Y-88362000D01*
X95545815Y-90962000D01*
X95563713Y-91143724D01*
X95616720Y-91318464D01*
X95702799Y-91479505D01*
X95818641Y-91620659D01*
X95959795Y-91736501D01*
X96120836Y-91822580D01*
X96295576Y-91875587D01*
X96477300Y-91893485D01*
X99077300Y-91893485D01*
X99259024Y-91875587D01*
X99433764Y-91822580D01*
X99594805Y-91736501D01*
X99735959Y-91620659D01*
X99851801Y-91479505D01*
X99937880Y-91318464D01*
X99990887Y-91143724D01*
X100008785Y-90962000D01*
X100008785Y-89277302D01*
X173425000Y-89277302D01*
X173425000Y-89538698D01*
X173475996Y-89795072D01*
X173576028Y-90036570D01*
X173721252Y-90253913D01*
X173906087Y-90438748D01*
X174123430Y-90583972D01*
X174364928Y-90684004D01*
X174621302Y-90735000D01*
X174882698Y-90735000D01*
X175139072Y-90684004D01*
X175380570Y-90583972D01*
X175387000Y-90579676D01*
X175393430Y-90583972D01*
X175634928Y-90684004D01*
X175891302Y-90735000D01*
X176152698Y-90735000D01*
X176409072Y-90684004D01*
X176650570Y-90583972D01*
X176867913Y-90438748D01*
X177052748Y-90253913D01*
X177197972Y-90036570D01*
X177298004Y-89795072D01*
X177349000Y-89538698D01*
X177349000Y-89277302D01*
X177298004Y-89020928D01*
X177197972Y-88779430D01*
X177052748Y-88562087D01*
X177005967Y-88515306D01*
X223081998Y-88515306D01*
X223081998Y-88776702D01*
X223132994Y-89033076D01*
X223233026Y-89274574D01*
X223237322Y-89281003D01*
X223233028Y-89287430D01*
X223132996Y-89528928D01*
X223082000Y-89785302D01*
X223082000Y-90046698D01*
X223132996Y-90303072D01*
X223233028Y-90544570D01*
X223378252Y-90761913D01*
X223563087Y-90946748D01*
X223780430Y-91091972D01*
X224021928Y-91192004D01*
X224278302Y-91243000D01*
X224539698Y-91243000D01*
X224796072Y-91192004D01*
X225037570Y-91091972D01*
X225254913Y-90946748D01*
X225439748Y-90761913D01*
X225584972Y-90544570D01*
X225685004Y-90303072D01*
X225736000Y-90046698D01*
X225736000Y-89785302D01*
X225685004Y-89528928D01*
X225584972Y-89287430D01*
X225580676Y-89281001D01*
X225584970Y-89274574D01*
X225685002Y-89033076D01*
X225735998Y-88776702D01*
X225735998Y-88515306D01*
X225685002Y-88258932D01*
X225584970Y-88017434D01*
X225439746Y-87800091D01*
X225254911Y-87615256D01*
X225037568Y-87470032D01*
X224796070Y-87370000D01*
X224539696Y-87319004D01*
X224278300Y-87319004D01*
X224021926Y-87370000D01*
X223780428Y-87470032D01*
X223563085Y-87615256D01*
X223378250Y-87800091D01*
X223233026Y-88017434D01*
X223132994Y-88258932D01*
X223081998Y-88515306D01*
X177005967Y-88515306D01*
X176867913Y-88377252D01*
X176650570Y-88232028D01*
X176409072Y-88131996D01*
X176152698Y-88081000D01*
X175891302Y-88081000D01*
X175634928Y-88131996D01*
X175393430Y-88232028D01*
X175387000Y-88236324D01*
X175380570Y-88232028D01*
X175139072Y-88131996D01*
X174882698Y-88081000D01*
X174621302Y-88081000D01*
X174364928Y-88131996D01*
X174123430Y-88232028D01*
X173906087Y-88377252D01*
X173721252Y-88562087D01*
X173576028Y-88779430D01*
X173475996Y-89020928D01*
X173425000Y-89277302D01*
X100008785Y-89277302D01*
X100008785Y-88362000D01*
X99990887Y-88180276D01*
X99937880Y-88005536D01*
X99851801Y-87844495D01*
X99735959Y-87703341D01*
X99594805Y-87587499D01*
X99433764Y-87501420D01*
X99259024Y-87448413D01*
X99077300Y-87430515D01*
X96477300Y-87430515D01*
X96295576Y-87448413D01*
X96120836Y-87501420D01*
X95959795Y-87587499D01*
X95818641Y-87703341D01*
X95702799Y-87844495D01*
X95616720Y-88005536D01*
X95563713Y-88180276D01*
X95545815Y-88362000D01*
X92912300Y-88362000D01*
X92912300Y-84362660D01*
X95550300Y-84362660D01*
X95550300Y-84801340D01*
X95635882Y-85231592D01*
X95803758Y-85636880D01*
X96047476Y-86001630D01*
X96357670Y-86311824D01*
X96722420Y-86555542D01*
X97127708Y-86723418D01*
X97557960Y-86809000D01*
X97996640Y-86809000D01*
X98426892Y-86723418D01*
X98832180Y-86555542D01*
X99196930Y-86311824D01*
X99507124Y-86001630D01*
X99750842Y-85636880D01*
X99918718Y-85231592D01*
X100004300Y-84801340D01*
X100004300Y-84362660D01*
X99918718Y-83932408D01*
X99750842Y-83527120D01*
X99507124Y-83162370D01*
X99196930Y-82852176D01*
X98832180Y-82608458D01*
X98426892Y-82440582D01*
X97996640Y-82355000D01*
X97557960Y-82355000D01*
X97127708Y-82440582D01*
X96722420Y-82608458D01*
X96357670Y-82852176D01*
X96047476Y-83162370D01*
X95803758Y-83527120D01*
X95635882Y-83932408D01*
X95550300Y-84362660D01*
X92912300Y-84362660D01*
X92912300Y-79282660D01*
X95550300Y-79282660D01*
X95550300Y-79721340D01*
X95635882Y-80151592D01*
X95803758Y-80556880D01*
X96047476Y-80921630D01*
X96357670Y-81231824D01*
X96722420Y-81475542D01*
X97127708Y-81643418D01*
X97557960Y-81729000D01*
X97996640Y-81729000D01*
X98426892Y-81643418D01*
X98832180Y-81475542D01*
X99196930Y-81231824D01*
X99507124Y-80921630D01*
X99750842Y-80556880D01*
X99918718Y-80151592D01*
X100004300Y-79721340D01*
X100004300Y-79282660D01*
X99918718Y-78852408D01*
X99750842Y-78447120D01*
X99507124Y-78082370D01*
X99196930Y-77772176D01*
X98832180Y-77528458D01*
X98426892Y-77360582D01*
X97996640Y-77275000D01*
X97557960Y-77275000D01*
X97127708Y-77360582D01*
X96722420Y-77528458D01*
X96357670Y-77772176D01*
X96047476Y-78082370D01*
X95803758Y-78447120D01*
X95635882Y-78852408D01*
X95550300Y-79282660D01*
X92912300Y-79282660D01*
X92912300Y-74202660D01*
X95550300Y-74202660D01*
X95550300Y-74641340D01*
X95635882Y-75071592D01*
X95803758Y-75476880D01*
X96047476Y-75841630D01*
X96357670Y-76151824D01*
X96722420Y-76395542D01*
X97127708Y-76563418D01*
X97557960Y-76649000D01*
X97996640Y-76649000D01*
X98426892Y-76563418D01*
X98832180Y-76395542D01*
X99196930Y-76151824D01*
X99507124Y-75841630D01*
X99750842Y-75476880D01*
X99918718Y-75071592D01*
X100004300Y-74641340D01*
X100004300Y-74202660D01*
X99918718Y-73772408D01*
X99750842Y-73367120D01*
X99507124Y-73002370D01*
X99196930Y-72692176D01*
X98832180Y-72448458D01*
X98426892Y-72280582D01*
X97996640Y-72195000D01*
X97557960Y-72195000D01*
X97127708Y-72280582D01*
X96722420Y-72448458D01*
X96357670Y-72692176D01*
X96047476Y-73002370D01*
X95803758Y-73367120D01*
X95635882Y-73772408D01*
X95550300Y-74202660D01*
X92912300Y-74202660D01*
X92912300Y-69122660D01*
X95550300Y-69122660D01*
X95550300Y-69561340D01*
X95635882Y-69991592D01*
X95803758Y-70396880D01*
X96047476Y-70761630D01*
X96357670Y-71071824D01*
X96722420Y-71315542D01*
X97127708Y-71483418D01*
X97557960Y-71569000D01*
X97996640Y-71569000D01*
X98426892Y-71483418D01*
X98832180Y-71315542D01*
X99196930Y-71071824D01*
X99507124Y-70761630D01*
X99750842Y-70396880D01*
X99918718Y-69991592D01*
X100004300Y-69561340D01*
X100004300Y-69122660D01*
X99918718Y-68692408D01*
X99870626Y-68576302D01*
X126689000Y-68576302D01*
X126689000Y-68837698D01*
X126739996Y-69094072D01*
X126840028Y-69335570D01*
X126985252Y-69552913D01*
X127170087Y-69737748D01*
X127387430Y-69882972D01*
X127628928Y-69983004D01*
X127885302Y-70034000D01*
X128146698Y-70034000D01*
X128403072Y-69983004D01*
X128644570Y-69882972D01*
X128861913Y-69737748D01*
X129046748Y-69552913D01*
X129191972Y-69335570D01*
X129292004Y-69094072D01*
X129343000Y-68837698D01*
X129343000Y-68576302D01*
X138118994Y-68576302D01*
X138118994Y-68837698D01*
X138169990Y-69094072D01*
X138270022Y-69335570D01*
X138415246Y-69552913D01*
X138600081Y-69737748D01*
X138817424Y-69882972D01*
X139058922Y-69983004D01*
X139315296Y-70034000D01*
X139576692Y-70034000D01*
X139833066Y-69983004D01*
X140074564Y-69882972D01*
X140291907Y-69737748D01*
X140476742Y-69552913D01*
X140621966Y-69335570D01*
X140721998Y-69094072D01*
X140772994Y-68837698D01*
X140772994Y-68624802D01*
X149627500Y-68624802D01*
X149627500Y-68886198D01*
X149678496Y-69142572D01*
X149778528Y-69384070D01*
X149923752Y-69601413D01*
X150108587Y-69786248D01*
X150325930Y-69931472D01*
X150567428Y-70031504D01*
X150823802Y-70082500D01*
X151085198Y-70082500D01*
X151341572Y-70031504D01*
X151583070Y-69931472D01*
X151800413Y-69786248D01*
X151985248Y-69601413D01*
X152130472Y-69384070D01*
X152230504Y-69142572D01*
X152281500Y-68886198D01*
X152281500Y-68624802D01*
X152271853Y-68576302D01*
X160979002Y-68576302D01*
X160979002Y-68837698D01*
X161029998Y-69094072D01*
X161130030Y-69335570D01*
X161275254Y-69552913D01*
X161460089Y-69737748D01*
X161677432Y-69882972D01*
X161918930Y-69983004D01*
X162175304Y-70034000D01*
X162436700Y-70034000D01*
X162693074Y-69983004D01*
X162934572Y-69882972D01*
X163151915Y-69737748D01*
X163336750Y-69552913D01*
X163481974Y-69335570D01*
X163582006Y-69094072D01*
X163633002Y-68837698D01*
X163633002Y-68576302D01*
X163582006Y-68319928D01*
X163481974Y-68078430D01*
X163336750Y-67861087D01*
X163151915Y-67676252D01*
X162934572Y-67531028D01*
X162693074Y-67430996D01*
X162436700Y-67380000D01*
X162175304Y-67380000D01*
X161918930Y-67430996D01*
X161677432Y-67531028D01*
X161460089Y-67676252D01*
X161275254Y-67861087D01*
X161130030Y-68078430D01*
X161029998Y-68319928D01*
X160979002Y-68576302D01*
X152271853Y-68576302D01*
X152230504Y-68368428D01*
X152130472Y-68126930D01*
X151985248Y-67909587D01*
X151800413Y-67724752D01*
X151583070Y-67579528D01*
X151341572Y-67479496D01*
X151085198Y-67428500D01*
X150823802Y-67428500D01*
X150567428Y-67479496D01*
X150325930Y-67579528D01*
X150108587Y-67724752D01*
X149923752Y-67909587D01*
X149778528Y-68126930D01*
X149678496Y-68368428D01*
X149627500Y-68624802D01*
X140772994Y-68624802D01*
X140772994Y-68576302D01*
X140721998Y-68319928D01*
X140621966Y-68078430D01*
X140476742Y-67861087D01*
X140291907Y-67676252D01*
X140074564Y-67531028D01*
X139833066Y-67430996D01*
X139576692Y-67380000D01*
X139315296Y-67380000D01*
X139058922Y-67430996D01*
X138817424Y-67531028D01*
X138600081Y-67676252D01*
X138415246Y-67861087D01*
X138270022Y-68078430D01*
X138169990Y-68319928D01*
X138118994Y-68576302D01*
X129343000Y-68576302D01*
X129292004Y-68319928D01*
X129191972Y-68078430D01*
X129046748Y-67861087D01*
X128861913Y-67676252D01*
X128644570Y-67531028D01*
X128403072Y-67430996D01*
X128146698Y-67380000D01*
X127885302Y-67380000D01*
X127628928Y-67430996D01*
X127387430Y-67531028D01*
X127170087Y-67676252D01*
X126985252Y-67861087D01*
X126840028Y-68078430D01*
X126739996Y-68319928D01*
X126689000Y-68576302D01*
X99870626Y-68576302D01*
X99750842Y-68287120D01*
X99507124Y-67922370D01*
X99196930Y-67612176D01*
X98832180Y-67368458D01*
X98426892Y-67200582D01*
X97996640Y-67115000D01*
X97557960Y-67115000D01*
X97127708Y-67200582D01*
X96722420Y-67368458D01*
X96357670Y-67612176D01*
X96047476Y-67922370D01*
X95803758Y-68287120D01*
X95635882Y-68692408D01*
X95550300Y-69122660D01*
X92912300Y-69122660D01*
X92912300Y-64042660D01*
X95550300Y-64042660D01*
X95550300Y-64481340D01*
X95635882Y-64911592D01*
X95803758Y-65316880D01*
X96047476Y-65681630D01*
X96357670Y-65991824D01*
X96722420Y-66235542D01*
X97127708Y-66403418D01*
X97557960Y-66489000D01*
X97996640Y-66489000D01*
X98426892Y-66403418D01*
X98832180Y-66235542D01*
X99196930Y-65991824D01*
X99507124Y-65681630D01*
X99750842Y-65316880D01*
X99918718Y-64911592D01*
X100004300Y-64481340D01*
X100004300Y-64042660D01*
X99918718Y-63612408D01*
X99750842Y-63207120D01*
X99507124Y-62842370D01*
X99196930Y-62532176D01*
X98832180Y-62288458D01*
X98426892Y-62120582D01*
X97996640Y-62035000D01*
X97557960Y-62035000D01*
X97127708Y-62120582D01*
X96722420Y-62288458D01*
X96357670Y-62532176D01*
X96047476Y-62842370D01*
X95803758Y-63207120D01*
X95635882Y-63612408D01*
X95550300Y-64042660D01*
X92912300Y-64042660D01*
X92912300Y-58962660D01*
X95550300Y-58962660D01*
X95550300Y-59401340D01*
X95635882Y-59831592D01*
X95803758Y-60236880D01*
X96047476Y-60601630D01*
X96357670Y-60911824D01*
X96722420Y-61155542D01*
X97127708Y-61323418D01*
X97557960Y-61409000D01*
X97996640Y-61409000D01*
X98426892Y-61323418D01*
X98832180Y-61155542D01*
X99196930Y-60911824D01*
X99507124Y-60601630D01*
X99750842Y-60236880D01*
X99918718Y-59831592D01*
X100004300Y-59401340D01*
X100004300Y-58962660D01*
X99918718Y-58532408D01*
X99750842Y-58127120D01*
X99507124Y-57762370D01*
X99196930Y-57452176D01*
X98929226Y-57273302D01*
X179013000Y-57273302D01*
X179013000Y-57534698D01*
X179063996Y-57791072D01*
X179114086Y-57912000D01*
X179063996Y-58032928D01*
X179013000Y-58289302D01*
X179013000Y-58550698D01*
X179063996Y-58807072D01*
X179164028Y-59048570D01*
X179309252Y-59265913D01*
X179494087Y-59450748D01*
X179711430Y-59595972D01*
X179952928Y-59696004D01*
X180209302Y-59747000D01*
X180470698Y-59747000D01*
X180727072Y-59696004D01*
X180968570Y-59595972D01*
X181185913Y-59450748D01*
X181370748Y-59265913D01*
X181515972Y-59048570D01*
X181616004Y-58807072D01*
X181667000Y-58550698D01*
X181667000Y-58289302D01*
X181616004Y-58032928D01*
X181565914Y-57912000D01*
X181616004Y-57791072D01*
X181667000Y-57534698D01*
X181667000Y-57273302D01*
X181616004Y-57016928D01*
X181515972Y-56775430D01*
X181370748Y-56558087D01*
X181185913Y-56373252D01*
X180968570Y-56228028D01*
X180727072Y-56127996D01*
X180470698Y-56077000D01*
X180209302Y-56077000D01*
X179952928Y-56127996D01*
X179711430Y-56228028D01*
X179494087Y-56373252D01*
X179309252Y-56558087D01*
X179164028Y-56775430D01*
X179063996Y-57016928D01*
X179013000Y-57273302D01*
X98929226Y-57273302D01*
X98832180Y-57208458D01*
X98426892Y-57040582D01*
X97996640Y-56955000D01*
X97557960Y-56955000D01*
X97127708Y-57040582D01*
X96722420Y-57208458D01*
X96357670Y-57452176D01*
X96047476Y-57762370D01*
X95803758Y-58127120D01*
X95635882Y-58532408D01*
X95550300Y-58962660D01*
X92912300Y-58962660D01*
X92912300Y-53882660D01*
X95550300Y-53882660D01*
X95550300Y-54321340D01*
X95635882Y-54751592D01*
X95803758Y-55156880D01*
X96047476Y-55521630D01*
X96357670Y-55831824D01*
X96722420Y-56075542D01*
X97127708Y-56243418D01*
X97557960Y-56329000D01*
X97996640Y-56329000D01*
X98426892Y-56243418D01*
X98832180Y-56075542D01*
X99196930Y-55831824D01*
X99507124Y-55521630D01*
X99750842Y-55156880D01*
X99918718Y-54751592D01*
X100004300Y-54321340D01*
X100004300Y-53882660D01*
X99918718Y-53452408D01*
X99750842Y-53047120D01*
X99507124Y-52682370D01*
X99196930Y-52372176D01*
X98832180Y-52128458D01*
X98426892Y-51960582D01*
X97996640Y-51875000D01*
X97557960Y-51875000D01*
X97127708Y-51960582D01*
X96722420Y-52128458D01*
X96357670Y-52372176D01*
X96047476Y-52682370D01*
X95803758Y-53047120D01*
X95635882Y-53452408D01*
X95550300Y-53882660D01*
X92912300Y-53882660D01*
X92912300Y-49675686D01*
X93366219Y-49675686D01*
X93702406Y-50144868D01*
X94332368Y-50485237D01*
X95016627Y-50696166D01*
X95728889Y-50769550D01*
X96441782Y-50702569D01*
X97127909Y-50497796D01*
X97760903Y-50163102D01*
X97788194Y-50144868D01*
X98124381Y-49675686D01*
X95745300Y-47296605D01*
X93366219Y-49675686D01*
X92912300Y-49675686D01*
X92912300Y-49299524D01*
X93186614Y-49496081D01*
X95565695Y-47117000D01*
X95924905Y-47117000D01*
X98303986Y-49496081D01*
X98773168Y-49159894D01*
X99113537Y-48529932D01*
X99323440Y-47849000D01*
X104448515Y-47849000D01*
X104448515Y-50449000D01*
X104466413Y-50630724D01*
X104519420Y-50805464D01*
X104605499Y-50966505D01*
X104721341Y-51107659D01*
X104862495Y-51223501D01*
X105023536Y-51309580D01*
X105198276Y-51362587D01*
X105380000Y-51380485D01*
X107980000Y-51380485D01*
X108161724Y-51362587D01*
X108336464Y-51309580D01*
X108497505Y-51223501D01*
X108638659Y-51107659D01*
X108754501Y-50966505D01*
X108840580Y-50805464D01*
X108893587Y-50630724D01*
X108911485Y-50449000D01*
X108911485Y-48929660D01*
X109533000Y-48929660D01*
X109533000Y-49368340D01*
X109618582Y-49798592D01*
X109786458Y-50203880D01*
X110030176Y-50568630D01*
X110340370Y-50878824D01*
X110705120Y-51122542D01*
X111110408Y-51290418D01*
X111540660Y-51376000D01*
X111979340Y-51376000D01*
X112409592Y-51290418D01*
X112814880Y-51122542D01*
X113179630Y-50878824D01*
X113489824Y-50568630D01*
X113733542Y-50203880D01*
X113901418Y-49798592D01*
X113987000Y-49368340D01*
X113987000Y-48929660D01*
X114613000Y-48929660D01*
X114613000Y-49368340D01*
X114698582Y-49798592D01*
X114866458Y-50203880D01*
X115110176Y-50568630D01*
X115420370Y-50878824D01*
X115785120Y-51122542D01*
X116190408Y-51290418D01*
X116620660Y-51376000D01*
X117059340Y-51376000D01*
X117489592Y-51290418D01*
X117894880Y-51122542D01*
X118259630Y-50878824D01*
X118569824Y-50568630D01*
X118813542Y-50203880D01*
X118981418Y-49798592D01*
X119067000Y-49368340D01*
X119067000Y-48929660D01*
X119693000Y-48929660D01*
X119693000Y-49368340D01*
X119778582Y-49798592D01*
X119946458Y-50203880D01*
X120190176Y-50568630D01*
X120500370Y-50878824D01*
X120865120Y-51122542D01*
X121270408Y-51290418D01*
X121700660Y-51376000D01*
X122139340Y-51376000D01*
X122569592Y-51290418D01*
X122974880Y-51122542D01*
X123339630Y-50878824D01*
X123649824Y-50568630D01*
X123893542Y-50203880D01*
X124061418Y-49798592D01*
X124147000Y-49368340D01*
X124147000Y-48929660D01*
X124061418Y-48499408D01*
X123893542Y-48094120D01*
X123729759Y-47849000D01*
X126025815Y-47849000D01*
X126025815Y-50449000D01*
X126043713Y-50630724D01*
X126096720Y-50805464D01*
X126182799Y-50966505D01*
X126298641Y-51107659D01*
X126439795Y-51223501D01*
X126600836Y-51309580D01*
X126775576Y-51362587D01*
X126957300Y-51380485D01*
X129557300Y-51380485D01*
X129739024Y-51362587D01*
X129913764Y-51309580D01*
X130074805Y-51223501D01*
X130215959Y-51107659D01*
X130331801Y-50966505D01*
X130417880Y-50805464D01*
X130470887Y-50630724D01*
X130488785Y-50449000D01*
X130488785Y-48929660D01*
X131110300Y-48929660D01*
X131110300Y-49368340D01*
X131195882Y-49798592D01*
X131363758Y-50203880D01*
X131607476Y-50568630D01*
X131917670Y-50878824D01*
X132282420Y-51122542D01*
X132687708Y-51290418D01*
X133117960Y-51376000D01*
X133556640Y-51376000D01*
X133986892Y-51290418D01*
X134392180Y-51122542D01*
X134756930Y-50878824D01*
X135067124Y-50568630D01*
X135310842Y-50203880D01*
X135478718Y-49798592D01*
X135564300Y-49368340D01*
X135564300Y-48929660D01*
X136190300Y-48929660D01*
X136190300Y-49368340D01*
X136275882Y-49798592D01*
X136443758Y-50203880D01*
X136687476Y-50568630D01*
X136997670Y-50878824D01*
X137362420Y-51122542D01*
X137767708Y-51290418D01*
X138197960Y-51376000D01*
X138636640Y-51376000D01*
X139066892Y-51290418D01*
X139472180Y-51122542D01*
X139836930Y-50878824D01*
X140147124Y-50568630D01*
X140390842Y-50203880D01*
X140558718Y-49798592D01*
X140644300Y-49368340D01*
X140644300Y-48929660D01*
X141270300Y-48929660D01*
X141270300Y-49368340D01*
X141355882Y-49798592D01*
X141523758Y-50203880D01*
X141767476Y-50568630D01*
X142077670Y-50878824D01*
X142442420Y-51122542D01*
X142847708Y-51290418D01*
X143277960Y-51376000D01*
X143716640Y-51376000D01*
X144146892Y-51290418D01*
X144552180Y-51122542D01*
X144916930Y-50878824D01*
X145227124Y-50568630D01*
X145470842Y-50203880D01*
X145638718Y-49798592D01*
X145724300Y-49368340D01*
X145724300Y-48929660D01*
X146350300Y-48929660D01*
X146350300Y-49368340D01*
X146435882Y-49798592D01*
X146603758Y-50203880D01*
X146847476Y-50568630D01*
X147157670Y-50878824D01*
X147522420Y-51122542D01*
X147927708Y-51290418D01*
X148357960Y-51376000D01*
X148796640Y-51376000D01*
X149226892Y-51290418D01*
X149632180Y-51122542D01*
X149996930Y-50878824D01*
X150307124Y-50568630D01*
X150550842Y-50203880D01*
X150718718Y-49798592D01*
X150804300Y-49368340D01*
X150804300Y-48929660D01*
X151430300Y-48929660D01*
X151430300Y-49368340D01*
X151515882Y-49798592D01*
X151683758Y-50203880D01*
X151927476Y-50568630D01*
X152237670Y-50878824D01*
X152602420Y-51122542D01*
X153007708Y-51290418D01*
X153437960Y-51376000D01*
X153876640Y-51376000D01*
X154306892Y-51290418D01*
X154712180Y-51122542D01*
X155076930Y-50878824D01*
X155387124Y-50568630D01*
X155630842Y-50203880D01*
X155798718Y-49798592D01*
X155884300Y-49368340D01*
X155884300Y-48929660D01*
X156510300Y-48929660D01*
X156510300Y-49368340D01*
X156595882Y-49798592D01*
X156763758Y-50203880D01*
X157007476Y-50568630D01*
X157317670Y-50878824D01*
X157682420Y-51122542D01*
X158087708Y-51290418D01*
X158517960Y-51376000D01*
X158956640Y-51376000D01*
X159386892Y-51290418D01*
X159792180Y-51122542D01*
X160156930Y-50878824D01*
X160467124Y-50568630D01*
X160710842Y-50203880D01*
X160878718Y-49798592D01*
X160964300Y-49368340D01*
X160964300Y-48929660D01*
X161590300Y-48929660D01*
X161590300Y-49368340D01*
X161675882Y-49798592D01*
X161843758Y-50203880D01*
X162087476Y-50568630D01*
X162397670Y-50878824D01*
X162762420Y-51122542D01*
X163167708Y-51290418D01*
X163597960Y-51376000D01*
X164036640Y-51376000D01*
X164466892Y-51290418D01*
X164872180Y-51122542D01*
X165236930Y-50878824D01*
X165547124Y-50568630D01*
X165790842Y-50203880D01*
X165958718Y-49798592D01*
X166044300Y-49368340D01*
X166044300Y-48929660D01*
X165958718Y-48499408D01*
X165813144Y-48147961D01*
X198948000Y-48147961D01*
X198948000Y-48626039D01*
X199041268Y-49094930D01*
X199224221Y-49536615D01*
X199489826Y-49934122D01*
X199827878Y-50272174D01*
X200225385Y-50537779D01*
X200667070Y-50720732D01*
X201135961Y-50814000D01*
X201614039Y-50814000D01*
X202082930Y-50720732D01*
X202524615Y-50537779D01*
X202922122Y-50272174D01*
X203260174Y-49934122D01*
X203525779Y-49536615D01*
X203708732Y-49094930D01*
X203802000Y-48626039D01*
X203802000Y-48147961D01*
X203708732Y-47679070D01*
X203525779Y-47237385D01*
X203291660Y-46887000D01*
X203943515Y-46887000D01*
X203943515Y-49887000D01*
X203961413Y-50068724D01*
X204014420Y-50243464D01*
X204100499Y-50404505D01*
X204216341Y-50545659D01*
X204357495Y-50661501D01*
X204518536Y-50747580D01*
X204693276Y-50800587D01*
X204875000Y-50818485D01*
X207875000Y-50818485D01*
X208056724Y-50800587D01*
X208231464Y-50747580D01*
X208392505Y-50661501D01*
X208533659Y-50545659D01*
X208649501Y-50404505D01*
X208735580Y-50243464D01*
X208788587Y-50068724D01*
X208806485Y-49887000D01*
X208806485Y-49675686D01*
X235606219Y-49675686D01*
X235942406Y-50144868D01*
X236572368Y-50485237D01*
X237256627Y-50696166D01*
X237968889Y-50769550D01*
X238681782Y-50702569D01*
X239367909Y-50497796D01*
X240000903Y-50163102D01*
X240028194Y-50144868D01*
X240364381Y-49675686D01*
X237985300Y-47296605D01*
X235606219Y-49675686D01*
X208806485Y-49675686D01*
X208806485Y-47100589D01*
X234332750Y-47100589D01*
X234399731Y-47813482D01*
X234604504Y-48499609D01*
X234939198Y-49132603D01*
X234957432Y-49159894D01*
X235426614Y-49496081D01*
X237805695Y-47117000D01*
X235426614Y-44737919D01*
X234957432Y-45074106D01*
X234617063Y-45704068D01*
X234406134Y-46388327D01*
X234332750Y-47100589D01*
X208806485Y-47100589D01*
X208806485Y-46887000D01*
X208788587Y-46705276D01*
X208735580Y-46530536D01*
X208649501Y-46369495D01*
X208533659Y-46228341D01*
X208392505Y-46112499D01*
X208231464Y-46026420D01*
X208056724Y-45973413D01*
X207875000Y-45955515D01*
X204875000Y-45955515D01*
X204693276Y-45973413D01*
X204518536Y-46026420D01*
X204357495Y-46112499D01*
X204216341Y-46228341D01*
X204100499Y-46369495D01*
X204014420Y-46530536D01*
X203961413Y-46705276D01*
X203943515Y-46887000D01*
X203291660Y-46887000D01*
X203260174Y-46839878D01*
X202922122Y-46501826D01*
X202524615Y-46236221D01*
X202082930Y-46053268D01*
X201614039Y-45960000D01*
X201135961Y-45960000D01*
X200667070Y-46053268D01*
X200225385Y-46236221D01*
X199827878Y-46501826D01*
X199489826Y-46839878D01*
X199224221Y-47237385D01*
X199041268Y-47679070D01*
X198948000Y-48147961D01*
X165813144Y-48147961D01*
X165790842Y-48094120D01*
X165547124Y-47729370D01*
X165236930Y-47419176D01*
X164872180Y-47175458D01*
X164466892Y-47007582D01*
X164036640Y-46922000D01*
X163597960Y-46922000D01*
X163167708Y-47007582D01*
X162762420Y-47175458D01*
X162397670Y-47419176D01*
X162087476Y-47729370D01*
X161843758Y-48094120D01*
X161675882Y-48499408D01*
X161590300Y-48929660D01*
X160964300Y-48929660D01*
X160878718Y-48499408D01*
X160710842Y-48094120D01*
X160467124Y-47729370D01*
X160156930Y-47419176D01*
X159792180Y-47175458D01*
X159386892Y-47007582D01*
X158956640Y-46922000D01*
X158517960Y-46922000D01*
X158087708Y-47007582D01*
X157682420Y-47175458D01*
X157317670Y-47419176D01*
X157007476Y-47729370D01*
X156763758Y-48094120D01*
X156595882Y-48499408D01*
X156510300Y-48929660D01*
X155884300Y-48929660D01*
X155798718Y-48499408D01*
X155630842Y-48094120D01*
X155387124Y-47729370D01*
X155076930Y-47419176D01*
X154712180Y-47175458D01*
X154306892Y-47007582D01*
X153876640Y-46922000D01*
X153437960Y-46922000D01*
X153007708Y-47007582D01*
X152602420Y-47175458D01*
X152237670Y-47419176D01*
X151927476Y-47729370D01*
X151683758Y-48094120D01*
X151515882Y-48499408D01*
X151430300Y-48929660D01*
X150804300Y-48929660D01*
X150718718Y-48499408D01*
X150550842Y-48094120D01*
X150307124Y-47729370D01*
X149996930Y-47419176D01*
X149632180Y-47175458D01*
X149226892Y-47007582D01*
X148796640Y-46922000D01*
X148357960Y-46922000D01*
X147927708Y-47007582D01*
X147522420Y-47175458D01*
X147157670Y-47419176D01*
X146847476Y-47729370D01*
X146603758Y-48094120D01*
X146435882Y-48499408D01*
X146350300Y-48929660D01*
X145724300Y-48929660D01*
X145638718Y-48499408D01*
X145470842Y-48094120D01*
X145227124Y-47729370D01*
X144916930Y-47419176D01*
X144552180Y-47175458D01*
X144146892Y-47007582D01*
X143716640Y-46922000D01*
X143277960Y-46922000D01*
X142847708Y-47007582D01*
X142442420Y-47175458D01*
X142077670Y-47419176D01*
X141767476Y-47729370D01*
X141523758Y-48094120D01*
X141355882Y-48499408D01*
X141270300Y-48929660D01*
X140644300Y-48929660D01*
X140558718Y-48499408D01*
X140390842Y-48094120D01*
X140147124Y-47729370D01*
X139836930Y-47419176D01*
X139472180Y-47175458D01*
X139066892Y-47007582D01*
X138636640Y-46922000D01*
X138197960Y-46922000D01*
X137767708Y-47007582D01*
X137362420Y-47175458D01*
X136997670Y-47419176D01*
X136687476Y-47729370D01*
X136443758Y-48094120D01*
X136275882Y-48499408D01*
X136190300Y-48929660D01*
X135564300Y-48929660D01*
X135478718Y-48499408D01*
X135310842Y-48094120D01*
X135067124Y-47729370D01*
X134756930Y-47419176D01*
X134392180Y-47175458D01*
X133986892Y-47007582D01*
X133556640Y-46922000D01*
X133117960Y-46922000D01*
X132687708Y-47007582D01*
X132282420Y-47175458D01*
X131917670Y-47419176D01*
X131607476Y-47729370D01*
X131363758Y-48094120D01*
X131195882Y-48499408D01*
X131110300Y-48929660D01*
X130488785Y-48929660D01*
X130488785Y-47849000D01*
X130470887Y-47667276D01*
X130417880Y-47492536D01*
X130331801Y-47331495D01*
X130215959Y-47190341D01*
X130074805Y-47074499D01*
X129913764Y-46988420D01*
X129739024Y-46935413D01*
X129557300Y-46917515D01*
X126957300Y-46917515D01*
X126775576Y-46935413D01*
X126600836Y-46988420D01*
X126439795Y-47074499D01*
X126298641Y-47190341D01*
X126182799Y-47331495D01*
X126096720Y-47492536D01*
X126043713Y-47667276D01*
X126025815Y-47849000D01*
X123729759Y-47849000D01*
X123649824Y-47729370D01*
X123339630Y-47419176D01*
X122974880Y-47175458D01*
X122569592Y-47007582D01*
X122139340Y-46922000D01*
X121700660Y-46922000D01*
X121270408Y-47007582D01*
X120865120Y-47175458D01*
X120500370Y-47419176D01*
X120190176Y-47729370D01*
X119946458Y-48094120D01*
X119778582Y-48499408D01*
X119693000Y-48929660D01*
X119067000Y-48929660D01*
X118981418Y-48499408D01*
X118813542Y-48094120D01*
X118569824Y-47729370D01*
X118259630Y-47419176D01*
X117894880Y-47175458D01*
X117489592Y-47007582D01*
X117059340Y-46922000D01*
X116620660Y-46922000D01*
X116190408Y-47007582D01*
X115785120Y-47175458D01*
X115420370Y-47419176D01*
X115110176Y-47729370D01*
X114866458Y-48094120D01*
X114698582Y-48499408D01*
X114613000Y-48929660D01*
X113987000Y-48929660D01*
X113901418Y-48499408D01*
X113733542Y-48094120D01*
X113489824Y-47729370D01*
X113179630Y-47419176D01*
X112814880Y-47175458D01*
X112409592Y-47007582D01*
X111979340Y-46922000D01*
X111540660Y-46922000D01*
X111110408Y-47007582D01*
X110705120Y-47175458D01*
X110340370Y-47419176D01*
X110030176Y-47729370D01*
X109786458Y-48094120D01*
X109618582Y-48499408D01*
X109533000Y-48929660D01*
X108911485Y-48929660D01*
X108911485Y-47849000D01*
X108893587Y-47667276D01*
X108840580Y-47492536D01*
X108754501Y-47331495D01*
X108638659Y-47190341D01*
X108497505Y-47074499D01*
X108336464Y-46988420D01*
X108161724Y-46935413D01*
X107980000Y-46917515D01*
X105380000Y-46917515D01*
X105198276Y-46935413D01*
X105023536Y-46988420D01*
X104862495Y-47074499D01*
X104721341Y-47190341D01*
X104605499Y-47331495D01*
X104519420Y-47492536D01*
X104466413Y-47667276D01*
X104448515Y-47849000D01*
X99323440Y-47849000D01*
X99324466Y-47845673D01*
X99397850Y-47133411D01*
X99330869Y-46420518D01*
X99126096Y-45734391D01*
X98791402Y-45101397D01*
X98773168Y-45074106D01*
X98303986Y-44737919D01*
X95924905Y-47117000D01*
X95565695Y-47117000D01*
X95551553Y-47102858D01*
X95731158Y-46923253D01*
X95745300Y-46937395D01*
X98124381Y-44558314D01*
X97927824Y-44284000D01*
X235802776Y-44284000D01*
X235606219Y-44558314D01*
G37*
X235606219Y-44558314D02*
X237985300Y-46937395D01*
X237999443Y-46923253D01*
X238179048Y-47102858D01*
X238164905Y-47117000D01*
X240543986Y-49496081D01*
X240818301Y-49299524D01*
X240818300Y-99974103D01*
X240802332Y-99967489D01*
X240459019Y-99899200D01*
X240108981Y-99899200D01*
X239765668Y-99967489D01*
X239442275Y-100101443D01*
X239151229Y-100295914D01*
X239014000Y-100433143D01*
X238876771Y-100295914D01*
X238585725Y-100101443D01*
X238262332Y-99967489D01*
X237919019Y-99899200D01*
X237568981Y-99899200D01*
X237225668Y-99967489D01*
X236902275Y-100101443D01*
X236611229Y-100295914D01*
X236474000Y-100433143D01*
X236336771Y-100295914D01*
X236045725Y-100101443D01*
X235722332Y-99967489D01*
X235379019Y-99899200D01*
X235028981Y-99899200D01*
X234685668Y-99967489D01*
X234362275Y-100101443D01*
X234071229Y-100295914D01*
X233934000Y-100433143D01*
X233796771Y-100295914D01*
X233505725Y-100101443D01*
X233182332Y-99967489D01*
X232839019Y-99899200D01*
X232488981Y-99899200D01*
X232145668Y-99967489D01*
X231822275Y-100101443D01*
X231531229Y-100295914D01*
X231394000Y-100433143D01*
X231256771Y-100295914D01*
X230965725Y-100101443D01*
X230642332Y-99967489D01*
X230299019Y-99899200D01*
X229948981Y-99899200D01*
X229605668Y-99967489D01*
X229282275Y-100101443D01*
X228991229Y-100295914D01*
X228854000Y-100433143D01*
X228716771Y-100295914D01*
X228425725Y-100101443D01*
X228102332Y-99967489D01*
X227759019Y-99899200D01*
X227408981Y-99899200D01*
X227065668Y-99967489D01*
X226742275Y-100101443D01*
X226451229Y-100295914D01*
X226314000Y-100433143D01*
X226176771Y-100295914D01*
X225885725Y-100101443D01*
X225562332Y-99967489D01*
X225219019Y-99899200D01*
X224868981Y-99899200D01*
X224525668Y-99967489D01*
X224202275Y-100101443D01*
X223911229Y-100295914D01*
X223774000Y-100433143D01*
X223636771Y-100295914D01*
X223345725Y-100101443D01*
X223022332Y-99967489D01*
X222679019Y-99899200D01*
X222328981Y-99899200D01*
X221985668Y-99967489D01*
X221662275Y-100101443D01*
X221371229Y-100295914D01*
X221234000Y-100433143D01*
X221096771Y-100295914D01*
X220805725Y-100101443D01*
X220482332Y-99967489D01*
X220139019Y-99899200D01*
X219788981Y-99899200D01*
X219445668Y-99967489D01*
X219122275Y-100101443D01*
X218831229Y-100295914D01*
X218694000Y-100433143D01*
X218556771Y-100295914D01*
X218265725Y-100101443D01*
X217942332Y-99967489D01*
X217599019Y-99899200D01*
X217248981Y-99899200D01*
X216905668Y-99967489D01*
X216582275Y-100101443D01*
X216291229Y-100295914D01*
X216154000Y-100433143D01*
X216016771Y-100295914D01*
X215725725Y-100101443D01*
X215402332Y-99967489D01*
X215059019Y-99899200D01*
X214708981Y-99899200D01*
X214365668Y-99967489D01*
X214042275Y-100101443D01*
X213751229Y-100295914D01*
X213614000Y-100433143D01*
X213476771Y-100295914D01*
X213185725Y-100101443D01*
X212862332Y-99967489D01*
X212519019Y-99899200D01*
X212168981Y-99899200D01*
X211825668Y-99967489D01*
X211502275Y-100101443D01*
X211211229Y-100295914D01*
X210963714Y-100543429D01*
X210882336Y-100665220D01*
X210804269Y-100578612D01*
X210570920Y-100404559D01*
X210308099Y-100279375D01*
X210160890Y-100234724D01*
X209931000Y-100356045D01*
X209931000Y-101549200D01*
X209951000Y-101549200D01*
X209951000Y-101803200D01*
X209931000Y-101803200D01*
X209931000Y-102996355D01*
X210160890Y-103117676D01*
X210308099Y-103073025D01*
X210570920Y-102947841D01*
X210804269Y-102773788D01*
X210882336Y-102687180D01*
X210963714Y-102808971D01*
X211211229Y-103056486D01*
X211502275Y-103250957D01*
X211825668Y-103384911D01*
X212168981Y-103453200D01*
X212519019Y-103453200D01*
X212862332Y-103384911D01*
X213185725Y-103250957D01*
X213476771Y-103056486D01*
X213614000Y-102919257D01*
X213751229Y-103056486D01*
X214042275Y-103250957D01*
X214365668Y-103384911D01*
X214708981Y-103453200D01*
X215059019Y-103453200D01*
X215402332Y-103384911D01*
X215725725Y-103250957D01*
X216016771Y-103056486D01*
X216154000Y-102919257D01*
X216291229Y-103056486D01*
X216582275Y-103250957D01*
X216905668Y-103384911D01*
X217248981Y-103453200D01*
X217599019Y-103453200D01*
X217942332Y-103384911D01*
X218265725Y-103250957D01*
X218556771Y-103056486D01*
X218694000Y-102919257D01*
X218831229Y-103056486D01*
X219122275Y-103250957D01*
X219445668Y-103384911D01*
X219788981Y-103453200D01*
X220139019Y-103453200D01*
X220482332Y-103384911D01*
X220805725Y-103250957D01*
X221096771Y-103056486D01*
X221234000Y-102919257D01*
X221371229Y-103056486D01*
X221662275Y-103250957D01*
X221985668Y-103384911D01*
X222328981Y-103453200D01*
X222679019Y-103453200D01*
X223022332Y-103384911D01*
X223345725Y-103250957D01*
X223636771Y-103056486D01*
X223774000Y-102919257D01*
X223911229Y-103056486D01*
X224202275Y-103250957D01*
X224525668Y-103384911D01*
X224868981Y-103453200D01*
X225219019Y-103453200D01*
X225562332Y-103384911D01*
X225885725Y-103250957D01*
X226176771Y-103056486D01*
X226314000Y-102919257D01*
X226451229Y-103056486D01*
X226742275Y-103250957D01*
X227065668Y-103384911D01*
X227408981Y-103453200D01*
X227759019Y-103453200D01*
X228102332Y-103384911D01*
X228425725Y-103250957D01*
X228716771Y-103056486D01*
X228854000Y-102919257D01*
X228991229Y-103056486D01*
X229282275Y-103250957D01*
X229605668Y-103384911D01*
X229948981Y-103453200D01*
X230299019Y-103453200D01*
X230642332Y-103384911D01*
X230965725Y-103250957D01*
X231256771Y-103056486D01*
X231394000Y-102919257D01*
X231531229Y-103056486D01*
X231822275Y-103250957D01*
X232145668Y-103384911D01*
X232488981Y-103453200D01*
X232839019Y-103453200D01*
X233182332Y-103384911D01*
X233505725Y-103250957D01*
X233796771Y-103056486D01*
X233934000Y-102919257D01*
X234071229Y-103056486D01*
X234362275Y-103250957D01*
X234685668Y-103384911D01*
X235028981Y-103453200D01*
X235379019Y-103453200D01*
X235722332Y-103384911D01*
X236045725Y-103250957D01*
X236336771Y-103056486D01*
X236474000Y-102919257D01*
X236611229Y-103056486D01*
X236902275Y-103250957D01*
X237225668Y-103384911D01*
X237568981Y-103453200D01*
X237919019Y-103453200D01*
X238262332Y-103384911D01*
X238585725Y-103250957D01*
X238876771Y-103056486D01*
X239014000Y-102919257D01*
X239151229Y-103056486D01*
X239442275Y-103250957D01*
X239765668Y-103384911D01*
X240108981Y-103453200D01*
X240459019Y-103453200D01*
X240802332Y-103384911D01*
X240818300Y-103378297D01*
X240818300Y-125283024D01*
X240776932Y-125265889D01*
X240433619Y-125197600D01*
X240083581Y-125197600D01*
X239740268Y-125265889D01*
X239416875Y-125399843D01*
X239125829Y-125594314D01*
X238988600Y-125731543D01*
X238851371Y-125594314D01*
X238560325Y-125399843D01*
X238236932Y-125265889D01*
X237893619Y-125197600D01*
X237543581Y-125197600D01*
X237200268Y-125265889D01*
X236876875Y-125399843D01*
X236585829Y-125594314D01*
X236448600Y-125731543D01*
X236311371Y-125594314D01*
X236020325Y-125399843D01*
X235696932Y-125265889D01*
X235353619Y-125197600D01*
X235003581Y-125197600D01*
X234660268Y-125265889D01*
X234336875Y-125399843D01*
X234045829Y-125594314D01*
X233908600Y-125731543D01*
X233771371Y-125594314D01*
X233480325Y-125399843D01*
X233156932Y-125265889D01*
X232813619Y-125197600D01*
X232463581Y-125197600D01*
X232120268Y-125265889D01*
X231796875Y-125399843D01*
X231505829Y-125594314D01*
X231368600Y-125731543D01*
X231231371Y-125594314D01*
X230940325Y-125399843D01*
X230616932Y-125265889D01*
X230273619Y-125197600D01*
X229923581Y-125197600D01*
X229580268Y-125265889D01*
X229256875Y-125399843D01*
X228965829Y-125594314D01*
X228828600Y-125731543D01*
X228691371Y-125594314D01*
X228400325Y-125399843D01*
X228076932Y-125265889D01*
X227733619Y-125197600D01*
X227383581Y-125197600D01*
X227040268Y-125265889D01*
X226716875Y-125399843D01*
X226425829Y-125594314D01*
X226288600Y-125731543D01*
X226151371Y-125594314D01*
X225860325Y-125399843D01*
X225536932Y-125265889D01*
X225193619Y-125197600D01*
X224843581Y-125197600D01*
X224500268Y-125265889D01*
X224176875Y-125399843D01*
X223885829Y-125594314D01*
X223748600Y-125731543D01*
X223611371Y-125594314D01*
X223320325Y-125399843D01*
X222996932Y-125265889D01*
X222653619Y-125197600D01*
X222303581Y-125197600D01*
X221960268Y-125265889D01*
X221636875Y-125399843D01*
X221345829Y-125594314D01*
X221208600Y-125731543D01*
X221071371Y-125594314D01*
X220780325Y-125399843D01*
X220456932Y-125265889D01*
X220113619Y-125197600D01*
X219763581Y-125197600D01*
X219420268Y-125265889D01*
X219096875Y-125399843D01*
X218805829Y-125594314D01*
X218668600Y-125731543D01*
X218531371Y-125594314D01*
X218240325Y-125399843D01*
X217916932Y-125265889D01*
X217573619Y-125197600D01*
X217223581Y-125197600D01*
X216880268Y-125265889D01*
X216556875Y-125399843D01*
X216265829Y-125594314D01*
X216128600Y-125731543D01*
X215991371Y-125594314D01*
X215700325Y-125399843D01*
X215376932Y-125265889D01*
X215033619Y-125197600D01*
X214683581Y-125197600D01*
X214340268Y-125265889D01*
X214016875Y-125399843D01*
X213725829Y-125594314D01*
X213588600Y-125731543D01*
X213451371Y-125594314D01*
X213160325Y-125399843D01*
X212836932Y-125265889D01*
X212493619Y-125197600D01*
X212143581Y-125197600D01*
X211800268Y-125265889D01*
X211476875Y-125399843D01*
X211185829Y-125594314D01*
X211048600Y-125731543D01*
X210911371Y-125594314D01*
X210620325Y-125399843D01*
X210296932Y-125265889D01*
X209953619Y-125197600D01*
X209603581Y-125197600D01*
X209260268Y-125265889D01*
X208936875Y-125399843D01*
X208645829Y-125594314D01*
X208508600Y-125731543D01*
X208371371Y-125594314D01*
X208080325Y-125399843D01*
X207756932Y-125265889D01*
X207413619Y-125197600D01*
X207063581Y-125197600D01*
X206720268Y-125265889D01*
X206396875Y-125399843D01*
X206105829Y-125594314D01*
X205968600Y-125731543D01*
X205831371Y-125594314D01*
X205540325Y-125399843D01*
X205216932Y-125265889D01*
X204873619Y-125197600D01*
X204523581Y-125197600D01*
X204180268Y-125265889D01*
X203856875Y-125399843D01*
X203565829Y-125594314D01*
X203428600Y-125731543D01*
X203291371Y-125594314D01*
X203000325Y-125399843D01*
X202676932Y-125265889D01*
X202333619Y-125197600D01*
X201983581Y-125197600D01*
X201640268Y-125265889D01*
X201316875Y-125399843D01*
X201025829Y-125594314D01*
X200888600Y-125731543D01*
X200751371Y-125594314D01*
X200460325Y-125399843D01*
X200136932Y-125265889D01*
X199793619Y-125197600D01*
X199443581Y-125197600D01*
X199100268Y-125265889D01*
X198776875Y-125399843D01*
X198485829Y-125594314D01*
X198348600Y-125731543D01*
X198211371Y-125594314D01*
X197920325Y-125399843D01*
X197596932Y-125265889D01*
X197253619Y-125197600D01*
X196903581Y-125197600D01*
X196560268Y-125265889D01*
X196236875Y-125399843D01*
X196079379Y-125505079D01*
X196047259Y-125465941D01*
X195906105Y-125350099D01*
X195745064Y-125264020D01*
X195570324Y-125211013D01*
X195388600Y-125193115D01*
X193688600Y-125193115D01*
X193506876Y-125211013D01*
X193332136Y-125264020D01*
X193171095Y-125350099D01*
X193029941Y-125465941D01*
X192914099Y-125607095D01*
X192828020Y-125768136D01*
X192775013Y-125942876D01*
X192757115Y-126124600D01*
X192757115Y-127824600D01*
X192775013Y-128006324D01*
X192828020Y-128181064D01*
X192914099Y-128342105D01*
X193029941Y-128483259D01*
X193171095Y-128599101D01*
X193332136Y-128685180D01*
X193506876Y-128738187D01*
X193688600Y-128756085D01*
X195388600Y-128756085D01*
X195570324Y-128738187D01*
X195745064Y-128685180D01*
X195906105Y-128599101D01*
X196047259Y-128483259D01*
X196079379Y-128444121D01*
X196236875Y-128549357D01*
X196560268Y-128683311D01*
X196903581Y-128751600D01*
X197253619Y-128751600D01*
X197596932Y-128683311D01*
X197920325Y-128549357D01*
X198211371Y-128354886D01*
X198348600Y-128217657D01*
X198485829Y-128354886D01*
X198776875Y-128549357D01*
X199100268Y-128683311D01*
X199443581Y-128751600D01*
X199793619Y-128751600D01*
X200136932Y-128683311D01*
X200460325Y-128549357D01*
X200751371Y-128354886D01*
X200888600Y-128217657D01*
X201025829Y-128354886D01*
X201316875Y-128549357D01*
X201640268Y-128683311D01*
X201983581Y-128751600D01*
X202333619Y-128751600D01*
X202676932Y-128683311D01*
X203000325Y-128549357D01*
X203291371Y-128354886D01*
X203428600Y-128217657D01*
X203565829Y-128354886D01*
X203856875Y-128549357D01*
X204180268Y-128683311D01*
X204523581Y-128751600D01*
X204873619Y-128751600D01*
X205216932Y-128683311D01*
X205540325Y-128549357D01*
X205831371Y-128354886D01*
X205968600Y-128217657D01*
X206105829Y-128354886D01*
X206396875Y-128549357D01*
X206720268Y-128683311D01*
X207063581Y-128751600D01*
X207413619Y-128751600D01*
X207756932Y-128683311D01*
X208080325Y-128549357D01*
X208371371Y-128354886D01*
X208508600Y-128217657D01*
X208645829Y-128354886D01*
X208936875Y-128549357D01*
X209260268Y-128683311D01*
X209603581Y-128751600D01*
X209953619Y-128751600D01*
X210296932Y-128683311D01*
X210620325Y-128549357D01*
X210911371Y-128354886D01*
X211048600Y-128217657D01*
X211185829Y-128354886D01*
X211476875Y-128549357D01*
X211800268Y-128683311D01*
X212143581Y-128751600D01*
X212493619Y-128751600D01*
X212836932Y-128683311D01*
X213160325Y-128549357D01*
X213451371Y-128354886D01*
X213588600Y-128217657D01*
X213725829Y-128354886D01*
X214016875Y-128549357D01*
X214340268Y-128683311D01*
X214683581Y-128751600D01*
X215033619Y-128751600D01*
X215376932Y-128683311D01*
X215700325Y-128549357D01*
X215991371Y-128354886D01*
X216128600Y-128217657D01*
X216265829Y-128354886D01*
X216556875Y-128549357D01*
X216880268Y-128683311D01*
X217223581Y-128751600D01*
X217573619Y-128751600D01*
X217916932Y-128683311D01*
X218240325Y-128549357D01*
X218531371Y-128354886D01*
X218668600Y-128217657D01*
X218805829Y-128354886D01*
X219096875Y-128549357D01*
X219420268Y-128683311D01*
X219763581Y-128751600D01*
X220113619Y-128751600D01*
X220456932Y-128683311D01*
X220780325Y-128549357D01*
X221071371Y-128354886D01*
X221208600Y-128217657D01*
X221345829Y-128354886D01*
X221636875Y-128549357D01*
X221960268Y-128683311D01*
X222303581Y-128751600D01*
X222653619Y-128751600D01*
X222996932Y-128683311D01*
X223320325Y-128549357D01*
X223611371Y-128354886D01*
X223748600Y-128217657D01*
X223885829Y-128354886D01*
X224176875Y-128549357D01*
X224500268Y-128683311D01*
X224843581Y-128751600D01*
X225193619Y-128751600D01*
X225536932Y-128683311D01*
X225860325Y-128549357D01*
X226151371Y-128354886D01*
X226288600Y-128217657D01*
X226425829Y-128354886D01*
X226716875Y-128549357D01*
X227040268Y-128683311D01*
X227383581Y-128751600D01*
X227733619Y-128751600D01*
X228076932Y-128683311D01*
X228400325Y-128549357D01*
X228691371Y-128354886D01*
X228828600Y-128217657D01*
X228965829Y-128354886D01*
X229256875Y-128549357D01*
X229580268Y-128683311D01*
X229923581Y-128751600D01*
X230273619Y-128751600D01*
X230616932Y-128683311D01*
X230940325Y-128549357D01*
X231231371Y-128354886D01*
X231368600Y-128217657D01*
X231505829Y-128354886D01*
X231796875Y-128549357D01*
X232120268Y-128683311D01*
X232463581Y-128751600D01*
X232813619Y-128751600D01*
X233156932Y-128683311D01*
X233480325Y-128549357D01*
X233771371Y-128354886D01*
X233908600Y-128217657D01*
X234045829Y-128354886D01*
X234336875Y-128549357D01*
X234660268Y-128683311D01*
X235003581Y-128751600D01*
X235353619Y-128751600D01*
X235696932Y-128683311D01*
X236020325Y-128549357D01*
X236311371Y-128354886D01*
X236448600Y-128217657D01*
X236585829Y-128354886D01*
X236876875Y-128549357D01*
X237200268Y-128683311D01*
X237543581Y-128751600D01*
X237893619Y-128751600D01*
X238236932Y-128683311D01*
X238560325Y-128549357D01*
X238851371Y-128354886D01*
X238988600Y-128217657D01*
X239125829Y-128354886D01*
X239416875Y-128549357D01*
X239740268Y-128683311D01*
X240083581Y-128751600D01*
X240433619Y-128751600D01*
X240776932Y-128683311D01*
X240818300Y-128666176D01*
X240818300Y-137136476D01*
X240543986Y-136939919D01*
X238164905Y-139319000D01*
X238179048Y-139333143D01*
X237999443Y-139512748D01*
X237985300Y-139498605D01*
X235606219Y-141877686D01*
X235802776Y-142152000D01*
X140248047Y-142152000D01*
X140354611Y-141894732D01*
X140422900Y-141551419D01*
X140422900Y-141201381D01*
X140354611Y-140858068D01*
X140220657Y-140534675D01*
X140026186Y-140243629D01*
X139888957Y-140106400D01*
X140026186Y-139969171D01*
X140220657Y-139678125D01*
X140354611Y-139354732D01*
X140422900Y-139011419D01*
X140422900Y-138661381D01*
X140354611Y-138318068D01*
X140220657Y-137994675D01*
X140026186Y-137703629D01*
X139888957Y-137566400D01*
X140026186Y-137429171D01*
X140220657Y-137138125D01*
X140249844Y-137067660D01*
X146578900Y-137067660D01*
X146578900Y-137506340D01*
X146664482Y-137936592D01*
X146832358Y-138341880D01*
X147076076Y-138706630D01*
X147386270Y-139016824D01*
X147751020Y-139260542D01*
X148156308Y-139428418D01*
X148586560Y-139514000D01*
X149025240Y-139514000D01*
X149455492Y-139428418D01*
X149860780Y-139260542D01*
X150225530Y-139016824D01*
X150535724Y-138706630D01*
X150779442Y-138341880D01*
X150947318Y-137936592D01*
X151032900Y-137506340D01*
X151032900Y-137067660D01*
X151658900Y-137067660D01*
X151658900Y-137506340D01*
X151744482Y-137936592D01*
X151912358Y-138341880D01*
X152156076Y-138706630D01*
X152466270Y-139016824D01*
X152831020Y-139260542D01*
X153236308Y-139428418D01*
X153666560Y-139514000D01*
X154105240Y-139514000D01*
X154535492Y-139428418D01*
X154940780Y-139260542D01*
X155305530Y-139016824D01*
X155615724Y-138706630D01*
X155859442Y-138341880D01*
X156027318Y-137936592D01*
X156112900Y-137506340D01*
X156112900Y-137067660D01*
X156738900Y-137067660D01*
X156738900Y-137506340D01*
X156824482Y-137936592D01*
X156992358Y-138341880D01*
X157236076Y-138706630D01*
X157546270Y-139016824D01*
X157911020Y-139260542D01*
X158316308Y-139428418D01*
X158746560Y-139514000D01*
X159185240Y-139514000D01*
X159615492Y-139428418D01*
X160020780Y-139260542D01*
X160385530Y-139016824D01*
X160695724Y-138706630D01*
X160939442Y-138341880D01*
X161107318Y-137936592D01*
X161192900Y-137506340D01*
X161192900Y-137067660D01*
X161818900Y-137067660D01*
X161818900Y-137506340D01*
X161904482Y-137936592D01*
X162072358Y-138341880D01*
X162316076Y-138706630D01*
X162626270Y-139016824D01*
X162991020Y-139260542D01*
X163396308Y-139428418D01*
X163826560Y-139514000D01*
X164265240Y-139514000D01*
X164695492Y-139428418D01*
X165100780Y-139260542D01*
X165465530Y-139016824D01*
X165775724Y-138706630D01*
X166019442Y-138341880D01*
X166187318Y-137936592D01*
X166272900Y-137506340D01*
X166272900Y-137067660D01*
X166898900Y-137067660D01*
X166898900Y-137506340D01*
X166984482Y-137936592D01*
X167152358Y-138341880D01*
X167396076Y-138706630D01*
X167706270Y-139016824D01*
X168071020Y-139260542D01*
X168476308Y-139428418D01*
X168906560Y-139514000D01*
X169345240Y-139514000D01*
X169775492Y-139428418D01*
X170180780Y-139260542D01*
X170545530Y-139016824D01*
X170855724Y-138706630D01*
X171099442Y-138341880D01*
X171267318Y-137936592D01*
X171352900Y-137506340D01*
X171352900Y-137067660D01*
X171978900Y-137067660D01*
X171978900Y-137506340D01*
X172064482Y-137936592D01*
X172232358Y-138341880D01*
X172476076Y-138706630D01*
X172786270Y-139016824D01*
X173151020Y-139260542D01*
X173556308Y-139428418D01*
X173986560Y-139514000D01*
X174425240Y-139514000D01*
X174855492Y-139428418D01*
X175260780Y-139260542D01*
X175625530Y-139016824D01*
X175935724Y-138706630D01*
X176179442Y-138341880D01*
X176347318Y-137936592D01*
X176432900Y-137506340D01*
X176432900Y-137067660D01*
X177058900Y-137067660D01*
X177058900Y-137506340D01*
X177144482Y-137936592D01*
X177312358Y-138341880D01*
X177556076Y-138706630D01*
X177866270Y-139016824D01*
X178231020Y-139260542D01*
X178636308Y-139428418D01*
X179066560Y-139514000D01*
X179505240Y-139514000D01*
X179935492Y-139428418D01*
X180340780Y-139260542D01*
X180705530Y-139016824D01*
X181015724Y-138706630D01*
X181259442Y-138341880D01*
X181427318Y-137936592D01*
X181512900Y-137506340D01*
X181512900Y-137067660D01*
X181427318Y-136637408D01*
X181259442Y-136232120D01*
X181095659Y-135987000D01*
X182134415Y-135987000D01*
X182134415Y-138587000D01*
X182152313Y-138768724D01*
X182205320Y-138943464D01*
X182291399Y-139104505D01*
X182407241Y-139245659D01*
X182548395Y-139361501D01*
X182709436Y-139447580D01*
X182884176Y-139500587D01*
X183065900Y-139518485D01*
X185665900Y-139518485D01*
X185847624Y-139500587D01*
X186022364Y-139447580D01*
X186183405Y-139361501D01*
X186324559Y-139245659D01*
X186440401Y-139104505D01*
X186526480Y-138943464D01*
X186579487Y-138768724D01*
X186580052Y-138762981D01*
X209043000Y-138762981D01*
X209043000Y-139113019D01*
X209111289Y-139456332D01*
X209245243Y-139779725D01*
X209439714Y-140070771D01*
X209687229Y-140318286D01*
X209978275Y-140512757D01*
X210301668Y-140646711D01*
X210644981Y-140715000D01*
X210995019Y-140715000D01*
X211338332Y-140646711D01*
X211661725Y-140512757D01*
X211952771Y-140318286D01*
X212200286Y-140070771D01*
X212281664Y-139948980D01*
X212359731Y-140035588D01*
X212593080Y-140209641D01*
X212855901Y-140334825D01*
X213003110Y-140379476D01*
X213233000Y-140258155D01*
X213233000Y-139065000D01*
X213213000Y-139065000D01*
X213213000Y-138811000D01*
X213233000Y-138811000D01*
X213233000Y-137617845D01*
X213487000Y-137617845D01*
X213487000Y-138811000D01*
X213507000Y-138811000D01*
X213507000Y-139065000D01*
X213487000Y-139065000D01*
X213487000Y-140258155D01*
X213716890Y-140379476D01*
X213864099Y-140334825D01*
X214126920Y-140209641D01*
X214360269Y-140035588D01*
X214438336Y-139948980D01*
X214519714Y-140070771D01*
X214767229Y-140318286D01*
X215058275Y-140512757D01*
X215381668Y-140646711D01*
X215724981Y-140715000D01*
X216075019Y-140715000D01*
X216418332Y-140646711D01*
X216741725Y-140512757D01*
X217032771Y-140318286D01*
X217170000Y-140181057D01*
X217307229Y-140318286D01*
X217598275Y-140512757D01*
X217921668Y-140646711D01*
X218264981Y-140715000D01*
X218615019Y-140715000D01*
X218958332Y-140646711D01*
X219281725Y-140512757D01*
X219572771Y-140318286D01*
X219710000Y-140181057D01*
X219847229Y-140318286D01*
X220138275Y-140512757D01*
X220461668Y-140646711D01*
X220804981Y-140715000D01*
X221155019Y-140715000D01*
X221498332Y-140646711D01*
X221821725Y-140512757D01*
X222112771Y-140318286D01*
X222250000Y-140181057D01*
X222387229Y-140318286D01*
X222678275Y-140512757D01*
X223001668Y-140646711D01*
X223344981Y-140715000D01*
X223695019Y-140715000D01*
X224038332Y-140646711D01*
X224361725Y-140512757D01*
X224519221Y-140407521D01*
X224551341Y-140446659D01*
X224692495Y-140562501D01*
X224853536Y-140648580D01*
X225028276Y-140701587D01*
X225210000Y-140719485D01*
X226910000Y-140719485D01*
X227091724Y-140701587D01*
X227266464Y-140648580D01*
X227427505Y-140562501D01*
X227568659Y-140446659D01*
X227684501Y-140305505D01*
X227770580Y-140144464D01*
X227823587Y-139969724D01*
X227841485Y-139788000D01*
X227841485Y-139302589D01*
X234332750Y-139302589D01*
X234399731Y-140015482D01*
X234604504Y-140701609D01*
X234939198Y-141334603D01*
X234957432Y-141361894D01*
X235426614Y-141698081D01*
X237805695Y-139319000D01*
X235426614Y-136939919D01*
X234957432Y-137276106D01*
X234617063Y-137906068D01*
X234406134Y-138590327D01*
X234332750Y-139302589D01*
X227841485Y-139302589D01*
X227841485Y-138088000D01*
X227823587Y-137906276D01*
X227770580Y-137731536D01*
X227684501Y-137570495D01*
X227568659Y-137429341D01*
X227427505Y-137313499D01*
X227266464Y-137227420D01*
X227091724Y-137174413D01*
X226910000Y-137156515D01*
X225210000Y-137156515D01*
X225028276Y-137174413D01*
X224853536Y-137227420D01*
X224692495Y-137313499D01*
X224551341Y-137429341D01*
X224519221Y-137468479D01*
X224361725Y-137363243D01*
X224038332Y-137229289D01*
X223695019Y-137161000D01*
X223344981Y-137161000D01*
X223001668Y-137229289D01*
X222678275Y-137363243D01*
X222387229Y-137557714D01*
X222250000Y-137694943D01*
X222112771Y-137557714D01*
X221821725Y-137363243D01*
X221498332Y-137229289D01*
X221155019Y-137161000D01*
X220804981Y-137161000D01*
X220461668Y-137229289D01*
X220138275Y-137363243D01*
X219847229Y-137557714D01*
X219710000Y-137694943D01*
X219572771Y-137557714D01*
X219281725Y-137363243D01*
X218958332Y-137229289D01*
X218615019Y-137161000D01*
X218264981Y-137161000D01*
X217921668Y-137229289D01*
X217598275Y-137363243D01*
X217307229Y-137557714D01*
X217170000Y-137694943D01*
X217032771Y-137557714D01*
X216741725Y-137363243D01*
X216418332Y-137229289D01*
X216075019Y-137161000D01*
X215724981Y-137161000D01*
X215381668Y-137229289D01*
X215058275Y-137363243D01*
X214767229Y-137557714D01*
X214519714Y-137805229D01*
X214438336Y-137927020D01*
X214360269Y-137840412D01*
X214126920Y-137666359D01*
X213864099Y-137541175D01*
X213716890Y-137496524D01*
X213487000Y-137617845D01*
X213233000Y-137617845D01*
X213003110Y-137496524D01*
X212855901Y-137541175D01*
X212593080Y-137666359D01*
X212359731Y-137840412D01*
X212281664Y-137927020D01*
X212200286Y-137805229D01*
X211952771Y-137557714D01*
X211661725Y-137363243D01*
X211338332Y-137229289D01*
X210995019Y-137161000D01*
X210644981Y-137161000D01*
X210301668Y-137229289D01*
X209978275Y-137363243D01*
X209687229Y-137557714D01*
X209439714Y-137805229D01*
X209245243Y-138096275D01*
X209111289Y-138419668D01*
X209043000Y-138762981D01*
X186580052Y-138762981D01*
X186597385Y-138587000D01*
X186597385Y-136760314D01*
X235606219Y-136760314D01*
X237985300Y-139139395D01*
X240364381Y-136760314D01*
X240028194Y-136291132D01*
X239398232Y-135950763D01*
X238713973Y-135739834D01*
X238001711Y-135666450D01*
X237288818Y-135733431D01*
X236602691Y-135938204D01*
X235969697Y-136272898D01*
X235942406Y-136291132D01*
X235606219Y-136760314D01*
X186597385Y-136760314D01*
X186597385Y-135987000D01*
X186579487Y-135805276D01*
X186526480Y-135630536D01*
X186440401Y-135469495D01*
X186324559Y-135328341D01*
X186183405Y-135212499D01*
X186022364Y-135126420D01*
X185847624Y-135073413D01*
X185665900Y-135055515D01*
X183065900Y-135055515D01*
X182884176Y-135073413D01*
X182709436Y-135126420D01*
X182548395Y-135212499D01*
X182407241Y-135328341D01*
X182291399Y-135469495D01*
X182205320Y-135630536D01*
X182152313Y-135805276D01*
X182134415Y-135987000D01*
X181095659Y-135987000D01*
X181015724Y-135867370D01*
X180705530Y-135557176D01*
X180340780Y-135313458D01*
X179935492Y-135145582D01*
X179505240Y-135060000D01*
X179066560Y-135060000D01*
X178636308Y-135145582D01*
X178231020Y-135313458D01*
X177866270Y-135557176D01*
X177556076Y-135867370D01*
X177312358Y-136232120D01*
X177144482Y-136637408D01*
X177058900Y-137067660D01*
X176432900Y-137067660D01*
X176347318Y-136637408D01*
X176179442Y-136232120D01*
X175935724Y-135867370D01*
X175625530Y-135557176D01*
X175260780Y-135313458D01*
X174855492Y-135145582D01*
X174425240Y-135060000D01*
X173986560Y-135060000D01*
X173556308Y-135145582D01*
X173151020Y-135313458D01*
X172786270Y-135557176D01*
X172476076Y-135867370D01*
X172232358Y-136232120D01*
X172064482Y-136637408D01*
X171978900Y-137067660D01*
X171352900Y-137067660D01*
X171267318Y-136637408D01*
X171099442Y-136232120D01*
X170855724Y-135867370D01*
X170545530Y-135557176D01*
X170180780Y-135313458D01*
X169775492Y-135145582D01*
X169345240Y-135060000D01*
X168906560Y-135060000D01*
X168476308Y-135145582D01*
X168071020Y-135313458D01*
X167706270Y-135557176D01*
X167396076Y-135867370D01*
X167152358Y-136232120D01*
X166984482Y-136637408D01*
X166898900Y-137067660D01*
X166272900Y-137067660D01*
X166187318Y-136637408D01*
X166019442Y-136232120D01*
X165775724Y-135867370D01*
X165465530Y-135557176D01*
X165100780Y-135313458D01*
X164695492Y-135145582D01*
X164265240Y-135060000D01*
X163826560Y-135060000D01*
X163396308Y-135145582D01*
X162991020Y-135313458D01*
X162626270Y-135557176D01*
X162316076Y-135867370D01*
X162072358Y-136232120D01*
X161904482Y-136637408D01*
X161818900Y-137067660D01*
X161192900Y-137067660D01*
X161107318Y-136637408D01*
X160939442Y-136232120D01*
X160695724Y-135867370D01*
X160385530Y-135557176D01*
X160020780Y-135313458D01*
X159615492Y-135145582D01*
X159185240Y-135060000D01*
X158746560Y-135060000D01*
X158316308Y-135145582D01*
X157911020Y-135313458D01*
X157546270Y-135557176D01*
X157236076Y-135867370D01*
X156992358Y-136232120D01*
X156824482Y-136637408D01*
X156738900Y-137067660D01*
X156112900Y-137067660D01*
X156027318Y-136637408D01*
X155859442Y-136232120D01*
X155615724Y-135867370D01*
X155305530Y-135557176D01*
X154940780Y-135313458D01*
X154535492Y-135145582D01*
X154105240Y-135060000D01*
X153666560Y-135060000D01*
X153236308Y-135145582D01*
X152831020Y-135313458D01*
X152466270Y-135557176D01*
X152156076Y-135867370D01*
X151912358Y-136232120D01*
X151744482Y-136637408D01*
X151658900Y-137067660D01*
X151032900Y-137067660D01*
X150947318Y-136637408D01*
X150779442Y-136232120D01*
X150535724Y-135867370D01*
X150225530Y-135557176D01*
X149860780Y-135313458D01*
X149455492Y-135145582D01*
X149025240Y-135060000D01*
X148586560Y-135060000D01*
X148156308Y-135145582D01*
X147751020Y-135313458D01*
X147386270Y-135557176D01*
X147076076Y-135867370D01*
X146832358Y-136232120D01*
X146664482Y-136637408D01*
X146578900Y-137067660D01*
X140249844Y-137067660D01*
X140354611Y-136814732D01*
X140422900Y-136471419D01*
X140422900Y-136121381D01*
X140354611Y-135778068D01*
X140220657Y-135454675D01*
X140026186Y-135163629D01*
X139888957Y-135026400D01*
X140026186Y-134889171D01*
X140220657Y-134598125D01*
X140354611Y-134274732D01*
X140422900Y-133931419D01*
X140422900Y-133581381D01*
X140354611Y-133238068D01*
X140220657Y-132914675D01*
X140026186Y-132623629D01*
X139888957Y-132486400D01*
X140026186Y-132349171D01*
X140220657Y-132058125D01*
X140354611Y-131734732D01*
X140422900Y-131391419D01*
X140422900Y-131041381D01*
X140354611Y-130698068D01*
X140220657Y-130374675D01*
X140026186Y-130083629D01*
X139778671Y-129836114D01*
X139656880Y-129754736D01*
X139743488Y-129676669D01*
X139917541Y-129443320D01*
X140042725Y-129180499D01*
X140087376Y-129033290D01*
X139966055Y-128803400D01*
X138772900Y-128803400D01*
X138772900Y-128823400D01*
X138518900Y-128823400D01*
X138518900Y-128803400D01*
X137325745Y-128803400D01*
X137204424Y-129033290D01*
X137249075Y-129180499D01*
X137374259Y-129443320D01*
X137548312Y-129676669D01*
X137634920Y-129754736D01*
X137513129Y-129836114D01*
X137265614Y-130083629D01*
X137071143Y-130374675D01*
X136937189Y-130698068D01*
X136868900Y-131041381D01*
X136868900Y-131391419D01*
X136937189Y-131734732D01*
X137071143Y-132058125D01*
X137265614Y-132349171D01*
X137402843Y-132486400D01*
X137265614Y-132623629D01*
X137071143Y-132914675D01*
X136937189Y-133238068D01*
X136868900Y-133581381D01*
X136868900Y-133931419D01*
X136937189Y-134274732D01*
X137071143Y-134598125D01*
X137265614Y-134889171D01*
X137402843Y-135026400D01*
X137265614Y-135163629D01*
X137071143Y-135454675D01*
X136937189Y-135778068D01*
X136868900Y-136121381D01*
X136868900Y-136471419D01*
X136937189Y-136814732D01*
X137071143Y-137138125D01*
X137265614Y-137429171D01*
X137402843Y-137566400D01*
X137265614Y-137703629D01*
X137071143Y-137994675D01*
X136937189Y-138318068D01*
X136868900Y-138661381D01*
X136868900Y-139011419D01*
X136937189Y-139354732D01*
X137071143Y-139678125D01*
X137265614Y-139969171D01*
X137402843Y-140106400D01*
X137265614Y-140243629D01*
X137071143Y-140534675D01*
X136937189Y-140858068D01*
X136868900Y-141201381D01*
X136868900Y-141551419D01*
X136937189Y-141894732D01*
X137043753Y-142152000D01*
X111906363Y-142152000D01*
X112115817Y-142044205D01*
X112254678Y-141951421D01*
X112794816Y-141308121D01*
X109207300Y-137720605D01*
X105619784Y-141308121D01*
X106159922Y-141951421D01*
X106521515Y-142152000D01*
X97927824Y-142152000D01*
X98124381Y-141877686D01*
X95745300Y-139498605D01*
X95731158Y-139512748D01*
X95551553Y-139333143D01*
X95565695Y-139319000D01*
X95924905Y-139319000D01*
X98303986Y-141698081D01*
X98773168Y-141361894D01*
X99113537Y-140731932D01*
X99324466Y-140047673D01*
X99397850Y-139335411D01*
X99330869Y-138622518D01*
X99126096Y-137936391D01*
X98872882Y-137457496D01*
X103847136Y-137457496D01*
X103933840Y-138504817D01*
X104223199Y-139515099D01*
X104704095Y-140449517D01*
X104796879Y-140588378D01*
X105440179Y-141128516D01*
X109027695Y-137541000D01*
X109386905Y-137541000D01*
X112974421Y-141128516D01*
X113617721Y-140588378D01*
X114127490Y-139669393D01*
X114448179Y-138668615D01*
X114567464Y-137624504D01*
X114480760Y-136577183D01*
X114191401Y-135566901D01*
X113710505Y-134632483D01*
X113617721Y-134493622D01*
X112974421Y-133953484D01*
X109386905Y-137541000D01*
X109027695Y-137541000D01*
X105440179Y-133953484D01*
X104796879Y-134493622D01*
X104287110Y-135412607D01*
X103966421Y-136413385D01*
X103847136Y-137457496D01*
X98872882Y-137457496D01*
X98791402Y-137303397D01*
X98773168Y-137276106D01*
X98303986Y-136939919D01*
X95924905Y-139319000D01*
X95565695Y-139319000D01*
X93186614Y-136939919D01*
X92912300Y-137136476D01*
X92912300Y-136760314D01*
X93366219Y-136760314D01*
X95745300Y-139139395D01*
X98124381Y-136760314D01*
X97788194Y-136291132D01*
X97158232Y-135950763D01*
X96473973Y-135739834D01*
X95761711Y-135666450D01*
X95048818Y-135733431D01*
X94362691Y-135938204D01*
X93729697Y-136272898D01*
X93702406Y-136291132D01*
X93366219Y-136760314D01*
X92912300Y-136760314D01*
X92912300Y-131034000D01*
X95545815Y-131034000D01*
X95545815Y-133634000D01*
X95563713Y-133815724D01*
X95616720Y-133990464D01*
X95702799Y-134151505D01*
X95818641Y-134292659D01*
X95959795Y-134408501D01*
X96120836Y-134494580D01*
X96295576Y-134547587D01*
X96477300Y-134565485D01*
X99077300Y-134565485D01*
X99259024Y-134547587D01*
X99433764Y-134494580D01*
X99594805Y-134408501D01*
X99735959Y-134292659D01*
X99851801Y-134151505D01*
X99937880Y-133990464D01*
X99990887Y-133815724D01*
X99995008Y-133773879D01*
X105619784Y-133773879D01*
X109207300Y-137361395D01*
X112794816Y-133773879D01*
X112254678Y-133130579D01*
X111335693Y-132620810D01*
X110334915Y-132300121D01*
X109290804Y-132180836D01*
X108243483Y-132267540D01*
X107233201Y-132556899D01*
X106298783Y-133037795D01*
X106159922Y-133130579D01*
X105619784Y-133773879D01*
X99995008Y-133773879D01*
X100008785Y-133634000D01*
X100008785Y-131034000D01*
X99990887Y-130852276D01*
X99937880Y-130677536D01*
X99851801Y-130516495D01*
X99735959Y-130375341D01*
X99594805Y-130259499D01*
X99433764Y-130173420D01*
X99259024Y-130120413D01*
X99077300Y-130102515D01*
X96477300Y-130102515D01*
X96295576Y-130120413D01*
X96120836Y-130173420D01*
X95959795Y-130259499D01*
X95818641Y-130375341D01*
X95702799Y-130516495D01*
X95616720Y-130677536D01*
X95563713Y-130852276D01*
X95545815Y-131034000D01*
X92912300Y-131034000D01*
X92912300Y-127034660D01*
X95550300Y-127034660D01*
X95550300Y-127473340D01*
X95635882Y-127903592D01*
X95803758Y-128308880D01*
X96047476Y-128673630D01*
X96357670Y-128983824D01*
X96722420Y-129227542D01*
X97127708Y-129395418D01*
X97557960Y-129481000D01*
X97996640Y-129481000D01*
X98426892Y-129395418D01*
X98832180Y-129227542D01*
X99196930Y-128983824D01*
X99507124Y-128673630D01*
X99750842Y-128308880D01*
X99918718Y-127903592D01*
X100004300Y-127473340D01*
X100004300Y-127034660D01*
X99918718Y-126604408D01*
X99750842Y-126199120D01*
X99575019Y-125935981D01*
X115126500Y-125935981D01*
X115126500Y-126286019D01*
X115194789Y-126629332D01*
X115328743Y-126952725D01*
X115523214Y-127243771D01*
X115660443Y-127381000D01*
X115523214Y-127518229D01*
X115328743Y-127809275D01*
X115194789Y-128132668D01*
X115126500Y-128475981D01*
X115126500Y-128826019D01*
X115194789Y-129169332D01*
X115328743Y-129492725D01*
X115523214Y-129783771D01*
X115660443Y-129921000D01*
X115523214Y-130058229D01*
X115328743Y-130349275D01*
X115194789Y-130672668D01*
X115126500Y-131015981D01*
X115126500Y-131366019D01*
X115194789Y-131709332D01*
X115328743Y-132032725D01*
X115523214Y-132323771D01*
X115660443Y-132461000D01*
X115523214Y-132598229D01*
X115328743Y-132889275D01*
X115194789Y-133212668D01*
X115126500Y-133555981D01*
X115126500Y-133906019D01*
X115194789Y-134249332D01*
X115328743Y-134572725D01*
X115523214Y-134863771D01*
X115660443Y-135001000D01*
X115523214Y-135138229D01*
X115328743Y-135429275D01*
X115194789Y-135752668D01*
X115126500Y-136095981D01*
X115126500Y-136446019D01*
X115194789Y-136789332D01*
X115328743Y-137112725D01*
X115523214Y-137403771D01*
X115660443Y-137541000D01*
X115523214Y-137678229D01*
X115328743Y-137969275D01*
X115194789Y-138292668D01*
X115126500Y-138635981D01*
X115126500Y-138986019D01*
X115194789Y-139329332D01*
X115328743Y-139652725D01*
X115523214Y-139943771D01*
X115770729Y-140191286D01*
X116061775Y-140385757D01*
X116385168Y-140519711D01*
X116728481Y-140588000D01*
X117078519Y-140588000D01*
X117421832Y-140519711D01*
X117745225Y-140385757D01*
X118036271Y-140191286D01*
X118283786Y-139943771D01*
X118478257Y-139652725D01*
X118612211Y-139329332D01*
X118680500Y-138986019D01*
X118680500Y-138635981D01*
X118612211Y-138292668D01*
X118478257Y-137969275D01*
X118283786Y-137678229D01*
X118146557Y-137541000D01*
X118283786Y-137403771D01*
X118478257Y-137112725D01*
X118612211Y-136789332D01*
X118680500Y-136446019D01*
X118680500Y-136095981D01*
X118612211Y-135752668D01*
X118478257Y-135429275D01*
X118283786Y-135138229D01*
X118146557Y-135001000D01*
X118283786Y-134863771D01*
X118478257Y-134572725D01*
X118612211Y-134249332D01*
X118680500Y-133906019D01*
X118680500Y-133555981D01*
X118612211Y-133212668D01*
X118478257Y-132889275D01*
X118283786Y-132598229D01*
X118146557Y-132461000D01*
X118283786Y-132323771D01*
X118478257Y-132032725D01*
X118612211Y-131709332D01*
X118680500Y-131366019D01*
X118680500Y-131015981D01*
X118612211Y-130672668D01*
X118478257Y-130349275D01*
X118283786Y-130058229D01*
X118146557Y-129921000D01*
X118283786Y-129783771D01*
X118478257Y-129492725D01*
X118612211Y-129169332D01*
X118680500Y-128826019D01*
X118680500Y-128475981D01*
X118649377Y-128319510D01*
X137204424Y-128319510D01*
X137325745Y-128549400D01*
X138518900Y-128549400D01*
X138518900Y-127355586D01*
X138772900Y-127355586D01*
X138772900Y-128549400D01*
X139966055Y-128549400D01*
X140087376Y-128319510D01*
X140042725Y-128172301D01*
X139917541Y-127909480D01*
X139743488Y-127676131D01*
X139527255Y-127481222D01*
X139277152Y-127332243D01*
X139002791Y-127234919D01*
X138772900Y-127355586D01*
X138518900Y-127355586D01*
X138289009Y-127234919D01*
X138014648Y-127332243D01*
X137764545Y-127481222D01*
X137548312Y-127676131D01*
X137374259Y-127909480D01*
X137249075Y-128172301D01*
X137204424Y-128319510D01*
X118649377Y-128319510D01*
X118612211Y-128132668D01*
X118478257Y-127809275D01*
X118283786Y-127518229D01*
X118146557Y-127381000D01*
X118283786Y-127243771D01*
X118478257Y-126952725D01*
X118612211Y-126629332D01*
X118680500Y-126286019D01*
X118680500Y-125935981D01*
X118612211Y-125592668D01*
X118478257Y-125269275D01*
X118283786Y-124978229D01*
X118269859Y-124964302D01*
X130829200Y-124964302D01*
X130829200Y-125225698D01*
X130880196Y-125482072D01*
X130930286Y-125603000D01*
X130880196Y-125723928D01*
X130829200Y-125980302D01*
X130829200Y-126241698D01*
X130880196Y-126498072D01*
X130980228Y-126739570D01*
X131125452Y-126956913D01*
X131310287Y-127141748D01*
X131527630Y-127286972D01*
X131769128Y-127387004D01*
X132025502Y-127438000D01*
X132286898Y-127438000D01*
X132543272Y-127387004D01*
X132784770Y-127286972D01*
X133002113Y-127141748D01*
X133186948Y-126956913D01*
X133332172Y-126739570D01*
X133432204Y-126498072D01*
X133483200Y-126241698D01*
X133483200Y-125980302D01*
X133432204Y-125723928D01*
X133382114Y-125603000D01*
X133432204Y-125482072D01*
X133483200Y-125225698D01*
X133483200Y-124964302D01*
X133432204Y-124707928D01*
X133332172Y-124466430D01*
X133186948Y-124249087D01*
X133002113Y-124064252D01*
X132784770Y-123919028D01*
X132543272Y-123818996D01*
X132286898Y-123768000D01*
X132025502Y-123768000D01*
X131769128Y-123818996D01*
X131527630Y-123919028D01*
X131310287Y-124064252D01*
X131125452Y-124249087D01*
X130980228Y-124466430D01*
X130880196Y-124707928D01*
X130829200Y-124964302D01*
X118269859Y-124964302D01*
X118036271Y-124730714D01*
X117745225Y-124536243D01*
X117421832Y-124402289D01*
X117078519Y-124334000D01*
X116728481Y-124334000D01*
X116385168Y-124402289D01*
X116061775Y-124536243D01*
X115770729Y-124730714D01*
X115523214Y-124978229D01*
X115328743Y-125269275D01*
X115194789Y-125592668D01*
X115126500Y-125935981D01*
X99575019Y-125935981D01*
X99507124Y-125834370D01*
X99196930Y-125524176D01*
X98832180Y-125280458D01*
X98426892Y-125112582D01*
X97996640Y-125027000D01*
X97557960Y-125027000D01*
X97127708Y-125112582D01*
X96722420Y-125280458D01*
X96357670Y-125524176D01*
X96047476Y-125834370D01*
X95803758Y-126199120D01*
X95635882Y-126604408D01*
X95550300Y-127034660D01*
X92912300Y-127034660D01*
X92912300Y-121954660D01*
X95550300Y-121954660D01*
X95550300Y-122393340D01*
X95635882Y-122823592D01*
X95803758Y-123228880D01*
X96047476Y-123593630D01*
X96357670Y-123903824D01*
X96722420Y-124147542D01*
X97127708Y-124315418D01*
X97557960Y-124401000D01*
X97996640Y-124401000D01*
X98426892Y-124315418D01*
X98832180Y-124147542D01*
X99196930Y-123903824D01*
X99507124Y-123593630D01*
X99750842Y-123228880D01*
X99918718Y-122823592D01*
X100004300Y-122393340D01*
X100004300Y-121954660D01*
X99918718Y-121524408D01*
X99750842Y-121119120D01*
X99507124Y-120754370D01*
X99196930Y-120444176D01*
X98832180Y-120200458D01*
X98426892Y-120032582D01*
X97996640Y-119947000D01*
X97557960Y-119947000D01*
X97127708Y-120032582D01*
X96722420Y-120200458D01*
X96357670Y-120444176D01*
X96047476Y-120754370D01*
X95803758Y-121119120D01*
X95635882Y-121524408D01*
X95550300Y-121954660D01*
X92912300Y-121954660D01*
X92912300Y-119529733D01*
X133744300Y-119529733D01*
X133744300Y-120500267D01*
X133933642Y-121452153D01*
X134305049Y-122348810D01*
X134844249Y-123155780D01*
X135530520Y-123842051D01*
X136337490Y-124381251D01*
X137234147Y-124752658D01*
X138186033Y-124942000D01*
X139156567Y-124942000D01*
X140108453Y-124752658D01*
X141005110Y-124381251D01*
X141812080Y-123842051D01*
X142498351Y-123155780D01*
X142817392Y-122678300D01*
X187128300Y-122678300D01*
X187128300Y-122939696D01*
X187179296Y-123196070D01*
X187279328Y-123437568D01*
X187424552Y-123654911D01*
X187609387Y-123839746D01*
X187826730Y-123984970D01*
X188068228Y-124085002D01*
X188324602Y-124135998D01*
X188585998Y-124135998D01*
X188842372Y-124085002D01*
X189083870Y-123984970D01*
X189301213Y-123839746D01*
X189486048Y-123654911D01*
X189631272Y-123437568D01*
X189731304Y-123196070D01*
X189782300Y-122939696D01*
X189782300Y-122678300D01*
X189731304Y-122421926D01*
X189631272Y-122180428D01*
X189486048Y-121963085D01*
X189301213Y-121778250D01*
X189083870Y-121633026D01*
X188842372Y-121532994D01*
X188585998Y-121481998D01*
X188324602Y-121481998D01*
X188068228Y-121532994D01*
X187826730Y-121633026D01*
X187609387Y-121778250D01*
X187424552Y-121963085D01*
X187279328Y-122180428D01*
X187179296Y-122421926D01*
X187128300Y-122678300D01*
X142817392Y-122678300D01*
X143037551Y-122348810D01*
X143408958Y-121452153D01*
X143598300Y-120500267D01*
X143598300Y-119529733D01*
X143408958Y-118577847D01*
X143037551Y-117681190D01*
X142982161Y-117598292D01*
X187128300Y-117598292D01*
X187128300Y-117859688D01*
X187179296Y-118116062D01*
X187279328Y-118357560D01*
X187424552Y-118574903D01*
X187609387Y-118759738D01*
X187826730Y-118904962D01*
X188068228Y-119004994D01*
X188324602Y-119055990D01*
X188585998Y-119055990D01*
X188842372Y-119004994D01*
X189083870Y-118904962D01*
X189301213Y-118759738D01*
X189486048Y-118574903D01*
X189631272Y-118357560D01*
X189731304Y-118116062D01*
X189782300Y-117859688D01*
X189782300Y-117598292D01*
X189731304Y-117341918D01*
X189631272Y-117100420D01*
X189486048Y-116883077D01*
X189301213Y-116698242D01*
X189083870Y-116553018D01*
X188842372Y-116452986D01*
X188585998Y-116401990D01*
X188324602Y-116401990D01*
X188068228Y-116452986D01*
X187826730Y-116553018D01*
X187609387Y-116698242D01*
X187424552Y-116883077D01*
X187279328Y-117100420D01*
X187179296Y-117341918D01*
X187128300Y-117598292D01*
X142982161Y-117598292D01*
X142498351Y-116874220D01*
X141812080Y-116187949D01*
X141005110Y-115648749D01*
X140849441Y-115584269D01*
X140863272Y-115563570D01*
X140963304Y-115322072D01*
X141014300Y-115065698D01*
X141014300Y-114804302D01*
X140963304Y-114547928D01*
X140863272Y-114306430D01*
X140718048Y-114089087D01*
X140533213Y-113904252D01*
X140315870Y-113759028D01*
X140079940Y-113661302D01*
X159455000Y-113661302D01*
X159455000Y-113922698D01*
X159505996Y-114179072D01*
X159606028Y-114420570D01*
X159751252Y-114637913D01*
X159936087Y-114822748D01*
X160153430Y-114967972D01*
X160394928Y-115068004D01*
X160651302Y-115119000D01*
X160912698Y-115119000D01*
X161169072Y-115068004D01*
X161410570Y-114967972D01*
X161627913Y-114822748D01*
X161812748Y-114637913D01*
X161957972Y-114420570D01*
X162058004Y-114179072D01*
X162109000Y-113922698D01*
X162109000Y-113661302D01*
X165157296Y-113661302D01*
X165157296Y-113922698D01*
X165208292Y-114179072D01*
X165308324Y-114420570D01*
X165453548Y-114637913D01*
X165638383Y-114822748D01*
X165855726Y-114967972D01*
X166097224Y-115068004D01*
X166353598Y-115119000D01*
X166614994Y-115119000D01*
X166871368Y-115068004D01*
X167112866Y-114967972D01*
X167330209Y-114822748D01*
X167515044Y-114637913D01*
X167660268Y-114420570D01*
X167760300Y-114179072D01*
X167811296Y-113922698D01*
X167811296Y-113661302D01*
X168345000Y-113661302D01*
X168345000Y-113922698D01*
X168395996Y-114179072D01*
X168496028Y-114420570D01*
X168641252Y-114637913D01*
X168826087Y-114822748D01*
X169043430Y-114967972D01*
X169284928Y-115068004D01*
X169541302Y-115119000D01*
X169802698Y-115119000D01*
X170059072Y-115068004D01*
X170300570Y-114967972D01*
X170517913Y-114822748D01*
X170702748Y-114637913D01*
X170847972Y-114420570D01*
X170948004Y-114179072D01*
X170999000Y-113922698D01*
X170999000Y-113661302D01*
X173666300Y-113661302D01*
X173666300Y-113922698D01*
X173717296Y-114179072D01*
X173817328Y-114420570D01*
X173962552Y-114637913D01*
X174147387Y-114822748D01*
X174364730Y-114967972D01*
X174606228Y-115068004D01*
X174862602Y-115119000D01*
X175123998Y-115119000D01*
X175380372Y-115068004D01*
X175621870Y-114967972D01*
X175839213Y-114822748D01*
X176024048Y-114637913D01*
X176169272Y-114420570D01*
X176269304Y-114179072D01*
X176320300Y-113922698D01*
X176320300Y-113661302D01*
X179381300Y-113661302D01*
X179381300Y-113922698D01*
X179432296Y-114179072D01*
X179532328Y-114420570D01*
X179677552Y-114637913D01*
X179862387Y-114822748D01*
X180079730Y-114967972D01*
X180321228Y-115068004D01*
X180577602Y-115119000D01*
X180838998Y-115119000D01*
X181095372Y-115068004D01*
X181336870Y-114967972D01*
X181554213Y-114822748D01*
X181739048Y-114637913D01*
X181884272Y-114420570D01*
X181984304Y-114179072D01*
X182035300Y-113922698D01*
X182035300Y-113661302D01*
X181984304Y-113404928D01*
X181884272Y-113163430D01*
X181739048Y-112946087D01*
X181554213Y-112761252D01*
X181336870Y-112616028D01*
X181095372Y-112515996D01*
X180838998Y-112465000D01*
X180577602Y-112465000D01*
X180321228Y-112515996D01*
X180079730Y-112616028D01*
X179862387Y-112761252D01*
X179677552Y-112946087D01*
X179532328Y-113163430D01*
X179432296Y-113404928D01*
X179381300Y-113661302D01*
X176320300Y-113661302D01*
X176269304Y-113404928D01*
X176169272Y-113163430D01*
X176024048Y-112946087D01*
X175839213Y-112761252D01*
X175621870Y-112616028D01*
X175380372Y-112515996D01*
X175123998Y-112465000D01*
X174862602Y-112465000D01*
X174606228Y-112515996D01*
X174364730Y-112616028D01*
X174147387Y-112761252D01*
X173962552Y-112946087D01*
X173817328Y-113163430D01*
X173717296Y-113404928D01*
X173666300Y-113661302D01*
X170999000Y-113661302D01*
X170948004Y-113404928D01*
X170847972Y-113163430D01*
X170702748Y-112946087D01*
X170517913Y-112761252D01*
X170300570Y-112616028D01*
X170059072Y-112515996D01*
X169802698Y-112465000D01*
X169541302Y-112465000D01*
X169284928Y-112515996D01*
X169043430Y-112616028D01*
X168826087Y-112761252D01*
X168641252Y-112946087D01*
X168496028Y-113163430D01*
X168395996Y-113404928D01*
X168345000Y-113661302D01*
X167811296Y-113661302D01*
X167760300Y-113404928D01*
X167660268Y-113163430D01*
X167515044Y-112946087D01*
X167330209Y-112761252D01*
X167112866Y-112616028D01*
X166871368Y-112515996D01*
X166614994Y-112465000D01*
X166353598Y-112465000D01*
X166097224Y-112515996D01*
X165855726Y-112616028D01*
X165638383Y-112761252D01*
X165453548Y-112946087D01*
X165308324Y-113163430D01*
X165208292Y-113404928D01*
X165157296Y-113661302D01*
X162109000Y-113661302D01*
X162058004Y-113404928D01*
X161957972Y-113163430D01*
X161812748Y-112946087D01*
X161627913Y-112761252D01*
X161410570Y-112616028D01*
X161169072Y-112515996D01*
X160912698Y-112465000D01*
X160651302Y-112465000D01*
X160394928Y-112515996D01*
X160153430Y-112616028D01*
X159936087Y-112761252D01*
X159751252Y-112946087D01*
X159606028Y-113163430D01*
X159505996Y-113404928D01*
X159455000Y-113661302D01*
X140079940Y-113661302D01*
X140074372Y-113658996D01*
X139817998Y-113608000D01*
X139556602Y-113608000D01*
X139300228Y-113658996D01*
X139058730Y-113759028D01*
X139052300Y-113763324D01*
X139045870Y-113759028D01*
X138804372Y-113658996D01*
X138547998Y-113608000D01*
X138286602Y-113608000D01*
X138030228Y-113658996D01*
X137788730Y-113759028D01*
X137571387Y-113904252D01*
X137386552Y-114089087D01*
X137241328Y-114306430D01*
X137141296Y-114547928D01*
X137090300Y-114804302D01*
X137090300Y-115065698D01*
X137140144Y-115316279D01*
X136337490Y-115648749D01*
X135530520Y-116187949D01*
X134844249Y-116874220D01*
X134305049Y-117681190D01*
X133933642Y-118577847D01*
X133744300Y-119529733D01*
X92912300Y-119529733D01*
X92912300Y-116874660D01*
X95550300Y-116874660D01*
X95550300Y-117313340D01*
X95635882Y-117743592D01*
X95803758Y-118148880D01*
X96047476Y-118513630D01*
X96357670Y-118823824D01*
X96722420Y-119067542D01*
X97127708Y-119235418D01*
X97557960Y-119321000D01*
X97996640Y-119321000D01*
X98426892Y-119235418D01*
X98832180Y-119067542D01*
X99196930Y-118823824D01*
X99507124Y-118513630D01*
X99750842Y-118148880D01*
X99918718Y-117743592D01*
X100004300Y-117313340D01*
X100004300Y-116874660D01*
X99996671Y-116836302D01*
X126943000Y-116836302D01*
X126943000Y-117097698D01*
X126993996Y-117354072D01*
X127094028Y-117595570D01*
X127239252Y-117812913D01*
X127424087Y-117997748D01*
X127641430Y-118142972D01*
X127882928Y-118243004D01*
X128139302Y-118294000D01*
X128400698Y-118294000D01*
X128657072Y-118243004D01*
X128898570Y-118142972D01*
X129115913Y-117997748D01*
X129300748Y-117812913D01*
X129445972Y-117595570D01*
X129546004Y-117354072D01*
X129597000Y-117097698D01*
X129597000Y-116836302D01*
X129546004Y-116579928D01*
X129445972Y-116338430D01*
X129300748Y-116121087D01*
X129115913Y-115936252D01*
X128898570Y-115791028D01*
X128657072Y-115690996D01*
X128400698Y-115640000D01*
X128139302Y-115640000D01*
X127882928Y-115690996D01*
X127641430Y-115791028D01*
X127424087Y-115936252D01*
X127239252Y-116121087D01*
X127094028Y-116338430D01*
X126993996Y-116579928D01*
X126943000Y-116836302D01*
X99996671Y-116836302D01*
X99918718Y-116444408D01*
X99750842Y-116039120D01*
X99507124Y-115674370D01*
X99196930Y-115364176D01*
X98832180Y-115120458D01*
X98426892Y-114952582D01*
X97996640Y-114867000D01*
X97557960Y-114867000D01*
X97127708Y-114952582D01*
X96722420Y-115120458D01*
X96357670Y-115364176D01*
X96047476Y-115674370D01*
X95803758Y-116039120D01*
X95635882Y-116444408D01*
X95550300Y-116874660D01*
X92912300Y-116874660D01*
X92912300Y-111794660D01*
X95550300Y-111794660D01*
X95550300Y-112233340D01*
X95635882Y-112663592D01*
X95803758Y-113068880D01*
X96047476Y-113433630D01*
X96357670Y-113743824D01*
X96722420Y-113987542D01*
X97127708Y-114155418D01*
X97557960Y-114241000D01*
X97996640Y-114241000D01*
X98426892Y-114155418D01*
X98832180Y-113987542D01*
X99130363Y-113788302D01*
X126943000Y-113788302D01*
X126943000Y-114049698D01*
X126993996Y-114306072D01*
X127094028Y-114547570D01*
X127239252Y-114764913D01*
X127424087Y-114949748D01*
X127641430Y-115094972D01*
X127882928Y-115195004D01*
X128139302Y-115246000D01*
X128400698Y-115246000D01*
X128657072Y-115195004D01*
X128898570Y-115094972D01*
X129115913Y-114949748D01*
X129300748Y-114764913D01*
X129445972Y-114547570D01*
X129546004Y-114306072D01*
X129597000Y-114049698D01*
X129597000Y-113788302D01*
X129546004Y-113531928D01*
X129445972Y-113290430D01*
X129300748Y-113073087D01*
X129115913Y-112888252D01*
X128898570Y-112743028D01*
X128657072Y-112642996D01*
X128400698Y-112592000D01*
X128139302Y-112592000D01*
X127882928Y-112642996D01*
X127641430Y-112743028D01*
X127424087Y-112888252D01*
X127239252Y-113073087D01*
X127094028Y-113290430D01*
X126993996Y-113531928D01*
X126943000Y-113788302D01*
X99130363Y-113788302D01*
X99196930Y-113743824D01*
X99507124Y-113433630D01*
X99750842Y-113068880D01*
X99918718Y-112663592D01*
X100004300Y-112233340D01*
X100004300Y-111794660D01*
X99918718Y-111364408D01*
X99750842Y-110959120D01*
X99689492Y-110867302D01*
X159455000Y-110867302D01*
X159455000Y-111128698D01*
X159505996Y-111385072D01*
X159606028Y-111626570D01*
X159751252Y-111843913D01*
X159936087Y-112028748D01*
X160153430Y-112173972D01*
X160394928Y-112274004D01*
X160651302Y-112325000D01*
X160912698Y-112325000D01*
X161169072Y-112274004D01*
X161410570Y-112173972D01*
X161627913Y-112028748D01*
X161812748Y-111843913D01*
X161957972Y-111626570D01*
X162058004Y-111385072D01*
X162109000Y-111128698D01*
X162109000Y-110867302D01*
X162058004Y-110610928D01*
X161957972Y-110369430D01*
X161812748Y-110152087D01*
X161627913Y-109967252D01*
X161454382Y-109851302D01*
X168345000Y-109851302D01*
X168345000Y-110112698D01*
X168395996Y-110369072D01*
X168496028Y-110610570D01*
X168641252Y-110827913D01*
X168826087Y-111012748D01*
X169043430Y-111157972D01*
X169284928Y-111258004D01*
X169541302Y-111309000D01*
X169802698Y-111309000D01*
X170059072Y-111258004D01*
X170300570Y-111157972D01*
X170517913Y-111012748D01*
X170702748Y-110827913D01*
X170847972Y-110610570D01*
X170948004Y-110369072D01*
X170999000Y-110112698D01*
X170999000Y-109851302D01*
X170948004Y-109594928D01*
X170847972Y-109353430D01*
X170702748Y-109136087D01*
X170517913Y-108951252D01*
X170344382Y-108835302D01*
X173666302Y-108835302D01*
X173666302Y-109096698D01*
X173717298Y-109353072D01*
X173817330Y-109594570D01*
X173962554Y-109811913D01*
X174147389Y-109996748D01*
X174364732Y-110141972D01*
X174606230Y-110242004D01*
X174862604Y-110293000D01*
X175124000Y-110293000D01*
X175380374Y-110242004D01*
X175621872Y-110141972D01*
X175839215Y-109996748D01*
X176024050Y-109811913D01*
X176169274Y-109594570D01*
X176269306Y-109353072D01*
X176320302Y-109096698D01*
X176320302Y-108835302D01*
X176269306Y-108578928D01*
X176169274Y-108337430D01*
X176024050Y-108120087D01*
X175839215Y-107935252D01*
X175621872Y-107790028D01*
X175380374Y-107689996D01*
X175124000Y-107639000D01*
X174862604Y-107639000D01*
X174606230Y-107689996D01*
X174364732Y-107790028D01*
X174147389Y-107935252D01*
X173962554Y-108120087D01*
X173817330Y-108337430D01*
X173717298Y-108578928D01*
X173666302Y-108835302D01*
X170344382Y-108835302D01*
X170300570Y-108806028D01*
X170059072Y-108705996D01*
X169802698Y-108655000D01*
X169541302Y-108655000D01*
X169284928Y-108705996D01*
X169043430Y-108806028D01*
X168826087Y-108951252D01*
X168641252Y-109136087D01*
X168496028Y-109353430D01*
X168395996Y-109594928D01*
X168345000Y-109851302D01*
X161454382Y-109851302D01*
X161410570Y-109822028D01*
X161169072Y-109721996D01*
X160912698Y-109671000D01*
X160651302Y-109671000D01*
X160394928Y-109721996D01*
X160153430Y-109822028D01*
X159936087Y-109967252D01*
X159751252Y-110152087D01*
X159606028Y-110369430D01*
X159505996Y-110610928D01*
X159455000Y-110867302D01*
X99689492Y-110867302D01*
X99507124Y-110594370D01*
X99196930Y-110284176D01*
X98832180Y-110040458D01*
X98426892Y-109872582D01*
X97996640Y-109787000D01*
X97557960Y-109787000D01*
X97127708Y-109872582D01*
X96722420Y-110040458D01*
X96357670Y-110284176D01*
X96047476Y-110594370D01*
X95803758Y-110959120D01*
X95635882Y-111364408D01*
X95550300Y-111794660D01*
X92912300Y-111794660D01*
X92912300Y-106714660D01*
X95550300Y-106714660D01*
X95550300Y-107153340D01*
X95635882Y-107583592D01*
X95803758Y-107988880D01*
X96047476Y-108353630D01*
X96357670Y-108663824D01*
X96722420Y-108907542D01*
X97127708Y-109075418D01*
X97557960Y-109161000D01*
X97996640Y-109161000D01*
X98426892Y-109075418D01*
X98832180Y-108907542D01*
X99196930Y-108663824D01*
X99507124Y-108353630D01*
X99750842Y-107988880D01*
X99918718Y-107583592D01*
X100004300Y-107153340D01*
X100004300Y-106714660D01*
X99918718Y-106284408D01*
X99750842Y-105879120D01*
X99507124Y-105514370D01*
X99196930Y-105204176D01*
X98832180Y-104960458D01*
X98426892Y-104792582D01*
X97996640Y-104707000D01*
X97557960Y-104707000D01*
X97127708Y-104792582D01*
X96722420Y-104960458D01*
X96357670Y-105204176D01*
X96047476Y-105514370D01*
X95803758Y-105879120D01*
X95635882Y-106284408D01*
X95550300Y-106714660D01*
X92912300Y-106714660D01*
X92912300Y-104517302D01*
X130498994Y-104517302D01*
X130498994Y-104778698D01*
X130549990Y-105035072D01*
X130650022Y-105276570D01*
X130795246Y-105493913D01*
X130980081Y-105678748D01*
X131197424Y-105823972D01*
X131424430Y-105918001D01*
X131197430Y-106012028D01*
X130980087Y-106157252D01*
X130795252Y-106342087D01*
X130650028Y-106559430D01*
X130549996Y-106800928D01*
X130499000Y-107057302D01*
X130499000Y-107318698D01*
X130549996Y-107575072D01*
X130650028Y-107816570D01*
X130795252Y-108033913D01*
X130980087Y-108218748D01*
X131197430Y-108363972D01*
X131438928Y-108464004D01*
X131695302Y-108515000D01*
X131956698Y-108515000D01*
X132213072Y-108464004D01*
X132454570Y-108363972D01*
X132671913Y-108218748D01*
X132817365Y-108073296D01*
X157677000Y-108073296D01*
X157677000Y-108334692D01*
X157727996Y-108591066D01*
X157828028Y-108832564D01*
X157973252Y-109049907D01*
X158158087Y-109234742D01*
X158375430Y-109379966D01*
X158616928Y-109479998D01*
X158873302Y-109530994D01*
X159134698Y-109530994D01*
X159391072Y-109479998D01*
X159632570Y-109379966D01*
X159849913Y-109234742D01*
X160034748Y-109049907D01*
X160179972Y-108832564D01*
X160258906Y-108642000D01*
X160404690Y-108642000D01*
X160661064Y-108591004D01*
X160902562Y-108490972D01*
X161119905Y-108345748D01*
X161304740Y-108160913D01*
X161449964Y-107943570D01*
X161549996Y-107702072D01*
X161600992Y-107445698D01*
X161600992Y-107184302D01*
X161549996Y-106927928D01*
X161449964Y-106686430D01*
X161304740Y-106469087D01*
X161119905Y-106284252D01*
X160902562Y-106139028D01*
X160661064Y-106038996D01*
X160404690Y-105988000D01*
X160143294Y-105988000D01*
X159886920Y-106038996D01*
X159645422Y-106139028D01*
X159428079Y-106284252D01*
X159243244Y-106469087D01*
X159098020Y-106686430D01*
X159019086Y-106876994D01*
X158873302Y-106876994D01*
X158616928Y-106927990D01*
X158375430Y-107028022D01*
X158158087Y-107173246D01*
X157973252Y-107358081D01*
X157828028Y-107575424D01*
X157727996Y-107816922D01*
X157677000Y-108073296D01*
X132817365Y-108073296D01*
X132856748Y-108033913D01*
X133001972Y-107816570D01*
X133102004Y-107575072D01*
X133153000Y-107318698D01*
X133153000Y-107057302D01*
X133102004Y-106800928D01*
X133001972Y-106559430D01*
X132856748Y-106342087D01*
X132671913Y-106157252D01*
X132454570Y-106012028D01*
X132227564Y-105917999D01*
X132454564Y-105823972D01*
X132671907Y-105678748D01*
X132856742Y-105493913D01*
X133001966Y-105276570D01*
X133101998Y-105035072D01*
X133152994Y-104778698D01*
X133152994Y-104517302D01*
X133101998Y-104260928D01*
X133001966Y-104019430D01*
X132856742Y-103802087D01*
X132671907Y-103617252D01*
X132454564Y-103472028D01*
X132213066Y-103371996D01*
X131956692Y-103321000D01*
X131695296Y-103321000D01*
X131438922Y-103371996D01*
X131197424Y-103472028D01*
X130980081Y-103617252D01*
X130795246Y-103802087D01*
X130650022Y-104019430D01*
X130549990Y-104260928D01*
X130498994Y-104517302D01*
X92912300Y-104517302D01*
X92912300Y-101634660D01*
X95550300Y-101634660D01*
X95550300Y-102073340D01*
X95635882Y-102503592D01*
X95803758Y-102908880D01*
X96047476Y-103273630D01*
X96357670Y-103583824D01*
X96722420Y-103827542D01*
X97127708Y-103995418D01*
X97557960Y-104081000D01*
X97996640Y-104081000D01*
X98426892Y-103995418D01*
X98832180Y-103827542D01*
X99196930Y-103583824D01*
X99507124Y-103273630D01*
X99750842Y-102908880D01*
X99918718Y-102503592D01*
X100004300Y-102073340D01*
X100004300Y-102033091D01*
X193122519Y-102033091D01*
X193219843Y-102307452D01*
X193368822Y-102557555D01*
X193563731Y-102773788D01*
X193797080Y-102947841D01*
X194059901Y-103073025D01*
X194207110Y-103117676D01*
X194437000Y-102996355D01*
X194437000Y-101803200D01*
X193243186Y-101803200D01*
X193122519Y-102033091D01*
X100004300Y-102033091D01*
X100004300Y-101634660D01*
X99941574Y-101319309D01*
X193122519Y-101319309D01*
X193243186Y-101549200D01*
X194437000Y-101549200D01*
X194437000Y-100356045D01*
X194691000Y-100356045D01*
X194691000Y-101549200D01*
X194711000Y-101549200D01*
X194711000Y-101803200D01*
X194691000Y-101803200D01*
X194691000Y-102996355D01*
X194920890Y-103117676D01*
X195068099Y-103073025D01*
X195330920Y-102947841D01*
X195564269Y-102773788D01*
X195642336Y-102687180D01*
X195723714Y-102808971D01*
X195971229Y-103056486D01*
X196262275Y-103250957D01*
X196585668Y-103384911D01*
X196928981Y-103453200D01*
X197279019Y-103453200D01*
X197622332Y-103384911D01*
X197945725Y-103250957D01*
X198236771Y-103056486D01*
X198374000Y-102919257D01*
X198511229Y-103056486D01*
X198802275Y-103250957D01*
X199125668Y-103384911D01*
X199468981Y-103453200D01*
X199819019Y-103453200D01*
X200162332Y-103384911D01*
X200485725Y-103250957D01*
X200776771Y-103056486D01*
X200914000Y-102919257D01*
X201051229Y-103056486D01*
X201342275Y-103250957D01*
X201665668Y-103384911D01*
X202008981Y-103453200D01*
X202359019Y-103453200D01*
X202702332Y-103384911D01*
X203025725Y-103250957D01*
X203316771Y-103056486D01*
X203454000Y-102919257D01*
X203591229Y-103056486D01*
X203882275Y-103250957D01*
X204205668Y-103384911D01*
X204548981Y-103453200D01*
X204899019Y-103453200D01*
X205242332Y-103384911D01*
X205565725Y-103250957D01*
X205856771Y-103056486D01*
X205994000Y-102919257D01*
X206131229Y-103056486D01*
X206422275Y-103250957D01*
X206745668Y-103384911D01*
X207088981Y-103453200D01*
X207439019Y-103453200D01*
X207782332Y-103384911D01*
X208105725Y-103250957D01*
X208396771Y-103056486D01*
X208644286Y-102808971D01*
X208725664Y-102687180D01*
X208803731Y-102773788D01*
X209037080Y-102947841D01*
X209299901Y-103073025D01*
X209447110Y-103117676D01*
X209677000Y-102996355D01*
X209677000Y-101803200D01*
X209657000Y-101803200D01*
X209657000Y-101549200D01*
X209677000Y-101549200D01*
X209677000Y-100356045D01*
X209447110Y-100234724D01*
X209299901Y-100279375D01*
X209037080Y-100404559D01*
X208803731Y-100578612D01*
X208725664Y-100665220D01*
X208644286Y-100543429D01*
X208396771Y-100295914D01*
X208105725Y-100101443D01*
X207782332Y-99967489D01*
X207439019Y-99899200D01*
X207088981Y-99899200D01*
X206745668Y-99967489D01*
X206422275Y-100101443D01*
X206131229Y-100295914D01*
X205994000Y-100433143D01*
X205856771Y-100295914D01*
X205565725Y-100101443D01*
X205242332Y-99967489D01*
X204899019Y-99899200D01*
X204548981Y-99899200D01*
X204205668Y-99967489D01*
X203882275Y-100101443D01*
X203591229Y-100295914D01*
X203454000Y-100433143D01*
X203316771Y-100295914D01*
X203025725Y-100101443D01*
X202702332Y-99967489D01*
X202359019Y-99899200D01*
X202008981Y-99899200D01*
X201665668Y-99967489D01*
X201342275Y-100101443D01*
X201051229Y-100295914D01*
X200914000Y-100433143D01*
X200776771Y-100295914D01*
X200485725Y-100101443D01*
X200162332Y-99967489D01*
X199819019Y-99899200D01*
X199468981Y-99899200D01*
X199125668Y-99967489D01*
X198802275Y-100101443D01*
X198511229Y-100295914D01*
X198374000Y-100433143D01*
X198236771Y-100295914D01*
X197945725Y-100101443D01*
X197622332Y-99967489D01*
X197279019Y-99899200D01*
X196928981Y-99899200D01*
X196585668Y-99967489D01*
X196262275Y-100101443D01*
X195971229Y-100295914D01*
X195723714Y-100543429D01*
X195642336Y-100665220D01*
X195564269Y-100578612D01*
X195330920Y-100404559D01*
X195068099Y-100279375D01*
X194920890Y-100234724D01*
X194691000Y-100356045D01*
X194437000Y-100356045D01*
X194207110Y-100234724D01*
X194059901Y-100279375D01*
X193797080Y-100404559D01*
X193563731Y-100578612D01*
X193368822Y-100794845D01*
X193219843Y-101044948D01*
X193122519Y-101319309D01*
X99941574Y-101319309D01*
X99918718Y-101204408D01*
X99750842Y-100799120D01*
X99507124Y-100434370D01*
X99196930Y-100124176D01*
X98832180Y-99880458D01*
X98426892Y-99712582D01*
X97996640Y-99627000D01*
X97557960Y-99627000D01*
X97127708Y-99712582D01*
X96722420Y-99880458D01*
X96357670Y-100124176D01*
X96047476Y-100434370D01*
X95803758Y-100799120D01*
X95635882Y-101204408D01*
X95550300Y-101634660D01*
X92912300Y-101634660D01*
X92912300Y-96554660D01*
X95550300Y-96554660D01*
X95550300Y-96993340D01*
X95635882Y-97423592D01*
X95803758Y-97828880D01*
X96047476Y-98193630D01*
X96357670Y-98503824D01*
X96722420Y-98747542D01*
X97127708Y-98915418D01*
X97557960Y-99001000D01*
X97996640Y-99001000D01*
X98426892Y-98915418D01*
X98832180Y-98747542D01*
X99196930Y-98503824D01*
X99507124Y-98193630D01*
X99750842Y-97828880D01*
X99918718Y-97423592D01*
X99922356Y-97405302D01*
X165804994Y-97405302D01*
X165804994Y-97666698D01*
X165855990Y-97923072D01*
X165956022Y-98164570D01*
X166101246Y-98381913D01*
X166286081Y-98566748D01*
X166503424Y-98711972D01*
X166579054Y-98743299D01*
X166617996Y-98939072D01*
X166718028Y-99180570D01*
X166863252Y-99397913D01*
X167048087Y-99582748D01*
X167265430Y-99727972D01*
X167506928Y-99828004D01*
X167763302Y-99879000D01*
X168024698Y-99879000D01*
X168281072Y-99828004D01*
X168522570Y-99727972D01*
X168739913Y-99582748D01*
X168748826Y-99573835D01*
X168789430Y-99600966D01*
X169030928Y-99700998D01*
X169287302Y-99751994D01*
X169548698Y-99751994D01*
X169805072Y-99700998D01*
X170046570Y-99600966D01*
X170263913Y-99455742D01*
X170448748Y-99270907D01*
X170593972Y-99053564D01*
X170687999Y-98826564D01*
X170782028Y-99053570D01*
X170927252Y-99270913D01*
X171112087Y-99455748D01*
X171329430Y-99600972D01*
X171570928Y-99701004D01*
X171827302Y-99752000D01*
X172088698Y-99752000D01*
X172345072Y-99701004D01*
X172586570Y-99600972D01*
X172803913Y-99455748D01*
X172988748Y-99270913D01*
X173133972Y-99053570D01*
X173222625Y-98839543D01*
X173361072Y-98812004D01*
X173602570Y-98711972D01*
X173819913Y-98566748D01*
X174004748Y-98381913D01*
X174149972Y-98164570D01*
X174250004Y-97923072D01*
X174271086Y-97817086D01*
X174377072Y-97796004D01*
X174618570Y-97695972D01*
X174835913Y-97550748D01*
X175020748Y-97365913D01*
X175165972Y-97148570D01*
X175266004Y-96907072D01*
X175317000Y-96650698D01*
X175317000Y-96389302D01*
X175266004Y-96132928D01*
X175165972Y-95891430D01*
X175020748Y-95674087D01*
X174835913Y-95489252D01*
X174618570Y-95344028D01*
X174377072Y-95243996D01*
X174120698Y-95193000D01*
X173859302Y-95193000D01*
X173602928Y-95243996D01*
X173361430Y-95344028D01*
X173144087Y-95489252D01*
X172959252Y-95674087D01*
X172814028Y-95891430D01*
X172713996Y-96132928D01*
X172692914Y-96238914D01*
X172586928Y-96259996D01*
X172345430Y-96360028D01*
X172128087Y-96505252D01*
X171943252Y-96690087D01*
X171798028Y-96907430D01*
X171709375Y-97121457D01*
X171570928Y-97148996D01*
X171329430Y-97249028D01*
X171112087Y-97394252D01*
X170927252Y-97579087D01*
X170782028Y-97796430D01*
X170688001Y-98023430D01*
X170593972Y-97796424D01*
X170448748Y-97579081D01*
X170263913Y-97394246D01*
X170046570Y-97249022D01*
X169805072Y-97148990D01*
X169548698Y-97097994D01*
X169287302Y-97097994D01*
X169030928Y-97148990D01*
X168789430Y-97249022D01*
X168572087Y-97394246D01*
X168563174Y-97403159D01*
X168522570Y-97376028D01*
X168446940Y-97344701D01*
X168407998Y-97148928D01*
X168307966Y-96907430D01*
X168162742Y-96690087D01*
X167977907Y-96505252D01*
X167760564Y-96360028D01*
X167519066Y-96259996D01*
X167262692Y-96209000D01*
X167001296Y-96209000D01*
X166744922Y-96259996D01*
X166503424Y-96360028D01*
X166286081Y-96505252D01*
X166101246Y-96690087D01*
X165956022Y-96907430D01*
X165855990Y-97148928D01*
X165804994Y-97405302D01*
X99922356Y-97405302D01*
X100004300Y-96993340D01*
X100004300Y-96554660D01*
X99918718Y-96124408D01*
X99750842Y-95719120D01*
X99507124Y-95354370D01*
X99196930Y-95044176D01*
X98832180Y-94800458D01*
X98426892Y-94632582D01*
X97996640Y-94547000D01*
X97557960Y-94547000D01*
X97127708Y-94632582D01*
X96722420Y-94800458D01*
X96357670Y-95044176D01*
X96047476Y-95354370D01*
X95803758Y-95719120D01*
X95635882Y-96124408D01*
X95550300Y-96554660D01*
X92912300Y-96554660D01*
X92912300Y-92579302D01*
X157677000Y-92579302D01*
X157677000Y-92840698D01*
X157727996Y-93097072D01*
X157828028Y-93338570D01*
X157973252Y-93555913D01*
X158158087Y-93740748D01*
X158375430Y-93885972D01*
X158616928Y-93986004D01*
X158873302Y-94037000D01*
X159134698Y-94037000D01*
X159391072Y-93986004D01*
X159632570Y-93885972D01*
X159639001Y-93881675D01*
X159645430Y-93885970D01*
X159886928Y-93986002D01*
X160143302Y-94036998D01*
X160404698Y-94036998D01*
X160661072Y-93986002D01*
X160902570Y-93885970D01*
X161119913Y-93740746D01*
X161304748Y-93555911D01*
X161449972Y-93338568D01*
X161550004Y-93097070D01*
X161601000Y-92840696D01*
X161601000Y-92579300D01*
X161550004Y-92322926D01*
X161449972Y-92081428D01*
X161304748Y-91864085D01*
X161119913Y-91679250D01*
X160902570Y-91534026D01*
X160661072Y-91433994D01*
X160404698Y-91382998D01*
X160143302Y-91382998D01*
X159886928Y-91433994D01*
X159645430Y-91534026D01*
X159638999Y-91538323D01*
X159632570Y-91534028D01*
X159391072Y-91433996D01*
X159134698Y-91383000D01*
X158873302Y-91383000D01*
X158616928Y-91433996D01*
X158375430Y-91534028D01*
X158158087Y-91679252D01*
X157973252Y-91864087D01*
X157828028Y-92081430D01*
X157727996Y-92322928D01*
X157677000Y-92579302D01*
X92912300Y-92579302D01*
X92912300Y-88362000D01*
X95545815Y-88362000D01*
X95545815Y-90962000D01*
X95563713Y-91143724D01*
X95616720Y-91318464D01*
X95702799Y-91479505D01*
X95818641Y-91620659D01*
X95959795Y-91736501D01*
X96120836Y-91822580D01*
X96295576Y-91875587D01*
X96477300Y-91893485D01*
X99077300Y-91893485D01*
X99259024Y-91875587D01*
X99433764Y-91822580D01*
X99594805Y-91736501D01*
X99735959Y-91620659D01*
X99851801Y-91479505D01*
X99937880Y-91318464D01*
X99990887Y-91143724D01*
X100008785Y-90962000D01*
X100008785Y-89277302D01*
X173425000Y-89277302D01*
X173425000Y-89538698D01*
X173475996Y-89795072D01*
X173576028Y-90036570D01*
X173721252Y-90253913D01*
X173906087Y-90438748D01*
X174123430Y-90583972D01*
X174364928Y-90684004D01*
X174621302Y-90735000D01*
X174882698Y-90735000D01*
X175139072Y-90684004D01*
X175380570Y-90583972D01*
X175387000Y-90579676D01*
X175393430Y-90583972D01*
X175634928Y-90684004D01*
X175891302Y-90735000D01*
X176152698Y-90735000D01*
X176409072Y-90684004D01*
X176650570Y-90583972D01*
X176867913Y-90438748D01*
X177052748Y-90253913D01*
X177197972Y-90036570D01*
X177298004Y-89795072D01*
X177349000Y-89538698D01*
X177349000Y-89277302D01*
X177298004Y-89020928D01*
X177197972Y-88779430D01*
X177052748Y-88562087D01*
X177005967Y-88515306D01*
X223081998Y-88515306D01*
X223081998Y-88776702D01*
X223132994Y-89033076D01*
X223233026Y-89274574D01*
X223237322Y-89281003D01*
X223233028Y-89287430D01*
X223132996Y-89528928D01*
X223082000Y-89785302D01*
X223082000Y-90046698D01*
X223132996Y-90303072D01*
X223233028Y-90544570D01*
X223378252Y-90761913D01*
X223563087Y-90946748D01*
X223780430Y-91091972D01*
X224021928Y-91192004D01*
X224278302Y-91243000D01*
X224539698Y-91243000D01*
X224796072Y-91192004D01*
X225037570Y-91091972D01*
X225254913Y-90946748D01*
X225439748Y-90761913D01*
X225584972Y-90544570D01*
X225685004Y-90303072D01*
X225736000Y-90046698D01*
X225736000Y-89785302D01*
X225685004Y-89528928D01*
X225584972Y-89287430D01*
X225580676Y-89281001D01*
X225584970Y-89274574D01*
X225685002Y-89033076D01*
X225735998Y-88776702D01*
X225735998Y-88515306D01*
X225685002Y-88258932D01*
X225584970Y-88017434D01*
X225439746Y-87800091D01*
X225254911Y-87615256D01*
X225037568Y-87470032D01*
X224796070Y-87370000D01*
X224539696Y-87319004D01*
X224278300Y-87319004D01*
X224021926Y-87370000D01*
X223780428Y-87470032D01*
X223563085Y-87615256D01*
X223378250Y-87800091D01*
X223233026Y-88017434D01*
X223132994Y-88258932D01*
X223081998Y-88515306D01*
X177005967Y-88515306D01*
X176867913Y-88377252D01*
X176650570Y-88232028D01*
X176409072Y-88131996D01*
X176152698Y-88081000D01*
X175891302Y-88081000D01*
X175634928Y-88131996D01*
X175393430Y-88232028D01*
X175387000Y-88236324D01*
X175380570Y-88232028D01*
X175139072Y-88131996D01*
X174882698Y-88081000D01*
X174621302Y-88081000D01*
X174364928Y-88131996D01*
X174123430Y-88232028D01*
X173906087Y-88377252D01*
X173721252Y-88562087D01*
X173576028Y-88779430D01*
X173475996Y-89020928D01*
X173425000Y-89277302D01*
X100008785Y-89277302D01*
X100008785Y-88362000D01*
X99990887Y-88180276D01*
X99937880Y-88005536D01*
X99851801Y-87844495D01*
X99735959Y-87703341D01*
X99594805Y-87587499D01*
X99433764Y-87501420D01*
X99259024Y-87448413D01*
X99077300Y-87430515D01*
X96477300Y-87430515D01*
X96295576Y-87448413D01*
X96120836Y-87501420D01*
X95959795Y-87587499D01*
X95818641Y-87703341D01*
X95702799Y-87844495D01*
X95616720Y-88005536D01*
X95563713Y-88180276D01*
X95545815Y-88362000D01*
X92912300Y-88362000D01*
X92912300Y-84362660D01*
X95550300Y-84362660D01*
X95550300Y-84801340D01*
X95635882Y-85231592D01*
X95803758Y-85636880D01*
X96047476Y-86001630D01*
X96357670Y-86311824D01*
X96722420Y-86555542D01*
X97127708Y-86723418D01*
X97557960Y-86809000D01*
X97996640Y-86809000D01*
X98426892Y-86723418D01*
X98832180Y-86555542D01*
X99196930Y-86311824D01*
X99507124Y-86001630D01*
X99750842Y-85636880D01*
X99918718Y-85231592D01*
X100004300Y-84801340D01*
X100004300Y-84362660D01*
X99918718Y-83932408D01*
X99750842Y-83527120D01*
X99507124Y-83162370D01*
X99196930Y-82852176D01*
X98832180Y-82608458D01*
X98426892Y-82440582D01*
X97996640Y-82355000D01*
X97557960Y-82355000D01*
X97127708Y-82440582D01*
X96722420Y-82608458D01*
X96357670Y-82852176D01*
X96047476Y-83162370D01*
X95803758Y-83527120D01*
X95635882Y-83932408D01*
X95550300Y-84362660D01*
X92912300Y-84362660D01*
X92912300Y-79282660D01*
X95550300Y-79282660D01*
X95550300Y-79721340D01*
X95635882Y-80151592D01*
X95803758Y-80556880D01*
X96047476Y-80921630D01*
X96357670Y-81231824D01*
X96722420Y-81475542D01*
X97127708Y-81643418D01*
X97557960Y-81729000D01*
X97996640Y-81729000D01*
X98426892Y-81643418D01*
X98832180Y-81475542D01*
X99196930Y-81231824D01*
X99507124Y-80921630D01*
X99750842Y-80556880D01*
X99918718Y-80151592D01*
X100004300Y-79721340D01*
X100004300Y-79282660D01*
X99918718Y-78852408D01*
X99750842Y-78447120D01*
X99507124Y-78082370D01*
X99196930Y-77772176D01*
X98832180Y-77528458D01*
X98426892Y-77360582D01*
X97996640Y-77275000D01*
X97557960Y-77275000D01*
X97127708Y-77360582D01*
X96722420Y-77528458D01*
X96357670Y-77772176D01*
X96047476Y-78082370D01*
X95803758Y-78447120D01*
X95635882Y-78852408D01*
X95550300Y-79282660D01*
X92912300Y-79282660D01*
X92912300Y-74202660D01*
X95550300Y-74202660D01*
X95550300Y-74641340D01*
X95635882Y-75071592D01*
X95803758Y-75476880D01*
X96047476Y-75841630D01*
X96357670Y-76151824D01*
X96722420Y-76395542D01*
X97127708Y-76563418D01*
X97557960Y-76649000D01*
X97996640Y-76649000D01*
X98426892Y-76563418D01*
X98832180Y-76395542D01*
X99196930Y-76151824D01*
X99507124Y-75841630D01*
X99750842Y-75476880D01*
X99918718Y-75071592D01*
X100004300Y-74641340D01*
X100004300Y-74202660D01*
X99918718Y-73772408D01*
X99750842Y-73367120D01*
X99507124Y-73002370D01*
X99196930Y-72692176D01*
X98832180Y-72448458D01*
X98426892Y-72280582D01*
X97996640Y-72195000D01*
X97557960Y-72195000D01*
X97127708Y-72280582D01*
X96722420Y-72448458D01*
X96357670Y-72692176D01*
X96047476Y-73002370D01*
X95803758Y-73367120D01*
X95635882Y-73772408D01*
X95550300Y-74202660D01*
X92912300Y-74202660D01*
X92912300Y-69122660D01*
X95550300Y-69122660D01*
X95550300Y-69561340D01*
X95635882Y-69991592D01*
X95803758Y-70396880D01*
X96047476Y-70761630D01*
X96357670Y-71071824D01*
X96722420Y-71315542D01*
X97127708Y-71483418D01*
X97557960Y-71569000D01*
X97996640Y-71569000D01*
X98426892Y-71483418D01*
X98832180Y-71315542D01*
X99196930Y-71071824D01*
X99507124Y-70761630D01*
X99750842Y-70396880D01*
X99918718Y-69991592D01*
X100004300Y-69561340D01*
X100004300Y-69122660D01*
X99918718Y-68692408D01*
X99870626Y-68576302D01*
X126689000Y-68576302D01*
X126689000Y-68837698D01*
X126739996Y-69094072D01*
X126840028Y-69335570D01*
X126985252Y-69552913D01*
X127170087Y-69737748D01*
X127387430Y-69882972D01*
X127628928Y-69983004D01*
X127885302Y-70034000D01*
X128146698Y-70034000D01*
X128403072Y-69983004D01*
X128644570Y-69882972D01*
X128861913Y-69737748D01*
X129046748Y-69552913D01*
X129191972Y-69335570D01*
X129292004Y-69094072D01*
X129343000Y-68837698D01*
X129343000Y-68576302D01*
X138118994Y-68576302D01*
X138118994Y-68837698D01*
X138169990Y-69094072D01*
X138270022Y-69335570D01*
X138415246Y-69552913D01*
X138600081Y-69737748D01*
X138817424Y-69882972D01*
X139058922Y-69983004D01*
X139315296Y-70034000D01*
X139576692Y-70034000D01*
X139833066Y-69983004D01*
X140074564Y-69882972D01*
X140291907Y-69737748D01*
X140476742Y-69552913D01*
X140621966Y-69335570D01*
X140721998Y-69094072D01*
X140772994Y-68837698D01*
X140772994Y-68624802D01*
X149627500Y-68624802D01*
X149627500Y-68886198D01*
X149678496Y-69142572D01*
X149778528Y-69384070D01*
X149923752Y-69601413D01*
X150108587Y-69786248D01*
X150325930Y-69931472D01*
X150567428Y-70031504D01*
X150823802Y-70082500D01*
X151085198Y-70082500D01*
X151341572Y-70031504D01*
X151583070Y-69931472D01*
X151800413Y-69786248D01*
X151985248Y-69601413D01*
X152130472Y-69384070D01*
X152230504Y-69142572D01*
X152281500Y-68886198D01*
X152281500Y-68624802D01*
X152271853Y-68576302D01*
X160979002Y-68576302D01*
X160979002Y-68837698D01*
X161029998Y-69094072D01*
X161130030Y-69335570D01*
X161275254Y-69552913D01*
X161460089Y-69737748D01*
X161677432Y-69882972D01*
X161918930Y-69983004D01*
X162175304Y-70034000D01*
X162436700Y-70034000D01*
X162693074Y-69983004D01*
X162934572Y-69882972D01*
X163151915Y-69737748D01*
X163336750Y-69552913D01*
X163481974Y-69335570D01*
X163582006Y-69094072D01*
X163633002Y-68837698D01*
X163633002Y-68576302D01*
X163582006Y-68319928D01*
X163481974Y-68078430D01*
X163336750Y-67861087D01*
X163151915Y-67676252D01*
X162934572Y-67531028D01*
X162693074Y-67430996D01*
X162436700Y-67380000D01*
X162175304Y-67380000D01*
X161918930Y-67430996D01*
X161677432Y-67531028D01*
X161460089Y-67676252D01*
X161275254Y-67861087D01*
X161130030Y-68078430D01*
X161029998Y-68319928D01*
X160979002Y-68576302D01*
X152271853Y-68576302D01*
X152230504Y-68368428D01*
X152130472Y-68126930D01*
X151985248Y-67909587D01*
X151800413Y-67724752D01*
X151583070Y-67579528D01*
X151341572Y-67479496D01*
X151085198Y-67428500D01*
X150823802Y-67428500D01*
X150567428Y-67479496D01*
X150325930Y-67579528D01*
X150108587Y-67724752D01*
X149923752Y-67909587D01*
X149778528Y-68126930D01*
X149678496Y-68368428D01*
X149627500Y-68624802D01*
X140772994Y-68624802D01*
X140772994Y-68576302D01*
X140721998Y-68319928D01*
X140621966Y-68078430D01*
X140476742Y-67861087D01*
X140291907Y-67676252D01*
X140074564Y-67531028D01*
X139833066Y-67430996D01*
X139576692Y-67380000D01*
X139315296Y-67380000D01*
X139058922Y-67430996D01*
X138817424Y-67531028D01*
X138600081Y-67676252D01*
X138415246Y-67861087D01*
X138270022Y-68078430D01*
X138169990Y-68319928D01*
X138118994Y-68576302D01*
X129343000Y-68576302D01*
X129292004Y-68319928D01*
X129191972Y-68078430D01*
X129046748Y-67861087D01*
X128861913Y-67676252D01*
X128644570Y-67531028D01*
X128403072Y-67430996D01*
X128146698Y-67380000D01*
X127885302Y-67380000D01*
X127628928Y-67430996D01*
X127387430Y-67531028D01*
X127170087Y-67676252D01*
X126985252Y-67861087D01*
X126840028Y-68078430D01*
X126739996Y-68319928D01*
X126689000Y-68576302D01*
X99870626Y-68576302D01*
X99750842Y-68287120D01*
X99507124Y-67922370D01*
X99196930Y-67612176D01*
X98832180Y-67368458D01*
X98426892Y-67200582D01*
X97996640Y-67115000D01*
X97557960Y-67115000D01*
X97127708Y-67200582D01*
X96722420Y-67368458D01*
X96357670Y-67612176D01*
X96047476Y-67922370D01*
X95803758Y-68287120D01*
X95635882Y-68692408D01*
X95550300Y-69122660D01*
X92912300Y-69122660D01*
X92912300Y-64042660D01*
X95550300Y-64042660D01*
X95550300Y-64481340D01*
X95635882Y-64911592D01*
X95803758Y-65316880D01*
X96047476Y-65681630D01*
X96357670Y-65991824D01*
X96722420Y-66235542D01*
X97127708Y-66403418D01*
X97557960Y-66489000D01*
X97996640Y-66489000D01*
X98426892Y-66403418D01*
X98832180Y-66235542D01*
X99196930Y-65991824D01*
X99507124Y-65681630D01*
X99750842Y-65316880D01*
X99918718Y-64911592D01*
X100004300Y-64481340D01*
X100004300Y-64042660D01*
X99918718Y-63612408D01*
X99750842Y-63207120D01*
X99507124Y-62842370D01*
X99196930Y-62532176D01*
X98832180Y-62288458D01*
X98426892Y-62120582D01*
X97996640Y-62035000D01*
X97557960Y-62035000D01*
X97127708Y-62120582D01*
X96722420Y-62288458D01*
X96357670Y-62532176D01*
X96047476Y-62842370D01*
X95803758Y-63207120D01*
X95635882Y-63612408D01*
X95550300Y-64042660D01*
X92912300Y-64042660D01*
X92912300Y-58962660D01*
X95550300Y-58962660D01*
X95550300Y-59401340D01*
X95635882Y-59831592D01*
X95803758Y-60236880D01*
X96047476Y-60601630D01*
X96357670Y-60911824D01*
X96722420Y-61155542D01*
X97127708Y-61323418D01*
X97557960Y-61409000D01*
X97996640Y-61409000D01*
X98426892Y-61323418D01*
X98832180Y-61155542D01*
X99196930Y-60911824D01*
X99507124Y-60601630D01*
X99750842Y-60236880D01*
X99918718Y-59831592D01*
X100004300Y-59401340D01*
X100004300Y-58962660D01*
X99918718Y-58532408D01*
X99750842Y-58127120D01*
X99507124Y-57762370D01*
X99196930Y-57452176D01*
X98929226Y-57273302D01*
X179013000Y-57273302D01*
X179013000Y-57534698D01*
X179063996Y-57791072D01*
X179114086Y-57912000D01*
X179063996Y-58032928D01*
X179013000Y-58289302D01*
X179013000Y-58550698D01*
X179063996Y-58807072D01*
X179164028Y-59048570D01*
X179309252Y-59265913D01*
X179494087Y-59450748D01*
X179711430Y-59595972D01*
X179952928Y-59696004D01*
X180209302Y-59747000D01*
X180470698Y-59747000D01*
X180727072Y-59696004D01*
X180968570Y-59595972D01*
X181185913Y-59450748D01*
X181370748Y-59265913D01*
X181515972Y-59048570D01*
X181616004Y-58807072D01*
X181667000Y-58550698D01*
X181667000Y-58289302D01*
X181616004Y-58032928D01*
X181565914Y-57912000D01*
X181616004Y-57791072D01*
X181667000Y-57534698D01*
X181667000Y-57273302D01*
X181616004Y-57016928D01*
X181515972Y-56775430D01*
X181370748Y-56558087D01*
X181185913Y-56373252D01*
X180968570Y-56228028D01*
X180727072Y-56127996D01*
X180470698Y-56077000D01*
X180209302Y-56077000D01*
X179952928Y-56127996D01*
X179711430Y-56228028D01*
X179494087Y-56373252D01*
X179309252Y-56558087D01*
X179164028Y-56775430D01*
X179063996Y-57016928D01*
X179013000Y-57273302D01*
X98929226Y-57273302D01*
X98832180Y-57208458D01*
X98426892Y-57040582D01*
X97996640Y-56955000D01*
X97557960Y-56955000D01*
X97127708Y-57040582D01*
X96722420Y-57208458D01*
X96357670Y-57452176D01*
X96047476Y-57762370D01*
X95803758Y-58127120D01*
X95635882Y-58532408D01*
X95550300Y-58962660D01*
X92912300Y-58962660D01*
X92912300Y-53882660D01*
X95550300Y-53882660D01*
X95550300Y-54321340D01*
X95635882Y-54751592D01*
X95803758Y-55156880D01*
X96047476Y-55521630D01*
X96357670Y-55831824D01*
X96722420Y-56075542D01*
X97127708Y-56243418D01*
X97557960Y-56329000D01*
X97996640Y-56329000D01*
X98426892Y-56243418D01*
X98832180Y-56075542D01*
X99196930Y-55831824D01*
X99507124Y-55521630D01*
X99750842Y-55156880D01*
X99918718Y-54751592D01*
X100004300Y-54321340D01*
X100004300Y-53882660D01*
X99918718Y-53452408D01*
X99750842Y-53047120D01*
X99507124Y-52682370D01*
X99196930Y-52372176D01*
X98832180Y-52128458D01*
X98426892Y-51960582D01*
X97996640Y-51875000D01*
X97557960Y-51875000D01*
X97127708Y-51960582D01*
X96722420Y-52128458D01*
X96357670Y-52372176D01*
X96047476Y-52682370D01*
X95803758Y-53047120D01*
X95635882Y-53452408D01*
X95550300Y-53882660D01*
X92912300Y-53882660D01*
X92912300Y-49675686D01*
X93366219Y-49675686D01*
X93702406Y-50144868D01*
X94332368Y-50485237D01*
X95016627Y-50696166D01*
X95728889Y-50769550D01*
X96441782Y-50702569D01*
X97127909Y-50497796D01*
X97760903Y-50163102D01*
X97788194Y-50144868D01*
X98124381Y-49675686D01*
X95745300Y-47296605D01*
X93366219Y-49675686D01*
X92912300Y-49675686D01*
X92912300Y-49299524D01*
X93186614Y-49496081D01*
X95565695Y-47117000D01*
X95924905Y-47117000D01*
X98303986Y-49496081D01*
X98773168Y-49159894D01*
X99113537Y-48529932D01*
X99323440Y-47849000D01*
X104448515Y-47849000D01*
X104448515Y-50449000D01*
X104466413Y-50630724D01*
X104519420Y-50805464D01*
X104605499Y-50966505D01*
X104721341Y-51107659D01*
X104862495Y-51223501D01*
X105023536Y-51309580D01*
X105198276Y-51362587D01*
X105380000Y-51380485D01*
X107980000Y-51380485D01*
X108161724Y-51362587D01*
X108336464Y-51309580D01*
X108497505Y-51223501D01*
X108638659Y-51107659D01*
X108754501Y-50966505D01*
X108840580Y-50805464D01*
X108893587Y-50630724D01*
X108911485Y-50449000D01*
X108911485Y-48929660D01*
X109533000Y-48929660D01*
X109533000Y-49368340D01*
X109618582Y-49798592D01*
X109786458Y-50203880D01*
X110030176Y-50568630D01*
X110340370Y-50878824D01*
X110705120Y-51122542D01*
X111110408Y-51290418D01*
X111540660Y-51376000D01*
X111979340Y-51376000D01*
X112409592Y-51290418D01*
X112814880Y-51122542D01*
X113179630Y-50878824D01*
X113489824Y-50568630D01*
X113733542Y-50203880D01*
X113901418Y-49798592D01*
X113987000Y-49368340D01*
X113987000Y-48929660D01*
X114613000Y-48929660D01*
X114613000Y-49368340D01*
X114698582Y-49798592D01*
X114866458Y-50203880D01*
X115110176Y-50568630D01*
X115420370Y-50878824D01*
X115785120Y-51122542D01*
X116190408Y-51290418D01*
X116620660Y-51376000D01*
X117059340Y-51376000D01*
X117489592Y-51290418D01*
X117894880Y-51122542D01*
X118259630Y-50878824D01*
X118569824Y-50568630D01*
X118813542Y-50203880D01*
X118981418Y-49798592D01*
X119067000Y-49368340D01*
X119067000Y-48929660D01*
X119693000Y-48929660D01*
X119693000Y-49368340D01*
X119778582Y-49798592D01*
X119946458Y-50203880D01*
X120190176Y-50568630D01*
X120500370Y-50878824D01*
X120865120Y-51122542D01*
X121270408Y-51290418D01*
X121700660Y-51376000D01*
X122139340Y-51376000D01*
X122569592Y-51290418D01*
X122974880Y-51122542D01*
X123339630Y-50878824D01*
X123649824Y-50568630D01*
X123893542Y-50203880D01*
X124061418Y-49798592D01*
X124147000Y-49368340D01*
X124147000Y-48929660D01*
X124061418Y-48499408D01*
X123893542Y-48094120D01*
X123729759Y-47849000D01*
X126025815Y-47849000D01*
X126025815Y-50449000D01*
X126043713Y-50630724D01*
X126096720Y-50805464D01*
X126182799Y-50966505D01*
X126298641Y-51107659D01*
X126439795Y-51223501D01*
X126600836Y-51309580D01*
X126775576Y-51362587D01*
X126957300Y-51380485D01*
X129557300Y-51380485D01*
X129739024Y-51362587D01*
X129913764Y-51309580D01*
X130074805Y-51223501D01*
X130215959Y-51107659D01*
X130331801Y-50966505D01*
X130417880Y-50805464D01*
X130470887Y-50630724D01*
X130488785Y-50449000D01*
X130488785Y-48929660D01*
X131110300Y-48929660D01*
X131110300Y-49368340D01*
X131195882Y-49798592D01*
X131363758Y-50203880D01*
X131607476Y-50568630D01*
X131917670Y-50878824D01*
X132282420Y-51122542D01*
X132687708Y-51290418D01*
X133117960Y-51376000D01*
X133556640Y-51376000D01*
X133986892Y-51290418D01*
X134392180Y-51122542D01*
X134756930Y-50878824D01*
X135067124Y-50568630D01*
X135310842Y-50203880D01*
X135478718Y-49798592D01*
X135564300Y-49368340D01*
X135564300Y-48929660D01*
X136190300Y-48929660D01*
X136190300Y-49368340D01*
X136275882Y-49798592D01*
X136443758Y-50203880D01*
X136687476Y-50568630D01*
X136997670Y-50878824D01*
X137362420Y-51122542D01*
X137767708Y-51290418D01*
X138197960Y-51376000D01*
X138636640Y-51376000D01*
X139066892Y-51290418D01*
X139472180Y-51122542D01*
X139836930Y-50878824D01*
X140147124Y-50568630D01*
X140390842Y-50203880D01*
X140558718Y-49798592D01*
X140644300Y-49368340D01*
X140644300Y-48929660D01*
X141270300Y-48929660D01*
X141270300Y-49368340D01*
X141355882Y-49798592D01*
X141523758Y-50203880D01*
X141767476Y-50568630D01*
X142077670Y-50878824D01*
X142442420Y-51122542D01*
X142847708Y-51290418D01*
X143277960Y-51376000D01*
X143716640Y-51376000D01*
X144146892Y-51290418D01*
X144552180Y-51122542D01*
X144916930Y-50878824D01*
X145227124Y-50568630D01*
X145470842Y-50203880D01*
X145638718Y-49798592D01*
X145724300Y-49368340D01*
X145724300Y-48929660D01*
X146350300Y-48929660D01*
X146350300Y-49368340D01*
X146435882Y-49798592D01*
X146603758Y-50203880D01*
X146847476Y-50568630D01*
X147157670Y-50878824D01*
X147522420Y-51122542D01*
X147927708Y-51290418D01*
X148357960Y-51376000D01*
X148796640Y-51376000D01*
X149226892Y-51290418D01*
X149632180Y-51122542D01*
X149996930Y-50878824D01*
X150307124Y-50568630D01*
X150550842Y-50203880D01*
X150718718Y-49798592D01*
X150804300Y-49368340D01*
X150804300Y-48929660D01*
X151430300Y-48929660D01*
X151430300Y-49368340D01*
X151515882Y-49798592D01*
X151683758Y-50203880D01*
X151927476Y-50568630D01*
X152237670Y-50878824D01*
X152602420Y-51122542D01*
X153007708Y-51290418D01*
X153437960Y-51376000D01*
X153876640Y-51376000D01*
X154306892Y-51290418D01*
X154712180Y-51122542D01*
X155076930Y-50878824D01*
X155387124Y-50568630D01*
X155630842Y-50203880D01*
X155798718Y-49798592D01*
X155884300Y-49368340D01*
X155884300Y-48929660D01*
X156510300Y-48929660D01*
X156510300Y-49368340D01*
X156595882Y-49798592D01*
X156763758Y-50203880D01*
X157007476Y-50568630D01*
X157317670Y-50878824D01*
X157682420Y-51122542D01*
X158087708Y-51290418D01*
X158517960Y-51376000D01*
X158956640Y-51376000D01*
X159386892Y-51290418D01*
X159792180Y-51122542D01*
X160156930Y-50878824D01*
X160467124Y-50568630D01*
X160710842Y-50203880D01*
X160878718Y-49798592D01*
X160964300Y-49368340D01*
X160964300Y-48929660D01*
X161590300Y-48929660D01*
X161590300Y-49368340D01*
X161675882Y-49798592D01*
X161843758Y-50203880D01*
X162087476Y-50568630D01*
X162397670Y-50878824D01*
X162762420Y-51122542D01*
X163167708Y-51290418D01*
X163597960Y-51376000D01*
X164036640Y-51376000D01*
X164466892Y-51290418D01*
X164872180Y-51122542D01*
X165236930Y-50878824D01*
X165547124Y-50568630D01*
X165790842Y-50203880D01*
X165958718Y-49798592D01*
X166044300Y-49368340D01*
X166044300Y-48929660D01*
X165958718Y-48499408D01*
X165813144Y-48147961D01*
X198948000Y-48147961D01*
X198948000Y-48626039D01*
X199041268Y-49094930D01*
X199224221Y-49536615D01*
X199489826Y-49934122D01*
X199827878Y-50272174D01*
X200225385Y-50537779D01*
X200667070Y-50720732D01*
X201135961Y-50814000D01*
X201614039Y-50814000D01*
X202082930Y-50720732D01*
X202524615Y-50537779D01*
X202922122Y-50272174D01*
X203260174Y-49934122D01*
X203525779Y-49536615D01*
X203708732Y-49094930D01*
X203802000Y-48626039D01*
X203802000Y-48147961D01*
X203708732Y-47679070D01*
X203525779Y-47237385D01*
X203291660Y-46887000D01*
X203943515Y-46887000D01*
X203943515Y-49887000D01*
X203961413Y-50068724D01*
X204014420Y-50243464D01*
X204100499Y-50404505D01*
X204216341Y-50545659D01*
X204357495Y-50661501D01*
X204518536Y-50747580D01*
X204693276Y-50800587D01*
X204875000Y-50818485D01*
X207875000Y-50818485D01*
X208056724Y-50800587D01*
X208231464Y-50747580D01*
X208392505Y-50661501D01*
X208533659Y-50545659D01*
X208649501Y-50404505D01*
X208735580Y-50243464D01*
X208788587Y-50068724D01*
X208806485Y-49887000D01*
X208806485Y-49675686D01*
X235606219Y-49675686D01*
X235942406Y-50144868D01*
X236572368Y-50485237D01*
X237256627Y-50696166D01*
X237968889Y-50769550D01*
X238681782Y-50702569D01*
X239367909Y-50497796D01*
X240000903Y-50163102D01*
X240028194Y-50144868D01*
X240364381Y-49675686D01*
X237985300Y-47296605D01*
X235606219Y-49675686D01*
X208806485Y-49675686D01*
X208806485Y-47100589D01*
X234332750Y-47100589D01*
X234399731Y-47813482D01*
X234604504Y-48499609D01*
X234939198Y-49132603D01*
X234957432Y-49159894D01*
X235426614Y-49496081D01*
X237805695Y-47117000D01*
X235426614Y-44737919D01*
X234957432Y-45074106D01*
X234617063Y-45704068D01*
X234406134Y-46388327D01*
X234332750Y-47100589D01*
X208806485Y-47100589D01*
X208806485Y-46887000D01*
X208788587Y-46705276D01*
X208735580Y-46530536D01*
X208649501Y-46369495D01*
X208533659Y-46228341D01*
X208392505Y-46112499D01*
X208231464Y-46026420D01*
X208056724Y-45973413D01*
X207875000Y-45955515D01*
X204875000Y-45955515D01*
X204693276Y-45973413D01*
X204518536Y-46026420D01*
X204357495Y-46112499D01*
X204216341Y-46228341D01*
X204100499Y-46369495D01*
X204014420Y-46530536D01*
X203961413Y-46705276D01*
X203943515Y-46887000D01*
X203291660Y-46887000D01*
X203260174Y-46839878D01*
X202922122Y-46501826D01*
X202524615Y-46236221D01*
X202082930Y-46053268D01*
X201614039Y-45960000D01*
X201135961Y-45960000D01*
X200667070Y-46053268D01*
X200225385Y-46236221D01*
X199827878Y-46501826D01*
X199489826Y-46839878D01*
X199224221Y-47237385D01*
X199041268Y-47679070D01*
X198948000Y-48147961D01*
X165813144Y-48147961D01*
X165790842Y-48094120D01*
X165547124Y-47729370D01*
X165236930Y-47419176D01*
X164872180Y-47175458D01*
X164466892Y-47007582D01*
X164036640Y-46922000D01*
X163597960Y-46922000D01*
X163167708Y-47007582D01*
X162762420Y-47175458D01*
X162397670Y-47419176D01*
X162087476Y-47729370D01*
X161843758Y-48094120D01*
X161675882Y-48499408D01*
X161590300Y-48929660D01*
X160964300Y-48929660D01*
X160878718Y-48499408D01*
X160710842Y-48094120D01*
X160467124Y-47729370D01*
X160156930Y-47419176D01*
X159792180Y-47175458D01*
X159386892Y-47007582D01*
X158956640Y-46922000D01*
X158517960Y-46922000D01*
X158087708Y-47007582D01*
X157682420Y-47175458D01*
X157317670Y-47419176D01*
X157007476Y-47729370D01*
X156763758Y-48094120D01*
X156595882Y-48499408D01*
X156510300Y-48929660D01*
X155884300Y-48929660D01*
X155798718Y-48499408D01*
X155630842Y-48094120D01*
X155387124Y-47729370D01*
X155076930Y-47419176D01*
X154712180Y-47175458D01*
X154306892Y-47007582D01*
X153876640Y-46922000D01*
X153437960Y-46922000D01*
X153007708Y-47007582D01*
X152602420Y-47175458D01*
X152237670Y-47419176D01*
X151927476Y-47729370D01*
X151683758Y-48094120D01*
X151515882Y-48499408D01*
X151430300Y-48929660D01*
X150804300Y-48929660D01*
X150718718Y-48499408D01*
X150550842Y-48094120D01*
X150307124Y-47729370D01*
X149996930Y-47419176D01*
X149632180Y-47175458D01*
X149226892Y-47007582D01*
X148796640Y-46922000D01*
X148357960Y-46922000D01*
X147927708Y-47007582D01*
X147522420Y-47175458D01*
X147157670Y-47419176D01*
X146847476Y-47729370D01*
X146603758Y-48094120D01*
X146435882Y-48499408D01*
X146350300Y-48929660D01*
X145724300Y-48929660D01*
X145638718Y-48499408D01*
X145470842Y-48094120D01*
X145227124Y-47729370D01*
X144916930Y-47419176D01*
X144552180Y-47175458D01*
X144146892Y-47007582D01*
X143716640Y-46922000D01*
X143277960Y-46922000D01*
X142847708Y-47007582D01*
X142442420Y-47175458D01*
X142077670Y-47419176D01*
X141767476Y-47729370D01*
X141523758Y-48094120D01*
X141355882Y-48499408D01*
X141270300Y-48929660D01*
X140644300Y-48929660D01*
X140558718Y-48499408D01*
X140390842Y-48094120D01*
X140147124Y-47729370D01*
X139836930Y-47419176D01*
X139472180Y-47175458D01*
X139066892Y-47007582D01*
X138636640Y-46922000D01*
X138197960Y-46922000D01*
X137767708Y-47007582D01*
X137362420Y-47175458D01*
X136997670Y-47419176D01*
X136687476Y-47729370D01*
X136443758Y-48094120D01*
X136275882Y-48499408D01*
X136190300Y-48929660D01*
X135564300Y-48929660D01*
X135478718Y-48499408D01*
X135310842Y-48094120D01*
X135067124Y-47729370D01*
X134756930Y-47419176D01*
X134392180Y-47175458D01*
X133986892Y-47007582D01*
X133556640Y-46922000D01*
X133117960Y-46922000D01*
X132687708Y-47007582D01*
X132282420Y-47175458D01*
X131917670Y-47419176D01*
X131607476Y-47729370D01*
X131363758Y-48094120D01*
X131195882Y-48499408D01*
X131110300Y-48929660D01*
X130488785Y-48929660D01*
X130488785Y-47849000D01*
X130470887Y-47667276D01*
X130417880Y-47492536D01*
X130331801Y-47331495D01*
X130215959Y-47190341D01*
X130074805Y-47074499D01*
X129913764Y-46988420D01*
X129739024Y-46935413D01*
X129557300Y-46917515D01*
X126957300Y-46917515D01*
X126775576Y-46935413D01*
X126600836Y-46988420D01*
X126439795Y-47074499D01*
X126298641Y-47190341D01*
X126182799Y-47331495D01*
X126096720Y-47492536D01*
X126043713Y-47667276D01*
X126025815Y-47849000D01*
X123729759Y-47849000D01*
X123649824Y-47729370D01*
X123339630Y-47419176D01*
X122974880Y-47175458D01*
X122569592Y-47007582D01*
X122139340Y-46922000D01*
X121700660Y-46922000D01*
X121270408Y-47007582D01*
X120865120Y-47175458D01*
X120500370Y-47419176D01*
X120190176Y-47729370D01*
X119946458Y-48094120D01*
X119778582Y-48499408D01*
X119693000Y-48929660D01*
X119067000Y-48929660D01*
X118981418Y-48499408D01*
X118813542Y-48094120D01*
X118569824Y-47729370D01*
X118259630Y-47419176D01*
X117894880Y-47175458D01*
X117489592Y-47007582D01*
X117059340Y-46922000D01*
X116620660Y-46922000D01*
X116190408Y-47007582D01*
X115785120Y-47175458D01*
X115420370Y-47419176D01*
X115110176Y-47729370D01*
X114866458Y-48094120D01*
X114698582Y-48499408D01*
X114613000Y-48929660D01*
X113987000Y-48929660D01*
X113901418Y-48499408D01*
X113733542Y-48094120D01*
X113489824Y-47729370D01*
X113179630Y-47419176D01*
X112814880Y-47175458D01*
X112409592Y-47007582D01*
X111979340Y-46922000D01*
X111540660Y-46922000D01*
X111110408Y-47007582D01*
X110705120Y-47175458D01*
X110340370Y-47419176D01*
X110030176Y-47729370D01*
X109786458Y-48094120D01*
X109618582Y-48499408D01*
X109533000Y-48929660D01*
X108911485Y-48929660D01*
X108911485Y-47849000D01*
X108893587Y-47667276D01*
X108840580Y-47492536D01*
X108754501Y-47331495D01*
X108638659Y-47190341D01*
X108497505Y-47074499D01*
X108336464Y-46988420D01*
X108161724Y-46935413D01*
X107980000Y-46917515D01*
X105380000Y-46917515D01*
X105198276Y-46935413D01*
X105023536Y-46988420D01*
X104862495Y-47074499D01*
X104721341Y-47190341D01*
X104605499Y-47331495D01*
X104519420Y-47492536D01*
X104466413Y-47667276D01*
X104448515Y-47849000D01*
X99323440Y-47849000D01*
X99324466Y-47845673D01*
X99397850Y-47133411D01*
X99330869Y-46420518D01*
X99126096Y-45734391D01*
X98791402Y-45101397D01*
X98773168Y-45074106D01*
X98303986Y-44737919D01*
X95924905Y-47117000D01*
X95565695Y-47117000D01*
X95551553Y-47102858D01*
X95731158Y-46923253D01*
X95745300Y-46937395D01*
X98124381Y-44558314D01*
X97927824Y-44284000D01*
X235802776Y-44284000D01*
X235606219Y-44558314D01*
M02*
