G04 #@! TF.GenerationSoftware,KiCad,Pcbnew,(5.1.5)-3*
G04 #@! TF.CreationDate,2020-07-27T21:58:35-03:00*
G04 #@! TF.ProjectId,ESP32-BOARD,45535033-322d-4424-9f41-52442e6b6963,rev?*
G04 #@! TF.SameCoordinates,Original*
G04 #@! TF.FileFunction,Copper,L4,Bot*
G04 #@! TF.FilePolarity,Positive*
%FSLAX46Y46*%
G04 Gerber Fmt 4.6, Leading zero omitted, Abs format (unit mm)*
G04 Created by KiCad (PCBNEW (5.1.5)-3) date 2020-07-27 21:58:35*
%MOMM*%
%LPD*%
G04 APERTURE LIST*
%ADD10R,1.500000X2.500000*%
%ADD11O,1.700000X1.700000*%
%ADD12R,1.700000X1.700000*%
%ADD13R,2.000000X2.000000*%
%ADD14C,1.700000*%
%ADD15C,9.400000*%
%ADD16C,0.800000*%
%ADD17C,6.000000*%
%ADD18C,2.600000*%
%ADD19R,2.600000X2.600000*%
%ADD20C,3.000000*%
%ADD21R,3.000000X3.000000*%
%ADD22C,8.000000*%
%ADD23C,0.250000*%
%ADD24C,0.300000*%
%ADD25C,0.800000*%
G04 APERTURE END LIST*
D10*
X212344000Y-101676200D03*
X199644000Y-101676200D03*
X207264000Y-101676200D03*
X204724000Y-101676200D03*
X194564000Y-101676200D03*
X197104000Y-101676200D03*
X209804000Y-101676200D03*
X217424000Y-101676200D03*
X219964000Y-101676200D03*
X202184000Y-101676200D03*
X235204000Y-101676200D03*
X225044000Y-101676200D03*
X222504000Y-101676200D03*
X227584000Y-101676200D03*
X214884000Y-101676200D03*
X237744000Y-101676200D03*
X230124000Y-101676200D03*
X232664000Y-101676200D03*
X240284000Y-101676200D03*
X237718600Y-126974600D03*
X217398600Y-126974600D03*
X202158600Y-126974600D03*
X230098600Y-126974600D03*
X225018600Y-126974600D03*
X235178600Y-126974600D03*
X194538600Y-126974600D03*
X227558600Y-126974600D03*
X222478600Y-126974600D03*
X199618600Y-126974600D03*
X240258600Y-126974600D03*
X232638600Y-126974600D03*
X219938600Y-126974600D03*
X209778600Y-126974600D03*
X214858600Y-126974600D03*
X207238600Y-126974600D03*
X204698600Y-126974600D03*
X197078600Y-126974600D03*
X212318600Y-126974600D03*
D11*
X204698600Y-126974600D03*
X209778600Y-126974600D03*
X197078600Y-126974600D03*
X214858600Y-126974600D03*
X207238600Y-126974600D03*
X212318600Y-126974600D03*
X235204000Y-101676200D03*
X212344000Y-101676200D03*
X240284000Y-101676200D03*
X225044000Y-101676200D03*
X217424000Y-101676200D03*
X209804000Y-101676200D03*
X232664000Y-101676200D03*
X230124000Y-101676200D03*
X204724000Y-101676200D03*
X202184000Y-101676200D03*
X237744000Y-101676200D03*
X227584000Y-101676200D03*
X222504000Y-101676200D03*
X219964000Y-101676200D03*
X207264000Y-101676200D03*
X199644000Y-101676200D03*
X214884000Y-101676200D03*
X197104000Y-101676200D03*
X194564000Y-101676200D03*
X235178600Y-126974600D03*
X240258600Y-126974600D03*
X225018600Y-126974600D03*
X217398600Y-126974600D03*
X232638600Y-126974600D03*
X230098600Y-126974600D03*
X202158600Y-126974600D03*
X237718600Y-126974600D03*
X227558600Y-126974600D03*
X222478600Y-126974600D03*
X219938600Y-126974600D03*
X199618600Y-126974600D03*
D12*
X194538600Y-126974600D03*
D13*
X116903500Y-136271000D03*
X116903500Y-131191000D03*
X116903500Y-128651000D03*
X116903500Y-133731000D03*
X116903500Y-138811000D03*
X116903500Y-126111000D03*
X138645900Y-133756400D03*
X138645900Y-128676400D03*
X138645900Y-138836400D03*
X138645900Y-136296400D03*
X138645900Y-131216400D03*
X138645900Y-141376400D03*
D11*
X116903500Y-128651000D03*
X116903500Y-131191000D03*
X116903500Y-126111000D03*
X116903500Y-133731000D03*
X116903500Y-136271000D03*
X116903500Y-138811000D03*
X138645900Y-131216400D03*
X138645900Y-133756400D03*
X138645900Y-128676400D03*
X138645900Y-136296400D03*
X138645900Y-138836400D03*
D14*
X138645900Y-141376400D03*
D11*
X210820000Y-138938000D03*
X213360000Y-138938000D03*
X215900000Y-138938000D03*
X218440000Y-138938000D03*
X220980000Y-138938000D03*
X223520000Y-138938000D03*
D12*
X226060000Y-138938000D03*
D15*
X109207300Y-137541000D03*
D16*
X236207300Y-45339000D03*
X237985300Y-44577000D03*
X239763300Y-48895000D03*
X235445300Y-47117000D03*
X236207300Y-48895000D03*
X237985300Y-49657000D03*
X239763300Y-45339000D03*
X240525300Y-47117000D03*
D17*
X237985300Y-47117000D03*
D16*
X236207300Y-137541000D03*
X237985300Y-136779000D03*
X239763300Y-141097000D03*
X235445300Y-139319000D03*
X236207300Y-141097000D03*
X237985300Y-141859000D03*
X239763300Y-137541000D03*
X240525300Y-139319000D03*
D17*
X237985300Y-139319000D03*
D16*
X93967300Y-137541000D03*
X95745300Y-136779000D03*
X97523300Y-141097000D03*
X93205300Y-139319000D03*
X93967300Y-141097000D03*
X95745300Y-141859000D03*
X97523300Y-137541000D03*
X98285300Y-139319000D03*
D17*
X95745300Y-139319000D03*
D16*
X93967300Y-45339000D03*
X95745300Y-44577000D03*
X97523300Y-48895000D03*
X93205300Y-47117000D03*
X93967300Y-48895000D03*
X95745300Y-49657000D03*
X97523300Y-45339000D03*
X98285300Y-47117000D03*
D17*
X95745300Y-47117000D03*
D18*
X121920000Y-49149000D03*
X116840000Y-49149000D03*
X111760000Y-49149000D03*
D19*
X106680000Y-49149000D03*
D18*
X163817300Y-49149000D03*
X158737300Y-49149000D03*
X153657300Y-49149000D03*
X148577300Y-49149000D03*
X143497300Y-49149000D03*
X138417300Y-49149000D03*
X133337300Y-49149000D03*
D19*
X128257300Y-49149000D03*
D18*
X97777300Y-96774000D03*
X97777300Y-101854000D03*
X97777300Y-106934000D03*
X97777300Y-112014000D03*
X97777300Y-117094000D03*
X97777300Y-122174000D03*
X97777300Y-127254000D03*
D19*
X97777300Y-132334000D03*
D18*
X97777300Y-54102000D03*
X97777300Y-59182000D03*
X97777300Y-64262000D03*
X97777300Y-69342000D03*
X97777300Y-74422000D03*
X97777300Y-79502000D03*
X97777300Y-84582000D03*
D19*
X97777300Y-89662000D03*
D18*
X148805900Y-137287000D03*
X153885900Y-137287000D03*
X158965900Y-137287000D03*
X164045900Y-137287000D03*
X169125900Y-137287000D03*
X174205900Y-137287000D03*
X179285900Y-137287000D03*
D19*
X184365900Y-137287000D03*
D20*
X201375000Y-48387000D03*
D21*
X206375000Y-48387000D03*
D22*
X138671300Y-120015000D03*
D16*
X162801300Y-80899000D03*
X201676000Y-58293000D03*
X200660000Y-58293000D03*
X199644000Y-58293000D03*
X198628000Y-58293000D03*
X197612000Y-58293000D03*
X196596000Y-58293000D03*
X195580000Y-58293000D03*
X202692000Y-58293000D03*
X208788000Y-58293000D03*
X207772000Y-58293000D03*
X209804000Y-58293000D03*
X210820000Y-58293000D03*
X211836000Y-58293000D03*
X206756000Y-58293000D03*
X205740000Y-58293000D03*
X204724000Y-58293000D03*
X203708000Y-58293000D03*
X124333000Y-97663000D03*
X124333000Y-100711000D03*
X124333000Y-109728000D03*
X124333000Y-112776000D03*
X124333000Y-115824000D03*
X197104000Y-135382000D03*
X124333000Y-94361000D03*
X124333000Y-106680000D03*
X124333000Y-103759000D03*
X114808000Y-104648000D03*
X168135300Y-113792000D03*
X182867300Y-113792000D03*
X158610300Y-125857000D03*
X172961300Y-125857000D03*
X151371300Y-80899000D03*
X139941300Y-80899000D03*
X128511300Y-80899000D03*
X115303300Y-66294000D03*
X107951407Y-66294000D03*
X132156200Y-126111000D03*
X176022000Y-89408000D03*
X174752000Y-89408000D03*
X132156200Y-125095000D03*
X224409000Y-89916000D03*
X224408998Y-88646004D03*
X188455300Y-117728990D03*
X166484296Y-113792000D03*
X180708300Y-113792000D03*
X160782000Y-113792000D03*
X160782000Y-110998000D03*
X169672000Y-113792000D03*
X169672000Y-109982000D03*
X174993302Y-108966000D03*
X174993300Y-113792000D03*
X139687300Y-114935000D03*
X138417300Y-114935000D03*
X128016000Y-68707000D03*
X139445994Y-68707000D03*
X150954500Y-68755500D03*
X162306002Y-68707000D03*
X167894000Y-98552000D03*
X173990000Y-96520000D03*
X172974000Y-97536000D03*
X167131994Y-97536000D03*
X171958000Y-98425000D03*
X169418000Y-98424994D03*
X159004000Y-92710000D03*
X159004000Y-108203994D03*
X160274000Y-92709998D03*
X160273992Y-107315000D03*
X131826000Y-107188000D03*
X128270000Y-113919000D03*
X131825994Y-104648000D03*
X128270000Y-116967000D03*
X180340000Y-57404000D03*
X180340000Y-58420000D03*
X188455300Y-122808998D03*
D23*
X124333000Y-94361000D02*
X124333000Y-115824000D01*
D24*
X114808000Y-104648000D02*
X114681000Y-104648000D01*
X97282000Y-90678000D02*
X97282000Y-89662000D01*
X160782000Y-113792000D02*
X160782000Y-110998000D01*
X169672000Y-109982000D02*
X169672000Y-113792000D01*
X174993300Y-108966002D02*
X174993302Y-108966000D01*
X174993300Y-113792000D02*
X174993300Y-108966002D01*
D25*
X133350000Y-50860477D02*
X133350000Y-49022000D01*
X133350000Y-63465343D02*
X133350000Y-50860477D01*
X128016000Y-68707000D02*
X128108343Y-68707000D01*
X128108343Y-68707000D02*
X133350000Y-63465343D01*
X139445994Y-68707000D02*
X143256000Y-64896994D01*
X143256000Y-64896994D02*
X143510000Y-64642994D01*
X143510000Y-64642994D02*
X143510000Y-49022000D01*
X150954500Y-68755500D02*
X153670000Y-66040000D01*
X153670000Y-66040000D02*
X153670000Y-49022000D01*
X162306002Y-68707000D02*
X163830000Y-67183002D01*
X163830000Y-67183002D02*
X163830000Y-49022000D01*
D24*
X173990000Y-98425000D02*
X172847000Y-99568000D01*
X173990000Y-96520000D02*
X173990000Y-98425000D01*
X172847000Y-99568000D02*
X168910000Y-99568000D01*
X168910000Y-99568000D02*
X167894000Y-98552000D01*
X172974000Y-97536000D02*
X167131994Y-97536000D01*
X171958000Y-98425000D02*
X169418006Y-98425000D01*
X169418006Y-98425000D02*
X169418000Y-98424994D01*
X159004000Y-92710000D02*
X159004000Y-108203994D01*
X160274000Y-92709998D02*
X160274000Y-107314992D01*
X160274000Y-107314992D02*
X160273992Y-107315000D01*
X131826000Y-107753685D02*
X131826000Y-107188000D01*
X131826000Y-110928685D02*
X131826000Y-107753685D01*
X128835685Y-113919000D02*
X131826000Y-110928685D01*
X128270000Y-113919000D02*
X128835685Y-113919000D01*
X128270000Y-116967000D02*
X133096000Y-112141000D01*
X133096000Y-105918006D02*
X131826000Y-104648006D01*
X133096000Y-112141000D02*
X133096000Y-105918006D01*
X131826000Y-104648006D02*
X131825994Y-104648000D01*
X225044000Y-102857300D02*
X225044000Y-101676200D01*
X162501134Y-118969291D02*
X162564543Y-118991479D01*
X162444253Y-118933550D02*
X162501134Y-118969291D01*
X162396750Y-118886047D02*
X162444253Y-118933550D01*
X162361009Y-118829166D02*
X162396750Y-118886047D01*
X162331300Y-118316308D02*
X162331300Y-118699000D01*
X162323778Y-118249552D02*
X162331300Y-118316308D01*
X162301590Y-118186143D02*
X162323778Y-118249552D01*
X162265849Y-118129262D02*
X162301590Y-118186143D01*
X162218346Y-118081759D02*
X162265849Y-118129262D01*
X162161465Y-118046018D02*
X162218346Y-118081759D01*
X162098056Y-118023830D02*
X162161465Y-118046018D01*
X162031300Y-118016308D02*
X162098056Y-118023830D01*
X161964543Y-118023830D02*
X162031300Y-118016308D01*
X161901134Y-118046018D02*
X161964543Y-118023830D01*
X161844253Y-118081759D02*
X161901134Y-118046018D01*
X161796750Y-118129262D02*
X161844253Y-118081759D01*
X161761009Y-118186143D02*
X161796750Y-118129262D01*
X161738821Y-118249552D02*
X161761009Y-118186143D01*
X161731300Y-118316308D02*
X161738821Y-118249552D01*
X161731300Y-118699000D02*
X161731300Y-118316308D01*
X161723778Y-118765757D02*
X161731300Y-118699000D01*
X161701590Y-118829166D02*
X161723778Y-118765757D01*
X161665849Y-118886047D02*
X161701590Y-118829166D01*
X161618346Y-118933550D02*
X161665849Y-118886047D01*
X161561465Y-118969291D02*
X161618346Y-118933550D01*
X161498056Y-118991479D02*
X161561465Y-118969291D01*
X161431300Y-118999000D02*
X161498056Y-118991479D01*
X161364543Y-118991479D02*
X161431300Y-118999000D01*
X161301134Y-118969291D02*
X161364543Y-118991479D01*
X161244253Y-118933550D02*
X161301134Y-118969291D01*
X161196750Y-118886047D02*
X161244253Y-118933550D01*
X161161009Y-118829166D02*
X161196750Y-118886047D01*
X161138821Y-118765757D02*
X161161009Y-118829166D01*
X161131300Y-118699000D02*
X161138821Y-118765757D01*
X161131300Y-118316308D02*
X161131300Y-118699000D01*
X161123778Y-118249552D02*
X161131300Y-118316308D01*
X161101590Y-118186143D02*
X161123778Y-118249552D01*
X161065849Y-118129262D02*
X161101590Y-118186143D01*
X161018346Y-118081759D02*
X161065849Y-118129262D01*
X160961465Y-118046018D02*
X161018346Y-118081759D01*
X160898056Y-118023830D02*
X160961465Y-118046018D01*
X160831300Y-118016308D02*
X160898056Y-118023830D01*
X160764543Y-118023830D02*
X160831300Y-118016308D01*
X160701134Y-118046018D02*
X160764543Y-118023830D01*
X160644253Y-118081759D02*
X160701134Y-118046018D01*
X160596750Y-118129262D02*
X160644253Y-118081759D01*
X160561009Y-118186143D02*
X160596750Y-118129262D01*
X160538821Y-118249552D02*
X160561009Y-118186143D01*
X160531300Y-118316308D02*
X160538821Y-118249552D01*
X160531300Y-118699000D02*
X160531300Y-118316308D01*
X160523778Y-118765757D02*
X160531300Y-118699000D01*
X160501590Y-118829166D02*
X160523778Y-118765757D01*
X160465849Y-118886047D02*
X160501590Y-118829166D01*
X160418346Y-118933550D02*
X160465849Y-118886047D01*
X160361465Y-118969291D02*
X160418346Y-118933550D01*
X160298056Y-118991479D02*
X160361465Y-118969291D01*
X160231300Y-118999000D02*
X160298056Y-118991479D01*
X160164543Y-118991479D02*
X160231300Y-118999000D01*
X160101134Y-118969291D02*
X160164543Y-118991479D01*
X160044253Y-118933550D02*
X160101134Y-118969291D01*
X159996750Y-118886047D02*
X160044253Y-118933550D01*
X159961009Y-118829166D02*
X159996750Y-118886047D01*
X159938821Y-118765757D02*
X159961009Y-118829166D01*
X159931300Y-118699000D02*
X159938821Y-118765757D01*
X159931300Y-118316308D02*
X159931300Y-118699000D01*
X159923778Y-118249552D02*
X159931300Y-118316308D01*
X159901590Y-118186143D02*
X159923778Y-118249552D01*
X159865849Y-118129262D02*
X159901590Y-118186143D01*
X159818346Y-118081759D02*
X159865849Y-118129262D01*
X159761465Y-118046018D02*
X159818346Y-118081759D01*
X159698056Y-118023830D02*
X159761465Y-118046018D01*
X159631300Y-118016308D02*
X159698056Y-118023830D01*
X159564543Y-118023830D02*
X159631300Y-118016308D01*
X159501134Y-118046018D02*
X159564543Y-118023830D01*
X159444253Y-118081759D02*
X159501134Y-118046018D01*
X159396750Y-118129262D02*
X159444253Y-118081759D01*
X159361009Y-118186143D02*
X159396750Y-118129262D01*
X159338821Y-118249552D02*
X159361009Y-118186143D01*
X159331300Y-118316308D02*
X159338821Y-118249552D01*
X159331300Y-118699000D02*
X159331300Y-118316308D01*
X159323778Y-118765757D02*
X159331300Y-118699000D01*
X159301590Y-118829166D02*
X159323778Y-118765757D01*
X159265849Y-118886047D02*
X159301590Y-118829166D01*
X159218346Y-118933550D02*
X159265849Y-118886047D01*
X159161465Y-118969291D02*
X159218346Y-118933550D01*
X159098056Y-118991479D02*
X159161465Y-118969291D01*
X159031300Y-118999000D02*
X159098056Y-118991479D01*
X158964543Y-118991479D02*
X159031300Y-118999000D01*
X158901134Y-118969291D02*
X158964543Y-118991479D01*
X158844253Y-118933550D02*
X158901134Y-118969291D01*
X158796750Y-118886047D02*
X158844253Y-118933550D01*
X158761009Y-118829166D02*
X158796750Y-118886047D01*
X158738821Y-118765757D02*
X158761009Y-118829166D01*
X158731300Y-118699000D02*
X158738821Y-118765757D01*
X158731300Y-118316308D02*
X158731300Y-118699000D01*
X158723778Y-118249552D02*
X158731300Y-118316308D01*
X158701590Y-118186143D02*
X158723778Y-118249552D01*
X158665849Y-118129262D02*
X158701590Y-118186143D01*
X158618346Y-118081759D02*
X158665849Y-118129262D01*
X158561465Y-118046018D02*
X158618346Y-118081759D01*
X158498056Y-118023830D02*
X158561465Y-118046018D01*
X158431300Y-118016308D02*
X158498056Y-118023830D01*
X158364543Y-118023830D02*
X158431300Y-118016308D01*
X158301134Y-118046018D02*
X158364543Y-118023830D01*
X158244253Y-118081759D02*
X158301134Y-118046018D01*
X158196750Y-118129262D02*
X158244253Y-118081759D01*
X158161009Y-118186143D02*
X158196750Y-118129262D01*
X158138821Y-118249552D02*
X158161009Y-118186143D01*
X158131300Y-118316308D02*
X158138821Y-118249552D01*
X158131300Y-119431692D02*
X158131300Y-118316308D01*
X158123778Y-119498448D02*
X158131300Y-119431692D01*
X158101590Y-119561857D02*
X158123778Y-119498448D01*
X158065849Y-119618738D02*
X158101590Y-119561857D01*
X158018346Y-119666241D02*
X158065849Y-119618738D01*
X157961465Y-119701982D02*
X158018346Y-119666241D01*
X157898056Y-119724170D02*
X157961465Y-119701982D01*
X157831300Y-119731692D02*
X157898056Y-119724170D01*
X157764543Y-119724170D02*
X157831300Y-119731692D01*
X157701134Y-119701982D02*
X157764543Y-119724170D01*
X157644253Y-119666241D02*
X157701134Y-119701982D01*
X157596750Y-119618738D02*
X157644253Y-119666241D01*
X157561009Y-119561857D02*
X157596750Y-119618738D01*
X157538821Y-119498448D02*
X157561009Y-119561857D01*
X157531300Y-119431692D02*
X157538821Y-119498448D01*
X157531300Y-118316308D02*
X157531300Y-119431692D01*
X157523778Y-118249552D02*
X157531300Y-118316308D01*
X157501590Y-118186143D02*
X157523778Y-118249552D01*
X157465849Y-118129262D02*
X157501590Y-118186143D01*
X157418346Y-118081759D02*
X157465849Y-118129262D01*
X157361465Y-118046018D02*
X157418346Y-118081759D01*
X157298056Y-118023830D02*
X157361465Y-118046018D01*
X157231300Y-118016308D02*
X157298056Y-118023830D01*
X157164543Y-118023830D02*
X157231300Y-118016308D01*
X157101134Y-118046018D02*
X157164543Y-118023830D01*
X157044253Y-118081759D02*
X157101134Y-118046018D01*
X156996750Y-118129262D02*
X157044253Y-118081759D01*
X156961009Y-118186143D02*
X156996750Y-118129262D01*
X156938821Y-118249552D02*
X156961009Y-118186143D01*
X156931300Y-118316308D02*
X156938821Y-118249552D01*
X156931300Y-119431692D02*
X156931300Y-118316308D01*
X156923778Y-119498448D02*
X156931300Y-119431692D01*
X156901590Y-119561857D02*
X156923778Y-119498448D01*
X156865849Y-119618738D02*
X156901590Y-119561857D01*
X156818346Y-119666241D02*
X156865849Y-119618738D01*
X156761465Y-119701982D02*
X156818346Y-119666241D01*
X156698056Y-119724170D02*
X156761465Y-119701982D01*
X156631300Y-119731692D02*
X156698056Y-119724170D01*
X156564543Y-119724170D02*
X156631300Y-119731692D01*
X156501134Y-119701982D02*
X156564543Y-119724170D01*
X152431300Y-118016308D02*
X152498056Y-118023830D01*
X152364543Y-118023830D02*
X152431300Y-118016308D01*
X152161009Y-118186143D02*
X152196750Y-118129262D01*
X152138821Y-118249552D02*
X152161009Y-118186143D01*
X152131300Y-119431692D02*
X152131300Y-118316308D01*
X152123778Y-119498448D02*
X152131300Y-119431692D01*
X152101590Y-119561857D02*
X152123778Y-119498448D01*
X152065849Y-119618738D02*
X152101590Y-119561857D01*
X152018346Y-119666241D02*
X152065849Y-119618738D01*
X151898056Y-119724170D02*
X151961465Y-119701982D01*
X151831300Y-119731692D02*
X151898056Y-119724170D01*
X151764543Y-119724170D02*
X151831300Y-119731692D01*
X151701134Y-119701982D02*
X151764543Y-119724170D01*
X151644253Y-119666241D02*
X151701134Y-119701982D01*
X151596750Y-119618738D02*
X151644253Y-119666241D01*
X151531300Y-118316308D02*
X151531300Y-119431692D01*
X151523778Y-118249552D02*
X151531300Y-118316308D01*
X151501590Y-118186143D02*
X151523778Y-118249552D01*
X152301134Y-118046018D02*
X152364543Y-118023830D01*
X151465849Y-118129262D02*
X151501590Y-118186143D01*
X151418346Y-118081759D02*
X151465849Y-118129262D01*
X151361465Y-118046018D02*
X151418346Y-118081759D01*
X151298056Y-118023830D02*
X151361465Y-118046018D01*
X151231300Y-118016308D02*
X151298056Y-118023830D01*
X151164543Y-118023830D02*
X151231300Y-118016308D01*
X151101134Y-118046018D02*
X151164543Y-118023830D01*
X151044253Y-118081759D02*
X151101134Y-118046018D01*
X150996750Y-118129262D02*
X151044253Y-118081759D01*
X150961009Y-118186143D02*
X150996750Y-118129262D01*
X150938821Y-118249552D02*
X150961009Y-118186143D01*
X150931300Y-118316308D02*
X150938821Y-118249552D01*
X150901590Y-119561857D02*
X150923778Y-119498448D01*
X150865849Y-119618738D02*
X150901590Y-119561857D01*
X150818346Y-119666241D02*
X150865849Y-119618738D01*
X150761465Y-119701982D02*
X150818346Y-119666241D01*
X150698056Y-119724170D02*
X150761465Y-119701982D01*
X150631300Y-119731692D02*
X150698056Y-119724170D01*
X150564543Y-119724170D02*
X150631300Y-119731692D01*
X150444253Y-119666241D02*
X150501134Y-119701982D01*
X150396750Y-119618738D02*
X150444253Y-119666241D01*
X149364543Y-119724170D02*
X149431300Y-119731692D01*
X154596750Y-118129262D02*
X154644253Y-118081759D01*
X149161009Y-119561857D02*
X149196750Y-119618738D01*
X149431300Y-119731692D02*
X149498056Y-119724170D01*
X152131300Y-118316308D02*
X152138821Y-118249552D01*
X149138821Y-119498448D02*
X149161009Y-119561857D01*
X155731300Y-119431692D02*
X155731300Y-118316308D01*
X150161465Y-118046018D02*
X150218346Y-118081759D01*
X138658600Y-131445000D02*
X138912600Y-131191000D01*
X149196750Y-119618738D02*
X149244253Y-119666241D01*
X155138821Y-119498448D02*
X155161009Y-119561857D01*
X150323778Y-118249552D02*
X150331300Y-118316308D01*
X162631300Y-118999000D02*
X208902300Y-118999000D01*
X149131300Y-119299000D02*
X149131300Y-119431692D01*
X149561465Y-119701982D02*
X149618346Y-119666241D01*
X149498056Y-119724170D02*
X149561465Y-119701982D01*
X141465300Y-131191000D02*
X144767300Y-127889000D01*
X150931300Y-119431692D02*
X150931300Y-118316308D01*
X149301134Y-119701982D02*
X149364543Y-119724170D01*
X155065849Y-118129262D02*
X155101590Y-118186143D01*
X162564543Y-118991479D02*
X162631300Y-118999000D01*
X149131300Y-119431692D02*
X149138821Y-119498448D01*
X154538821Y-118249552D02*
X154561009Y-118186143D01*
X149723778Y-119498448D02*
X149731300Y-119431692D01*
X144767300Y-122682000D02*
X148450300Y-118999000D01*
X150301590Y-118186143D02*
X150323778Y-118249552D01*
X151531300Y-119431692D02*
X151538821Y-119498448D01*
X148831300Y-118999000D02*
X148898056Y-119006521D01*
X149065849Y-119111953D02*
X149101590Y-119168834D01*
X149701590Y-119561857D02*
X149723778Y-119498448D01*
X151961465Y-119701982D02*
X152018346Y-119666241D01*
X148961465Y-119028709D02*
X149018346Y-119064450D01*
X156323778Y-118249552D02*
X156331300Y-118316308D01*
X149618346Y-119666241D02*
X149665849Y-119618738D01*
X150501134Y-119701982D02*
X150564543Y-119724170D01*
X149244253Y-119666241D02*
X149301134Y-119701982D01*
X154898056Y-118023830D02*
X154961465Y-118046018D01*
X150361009Y-119561857D02*
X150396750Y-119618738D01*
X151561009Y-119561857D02*
X151596750Y-119618738D01*
X162338821Y-118765757D02*
X162361009Y-118829166D01*
X148450300Y-118999000D02*
X148831300Y-118999000D01*
X156331300Y-118316308D02*
X156331300Y-119431692D01*
X152244253Y-118081759D02*
X152301134Y-118046018D01*
X144767300Y-127889000D02*
X144767300Y-122682000D01*
X149731300Y-118316308D02*
X149738821Y-118249552D01*
X150923778Y-119498448D02*
X150931300Y-119431692D01*
X148898056Y-119006521D02*
X148961465Y-119028709D01*
X156361009Y-119561857D02*
X156396750Y-119618738D01*
X149844253Y-118081759D02*
X149901134Y-118046018D01*
X162331300Y-118699000D02*
X162338821Y-118765757D01*
X149018346Y-119064450D02*
X149065849Y-119111953D01*
X155796750Y-118129262D02*
X155844253Y-118081759D01*
X150331300Y-118316308D02*
X150331300Y-119431692D01*
X151538821Y-119498448D02*
X151561009Y-119561857D01*
X149123778Y-119232243D02*
X149131300Y-119299000D01*
X149665849Y-119618738D02*
X149701590Y-119561857D01*
X149731300Y-119431692D02*
X149731300Y-118316308D01*
X150265849Y-118129262D02*
X150301590Y-118186143D01*
X149738821Y-118249552D02*
X149761009Y-118186143D01*
X138912600Y-131191000D02*
X141465300Y-131191000D01*
X155723778Y-119498448D02*
X155731300Y-119431692D01*
X149761009Y-118186143D02*
X149796750Y-118129262D01*
X149796750Y-118129262D02*
X149844253Y-118081759D01*
X149901134Y-118046018D02*
X149964543Y-118023830D01*
X149964543Y-118023830D02*
X150031300Y-118016308D01*
X208902300Y-118999000D02*
X225044000Y-102857300D01*
X149101590Y-119168834D02*
X149123778Y-119232243D01*
X156331300Y-119431692D02*
X156338821Y-119498448D01*
X150218346Y-118081759D02*
X150265849Y-118129262D01*
X150031300Y-118016308D02*
X150098056Y-118023830D01*
X150098056Y-118023830D02*
X150161465Y-118046018D01*
X150331300Y-119431692D02*
X150338821Y-119498448D01*
X152196750Y-118129262D02*
X152244253Y-118081759D01*
X150338821Y-119498448D02*
X150361009Y-119561857D01*
X152498056Y-118023830D02*
X152561465Y-118046018D01*
X152561465Y-118046018D02*
X152618346Y-118081759D01*
X152618346Y-118081759D02*
X152665849Y-118129262D01*
X152665849Y-118129262D02*
X152701590Y-118186143D01*
X152701590Y-118186143D02*
X152723778Y-118249552D01*
X152723778Y-118249552D02*
X152731300Y-118316308D01*
X152731300Y-118316308D02*
X152731300Y-119431692D01*
X152731300Y-119431692D02*
X152738821Y-119498448D01*
X152738821Y-119498448D02*
X152761009Y-119561857D01*
X152761009Y-119561857D02*
X152796750Y-119618738D01*
X152796750Y-119618738D02*
X152844253Y-119666241D01*
X152844253Y-119666241D02*
X152901134Y-119701982D01*
X152901134Y-119701982D02*
X152964543Y-119724170D01*
X152964543Y-119724170D02*
X153031300Y-119731692D01*
X153031300Y-119731692D02*
X153098056Y-119724170D01*
X153098056Y-119724170D02*
X153161465Y-119701982D01*
X153161465Y-119701982D02*
X153218346Y-119666241D01*
X153218346Y-119666241D02*
X153265849Y-119618738D01*
X153265849Y-119618738D02*
X153301590Y-119561857D01*
X153301590Y-119561857D02*
X153323778Y-119498448D01*
X153323778Y-119498448D02*
X153331300Y-119431692D01*
X153331300Y-119431692D02*
X153331300Y-118316308D01*
X153331300Y-118316308D02*
X153338821Y-118249552D01*
X153338821Y-118249552D02*
X153361009Y-118186143D01*
X153361009Y-118186143D02*
X153396750Y-118129262D01*
X153396750Y-118129262D02*
X153444253Y-118081759D01*
X153444253Y-118081759D02*
X153501134Y-118046018D01*
X153501134Y-118046018D02*
X153564543Y-118023830D01*
X153564543Y-118023830D02*
X153631300Y-118016308D01*
X153631300Y-118016308D02*
X153698056Y-118023830D01*
X153698056Y-118023830D02*
X153761465Y-118046018D01*
X153761465Y-118046018D02*
X153818346Y-118081759D01*
X153818346Y-118081759D02*
X153865849Y-118129262D01*
X153865849Y-118129262D02*
X153901590Y-118186143D01*
X153901590Y-118186143D02*
X153923778Y-118249552D01*
X153923778Y-118249552D02*
X153931300Y-118316308D01*
X153931300Y-118316308D02*
X153931300Y-119431692D01*
X153931300Y-119431692D02*
X153938821Y-119498448D01*
X153938821Y-119498448D02*
X153961009Y-119561857D01*
X153961009Y-119561857D02*
X153996750Y-119618738D01*
X153996750Y-119618738D02*
X154044253Y-119666241D01*
X154044253Y-119666241D02*
X154101134Y-119701982D01*
X154101134Y-119701982D02*
X154164543Y-119724170D01*
X154164543Y-119724170D02*
X154231300Y-119731692D01*
X154231300Y-119731692D02*
X154298056Y-119724170D01*
X154298056Y-119724170D02*
X154361465Y-119701982D01*
X154361465Y-119701982D02*
X154418346Y-119666241D01*
X154418346Y-119666241D02*
X154465849Y-119618738D01*
X154465849Y-119618738D02*
X154501590Y-119561857D01*
X154501590Y-119561857D02*
X154523778Y-119498448D01*
X154523778Y-119498448D02*
X154531300Y-119431692D01*
X154531300Y-119431692D02*
X154531300Y-118316308D01*
X154531300Y-118316308D02*
X154538821Y-118249552D01*
X154561009Y-118186143D02*
X154596750Y-118129262D01*
X154644253Y-118081759D02*
X154701134Y-118046018D01*
X154701134Y-118046018D02*
X154764543Y-118023830D01*
X154764543Y-118023830D02*
X154831300Y-118016308D01*
X154831300Y-118016308D02*
X154898056Y-118023830D01*
X154961465Y-118046018D02*
X155018346Y-118081759D01*
X155018346Y-118081759D02*
X155065849Y-118129262D01*
X155101590Y-118186143D02*
X155123778Y-118249552D01*
X155123778Y-118249552D02*
X155131300Y-118316308D01*
X155131300Y-118316308D02*
X155131300Y-119431692D01*
X155131300Y-119431692D02*
X155138821Y-119498448D01*
X155161009Y-119561857D02*
X155196750Y-119618738D01*
X155196750Y-119618738D02*
X155244253Y-119666241D01*
X155244253Y-119666241D02*
X155301134Y-119701982D01*
X155301134Y-119701982D02*
X155364543Y-119724170D01*
X155364543Y-119724170D02*
X155431300Y-119731692D01*
X155431300Y-119731692D02*
X155498056Y-119724170D01*
X155498056Y-119724170D02*
X155561465Y-119701982D01*
X155561465Y-119701982D02*
X155618346Y-119666241D01*
X155618346Y-119666241D02*
X155665849Y-119618738D01*
X155665849Y-119618738D02*
X155701590Y-119561857D01*
X155701590Y-119561857D02*
X155723778Y-119498448D01*
X155731300Y-118316308D02*
X155738821Y-118249552D01*
X155738821Y-118249552D02*
X155761009Y-118186143D01*
X155761009Y-118186143D02*
X155796750Y-118129262D01*
X155844253Y-118081759D02*
X155901134Y-118046018D01*
X155901134Y-118046018D02*
X155964543Y-118023830D01*
X155964543Y-118023830D02*
X156031300Y-118016308D01*
X156031300Y-118016308D02*
X156098056Y-118023830D01*
X156098056Y-118023830D02*
X156161465Y-118046018D01*
X156161465Y-118046018D02*
X156218346Y-118081759D01*
X156218346Y-118081759D02*
X156265849Y-118129262D01*
X156265849Y-118129262D02*
X156301590Y-118186143D01*
X156301590Y-118186143D02*
X156323778Y-118249552D01*
X156338821Y-119498448D02*
X156361009Y-119561857D01*
X156396750Y-119618738D02*
X156444253Y-119666241D01*
X156444253Y-119666241D02*
X156501134Y-119701982D01*
X230111300Y-102870000D02*
X230111300Y-101600000D01*
X212712300Y-120269000D02*
X230111300Y-102870000D01*
X169156300Y-120269000D02*
X212712300Y-120269000D01*
X168969253Y-120334450D02*
X169026134Y-120298709D01*
X168856300Y-120705255D02*
X168856300Y-120569000D01*
X168848778Y-120772011D02*
X168856300Y-120705255D01*
X168826590Y-120835420D02*
X168848778Y-120772011D01*
X168790849Y-120892301D02*
X168826590Y-120835420D01*
X168743346Y-120939804D02*
X168790849Y-120892301D01*
X168686465Y-120975545D02*
X168743346Y-120939804D01*
X168556300Y-121005255D02*
X168623056Y-120997733D01*
X168489543Y-120997733D02*
X168556300Y-121005255D01*
X168321750Y-120892301D02*
X168369253Y-120939804D01*
X168263821Y-120772011D02*
X168286009Y-120835420D01*
X168256300Y-120705255D02*
X168263821Y-120772011D01*
X168256300Y-119832745D02*
X168256300Y-120705255D01*
X168226590Y-119702580D02*
X168248778Y-119765989D01*
X168190849Y-119645699D02*
X168226590Y-119702580D01*
X168086465Y-119562455D02*
X168143346Y-119598196D01*
X167826134Y-119562455D02*
X167889543Y-119540267D01*
X167769253Y-119598196D02*
X167826134Y-119562455D01*
X167721750Y-119645699D02*
X167769253Y-119598196D01*
X167686009Y-119702580D02*
X167721750Y-119645699D01*
X167663821Y-119765989D02*
X167686009Y-119702580D01*
X167656300Y-119832745D02*
X167663821Y-119765989D01*
X167648778Y-120772011D02*
X167656300Y-120705255D01*
X167626590Y-120835420D02*
X167648778Y-120772011D01*
X167590849Y-120892301D02*
X167626590Y-120835420D01*
X167543346Y-120939804D02*
X167590849Y-120892301D01*
X167486465Y-120975545D02*
X167543346Y-120939804D01*
X167423056Y-120997733D02*
X167486465Y-120975545D01*
X167356300Y-121005255D02*
X167423056Y-120997733D01*
X167289543Y-120997733D02*
X167356300Y-121005255D01*
X167121750Y-120892301D02*
X167169253Y-120939804D01*
X167086009Y-120835420D02*
X167121750Y-120892301D01*
X167063821Y-120772011D02*
X167086009Y-120835420D01*
X167056300Y-120705255D02*
X167063821Y-120772011D01*
X167056300Y-119832745D02*
X167056300Y-120705255D01*
X167048778Y-119765989D02*
X167056300Y-119832745D01*
X167026590Y-119702580D02*
X167048778Y-119765989D01*
X166990849Y-119645699D02*
X167026590Y-119702580D01*
X166886465Y-119562455D02*
X166943346Y-119598196D01*
X166426590Y-120835420D02*
X166448778Y-120772011D01*
X161656300Y-120705255D02*
X161656300Y-119832745D01*
X161626590Y-120835420D02*
X161648778Y-120772011D01*
X168143346Y-119598196D02*
X168190849Y-119645699D01*
X161423056Y-120997733D02*
X161486465Y-120975545D01*
X168921750Y-120381953D02*
X168969253Y-120334450D01*
X161289543Y-120997733D02*
X161356300Y-121005255D01*
X168863821Y-120502243D02*
X168886009Y-120438834D01*
X161226134Y-120975545D02*
X161289543Y-120997733D01*
X167889543Y-119540267D02*
X167956300Y-119532745D01*
X161169253Y-120939804D02*
X161226134Y-120975545D01*
X167656300Y-120705255D02*
X167656300Y-119832745D01*
X161086009Y-120835420D02*
X161121750Y-120892301D01*
X168856300Y-120569000D02*
X168863821Y-120502243D01*
X161056300Y-120705255D02*
X161063821Y-120772011D01*
X166756300Y-119532745D02*
X166823056Y-119540267D01*
X161048778Y-119765989D02*
X161056300Y-119832745D01*
X166026134Y-120975545D02*
X166089543Y-120997733D01*
X161026590Y-119702580D02*
X161048778Y-119765989D01*
X166343346Y-120939804D02*
X166390849Y-120892301D01*
X160990849Y-119645699D02*
X161026590Y-119702580D01*
X168623056Y-120997733D02*
X168686465Y-120975545D01*
X160943346Y-119598196D02*
X160990849Y-119645699D01*
X169089543Y-120276521D02*
X169156300Y-120269000D01*
X160886465Y-119562455D02*
X160943346Y-119598196D01*
X166689543Y-119540267D02*
X166756300Y-119532745D01*
X160756300Y-119532745D02*
X160823056Y-119540267D01*
X166569253Y-119598196D02*
X166626134Y-119562455D01*
X160569253Y-119598196D02*
X160626134Y-119562455D01*
X166286465Y-120975545D02*
X166343346Y-120939804D01*
X160521750Y-119645699D02*
X160569253Y-119598196D01*
X160689543Y-119540267D02*
X160756300Y-119532745D01*
X165686465Y-119562455D02*
X165743346Y-119598196D01*
X166943346Y-119598196D02*
X166990849Y-119645699D01*
X160486009Y-119702580D02*
X160521750Y-119645699D01*
X166626134Y-119562455D02*
X166689543Y-119540267D01*
X160463821Y-119765989D02*
X160486009Y-119702580D01*
X168426134Y-120975545D02*
X168489543Y-120997733D01*
X160456300Y-119832745D02*
X160463821Y-119765989D01*
X166463821Y-119765989D02*
X166486009Y-119702580D01*
X160426590Y-120835420D02*
X160448778Y-120772011D01*
X164626590Y-119702580D02*
X164648778Y-119765989D01*
X160390849Y-120892301D02*
X160426590Y-120835420D01*
X161056300Y-119832745D02*
X161056300Y-120705255D01*
X164721750Y-120892301D02*
X164769253Y-120939804D01*
X161721750Y-119645699D02*
X161769253Y-119598196D01*
X160823056Y-119540267D02*
X160886465Y-119562455D01*
X165256300Y-119832745D02*
X165263821Y-119765989D01*
X166156300Y-121005255D02*
X166223056Y-120997733D01*
X160089543Y-120997733D02*
X160156300Y-121005255D01*
X164289543Y-119540267D02*
X164356300Y-119532745D01*
X159921750Y-120892301D02*
X159969253Y-120939804D01*
X168286009Y-120835420D02*
X168321750Y-120892301D01*
X161486465Y-120975545D02*
X161543346Y-120939804D01*
X165256300Y-120705255D02*
X165256300Y-119832745D01*
X160026134Y-120975545D02*
X160089543Y-120997733D01*
X165826590Y-119702580D02*
X165848778Y-119765989D01*
X161590849Y-120892301D02*
X161626590Y-120835420D01*
X161889543Y-119540267D02*
X161956300Y-119532745D01*
X168886009Y-120438834D02*
X168921750Y-120381953D01*
X160156300Y-121005255D02*
X160223056Y-120997733D01*
X163026134Y-119562455D02*
X163089543Y-119540267D01*
X166456300Y-119832745D02*
X166463821Y-119765989D01*
X159743346Y-119598196D02*
X159790849Y-119645699D01*
X160626134Y-119562455D02*
X160689543Y-119540267D01*
X164956300Y-121005255D02*
X165023056Y-120997733D01*
X158686009Y-120835420D02*
X158721750Y-120892301D01*
X165743346Y-119598196D02*
X165790849Y-119645699D01*
X166521750Y-119645699D02*
X166569253Y-119598196D01*
X159848778Y-119765989D02*
X159856300Y-119832745D01*
X161686009Y-119702580D02*
X161721750Y-119645699D01*
X158656300Y-120705255D02*
X158663821Y-120772011D01*
X158769253Y-120939804D02*
X158826134Y-120975545D01*
X164686009Y-120835420D02*
X164721750Y-120892301D01*
X161648778Y-120772011D02*
X161656300Y-120705255D01*
X158663821Y-120772011D02*
X158686009Y-120835420D01*
X165190849Y-120892301D02*
X165226590Y-120835420D01*
X166486009Y-119702580D02*
X166521750Y-119645699D01*
X159863821Y-120772011D02*
X159886009Y-120835420D01*
X160343346Y-120939804D02*
X160390849Y-120892301D01*
X164226134Y-119562455D02*
X164289543Y-119540267D01*
X161956300Y-119532745D02*
X162023056Y-119540267D01*
X160456300Y-120705255D02*
X160456300Y-119832745D01*
X165921750Y-120892301D02*
X165969253Y-120939804D01*
X165023056Y-120997733D02*
X165086465Y-120975545D01*
X158543346Y-120334450D02*
X158590849Y-120381953D01*
X169026134Y-120298709D02*
X169089543Y-120276521D01*
X161356300Y-121005255D02*
X161423056Y-120997733D01*
X159190849Y-120892301D02*
X159226590Y-120835420D01*
X163286465Y-119562455D02*
X163343346Y-119598196D01*
X158656300Y-120569000D02*
X158656300Y-120705255D01*
X161663821Y-119765989D02*
X161686009Y-119702580D01*
X168369253Y-120939804D02*
X168426134Y-120975545D01*
X159856300Y-119832745D02*
X159856300Y-120705255D01*
X161656300Y-119832745D02*
X161663821Y-119765989D01*
X165886009Y-120835420D02*
X165921750Y-120892301D01*
X158486465Y-120298709D02*
X158543346Y-120334450D01*
X164543346Y-119598196D02*
X164590849Y-119645699D01*
X161063821Y-120772011D02*
X161086009Y-120835420D01*
X165856300Y-120705255D02*
X165863821Y-120772011D01*
X161769253Y-119598196D02*
X161826134Y-119562455D01*
X160286465Y-120975545D02*
X160343346Y-120939804D01*
X164826134Y-120975545D02*
X164889543Y-120997733D01*
X161826134Y-119562455D02*
X161889543Y-119540267D01*
X159226590Y-120835420D02*
X159248778Y-120772011D01*
X167169253Y-120939804D02*
X167226134Y-120975545D01*
X159969253Y-120939804D02*
X160026134Y-120975545D01*
X162686465Y-120975545D02*
X162743346Y-120939804D01*
X166089543Y-120997733D02*
X166156300Y-121005255D01*
X159686465Y-119562455D02*
X159743346Y-119598196D01*
X158648778Y-120502243D02*
X158656300Y-120569000D01*
X165321750Y-119645699D02*
X165369253Y-119598196D01*
X166223056Y-120997733D02*
X166286465Y-120975545D01*
X159086465Y-120975545D02*
X159143346Y-120939804D01*
X164656300Y-119832745D02*
X164656300Y-120705255D01*
X163156300Y-119532745D02*
X163223056Y-119540267D01*
X159143346Y-120939804D02*
X159190849Y-120892301D01*
X146037300Y-129286000D02*
X146037300Y-122697875D01*
X165790849Y-119645699D02*
X165826590Y-119702580D01*
X166823056Y-119540267D02*
X166886465Y-119562455D01*
X159256300Y-120705255D02*
X159256300Y-119832745D01*
X165969253Y-120939804D02*
X166026134Y-120975545D01*
X158721750Y-120892301D02*
X158769253Y-120939804D01*
X165143346Y-120939804D02*
X165190849Y-120892301D01*
X158626590Y-120438834D02*
X158648778Y-120502243D01*
X164769253Y-120939804D02*
X164826134Y-120975545D01*
X165556300Y-119532745D02*
X165623056Y-119540267D01*
X159286009Y-119702580D02*
X159321750Y-119645699D01*
X165286009Y-119702580D02*
X165321750Y-119645699D01*
X167226134Y-120975545D02*
X167289543Y-120997733D01*
X160448778Y-120772011D02*
X160456300Y-120705255D01*
X164086009Y-119702580D02*
X164121750Y-119645699D01*
X164486465Y-119562455D02*
X164543346Y-119598196D01*
X165263821Y-119765989D02*
X165286009Y-119702580D01*
X159426134Y-119562455D02*
X159489543Y-119540267D01*
X148466175Y-120269000D02*
X158356300Y-120269000D01*
X164656300Y-120705255D02*
X164663821Y-120772011D01*
X166390849Y-120892301D02*
X166426590Y-120835420D01*
X159489543Y-119540267D02*
X159556300Y-119532745D01*
X165863821Y-120772011D02*
X165886009Y-120835420D01*
X166448778Y-120772011D02*
X166456300Y-120705255D01*
X159556300Y-119532745D02*
X159623056Y-119540267D01*
X158889543Y-120997733D02*
X158956300Y-121005255D01*
X164423056Y-119540267D02*
X164486465Y-119562455D01*
X166456300Y-120705255D02*
X166456300Y-119832745D01*
X159623056Y-119540267D02*
X159686465Y-119562455D01*
X161121750Y-120892301D02*
X161169253Y-120939804D01*
X165489543Y-119540267D02*
X165556300Y-119532745D01*
X168248778Y-119765989D02*
X168256300Y-119832745D01*
X159886009Y-120835420D02*
X159921750Y-120892301D01*
X168023056Y-119540267D02*
X168086465Y-119562455D01*
X159826590Y-119702580D02*
X159848778Y-119765989D01*
X167956300Y-119532745D02*
X168023056Y-119540267D01*
X159856300Y-120705255D02*
X159863821Y-120772011D01*
X162023056Y-119540267D02*
X162086465Y-119562455D01*
X162086465Y-119562455D02*
X162143346Y-119598196D01*
X162143346Y-119598196D02*
X162190849Y-119645699D01*
X138658600Y-133985000D02*
X138912600Y-133731000D01*
X162190849Y-119645699D02*
X162226590Y-119702580D01*
X162226590Y-119702580D02*
X162248778Y-119765989D01*
X158356300Y-120269000D02*
X158423056Y-120276521D01*
X162248778Y-119765989D02*
X162256300Y-119832745D01*
X162256300Y-119832745D02*
X162256300Y-120705255D01*
X162256300Y-120705255D02*
X162263821Y-120772011D01*
X162263821Y-120772011D02*
X162286009Y-120835420D01*
X162286009Y-120835420D02*
X162321750Y-120892301D01*
X162321750Y-120892301D02*
X162369253Y-120939804D01*
X162369253Y-120939804D02*
X162426134Y-120975545D01*
X162426134Y-120975545D02*
X162489543Y-120997733D01*
X162489543Y-120997733D02*
X162556300Y-121005255D01*
X162556300Y-121005255D02*
X162623056Y-120997733D01*
X162623056Y-120997733D02*
X162686465Y-120975545D01*
X162743346Y-120939804D02*
X162790849Y-120892301D01*
X162790849Y-120892301D02*
X162826590Y-120835420D01*
X146037300Y-122697875D02*
X148466175Y-120269000D01*
X162826590Y-120835420D02*
X162848778Y-120772011D01*
X162848778Y-120772011D02*
X162856300Y-120705255D01*
X162856300Y-120705255D02*
X162856300Y-119832745D01*
X162856300Y-119832745D02*
X162863821Y-119765989D01*
X162863821Y-119765989D02*
X162886009Y-119702580D01*
X162886009Y-119702580D02*
X162921750Y-119645699D01*
X162921750Y-119645699D02*
X162969253Y-119598196D01*
X162969253Y-119598196D02*
X163026134Y-119562455D01*
X163089543Y-119540267D02*
X163156300Y-119532745D01*
X163223056Y-119540267D02*
X163286465Y-119562455D01*
X163343346Y-119598196D02*
X163390849Y-119645699D01*
X163390849Y-119645699D02*
X163426590Y-119702580D01*
X163426590Y-119702580D02*
X163448778Y-119765989D01*
X163448778Y-119765989D02*
X163456300Y-119832745D01*
X163456300Y-119832745D02*
X163456300Y-120705255D01*
X158956300Y-121005255D02*
X159023056Y-120997733D01*
X163456300Y-120705255D02*
X163463821Y-120772011D01*
X159321750Y-119645699D02*
X159369253Y-119598196D01*
X163463821Y-120772011D02*
X163486009Y-120835420D01*
X163486009Y-120835420D02*
X163521750Y-120892301D01*
X163521750Y-120892301D02*
X163569253Y-120939804D01*
X163569253Y-120939804D02*
X163626134Y-120975545D01*
X163626134Y-120975545D02*
X163689543Y-120997733D01*
X163689543Y-120997733D02*
X163756300Y-121005255D01*
X163756300Y-121005255D02*
X163823056Y-120997733D01*
X163823056Y-120997733D02*
X163886465Y-120975545D01*
X163886465Y-120975545D02*
X163943346Y-120939804D01*
X163943346Y-120939804D02*
X163990849Y-120892301D01*
X158826134Y-120975545D02*
X158889543Y-120997733D01*
X163990849Y-120892301D02*
X164026590Y-120835420D01*
X164026590Y-120835420D02*
X164048778Y-120772011D01*
X164048778Y-120772011D02*
X164056300Y-120705255D01*
X164056300Y-120705255D02*
X164056300Y-119832745D01*
X164056300Y-119832745D02*
X164063821Y-119765989D01*
X164063821Y-119765989D02*
X164086009Y-119702580D01*
X164121750Y-119645699D02*
X164169253Y-119598196D01*
X159248778Y-120772011D02*
X159256300Y-120705255D01*
X164169253Y-119598196D02*
X164226134Y-119562455D01*
X164356300Y-119532745D02*
X164423056Y-119540267D01*
X164590849Y-119645699D02*
X164626590Y-119702580D01*
X159263821Y-119765989D02*
X159286009Y-119702580D01*
X164648778Y-119765989D02*
X164656300Y-119832745D01*
X138912600Y-133731000D02*
X141592300Y-133731000D01*
X164663821Y-120772011D02*
X164686009Y-120835420D01*
X158590849Y-120381953D02*
X158626590Y-120438834D01*
X164889543Y-120997733D02*
X164956300Y-121005255D01*
X159256300Y-119832745D02*
X159263821Y-119765989D01*
X165086465Y-120975545D02*
X165143346Y-120939804D01*
X158423056Y-120276521D02*
X158486465Y-120298709D01*
X165226590Y-120835420D02*
X165248778Y-120772011D01*
X160223056Y-120997733D02*
X160286465Y-120975545D01*
X165248778Y-120772011D02*
X165256300Y-120705255D01*
X159023056Y-120997733D02*
X159086465Y-120975545D01*
X165369253Y-119598196D02*
X165426134Y-119562455D01*
X141592300Y-133731000D02*
X146037300Y-129286000D01*
X165426134Y-119562455D02*
X165489543Y-119540267D01*
X159369253Y-119598196D02*
X159426134Y-119562455D01*
X165623056Y-119540267D02*
X165686465Y-119562455D01*
X159790849Y-119645699D02*
X159826590Y-119702580D01*
X165848778Y-119765989D02*
X165856300Y-119832745D01*
X161543346Y-120939804D02*
X161590849Y-120892301D01*
X165856300Y-119832745D02*
X165856300Y-120705255D01*
X171759300Y-122021390D02*
X171759300Y-121839000D01*
X171751778Y-122088146D02*
X171759300Y-122021390D01*
X171729590Y-122151555D02*
X171751778Y-122088146D01*
X171693849Y-122208436D02*
X171729590Y-122151555D01*
X171646346Y-122255939D02*
X171693849Y-122208436D01*
X171589465Y-122291680D02*
X171646346Y-122255939D01*
X171526056Y-122313868D02*
X171589465Y-122291680D01*
X171459300Y-122321390D02*
X171526056Y-122313868D01*
X171392543Y-122313868D02*
X171459300Y-122321390D01*
X171329134Y-122291680D02*
X171392543Y-122313868D01*
X171272253Y-122255939D02*
X171329134Y-122291680D01*
X171224750Y-122208436D02*
X171272253Y-122255939D01*
X171189009Y-122151555D02*
X171224750Y-122208436D01*
X171166821Y-122088146D02*
X171189009Y-122151555D01*
X171159300Y-122021390D02*
X171166821Y-122088146D01*
X171159300Y-121272805D02*
X171159300Y-122021390D01*
X171152625Y-121213572D02*
X171159300Y-121272805D01*
X171132938Y-121157308D02*
X171152625Y-121213572D01*
X171101224Y-121106836D02*
X171132938Y-121157308D01*
X171059074Y-121064686D02*
X171101224Y-121106836D01*
X171008602Y-121032972D02*
X171059074Y-121064686D01*
X170952338Y-121013285D02*
X171008602Y-121032972D01*
X170893105Y-121006610D02*
X170952338Y-121013285D01*
X170825495Y-121006610D02*
X170893105Y-121006610D01*
X170766261Y-121013285D02*
X170825495Y-121006610D01*
X170709997Y-121032972D02*
X170766261Y-121013285D01*
X170659525Y-121064686D02*
X170709997Y-121032972D01*
X170617375Y-121106836D02*
X170659525Y-121064686D01*
X170585661Y-121157308D02*
X170617375Y-121106836D01*
X170565974Y-121213572D02*
X170585661Y-121157308D01*
X170559300Y-121272805D02*
X170565974Y-121213572D01*
X170559300Y-122021390D02*
X170559300Y-121272805D01*
X170551778Y-122088146D02*
X170559300Y-122021390D01*
X170529590Y-122151555D02*
X170551778Y-122088146D01*
X170493849Y-122208436D02*
X170529590Y-122151555D01*
X170446346Y-122255939D02*
X170493849Y-122208436D01*
X170389465Y-122291680D02*
X170446346Y-122255939D01*
X170326056Y-122313868D02*
X170389465Y-122291680D01*
X170259300Y-122321390D02*
X170326056Y-122313868D01*
X170192543Y-122313868D02*
X170259300Y-122321390D01*
X170129134Y-122291680D02*
X170192543Y-122313868D01*
X170072253Y-122255939D02*
X170129134Y-122291680D01*
X170024750Y-122208436D02*
X170072253Y-122255939D01*
X169989009Y-122151555D02*
X170024750Y-122208436D01*
X169966821Y-122088146D02*
X169989009Y-122151555D01*
X169959300Y-122021390D02*
X169966821Y-122088146D01*
X169959300Y-121839000D02*
X169959300Y-122021390D01*
X169951778Y-121772243D02*
X169959300Y-121839000D01*
X169929590Y-121708834D02*
X169951778Y-121772243D01*
X169893849Y-121651953D02*
X169929590Y-121708834D01*
X169846346Y-121604450D02*
X169893849Y-121651953D01*
X169789465Y-121568709D02*
X169846346Y-121604450D01*
X169726056Y-121546521D02*
X169789465Y-121568709D01*
X169659300Y-121539000D02*
X169726056Y-121546521D01*
X157704300Y-121539000D02*
X169659300Y-121539000D01*
X157637543Y-121531479D02*
X157704300Y-121539000D01*
X157574134Y-121509291D02*
X157637543Y-121531479D01*
X157517253Y-121473550D02*
X157574134Y-121509291D01*
X157469750Y-121426047D02*
X157517253Y-121473550D01*
X157434009Y-121369166D02*
X157469750Y-121426047D01*
X157411821Y-121305757D02*
X157434009Y-121369166D01*
X157404300Y-121239000D02*
X157411821Y-121305757D01*
X157404300Y-121116602D02*
X157404300Y-121239000D01*
X157396778Y-121049846D02*
X157404300Y-121116602D01*
X157374590Y-120986437D02*
X157396778Y-121049846D01*
X157338849Y-120929556D02*
X157374590Y-120986437D01*
X157291346Y-120882053D02*
X157338849Y-120929556D01*
X157234465Y-120846312D02*
X157291346Y-120882053D01*
X157171056Y-120824124D02*
X157234465Y-120846312D01*
X157104300Y-120816602D02*
X157171056Y-120824124D01*
X157037543Y-120824124D02*
X157104300Y-120816602D01*
X156974134Y-120846312D02*
X157037543Y-120824124D01*
X156917253Y-120882053D02*
X156974134Y-120846312D01*
X156869750Y-120929556D02*
X156917253Y-120882053D01*
X156834009Y-120986437D02*
X156869750Y-120929556D01*
X156811821Y-121049846D02*
X156834009Y-120986437D01*
X156804300Y-121116602D02*
X156811821Y-121049846D01*
X156804300Y-122211398D02*
X156804300Y-121116602D01*
X156796778Y-122278154D02*
X156804300Y-122211398D01*
X156774590Y-122341563D02*
X156796778Y-122278154D01*
X156738849Y-122398444D02*
X156774590Y-122341563D01*
X156691346Y-122445947D02*
X156738849Y-122398444D01*
X156634465Y-122481688D02*
X156691346Y-122445947D01*
X156571056Y-122503876D02*
X156634465Y-122481688D01*
X156504300Y-122511398D02*
X156571056Y-122503876D01*
X156437543Y-122503876D02*
X156504300Y-122511398D01*
X156374134Y-122481688D02*
X156437543Y-122503876D01*
X152304300Y-120816602D02*
X152371056Y-120824124D01*
X152237543Y-120824124D02*
X152304300Y-120816602D01*
X152174134Y-120846312D02*
X152237543Y-120824124D01*
X152117253Y-120882053D02*
X152174134Y-120846312D01*
X152034009Y-120986437D02*
X152069750Y-120929556D01*
X152011821Y-121049846D02*
X152034009Y-120986437D01*
X152004300Y-122211398D02*
X152004300Y-121116602D01*
X151996778Y-122278154D02*
X152004300Y-122211398D01*
X151974590Y-122341563D02*
X151996778Y-122278154D01*
X151938849Y-122398444D02*
X151974590Y-122341563D01*
X151771056Y-122503876D02*
X151834465Y-122481688D01*
X151637543Y-122503876D02*
X151704300Y-122511398D01*
X151574134Y-122481688D02*
X151637543Y-122503876D01*
X151517253Y-122445947D02*
X151574134Y-122481688D01*
X151469750Y-122398444D02*
X151517253Y-122445947D01*
X151434009Y-122341563D02*
X151469750Y-122398444D01*
X171766821Y-121772243D02*
X171789009Y-121708834D01*
X151411821Y-122278154D02*
X151434009Y-122341563D01*
X151404300Y-121116602D02*
X151404300Y-122211398D01*
X151338849Y-120929556D02*
X151374590Y-120986437D01*
X151104300Y-120816602D02*
X151171056Y-120824124D01*
X150974134Y-120846312D02*
X151037543Y-120824124D01*
X150834009Y-120986437D02*
X150869750Y-120929556D01*
X150811821Y-121049846D02*
X150834009Y-120986437D01*
X150804300Y-121116602D02*
X150811821Y-121049846D01*
X171929134Y-121568709D02*
X171992543Y-121546521D01*
X150804300Y-122211398D02*
X150804300Y-121116602D01*
X150774590Y-122341563D02*
X150796778Y-122278154D01*
X150738849Y-122398444D02*
X150774590Y-122341563D01*
X150504300Y-122511398D02*
X150571056Y-122503876D01*
X150374134Y-122481688D02*
X150437543Y-122503876D01*
X155837543Y-120824124D02*
X155904300Y-120816602D01*
X150317253Y-122445947D02*
X150374134Y-122481688D01*
X150269750Y-122398444D02*
X150317253Y-122445947D01*
X151291346Y-120882053D02*
X151338849Y-120929556D01*
X149371056Y-122503876D02*
X149434465Y-122481688D01*
X150796778Y-122278154D02*
X150804300Y-122211398D01*
X149304300Y-122511398D02*
X149371056Y-122503876D01*
X149174134Y-122481688D02*
X149237543Y-122503876D01*
X172059300Y-121539000D02*
X228587300Y-121539000D01*
X151834465Y-122481688D02*
X151891346Y-122445947D01*
X149034009Y-122341563D02*
X149069750Y-122398444D01*
X152004300Y-121116602D02*
X152011821Y-121049846D01*
X149117253Y-122445947D02*
X149174134Y-122481688D01*
X149634009Y-120986437D02*
X149669750Y-120929556D01*
X149069750Y-122398444D02*
X149117253Y-122445947D01*
X149237543Y-122503876D02*
X149304300Y-122511398D01*
X152069750Y-120929556D02*
X152117253Y-120882053D01*
X149011821Y-122278154D02*
X149034009Y-122341563D01*
X156196778Y-121049846D02*
X156204300Y-121116602D01*
X149004300Y-122211398D02*
X149011821Y-122278154D01*
X151374590Y-120986437D02*
X151396778Y-121049846D01*
X139319000Y-136271000D02*
X141592300Y-136271000D01*
X155669750Y-120929556D02*
X155717253Y-120882053D01*
X149004300Y-121839000D02*
X149004300Y-122211398D01*
X156211821Y-122278154D02*
X156234009Y-122341563D01*
X148974590Y-121708834D02*
X148996778Y-121772243D01*
X149669750Y-120929556D02*
X149717253Y-120882053D01*
X228587300Y-121539000D02*
X230111300Y-123063000D01*
X151171056Y-120824124D02*
X151234465Y-120846312D01*
X141592300Y-136271000D02*
X147307300Y-130556000D01*
X147307300Y-130556000D02*
X147307300Y-122682000D01*
X150571056Y-122503876D02*
X150634465Y-122481688D01*
X149971056Y-120824124D02*
X150034465Y-120846312D01*
X150917253Y-120882053D02*
X150974134Y-120846312D01*
X138658600Y-136931400D02*
X139319000Y-136271000D01*
X148704300Y-121539000D02*
X148771056Y-121546521D01*
X156091346Y-120882053D02*
X156138849Y-120929556D01*
X151891346Y-122445947D02*
X151938849Y-122398444D01*
X148771056Y-121546521D02*
X148834465Y-121568709D01*
X155604300Y-121116602D02*
X155611821Y-121049846D01*
X147307300Y-122682000D02*
X148450300Y-121539000D01*
X151704300Y-122511398D02*
X151771056Y-122503876D01*
X148891346Y-121604450D02*
X148938849Y-121651953D01*
X156269750Y-122398444D02*
X156317253Y-122445947D01*
X148450300Y-121539000D02*
X148704300Y-121539000D01*
X148996778Y-121772243D02*
X149004300Y-121839000D01*
X148938849Y-121651953D02*
X148974590Y-121708834D01*
X150691346Y-122445947D02*
X150738849Y-122398444D01*
X150204300Y-122211398D02*
X150211821Y-122278154D01*
X148834465Y-121568709D02*
X148891346Y-121604450D01*
X149434465Y-122481688D02*
X149491346Y-122445947D01*
X150634465Y-122481688D02*
X150691346Y-122445947D01*
X149491346Y-122445947D02*
X149538849Y-122398444D01*
X155774134Y-120846312D02*
X155837543Y-120824124D01*
X151396778Y-121049846D02*
X151404300Y-121116602D01*
X149538849Y-122398444D02*
X149574590Y-122341563D01*
X149574590Y-122341563D02*
X149596778Y-122278154D01*
X149837543Y-120824124D02*
X149904300Y-120816602D01*
X149596778Y-122278154D02*
X149604300Y-122211398D01*
X150869750Y-120929556D02*
X150917253Y-120882053D01*
X149604300Y-122211398D02*
X149604300Y-121116602D01*
X156204300Y-121116602D02*
X156204300Y-122211398D01*
X151234465Y-120846312D02*
X151291346Y-120882053D01*
X149604300Y-121116602D02*
X149611821Y-121049846D01*
X155717253Y-120882053D02*
X155774134Y-120846312D01*
X149904300Y-120816602D02*
X149971056Y-120824124D01*
X156317253Y-122445947D02*
X156374134Y-122481688D01*
X151404300Y-122211398D02*
X151411821Y-122278154D01*
X149611821Y-121049846D02*
X149634009Y-120986437D01*
X150437543Y-122503876D02*
X150504300Y-122511398D01*
X149717253Y-120882053D02*
X149774134Y-120846312D01*
X156034465Y-120846312D02*
X156091346Y-120882053D01*
X149774134Y-120846312D02*
X149837543Y-120824124D01*
X150034465Y-120846312D02*
X150091346Y-120882053D01*
X150091346Y-120882053D02*
X150138849Y-120929556D01*
X150138849Y-120929556D02*
X150174590Y-120986437D01*
X151037543Y-120824124D02*
X151104300Y-120816602D01*
X150174590Y-120986437D02*
X150196778Y-121049846D01*
X150196778Y-121049846D02*
X150204300Y-121116602D01*
X155971056Y-120824124D02*
X156034465Y-120846312D01*
X150204300Y-121116602D02*
X150204300Y-122211398D01*
X150211821Y-122278154D02*
X150234009Y-122341563D01*
X155611821Y-121049846D02*
X155634009Y-120986437D01*
X150234009Y-122341563D02*
X150269750Y-122398444D01*
X156174590Y-120986437D02*
X156196778Y-121049846D01*
X152371056Y-120824124D02*
X152434465Y-120846312D01*
X152434465Y-120846312D02*
X152491346Y-120882053D01*
X152491346Y-120882053D02*
X152538849Y-120929556D01*
X152538849Y-120929556D02*
X152574590Y-120986437D01*
X152574590Y-120986437D02*
X152596778Y-121049846D01*
X152596778Y-121049846D02*
X152604300Y-121116602D01*
X152604300Y-121116602D02*
X152604300Y-122211398D01*
X152604300Y-122211398D02*
X152611821Y-122278154D01*
X152611821Y-122278154D02*
X152634009Y-122341563D01*
X152634009Y-122341563D02*
X152669750Y-122398444D01*
X152669750Y-122398444D02*
X152717253Y-122445947D01*
X152717253Y-122445947D02*
X152774134Y-122481688D01*
X171824750Y-121651953D02*
X171872253Y-121604450D01*
X152774134Y-122481688D02*
X152837543Y-122503876D01*
X152837543Y-122503876D02*
X152904300Y-122511398D01*
X152904300Y-122511398D02*
X152971056Y-122503876D01*
X152971056Y-122503876D02*
X153034465Y-122481688D01*
X153034465Y-122481688D02*
X153091346Y-122445947D01*
X153091346Y-122445947D02*
X153138849Y-122398444D01*
X153138849Y-122398444D02*
X153174590Y-122341563D01*
X153174590Y-122341563D02*
X153196778Y-122278154D01*
X153196778Y-122278154D02*
X153204300Y-122211398D01*
X153204300Y-122211398D02*
X153204300Y-121116602D01*
X153204300Y-121116602D02*
X153211821Y-121049846D01*
X153211821Y-121049846D02*
X153234009Y-120986437D01*
X153234009Y-120986437D02*
X153269750Y-120929556D01*
X153269750Y-120929556D02*
X153317253Y-120882053D01*
X153317253Y-120882053D02*
X153374134Y-120846312D01*
X171992543Y-121546521D02*
X172059300Y-121539000D01*
X153374134Y-120846312D02*
X153437543Y-120824124D01*
X153437543Y-120824124D02*
X153504300Y-120816602D01*
X153504300Y-120816602D02*
X153571056Y-120824124D01*
X153571056Y-120824124D02*
X153634465Y-120846312D01*
X153634465Y-120846312D02*
X153691346Y-120882053D01*
X153691346Y-120882053D02*
X153738849Y-120929556D01*
X153738849Y-120929556D02*
X153774590Y-120986437D01*
X153774590Y-120986437D02*
X153796778Y-121049846D01*
X153796778Y-121049846D02*
X153804300Y-121116602D01*
X153804300Y-121116602D02*
X153804300Y-122211398D01*
X153804300Y-122211398D02*
X153811821Y-122278154D01*
X153811821Y-122278154D02*
X153834009Y-122341563D01*
X153834009Y-122341563D02*
X153869750Y-122398444D01*
X153869750Y-122398444D02*
X153917253Y-122445947D01*
X230111300Y-123063000D02*
X230111300Y-127000000D01*
X153917253Y-122445947D02*
X153974134Y-122481688D01*
X153974134Y-122481688D02*
X154037543Y-122503876D01*
X154037543Y-122503876D02*
X154104300Y-122511398D01*
X171789009Y-121708834D02*
X171824750Y-121651953D01*
X154104300Y-122511398D02*
X154171056Y-122503876D01*
X154171056Y-122503876D02*
X154234465Y-122481688D01*
X154234465Y-122481688D02*
X154291346Y-122445947D01*
X154291346Y-122445947D02*
X154338849Y-122398444D01*
X154338849Y-122398444D02*
X154374590Y-122341563D01*
X154374590Y-122341563D02*
X154396778Y-122278154D01*
X154396778Y-122278154D02*
X154404300Y-122211398D01*
X154404300Y-122211398D02*
X154404300Y-121116602D01*
X154404300Y-121116602D02*
X154411821Y-121049846D01*
X154411821Y-121049846D02*
X154434009Y-120986437D01*
X154434009Y-120986437D02*
X154469750Y-120929556D01*
X154469750Y-120929556D02*
X154517253Y-120882053D01*
X154517253Y-120882053D02*
X154574134Y-120846312D01*
X154574134Y-120846312D02*
X154637543Y-120824124D01*
X154637543Y-120824124D02*
X154704300Y-120816602D01*
X154704300Y-120816602D02*
X154771056Y-120824124D01*
X171872253Y-121604450D02*
X171929134Y-121568709D01*
X154771056Y-120824124D02*
X154834465Y-120846312D01*
X154834465Y-120846312D02*
X154891346Y-120882053D01*
X154891346Y-120882053D02*
X154938849Y-120929556D01*
X154938849Y-120929556D02*
X154974590Y-120986437D01*
X154974590Y-120986437D02*
X154996778Y-121049846D01*
X154996778Y-121049846D02*
X155004300Y-121116602D01*
X155004300Y-121116602D02*
X155004300Y-122211398D01*
X155004300Y-122211398D02*
X155011821Y-122278154D01*
X155011821Y-122278154D02*
X155034009Y-122341563D01*
X155034009Y-122341563D02*
X155069750Y-122398444D01*
X155069750Y-122398444D02*
X155117253Y-122445947D01*
X155117253Y-122445947D02*
X155174134Y-122481688D01*
X155174134Y-122481688D02*
X155237543Y-122503876D01*
X155237543Y-122503876D02*
X155304300Y-122511398D01*
X155304300Y-122511398D02*
X155371056Y-122503876D01*
X155371056Y-122503876D02*
X155434465Y-122481688D01*
X155434465Y-122481688D02*
X155491346Y-122445947D01*
X155491346Y-122445947D02*
X155538849Y-122398444D01*
X155538849Y-122398444D02*
X155574590Y-122341563D01*
X155574590Y-122341563D02*
X155596778Y-122278154D01*
X171759300Y-121839000D02*
X171766821Y-121772243D01*
X155596778Y-122278154D02*
X155604300Y-122211398D01*
X155604300Y-122211398D02*
X155604300Y-121116602D01*
X155634009Y-120986437D02*
X155669750Y-120929556D01*
X155904300Y-120816602D02*
X155971056Y-120824124D01*
X156138849Y-120929556D02*
X156174590Y-120986437D01*
X156204300Y-122211398D02*
X156211821Y-122278154D01*
X156234009Y-122341563D02*
X156269750Y-122398444D01*
X221234000Y-138684000D02*
X220980000Y-138938000D01*
X240271300Y-101854000D02*
X240144300Y-101981000D01*
X240271300Y-103759000D02*
X240271300Y-101854000D01*
X233921300Y-110109000D02*
X240271300Y-103759000D01*
X233921300Y-116437000D02*
X233921300Y-110109000D01*
X233891591Y-116567165D02*
X233913779Y-116503756D01*
X234891590Y-117506834D02*
X234855849Y-117449953D01*
X234913778Y-117570243D02*
X234891590Y-117506834D01*
X234891590Y-117767165D02*
X234913778Y-117703756D01*
X234855849Y-117824046D02*
X234891590Y-117767165D01*
X232928822Y-116970243D02*
X232951010Y-116906834D01*
X234221300Y-117937000D02*
X234621300Y-117937000D01*
X220980000Y-134226300D02*
X222237300Y-132969000D01*
X232921300Y-117037000D02*
X232928822Y-116970243D01*
X234913778Y-117703756D02*
X234921300Y-117637000D01*
X233921300Y-130429000D02*
X233921300Y-118237000D01*
X233091135Y-117307290D02*
X233034254Y-117271549D01*
X234751465Y-117907290D02*
X234808346Y-117871549D01*
X233921300Y-118237000D02*
X233928821Y-118170243D01*
X233091135Y-116766709D02*
X233154544Y-116744521D01*
X233034254Y-117271549D02*
X232986751Y-117224046D01*
X222237300Y-132969000D02*
X231381300Y-132969000D01*
X233855850Y-116624046D02*
X233891591Y-116567165D01*
X232951010Y-117167165D02*
X232928822Y-117103756D01*
X220980000Y-138938000D02*
X220980000Y-134226300D01*
X233986750Y-118049953D02*
X234034253Y-118002450D01*
X234751465Y-117366709D02*
X234688056Y-117344521D01*
X234091134Y-117966709D02*
X234154543Y-117944521D01*
X233221300Y-116737000D02*
X233621300Y-116737000D01*
X233928821Y-118170243D02*
X233951009Y-118106834D01*
X232951010Y-116906834D02*
X232986751Y-116849953D01*
X232986751Y-117224046D02*
X232951010Y-117167165D01*
X234921300Y-117637000D02*
X234913778Y-117570243D01*
X233951009Y-118106834D02*
X233986750Y-118049953D01*
X234688056Y-117929478D02*
X234751465Y-117907290D01*
X233688057Y-116729478D02*
X233751466Y-116707290D01*
X234855849Y-117449953D02*
X234808346Y-117402450D01*
X234621300Y-117937000D02*
X234688056Y-117929478D01*
X234808346Y-117402450D02*
X234751465Y-117366709D01*
X234688056Y-117344521D02*
X234621300Y-117337000D01*
X234621300Y-117337000D02*
X233221300Y-117337000D01*
X231381300Y-132969000D02*
X233921300Y-130429000D01*
X233221300Y-117337000D02*
X233154544Y-117329478D01*
X234808346Y-117871549D02*
X234855849Y-117824046D01*
X233034254Y-116802450D02*
X233091135Y-116766709D01*
X234034253Y-118002450D02*
X234091134Y-117966709D01*
X233154544Y-117329478D02*
X233091135Y-117307290D01*
X233913779Y-116503756D02*
X233921300Y-116437000D01*
X232928822Y-117103756D02*
X232921300Y-117037000D01*
X232986751Y-116849953D02*
X233034254Y-116802450D01*
X233808347Y-116671549D02*
X233855850Y-116624046D01*
X233154544Y-116744521D02*
X233221300Y-116737000D01*
X233621300Y-116737000D02*
X233688057Y-116729478D01*
X234154543Y-117944521D02*
X234221300Y-117937000D01*
X233751466Y-116707290D02*
X233808347Y-116671549D01*
X218440000Y-138938000D02*
X218694000Y-138684000D01*
X231381300Y-115837000D02*
X231381300Y-110109000D01*
X231388821Y-115903756D02*
X231381300Y-115837000D01*
X231494253Y-116071549D02*
X231446750Y-116024046D01*
X231551134Y-116107290D02*
X231494253Y-116071549D01*
X231614543Y-116129478D02*
X231551134Y-116107290D01*
X231681300Y-116137000D02*
X231614543Y-116129478D01*
X232160494Y-116202450D02*
X232103613Y-116166709D01*
X232207997Y-116249953D02*
X232160494Y-116202450D01*
X232243738Y-116306834D02*
X232207997Y-116249953D01*
X232265926Y-116370243D02*
X232243738Y-116306834D01*
X232273448Y-116437000D02*
X232265926Y-116370243D01*
X232265926Y-116503756D02*
X232273448Y-116437000D01*
X232243738Y-116567165D02*
X232265926Y-116503756D01*
X237731300Y-103759000D02*
X237731300Y-101600000D01*
X232207997Y-116624046D02*
X232243738Y-116567165D01*
X232273448Y-117637000D02*
X232265926Y-117570243D01*
X232243738Y-117506834D02*
X232207997Y-117449953D01*
X232040204Y-116729478D02*
X232103613Y-116707290D01*
X232265926Y-117703756D02*
X232273448Y-117637000D01*
X232207997Y-117824046D02*
X232243738Y-117767165D01*
X232103613Y-117907290D02*
X232160494Y-117871549D01*
X231973448Y-116137000D02*
X231681300Y-116137000D01*
X232040204Y-117929478D02*
X232103613Y-117907290D01*
X232103613Y-116707290D02*
X232160494Y-116671549D01*
X232160494Y-117871549D02*
X232207997Y-117824046D01*
X231551134Y-117966709D02*
X231614543Y-117944521D01*
X231973448Y-117937000D02*
X232040204Y-117929478D01*
X230111300Y-131699000D02*
X231381300Y-130429000D01*
X231381300Y-130429000D02*
X231381300Y-118237000D01*
X232160494Y-116671549D02*
X232207997Y-116624046D01*
X232040204Y-116144521D02*
X231973448Y-116137000D01*
X231614543Y-117944521D02*
X231681300Y-117937000D01*
X230658987Y-116766709D02*
X230722396Y-116744521D01*
X231388821Y-118170243D02*
X231411009Y-118106834D01*
X231446750Y-116024046D02*
X231411009Y-115967165D01*
X218440000Y-138938000D02*
X218440000Y-134226300D01*
X232243738Y-117767165D02*
X232265926Y-117703756D01*
X220967300Y-131699000D02*
X230111300Y-131699000D01*
X231494253Y-118002450D02*
X231551134Y-117966709D01*
X218440000Y-134226300D02*
X220967300Y-131699000D01*
X231381300Y-118237000D02*
X231388821Y-118170243D01*
X231411009Y-118106834D02*
X231446750Y-118049953D01*
X230658987Y-117307290D02*
X230602106Y-117271549D01*
X231681300Y-117937000D02*
X231973448Y-117937000D01*
X232160494Y-117402450D02*
X232103613Y-117366709D01*
X231446750Y-118049953D02*
X231494253Y-118002450D01*
X232265926Y-117570243D02*
X232243738Y-117506834D01*
X232207997Y-117449953D02*
X232160494Y-117402450D01*
X231411009Y-115967165D02*
X231388821Y-115903756D01*
X232103613Y-117366709D02*
X232040204Y-117344521D01*
X231381300Y-110109000D02*
X237731300Y-103759000D01*
X232040204Y-117344521D02*
X231973448Y-117337000D01*
X231973448Y-117337000D02*
X230789152Y-117337000D01*
X230789152Y-117337000D02*
X230722396Y-117329478D01*
X230722396Y-117329478D02*
X230658987Y-117307290D01*
X232103613Y-116166709D02*
X232040204Y-116144521D01*
X230602106Y-117271549D02*
X230554603Y-117224046D01*
X230554603Y-117224046D02*
X230518862Y-117167165D01*
X230518862Y-117167165D02*
X230496674Y-117103756D01*
X230496674Y-117103756D02*
X230489152Y-117037000D01*
X230489152Y-117037000D02*
X230496674Y-116970243D01*
X230496674Y-116970243D02*
X230518862Y-116906834D01*
X230518862Y-116906834D02*
X230554603Y-116849953D01*
X230554603Y-116849953D02*
X230602106Y-116802450D01*
X230602106Y-116802450D02*
X230658987Y-116766709D01*
X230722396Y-116744521D02*
X230789152Y-116737000D01*
X230789152Y-116737000D02*
X231973448Y-116737000D01*
X231973448Y-116737000D02*
X232040204Y-116729478D01*
X215900000Y-138938000D02*
X215900000Y-139319000D01*
D25*
X188455302Y-122809000D02*
X188455300Y-122808998D01*
M02*
