M48
; DRILL file {KiCad (5.1.5)-3} date 6/30/2020 2:23:19 PM
; FORMAT={-:-/ absolute / inch / decimal}
; #@! TF.CreationDate,2020-06-30T14:23:19-03:00
; #@! TF.GenerationSoftware,Kicad,Pcbnew,(5.1.5)-3
; #@! TF.FileFunction,Plated,1,2,PTH
FMAT,2
INCH
T1C0.0157
T2C0.0394
T3C0.0512
T4C0.1181
T5C0.1575
T6C0.3307
%
G90
G05
T1
X4.115Y-2.43
X4.145Y-2.46
X4.52Y-4.12
X4.87Y-3.22
X4.895Y-3.715
X4.895Y-3.845
X4.895Y-3.965
X4.895Y-4.085
X4.895Y-4.2
X4.895Y-4.32
X4.895Y-4.44
X4.895Y-4.56
X5.04Y-2.705
X5.05Y-4.485
X5.05Y-4.605
X5.19Y-4.12
X5.19Y-4.22
X5.203Y-4.61
X5.203Y-4.66
X5.2769Y-4.66
X5.2769Y-4.61
X5.49Y-2.705
X5.54Y-4.99
X5.7Y-3.72
X5.7Y-5.09
X5.7Y-5.3
X5.77Y-3.69
X5.77Y-5.09
X5.9431Y-2.7069
X6.26Y-3.65
X6.26Y-4.26
X6.26Y-5.04
X6.31Y-4.225
X6.31Y-3.65
X6.33Y-4.37
X6.33Y-4.48
X6.39Y-2.705
X6.53Y-4.48
X6.58Y-3.84
X6.6Y-5.08
X6.61Y-3.88
X6.67Y-3.875
X6.68Y-4.33
X6.68Y-4.48
X6.77Y-3.875
X6.81Y-3.84
X6.83Y-5.08
X6.85Y-3.8
X6.88Y-3.52
X6.88Y-4.29
X6.88Y-4.48
X6.93Y-3.52
X7.09Y-4.48
X7.1Y-2.26
X7.1Y-2.3
X7.17Y-5.08
X7.55Y-3.6
X7.6Y-3.6
X7.7Y-2.295
X7.74Y-2.295
X7.76Y-5.33
X7.78Y-2.295
X7.82Y-2.295
X7.86Y-2.295
X7.9Y-2.295
X7.94Y-2.295
X7.98Y-2.295
X8.02Y-2.295
X8.06Y-2.295
X8.1Y-2.295
X8.14Y-2.295
X8.17Y-5.51
X8.18Y-2.295
X8.22Y-2.295
X8.26Y-2.295
X8.3Y-2.295
X8.34Y-2.295
X8.76Y-4.74
X8.76Y-4.84
X8.835Y-3.49
X8.835Y-3.54
T2
X4.603Y-4.99
X4.603Y-5.09
X4.603Y-5.19
X4.603Y-5.29
X4.603Y-5.39
X4.603Y-5.49
X5.459Y-5.091
X5.459Y-5.191
X5.459Y-5.291
X5.459Y-5.391
X5.459Y-5.491
X5.459Y-5.591
X8.3Y-5.47
X8.4Y-5.47
X8.5Y-5.47
X8.6Y-5.47
X8.7Y-5.47
X8.8Y-5.47
X8.9Y-5.47
X7.659Y-4.999
X7.66Y-4.003
X7.759Y-4.999
X7.76Y-4.003
X7.859Y-4.999
X7.86Y-4.003
X7.959Y-4.999
X7.96Y-4.003
X8.059Y-4.999
X8.06Y-4.003
X8.159Y-4.999
X8.16Y-4.003
X8.259Y-4.999
X8.26Y-4.003
X8.359Y-4.999
X8.36Y-4.003
X8.459Y-4.999
X8.46Y-4.003
X8.559Y-4.999
X8.56Y-4.003
X8.659Y-4.999
X8.66Y-4.003
X8.759Y-4.999
X8.76Y-4.003
X8.859Y-4.999
X8.86Y-4.003
X8.959Y-4.999
X8.96Y-4.003
X9.059Y-4.999
X9.06Y-4.003
X9.159Y-4.999
X9.16Y-4.003
X9.259Y-4.999
X9.26Y-4.003
X9.359Y-4.999
X9.36Y-4.003
X9.459Y-4.999
X9.46Y-4.003
T3
X5.05Y-1.93
X5.25Y-1.93
X5.45Y-1.93
X5.65Y-1.93
X5.85Y-1.93
X6.05Y-1.93
X6.25Y-1.93
X6.45Y-1.93
X3.83Y-2.13
X3.83Y-2.33
X3.83Y-2.53
X3.83Y-2.73
X3.83Y-2.93
X3.83Y-3.13
X3.83Y-3.33
X3.83Y-3.53
X7.9281Y-1.895
X8.125Y-1.895
X4.2Y-1.93
X4.4Y-1.93
X4.6Y-1.93
X4.8Y-1.93
X5.9Y-5.41
X6.1Y-5.41
X6.3Y-5.41
X6.5Y-5.41
X6.7Y-5.41
X6.9Y-5.41
X7.1Y-5.41
X7.3Y-5.41
X3.83Y-3.81
X3.83Y-4.01
X3.83Y-4.21
X3.83Y-4.41
X3.83Y-4.61
X3.83Y-4.81
X3.83Y-5.01
X3.83Y-5.21
T4
X5.46Y-4.76
T5
X3.74Y-1.84
X3.74Y-5.49
X9.36Y-1.84
X9.36Y-5.49
T6
X4.3Y-5.405
T0
M30
