M48
; DRILL file {KiCad (5.1.5)-3} date 7/27/2020 9:58:37 PM
; FORMAT={-:-/ absolute / inch / decimal}
; #@! TF.CreationDate,2020-07-27T21:58:37-03:00
; #@! TF.GenerationSoftware,Kicad,Pcbnew,(5.1.5)-3
; #@! TF.FileFunction,Plated,1,4,PTH
FMAT,2
INCH
T1C0.0157
T2C0.0197
T3C0.0394
T4C0.0512
T5C0.1575
T6C0.2362
T7C0.2756
%
G90
G05
T1
X4.2501Y-2.61
X4.52Y-4.12
X4.5395Y-2.61
X4.895Y-3.715
X4.895Y-3.845
X4.895Y-3.965
X4.895Y-4.085
X4.895Y-4.2
X4.895Y-4.32
X4.895Y-4.44
X4.895Y-4.56
X5.04Y-2.705
X5.05Y-4.485
X5.05Y-4.605
X5.0595Y-3.185
X5.19Y-4.12
X5.19Y-4.22
X5.203Y-4.925
X5.203Y-4.965
X5.4495Y-4.525
X5.49Y-2.705
X5.4995Y-4.525
X5.5095Y-3.185
X5.9431Y-2.7069
X5.9595Y-3.185
X6.2445Y-4.955
X6.26Y-3.65
X6.26Y-4.26
X6.31Y-4.225
X6.31Y-3.65
X6.33Y-4.37
X6.33Y-4.48
X6.39Y-2.705
X6.4095Y-3.185
X6.5545Y-4.48
X6.58Y-3.84
X6.61Y-3.88
X6.6195Y-4.48
X6.67Y-3.875
X6.68Y-4.33
X6.68Y-4.48
X6.77Y-3.875
X6.8095Y-4.955
X6.81Y-3.84
X6.85Y-3.8
X6.88Y-3.52
X6.8895Y-4.48
X6.8895Y-4.29
X6.93Y-3.52
X7.1Y-2.26
X7.1Y-2.3
X7.1145Y-4.48
X7.1995Y-4.48
X7.4195Y-4.635
X7.4195Y-4.835
X7.7Y-2.295
X7.74Y-2.295
X7.76Y-5.33
X7.78Y-2.295
X7.82Y-2.295
X7.86Y-2.295
X7.9Y-2.295
X7.94Y-2.295
X7.98Y-2.295
X8.02Y-2.295
X8.06Y-2.295
X8.1Y-2.295
X8.14Y-2.295
X8.18Y-2.295
X8.22Y-2.295
X8.26Y-2.295
X8.3Y-2.295
X8.34Y-2.295
X8.835Y-3.49
X8.835Y-3.54
T2
X3.6695Y-1.855
X3.6995Y-1.785
X3.6995Y-1.925
X3.7695Y-1.755
X3.7695Y-1.955
X3.8395Y-1.785
X3.8395Y-1.925
X3.8695Y-1.855
X3.6695Y-5.485
X3.6995Y-5.415
X3.6995Y-5.555
X3.7695Y-5.385
X3.7695Y-5.585
X3.8395Y-5.415
X3.8395Y-5.555
X3.8695Y-5.485
X9.2695Y-1.855
X9.2995Y-1.785
X9.2995Y-1.925
X9.3695Y-1.755
X9.3695Y-1.955
X9.4395Y-1.785
X9.4395Y-1.925
X9.4695Y-1.855
X9.2695Y-5.485
X9.2995Y-5.415
X9.2995Y-5.555
X9.3695Y-5.385
X9.3695Y-5.585
X9.4395Y-5.415
X9.4395Y-5.555
X9.4695Y-5.485
T3
X8.3Y-5.47
X8.4Y-5.47
X8.5Y-5.47
X8.6Y-5.47
X8.7Y-5.47
X8.8Y-5.47
X8.9Y-5.47
X7.659Y-4.999
X7.66Y-4.003
X7.759Y-4.999
X7.76Y-4.003
X7.859Y-4.999
X7.86Y-4.003
X7.959Y-4.999
X7.96Y-4.003
X8.059Y-4.999
X8.06Y-4.003
X8.159Y-4.999
X8.16Y-4.003
X8.259Y-4.999
X8.26Y-4.003
X8.359Y-4.999
X8.36Y-4.003
X8.459Y-4.999
X8.46Y-4.003
X8.559Y-4.999
X8.56Y-4.003
X8.659Y-4.999
X8.66Y-4.003
X8.759Y-4.999
X8.76Y-4.003
X8.859Y-4.999
X8.86Y-4.003
X8.959Y-4.999
X8.96Y-4.003
X9.059Y-4.999
X9.06Y-4.003
X9.159Y-4.999
X9.16Y-4.003
X9.259Y-4.999
X9.26Y-4.003
X9.359Y-4.999
X9.36Y-4.003
X9.459Y-4.999
X9.46Y-4.003
X4.6025Y-4.965
X4.6025Y-5.065
X4.6025Y-5.165
X4.6025Y-5.265
X4.6025Y-5.365
X4.6025Y-5.465
X5.4585Y-5.066
X5.4585Y-5.166
X5.4585Y-5.266
X5.4585Y-5.366
X5.4585Y-5.466
X5.4585Y-5.566
T4
X3.8495Y-3.81
X3.8495Y-4.01
X3.8495Y-4.21
X3.8495Y-4.41
X3.8495Y-4.61
X3.8495Y-4.81
X3.8495Y-5.01
X3.8495Y-5.21
X5.0495Y-1.935
X5.2495Y-1.935
X5.4495Y-1.935
X5.6495Y-1.935
X5.8495Y-1.935
X6.0495Y-1.935
X6.2495Y-1.935
X6.4495Y-1.935
X5.8585Y-5.405
X6.0585Y-5.405
X6.2585Y-5.405
X6.4585Y-5.405
X6.6585Y-5.405
X6.8585Y-5.405
X7.0585Y-5.405
X7.2585Y-5.405
X4.2Y-1.935
X4.4Y-1.935
X4.6Y-1.935
X4.8Y-1.935
X7.9281Y-1.905
X8.125Y-1.905
X3.8495Y-2.13
X3.8495Y-2.33
X3.8495Y-2.53
X3.8495Y-2.73
X3.8495Y-2.93
X3.8495Y-3.13
X3.8495Y-3.33
X3.8495Y-3.53
T5
X3.7695Y-1.855
X3.7695Y-5.485
X9.3695Y-1.855
X9.3695Y-5.485
T6
X5.4595Y-4.725
T7
X4.2995Y-5.415
T0
M30
