G04 #@! TF.GenerationSoftware,KiCad,Pcbnew,(5.1.5)-3*
G04 #@! TF.CreationDate,2020-11-04T13:24:48-03:00*
G04 #@! TF.ProjectId,ESP32-BOARD,45535033-322d-4424-9f41-52442e6b6963,rev?*
G04 #@! TF.SameCoordinates,Original*
G04 #@! TF.FileFunction,Soldermask,Bot*
G04 #@! TF.FilePolarity,Negative*
%FSLAX46Y46*%
G04 Gerber Fmt 4.6, Leading zero omitted, Abs format (unit mm)*
G04 Created by KiCad (PCBNEW (5.1.5)-3) date 2020-11-04 13:24:48*
%MOMM*%
%LPD*%
G04 APERTURE LIST*
%ADD10C,0.100000*%
G04 APERTURE END LIST*
D10*
G36*
X139696900Y-142427400D02*
G01*
X137594900Y-142427400D01*
X137594900Y-140325400D01*
X139696900Y-140325400D01*
X139696900Y-142427400D01*
G37*
G36*
X238875243Y-136385248D02*
G01*
X239430489Y-136615238D01*
X239678647Y-136781052D01*
X239930199Y-136949134D01*
X240355166Y-137374101D01*
X240355167Y-137374103D01*
X240689062Y-137873811D01*
X240919052Y-138429057D01*
X241036300Y-139018501D01*
X241036300Y-139619499D01*
X240919052Y-140208943D01*
X240689062Y-140764189D01*
X240658783Y-140809504D01*
X240355166Y-141263899D01*
X239930199Y-141688866D01*
X239872457Y-141727448D01*
X239430489Y-142022762D01*
X238875243Y-142252752D01*
X238285799Y-142370000D01*
X237684801Y-142370000D01*
X237095357Y-142252752D01*
X236540111Y-142022762D01*
X236098143Y-141727448D01*
X236040401Y-141688866D01*
X235615434Y-141263899D01*
X235311817Y-140809504D01*
X235281538Y-140764189D01*
X235051548Y-140208943D01*
X234934300Y-139619499D01*
X234934300Y-139018501D01*
X235051548Y-138429057D01*
X235281538Y-137873811D01*
X235615433Y-137374103D01*
X235615434Y-137374101D01*
X236040401Y-136949134D01*
X236291953Y-136781052D01*
X236540111Y-136615238D01*
X237095357Y-136385248D01*
X237684801Y-136268000D01*
X238285799Y-136268000D01*
X238875243Y-136385248D01*
G37*
G36*
X96635243Y-136385248D02*
G01*
X97190489Y-136615238D01*
X97438647Y-136781052D01*
X97690199Y-136949134D01*
X98115166Y-137374101D01*
X98115167Y-137374103D01*
X98449062Y-137873811D01*
X98679052Y-138429057D01*
X98796300Y-139018501D01*
X98796300Y-139619499D01*
X98679052Y-140208943D01*
X98449062Y-140764189D01*
X98418783Y-140809504D01*
X98115166Y-141263899D01*
X97690199Y-141688866D01*
X97632457Y-141727448D01*
X97190489Y-142022762D01*
X96635243Y-142252752D01*
X96045799Y-142370000D01*
X95444801Y-142370000D01*
X94855357Y-142252752D01*
X94300111Y-142022762D01*
X93858143Y-141727448D01*
X93800401Y-141688866D01*
X93375434Y-141263899D01*
X93071817Y-140809504D01*
X93041538Y-140764189D01*
X92811548Y-140208943D01*
X92694300Y-139619499D01*
X92694300Y-139018501D01*
X92811548Y-138429057D01*
X93041538Y-137873811D01*
X93375433Y-137374103D01*
X93375434Y-137374101D01*
X93800401Y-136949134D01*
X94051953Y-136781052D01*
X94300111Y-136615238D01*
X94855357Y-136385248D01*
X95444801Y-136268000D01*
X96045799Y-136268000D01*
X96635243Y-136385248D01*
G37*
G36*
X109876327Y-132830000D02*
G01*
X110593116Y-132972578D01*
X111457742Y-133330718D01*
X112235886Y-133850657D01*
X112897643Y-134512414D01*
X113417582Y-135290558D01*
X113775722Y-136155184D01*
X113830125Y-136428686D01*
X113958300Y-137073066D01*
X113958300Y-138008934D01*
X113937968Y-138111148D01*
X113775722Y-138926816D01*
X113417582Y-139791442D01*
X112897643Y-140569586D01*
X112235886Y-141231343D01*
X111457742Y-141751282D01*
X110593116Y-142109422D01*
X110090924Y-142209314D01*
X109675234Y-142292000D01*
X108739366Y-142292000D01*
X108323676Y-142209314D01*
X107821484Y-142109422D01*
X106956858Y-141751282D01*
X106178714Y-141231343D01*
X105516957Y-140569586D01*
X104997018Y-139791442D01*
X104638878Y-138926816D01*
X104476632Y-138111148D01*
X104456300Y-138008934D01*
X104456300Y-137073066D01*
X104584475Y-136428686D01*
X104638878Y-136155184D01*
X104997018Y-135290558D01*
X105516957Y-134512414D01*
X106178714Y-133850657D01*
X106956858Y-133330718D01*
X107821484Y-132972578D01*
X108538273Y-132830000D01*
X108739366Y-132790000D01*
X109675234Y-132790000D01*
X109876327Y-132830000D01*
G37*
G36*
X139696900Y-139887400D02*
G01*
X137594900Y-139887400D01*
X137594900Y-137785400D01*
X139696900Y-137785400D01*
X139696900Y-139887400D01*
G37*
G36*
X117954500Y-139862000D02*
G01*
X115852500Y-139862000D01*
X115852500Y-137760000D01*
X117954500Y-137760000D01*
X117954500Y-139862000D01*
G37*
G36*
X216013512Y-138041927D02*
G01*
X216162812Y-138071624D01*
X216326784Y-138139544D01*
X216474354Y-138238147D01*
X216599853Y-138363646D01*
X216698456Y-138511216D01*
X216766376Y-138675188D01*
X216801000Y-138849259D01*
X216801000Y-139026741D01*
X216766376Y-139200812D01*
X216698456Y-139364784D01*
X216599853Y-139512354D01*
X216474354Y-139637853D01*
X216326784Y-139736456D01*
X216162812Y-139804376D01*
X216013512Y-139834073D01*
X215988742Y-139839000D01*
X215811258Y-139839000D01*
X215786488Y-139834073D01*
X215637188Y-139804376D01*
X215473216Y-139736456D01*
X215325646Y-139637853D01*
X215200147Y-139512354D01*
X215101544Y-139364784D01*
X215033624Y-139200812D01*
X214999000Y-139026741D01*
X214999000Y-138849259D01*
X215033624Y-138675188D01*
X215101544Y-138511216D01*
X215200147Y-138363646D01*
X215325646Y-138238147D01*
X215473216Y-138139544D01*
X215637188Y-138071624D01*
X215786488Y-138041927D01*
X215811258Y-138037000D01*
X215988742Y-138037000D01*
X216013512Y-138041927D01*
G37*
G36*
X226961000Y-139839000D02*
G01*
X225159000Y-139839000D01*
X225159000Y-138037000D01*
X226961000Y-138037000D01*
X226961000Y-139839000D01*
G37*
G36*
X213473512Y-138041927D02*
G01*
X213622812Y-138071624D01*
X213786784Y-138139544D01*
X213934354Y-138238147D01*
X214059853Y-138363646D01*
X214158456Y-138511216D01*
X214226376Y-138675188D01*
X214261000Y-138849259D01*
X214261000Y-139026741D01*
X214226376Y-139200812D01*
X214158456Y-139364784D01*
X214059853Y-139512354D01*
X213934354Y-139637853D01*
X213786784Y-139736456D01*
X213622812Y-139804376D01*
X213473512Y-139834073D01*
X213448742Y-139839000D01*
X213271258Y-139839000D01*
X213246488Y-139834073D01*
X213097188Y-139804376D01*
X212933216Y-139736456D01*
X212785646Y-139637853D01*
X212660147Y-139512354D01*
X212561544Y-139364784D01*
X212493624Y-139200812D01*
X212459000Y-139026741D01*
X212459000Y-138849259D01*
X212493624Y-138675188D01*
X212561544Y-138511216D01*
X212660147Y-138363646D01*
X212785646Y-138238147D01*
X212933216Y-138139544D01*
X213097188Y-138071624D01*
X213246488Y-138041927D01*
X213271258Y-138037000D01*
X213448742Y-138037000D01*
X213473512Y-138041927D01*
G37*
G36*
X218553512Y-138041927D02*
G01*
X218702812Y-138071624D01*
X218866784Y-138139544D01*
X219014354Y-138238147D01*
X219139853Y-138363646D01*
X219238456Y-138511216D01*
X219306376Y-138675188D01*
X219341000Y-138849259D01*
X219341000Y-139026741D01*
X219306376Y-139200812D01*
X219238456Y-139364784D01*
X219139853Y-139512354D01*
X219014354Y-139637853D01*
X218866784Y-139736456D01*
X218702812Y-139804376D01*
X218553512Y-139834073D01*
X218528742Y-139839000D01*
X218351258Y-139839000D01*
X218326488Y-139834073D01*
X218177188Y-139804376D01*
X218013216Y-139736456D01*
X217865646Y-139637853D01*
X217740147Y-139512354D01*
X217641544Y-139364784D01*
X217573624Y-139200812D01*
X217539000Y-139026741D01*
X217539000Y-138849259D01*
X217573624Y-138675188D01*
X217641544Y-138511216D01*
X217740147Y-138363646D01*
X217865646Y-138238147D01*
X218013216Y-138139544D01*
X218177188Y-138071624D01*
X218326488Y-138041927D01*
X218351258Y-138037000D01*
X218528742Y-138037000D01*
X218553512Y-138041927D01*
G37*
G36*
X221093512Y-138041927D02*
G01*
X221242812Y-138071624D01*
X221406784Y-138139544D01*
X221554354Y-138238147D01*
X221679853Y-138363646D01*
X221778456Y-138511216D01*
X221846376Y-138675188D01*
X221881000Y-138849259D01*
X221881000Y-139026741D01*
X221846376Y-139200812D01*
X221778456Y-139364784D01*
X221679853Y-139512354D01*
X221554354Y-139637853D01*
X221406784Y-139736456D01*
X221242812Y-139804376D01*
X221093512Y-139834073D01*
X221068742Y-139839000D01*
X220891258Y-139839000D01*
X220866488Y-139834073D01*
X220717188Y-139804376D01*
X220553216Y-139736456D01*
X220405646Y-139637853D01*
X220280147Y-139512354D01*
X220181544Y-139364784D01*
X220113624Y-139200812D01*
X220079000Y-139026741D01*
X220079000Y-138849259D01*
X220113624Y-138675188D01*
X220181544Y-138511216D01*
X220280147Y-138363646D01*
X220405646Y-138238147D01*
X220553216Y-138139544D01*
X220717188Y-138071624D01*
X220866488Y-138041927D01*
X220891258Y-138037000D01*
X221068742Y-138037000D01*
X221093512Y-138041927D01*
G37*
G36*
X223633512Y-138041927D02*
G01*
X223782812Y-138071624D01*
X223946784Y-138139544D01*
X224094354Y-138238147D01*
X224219853Y-138363646D01*
X224318456Y-138511216D01*
X224386376Y-138675188D01*
X224421000Y-138849259D01*
X224421000Y-139026741D01*
X224386376Y-139200812D01*
X224318456Y-139364784D01*
X224219853Y-139512354D01*
X224094354Y-139637853D01*
X223946784Y-139736456D01*
X223782812Y-139804376D01*
X223633512Y-139834073D01*
X223608742Y-139839000D01*
X223431258Y-139839000D01*
X223406488Y-139834073D01*
X223257188Y-139804376D01*
X223093216Y-139736456D01*
X222945646Y-139637853D01*
X222820147Y-139512354D01*
X222721544Y-139364784D01*
X222653624Y-139200812D01*
X222619000Y-139026741D01*
X222619000Y-138849259D01*
X222653624Y-138675188D01*
X222721544Y-138511216D01*
X222820147Y-138363646D01*
X222945646Y-138238147D01*
X223093216Y-138139544D01*
X223257188Y-138071624D01*
X223406488Y-138041927D01*
X223431258Y-138037000D01*
X223608742Y-138037000D01*
X223633512Y-138041927D01*
G37*
G36*
X210933512Y-138041927D02*
G01*
X211082812Y-138071624D01*
X211246784Y-138139544D01*
X211394354Y-138238147D01*
X211519853Y-138363646D01*
X211618456Y-138511216D01*
X211686376Y-138675188D01*
X211721000Y-138849259D01*
X211721000Y-139026741D01*
X211686376Y-139200812D01*
X211618456Y-139364784D01*
X211519853Y-139512354D01*
X211394354Y-139637853D01*
X211246784Y-139736456D01*
X211082812Y-139804376D01*
X210933512Y-139834073D01*
X210908742Y-139839000D01*
X210731258Y-139839000D01*
X210706488Y-139834073D01*
X210557188Y-139804376D01*
X210393216Y-139736456D01*
X210245646Y-139637853D01*
X210120147Y-139512354D01*
X210021544Y-139364784D01*
X209953624Y-139200812D01*
X209919000Y-139026741D01*
X209919000Y-138849259D01*
X209953624Y-138675188D01*
X210021544Y-138511216D01*
X210120147Y-138363646D01*
X210245646Y-138238147D01*
X210393216Y-138139544D01*
X210557188Y-138071624D01*
X210706488Y-138041927D01*
X210731258Y-138037000D01*
X210908742Y-138037000D01*
X210933512Y-138041927D01*
G37*
G36*
X197204812Y-137914927D02*
G01*
X197354112Y-137944624D01*
X197518084Y-138012544D01*
X197665654Y-138111147D01*
X197791153Y-138236646D01*
X197889756Y-138384216D01*
X197957676Y-138548188D01*
X197992300Y-138722259D01*
X197992300Y-138899741D01*
X197957676Y-139073812D01*
X197889756Y-139237784D01*
X197791153Y-139385354D01*
X197665654Y-139510853D01*
X197518084Y-139609456D01*
X197354112Y-139677376D01*
X197204812Y-139707073D01*
X197180042Y-139712000D01*
X197002558Y-139712000D01*
X196977788Y-139707073D01*
X196828488Y-139677376D01*
X196664516Y-139609456D01*
X196516946Y-139510853D01*
X196391447Y-139385354D01*
X196292844Y-139237784D01*
X196224924Y-139073812D01*
X196190300Y-138899741D01*
X196190300Y-138722259D01*
X196224924Y-138548188D01*
X196292844Y-138384216D01*
X196391447Y-138236646D01*
X196516946Y-138111147D01*
X196664516Y-138012544D01*
X196828488Y-137944624D01*
X196977788Y-137914927D01*
X197002558Y-137910000D01*
X197180042Y-137910000D01*
X197204812Y-137914927D01*
G37*
G36*
X194664812Y-137914927D02*
G01*
X194814112Y-137944624D01*
X194978084Y-138012544D01*
X195125654Y-138111147D01*
X195251153Y-138236646D01*
X195349756Y-138384216D01*
X195417676Y-138548188D01*
X195452300Y-138722259D01*
X195452300Y-138899741D01*
X195417676Y-139073812D01*
X195349756Y-139237784D01*
X195251153Y-139385354D01*
X195125654Y-139510853D01*
X194978084Y-139609456D01*
X194814112Y-139677376D01*
X194664812Y-139707073D01*
X194640042Y-139712000D01*
X194462558Y-139712000D01*
X194437788Y-139707073D01*
X194288488Y-139677376D01*
X194124516Y-139609456D01*
X193976946Y-139510853D01*
X193851447Y-139385354D01*
X193752844Y-139237784D01*
X193684924Y-139073812D01*
X193650300Y-138899741D01*
X193650300Y-138722259D01*
X193684924Y-138548188D01*
X193752844Y-138384216D01*
X193851447Y-138236646D01*
X193976946Y-138111147D01*
X194124516Y-138012544D01*
X194288488Y-137944624D01*
X194437788Y-137914927D01*
X194462558Y-137910000D01*
X194640042Y-137910000D01*
X194664812Y-137914927D01*
G37*
G36*
X203072300Y-139712000D02*
G01*
X201270300Y-139712000D01*
X201270300Y-137910000D01*
X203072300Y-137910000D01*
X203072300Y-139712000D01*
G37*
G36*
X199744812Y-137914927D02*
G01*
X199894112Y-137944624D01*
X200058084Y-138012544D01*
X200205654Y-138111147D01*
X200331153Y-138236646D01*
X200429756Y-138384216D01*
X200497676Y-138548188D01*
X200532300Y-138722259D01*
X200532300Y-138899741D01*
X200497676Y-139073812D01*
X200429756Y-139237784D01*
X200331153Y-139385354D01*
X200205654Y-139510853D01*
X200058084Y-139609456D01*
X199894112Y-139677376D01*
X199744812Y-139707073D01*
X199720042Y-139712000D01*
X199542558Y-139712000D01*
X199517788Y-139707073D01*
X199368488Y-139677376D01*
X199204516Y-139609456D01*
X199056946Y-139510853D01*
X198931447Y-139385354D01*
X198832844Y-139237784D01*
X198764924Y-139073812D01*
X198730300Y-138899741D01*
X198730300Y-138722259D01*
X198764924Y-138548188D01*
X198832844Y-138384216D01*
X198931447Y-138236646D01*
X199056946Y-138111147D01*
X199204516Y-138012544D01*
X199368488Y-137944624D01*
X199517788Y-137914927D01*
X199542558Y-137910000D01*
X199720042Y-137910000D01*
X199744812Y-137914927D01*
G37*
G36*
X169519972Y-135987918D02*
G01*
X169765839Y-136089759D01*
X169863754Y-136155184D01*
X169987111Y-136237609D01*
X170175291Y-136425789D01*
X170323142Y-136647063D01*
X170396191Y-136823420D01*
X170424982Y-136892928D01*
X170476900Y-137153938D01*
X170476900Y-137420062D01*
X170424982Y-137681072D01*
X170323141Y-137926939D01*
X170294352Y-137970024D01*
X170175291Y-138148211D01*
X169987111Y-138336391D01*
X169915536Y-138384216D01*
X169765839Y-138484241D01*
X169765838Y-138484242D01*
X169765837Y-138484242D01*
X169519972Y-138586082D01*
X169258963Y-138638000D01*
X168992837Y-138638000D01*
X168731828Y-138586082D01*
X168485963Y-138484242D01*
X168485962Y-138484242D01*
X168485961Y-138484241D01*
X168336264Y-138384216D01*
X168264689Y-138336391D01*
X168076509Y-138148211D01*
X167957448Y-137970024D01*
X167928659Y-137926939D01*
X167826818Y-137681072D01*
X167774900Y-137420062D01*
X167774900Y-137153938D01*
X167826818Y-136892928D01*
X167855609Y-136823420D01*
X167928658Y-136647063D01*
X168076509Y-136425789D01*
X168264689Y-136237609D01*
X168388046Y-136155184D01*
X168485961Y-136089759D01*
X168731828Y-135987918D01*
X168992837Y-135936000D01*
X169258963Y-135936000D01*
X169519972Y-135987918D01*
G37*
G36*
X179679972Y-135987918D02*
G01*
X179925839Y-136089759D01*
X180023754Y-136155184D01*
X180147111Y-136237609D01*
X180335291Y-136425789D01*
X180483142Y-136647063D01*
X180556191Y-136823420D01*
X180584982Y-136892928D01*
X180636900Y-137153938D01*
X180636900Y-137420062D01*
X180584982Y-137681072D01*
X180483141Y-137926939D01*
X180454352Y-137970024D01*
X180335291Y-138148211D01*
X180147111Y-138336391D01*
X180075536Y-138384216D01*
X179925839Y-138484241D01*
X179925838Y-138484242D01*
X179925837Y-138484242D01*
X179679972Y-138586082D01*
X179418963Y-138638000D01*
X179152837Y-138638000D01*
X178891828Y-138586082D01*
X178645963Y-138484242D01*
X178645962Y-138484242D01*
X178645961Y-138484241D01*
X178496264Y-138384216D01*
X178424689Y-138336391D01*
X178236509Y-138148211D01*
X178117448Y-137970024D01*
X178088659Y-137926939D01*
X177986818Y-137681072D01*
X177934900Y-137420062D01*
X177934900Y-137153938D01*
X177986818Y-136892928D01*
X178015609Y-136823420D01*
X178088658Y-136647063D01*
X178236509Y-136425789D01*
X178424689Y-136237609D01*
X178548046Y-136155184D01*
X178645961Y-136089759D01*
X178891828Y-135987918D01*
X179152837Y-135936000D01*
X179418963Y-135936000D01*
X179679972Y-135987918D01*
G37*
G36*
X174599972Y-135987918D02*
G01*
X174845839Y-136089759D01*
X174943754Y-136155184D01*
X175067111Y-136237609D01*
X175255291Y-136425789D01*
X175403142Y-136647063D01*
X175476191Y-136823420D01*
X175504982Y-136892928D01*
X175556900Y-137153938D01*
X175556900Y-137420062D01*
X175504982Y-137681072D01*
X175403141Y-137926939D01*
X175374352Y-137970024D01*
X175255291Y-138148211D01*
X175067111Y-138336391D01*
X174995536Y-138384216D01*
X174845839Y-138484241D01*
X174845838Y-138484242D01*
X174845837Y-138484242D01*
X174599972Y-138586082D01*
X174338963Y-138638000D01*
X174072837Y-138638000D01*
X173811828Y-138586082D01*
X173565963Y-138484242D01*
X173565962Y-138484242D01*
X173565961Y-138484241D01*
X173416264Y-138384216D01*
X173344689Y-138336391D01*
X173156509Y-138148211D01*
X173037448Y-137970024D01*
X173008659Y-137926939D01*
X172906818Y-137681072D01*
X172854900Y-137420062D01*
X172854900Y-137153938D01*
X172906818Y-136892928D01*
X172935609Y-136823420D01*
X173008658Y-136647063D01*
X173156509Y-136425789D01*
X173344689Y-136237609D01*
X173468046Y-136155184D01*
X173565961Y-136089759D01*
X173811828Y-135987918D01*
X174072837Y-135936000D01*
X174338963Y-135936000D01*
X174599972Y-135987918D01*
G37*
G36*
X164439972Y-135987918D02*
G01*
X164685839Y-136089759D01*
X164783754Y-136155184D01*
X164907111Y-136237609D01*
X165095291Y-136425789D01*
X165243142Y-136647063D01*
X165316191Y-136823420D01*
X165344982Y-136892928D01*
X165396900Y-137153938D01*
X165396900Y-137420062D01*
X165344982Y-137681072D01*
X165243141Y-137926939D01*
X165214352Y-137970024D01*
X165095291Y-138148211D01*
X164907111Y-138336391D01*
X164835536Y-138384216D01*
X164685839Y-138484241D01*
X164685838Y-138484242D01*
X164685837Y-138484242D01*
X164439972Y-138586082D01*
X164178963Y-138638000D01*
X163912837Y-138638000D01*
X163651828Y-138586082D01*
X163405963Y-138484242D01*
X163405962Y-138484242D01*
X163405961Y-138484241D01*
X163256264Y-138384216D01*
X163184689Y-138336391D01*
X162996509Y-138148211D01*
X162877448Y-137970024D01*
X162848659Y-137926939D01*
X162746818Y-137681072D01*
X162694900Y-137420062D01*
X162694900Y-137153938D01*
X162746818Y-136892928D01*
X162775609Y-136823420D01*
X162848658Y-136647063D01*
X162996509Y-136425789D01*
X163184689Y-136237609D01*
X163308046Y-136155184D01*
X163405961Y-136089759D01*
X163651828Y-135987918D01*
X163912837Y-135936000D01*
X164178963Y-135936000D01*
X164439972Y-135987918D01*
G37*
G36*
X159359972Y-135987918D02*
G01*
X159605839Y-136089759D01*
X159703754Y-136155184D01*
X159827111Y-136237609D01*
X160015291Y-136425789D01*
X160163142Y-136647063D01*
X160236191Y-136823420D01*
X160264982Y-136892928D01*
X160316900Y-137153938D01*
X160316900Y-137420062D01*
X160264982Y-137681072D01*
X160163141Y-137926939D01*
X160134352Y-137970024D01*
X160015291Y-138148211D01*
X159827111Y-138336391D01*
X159755536Y-138384216D01*
X159605839Y-138484241D01*
X159605838Y-138484242D01*
X159605837Y-138484242D01*
X159359972Y-138586082D01*
X159098963Y-138638000D01*
X158832837Y-138638000D01*
X158571828Y-138586082D01*
X158325963Y-138484242D01*
X158325962Y-138484242D01*
X158325961Y-138484241D01*
X158176264Y-138384216D01*
X158104689Y-138336391D01*
X157916509Y-138148211D01*
X157797448Y-137970024D01*
X157768659Y-137926939D01*
X157666818Y-137681072D01*
X157614900Y-137420062D01*
X157614900Y-137153938D01*
X157666818Y-136892928D01*
X157695609Y-136823420D01*
X157768658Y-136647063D01*
X157916509Y-136425789D01*
X158104689Y-136237609D01*
X158228046Y-136155184D01*
X158325961Y-136089759D01*
X158571828Y-135987918D01*
X158832837Y-135936000D01*
X159098963Y-135936000D01*
X159359972Y-135987918D01*
G37*
G36*
X154279972Y-135987918D02*
G01*
X154525839Y-136089759D01*
X154623754Y-136155184D01*
X154747111Y-136237609D01*
X154935291Y-136425789D01*
X155083142Y-136647063D01*
X155156191Y-136823420D01*
X155184982Y-136892928D01*
X155236900Y-137153938D01*
X155236900Y-137420062D01*
X155184982Y-137681072D01*
X155083141Y-137926939D01*
X155054352Y-137970024D01*
X154935291Y-138148211D01*
X154747111Y-138336391D01*
X154675536Y-138384216D01*
X154525839Y-138484241D01*
X154525838Y-138484242D01*
X154525837Y-138484242D01*
X154279972Y-138586082D01*
X154018963Y-138638000D01*
X153752837Y-138638000D01*
X153491828Y-138586082D01*
X153245963Y-138484242D01*
X153245962Y-138484242D01*
X153245961Y-138484241D01*
X153096264Y-138384216D01*
X153024689Y-138336391D01*
X152836509Y-138148211D01*
X152717448Y-137970024D01*
X152688659Y-137926939D01*
X152586818Y-137681072D01*
X152534900Y-137420062D01*
X152534900Y-137153938D01*
X152586818Y-136892928D01*
X152615609Y-136823420D01*
X152688658Y-136647063D01*
X152836509Y-136425789D01*
X153024689Y-136237609D01*
X153148046Y-136155184D01*
X153245961Y-136089759D01*
X153491828Y-135987918D01*
X153752837Y-135936000D01*
X154018963Y-135936000D01*
X154279972Y-135987918D01*
G37*
G36*
X149199972Y-135987918D02*
G01*
X149445839Y-136089759D01*
X149543754Y-136155184D01*
X149667111Y-136237609D01*
X149855291Y-136425789D01*
X150003142Y-136647063D01*
X150076191Y-136823420D01*
X150104982Y-136892928D01*
X150156900Y-137153938D01*
X150156900Y-137420062D01*
X150104982Y-137681072D01*
X150003141Y-137926939D01*
X149974352Y-137970024D01*
X149855291Y-138148211D01*
X149667111Y-138336391D01*
X149595536Y-138384216D01*
X149445839Y-138484241D01*
X149445838Y-138484242D01*
X149445837Y-138484242D01*
X149199972Y-138586082D01*
X148938963Y-138638000D01*
X148672837Y-138638000D01*
X148411828Y-138586082D01*
X148165963Y-138484242D01*
X148165962Y-138484242D01*
X148165961Y-138484241D01*
X148016264Y-138384216D01*
X147944689Y-138336391D01*
X147756509Y-138148211D01*
X147637448Y-137970024D01*
X147608659Y-137926939D01*
X147506818Y-137681072D01*
X147454900Y-137420062D01*
X147454900Y-137153938D01*
X147506818Y-136892928D01*
X147535609Y-136823420D01*
X147608658Y-136647063D01*
X147756509Y-136425789D01*
X147944689Y-136237609D01*
X148068046Y-136155184D01*
X148165961Y-136089759D01*
X148411828Y-135987918D01*
X148672837Y-135936000D01*
X148938963Y-135936000D01*
X149199972Y-135987918D01*
G37*
G36*
X185716900Y-138638000D02*
G01*
X183014900Y-138638000D01*
X183014900Y-135936000D01*
X185716900Y-135936000D01*
X185716900Y-138638000D01*
G37*
G36*
X139696900Y-137347400D02*
G01*
X137594900Y-137347400D01*
X137594900Y-135245400D01*
X139696900Y-135245400D01*
X139696900Y-137347400D01*
G37*
G36*
X117954500Y-137322000D02*
G01*
X115852500Y-137322000D01*
X115852500Y-135220000D01*
X117954500Y-135220000D01*
X117954500Y-137322000D01*
G37*
G36*
X139696900Y-134807400D02*
G01*
X137594900Y-134807400D01*
X137594900Y-132705400D01*
X139696900Y-132705400D01*
X139696900Y-134807400D01*
G37*
G36*
X117954500Y-134782000D02*
G01*
X115852500Y-134782000D01*
X115852500Y-132680000D01*
X117954500Y-132680000D01*
X117954500Y-134782000D01*
G37*
G36*
X99128300Y-133685000D02*
G01*
X96426300Y-133685000D01*
X96426300Y-130983000D01*
X99128300Y-130983000D01*
X99128300Y-133685000D01*
G37*
G36*
X139696900Y-132267400D02*
G01*
X137594900Y-132267400D01*
X137594900Y-130165400D01*
X139696900Y-130165400D01*
X139696900Y-132267400D01*
G37*
G36*
X117954500Y-132242000D02*
G01*
X115852500Y-132242000D01*
X115852500Y-130140000D01*
X117954500Y-130140000D01*
X117954500Y-132242000D01*
G37*
G36*
X139696900Y-129727400D02*
G01*
X137594900Y-129727400D01*
X137594900Y-127625400D01*
X139696900Y-127625400D01*
X139696900Y-129727400D01*
G37*
G36*
X117954500Y-129702000D02*
G01*
X115852500Y-129702000D01*
X115852500Y-127600000D01*
X117954500Y-127600000D01*
X117954500Y-129702000D01*
G37*
G36*
X98171372Y-125954918D02*
G01*
X98333949Y-126022259D01*
X98417239Y-126056759D01*
X98428203Y-126064085D01*
X98638511Y-126204609D01*
X98826691Y-126392789D01*
X98974542Y-126614063D01*
X99076382Y-126859928D01*
X99116844Y-127063342D01*
X99128300Y-127120938D01*
X99128300Y-127387062D01*
X99076382Y-127648072D01*
X98974541Y-127893939D01*
X98935235Y-127952764D01*
X98835488Y-128102046D01*
X98826690Y-128115212D01*
X98638512Y-128303390D01*
X98417239Y-128451241D01*
X98417238Y-128451242D01*
X98417237Y-128451242D01*
X98171372Y-128553082D01*
X97910363Y-128605000D01*
X97644237Y-128605000D01*
X97383228Y-128553082D01*
X97137363Y-128451242D01*
X97137362Y-128451242D01*
X97137361Y-128451241D01*
X96916088Y-128303390D01*
X96727910Y-128115212D01*
X96719113Y-128102046D01*
X96619365Y-127952764D01*
X96580059Y-127893939D01*
X96478218Y-127648072D01*
X96426300Y-127387062D01*
X96426300Y-127120938D01*
X96437757Y-127063342D01*
X96478218Y-126859928D01*
X96580058Y-126614063D01*
X96727909Y-126392789D01*
X96916089Y-126204609D01*
X97126397Y-126064085D01*
X97137361Y-126056759D01*
X97220652Y-126022259D01*
X97383228Y-125954918D01*
X97644237Y-125903000D01*
X97910363Y-125903000D01*
X98171372Y-125954918D01*
G37*
G36*
X228359600Y-126529096D02*
G01*
X228362002Y-126553482D01*
X228369112Y-126576923D01*
X228424976Y-126711788D01*
X228459600Y-126885859D01*
X228459600Y-127063341D01*
X228424976Y-127237412D01*
X228369112Y-127372277D01*
X228362002Y-127395718D01*
X228359600Y-127420104D01*
X228359600Y-128275600D01*
X226757600Y-128275600D01*
X226757600Y-127420104D01*
X226755198Y-127395718D01*
X226748088Y-127372277D01*
X226692224Y-127237412D01*
X226657600Y-127063341D01*
X226657600Y-126885859D01*
X226692224Y-126711788D01*
X226748088Y-126576923D01*
X226755198Y-126553482D01*
X226757600Y-126529096D01*
X226757600Y-125673600D01*
X228359600Y-125673600D01*
X228359600Y-126529096D01*
G37*
G36*
X223279600Y-126529096D02*
G01*
X223282002Y-126553482D01*
X223289112Y-126576923D01*
X223344976Y-126711788D01*
X223379600Y-126885859D01*
X223379600Y-127063341D01*
X223344976Y-127237412D01*
X223289112Y-127372277D01*
X223282002Y-127395718D01*
X223279600Y-127420104D01*
X223279600Y-128275600D01*
X221677600Y-128275600D01*
X221677600Y-127420104D01*
X221675198Y-127395718D01*
X221668088Y-127372277D01*
X221612224Y-127237412D01*
X221577600Y-127063341D01*
X221577600Y-126885859D01*
X221612224Y-126711788D01*
X221668088Y-126576923D01*
X221675198Y-126553482D01*
X221677600Y-126529096D01*
X221677600Y-125673600D01*
X223279600Y-125673600D01*
X223279600Y-126529096D01*
G37*
G36*
X200419600Y-126529096D02*
G01*
X200422002Y-126553482D01*
X200429112Y-126576923D01*
X200484976Y-126711788D01*
X200519600Y-126885859D01*
X200519600Y-127063341D01*
X200484976Y-127237412D01*
X200429112Y-127372277D01*
X200422002Y-127395718D01*
X200419600Y-127420104D01*
X200419600Y-128275600D01*
X198817600Y-128275600D01*
X198817600Y-127420104D01*
X198815198Y-127395718D01*
X198808088Y-127372277D01*
X198752224Y-127237412D01*
X198717600Y-127063341D01*
X198717600Y-126885859D01*
X198752224Y-126711788D01*
X198808088Y-126576923D01*
X198815198Y-126553482D01*
X198817600Y-126529096D01*
X198817600Y-125673600D01*
X200419600Y-125673600D01*
X200419600Y-126529096D01*
G37*
G36*
X195339600Y-125948601D02*
G01*
X195342002Y-125972987D01*
X195349115Y-125996436D01*
X195360666Y-126018047D01*
X195376211Y-126036989D01*
X195395153Y-126052534D01*
X195416764Y-126064085D01*
X195439600Y-126071012D01*
X195439600Y-127878188D01*
X195416764Y-127885115D01*
X195395153Y-127896666D01*
X195376211Y-127912211D01*
X195360666Y-127931153D01*
X195349115Y-127952764D01*
X195342002Y-127976213D01*
X195339600Y-128000599D01*
X195339600Y-128275600D01*
X193737600Y-128275600D01*
X193737600Y-128000599D01*
X193735198Y-127976213D01*
X193728085Y-127952764D01*
X193716534Y-127931153D01*
X193700989Y-127912211D01*
X193682047Y-127896666D01*
X193660436Y-127885115D01*
X193637600Y-127878188D01*
X193637600Y-126071012D01*
X193660436Y-126064085D01*
X193682047Y-126052534D01*
X193700989Y-126036989D01*
X193716534Y-126018047D01*
X193728085Y-125996436D01*
X193735198Y-125972987D01*
X193737600Y-125948601D01*
X193737600Y-125673600D01*
X195339600Y-125673600D01*
X195339600Y-125948601D01*
G37*
G36*
X235979600Y-126529096D02*
G01*
X235982002Y-126553482D01*
X235989112Y-126576923D01*
X236044976Y-126711788D01*
X236079600Y-126885859D01*
X236079600Y-127063341D01*
X236044976Y-127237412D01*
X235989112Y-127372277D01*
X235982002Y-127395718D01*
X235979600Y-127420104D01*
X235979600Y-128275600D01*
X234377600Y-128275600D01*
X234377600Y-127420104D01*
X234375198Y-127395718D01*
X234368088Y-127372277D01*
X234312224Y-127237412D01*
X234277600Y-127063341D01*
X234277600Y-126885859D01*
X234312224Y-126711788D01*
X234368088Y-126576923D01*
X234375198Y-126553482D01*
X234377600Y-126529096D01*
X234377600Y-125673600D01*
X235979600Y-125673600D01*
X235979600Y-126529096D01*
G37*
G36*
X225819600Y-126529096D02*
G01*
X225822002Y-126553482D01*
X225829112Y-126576923D01*
X225884976Y-126711788D01*
X225919600Y-126885859D01*
X225919600Y-127063341D01*
X225884976Y-127237412D01*
X225829112Y-127372277D01*
X225822002Y-127395718D01*
X225819600Y-127420104D01*
X225819600Y-128275600D01*
X224217600Y-128275600D01*
X224217600Y-127420104D01*
X224215198Y-127395718D01*
X224208088Y-127372277D01*
X224152224Y-127237412D01*
X224117600Y-127063341D01*
X224117600Y-126885859D01*
X224152224Y-126711788D01*
X224208088Y-126576923D01*
X224215198Y-126553482D01*
X224217600Y-126529096D01*
X224217600Y-125673600D01*
X225819600Y-125673600D01*
X225819600Y-126529096D01*
G37*
G36*
X230899600Y-126529096D02*
G01*
X230902002Y-126553482D01*
X230909112Y-126576923D01*
X230964976Y-126711788D01*
X230999600Y-126885859D01*
X230999600Y-127063341D01*
X230964976Y-127237412D01*
X230909112Y-127372277D01*
X230902002Y-127395718D01*
X230899600Y-127420104D01*
X230899600Y-128275600D01*
X229297600Y-128275600D01*
X229297600Y-127420104D01*
X229295198Y-127395718D01*
X229288088Y-127372277D01*
X229232224Y-127237412D01*
X229197600Y-127063341D01*
X229197600Y-126885859D01*
X229232224Y-126711788D01*
X229288088Y-126576923D01*
X229295198Y-126553482D01*
X229297600Y-126529096D01*
X229297600Y-125673600D01*
X230899600Y-125673600D01*
X230899600Y-126529096D01*
G37*
G36*
X202959600Y-126529096D02*
G01*
X202962002Y-126553482D01*
X202969112Y-126576923D01*
X203024976Y-126711788D01*
X203059600Y-126885859D01*
X203059600Y-127063341D01*
X203024976Y-127237412D01*
X202969112Y-127372277D01*
X202962002Y-127395718D01*
X202959600Y-127420104D01*
X202959600Y-128275600D01*
X201357600Y-128275600D01*
X201357600Y-127420104D01*
X201355198Y-127395718D01*
X201348088Y-127372277D01*
X201292224Y-127237412D01*
X201257600Y-127063341D01*
X201257600Y-126885859D01*
X201292224Y-126711788D01*
X201348088Y-126576923D01*
X201355198Y-126553482D01*
X201357600Y-126529096D01*
X201357600Y-125673600D01*
X202959600Y-125673600D01*
X202959600Y-126529096D01*
G37*
G36*
X218199600Y-126529096D02*
G01*
X218202002Y-126553482D01*
X218209112Y-126576923D01*
X218264976Y-126711788D01*
X218299600Y-126885859D01*
X218299600Y-127063341D01*
X218264976Y-127237412D01*
X218209112Y-127372277D01*
X218202002Y-127395718D01*
X218199600Y-127420104D01*
X218199600Y-128275600D01*
X216597600Y-128275600D01*
X216597600Y-127420104D01*
X216595198Y-127395718D01*
X216588088Y-127372277D01*
X216532224Y-127237412D01*
X216497600Y-127063341D01*
X216497600Y-126885859D01*
X216532224Y-126711788D01*
X216588088Y-126576923D01*
X216595198Y-126553482D01*
X216597600Y-126529096D01*
X216597600Y-125673600D01*
X218199600Y-125673600D01*
X218199600Y-126529096D01*
G37*
G36*
X241059600Y-126529096D02*
G01*
X241062002Y-126553482D01*
X241069112Y-126576923D01*
X241124976Y-126711788D01*
X241159600Y-126885859D01*
X241159600Y-127063341D01*
X241124976Y-127237412D01*
X241069112Y-127372277D01*
X241062002Y-127395718D01*
X241059600Y-127420104D01*
X241059600Y-128275600D01*
X239457600Y-128275600D01*
X239457600Y-127420104D01*
X239455198Y-127395718D01*
X239448088Y-127372277D01*
X239392224Y-127237412D01*
X239357600Y-127063341D01*
X239357600Y-126885859D01*
X239392224Y-126711788D01*
X239448088Y-126576923D01*
X239455198Y-126553482D01*
X239457600Y-126529096D01*
X239457600Y-125673600D01*
X241059600Y-125673600D01*
X241059600Y-126529096D01*
G37*
G36*
X213119600Y-126529096D02*
G01*
X213122002Y-126553482D01*
X213129112Y-126576923D01*
X213184976Y-126711788D01*
X213219600Y-126885859D01*
X213219600Y-127063341D01*
X213184976Y-127237412D01*
X213129112Y-127372277D01*
X213122002Y-127395718D01*
X213119600Y-127420104D01*
X213119600Y-128275600D01*
X211517600Y-128275600D01*
X211517600Y-127420104D01*
X211515198Y-127395718D01*
X211508088Y-127372277D01*
X211452224Y-127237412D01*
X211417600Y-127063341D01*
X211417600Y-126885859D01*
X211452224Y-126711788D01*
X211508088Y-126576923D01*
X211515198Y-126553482D01*
X211517600Y-126529096D01*
X211517600Y-125673600D01*
X213119600Y-125673600D01*
X213119600Y-126529096D01*
G37*
G36*
X205499600Y-126529096D02*
G01*
X205502002Y-126553482D01*
X205509112Y-126576923D01*
X205564976Y-126711788D01*
X205599600Y-126885859D01*
X205599600Y-127063341D01*
X205564976Y-127237412D01*
X205509112Y-127372277D01*
X205502002Y-127395718D01*
X205499600Y-127420104D01*
X205499600Y-128275600D01*
X203897600Y-128275600D01*
X203897600Y-127420104D01*
X203895198Y-127395718D01*
X203888088Y-127372277D01*
X203832224Y-127237412D01*
X203797600Y-127063341D01*
X203797600Y-126885859D01*
X203832224Y-126711788D01*
X203888088Y-126576923D01*
X203895198Y-126553482D01*
X203897600Y-126529096D01*
X203897600Y-125673600D01*
X205499600Y-125673600D01*
X205499600Y-126529096D01*
G37*
G36*
X220739600Y-126529096D02*
G01*
X220742002Y-126553482D01*
X220749112Y-126576923D01*
X220804976Y-126711788D01*
X220839600Y-126885859D01*
X220839600Y-127063341D01*
X220804976Y-127237412D01*
X220749112Y-127372277D01*
X220742002Y-127395718D01*
X220739600Y-127420104D01*
X220739600Y-128275600D01*
X219137600Y-128275600D01*
X219137600Y-127420104D01*
X219135198Y-127395718D01*
X219128088Y-127372277D01*
X219072224Y-127237412D01*
X219037600Y-127063341D01*
X219037600Y-126885859D01*
X219072224Y-126711788D01*
X219128088Y-126576923D01*
X219135198Y-126553482D01*
X219137600Y-126529096D01*
X219137600Y-125673600D01*
X220739600Y-125673600D01*
X220739600Y-126529096D01*
G37*
G36*
X233439600Y-126529096D02*
G01*
X233442002Y-126553482D01*
X233449112Y-126576923D01*
X233504976Y-126711788D01*
X233539600Y-126885859D01*
X233539600Y-127063341D01*
X233504976Y-127237412D01*
X233449112Y-127372277D01*
X233442002Y-127395718D01*
X233439600Y-127420104D01*
X233439600Y-128275600D01*
X231837600Y-128275600D01*
X231837600Y-127420104D01*
X231835198Y-127395718D01*
X231828088Y-127372277D01*
X231772224Y-127237412D01*
X231737600Y-127063341D01*
X231737600Y-126885859D01*
X231772224Y-126711788D01*
X231828088Y-126576923D01*
X231835198Y-126553482D01*
X231837600Y-126529096D01*
X231837600Y-125673600D01*
X233439600Y-125673600D01*
X233439600Y-126529096D01*
G37*
G36*
X208039600Y-126529096D02*
G01*
X208042002Y-126553482D01*
X208049112Y-126576923D01*
X208104976Y-126711788D01*
X208139600Y-126885859D01*
X208139600Y-127063341D01*
X208104976Y-127237412D01*
X208049112Y-127372277D01*
X208042002Y-127395718D01*
X208039600Y-127420104D01*
X208039600Y-128275600D01*
X206437600Y-128275600D01*
X206437600Y-127420104D01*
X206435198Y-127395718D01*
X206428088Y-127372277D01*
X206372224Y-127237412D01*
X206337600Y-127063341D01*
X206337600Y-126885859D01*
X206372224Y-126711788D01*
X206428088Y-126576923D01*
X206435198Y-126553482D01*
X206437600Y-126529096D01*
X206437600Y-125673600D01*
X208039600Y-125673600D01*
X208039600Y-126529096D01*
G37*
G36*
X238519600Y-126529096D02*
G01*
X238522002Y-126553482D01*
X238529112Y-126576923D01*
X238584976Y-126711788D01*
X238619600Y-126885859D01*
X238619600Y-127063341D01*
X238584976Y-127237412D01*
X238529112Y-127372277D01*
X238522002Y-127395718D01*
X238519600Y-127420104D01*
X238519600Y-128275600D01*
X236917600Y-128275600D01*
X236917600Y-127420104D01*
X236915198Y-127395718D01*
X236908088Y-127372277D01*
X236852224Y-127237412D01*
X236817600Y-127063341D01*
X236817600Y-126885859D01*
X236852224Y-126711788D01*
X236908088Y-126576923D01*
X236915198Y-126553482D01*
X236917600Y-126529096D01*
X236917600Y-125673600D01*
X238519600Y-125673600D01*
X238519600Y-126529096D01*
G37*
G36*
X210579600Y-126529096D02*
G01*
X210582002Y-126553482D01*
X210589112Y-126576923D01*
X210644976Y-126711788D01*
X210679600Y-126885859D01*
X210679600Y-127063341D01*
X210644976Y-127237412D01*
X210589112Y-127372277D01*
X210582002Y-127395718D01*
X210579600Y-127420104D01*
X210579600Y-128275600D01*
X208977600Y-128275600D01*
X208977600Y-127420104D01*
X208975198Y-127395718D01*
X208968088Y-127372277D01*
X208912224Y-127237412D01*
X208877600Y-127063341D01*
X208877600Y-126885859D01*
X208912224Y-126711788D01*
X208968088Y-126576923D01*
X208975198Y-126553482D01*
X208977600Y-126529096D01*
X208977600Y-125673600D01*
X210579600Y-125673600D01*
X210579600Y-126529096D01*
G37*
G36*
X215659600Y-126529096D02*
G01*
X215662002Y-126553482D01*
X215669112Y-126576923D01*
X215724976Y-126711788D01*
X215759600Y-126885859D01*
X215759600Y-127063341D01*
X215724976Y-127237412D01*
X215669112Y-127372277D01*
X215662002Y-127395718D01*
X215659600Y-127420104D01*
X215659600Y-128275600D01*
X214057600Y-128275600D01*
X214057600Y-127420104D01*
X214055198Y-127395718D01*
X214048088Y-127372277D01*
X213992224Y-127237412D01*
X213957600Y-127063341D01*
X213957600Y-126885859D01*
X213992224Y-126711788D01*
X214048088Y-126576923D01*
X214055198Y-126553482D01*
X214057600Y-126529096D01*
X214057600Y-125673600D01*
X215659600Y-125673600D01*
X215659600Y-126529096D01*
G37*
G36*
X197879600Y-126529096D02*
G01*
X197882002Y-126553482D01*
X197889112Y-126576923D01*
X197944976Y-126711788D01*
X197979600Y-126885859D01*
X197979600Y-127063341D01*
X197944976Y-127237412D01*
X197889112Y-127372277D01*
X197882002Y-127395718D01*
X197879600Y-127420104D01*
X197879600Y-128275600D01*
X196277600Y-128275600D01*
X196277600Y-127420104D01*
X196275198Y-127395718D01*
X196268088Y-127372277D01*
X196212224Y-127237412D01*
X196177600Y-127063341D01*
X196177600Y-126885859D01*
X196212224Y-126711788D01*
X196268088Y-126576923D01*
X196275198Y-126553482D01*
X196277600Y-126529096D01*
X196277600Y-125673600D01*
X197879600Y-125673600D01*
X197879600Y-126529096D01*
G37*
G36*
X117954500Y-127162000D02*
G01*
X115852500Y-127162000D01*
X115852500Y-125060000D01*
X117954500Y-125060000D01*
X117954500Y-127162000D01*
G37*
G36*
X98171372Y-120874918D02*
G01*
X98417239Y-120976759D01*
X98638512Y-121124610D01*
X98826690Y-121312788D01*
X98974541Y-121534061D01*
X99076382Y-121779928D01*
X99128300Y-122040938D01*
X99128300Y-122307062D01*
X99076382Y-122568072D01*
X98974541Y-122813939D01*
X98826690Y-123035212D01*
X98638512Y-123223390D01*
X98417239Y-123371241D01*
X98417238Y-123371242D01*
X98417237Y-123371242D01*
X98171372Y-123473082D01*
X97910363Y-123525000D01*
X97644237Y-123525000D01*
X97383228Y-123473082D01*
X97137363Y-123371242D01*
X97137362Y-123371242D01*
X97137361Y-123371241D01*
X96916088Y-123223390D01*
X96727910Y-123035212D01*
X96580059Y-122813939D01*
X96478218Y-122568072D01*
X96426300Y-122307062D01*
X96426300Y-122040938D01*
X96478218Y-121779928D01*
X96580059Y-121534061D01*
X96727910Y-121312788D01*
X96916088Y-121124610D01*
X97137361Y-120976759D01*
X97383228Y-120874918D01*
X97644237Y-120823000D01*
X97910363Y-120823000D01*
X98171372Y-120874918D01*
G37*
G36*
X98171372Y-115794918D02*
G01*
X98417239Y-115896759D01*
X98638512Y-116044610D01*
X98826690Y-116232788D01*
X98974541Y-116454061D01*
X99076382Y-116699928D01*
X99128300Y-116960938D01*
X99128300Y-117227062D01*
X99076382Y-117488072D01*
X98974541Y-117733939D01*
X98826690Y-117955212D01*
X98638512Y-118143390D01*
X98417239Y-118291241D01*
X98417238Y-118291242D01*
X98417237Y-118291242D01*
X98171372Y-118393082D01*
X97910363Y-118445000D01*
X97644237Y-118445000D01*
X97383228Y-118393082D01*
X97137363Y-118291242D01*
X97137362Y-118291242D01*
X97137361Y-118291241D01*
X96916088Y-118143390D01*
X96727910Y-117955212D01*
X96580059Y-117733939D01*
X96478218Y-117488072D01*
X96426300Y-117227062D01*
X96426300Y-116960938D01*
X96478218Y-116699928D01*
X96580059Y-116454061D01*
X96727910Y-116232788D01*
X96916088Y-116044610D01*
X97137361Y-115896759D01*
X97383228Y-115794918D01*
X97644237Y-115743000D01*
X97910363Y-115743000D01*
X98171372Y-115794918D01*
G37*
G36*
X98171372Y-110714918D02*
G01*
X98417239Y-110816759D01*
X98638512Y-110964610D01*
X98826690Y-111152788D01*
X98974541Y-111374061D01*
X99076382Y-111619928D01*
X99128300Y-111880938D01*
X99128300Y-112147062D01*
X99076382Y-112408072D01*
X98974541Y-112653939D01*
X98826690Y-112875212D01*
X98638512Y-113063390D01*
X98417239Y-113211241D01*
X98417238Y-113211242D01*
X98417237Y-113211242D01*
X98171372Y-113313082D01*
X97910363Y-113365000D01*
X97644237Y-113365000D01*
X97383228Y-113313082D01*
X97137363Y-113211242D01*
X97137362Y-113211242D01*
X97137361Y-113211241D01*
X96916088Y-113063390D01*
X96727910Y-112875212D01*
X96580059Y-112653939D01*
X96478218Y-112408072D01*
X96426300Y-112147062D01*
X96426300Y-111880938D01*
X96478218Y-111619928D01*
X96580059Y-111374061D01*
X96727910Y-111152788D01*
X96916088Y-110964610D01*
X97137361Y-110816759D01*
X97383228Y-110714918D01*
X97644237Y-110663000D01*
X97910363Y-110663000D01*
X98171372Y-110714918D01*
G37*
G36*
X98171372Y-105634918D02*
G01*
X98417239Y-105736759D01*
X98638512Y-105884610D01*
X98826690Y-106072788D01*
X98974541Y-106294061D01*
X99076382Y-106539928D01*
X99128300Y-106800938D01*
X99128300Y-107067062D01*
X99076382Y-107328072D01*
X98974541Y-107573939D01*
X98826690Y-107795212D01*
X98638512Y-107983390D01*
X98417239Y-108131241D01*
X98417238Y-108131242D01*
X98417237Y-108131242D01*
X98171372Y-108233082D01*
X97910363Y-108285000D01*
X97644237Y-108285000D01*
X97383228Y-108233082D01*
X97137363Y-108131242D01*
X97137362Y-108131242D01*
X97137361Y-108131241D01*
X96916088Y-107983390D01*
X96727910Y-107795212D01*
X96580059Y-107573939D01*
X96478218Y-107328072D01*
X96426300Y-107067062D01*
X96426300Y-106800938D01*
X96478218Y-106539928D01*
X96580059Y-106294061D01*
X96727910Y-106072788D01*
X96916088Y-105884610D01*
X97137361Y-105736759D01*
X97383228Y-105634918D01*
X97644237Y-105583000D01*
X97910363Y-105583000D01*
X98171372Y-105634918D01*
G37*
G36*
X98171372Y-100554918D02*
G01*
X98417239Y-100656759D01*
X98528628Y-100731187D01*
X98638511Y-100804609D01*
X98826691Y-100992789D01*
X98974542Y-101214063D01*
X99076382Y-101459928D01*
X99101750Y-101587459D01*
X99128300Y-101720938D01*
X99128300Y-101987062D01*
X99076382Y-102248072D01*
X98974541Y-102493939D01*
X98826690Y-102715212D01*
X98638512Y-102903390D01*
X98417239Y-103051241D01*
X98417238Y-103051242D01*
X98417237Y-103051242D01*
X98171372Y-103153082D01*
X97910363Y-103205000D01*
X97644237Y-103205000D01*
X97383228Y-103153082D01*
X97137363Y-103051242D01*
X97137362Y-103051242D01*
X97137361Y-103051241D01*
X96916088Y-102903390D01*
X96727910Y-102715212D01*
X96580059Y-102493939D01*
X96478218Y-102248072D01*
X96426300Y-101987062D01*
X96426300Y-101720938D01*
X96452851Y-101587459D01*
X96478218Y-101459928D01*
X96580058Y-101214063D01*
X96727909Y-100992789D01*
X96916089Y-100804609D01*
X97025972Y-100731187D01*
X97137361Y-100656759D01*
X97383228Y-100554918D01*
X97644237Y-100503000D01*
X97910363Y-100503000D01*
X98171372Y-100554918D01*
G37*
G36*
X200445000Y-101230696D02*
G01*
X200447402Y-101255082D01*
X200454512Y-101278523D01*
X200510376Y-101413388D01*
X200545000Y-101587459D01*
X200545000Y-101764941D01*
X200510376Y-101939012D01*
X200454512Y-102073877D01*
X200447402Y-102097318D01*
X200445000Y-102121704D01*
X200445000Y-102977200D01*
X198843000Y-102977200D01*
X198843000Y-102121704D01*
X198840598Y-102097318D01*
X198833488Y-102073877D01*
X198777624Y-101939012D01*
X198743000Y-101764941D01*
X198743000Y-101587459D01*
X198777624Y-101413388D01*
X198833488Y-101278523D01*
X198840598Y-101255082D01*
X198843000Y-101230696D01*
X198843000Y-100375200D01*
X200445000Y-100375200D01*
X200445000Y-101230696D01*
G37*
G36*
X195365000Y-101230696D02*
G01*
X195367402Y-101255082D01*
X195374512Y-101278523D01*
X195430376Y-101413388D01*
X195465000Y-101587459D01*
X195465000Y-101764941D01*
X195430376Y-101939012D01*
X195374512Y-102073877D01*
X195367402Y-102097318D01*
X195365000Y-102121704D01*
X195365000Y-102977200D01*
X193763000Y-102977200D01*
X193763000Y-102121704D01*
X193760598Y-102097318D01*
X193753488Y-102073877D01*
X193697624Y-101939012D01*
X193663000Y-101764941D01*
X193663000Y-101587459D01*
X193697624Y-101413388D01*
X193753488Y-101278523D01*
X193760598Y-101255082D01*
X193763000Y-101230696D01*
X193763000Y-100375200D01*
X195365000Y-100375200D01*
X195365000Y-101230696D01*
G37*
G36*
X202985000Y-101230696D02*
G01*
X202987402Y-101255082D01*
X202994512Y-101278523D01*
X203050376Y-101413388D01*
X203085000Y-101587459D01*
X203085000Y-101764941D01*
X203050376Y-101939012D01*
X202994512Y-102073877D01*
X202987402Y-102097318D01*
X202985000Y-102121704D01*
X202985000Y-102977200D01*
X201383000Y-102977200D01*
X201383000Y-102121704D01*
X201380598Y-102097318D01*
X201373488Y-102073877D01*
X201317624Y-101939012D01*
X201283000Y-101764941D01*
X201283000Y-101587459D01*
X201317624Y-101413388D01*
X201373488Y-101278523D01*
X201380598Y-101255082D01*
X201383000Y-101230696D01*
X201383000Y-100375200D01*
X202985000Y-100375200D01*
X202985000Y-101230696D01*
G37*
G36*
X205525000Y-101230696D02*
G01*
X205527402Y-101255082D01*
X205534512Y-101278523D01*
X205590376Y-101413388D01*
X205625000Y-101587459D01*
X205625000Y-101764941D01*
X205590376Y-101939012D01*
X205534512Y-102073877D01*
X205527402Y-102097318D01*
X205525000Y-102121704D01*
X205525000Y-102977200D01*
X203923000Y-102977200D01*
X203923000Y-102121704D01*
X203920598Y-102097318D01*
X203913488Y-102073877D01*
X203857624Y-101939012D01*
X203823000Y-101764941D01*
X203823000Y-101587459D01*
X203857624Y-101413388D01*
X203913488Y-101278523D01*
X203920598Y-101255082D01*
X203923000Y-101230696D01*
X203923000Y-100375200D01*
X205525000Y-100375200D01*
X205525000Y-101230696D01*
G37*
G36*
X238545000Y-101230696D02*
G01*
X238547402Y-101255082D01*
X238554512Y-101278523D01*
X238610376Y-101413388D01*
X238645000Y-101587459D01*
X238645000Y-101764941D01*
X238610376Y-101939012D01*
X238554512Y-102073877D01*
X238547402Y-102097318D01*
X238545000Y-102121704D01*
X238545000Y-102977200D01*
X236943000Y-102977200D01*
X236943000Y-102121704D01*
X236940598Y-102097318D01*
X236933488Y-102073877D01*
X236877624Y-101939012D01*
X236843000Y-101764941D01*
X236843000Y-101587459D01*
X236877624Y-101413388D01*
X236933488Y-101278523D01*
X236940598Y-101255082D01*
X236943000Y-101230696D01*
X236943000Y-100375200D01*
X238545000Y-100375200D01*
X238545000Y-101230696D01*
G37*
G36*
X208065000Y-101230696D02*
G01*
X208067402Y-101255082D01*
X208074512Y-101278523D01*
X208130376Y-101413388D01*
X208165000Y-101587459D01*
X208165000Y-101764941D01*
X208130376Y-101939012D01*
X208074512Y-102073877D01*
X208067402Y-102097318D01*
X208065000Y-102121704D01*
X208065000Y-102977200D01*
X206463000Y-102977200D01*
X206463000Y-102121704D01*
X206460598Y-102097318D01*
X206453488Y-102073877D01*
X206397624Y-101939012D01*
X206363000Y-101764941D01*
X206363000Y-101587459D01*
X206397624Y-101413388D01*
X206453488Y-101278523D01*
X206460598Y-101255082D01*
X206463000Y-101230696D01*
X206463000Y-100375200D01*
X208065000Y-100375200D01*
X208065000Y-101230696D01*
G37*
G36*
X210605000Y-101230696D02*
G01*
X210607402Y-101255082D01*
X210614512Y-101278523D01*
X210670376Y-101413388D01*
X210705000Y-101587459D01*
X210705000Y-101764941D01*
X210670376Y-101939012D01*
X210614512Y-102073877D01*
X210607402Y-102097318D01*
X210605000Y-102121704D01*
X210605000Y-102977200D01*
X209003000Y-102977200D01*
X209003000Y-102121704D01*
X209000598Y-102097318D01*
X208993488Y-102073877D01*
X208937624Y-101939012D01*
X208903000Y-101764941D01*
X208903000Y-101587459D01*
X208937624Y-101413388D01*
X208993488Y-101278523D01*
X209000598Y-101255082D01*
X209003000Y-101230696D01*
X209003000Y-100375200D01*
X210605000Y-100375200D01*
X210605000Y-101230696D01*
G37*
G36*
X213145000Y-101230696D02*
G01*
X213147402Y-101255082D01*
X213154512Y-101278523D01*
X213210376Y-101413388D01*
X213245000Y-101587459D01*
X213245000Y-101764941D01*
X213210376Y-101939012D01*
X213154512Y-102073877D01*
X213147402Y-102097318D01*
X213145000Y-102121704D01*
X213145000Y-102977200D01*
X211543000Y-102977200D01*
X211543000Y-102121704D01*
X211540598Y-102097318D01*
X211533488Y-102073877D01*
X211477624Y-101939012D01*
X211443000Y-101764941D01*
X211443000Y-101587459D01*
X211477624Y-101413388D01*
X211533488Y-101278523D01*
X211540598Y-101255082D01*
X211543000Y-101230696D01*
X211543000Y-100375200D01*
X213145000Y-100375200D01*
X213145000Y-101230696D01*
G37*
G36*
X218225000Y-101230696D02*
G01*
X218227402Y-101255082D01*
X218234512Y-101278523D01*
X218290376Y-101413388D01*
X218325000Y-101587459D01*
X218325000Y-101764941D01*
X218290376Y-101939012D01*
X218234512Y-102073877D01*
X218227402Y-102097318D01*
X218225000Y-102121704D01*
X218225000Y-102977200D01*
X216623000Y-102977200D01*
X216623000Y-102121704D01*
X216620598Y-102097318D01*
X216613488Y-102073877D01*
X216557624Y-101939012D01*
X216523000Y-101764941D01*
X216523000Y-101587459D01*
X216557624Y-101413388D01*
X216613488Y-101278523D01*
X216620598Y-101255082D01*
X216623000Y-101230696D01*
X216623000Y-100375200D01*
X218225000Y-100375200D01*
X218225000Y-101230696D01*
G37*
G36*
X220765000Y-101230696D02*
G01*
X220767402Y-101255082D01*
X220774512Y-101278523D01*
X220830376Y-101413388D01*
X220865000Y-101587459D01*
X220865000Y-101764941D01*
X220830376Y-101939012D01*
X220774512Y-102073877D01*
X220767402Y-102097318D01*
X220765000Y-102121704D01*
X220765000Y-102977200D01*
X219163000Y-102977200D01*
X219163000Y-102121704D01*
X219160598Y-102097318D01*
X219153488Y-102073877D01*
X219097624Y-101939012D01*
X219063000Y-101764941D01*
X219063000Y-101587459D01*
X219097624Y-101413388D01*
X219153488Y-101278523D01*
X219160598Y-101255082D01*
X219163000Y-101230696D01*
X219163000Y-100375200D01*
X220765000Y-100375200D01*
X220765000Y-101230696D01*
G37*
G36*
X236005000Y-101230696D02*
G01*
X236007402Y-101255082D01*
X236014512Y-101278523D01*
X236070376Y-101413388D01*
X236105000Y-101587459D01*
X236105000Y-101764941D01*
X236070376Y-101939012D01*
X236014512Y-102073877D01*
X236007402Y-102097318D01*
X236005000Y-102121704D01*
X236005000Y-102977200D01*
X234403000Y-102977200D01*
X234403000Y-102121704D01*
X234400598Y-102097318D01*
X234393488Y-102073877D01*
X234337624Y-101939012D01*
X234303000Y-101764941D01*
X234303000Y-101587459D01*
X234337624Y-101413388D01*
X234393488Y-101278523D01*
X234400598Y-101255082D01*
X234403000Y-101230696D01*
X234403000Y-100375200D01*
X236005000Y-100375200D01*
X236005000Y-101230696D01*
G37*
G36*
X225845000Y-101230696D02*
G01*
X225847402Y-101255082D01*
X225854512Y-101278523D01*
X225910376Y-101413388D01*
X225945000Y-101587459D01*
X225945000Y-101764941D01*
X225910376Y-101939012D01*
X225854512Y-102073877D01*
X225847402Y-102097318D01*
X225845000Y-102121704D01*
X225845000Y-102977200D01*
X224243000Y-102977200D01*
X224243000Y-102121704D01*
X224240598Y-102097318D01*
X224233488Y-102073877D01*
X224177624Y-101939012D01*
X224143000Y-101764941D01*
X224143000Y-101587459D01*
X224177624Y-101413388D01*
X224233488Y-101278523D01*
X224240598Y-101255082D01*
X224243000Y-101230696D01*
X224243000Y-100375200D01*
X225845000Y-100375200D01*
X225845000Y-101230696D01*
G37*
G36*
X197905000Y-101230696D02*
G01*
X197907402Y-101255082D01*
X197914512Y-101278523D01*
X197970376Y-101413388D01*
X198005000Y-101587459D01*
X198005000Y-101764941D01*
X197970376Y-101939012D01*
X197914512Y-102073877D01*
X197907402Y-102097318D01*
X197905000Y-102121704D01*
X197905000Y-102977200D01*
X196303000Y-102977200D01*
X196303000Y-102121704D01*
X196300598Y-102097318D01*
X196293488Y-102073877D01*
X196237624Y-101939012D01*
X196203000Y-101764941D01*
X196203000Y-101587459D01*
X196237624Y-101413388D01*
X196293488Y-101278523D01*
X196300598Y-101255082D01*
X196303000Y-101230696D01*
X196303000Y-100375200D01*
X197905000Y-100375200D01*
X197905000Y-101230696D01*
G37*
G36*
X241085000Y-101230696D02*
G01*
X241087402Y-101255082D01*
X241094512Y-101278523D01*
X241150376Y-101413388D01*
X241185000Y-101587459D01*
X241185000Y-101764941D01*
X241150376Y-101939012D01*
X241094512Y-102073877D01*
X241087402Y-102097318D01*
X241085000Y-102121704D01*
X241085000Y-102977200D01*
X239483000Y-102977200D01*
X239483000Y-102121704D01*
X239480598Y-102097318D01*
X239473488Y-102073877D01*
X239417624Y-101939012D01*
X239383000Y-101764941D01*
X239383000Y-101587459D01*
X239417624Y-101413388D01*
X239473488Y-101278523D01*
X239480598Y-101255082D01*
X239483000Y-101230696D01*
X239483000Y-100375200D01*
X241085000Y-100375200D01*
X241085000Y-101230696D01*
G37*
G36*
X233465000Y-101230696D02*
G01*
X233467402Y-101255082D01*
X233474512Y-101278523D01*
X233530376Y-101413388D01*
X233565000Y-101587459D01*
X233565000Y-101764941D01*
X233530376Y-101939012D01*
X233474512Y-102073877D01*
X233467402Y-102097318D01*
X233465000Y-102121704D01*
X233465000Y-102977200D01*
X231863000Y-102977200D01*
X231863000Y-102121704D01*
X231860598Y-102097318D01*
X231853488Y-102073877D01*
X231797624Y-101939012D01*
X231763000Y-101764941D01*
X231763000Y-101587459D01*
X231797624Y-101413388D01*
X231853488Y-101278523D01*
X231860598Y-101255082D01*
X231863000Y-101230696D01*
X231863000Y-100375200D01*
X233465000Y-100375200D01*
X233465000Y-101230696D01*
G37*
G36*
X215685000Y-101230696D02*
G01*
X215687402Y-101255082D01*
X215694512Y-101278523D01*
X215750376Y-101413388D01*
X215785000Y-101587459D01*
X215785000Y-101764941D01*
X215750376Y-101939012D01*
X215694512Y-102073877D01*
X215687402Y-102097318D01*
X215685000Y-102121704D01*
X215685000Y-102977200D01*
X214083000Y-102977200D01*
X214083000Y-102121704D01*
X214080598Y-102097318D01*
X214073488Y-102073877D01*
X214017624Y-101939012D01*
X213983000Y-101764941D01*
X213983000Y-101587459D01*
X214017624Y-101413388D01*
X214073488Y-101278523D01*
X214080598Y-101255082D01*
X214083000Y-101230696D01*
X214083000Y-100375200D01*
X215685000Y-100375200D01*
X215685000Y-101230696D01*
G37*
G36*
X228385000Y-101230696D02*
G01*
X228387402Y-101255082D01*
X228394512Y-101278523D01*
X228450376Y-101413388D01*
X228485000Y-101587459D01*
X228485000Y-101764941D01*
X228450376Y-101939012D01*
X228394512Y-102073877D01*
X228387402Y-102097318D01*
X228385000Y-102121704D01*
X228385000Y-102977200D01*
X226783000Y-102977200D01*
X226783000Y-102121704D01*
X226780598Y-102097318D01*
X226773488Y-102073877D01*
X226717624Y-101939012D01*
X226683000Y-101764941D01*
X226683000Y-101587459D01*
X226717624Y-101413388D01*
X226773488Y-101278523D01*
X226780598Y-101255082D01*
X226783000Y-101230696D01*
X226783000Y-100375200D01*
X228385000Y-100375200D01*
X228385000Y-101230696D01*
G37*
G36*
X223305000Y-101230696D02*
G01*
X223307402Y-101255082D01*
X223314512Y-101278523D01*
X223370376Y-101413388D01*
X223405000Y-101587459D01*
X223405000Y-101764941D01*
X223370376Y-101939012D01*
X223314512Y-102073877D01*
X223307402Y-102097318D01*
X223305000Y-102121704D01*
X223305000Y-102977200D01*
X221703000Y-102977200D01*
X221703000Y-102121704D01*
X221700598Y-102097318D01*
X221693488Y-102073877D01*
X221637624Y-101939012D01*
X221603000Y-101764941D01*
X221603000Y-101587459D01*
X221637624Y-101413388D01*
X221693488Y-101278523D01*
X221700598Y-101255082D01*
X221703000Y-101230696D01*
X221703000Y-100375200D01*
X223305000Y-100375200D01*
X223305000Y-101230696D01*
G37*
G36*
X230925000Y-101230696D02*
G01*
X230927402Y-101255082D01*
X230934512Y-101278523D01*
X230990376Y-101413388D01*
X231025000Y-101587459D01*
X231025000Y-101764941D01*
X230990376Y-101939012D01*
X230934512Y-102073877D01*
X230927402Y-102097318D01*
X230925000Y-102121704D01*
X230925000Y-102977200D01*
X229323000Y-102977200D01*
X229323000Y-102121704D01*
X229320598Y-102097318D01*
X229313488Y-102073877D01*
X229257624Y-101939012D01*
X229223000Y-101764941D01*
X229223000Y-101587459D01*
X229257624Y-101413388D01*
X229313488Y-101278523D01*
X229320598Y-101255082D01*
X229323000Y-101230696D01*
X229323000Y-100375200D01*
X230925000Y-100375200D01*
X230925000Y-101230696D01*
G37*
G36*
X98171372Y-95474918D02*
G01*
X98417239Y-95576759D01*
X98638512Y-95724610D01*
X98826690Y-95912788D01*
X98974541Y-96134061D01*
X99076382Y-96379928D01*
X99128300Y-96640938D01*
X99128300Y-96907062D01*
X99076382Y-97168072D01*
X98974541Y-97413939D01*
X98826690Y-97635212D01*
X98638512Y-97823390D01*
X98417239Y-97971241D01*
X98417238Y-97971242D01*
X98417237Y-97971242D01*
X98171372Y-98073082D01*
X97910363Y-98125000D01*
X97644237Y-98125000D01*
X97383228Y-98073082D01*
X97137363Y-97971242D01*
X97137362Y-97971242D01*
X97137361Y-97971241D01*
X96916088Y-97823390D01*
X96727910Y-97635212D01*
X96580059Y-97413939D01*
X96478218Y-97168072D01*
X96426300Y-96907062D01*
X96426300Y-96640938D01*
X96478218Y-96379928D01*
X96580059Y-96134061D01*
X96727910Y-95912788D01*
X96916088Y-95724610D01*
X97137361Y-95576759D01*
X97383228Y-95474918D01*
X97644237Y-95423000D01*
X97910363Y-95423000D01*
X98171372Y-95474918D01*
G37*
G36*
X99128300Y-91013000D02*
G01*
X96426300Y-91013000D01*
X96426300Y-88311000D01*
X99128300Y-88311000D01*
X99128300Y-91013000D01*
G37*
G36*
X98171372Y-83282918D02*
G01*
X98417239Y-83384759D01*
X98638512Y-83532610D01*
X98826690Y-83720788D01*
X98974541Y-83942061D01*
X99076382Y-84187928D01*
X99128300Y-84448938D01*
X99128300Y-84715062D01*
X99076382Y-84976072D01*
X98974541Y-85221939D01*
X98826690Y-85443212D01*
X98638512Y-85631390D01*
X98417239Y-85779241D01*
X98417238Y-85779242D01*
X98417237Y-85779242D01*
X98171372Y-85881082D01*
X97910363Y-85933000D01*
X97644237Y-85933000D01*
X97383228Y-85881082D01*
X97137363Y-85779242D01*
X97137362Y-85779242D01*
X97137361Y-85779241D01*
X96916088Y-85631390D01*
X96727910Y-85443212D01*
X96580059Y-85221939D01*
X96478218Y-84976072D01*
X96426300Y-84715062D01*
X96426300Y-84448938D01*
X96478218Y-84187928D01*
X96580059Y-83942061D01*
X96727910Y-83720788D01*
X96916088Y-83532610D01*
X97137361Y-83384759D01*
X97383228Y-83282918D01*
X97644237Y-83231000D01*
X97910363Y-83231000D01*
X98171372Y-83282918D01*
G37*
G36*
X98171372Y-78202918D02*
G01*
X98370230Y-78285287D01*
X98417239Y-78304759D01*
X98426112Y-78310688D01*
X98638511Y-78452609D01*
X98826691Y-78640789D01*
X98974542Y-78862063D01*
X99076382Y-79107928D01*
X99128300Y-79368937D01*
X99128300Y-79635063D01*
X99115399Y-79699919D01*
X99076382Y-79896072D01*
X98974541Y-80141939D01*
X98826690Y-80363212D01*
X98638512Y-80551390D01*
X98417239Y-80699241D01*
X98417238Y-80699242D01*
X98417237Y-80699242D01*
X98171372Y-80801082D01*
X97910363Y-80853000D01*
X97644237Y-80853000D01*
X97383228Y-80801082D01*
X97137363Y-80699242D01*
X97137362Y-80699242D01*
X97137361Y-80699241D01*
X96916088Y-80551390D01*
X96727910Y-80363212D01*
X96580059Y-80141939D01*
X96478218Y-79896072D01*
X96439201Y-79699919D01*
X96426300Y-79635063D01*
X96426300Y-79368937D01*
X96478218Y-79107928D01*
X96580058Y-78862063D01*
X96727909Y-78640789D01*
X96916089Y-78452609D01*
X97128488Y-78310688D01*
X97137361Y-78304759D01*
X97184371Y-78285287D01*
X97383228Y-78202918D01*
X97644237Y-78151000D01*
X97910363Y-78151000D01*
X98171372Y-78202918D01*
G37*
G36*
X160738618Y-78220153D02*
G01*
X160957185Y-78310687D01*
X160957187Y-78310688D01*
X161153893Y-78442122D01*
X161321178Y-78609407D01*
X161452612Y-78806113D01*
X161452613Y-78806115D01*
X161543147Y-79024682D01*
X161589300Y-79256710D01*
X161589300Y-79493290D01*
X161543147Y-79725318D01*
X161472418Y-79896072D01*
X161452612Y-79943887D01*
X161321178Y-80140593D01*
X161153893Y-80307878D01*
X160957187Y-80439312D01*
X160957186Y-80439313D01*
X160957185Y-80439313D01*
X160738618Y-80529847D01*
X160506590Y-80576000D01*
X160270010Y-80576000D01*
X160037982Y-80529847D01*
X159819415Y-80439313D01*
X159819414Y-80439313D01*
X159819413Y-80439312D01*
X159622707Y-80307878D01*
X159455422Y-80140593D01*
X159323988Y-79943887D01*
X159304182Y-79896072D01*
X159233453Y-79725318D01*
X159187300Y-79493290D01*
X159187300Y-79256710D01*
X159233453Y-79024682D01*
X159323987Y-78806115D01*
X159323988Y-78806113D01*
X159455422Y-78609407D01*
X159622707Y-78442122D01*
X159819413Y-78310688D01*
X159819415Y-78310687D01*
X160037982Y-78220153D01*
X160270010Y-78174000D01*
X160506590Y-78174000D01*
X160738618Y-78220153D01*
G37*
G36*
X134932218Y-78220153D02*
G01*
X135150785Y-78310687D01*
X135150787Y-78310688D01*
X135347493Y-78442122D01*
X135514778Y-78609407D01*
X135646212Y-78806113D01*
X135646213Y-78806115D01*
X135736747Y-79024682D01*
X135782900Y-79256710D01*
X135782900Y-79493290D01*
X135736747Y-79725318D01*
X135666018Y-79896072D01*
X135646212Y-79943887D01*
X135514778Y-80140593D01*
X135347493Y-80307878D01*
X135150787Y-80439312D01*
X135150786Y-80439313D01*
X135150785Y-80439313D01*
X134932218Y-80529847D01*
X134700190Y-80576000D01*
X134463610Y-80576000D01*
X134231582Y-80529847D01*
X134013015Y-80439313D01*
X134013014Y-80439313D01*
X134013013Y-80439312D01*
X133816307Y-80307878D01*
X133649022Y-80140593D01*
X133517588Y-79943887D01*
X133497782Y-79896072D01*
X133427053Y-79725318D01*
X133380900Y-79493290D01*
X133380900Y-79256710D01*
X133427053Y-79024682D01*
X133517587Y-78806115D01*
X133517588Y-78806113D01*
X133649022Y-78609407D01*
X133816307Y-78442122D01*
X134013013Y-78310688D01*
X134013015Y-78310687D01*
X134231582Y-78220153D01*
X134463610Y-78174000D01*
X134700190Y-78174000D01*
X134932218Y-78220153D01*
G37*
G36*
X140545618Y-78220153D02*
G01*
X140764185Y-78310687D01*
X140764187Y-78310688D01*
X140960893Y-78442122D01*
X141128178Y-78609407D01*
X141259612Y-78806113D01*
X141259613Y-78806115D01*
X141350147Y-79024682D01*
X141396300Y-79256710D01*
X141396300Y-79493290D01*
X141350147Y-79725318D01*
X141279418Y-79896072D01*
X141259612Y-79943887D01*
X141128178Y-80140593D01*
X140960893Y-80307878D01*
X140764187Y-80439312D01*
X140764186Y-80439313D01*
X140764185Y-80439313D01*
X140545618Y-80529847D01*
X140313590Y-80576000D01*
X140077010Y-80576000D01*
X139844982Y-80529847D01*
X139626415Y-80439313D01*
X139626414Y-80439313D01*
X139626413Y-80439312D01*
X139429707Y-80307878D01*
X139262422Y-80140593D01*
X139130988Y-79943887D01*
X139111182Y-79896072D01*
X139040453Y-79725318D01*
X138994300Y-79493290D01*
X138994300Y-79256710D01*
X139040453Y-79024682D01*
X139130987Y-78806115D01*
X139130988Y-78806113D01*
X139262422Y-78609407D01*
X139429707Y-78442122D01*
X139626413Y-78310688D01*
X139626415Y-78310687D01*
X139844982Y-78220153D01*
X140077010Y-78174000D01*
X140313590Y-78174000D01*
X140545618Y-78220153D01*
G37*
G36*
X145219218Y-78220153D02*
G01*
X145437785Y-78310687D01*
X145437787Y-78310688D01*
X145634493Y-78442122D01*
X145801778Y-78609407D01*
X145933212Y-78806113D01*
X145933213Y-78806115D01*
X146023747Y-79024682D01*
X146069900Y-79256710D01*
X146069900Y-79493290D01*
X146023747Y-79725318D01*
X145953018Y-79896072D01*
X145933212Y-79943887D01*
X145801778Y-80140593D01*
X145634493Y-80307878D01*
X145437787Y-80439312D01*
X145437786Y-80439313D01*
X145437785Y-80439313D01*
X145219218Y-80529847D01*
X144987190Y-80576000D01*
X144750610Y-80576000D01*
X144518582Y-80529847D01*
X144300015Y-80439313D01*
X144300014Y-80439313D01*
X144300013Y-80439312D01*
X144103307Y-80307878D01*
X143936022Y-80140593D01*
X143804588Y-79943887D01*
X143784782Y-79896072D01*
X143714053Y-79725318D01*
X143667900Y-79493290D01*
X143667900Y-79256710D01*
X143714053Y-79024682D01*
X143804587Y-78806115D01*
X143804588Y-78806113D01*
X143936022Y-78609407D01*
X144103307Y-78442122D01*
X144300013Y-78310688D01*
X144300015Y-78310687D01*
X144518582Y-78220153D01*
X144750610Y-78174000D01*
X144987190Y-78174000D01*
X145219218Y-78220153D01*
G37*
G36*
X150578618Y-78220153D02*
G01*
X150797185Y-78310687D01*
X150797187Y-78310688D01*
X150993893Y-78442122D01*
X151161178Y-78609407D01*
X151292612Y-78806113D01*
X151292613Y-78806115D01*
X151383147Y-79024682D01*
X151429300Y-79256710D01*
X151429300Y-79493290D01*
X151383147Y-79725318D01*
X151312418Y-79896072D01*
X151292612Y-79943887D01*
X151161178Y-80140593D01*
X150993893Y-80307878D01*
X150797187Y-80439312D01*
X150797186Y-80439313D01*
X150797185Y-80439313D01*
X150578618Y-80529847D01*
X150346590Y-80576000D01*
X150110010Y-80576000D01*
X149877982Y-80529847D01*
X149659415Y-80439313D01*
X149659414Y-80439313D01*
X149659413Y-80439312D01*
X149462707Y-80307878D01*
X149295422Y-80140593D01*
X149163988Y-79943887D01*
X149144182Y-79896072D01*
X149073453Y-79725318D01*
X149027300Y-79493290D01*
X149027300Y-79256710D01*
X149073453Y-79024682D01*
X149163987Y-78806115D01*
X149163988Y-78806113D01*
X149295422Y-78609407D01*
X149462707Y-78442122D01*
X149659413Y-78310688D01*
X149659415Y-78310687D01*
X149877982Y-78220153D01*
X150110010Y-78174000D01*
X150346590Y-78174000D01*
X150578618Y-78220153D01*
G37*
G36*
X130258618Y-78220153D02*
G01*
X130477185Y-78310687D01*
X130477187Y-78310688D01*
X130673893Y-78442122D01*
X130841178Y-78609407D01*
X130972612Y-78806113D01*
X130972613Y-78806115D01*
X131063147Y-79024682D01*
X131109300Y-79256710D01*
X131109300Y-79493290D01*
X131063147Y-79725318D01*
X130992418Y-79896072D01*
X130972612Y-79943887D01*
X130841178Y-80140593D01*
X130673893Y-80307878D01*
X130477187Y-80439312D01*
X130477186Y-80439313D01*
X130477185Y-80439313D01*
X130258618Y-80529847D01*
X130026590Y-80576000D01*
X129790010Y-80576000D01*
X129557982Y-80529847D01*
X129339415Y-80439313D01*
X129339414Y-80439313D01*
X129339413Y-80439312D01*
X129142707Y-80307878D01*
X128975422Y-80140593D01*
X128843988Y-79943887D01*
X128824182Y-79896072D01*
X128753453Y-79725318D01*
X128707300Y-79493290D01*
X128707300Y-79256710D01*
X128753453Y-79024682D01*
X128843987Y-78806115D01*
X128843988Y-78806113D01*
X128975422Y-78609407D01*
X129142707Y-78442122D01*
X129339413Y-78310688D01*
X129339415Y-78310687D01*
X129557982Y-78220153D01*
X129790010Y-78174000D01*
X130026590Y-78174000D01*
X130258618Y-78220153D01*
G37*
G36*
X165412218Y-78220153D02*
G01*
X165630785Y-78310687D01*
X165630787Y-78310688D01*
X165827493Y-78442122D01*
X165994778Y-78609407D01*
X166126212Y-78806113D01*
X166126213Y-78806115D01*
X166216747Y-79024682D01*
X166262900Y-79256710D01*
X166262900Y-79493290D01*
X166216747Y-79725318D01*
X166146018Y-79896072D01*
X166126212Y-79943887D01*
X165994778Y-80140593D01*
X165827493Y-80307878D01*
X165630787Y-80439312D01*
X165630786Y-80439313D01*
X165630785Y-80439313D01*
X165412218Y-80529847D01*
X165180190Y-80576000D01*
X164943610Y-80576000D01*
X164711582Y-80529847D01*
X164493015Y-80439313D01*
X164493014Y-80439313D01*
X164493013Y-80439312D01*
X164296307Y-80307878D01*
X164129022Y-80140593D01*
X163997588Y-79943887D01*
X163977782Y-79896072D01*
X163907053Y-79725318D01*
X163860900Y-79493290D01*
X163860900Y-79256710D01*
X163907053Y-79024682D01*
X163997587Y-78806115D01*
X163997588Y-78806113D01*
X164129022Y-78609407D01*
X164296307Y-78442122D01*
X164493013Y-78310688D01*
X164493015Y-78310687D01*
X164711582Y-78220153D01*
X164943610Y-78174000D01*
X165180190Y-78174000D01*
X165412218Y-78220153D01*
G37*
G36*
X124137218Y-78220153D02*
G01*
X124355785Y-78310687D01*
X124355787Y-78310688D01*
X124552493Y-78442122D01*
X124719778Y-78609407D01*
X124851212Y-78806113D01*
X124851213Y-78806115D01*
X124941747Y-79024682D01*
X124987900Y-79256710D01*
X124987900Y-79493290D01*
X124941747Y-79725318D01*
X124871018Y-79896072D01*
X124851212Y-79943887D01*
X124719778Y-80140593D01*
X124552493Y-80307878D01*
X124355787Y-80439312D01*
X124355786Y-80439313D01*
X124355785Y-80439313D01*
X124137218Y-80529847D01*
X123905190Y-80576000D01*
X123668610Y-80576000D01*
X123436582Y-80529847D01*
X123218015Y-80439313D01*
X123218014Y-80439313D01*
X123218013Y-80439312D01*
X123021307Y-80307878D01*
X122854022Y-80140593D01*
X122722588Y-79943887D01*
X122702782Y-79896072D01*
X122632053Y-79725318D01*
X122585900Y-79493290D01*
X122585900Y-79256710D01*
X122632053Y-79024682D01*
X122722587Y-78806115D01*
X122722588Y-78806113D01*
X122854022Y-78609407D01*
X123021307Y-78442122D01*
X123218013Y-78310688D01*
X123218015Y-78310687D01*
X123436582Y-78220153D01*
X123668610Y-78174000D01*
X123905190Y-78174000D01*
X124137218Y-78220153D01*
G37*
G36*
X119463618Y-78220153D02*
G01*
X119682185Y-78310687D01*
X119682187Y-78310688D01*
X119878893Y-78442122D01*
X120046178Y-78609407D01*
X120177612Y-78806113D01*
X120177613Y-78806115D01*
X120268147Y-79024682D01*
X120314300Y-79256710D01*
X120314300Y-79493290D01*
X120268147Y-79725318D01*
X120197418Y-79896072D01*
X120177612Y-79943887D01*
X120046178Y-80140593D01*
X119878893Y-80307878D01*
X119682187Y-80439312D01*
X119682186Y-80439313D01*
X119682185Y-80439313D01*
X119463618Y-80529847D01*
X119231590Y-80576000D01*
X118995010Y-80576000D01*
X118762982Y-80529847D01*
X118544415Y-80439313D01*
X118544414Y-80439313D01*
X118544413Y-80439312D01*
X118347707Y-80307878D01*
X118180422Y-80140593D01*
X118048988Y-79943887D01*
X118029182Y-79896072D01*
X117958453Y-79725318D01*
X117912300Y-79493290D01*
X117912300Y-79256710D01*
X117958453Y-79024682D01*
X118048987Y-78806115D01*
X118048988Y-78806113D01*
X118180422Y-78609407D01*
X118347707Y-78442122D01*
X118544413Y-78310688D01*
X118544415Y-78310687D01*
X118762982Y-78220153D01*
X118995010Y-78174000D01*
X119231590Y-78174000D01*
X119463618Y-78220153D01*
G37*
G36*
X155252218Y-78220153D02*
G01*
X155470785Y-78310687D01*
X155470787Y-78310688D01*
X155667493Y-78442122D01*
X155834778Y-78609407D01*
X155966212Y-78806113D01*
X155966213Y-78806115D01*
X156056747Y-79024682D01*
X156102900Y-79256710D01*
X156102900Y-79493290D01*
X156056747Y-79725318D01*
X155986018Y-79896072D01*
X155966212Y-79943887D01*
X155834778Y-80140593D01*
X155667493Y-80307878D01*
X155470787Y-80439312D01*
X155470786Y-80439313D01*
X155470785Y-80439313D01*
X155252218Y-80529847D01*
X155020190Y-80576000D01*
X154783610Y-80576000D01*
X154551582Y-80529847D01*
X154333015Y-80439313D01*
X154333014Y-80439313D01*
X154333013Y-80439312D01*
X154136307Y-80307878D01*
X153969022Y-80140593D01*
X153837588Y-79943887D01*
X153817782Y-79896072D01*
X153747053Y-79725318D01*
X153700900Y-79493290D01*
X153700900Y-79256710D01*
X153747053Y-79024682D01*
X153837587Y-78806115D01*
X153837588Y-78806113D01*
X153969022Y-78609407D01*
X154136307Y-78442122D01*
X154333013Y-78310688D01*
X154333015Y-78310687D01*
X154551582Y-78220153D01*
X154783610Y-78174000D01*
X155020190Y-78174000D01*
X155252218Y-78220153D01*
G37*
G36*
X110192618Y-78194753D02*
G01*
X110411185Y-78285287D01*
X110411187Y-78285288D01*
X110607893Y-78416722D01*
X110775178Y-78584007D01*
X110813118Y-78640789D01*
X110906613Y-78780715D01*
X110997147Y-78999282D01*
X111043300Y-79231310D01*
X111043300Y-79467890D01*
X110997147Y-79699918D01*
X110986625Y-79725319D01*
X110906612Y-79918487D01*
X110775178Y-80115193D01*
X110607893Y-80282478D01*
X110411187Y-80413912D01*
X110411186Y-80413913D01*
X110411185Y-80413913D01*
X110192618Y-80504447D01*
X109960590Y-80550600D01*
X109724010Y-80550600D01*
X109491982Y-80504447D01*
X109273415Y-80413913D01*
X109273414Y-80413913D01*
X109273413Y-80413912D01*
X109076707Y-80282478D01*
X108909422Y-80115193D01*
X108777988Y-79918487D01*
X108697975Y-79725319D01*
X108687453Y-79699918D01*
X108641300Y-79467890D01*
X108641300Y-79231310D01*
X108687453Y-78999282D01*
X108777987Y-78780715D01*
X108871482Y-78640789D01*
X108909422Y-78584007D01*
X109076707Y-78416722D01*
X109273413Y-78285288D01*
X109273415Y-78285287D01*
X109491982Y-78194753D01*
X109724010Y-78148600D01*
X109960590Y-78148600D01*
X110192618Y-78194753D01*
G37*
G36*
X114866218Y-78194753D02*
G01*
X115084785Y-78285287D01*
X115084787Y-78285288D01*
X115281493Y-78416722D01*
X115448778Y-78584007D01*
X115486718Y-78640789D01*
X115580213Y-78780715D01*
X115670747Y-78999282D01*
X115716900Y-79231310D01*
X115716900Y-79467890D01*
X115670747Y-79699918D01*
X115660225Y-79725319D01*
X115580212Y-79918487D01*
X115448778Y-80115193D01*
X115281493Y-80282478D01*
X115084787Y-80413912D01*
X115084786Y-80413913D01*
X115084785Y-80413913D01*
X114866218Y-80504447D01*
X114634190Y-80550600D01*
X114397610Y-80550600D01*
X114165582Y-80504447D01*
X113947015Y-80413913D01*
X113947014Y-80413913D01*
X113947013Y-80413912D01*
X113750307Y-80282478D01*
X113583022Y-80115193D01*
X113451588Y-79918487D01*
X113371575Y-79725319D01*
X113361053Y-79699918D01*
X113314900Y-79467890D01*
X113314900Y-79231310D01*
X113361053Y-78999282D01*
X113451587Y-78780715D01*
X113545082Y-78640789D01*
X113583022Y-78584007D01*
X113750307Y-78416722D01*
X113947013Y-78285288D01*
X113947015Y-78285287D01*
X114165582Y-78194753D01*
X114397610Y-78148600D01*
X114634190Y-78148600D01*
X114866218Y-78194753D01*
G37*
G36*
X98171372Y-73122918D02*
G01*
X98417239Y-73224759D01*
X98638512Y-73372610D01*
X98826690Y-73560788D01*
X98974541Y-73782061D01*
X99076382Y-74027928D01*
X99128300Y-74288938D01*
X99128300Y-74555062D01*
X99076382Y-74816072D01*
X98974541Y-75061939D01*
X98826690Y-75283212D01*
X98638512Y-75471390D01*
X98417239Y-75619241D01*
X98417238Y-75619242D01*
X98417237Y-75619242D01*
X98171372Y-75721082D01*
X97910363Y-75773000D01*
X97644237Y-75773000D01*
X97383228Y-75721082D01*
X97137363Y-75619242D01*
X97137362Y-75619242D01*
X97137361Y-75619241D01*
X96916088Y-75471390D01*
X96727910Y-75283212D01*
X96580059Y-75061939D01*
X96478218Y-74816072D01*
X96426300Y-74555062D01*
X96426300Y-74288938D01*
X96478218Y-74027928D01*
X96580059Y-73782061D01*
X96727910Y-73560788D01*
X96916088Y-73372610D01*
X97137361Y-73224759D01*
X97383228Y-73122918D01*
X97644237Y-73071000D01*
X97910363Y-73071000D01*
X98171372Y-73122918D01*
G37*
G36*
X98018390Y-68012488D02*
G01*
X98171372Y-68042918D01*
X98417239Y-68144759D01*
X98638512Y-68292610D01*
X98826690Y-68480788D01*
X98974541Y-68702061D01*
X99076382Y-68947928D01*
X99128300Y-69208938D01*
X99128300Y-69475062D01*
X99076382Y-69736072D01*
X98974541Y-69981939D01*
X98826690Y-70203212D01*
X98638512Y-70391390D01*
X98417239Y-70539241D01*
X98417238Y-70539242D01*
X98417237Y-70539242D01*
X98171372Y-70641082D01*
X97910363Y-70693000D01*
X97644237Y-70693000D01*
X97383228Y-70641082D01*
X97137363Y-70539242D01*
X97137362Y-70539242D01*
X97137361Y-70539241D01*
X96916088Y-70391390D01*
X96727910Y-70203212D01*
X96580059Y-69981939D01*
X96478218Y-69736072D01*
X96426300Y-69475062D01*
X96426300Y-69208938D01*
X96478218Y-68947928D01*
X96580059Y-68702061D01*
X96727910Y-68480788D01*
X96916088Y-68292610D01*
X97137361Y-68144759D01*
X97383228Y-68042918D01*
X97536210Y-68012488D01*
X97644237Y-67991000D01*
X97910363Y-67991000D01*
X98018390Y-68012488D01*
G37*
G36*
X134957618Y-66739353D02*
G01*
X135176185Y-66829887D01*
X135176187Y-66829888D01*
X135372893Y-66961322D01*
X135540178Y-67128607D01*
X135671612Y-67325313D01*
X135671613Y-67325315D01*
X135762147Y-67543882D01*
X135808300Y-67775910D01*
X135808300Y-68012490D01*
X135762147Y-68244518D01*
X135682134Y-68437685D01*
X135671612Y-68463087D01*
X135540178Y-68659793D01*
X135372893Y-68827078D01*
X135176187Y-68958512D01*
X135176186Y-68958513D01*
X135176185Y-68958513D01*
X134957618Y-69049047D01*
X134725590Y-69095200D01*
X134489010Y-69095200D01*
X134256982Y-69049047D01*
X134038415Y-68958513D01*
X134038414Y-68958513D01*
X134038413Y-68958512D01*
X133841707Y-68827078D01*
X133674422Y-68659793D01*
X133542988Y-68463087D01*
X133532466Y-68437685D01*
X133452453Y-68244518D01*
X133406300Y-68012490D01*
X133406300Y-67775910D01*
X133452453Y-67543882D01*
X133542987Y-67325315D01*
X133542988Y-67325313D01*
X133674422Y-67128607D01*
X133841707Y-66961322D01*
X134038413Y-66829888D01*
X134038415Y-66829887D01*
X134256982Y-66739353D01*
X134489010Y-66693200D01*
X134725590Y-66693200D01*
X134957618Y-66739353D01*
G37*
G36*
X155277618Y-66739353D02*
G01*
X155496185Y-66829887D01*
X155496187Y-66829888D01*
X155692893Y-66961322D01*
X155860178Y-67128607D01*
X155991612Y-67325313D01*
X155991613Y-67325315D01*
X156082147Y-67543882D01*
X156128300Y-67775910D01*
X156128300Y-68012490D01*
X156082147Y-68244518D01*
X156002134Y-68437685D01*
X155991612Y-68463087D01*
X155860178Y-68659793D01*
X155692893Y-68827078D01*
X155496187Y-68958512D01*
X155496186Y-68958513D01*
X155496185Y-68958513D01*
X155277618Y-69049047D01*
X155045590Y-69095200D01*
X154809010Y-69095200D01*
X154576982Y-69049047D01*
X154358415Y-68958513D01*
X154358414Y-68958513D01*
X154358413Y-68958512D01*
X154161707Y-68827078D01*
X153994422Y-68659793D01*
X153862988Y-68463087D01*
X153852466Y-68437685D01*
X153772453Y-68244518D01*
X153726300Y-68012490D01*
X153726300Y-67775910D01*
X153772453Y-67543882D01*
X153862987Y-67325315D01*
X153862988Y-67325313D01*
X153994422Y-67128607D01*
X154161707Y-66961322D01*
X154358413Y-66829888D01*
X154358415Y-66829887D01*
X154576982Y-66739353D01*
X154809010Y-66693200D01*
X155045590Y-66693200D01*
X155277618Y-66739353D01*
G37*
G36*
X165437618Y-66739353D02*
G01*
X165656185Y-66829887D01*
X165656187Y-66829888D01*
X165852893Y-66961322D01*
X166020178Y-67128607D01*
X166151612Y-67325313D01*
X166151613Y-67325315D01*
X166242147Y-67543882D01*
X166288300Y-67775910D01*
X166288300Y-68012490D01*
X166242147Y-68244518D01*
X166162134Y-68437685D01*
X166151612Y-68463087D01*
X166020178Y-68659793D01*
X165852893Y-68827078D01*
X165656187Y-68958512D01*
X165656186Y-68958513D01*
X165656185Y-68958513D01*
X165437618Y-69049047D01*
X165205590Y-69095200D01*
X164969010Y-69095200D01*
X164736982Y-69049047D01*
X164518415Y-68958513D01*
X164518414Y-68958513D01*
X164518413Y-68958512D01*
X164321707Y-68827078D01*
X164154422Y-68659793D01*
X164022988Y-68463087D01*
X164012466Y-68437685D01*
X163932453Y-68244518D01*
X163886300Y-68012490D01*
X163886300Y-67775910D01*
X163932453Y-67543882D01*
X164022987Y-67325315D01*
X164022988Y-67325313D01*
X164154422Y-67128607D01*
X164321707Y-66961322D01*
X164518413Y-66829888D01*
X164518415Y-66829887D01*
X164736982Y-66739353D01*
X164969010Y-66693200D01*
X165205590Y-66693200D01*
X165437618Y-66739353D01*
G37*
G36*
X145244618Y-66739353D02*
G01*
X145463185Y-66829887D01*
X145463187Y-66829888D01*
X145659893Y-66961322D01*
X145827178Y-67128607D01*
X145958612Y-67325313D01*
X145958613Y-67325315D01*
X146049147Y-67543882D01*
X146095300Y-67775910D01*
X146095300Y-68012490D01*
X146049147Y-68244518D01*
X145969134Y-68437685D01*
X145958612Y-68463087D01*
X145827178Y-68659793D01*
X145659893Y-68827078D01*
X145463187Y-68958512D01*
X145463186Y-68958513D01*
X145463185Y-68958513D01*
X145244618Y-69049047D01*
X145012590Y-69095200D01*
X144776010Y-69095200D01*
X144543982Y-69049047D01*
X144325415Y-68958513D01*
X144325414Y-68958513D01*
X144325413Y-68958512D01*
X144128707Y-68827078D01*
X143961422Y-68659793D01*
X143829988Y-68463087D01*
X143819466Y-68437685D01*
X143739453Y-68244518D01*
X143693300Y-68012490D01*
X143693300Y-67775910D01*
X143739453Y-67543882D01*
X143829987Y-67325315D01*
X143829988Y-67325313D01*
X143961422Y-67128607D01*
X144128707Y-66961322D01*
X144325413Y-66829888D01*
X144325415Y-66829887D01*
X144543982Y-66739353D01*
X144776010Y-66693200D01*
X145012590Y-66693200D01*
X145244618Y-66739353D01*
G37*
G36*
X124162618Y-66739353D02*
G01*
X124381185Y-66829887D01*
X124381187Y-66829888D01*
X124577893Y-66961322D01*
X124745178Y-67128607D01*
X124876612Y-67325313D01*
X124876613Y-67325315D01*
X124967147Y-67543882D01*
X125013300Y-67775910D01*
X125013300Y-68012490D01*
X124967147Y-68244518D01*
X124887134Y-68437685D01*
X124876612Y-68463087D01*
X124745178Y-68659793D01*
X124577893Y-68827078D01*
X124381187Y-68958512D01*
X124381186Y-68958513D01*
X124381185Y-68958513D01*
X124162618Y-69049047D01*
X123930590Y-69095200D01*
X123694010Y-69095200D01*
X123461982Y-69049047D01*
X123243415Y-68958513D01*
X123243414Y-68958513D01*
X123243413Y-68958512D01*
X123046707Y-68827078D01*
X122879422Y-68659793D01*
X122747988Y-68463087D01*
X122737466Y-68437685D01*
X122657453Y-68244518D01*
X122611300Y-68012490D01*
X122611300Y-67775910D01*
X122657453Y-67543882D01*
X122747987Y-67325315D01*
X122747988Y-67325313D01*
X122879422Y-67128607D01*
X123046707Y-66961322D01*
X123243413Y-66829888D01*
X123243415Y-66829887D01*
X123461982Y-66739353D01*
X123694010Y-66693200D01*
X123930590Y-66693200D01*
X124162618Y-66739353D01*
G37*
G36*
X114891618Y-66713953D02*
G01*
X115110185Y-66804487D01*
X115110187Y-66804488D01*
X115306893Y-66935922D01*
X115474178Y-67103207D01*
X115491150Y-67128608D01*
X115605613Y-67299915D01*
X115696147Y-67518482D01*
X115742300Y-67750510D01*
X115742300Y-67987090D01*
X115696147Y-68219118D01*
X115665705Y-68292610D01*
X115605612Y-68437687D01*
X115474178Y-68634393D01*
X115306893Y-68801678D01*
X115110187Y-68933112D01*
X115110186Y-68933113D01*
X115110185Y-68933113D01*
X114891618Y-69023647D01*
X114659590Y-69069800D01*
X114423010Y-69069800D01*
X114190982Y-69023647D01*
X113972415Y-68933113D01*
X113972414Y-68933113D01*
X113972413Y-68933112D01*
X113775707Y-68801678D01*
X113608422Y-68634393D01*
X113476988Y-68437687D01*
X113416895Y-68292610D01*
X113386453Y-68219118D01*
X113340300Y-67987090D01*
X113340300Y-67750510D01*
X113386453Y-67518482D01*
X113476987Y-67299915D01*
X113591450Y-67128608D01*
X113608422Y-67103207D01*
X113775707Y-66935922D01*
X113972413Y-66804488D01*
X113972415Y-66804487D01*
X114190982Y-66713953D01*
X114423010Y-66667800D01*
X114659590Y-66667800D01*
X114891618Y-66713953D01*
G37*
G36*
X98171372Y-62962918D02*
G01*
X98417239Y-63064759D01*
X98638512Y-63212610D01*
X98826690Y-63400788D01*
X98974541Y-63622061D01*
X99076382Y-63867928D01*
X99128300Y-64128938D01*
X99128300Y-64395062D01*
X99076382Y-64656072D01*
X98974541Y-64901939D01*
X98826690Y-65123212D01*
X98638512Y-65311390D01*
X98417239Y-65459241D01*
X98417238Y-65459242D01*
X98417237Y-65459242D01*
X98171372Y-65561082D01*
X97910363Y-65613000D01*
X97644237Y-65613000D01*
X97383228Y-65561082D01*
X97137363Y-65459242D01*
X97137362Y-65459242D01*
X97137361Y-65459241D01*
X96916088Y-65311390D01*
X96727910Y-65123212D01*
X96580059Y-64901939D01*
X96478218Y-64656072D01*
X96426300Y-64395062D01*
X96426300Y-64128938D01*
X96478218Y-63867928D01*
X96580059Y-63622061D01*
X96727910Y-63400788D01*
X96916088Y-63212610D01*
X97137361Y-63064759D01*
X97383228Y-62962918D01*
X97644237Y-62911000D01*
X97910363Y-62911000D01*
X98171372Y-62962918D01*
G37*
G36*
X124162618Y-59703553D02*
G01*
X124381185Y-59794087D01*
X124381187Y-59794088D01*
X124577893Y-59925522D01*
X124745178Y-60092807D01*
X124876612Y-60289513D01*
X124876613Y-60289515D01*
X124967147Y-60508082D01*
X125013300Y-60740110D01*
X125013300Y-60976690D01*
X124967147Y-61208718D01*
X124887134Y-61401885D01*
X124876612Y-61427287D01*
X124745178Y-61623993D01*
X124577893Y-61791278D01*
X124381187Y-61922712D01*
X124381186Y-61922713D01*
X124381185Y-61922713D01*
X124162618Y-62013247D01*
X123930590Y-62059400D01*
X123694010Y-62059400D01*
X123461982Y-62013247D01*
X123243415Y-61922713D01*
X123243414Y-61922713D01*
X123243413Y-61922712D01*
X123046707Y-61791278D01*
X122879422Y-61623993D01*
X122747988Y-61427287D01*
X122737466Y-61401885D01*
X122657453Y-61208718D01*
X122611300Y-60976690D01*
X122611300Y-60740110D01*
X122657453Y-60508082D01*
X122747987Y-60289515D01*
X122747988Y-60289513D01*
X122879422Y-60092807D01*
X123046707Y-59925522D01*
X123243413Y-59794088D01*
X123243415Y-59794087D01*
X123461982Y-59703553D01*
X123694010Y-59657400D01*
X123930590Y-59657400D01*
X124162618Y-59703553D01*
G37*
G36*
X165437618Y-59703553D02*
G01*
X165656185Y-59794087D01*
X165656187Y-59794088D01*
X165852893Y-59925522D01*
X166020178Y-60092807D01*
X166151612Y-60289513D01*
X166151613Y-60289515D01*
X166242147Y-60508082D01*
X166288300Y-60740110D01*
X166288300Y-60976690D01*
X166242147Y-61208718D01*
X166162134Y-61401885D01*
X166151612Y-61427287D01*
X166020178Y-61623993D01*
X165852893Y-61791278D01*
X165656187Y-61922712D01*
X165656186Y-61922713D01*
X165656185Y-61922713D01*
X165437618Y-62013247D01*
X165205590Y-62059400D01*
X164969010Y-62059400D01*
X164736982Y-62013247D01*
X164518415Y-61922713D01*
X164518414Y-61922713D01*
X164518413Y-61922712D01*
X164321707Y-61791278D01*
X164154422Y-61623993D01*
X164022988Y-61427287D01*
X164012466Y-61401885D01*
X163932453Y-61208718D01*
X163886300Y-60976690D01*
X163886300Y-60740110D01*
X163932453Y-60508082D01*
X164022987Y-60289515D01*
X164022988Y-60289513D01*
X164154422Y-60092807D01*
X164321707Y-59925522D01*
X164518413Y-59794088D01*
X164518415Y-59794087D01*
X164736982Y-59703553D01*
X164969010Y-59657400D01*
X165205590Y-59657400D01*
X165437618Y-59703553D01*
G37*
G36*
X155277618Y-59703553D02*
G01*
X155496185Y-59794087D01*
X155496187Y-59794088D01*
X155692893Y-59925522D01*
X155860178Y-60092807D01*
X155991612Y-60289513D01*
X155991613Y-60289515D01*
X156082147Y-60508082D01*
X156128300Y-60740110D01*
X156128300Y-60976690D01*
X156082147Y-61208718D01*
X156002134Y-61401885D01*
X155991612Y-61427287D01*
X155860178Y-61623993D01*
X155692893Y-61791278D01*
X155496187Y-61922712D01*
X155496186Y-61922713D01*
X155496185Y-61922713D01*
X155277618Y-62013247D01*
X155045590Y-62059400D01*
X154809010Y-62059400D01*
X154576982Y-62013247D01*
X154358415Y-61922713D01*
X154358414Y-61922713D01*
X154358413Y-61922712D01*
X154161707Y-61791278D01*
X153994422Y-61623993D01*
X153862988Y-61427287D01*
X153852466Y-61401885D01*
X153772453Y-61208718D01*
X153726300Y-60976690D01*
X153726300Y-60740110D01*
X153772453Y-60508082D01*
X153862987Y-60289515D01*
X153862988Y-60289513D01*
X153994422Y-60092807D01*
X154161707Y-59925522D01*
X154358413Y-59794088D01*
X154358415Y-59794087D01*
X154576982Y-59703553D01*
X154809010Y-59657400D01*
X155045590Y-59657400D01*
X155277618Y-59703553D01*
G37*
G36*
X134957618Y-59703553D02*
G01*
X135176185Y-59794087D01*
X135176187Y-59794088D01*
X135372893Y-59925522D01*
X135540178Y-60092807D01*
X135671612Y-60289513D01*
X135671613Y-60289515D01*
X135762147Y-60508082D01*
X135808300Y-60740110D01*
X135808300Y-60976690D01*
X135762147Y-61208718D01*
X135682134Y-61401885D01*
X135671612Y-61427287D01*
X135540178Y-61623993D01*
X135372893Y-61791278D01*
X135176187Y-61922712D01*
X135176186Y-61922713D01*
X135176185Y-61922713D01*
X134957618Y-62013247D01*
X134725590Y-62059400D01*
X134489010Y-62059400D01*
X134256982Y-62013247D01*
X134038415Y-61922713D01*
X134038414Y-61922713D01*
X134038413Y-61922712D01*
X133841707Y-61791278D01*
X133674422Y-61623993D01*
X133542988Y-61427287D01*
X133532466Y-61401885D01*
X133452453Y-61208718D01*
X133406300Y-60976690D01*
X133406300Y-60740110D01*
X133452453Y-60508082D01*
X133542987Y-60289515D01*
X133542988Y-60289513D01*
X133674422Y-60092807D01*
X133841707Y-59925522D01*
X134038413Y-59794088D01*
X134038415Y-59794087D01*
X134256982Y-59703553D01*
X134489010Y-59657400D01*
X134725590Y-59657400D01*
X134957618Y-59703553D01*
G37*
G36*
X145244618Y-59703553D02*
G01*
X145463185Y-59794087D01*
X145463187Y-59794088D01*
X145659893Y-59925522D01*
X145827178Y-60092807D01*
X145958612Y-60289513D01*
X145958613Y-60289515D01*
X146049147Y-60508082D01*
X146095300Y-60740110D01*
X146095300Y-60976690D01*
X146049147Y-61208718D01*
X145969134Y-61401885D01*
X145958612Y-61427287D01*
X145827178Y-61623993D01*
X145659893Y-61791278D01*
X145463187Y-61922712D01*
X145463186Y-61922713D01*
X145463185Y-61922713D01*
X145244618Y-62013247D01*
X145012590Y-62059400D01*
X144776010Y-62059400D01*
X144543982Y-62013247D01*
X144325415Y-61922713D01*
X144325414Y-61922713D01*
X144325413Y-61922712D01*
X144128707Y-61791278D01*
X143961422Y-61623993D01*
X143829988Y-61427287D01*
X143819466Y-61401885D01*
X143739453Y-61208718D01*
X143693300Y-60976690D01*
X143693300Y-60740110D01*
X143739453Y-60508082D01*
X143829987Y-60289515D01*
X143829988Y-60289513D01*
X143961422Y-60092807D01*
X144128707Y-59925522D01*
X144325413Y-59794088D01*
X144325415Y-59794087D01*
X144543982Y-59703553D01*
X144776010Y-59657400D01*
X145012590Y-59657400D01*
X145244618Y-59703553D01*
G37*
G36*
X114891618Y-59678153D02*
G01*
X115110185Y-59768687D01*
X115110187Y-59768688D01*
X115306893Y-59900122D01*
X115474178Y-60067407D01*
X115491150Y-60092808D01*
X115605613Y-60264115D01*
X115696147Y-60482682D01*
X115742300Y-60714710D01*
X115742300Y-60951290D01*
X115696147Y-61183318D01*
X115685625Y-61208719D01*
X115605612Y-61401887D01*
X115474178Y-61598593D01*
X115306893Y-61765878D01*
X115110187Y-61897312D01*
X115110186Y-61897313D01*
X115110185Y-61897313D01*
X114891618Y-61987847D01*
X114659590Y-62034000D01*
X114423010Y-62034000D01*
X114190982Y-61987847D01*
X113972415Y-61897313D01*
X113972414Y-61897313D01*
X113972413Y-61897312D01*
X113775707Y-61765878D01*
X113608422Y-61598593D01*
X113476988Y-61401887D01*
X113396975Y-61208719D01*
X113386453Y-61183318D01*
X113340300Y-60951290D01*
X113340300Y-60714710D01*
X113386453Y-60482682D01*
X113476987Y-60264115D01*
X113591450Y-60092808D01*
X113608422Y-60067407D01*
X113775707Y-59900122D01*
X113972413Y-59768688D01*
X113972415Y-59768687D01*
X114190982Y-59678153D01*
X114423010Y-59632000D01*
X114659590Y-59632000D01*
X114891618Y-59678153D01*
G37*
G36*
X98171372Y-57882918D02*
G01*
X98417239Y-57984759D01*
X98528628Y-58059187D01*
X98638511Y-58132609D01*
X98826691Y-58320789D01*
X98974542Y-58542063D01*
X99076382Y-58787928D01*
X99128300Y-59048937D01*
X99128300Y-59315063D01*
X99076382Y-59576072D01*
X98974542Y-59821937D01*
X98826691Y-60043211D01*
X98638511Y-60231391D01*
X98528628Y-60304813D01*
X98417239Y-60379241D01*
X98417238Y-60379242D01*
X98417237Y-60379242D01*
X98171372Y-60481082D01*
X97910363Y-60533000D01*
X97644237Y-60533000D01*
X97383228Y-60481082D01*
X97137363Y-60379242D01*
X97137362Y-60379242D01*
X97137361Y-60379241D01*
X97025972Y-60304813D01*
X96916089Y-60231391D01*
X96727909Y-60043211D01*
X96580058Y-59821937D01*
X96478218Y-59576072D01*
X96426300Y-59315063D01*
X96426300Y-59048937D01*
X96478218Y-58787928D01*
X96580058Y-58542063D01*
X96727909Y-58320789D01*
X96916089Y-58132609D01*
X97025972Y-58059187D01*
X97137361Y-57984759D01*
X97383228Y-57882918D01*
X97644237Y-57831000D01*
X97910363Y-57831000D01*
X98171372Y-57882918D01*
G37*
G36*
X98171372Y-52802918D02*
G01*
X98417239Y-52904759D01*
X98638512Y-53052610D01*
X98826690Y-53240788D01*
X98974541Y-53462061D01*
X99076382Y-53707928D01*
X99128300Y-53968938D01*
X99128300Y-54235062D01*
X99076382Y-54496072D01*
X98974541Y-54741939D01*
X98826690Y-54963212D01*
X98638512Y-55151390D01*
X98417239Y-55299241D01*
X98417238Y-55299242D01*
X98417237Y-55299242D01*
X98171372Y-55401082D01*
X97910363Y-55453000D01*
X97644237Y-55453000D01*
X97383228Y-55401082D01*
X97137363Y-55299242D01*
X97137362Y-55299242D01*
X97137361Y-55299241D01*
X96916088Y-55151390D01*
X96727910Y-54963212D01*
X96580059Y-54741939D01*
X96478218Y-54496072D01*
X96426300Y-54235062D01*
X96426300Y-53968938D01*
X96478218Y-53707928D01*
X96580059Y-53462061D01*
X96727910Y-53240788D01*
X96916088Y-53052610D01*
X97137361Y-52904759D01*
X97383228Y-52802918D01*
X97644237Y-52751000D01*
X97910363Y-52751000D01*
X98171372Y-52802918D01*
G37*
G36*
X130878300Y-50500000D02*
G01*
X128176300Y-50500000D01*
X128176300Y-47798000D01*
X130878300Y-47798000D01*
X130878300Y-50500000D01*
G37*
G36*
X135001372Y-47849918D02*
G01*
X135205790Y-47934590D01*
X135247239Y-47951759D01*
X135468512Y-48099610D01*
X135656690Y-48287788D01*
X135795366Y-48495329D01*
X135804542Y-48509063D01*
X135906382Y-48754928D01*
X135958300Y-49015937D01*
X135958300Y-49282063D01*
X135906382Y-49543072D01*
X135804542Y-49788937D01*
X135658627Y-50007314D01*
X135656690Y-50010212D01*
X135468512Y-50198390D01*
X135247239Y-50346241D01*
X135247238Y-50346242D01*
X135247237Y-50346242D01*
X135001372Y-50448082D01*
X134740363Y-50500000D01*
X134474237Y-50500000D01*
X134213228Y-50448082D01*
X133967363Y-50346242D01*
X133967362Y-50346242D01*
X133967361Y-50346241D01*
X133746088Y-50198390D01*
X133557910Y-50010212D01*
X133555974Y-50007314D01*
X133410058Y-49788937D01*
X133308218Y-49543072D01*
X133256300Y-49282063D01*
X133256300Y-49015937D01*
X133308218Y-48754928D01*
X133410058Y-48509063D01*
X133419235Y-48495329D01*
X133557910Y-48287788D01*
X133746088Y-48099610D01*
X133967361Y-47951759D01*
X134008811Y-47934590D01*
X134213228Y-47849918D01*
X134474237Y-47798000D01*
X134740363Y-47798000D01*
X135001372Y-47849918D01*
G37*
G36*
X145161372Y-47849918D02*
G01*
X145365790Y-47934590D01*
X145407239Y-47951759D01*
X145628512Y-48099610D01*
X145816690Y-48287788D01*
X145955366Y-48495329D01*
X145964542Y-48509063D01*
X146066382Y-48754928D01*
X146118300Y-49015937D01*
X146118300Y-49282063D01*
X146066382Y-49543072D01*
X145964542Y-49788937D01*
X145818627Y-50007314D01*
X145816690Y-50010212D01*
X145628512Y-50198390D01*
X145407239Y-50346241D01*
X145407238Y-50346242D01*
X145407237Y-50346242D01*
X145161372Y-50448082D01*
X144900363Y-50500000D01*
X144634237Y-50500000D01*
X144373228Y-50448082D01*
X144127363Y-50346242D01*
X144127362Y-50346242D01*
X144127361Y-50346241D01*
X143906088Y-50198390D01*
X143717910Y-50010212D01*
X143715974Y-50007314D01*
X143570058Y-49788937D01*
X143468218Y-49543072D01*
X143416300Y-49282063D01*
X143416300Y-49015937D01*
X143468218Y-48754928D01*
X143570058Y-48509063D01*
X143579235Y-48495329D01*
X143717910Y-48287788D01*
X143906088Y-48099610D01*
X144127361Y-47951759D01*
X144168811Y-47934590D01*
X144373228Y-47849918D01*
X144634237Y-47798000D01*
X144900363Y-47798000D01*
X145161372Y-47849918D01*
G37*
G36*
X140081372Y-47849918D02*
G01*
X140285790Y-47934590D01*
X140327239Y-47951759D01*
X140548512Y-48099610D01*
X140736690Y-48287788D01*
X140875366Y-48495329D01*
X140884542Y-48509063D01*
X140986382Y-48754928D01*
X141038300Y-49015937D01*
X141038300Y-49282063D01*
X140986382Y-49543072D01*
X140884542Y-49788937D01*
X140738627Y-50007314D01*
X140736690Y-50010212D01*
X140548512Y-50198390D01*
X140327239Y-50346241D01*
X140327238Y-50346242D01*
X140327237Y-50346242D01*
X140081372Y-50448082D01*
X139820363Y-50500000D01*
X139554237Y-50500000D01*
X139293228Y-50448082D01*
X139047363Y-50346242D01*
X139047362Y-50346242D01*
X139047361Y-50346241D01*
X138826088Y-50198390D01*
X138637910Y-50010212D01*
X138635974Y-50007314D01*
X138490058Y-49788937D01*
X138388218Y-49543072D01*
X138336300Y-49282063D01*
X138336300Y-49015937D01*
X138388218Y-48754928D01*
X138490058Y-48509063D01*
X138499235Y-48495329D01*
X138637910Y-48287788D01*
X138826088Y-48099610D01*
X139047361Y-47951759D01*
X139088811Y-47934590D01*
X139293228Y-47849918D01*
X139554237Y-47798000D01*
X139820363Y-47798000D01*
X140081372Y-47849918D01*
G37*
G36*
X160401372Y-47849918D02*
G01*
X160605790Y-47934590D01*
X160647239Y-47951759D01*
X160868512Y-48099610D01*
X161056690Y-48287788D01*
X161195366Y-48495329D01*
X161204542Y-48509063D01*
X161306382Y-48754928D01*
X161358300Y-49015937D01*
X161358300Y-49282063D01*
X161306382Y-49543072D01*
X161204542Y-49788937D01*
X161058627Y-50007314D01*
X161056690Y-50010212D01*
X160868512Y-50198390D01*
X160647239Y-50346241D01*
X160647238Y-50346242D01*
X160647237Y-50346242D01*
X160401372Y-50448082D01*
X160140363Y-50500000D01*
X159874237Y-50500000D01*
X159613228Y-50448082D01*
X159367363Y-50346242D01*
X159367362Y-50346242D01*
X159367361Y-50346241D01*
X159146088Y-50198390D01*
X158957910Y-50010212D01*
X158955974Y-50007314D01*
X158810058Y-49788937D01*
X158708218Y-49543072D01*
X158656300Y-49282063D01*
X158656300Y-49015937D01*
X158708218Y-48754928D01*
X158810058Y-48509063D01*
X158819235Y-48495329D01*
X158957910Y-48287788D01*
X159146088Y-48099610D01*
X159367361Y-47951759D01*
X159408811Y-47934590D01*
X159613228Y-47849918D01*
X159874237Y-47798000D01*
X160140363Y-47798000D01*
X160401372Y-47849918D01*
G37*
G36*
X165481372Y-47849918D02*
G01*
X165685790Y-47934590D01*
X165727239Y-47951759D01*
X165948512Y-48099610D01*
X166136690Y-48287788D01*
X166275366Y-48495329D01*
X166284542Y-48509063D01*
X166386382Y-48754928D01*
X166438300Y-49015937D01*
X166438300Y-49282063D01*
X166386382Y-49543072D01*
X166284542Y-49788937D01*
X166138627Y-50007314D01*
X166136690Y-50010212D01*
X165948512Y-50198390D01*
X165727239Y-50346241D01*
X165727238Y-50346242D01*
X165727237Y-50346242D01*
X165481372Y-50448082D01*
X165220363Y-50500000D01*
X164954237Y-50500000D01*
X164693228Y-50448082D01*
X164447363Y-50346242D01*
X164447362Y-50346242D01*
X164447361Y-50346241D01*
X164226088Y-50198390D01*
X164037910Y-50010212D01*
X164035974Y-50007314D01*
X163890058Y-49788937D01*
X163788218Y-49543072D01*
X163736300Y-49282063D01*
X163736300Y-49015937D01*
X163788218Y-48754928D01*
X163890058Y-48509063D01*
X163899235Y-48495329D01*
X164037910Y-48287788D01*
X164226088Y-48099610D01*
X164447361Y-47951759D01*
X164488811Y-47934590D01*
X164693228Y-47849918D01*
X164954237Y-47798000D01*
X165220363Y-47798000D01*
X165481372Y-47849918D01*
G37*
G36*
X109542300Y-50500000D02*
G01*
X106840300Y-50500000D01*
X106840300Y-47798000D01*
X109542300Y-47798000D01*
X109542300Y-50500000D01*
G37*
G36*
X155321372Y-47849918D02*
G01*
X155525790Y-47934590D01*
X155567239Y-47951759D01*
X155788512Y-48099610D01*
X155976690Y-48287788D01*
X156115366Y-48495329D01*
X156124542Y-48509063D01*
X156226382Y-48754928D01*
X156278300Y-49015937D01*
X156278300Y-49282063D01*
X156226382Y-49543072D01*
X156124542Y-49788937D01*
X155978627Y-50007314D01*
X155976690Y-50010212D01*
X155788512Y-50198390D01*
X155567239Y-50346241D01*
X155567238Y-50346242D01*
X155567237Y-50346242D01*
X155321372Y-50448082D01*
X155060363Y-50500000D01*
X154794237Y-50500000D01*
X154533228Y-50448082D01*
X154287363Y-50346242D01*
X154287362Y-50346242D01*
X154287361Y-50346241D01*
X154066088Y-50198390D01*
X153877910Y-50010212D01*
X153875974Y-50007314D01*
X153730058Y-49788937D01*
X153628218Y-49543072D01*
X153576300Y-49282063D01*
X153576300Y-49015937D01*
X153628218Y-48754928D01*
X153730058Y-48509063D01*
X153739235Y-48495329D01*
X153877910Y-48287788D01*
X154066088Y-48099610D01*
X154287361Y-47951759D01*
X154328811Y-47934590D01*
X154533228Y-47849918D01*
X154794237Y-47798000D01*
X155060363Y-47798000D01*
X155321372Y-47849918D01*
G37*
G36*
X150241372Y-47849918D02*
G01*
X150445790Y-47934590D01*
X150487239Y-47951759D01*
X150708512Y-48099610D01*
X150896690Y-48287788D01*
X151035366Y-48495329D01*
X151044542Y-48509063D01*
X151146382Y-48754928D01*
X151198300Y-49015937D01*
X151198300Y-49282063D01*
X151146382Y-49543072D01*
X151044542Y-49788937D01*
X150898627Y-50007314D01*
X150896690Y-50010212D01*
X150708512Y-50198390D01*
X150487239Y-50346241D01*
X150487238Y-50346242D01*
X150487237Y-50346242D01*
X150241372Y-50448082D01*
X149980363Y-50500000D01*
X149714237Y-50500000D01*
X149453228Y-50448082D01*
X149207363Y-50346242D01*
X149207362Y-50346242D01*
X149207361Y-50346241D01*
X148986088Y-50198390D01*
X148797910Y-50010212D01*
X148795974Y-50007314D01*
X148650058Y-49788937D01*
X148548218Y-49543072D01*
X148496300Y-49282063D01*
X148496300Y-49015937D01*
X148548218Y-48754928D01*
X148650058Y-48509063D01*
X148659235Y-48495329D01*
X148797910Y-48287788D01*
X148986088Y-48099610D01*
X149207361Y-47951759D01*
X149248811Y-47934590D01*
X149453228Y-47849918D01*
X149714237Y-47798000D01*
X149980363Y-47798000D01*
X150241372Y-47849918D01*
G37*
G36*
X123825372Y-47849918D02*
G01*
X124029790Y-47934590D01*
X124071239Y-47951759D01*
X124292512Y-48099610D01*
X124480690Y-48287788D01*
X124619366Y-48495329D01*
X124628542Y-48509063D01*
X124730382Y-48754928D01*
X124782300Y-49015937D01*
X124782300Y-49282063D01*
X124730382Y-49543072D01*
X124628542Y-49788937D01*
X124482627Y-50007314D01*
X124480690Y-50010212D01*
X124292512Y-50198390D01*
X124071239Y-50346241D01*
X124071238Y-50346242D01*
X124071237Y-50346242D01*
X123825372Y-50448082D01*
X123564363Y-50500000D01*
X123298237Y-50500000D01*
X123037228Y-50448082D01*
X122791363Y-50346242D01*
X122791362Y-50346242D01*
X122791361Y-50346241D01*
X122570088Y-50198390D01*
X122381910Y-50010212D01*
X122379974Y-50007314D01*
X122234058Y-49788937D01*
X122132218Y-49543072D01*
X122080300Y-49282063D01*
X122080300Y-49015937D01*
X122132218Y-48754928D01*
X122234058Y-48509063D01*
X122243235Y-48495329D01*
X122381910Y-48287788D01*
X122570088Y-48099610D01*
X122791361Y-47951759D01*
X122832811Y-47934590D01*
X123037228Y-47849918D01*
X123298237Y-47798000D01*
X123564363Y-47798000D01*
X123825372Y-47849918D01*
G37*
G36*
X118745372Y-47849918D02*
G01*
X118949790Y-47934590D01*
X118991239Y-47951759D01*
X119212512Y-48099610D01*
X119400690Y-48287788D01*
X119539366Y-48495329D01*
X119548542Y-48509063D01*
X119650382Y-48754928D01*
X119702300Y-49015937D01*
X119702300Y-49282063D01*
X119650382Y-49543072D01*
X119548542Y-49788937D01*
X119402627Y-50007314D01*
X119400690Y-50010212D01*
X119212512Y-50198390D01*
X118991239Y-50346241D01*
X118991238Y-50346242D01*
X118991237Y-50346242D01*
X118745372Y-50448082D01*
X118484363Y-50500000D01*
X118218237Y-50500000D01*
X117957228Y-50448082D01*
X117711363Y-50346242D01*
X117711362Y-50346242D01*
X117711361Y-50346241D01*
X117490088Y-50198390D01*
X117301910Y-50010212D01*
X117299974Y-50007314D01*
X117154058Y-49788937D01*
X117052218Y-49543072D01*
X117000300Y-49282063D01*
X117000300Y-49015937D01*
X117052218Y-48754928D01*
X117154058Y-48509063D01*
X117163235Y-48495329D01*
X117301910Y-48287788D01*
X117490088Y-48099610D01*
X117711361Y-47951759D01*
X117752811Y-47934590D01*
X117957228Y-47849918D01*
X118218237Y-47798000D01*
X118484363Y-47798000D01*
X118745372Y-47849918D01*
G37*
G36*
X113665372Y-47849918D02*
G01*
X113869790Y-47934590D01*
X113911239Y-47951759D01*
X114132512Y-48099610D01*
X114320690Y-48287788D01*
X114459366Y-48495329D01*
X114468542Y-48509063D01*
X114570382Y-48754928D01*
X114622300Y-49015937D01*
X114622300Y-49282063D01*
X114570382Y-49543072D01*
X114468542Y-49788937D01*
X114322627Y-50007314D01*
X114320690Y-50010212D01*
X114132512Y-50198390D01*
X113911239Y-50346241D01*
X113911238Y-50346242D01*
X113911237Y-50346242D01*
X113665372Y-50448082D01*
X113404363Y-50500000D01*
X113138237Y-50500000D01*
X112877228Y-50448082D01*
X112631363Y-50346242D01*
X112631362Y-50346242D01*
X112631361Y-50346241D01*
X112410088Y-50198390D01*
X112221910Y-50010212D01*
X112219974Y-50007314D01*
X112074058Y-49788937D01*
X111972218Y-49543072D01*
X111920300Y-49282063D01*
X111920300Y-49015937D01*
X111972218Y-48754928D01*
X112074058Y-48509063D01*
X112083235Y-48495329D01*
X112221910Y-48287788D01*
X112410088Y-48099610D01*
X112631361Y-47951759D01*
X112672811Y-47934590D01*
X112877228Y-47849918D01*
X113138237Y-47798000D01*
X113404363Y-47798000D01*
X113665372Y-47849918D01*
G37*
G36*
X96635243Y-44183248D02*
G01*
X97190489Y-44413238D01*
X97438647Y-44579052D01*
X97690199Y-44747134D01*
X98115166Y-45172101D01*
X98115167Y-45172103D01*
X98449062Y-45671811D01*
X98679052Y-46227057D01*
X98796300Y-46816501D01*
X98796300Y-47417499D01*
X98679052Y-48006943D01*
X98449062Y-48562189D01*
X98449061Y-48562190D01*
X98115166Y-49061899D01*
X97690199Y-49486866D01*
X97502055Y-49612580D01*
X97190489Y-49820762D01*
X96635243Y-50050752D01*
X96045799Y-50168000D01*
X95444801Y-50168000D01*
X94855357Y-50050752D01*
X94300111Y-49820762D01*
X93988545Y-49612580D01*
X93800401Y-49486866D01*
X93375434Y-49061899D01*
X93041539Y-48562190D01*
X93041538Y-48562189D01*
X92811548Y-48006943D01*
X92694300Y-47417499D01*
X92694300Y-46816501D01*
X92811548Y-46227057D01*
X93041538Y-45671811D01*
X93375433Y-45172103D01*
X93375434Y-45172101D01*
X93800401Y-44747134D01*
X94051953Y-44579052D01*
X94300111Y-44413238D01*
X94855357Y-44183248D01*
X95444801Y-44066000D01*
X96045799Y-44066000D01*
X96635243Y-44183248D01*
G37*
G36*
X238875243Y-44183248D02*
G01*
X239430489Y-44413238D01*
X239678647Y-44579052D01*
X239930199Y-44747134D01*
X240355166Y-45172101D01*
X240355167Y-45172103D01*
X240689062Y-45671811D01*
X240919052Y-46227057D01*
X241036300Y-46816501D01*
X241036300Y-47417499D01*
X240919052Y-48006943D01*
X240689062Y-48562189D01*
X240689061Y-48562190D01*
X240355166Y-49061899D01*
X239930199Y-49486866D01*
X239742055Y-49612580D01*
X239430489Y-49820762D01*
X238875243Y-50050752D01*
X238285799Y-50168000D01*
X237684801Y-50168000D01*
X237095357Y-50050752D01*
X236540111Y-49820762D01*
X236228545Y-49612580D01*
X236040401Y-49486866D01*
X235615434Y-49061899D01*
X235281539Y-48562190D01*
X235281538Y-48562189D01*
X235051548Y-48006943D01*
X234934300Y-47417499D01*
X234934300Y-46816501D01*
X235051548Y-46227057D01*
X235281538Y-45671811D01*
X235615433Y-45172103D01*
X235615434Y-45172101D01*
X236040401Y-44747134D01*
X236291953Y-44579052D01*
X236540111Y-44413238D01*
X237095357Y-44183248D01*
X237684801Y-44066000D01*
X238285799Y-44066000D01*
X238875243Y-44183248D01*
G37*
G36*
X201677585Y-46865802D02*
G01*
X201827410Y-46895604D01*
X202109674Y-47012521D01*
X202363705Y-47182259D01*
X202579741Y-47398295D01*
X202749479Y-47652326D01*
X202866396Y-47934590D01*
X202866396Y-47934591D01*
X202926000Y-48234239D01*
X202926000Y-48539761D01*
X202912525Y-48607504D01*
X202866396Y-48839410D01*
X202749479Y-49121674D01*
X202579741Y-49375705D01*
X202363705Y-49591741D01*
X202109674Y-49761479D01*
X201827410Y-49878396D01*
X201677585Y-49908198D01*
X201527761Y-49938000D01*
X201222239Y-49938000D01*
X201072415Y-49908198D01*
X200922590Y-49878396D01*
X200640326Y-49761479D01*
X200386295Y-49591741D01*
X200170259Y-49375705D01*
X200000521Y-49121674D01*
X199883604Y-48839410D01*
X199837475Y-48607504D01*
X199824000Y-48539761D01*
X199824000Y-48234239D01*
X199883604Y-47934591D01*
X199883604Y-47934590D01*
X200000521Y-47652326D01*
X200170259Y-47398295D01*
X200386295Y-47182259D01*
X200640326Y-47012521D01*
X200922590Y-46895604D01*
X201072415Y-46865802D01*
X201222239Y-46836000D01*
X201527761Y-46836000D01*
X201677585Y-46865802D01*
G37*
G36*
X207926000Y-49938000D02*
G01*
X204824000Y-49938000D01*
X204824000Y-46836000D01*
X207926000Y-46836000D01*
X207926000Y-49938000D01*
G37*
M02*
