G04 #@! TF.GenerationSoftware,KiCad,Pcbnew,(5.1.5)-3*
G04 #@! TF.CreationDate,2020-11-04T13:24:47-03:00*
G04 #@! TF.ProjectId,ESP32-BOARD,45535033-322d-4424-9f41-52442e6b6963,rev?*
G04 #@! TF.SameCoordinates,Original*
G04 #@! TF.FileFunction,Copper,L3,Inr*
G04 #@! TF.FilePolarity,Positive*
%FSLAX46Y46*%
G04 Gerber Fmt 4.6, Leading zero omitted, Abs format (unit mm)*
G04 Created by KiCad (PCBNEW (5.1.5)-3) date 2020-11-04 13:24:47*
%MOMM*%
%LPD*%
G04 APERTURE LIST*
%ADD10C,2.600000*%
%ADD11R,2.600000X2.600000*%
%ADD12O,1.700000X1.700000*%
%ADD13R,1.700000X1.700000*%
%ADD14C,2.300000*%
%ADD15C,1.700000*%
%ADD16C,9.400000*%
%ADD17C,0.800000*%
%ADD18C,6.000000*%
%ADD19C,3.000000*%
%ADD20R,3.000000X3.000000*%
%ADD21C,8.000000*%
%ADD22C,1.250000*%
%ADD23C,0.300000*%
%ADD24C,1.000000*%
%ADD25C,0.500000*%
%ADD26C,0.250000*%
%ADD27C,0.800000*%
G04 APERTURE END LIST*
D10*
X165087300Y-49149000D03*
X160007300Y-49149000D03*
X154927300Y-49149000D03*
X149847300Y-49149000D03*
X144767300Y-49149000D03*
X139687300Y-49149000D03*
X134607300Y-49149000D03*
D11*
X129527300Y-49149000D03*
D12*
X194551300Y-138811000D03*
X197091300Y-138811000D03*
X199631300Y-138811000D03*
D13*
X202171300Y-138811000D03*
D14*
X165061900Y-79375000D03*
X165087300Y-67894200D03*
X165087300Y-60858400D03*
X160388300Y-79375000D03*
X154901900Y-79375000D03*
X154927300Y-67894200D03*
X154927300Y-60858400D03*
X150228300Y-79375000D03*
X144868900Y-79375000D03*
X144894300Y-67894200D03*
X144894300Y-60858400D03*
X140195300Y-79375000D03*
X134581900Y-79375000D03*
X134607300Y-67894200D03*
X134607300Y-60858400D03*
X129908300Y-79375000D03*
X123786900Y-79375000D03*
X123812300Y-67894200D03*
X123812300Y-60858400D03*
X119113300Y-79375000D03*
X114515900Y-79349600D03*
X114541300Y-67868800D03*
X114541300Y-60833000D03*
X109842300Y-79349600D03*
D12*
X204698600Y-126974600D03*
X209778600Y-126974600D03*
X197078600Y-126974600D03*
X214858600Y-126974600D03*
X207238600Y-126974600D03*
X212318600Y-126974600D03*
X235204000Y-101676200D03*
X212344000Y-101676200D03*
X240284000Y-101676200D03*
X225044000Y-101676200D03*
X217424000Y-101676200D03*
X209804000Y-101676200D03*
X232664000Y-101676200D03*
X230124000Y-101676200D03*
X204724000Y-101676200D03*
X202184000Y-101676200D03*
X237744000Y-101676200D03*
X227584000Y-101676200D03*
X222504000Y-101676200D03*
X219964000Y-101676200D03*
X207264000Y-101676200D03*
X199644000Y-101676200D03*
X214884000Y-101676200D03*
X197104000Y-101676200D03*
X194564000Y-101676200D03*
X235178600Y-126974600D03*
X240258600Y-126974600D03*
X225018600Y-126974600D03*
X217398600Y-126974600D03*
X232638600Y-126974600D03*
X230098600Y-126974600D03*
X202158600Y-126974600D03*
X237718600Y-126974600D03*
X227558600Y-126974600D03*
X222478600Y-126974600D03*
X219938600Y-126974600D03*
X199618600Y-126974600D03*
D13*
X194538600Y-126974600D03*
D12*
X116903500Y-128651000D03*
X116903500Y-131191000D03*
X116903500Y-126111000D03*
X116903500Y-133731000D03*
X116903500Y-136271000D03*
X116903500Y-138811000D03*
X138645900Y-131216400D03*
X138645900Y-133756400D03*
X138645900Y-128676400D03*
X138645900Y-136296400D03*
X138645900Y-138836400D03*
D15*
X138645900Y-141376400D03*
D13*
X226060000Y-138938000D03*
D12*
X223520000Y-138938000D03*
X220980000Y-138938000D03*
X218440000Y-138938000D03*
X215900000Y-138938000D03*
X213360000Y-138938000D03*
X210820000Y-138938000D03*
D16*
X109207300Y-137541000D03*
D17*
X236207300Y-45339000D03*
X237985300Y-44577000D03*
X239763300Y-48895000D03*
X235445300Y-47117000D03*
X236207300Y-48895000D03*
X237985300Y-49657000D03*
X239763300Y-45339000D03*
X240525300Y-47117000D03*
D18*
X237985300Y-47117000D03*
D17*
X236207300Y-137541000D03*
X237985300Y-136779000D03*
X239763300Y-141097000D03*
X235445300Y-139319000D03*
X236207300Y-141097000D03*
X237985300Y-141859000D03*
X239763300Y-137541000D03*
X240525300Y-139319000D03*
D18*
X237985300Y-139319000D03*
D17*
X93967300Y-137541000D03*
X95745300Y-136779000D03*
X97523300Y-141097000D03*
X93205300Y-139319000D03*
X93967300Y-141097000D03*
X95745300Y-141859000D03*
X97523300Y-137541000D03*
X98285300Y-139319000D03*
D18*
X95745300Y-139319000D03*
D17*
X93967300Y-45339000D03*
X95745300Y-44577000D03*
X97523300Y-48895000D03*
X93205300Y-47117000D03*
X93967300Y-48895000D03*
X95745300Y-49657000D03*
X97523300Y-45339000D03*
X98285300Y-47117000D03*
D18*
X95745300Y-47117000D03*
D10*
X123431300Y-49149000D03*
X118351300Y-49149000D03*
X113271300Y-49149000D03*
D11*
X108191300Y-49149000D03*
D10*
X97777300Y-96774000D03*
X97777300Y-101854000D03*
X97777300Y-106934000D03*
X97777300Y-112014000D03*
X97777300Y-117094000D03*
X97777300Y-122174000D03*
X97777300Y-127254000D03*
D11*
X97777300Y-132334000D03*
D10*
X97777300Y-54102000D03*
X97777300Y-59182000D03*
X97777300Y-64262000D03*
X97777300Y-69342000D03*
X97777300Y-74422000D03*
X97777300Y-79502000D03*
X97777300Y-84582000D03*
D11*
X97777300Y-89662000D03*
D10*
X148805900Y-137287000D03*
X153885900Y-137287000D03*
X158965900Y-137287000D03*
X164045900Y-137287000D03*
X169125900Y-137287000D03*
X174205900Y-137287000D03*
X179285900Y-137287000D03*
D11*
X184365900Y-137287000D03*
D19*
X201375000Y-48387000D03*
D20*
X206375000Y-48387000D03*
D21*
X138671300Y-120015000D03*
D17*
X201676000Y-58293000D03*
X200660000Y-58293000D03*
X199644000Y-58293000D03*
X198628000Y-58293000D03*
X197612000Y-58293000D03*
X196596000Y-58293000D03*
X195580000Y-58293000D03*
X202692000Y-58293000D03*
X208788000Y-58293000D03*
X207772000Y-58293000D03*
X209804000Y-58293000D03*
X210820000Y-58293000D03*
X211836000Y-58293000D03*
X206756000Y-58293000D03*
X205740000Y-58293000D03*
X204724000Y-58293000D03*
X203708000Y-58293000D03*
X124333000Y-97663000D03*
X124333000Y-100711000D03*
X124333000Y-109728000D03*
X124333000Y-112776000D03*
X124333000Y-115824000D03*
X200901300Y-130429000D03*
X114808000Y-104648000D03*
X168135300Y-113792000D03*
X182867300Y-113792000D03*
X209804000Y-71755000D03*
X199644000Y-71755000D03*
X201676000Y-71755000D03*
X200660000Y-71755000D03*
X196596000Y-71755000D03*
X205740000Y-71755000D03*
X195580000Y-71755000D03*
X210820000Y-71755000D03*
X197612000Y-71755000D03*
X206756000Y-71755000D03*
X207772000Y-71755000D03*
X211836000Y-71755000D03*
X203708000Y-71755000D03*
X198628000Y-71755000D03*
X202692000Y-71755000D03*
X208788000Y-71755000D03*
X204724000Y-71755000D03*
X203708000Y-73025000D03*
X199644000Y-73025000D03*
X207772000Y-73025000D03*
X201676000Y-73025000D03*
X195580000Y-73025000D03*
X197612000Y-73025000D03*
X206756000Y-73025000D03*
X202692000Y-73025000D03*
X209804000Y-73025000D03*
X200660000Y-73025000D03*
X208788000Y-73025000D03*
X198628000Y-73025000D03*
X204724000Y-73025000D03*
X211836000Y-73025000D03*
X196596000Y-73025000D03*
X205740000Y-73025000D03*
X210820000Y-73025000D03*
X200660000Y-74295000D03*
X196596000Y-74295000D03*
X202692000Y-74295000D03*
X209804000Y-74295000D03*
X201676000Y-74295000D03*
X195580000Y-74295000D03*
X208788000Y-74295000D03*
X198628000Y-74295000D03*
X203708000Y-74295000D03*
X206756000Y-74295000D03*
X204724000Y-74295000D03*
X211836000Y-74295000D03*
X205740000Y-74295000D03*
X199644000Y-74295000D03*
X197612000Y-74295000D03*
X210820000Y-74295000D03*
X207772000Y-74295000D03*
X209804000Y-75565000D03*
X201676000Y-75565000D03*
X207772000Y-75565000D03*
X210820000Y-75565000D03*
X199644000Y-75565000D03*
X211836000Y-75565000D03*
X208788000Y-75565000D03*
X203708000Y-75565000D03*
X202692000Y-75565000D03*
X198628000Y-75565000D03*
X204724000Y-75565000D03*
X197612000Y-75565000D03*
X205740000Y-75565000D03*
X206756000Y-75565000D03*
X196596000Y-75565000D03*
X195580000Y-75565000D03*
X200660000Y-75565000D03*
X200660000Y-76835000D03*
X211836000Y-76835000D03*
X197612000Y-76835000D03*
X195580000Y-76835000D03*
X204724000Y-76835000D03*
X206756000Y-76835000D03*
X199644000Y-76835000D03*
X207772000Y-76835000D03*
X208788000Y-76835000D03*
X209804000Y-76835000D03*
X210820000Y-76835000D03*
X203708000Y-76835000D03*
X202692000Y-76835000D03*
X198628000Y-76835000D03*
X205740000Y-76835000D03*
X196596000Y-76835000D03*
X201676000Y-76835000D03*
X207772000Y-78105000D03*
X197612000Y-78105000D03*
X195580000Y-78105000D03*
X205740000Y-78105000D03*
X202692000Y-78105000D03*
X204724000Y-78105000D03*
X208788000Y-78105000D03*
X200660000Y-78105000D03*
X198628000Y-78105000D03*
X209804000Y-78105000D03*
X196596000Y-78105000D03*
X201676000Y-78105000D03*
X211836000Y-78105000D03*
X203708000Y-78105000D03*
X210820000Y-78105000D03*
X199644000Y-78105000D03*
X206756000Y-78105000D03*
X211836000Y-79375000D03*
X210820000Y-79375000D03*
X209804000Y-79375000D03*
X201676000Y-79375000D03*
X207772000Y-79375000D03*
X205740000Y-79375000D03*
X200660000Y-79375000D03*
X195580000Y-79375000D03*
X198628000Y-79375000D03*
X199644000Y-79375000D03*
X206756000Y-79375000D03*
X203708000Y-79375000D03*
X204724000Y-79375000D03*
X208788000Y-79375000D03*
X197612000Y-79375000D03*
X196596000Y-79375000D03*
X202692000Y-79375000D03*
X206756000Y-80645000D03*
X202692000Y-80645000D03*
X211836000Y-80645000D03*
X207772000Y-80645000D03*
X210820000Y-80645000D03*
X200660000Y-80645000D03*
X204724000Y-80645000D03*
X198628000Y-80645000D03*
X196596000Y-80645000D03*
X199644000Y-80645000D03*
X197612000Y-80645000D03*
X195580000Y-80645000D03*
X205740000Y-80645000D03*
X203708000Y-80645000D03*
X208788000Y-80645000D03*
X209804000Y-80645000D03*
X201676000Y-80645000D03*
X206756000Y-81915000D03*
X204724000Y-81915000D03*
X201676000Y-81915000D03*
X195580000Y-81915000D03*
X198628000Y-81915000D03*
X196596000Y-81915000D03*
X205740000Y-81915000D03*
X207772000Y-81915000D03*
X203708000Y-81915000D03*
X209804000Y-81915000D03*
X202692000Y-81915000D03*
X199644000Y-81915000D03*
X197612000Y-81915000D03*
X211836000Y-81915000D03*
X208788000Y-81915000D03*
X200660000Y-81915000D03*
X210820000Y-81915000D03*
X211836000Y-70485000D03*
X206756000Y-70485000D03*
X208788000Y-70485000D03*
X196596000Y-70485000D03*
X199644000Y-70485000D03*
X207772000Y-70485000D03*
X203708000Y-70485000D03*
X209804000Y-70485000D03*
X197612000Y-70485000D03*
X205740000Y-70485000D03*
X195580000Y-70485000D03*
X210820000Y-70485000D03*
X200660000Y-70485000D03*
X204724000Y-70485000D03*
X198628000Y-70485000D03*
X201676000Y-70485000D03*
X202692000Y-70485000D03*
X135877300Y-84709000D03*
X146037300Y-84709000D03*
X156197302Y-84709000D03*
X166357300Y-84709000D03*
X125209300Y-84709000D03*
X115811300Y-84709000D03*
X153657300Y-127127000D03*
X161023300Y-127127000D03*
X167881300Y-127127000D03*
X175247300Y-127127000D03*
X172961300Y-125349000D03*
X158498010Y-125334290D03*
X122116310Y-94361000D03*
X120816811Y-106509137D03*
X122116310Y-103513736D03*
X176022000Y-89408000D03*
X174752000Y-89408000D03*
X224409000Y-89916000D03*
X224408998Y-88646004D03*
X188455300Y-117728990D03*
X166484296Y-113792000D03*
X180708300Y-113792000D03*
X160782000Y-113792000D03*
X160782000Y-110998000D03*
X169672000Y-113792000D03*
X169672000Y-109982000D03*
X174993302Y-108966000D03*
X174993300Y-113792000D03*
X139687300Y-114935000D03*
X138417300Y-114935000D03*
X206235300Y-130429000D03*
X167894000Y-98552000D03*
X173990000Y-96520000D03*
X172974000Y-97536000D03*
X167131994Y-97536000D03*
X171958000Y-98425000D03*
X169418000Y-98424994D03*
X159004000Y-108203994D03*
X158991300Y-93853000D03*
X160273992Y-107315000D03*
X160261300Y-93853000D03*
X128248337Y-113940663D03*
X130752310Y-107188000D03*
X128270000Y-116967000D03*
X130752310Y-104648000D03*
X180340000Y-57404000D03*
X180340000Y-58420000D03*
X188455300Y-122808998D03*
X191503300Y-117729000D03*
X132156200Y-126111000D03*
X132156200Y-125095000D03*
D22*
X150355300Y-66319400D02*
X150355300Y-69723000D01*
X144894300Y-60858400D02*
X150355300Y-66319400D01*
X173469300Y-88125300D02*
X174752000Y-89408000D01*
X150355300Y-69723000D02*
X153911300Y-73279000D01*
X169405300Y-73279000D02*
X173469300Y-77343000D01*
X153911300Y-73279000D02*
X169405300Y-73279000D01*
X173469300Y-77343000D02*
X173469300Y-88125300D01*
X174752000Y-89408000D02*
X176022000Y-89408000D01*
X224408998Y-89915998D02*
X224409000Y-89916000D01*
X224408998Y-88646004D02*
X224408998Y-89915998D01*
X224409000Y-90481685D02*
X220783685Y-94107000D01*
X224409000Y-89916000D02*
X224409000Y-90481685D01*
X220783685Y-94107000D02*
X193027300Y-94107000D01*
X188455300Y-98679000D02*
X188455300Y-117728990D01*
X193027300Y-94107000D02*
X188455300Y-98679000D01*
D23*
X170421286Y-117728990D02*
X166884295Y-114191999D01*
X166884295Y-114191999D02*
X166484296Y-113792000D01*
X188455300Y-117728990D02*
X170421286Y-117728990D01*
X181108299Y-114191999D02*
X180708300Y-113792000D01*
X184137300Y-117221000D02*
X181108299Y-114191999D01*
X188455300Y-117728990D02*
X188201290Y-117728990D01*
X187693300Y-117221000D02*
X184137300Y-117221000D01*
X188201290Y-117728990D02*
X187693300Y-117221000D01*
D24*
X160388300Y-79375000D02*
X157848300Y-76835000D01*
X157848300Y-76835000D02*
X152641300Y-76835000D01*
X152641300Y-76835000D02*
X150101300Y-79375000D01*
X141345299Y-78225001D02*
X140195300Y-79375000D01*
X142735300Y-76835000D02*
X141345299Y-78225001D01*
X150228300Y-79375000D02*
X147688300Y-76835000D01*
X147688300Y-76835000D02*
X142735300Y-76835000D01*
X132575300Y-76835000D02*
X130035300Y-79375000D01*
X140195300Y-79375000D02*
X137655300Y-76835000D01*
X137655300Y-76835000D02*
X132575300Y-76835000D01*
X120263299Y-78225001D02*
X119113300Y-79375000D01*
X129908300Y-79375000D02*
X127368300Y-76835000D01*
X121653300Y-76835000D02*
X120263299Y-78225001D01*
X127368300Y-76835000D02*
X121653300Y-76835000D01*
X112255300Y-76835000D02*
X109715300Y-79375000D01*
X119113300Y-79375000D02*
X116573300Y-76835000D01*
X116573300Y-76835000D02*
X112255300Y-76835000D01*
X162801300Y-76835000D02*
X160261300Y-79375000D01*
X170167300Y-79375000D02*
X167627300Y-76835000D01*
X167627300Y-76835000D02*
X162801300Y-76835000D01*
X170167300Y-89281000D02*
X170167300Y-79375000D01*
X188455300Y-117728990D02*
X184391310Y-113665000D01*
X184391310Y-103505010D02*
X170167300Y-89281000D01*
X184391310Y-113665000D02*
X184391310Y-103505010D01*
D25*
X139687300Y-114935000D02*
X138417300Y-114935000D01*
X139687300Y-114935000D02*
X139687300Y-114935000D01*
X190106300Y-139446000D02*
X188709300Y-140843000D01*
X193268600Y-136283700D02*
X190106300Y-139446000D01*
X210820000Y-140140081D02*
X210117081Y-140843000D01*
X210820000Y-138938000D02*
X210820000Y-140140081D01*
D26*
X193268600Y-136326219D02*
X193268600Y-136283700D01*
X210820000Y-135013700D02*
X206235300Y-130429000D01*
X210820000Y-138938000D02*
X210820000Y-135013700D01*
D25*
X144513300Y-114935000D02*
X139687300Y-114935000D01*
X145529300Y-138303000D02*
X145529300Y-133985000D01*
X148577300Y-118999000D02*
X144513300Y-114935000D01*
X188709300Y-140843000D02*
X148069300Y-140843000D01*
X145529300Y-133985000D02*
X148577300Y-130937000D01*
X148069300Y-140843000D02*
X145529300Y-138303000D01*
X148577300Y-130937000D02*
X148577300Y-118999000D01*
X193268600Y-136258300D02*
X193268600Y-136283700D01*
X194551300Y-126873000D02*
X193268600Y-128155700D01*
X193268600Y-128155700D02*
X193268600Y-136258300D01*
X191503300Y-140843000D02*
X190106300Y-139446000D01*
X210045300Y-140843000D02*
X191503300Y-140843000D01*
D26*
X202171300Y-138811000D02*
X203271300Y-138811000D01*
X203271300Y-138811000D02*
X210807300Y-138811000D01*
D27*
X97282000Y-127254000D02*
X93980000Y-123952000D01*
X93980000Y-57404000D02*
X97282000Y-54102000D01*
X94234000Y-64262000D02*
X93980000Y-64008000D01*
X97282000Y-64262000D02*
X94234000Y-64262000D01*
X93980000Y-64008000D02*
X93980000Y-57404000D01*
X94234000Y-74422000D02*
X93980000Y-74168000D01*
X97282000Y-74422000D02*
X94234000Y-74422000D01*
X93980000Y-74168000D02*
X93980000Y-64008000D01*
X97282000Y-84582000D02*
X93980000Y-84582000D01*
X93980000Y-84582000D02*
X93980000Y-74168000D01*
X97282000Y-96774000D02*
X93980000Y-96774000D01*
X93980000Y-96774000D02*
X93980000Y-84582000D01*
X97282000Y-106934000D02*
X93980000Y-106934000D01*
X93980000Y-106934000D02*
X93980000Y-96774000D01*
X97282000Y-117094000D02*
X93980000Y-117094000D01*
X93980000Y-123952000D02*
X93980000Y-117094000D01*
X93980000Y-117094000D02*
X93980000Y-106934000D01*
X180340000Y-52578000D02*
X180086000Y-52324000D01*
X97282000Y-54102000D02*
X97028000Y-54102000D01*
X180340000Y-52578000D02*
X180340000Y-58420000D01*
X172974000Y-45212000D02*
X104762300Y-45212000D01*
X97650300Y-54102000D02*
X97282000Y-54102000D01*
X180340000Y-52578000D02*
X172974000Y-45212000D01*
X97777300Y-52197000D02*
X97777300Y-53975000D01*
X104762300Y-45212000D02*
X97777300Y-52197000D01*
X97777300Y-53975000D02*
X97650300Y-54102000D01*
D23*
X240271300Y-130175000D02*
X240271300Y-126873000D01*
X238112300Y-132334000D02*
X240271300Y-130175000D01*
X215900000Y-138938000D02*
X215900000Y-136766300D01*
D22*
X240258600Y-130187700D02*
X238112300Y-132334000D01*
X240258600Y-126974600D02*
X240258600Y-130187700D01*
X220332300Y-132334000D02*
X215887300Y-136779000D01*
X238112300Y-132334000D02*
X220332300Y-132334000D01*
D23*
X215900000Y-136766300D02*
X215887300Y-136779000D01*
D22*
X215900000Y-136766300D02*
X215900000Y-138925300D01*
X215900000Y-138925300D02*
X215887300Y-138938000D01*
X233667300Y-118237000D02*
X240271300Y-124841000D01*
X219697300Y-118237000D02*
X233667300Y-118237000D01*
X188455300Y-122808998D02*
X215125302Y-122808998D01*
X240271300Y-124841000D02*
X240271300Y-126873000D01*
X215125302Y-122808998D02*
X219697300Y-118237000D01*
X105651300Y-89611200D02*
X105651300Y-77597000D01*
X125558001Y-109139999D02*
X124921001Y-108502999D01*
X135369300Y-138811000D02*
X132156200Y-135597900D01*
X138417300Y-138811000D02*
X135369300Y-138811000D01*
X138671300Y-139065000D02*
X138417300Y-138811000D01*
X132156200Y-116116100D02*
X125558001Y-109517901D01*
X124921001Y-108502999D02*
X124543099Y-108502999D01*
X124543099Y-108502999D02*
X105651300Y-89611200D01*
X132156200Y-135597900D02*
X132156200Y-116116100D01*
X125558001Y-109517901D02*
X125558001Y-109139999D01*
X105651300Y-77597000D02*
X105651300Y-77089000D01*
X105651300Y-77089000D02*
X110731300Y-72009000D01*
X110731300Y-72009000D02*
X140957300Y-72009000D01*
X140957300Y-72009000D02*
X145021300Y-67945000D01*
M02*
