M48
; DRILL file {KiCad (5.1.5)-3} date 11/4/2020 1:24:50 PM
; FORMAT={-:-/ absolute / inch / decimal}
; #@! TF.CreationDate,2020-11-04T13:24:50-03:00
; #@! TF.GenerationSoftware,Kicad,Pcbnew,(5.1.5)-3
; #@! TF.FileFunction,Plated,1,4,PTH
FMAT,2
INCH
T1C0.0157
T2C0.0197
T3C0.0394
T4C0.0472
T5C0.0512
T6C0.1575
T7C0.2362
T8C0.2756
%
G90
G05
T1
X4.52Y-4.12
X4.5595Y-3.335
X4.7566Y-4.1933
X4.8077Y-3.715
X4.8077Y-4.0753
X4.895Y-3.845
X4.895Y-3.965
X4.895Y-4.32
X4.895Y-4.44
X4.895Y-4.56
X4.9295Y-3.335
X5.0491Y-4.4859
X5.05Y-4.605
X5.1477Y-4.12
X5.1477Y-4.22
X5.203Y-4.925
X5.203Y-4.965
X5.3495Y-3.335
X5.4495Y-4.525
X5.4995Y-4.525
X5.7495Y-3.335
X6.0495Y-5.005
X6.1495Y-3.335
X6.2401Y-4.9344
X6.2595Y-3.695
X6.26Y-4.26
X6.3095Y-3.695
X6.31Y-4.225
X6.33Y-4.37
X6.33Y-4.48
X6.3395Y-5.005
X6.5495Y-3.335
X6.5545Y-4.48
X6.58Y-3.84
X6.6095Y-5.005
X6.61Y-3.88
X6.6195Y-4.48
X6.67Y-3.875
X6.68Y-4.33
X6.68Y-4.48
X6.77Y-3.875
X6.8095Y-4.935
X6.81Y-3.84
X6.85Y-3.8
X6.88Y-3.52
X6.8895Y-4.48
X6.8895Y-4.29
X6.8995Y-5.005
X6.93Y-3.52
X7.1Y-2.26
X7.1Y-2.3
X7.1145Y-4.48
X7.1995Y-4.48
X7.4195Y-4.635
X7.4195Y-4.835
X7.5395Y-4.635
X7.7Y-2.295
X7.7Y-2.775
X7.7Y-2.825
X7.7Y-2.875
X7.7Y-2.925
X7.7Y-2.975
X7.7Y-3.025
X7.7Y-3.075
X7.7Y-3.125
X7.7Y-3.175
X7.7Y-3.225
X7.74Y-2.295
X7.74Y-2.775
X7.74Y-2.825
X7.74Y-2.875
X7.74Y-2.925
X7.74Y-2.975
X7.74Y-3.025
X7.74Y-3.075
X7.74Y-3.125
X7.74Y-3.175
X7.74Y-3.225
X7.78Y-2.295
X7.78Y-2.775
X7.78Y-2.825
X7.78Y-2.875
X7.78Y-2.925
X7.78Y-2.975
X7.78Y-3.025
X7.78Y-3.075
X7.78Y-3.125
X7.78Y-3.175
X7.78Y-3.225
X7.82Y-2.295
X7.82Y-2.775
X7.82Y-2.825
X7.82Y-2.875
X7.82Y-2.925
X7.82Y-2.975
X7.82Y-3.025
X7.82Y-3.075
X7.82Y-3.125
X7.82Y-3.175
X7.82Y-3.225
X7.86Y-2.295
X7.86Y-2.775
X7.86Y-2.825
X7.86Y-2.875
X7.86Y-2.925
X7.86Y-2.975
X7.86Y-3.025
X7.86Y-3.075
X7.86Y-3.125
X7.86Y-3.175
X7.86Y-3.225
X7.9Y-2.295
X7.9Y-2.775
X7.9Y-2.825
X7.9Y-2.875
X7.9Y-2.925
X7.9Y-2.975
X7.9Y-3.025
X7.9Y-3.075
X7.9Y-3.125
X7.9Y-3.175
X7.9Y-3.225
X7.9095Y-5.135
X7.94Y-2.295
X7.94Y-2.775
X7.94Y-2.825
X7.94Y-2.875
X7.94Y-2.925
X7.94Y-2.975
X7.94Y-3.025
X7.94Y-3.075
X7.94Y-3.125
X7.94Y-3.175
X7.94Y-3.225
X7.98Y-2.295
X7.98Y-2.775
X7.98Y-2.825
X7.98Y-2.875
X7.98Y-2.925
X7.98Y-2.975
X7.98Y-3.025
X7.98Y-3.075
X7.98Y-3.125
X7.98Y-3.175
X7.98Y-3.225
X8.02Y-2.295
X8.02Y-2.775
X8.02Y-2.825
X8.02Y-2.875
X8.02Y-2.925
X8.02Y-2.975
X8.02Y-3.025
X8.02Y-3.075
X8.02Y-3.125
X8.02Y-3.175
X8.02Y-3.225
X8.06Y-2.295
X8.06Y-2.775
X8.06Y-2.825
X8.06Y-2.875
X8.06Y-2.925
X8.06Y-2.975
X8.06Y-3.025
X8.06Y-3.075
X8.06Y-3.125
X8.06Y-3.175
X8.06Y-3.225
X8.1Y-2.295
X8.1Y-2.775
X8.1Y-2.825
X8.1Y-2.875
X8.1Y-2.925
X8.1Y-2.975
X8.1Y-3.025
X8.1Y-3.075
X8.1Y-3.125
X8.1Y-3.175
X8.1Y-3.225
X8.1195Y-5.135
X8.14Y-2.295
X8.14Y-2.775
X8.14Y-2.825
X8.14Y-2.875
X8.14Y-2.925
X8.14Y-2.975
X8.14Y-3.025
X8.14Y-3.075
X8.14Y-3.125
X8.14Y-3.175
X8.14Y-3.225
X8.18Y-2.295
X8.18Y-2.775
X8.18Y-2.825
X8.18Y-2.875
X8.18Y-2.925
X8.18Y-2.975
X8.18Y-3.025
X8.18Y-3.075
X8.18Y-3.125
X8.18Y-3.175
X8.18Y-3.225
X8.22Y-2.295
X8.22Y-2.775
X8.22Y-2.825
X8.22Y-2.875
X8.22Y-2.925
X8.22Y-2.975
X8.22Y-3.025
X8.22Y-3.075
X8.22Y-3.125
X8.22Y-3.175
X8.22Y-3.225
X8.26Y-2.295
X8.26Y-2.775
X8.26Y-2.825
X8.26Y-2.875
X8.26Y-2.925
X8.26Y-2.975
X8.26Y-3.025
X8.26Y-3.075
X8.26Y-3.125
X8.26Y-3.175
X8.26Y-3.225
X8.3Y-2.295
X8.3Y-2.775
X8.3Y-2.825
X8.3Y-2.875
X8.3Y-2.925
X8.3Y-2.975
X8.3Y-3.025
X8.3Y-3.075
X8.3Y-3.125
X8.3Y-3.175
X8.3Y-3.225
X8.34Y-2.295
X8.34Y-2.775
X8.34Y-2.825
X8.34Y-2.875
X8.34Y-2.925
X8.34Y-2.975
X8.34Y-3.025
X8.34Y-3.075
X8.34Y-3.125
X8.34Y-3.175
X8.34Y-3.225
X8.835Y-3.49
X8.835Y-3.54
T2
X3.6695Y-1.855
X3.6995Y-1.785
X3.6995Y-1.925
X3.7695Y-1.755
X3.7695Y-1.955
X3.8395Y-1.785
X3.8395Y-1.925
X3.8695Y-1.855
X3.6695Y-5.485
X3.6995Y-5.415
X3.6995Y-5.555
X3.7695Y-5.385
X3.7695Y-5.585
X3.8395Y-5.415
X3.8395Y-5.555
X3.8695Y-5.485
X9.2695Y-5.485
X9.2995Y-5.415
X9.2995Y-5.555
X9.3695Y-5.385
X9.3695Y-5.585
X9.4395Y-5.415
X9.4395Y-5.555
X9.4695Y-5.485
X9.2695Y-1.855
X9.2995Y-1.785
X9.2995Y-1.925
X9.3695Y-1.755
X9.3695Y-1.955
X9.4395Y-1.785
X9.4395Y-1.925
X9.4695Y-1.855
T3
X4.6025Y-4.965
X4.6025Y-5.065
X4.6025Y-5.165
X4.6025Y-5.265
X4.6025Y-5.365
X4.6025Y-5.465
X5.4585Y-5.066
X5.4585Y-5.166
X5.4585Y-5.266
X5.4585Y-5.366
X5.4585Y-5.466
X5.4585Y-5.566
X7.6595Y-5.465
X7.7595Y-5.465
X7.8595Y-5.465
X7.9595Y-5.465
X8.3Y-5.47
X8.4Y-5.47
X8.5Y-5.47
X8.6Y-5.47
X8.7Y-5.47
X8.8Y-5.47
X8.9Y-5.47
X7.659Y-4.999
X7.66Y-4.003
X7.759Y-4.999
X7.76Y-4.003
X7.859Y-4.999
X7.86Y-4.003
X7.959Y-4.999
X7.96Y-4.003
X8.059Y-4.999
X8.06Y-4.003
X8.159Y-4.999
X8.16Y-4.003
X8.259Y-4.999
X8.26Y-4.003
X8.359Y-4.999
X8.36Y-4.003
X8.459Y-4.999
X8.46Y-4.003
X8.559Y-4.999
X8.56Y-4.003
X8.659Y-4.999
X8.66Y-4.003
X8.759Y-4.999
X8.76Y-4.003
X8.859Y-4.999
X8.86Y-4.003
X8.959Y-4.999
X8.96Y-4.003
X9.059Y-4.999
X9.06Y-4.003
X9.159Y-4.999
X9.16Y-4.003
X9.259Y-4.999
X9.26Y-4.003
X9.359Y-4.999
X9.36Y-4.003
X9.459Y-4.999
X9.46Y-4.003
T4
X5.1145Y-3.125
X5.2985Y-3.125
X5.2995Y-2.396
X5.2995Y-2.673
X5.5195Y-3.125
X5.7035Y-3.125
X5.7045Y-2.396
X5.7045Y-2.673
X4.6895Y-3.125
X4.8735Y-3.125
X4.8745Y-2.396
X4.8745Y-2.673
X5.9145Y-3.125
X6.0985Y-3.125
X6.0995Y-2.396
X6.0995Y-2.673
X6.3145Y-3.125
X6.4985Y-3.125
X6.4995Y-2.396
X6.4995Y-2.673
X4.3245Y-3.124
X4.5085Y-3.124
X4.5095Y-2.395
X4.5095Y-2.672
T5
X5.0995Y-1.935
X5.2995Y-1.935
X5.4995Y-1.935
X5.6995Y-1.935
X5.8995Y-1.935
X6.0995Y-1.935
X6.2995Y-1.935
X6.4995Y-1.935
X3.8495Y-2.13
X3.8495Y-2.33
X3.8495Y-2.53
X3.8495Y-2.73
X3.8495Y-2.93
X3.8495Y-3.13
X3.8495Y-3.33
X3.8495Y-3.53
X7.9281Y-1.905
X8.125Y-1.905
X4.2595Y-1.935
X4.4595Y-1.935
X4.6595Y-1.935
X4.8595Y-1.935
X3.8495Y-3.81
X3.8495Y-4.01
X3.8495Y-4.21
X3.8495Y-4.41
X3.8495Y-4.61
X3.8495Y-4.81
X3.8495Y-5.01
X3.8495Y-5.21
X5.8585Y-5.405
X6.0585Y-5.405
X6.2585Y-5.405
X6.4585Y-5.405
X6.6585Y-5.405
X6.8585Y-5.405
X7.0585Y-5.405
X7.2585Y-5.405
T6
X3.7695Y-1.855
X3.7695Y-5.485
X9.3695Y-5.485
X9.3695Y-1.855
T7
X5.4595Y-4.725
T8
X4.2995Y-5.415
T0
M30
