%FSLAX24Y24*%
%MOIN*%
G70*
G01*
G75*
G04 Layer_Color=16711935*
%ADD10R,0.0650X0.0315*%
%ADD11R,0.0571X0.0512*%
%ADD12R,0.0512X0.0571*%
%ADD13R,0.0315X0.0650*%
%ADD14R,0.0079X0.0827*%
%ADD15R,0.4134X0.3386*%
%ADD16R,0.0433X0.1378*%
%ADD17C,0.0079*%
%ADD18C,0.0098*%
%ADD19C,0.0118*%
%ADD20C,0.0787*%
%ADD21C,0.1142*%
%ADD22R,0.0591X0.0591*%
%ADD23C,0.0591*%
%ADD24C,0.0984*%
%ADD25O,0.1004X0.0984*%
%ADD26C,0.0630*%
%ADD27C,0.0669*%
%ADD28C,0.0665*%
%ADD29R,0.0665X0.0665*%
%ADD30C,0.1874*%
%ADD31C,0.0512*%
%ADD32C,0.3307*%
%ADD33C,0.0236*%
%ADD34R,0.0472X0.0709*%
%ADD35R,0.0472X0.0650*%
%ADD36R,0.0512X0.0591*%
%ADD37O,0.0276X0.0984*%
%ADD38O,0.0984X0.0276*%
%ADD39C,0.0100*%
%ADD40R,0.0730X0.0395*%
%ADD41R,0.0651X0.0592*%
%ADD42R,0.0592X0.0651*%
%ADD43R,0.0395X0.0730*%
%ADD44R,0.0159X0.0907*%
%ADD45R,0.4214X0.3466*%
%ADD46R,0.0513X0.1458*%
%ADD47C,0.0867*%
%ADD48C,0.1222*%
%ADD49R,0.0671X0.0671*%
%ADD50C,0.0671*%
%ADD51C,0.1064*%
%ADD52O,0.1084X0.1064*%
%ADD53C,0.0710*%
%ADD54C,0.0749*%
%ADD55C,0.0745*%
%ADD56R,0.0745X0.0745*%
%ADD57C,0.1954*%
%ADD58C,0.0592*%
%ADD59C,0.3387*%
%ADD60C,0.0316*%
%ADD61R,0.0552X0.0789*%
%ADD62R,0.0552X0.0730*%
%ADD63R,0.0592X0.0671*%
%ADD64O,0.0356X0.1064*%
%ADD65O,0.1064X0.0356*%
D40*
X21180Y28996D02*
D03*
X20260Y28626D02*
D03*
Y29376D02*
D03*
X19476Y26504D02*
D03*
X18556Y26134D02*
D03*
Y26884D02*
D03*
D41*
X34909Y34362D02*
D03*
X35755D02*
D03*
X32381Y30378D02*
D03*
X31535D02*
D03*
X35514Y35351D02*
D03*
X34668D02*
D03*
X31839Y36424D02*
D03*
X30993D02*
D03*
X33095Y36512D02*
D03*
X33941D02*
D03*
X28645Y36432D02*
D03*
X29491D02*
D03*
X21845Y34498D02*
D03*
X20999D02*
D03*
X26177Y35000D02*
D03*
X27023D02*
D03*
X36377Y22200D02*
D03*
X37223D02*
D03*
X39411Y34420D02*
D03*
X40257D02*
D03*
D42*
X34072Y29775D02*
D03*
Y30621D02*
D03*
X29772Y33137D02*
D03*
Y32291D02*
D03*
X17532Y35239D02*
D03*
Y34393D02*
D03*
X17942Y28249D02*
D03*
Y29095D02*
D03*
X17594Y32619D02*
D03*
Y33465D02*
D03*
Y30861D02*
D03*
Y31707D02*
D03*
X21344Y27497D02*
D03*
Y26651D02*
D03*
X39000Y23023D02*
D03*
Y22177D02*
D03*
X38200Y23023D02*
D03*
Y22177D02*
D03*
X41952Y33233D02*
D03*
Y34079D02*
D03*
X40400Y22023D02*
D03*
Y21177D02*
D03*
X34422Y20411D02*
D03*
Y19565D02*
D03*
D43*
X18882Y34350D02*
D03*
X19252Y33430D02*
D03*
X18502D02*
D03*
X39304Y35446D02*
D03*
X38934Y36366D02*
D03*
X39684D02*
D03*
D47*
X26755Y19813D02*
D03*
X28724D02*
D03*
D48*
X35204Y32324D02*
D03*
X23314Y32639D02*
D03*
D49*
X25746Y30392D02*
D03*
X22416Y24052D02*
D03*
D50*
X23746Y30392D02*
D03*
X24746D02*
D03*
X40176Y39257D02*
D03*
X38720Y43292D02*
D03*
Y42505D02*
D03*
X40176Y40143D02*
D03*
X18416Y23052D02*
D03*
X19416D02*
D03*
X20416D02*
D03*
X21416D02*
D03*
X22416D02*
D03*
X18416Y24052D02*
D03*
X19416D02*
D03*
X20416D02*
D03*
X21416D02*
D03*
D51*
X42000Y19200D02*
D03*
D52*
X36094D02*
D03*
D53*
X41986Y36958D02*
D03*
Y35958D02*
D03*
X41982Y39198D02*
D03*
Y38198D02*
D03*
D54*
X40600Y28600D02*
D03*
X37844D02*
D03*
D55*
X31381Y27299D02*
D03*
X30836Y26181D02*
D03*
X30291Y27299D02*
D03*
X29745Y26181D02*
D03*
X29200Y27299D02*
D03*
X28655Y26181D02*
D03*
X28109Y27299D02*
D03*
X27564Y26181D02*
D03*
D56*
X27019Y27299D02*
D03*
D57*
X24281Y26740D02*
D03*
X34119D02*
D03*
D58*
X40568Y33200D02*
D03*
X38600D02*
D03*
X33006Y21411D02*
D03*
Y19442D02*
D03*
D59*
X19094Y20276D02*
D03*
D60*
X34030Y32750D02*
D03*
X25020Y32400D02*
D03*
X24420Y32110D02*
D03*
X25570Y32940D02*
D03*
X25970Y32730D02*
D03*
X19560Y28996D02*
D03*
X18660Y28660D02*
D03*
X21570Y30920D02*
D03*
X27470Y34460D02*
D03*
X31200Y32820D02*
D03*
X33780Y34330D02*
D03*
X40257Y35530D02*
D03*
X29910Y34780D02*
D03*
X29213Y34524D02*
D03*
X30290Y34790D02*
D03*
X31150Y34490D02*
D03*
X32027Y32920D02*
D03*
X37810Y22160D02*
D03*
X30860Y32850D02*
D03*
X26290Y29650D02*
D03*
X28790Y38630D02*
D03*
X18380Y42970D02*
D03*
X28160Y33130D02*
D03*
X28249Y38549D02*
D03*
X32180Y35020D02*
D03*
X34040D02*
D03*
X19730Y42470D02*
D03*
X28660Y32670D02*
D03*
X25150Y35000D02*
D03*
X21413Y41393D02*
D03*
X28717Y34968D02*
D03*
X29901Y43549D02*
D03*
X30850Y35180D02*
D03*
X28210Y32770D02*
D03*
X28930Y33150D02*
D03*
X18500Y32880D02*
D03*
X17560Y35660D02*
D03*
X19970Y31020D02*
D03*
X27023Y33100D02*
D03*
X33330Y34570D02*
D03*
X34332Y29220D02*
D03*
X32898Y30100D02*
D03*
X25118Y18590D02*
D03*
Y19378D02*
D03*
Y20165D02*
D03*
Y20952D02*
D03*
Y21740D02*
D03*
X24330Y18590D02*
D03*
Y19378D02*
D03*
Y20165D02*
D03*
Y20952D02*
D03*
Y21740D02*
D03*
X23543Y18590D02*
D03*
Y19378D02*
D03*
Y20165D02*
D03*
Y20952D02*
D03*
Y21740D02*
D03*
X22755Y18590D02*
D03*
Y19378D02*
D03*
Y20165D02*
D03*
Y20952D02*
D03*
Y21740D02*
D03*
X21968Y18590D02*
D03*
Y19378D02*
D03*
Y20165D02*
D03*
Y20952D02*
D03*
Y21740D02*
D03*
X29251Y21966D02*
D03*
Y22754D02*
D03*
Y23541D02*
D03*
Y24328D02*
D03*
Y25116D02*
D03*
X28464Y21966D02*
D03*
Y22754D02*
D03*
Y23541D02*
D03*
Y24328D02*
D03*
Y25116D02*
D03*
X27677Y21966D02*
D03*
Y22754D02*
D03*
Y23541D02*
D03*
Y24328D02*
D03*
Y25116D02*
D03*
X26889Y21966D02*
D03*
Y22754D02*
D03*
Y23541D02*
D03*
Y24328D02*
D03*
Y25116D02*
D03*
X26102Y21966D02*
D03*
Y22754D02*
D03*
Y23541D02*
D03*
Y24328D02*
D03*
Y25116D02*
D03*
X25344Y22763D02*
D03*
Y23551D02*
D03*
Y24338D02*
D03*
X24557Y22763D02*
D03*
Y23551D02*
D03*
Y24338D02*
D03*
X23769Y22763D02*
D03*
Y23551D02*
D03*
Y24338D02*
D03*
X30679Y21966D02*
D03*
Y22754D02*
D03*
Y23541D02*
D03*
Y24328D02*
D03*
Y25116D02*
D03*
X29891Y21966D02*
D03*
Y22754D02*
D03*
Y23541D02*
D03*
Y24328D02*
D03*
Y25116D02*
D03*
X27686Y20943D02*
D03*
X26899D02*
D03*
X26112D02*
D03*
X27706Y18580D02*
D03*
X26919D02*
D03*
X26131D02*
D03*
X31666Y25118D02*
D03*
Y24330D02*
D03*
Y23543D02*
D03*
Y22755D02*
D03*
Y21968D02*
D03*
X34517Y24309D02*
D03*
Y25096D02*
D03*
X33730Y24309D02*
D03*
Y25096D02*
D03*
X41988Y30549D02*
D03*
Y31336D02*
D03*
Y32124D02*
D03*
X41200Y30549D02*
D03*
Y31336D02*
D03*
Y32124D02*
D03*
X40413Y30549D02*
D03*
Y31336D02*
D03*
Y32124D02*
D03*
X17972Y22380D02*
D03*
X17184Y21592D02*
D03*
Y22380D02*
D03*
X17135Y36661D02*
D03*
Y37448D02*
D03*
X21564Y35372D02*
D03*
Y36159D02*
D03*
Y36946D02*
D03*
X20777Y36159D02*
D03*
Y36946D02*
D03*
X22313Y36171D02*
D03*
X23110Y35374D02*
D03*
X19990Y36946D02*
D03*
X22343Y35374D02*
D03*
X27273Y45096D02*
D03*
X26486D02*
D03*
X25698D02*
D03*
X24911D02*
D03*
X24123D02*
D03*
X31279Y45057D02*
D03*
X30492D02*
D03*
X29704D02*
D03*
X28917D02*
D03*
X28129D02*
D03*
X35205Y45098D02*
D03*
X34418D02*
D03*
X33631D02*
D03*
X32843D02*
D03*
X32056D02*
D03*
X22230Y30280D02*
D03*
X22210Y31070D02*
D03*
Y29590D02*
D03*
X37136Y44634D02*
D03*
Y43846D02*
D03*
Y43059D02*
D03*
Y42272D02*
D03*
Y41484D02*
D03*
X37923Y44634D02*
D03*
Y43846D02*
D03*
Y43059D02*
D03*
Y42272D02*
D03*
Y41484D02*
D03*
X38710Y44634D02*
D03*
Y41484D02*
D03*
X39498Y44634D02*
D03*
Y43846D02*
D03*
Y43059D02*
D03*
Y42272D02*
D03*
Y41484D02*
D03*
X40285Y44634D02*
D03*
Y43846D02*
D03*
Y43059D02*
D03*
Y42272D02*
D03*
Y41484D02*
D03*
X36310Y44642D02*
D03*
Y43855D02*
D03*
Y43067D02*
D03*
Y42280D02*
D03*
Y41493D02*
D03*
X41210Y44662D02*
D03*
Y43875D02*
D03*
Y43087D02*
D03*
Y42300D02*
D03*
Y41513D02*
D03*
X34580Y41447D02*
D03*
X35505Y41476D02*
D03*
X38310Y38347D02*
D03*
Y37560D02*
D03*
X39235Y38376D02*
D03*
Y37588D02*
D03*
X36343Y39440D02*
D03*
X37130D02*
D03*
X36314Y40365D02*
D03*
X37102D02*
D03*
X37889D02*
D03*
X38715Y23852D02*
D03*
Y24639D02*
D03*
Y25426D02*
D03*
Y26214D02*
D03*
X37928Y23852D02*
D03*
Y24639D02*
D03*
Y25426D02*
D03*
Y26214D02*
D03*
X37140Y23852D02*
D03*
Y24639D02*
D03*
Y25426D02*
D03*
Y26214D02*
D03*
X36353Y23852D02*
D03*
Y24639D02*
D03*
Y25426D02*
D03*
Y26214D02*
D03*
X30480Y30830D02*
D03*
X30960Y30530D02*
D03*
X36363Y38710D02*
D03*
X39310Y36240D02*
D03*
X37573Y37520D02*
D03*
X40840Y36010D02*
D03*
X40850Y37550D02*
D03*
X40870Y38410D02*
D03*
X40080Y37590D02*
D03*
X40030Y38380D02*
D03*
X40995Y18504D02*
D03*
X40208D02*
D03*
X39420D02*
D03*
X38633D02*
D03*
X37846D02*
D03*
X34296D02*
D03*
X42402Y45539D02*
D03*
X16929Y18238D02*
D03*
Y45552D02*
D03*
D61*
X26179Y42790D02*
D03*
X27179D02*
D03*
X28249D02*
D03*
X35035Y42762D02*
D03*
X33965D02*
D03*
X32965D02*
D03*
D62*
X28249Y39306D02*
D03*
X27179D02*
D03*
X26179D02*
D03*
X32965Y39278D02*
D03*
X33965D02*
D03*
X35035D02*
D03*
D63*
X23946Y37549D02*
D03*
Y36720D02*
D03*
D64*
X30527Y33563D02*
D03*
X31027D02*
D03*
X31527D02*
D03*
X32027D02*
D03*
X32527D02*
D03*
X33027D02*
D03*
X33527D02*
D03*
X34027D02*
D03*
X30527Y31634D02*
D03*
X31027D02*
D03*
X31527D02*
D03*
X32027D02*
D03*
X32527D02*
D03*
X33027D02*
D03*
X33527D02*
D03*
X34027D02*
D03*
D65*
X19015Y30470D02*
D03*
Y30970D02*
D03*
Y31470D02*
D03*
Y31970D02*
D03*
X20945Y30470D02*
D03*
Y30970D02*
D03*
Y31470D02*
D03*
Y31970D02*
D03*
M02*
