%FSLAX24Y24*%
%MOIN*%
G70*
G01*
G75*
G04 Layer_Color=8421504*
%ADD10R,0.0650X0.0315*%
%ADD11R,0.0571X0.0512*%
%ADD12R,0.0512X0.0571*%
%ADD13R,0.0315X0.0650*%
%ADD14R,0.0079X0.0827*%
%ADD15R,0.4134X0.3386*%
%ADD16R,0.0433X0.1378*%
%ADD17C,0.0079*%
%ADD18C,0.0098*%
%ADD19C,0.0118*%
%ADD20C,0.0787*%
%ADD21C,0.1142*%
%ADD22R,0.0591X0.0591*%
%ADD23C,0.0591*%
%ADD24C,0.0984*%
%ADD25O,0.1004X0.0984*%
%ADD26C,0.0630*%
%ADD27C,0.0669*%
%ADD28C,0.0665*%
%ADD29R,0.0665X0.0665*%
%ADD30C,0.1874*%
%ADD31C,0.0512*%
%ADD32C,0.3307*%
%ADD33C,0.0236*%
%ADD34R,0.0472X0.0709*%
%ADD35R,0.0472X0.0650*%
%ADD36R,0.0512X0.0591*%
%ADD37O,0.0276X0.0984*%
%ADD38O,0.0984X0.0276*%
%ADD39C,0.0100*%
D10*
X19774Y42112D02*
D03*
Y42862D02*
D03*
X20694Y42492D02*
D03*
X18746Y42324D02*
D03*
Y41574D02*
D03*
X17826Y41944D02*
D03*
X20672Y37670D02*
D03*
Y38420D02*
D03*
X21592Y38050D02*
D03*
D11*
X18061Y40484D02*
D03*
X18907D02*
D03*
X21193Y25524D02*
D03*
X22039D02*
D03*
X21929Y27424D02*
D03*
X21083D02*
D03*
X25943Y29124D02*
D03*
X25097D02*
D03*
X37071Y36362D02*
D03*
X37917D02*
D03*
D12*
X20904Y41393D02*
D03*
Y40547D02*
D03*
X19838Y43727D02*
D03*
Y44573D02*
D03*
X18014Y44497D02*
D03*
Y43651D02*
D03*
X18868Y38575D02*
D03*
Y37729D02*
D03*
X17984Y38505D02*
D03*
Y37659D02*
D03*
X27138Y29967D02*
D03*
Y30813D02*
D03*
X30044Y28259D02*
D03*
Y29105D02*
D03*
X28904Y29107D02*
D03*
Y28261D02*
D03*
D13*
X19946Y26564D02*
D03*
X20696D02*
D03*
X20326Y25644D02*
D03*
D14*
X25342Y33762D02*
D03*
X25539D02*
D03*
X25735D02*
D03*
X25932D02*
D03*
X26129D02*
D03*
X26326D02*
D03*
X26523D02*
D03*
X26720D02*
D03*
X26917D02*
D03*
X27113D02*
D03*
X27310D02*
D03*
X27507D02*
D03*
X27704D02*
D03*
X27901D02*
D03*
X28098D02*
D03*
X28294D02*
D03*
X28491D02*
D03*
X28688D02*
D03*
X28885D02*
D03*
X29082D02*
D03*
X29279D02*
D03*
X29476D02*
D03*
X29672D02*
D03*
X29869D02*
D03*
X30066D02*
D03*
X30263D02*
D03*
X30460D02*
D03*
X30657D02*
D03*
X30854D02*
D03*
X31050D02*
D03*
X31247D02*
D03*
X31444D02*
D03*
X31641D02*
D03*
X31838D02*
D03*
X32035D02*
D03*
X32232D02*
D03*
X32428D02*
D03*
X32625D02*
D03*
X32822D02*
D03*
X33019D02*
D03*
X25342Y32009D02*
D03*
X25539D02*
D03*
X25735D02*
D03*
X25932D02*
D03*
X26129D02*
D03*
X26326D02*
D03*
X26523D02*
D03*
X26720D02*
D03*
X26917D02*
D03*
X27113D02*
D03*
X27310D02*
D03*
X27507D02*
D03*
X27704D02*
D03*
X27901D02*
D03*
X28098D02*
D03*
X28294D02*
D03*
X28491D02*
D03*
X28688D02*
D03*
X28885D02*
D03*
X29082D02*
D03*
X29279D02*
D03*
X29476D02*
D03*
X29672D02*
D03*
X29869D02*
D03*
X30066D02*
D03*
X30263D02*
D03*
X30460D02*
D03*
X30657D02*
D03*
X30854D02*
D03*
X31050D02*
D03*
X31247D02*
D03*
X31444D02*
D03*
X31641D02*
D03*
X31838D02*
D03*
X32035D02*
D03*
X32232D02*
D03*
X32428D02*
D03*
X32625D02*
D03*
X32822D02*
D03*
X33019D02*
D03*
D15*
X37600Y24778D02*
D03*
D16*
X38939Y21018D02*
D03*
X38269D02*
D03*
X37600D02*
D03*
X36931D02*
D03*
X36261D02*
D03*
M02*
