%FSLAX24Y24*%
%MOIN*%
G70*
G01*
G75*
G04 Layer_Color=16711935*
%ADD10R,0.0650X0.0315*%
%ADD11R,0.0571X0.0512*%
%ADD12R,0.0512X0.0571*%
%ADD13R,0.0315X0.0650*%
%ADD14R,0.0079X0.0827*%
%ADD15R,0.4134X0.3386*%
%ADD16R,0.0433X0.1378*%
%ADD17C,0.0079*%
%ADD18C,0.0098*%
%ADD19C,0.0118*%
%ADD20C,0.0787*%
%ADD21C,0.1142*%
%ADD22R,0.0591X0.0591*%
%ADD23C,0.0591*%
%ADD24C,0.0984*%
%ADD25O,0.1004X0.0984*%
%ADD26C,0.0630*%
%ADD27C,0.0669*%
%ADD28C,0.0665*%
%ADD29R,0.0665X0.0665*%
%ADD30C,0.1874*%
%ADD31C,0.0512*%
%ADD32C,0.3307*%
%ADD33C,0.0236*%
%ADD34R,0.0472X0.0709*%
%ADD35R,0.0472X0.0650*%
%ADD36R,0.0512X0.0591*%
%ADD37O,0.0276X0.0984*%
%ADD38O,0.0984X0.0276*%
%ADD39C,0.0100*%
%ADD40R,0.0730X0.0395*%
%ADD41R,0.0651X0.0592*%
%ADD42R,0.0592X0.0651*%
%ADD43R,0.0395X0.0730*%
%ADD44R,0.0159X0.0907*%
%ADD45R,0.4214X0.3466*%
%ADD46R,0.0513X0.1458*%
%ADD47C,0.0867*%
%ADD48C,0.1222*%
%ADD49R,0.0671X0.0671*%
%ADD50C,0.0671*%
%ADD51C,0.1064*%
%ADD52O,0.1084X0.1064*%
%ADD53C,0.0710*%
%ADD54C,0.0749*%
%ADD55C,0.0745*%
%ADD56R,0.0745X0.0745*%
%ADD57C,0.1954*%
%ADD58C,0.0592*%
%ADD59C,0.3387*%
%ADD60C,0.0316*%
%ADD61R,0.0552X0.0789*%
%ADD62R,0.0552X0.0730*%
%ADD63R,0.0592X0.0671*%
%ADD64O,0.0356X0.1064*%
%ADD65O,0.1064X0.0356*%
%ADD66C,0.0039*%
D18*
X18291Y33614D02*
Y34166D01*
X19473Y33614D02*
Y34166D01*
X18291D02*
X19473D01*
X18291Y33614D02*
X19473D01*
X20444Y29587D02*
X20996D01*
X20444Y28405D02*
X20996D01*
Y29587D01*
X20444Y28405D02*
Y29587D01*
X18740Y27095D02*
X19292D01*
X18740Y25913D02*
X19292D01*
Y27095D01*
X18740Y25913D02*
Y27095D01*
X39895Y35630D02*
Y36182D01*
X38713Y35630D02*
Y36182D01*
Y35630D02*
X39895D01*
X38713Y36182D02*
X39895D01*
D66*
X34088Y32165D02*
G03*
X34088Y32165I-197J0D01*
G01*
X19744Y30590D02*
G03*
X19744Y30590I-197J0D01*
G01*
X19958Y41901D02*
Y43083D01*
X20510Y41901D02*
Y43083D01*
X19958D02*
X20510D01*
X19958Y41901D02*
X20510D01*
X18061Y40208D02*
X18907D01*
X18061Y40760D02*
X18907D01*
Y40208D02*
Y40760D01*
X18061Y40208D02*
Y40760D01*
X20628Y40547D02*
Y41393D01*
X21180Y40547D02*
Y41393D01*
X20628Y40547D02*
X21180D01*
X20628Y41393D02*
X21180D01*
X19562Y44573D02*
X20114D01*
X19562Y43727D02*
X20114D01*
Y44573D01*
X19562Y43727D02*
Y44573D01*
X17738Y43651D02*
Y44497D01*
X18290Y43651D02*
Y44497D01*
X17738Y43651D02*
X18290D01*
X17738Y44497D02*
X18290D01*
X18562Y41353D02*
Y42535D01*
X18010Y41353D02*
Y42535D01*
Y41353D02*
X18562D01*
X18010Y42535D02*
X18562D01*
X23670Y37557D02*
X24222D01*
X23670Y36711D02*
X24222D01*
X23670D02*
Y37557D01*
X24222Y36711D02*
Y37557D01*
X21193Y25248D02*
X22039D01*
X21193Y25800D02*
X22039D01*
Y25248D02*
Y25800D01*
X21193Y25248D02*
Y25800D01*
X21083Y27700D02*
X21929D01*
X21083Y27148D02*
X21929D01*
X21083D02*
Y27700D01*
X21929Y27148D02*
Y27700D01*
X19735Y26380D02*
X20917D01*
X19735Y25828D02*
X20917D01*
Y26380D01*
X19735Y25828D02*
Y26380D01*
X33796Y29775D02*
Y30621D01*
X34348Y29775D02*
Y30621D01*
X33796D02*
X34348D01*
X33796Y29775D02*
X34348D01*
X30048Y32291D02*
Y33137D01*
X29496Y32291D02*
Y33137D01*
Y32291D02*
X30048D01*
X29496Y33137D02*
X30048D01*
X35755Y34086D02*
Y34638D01*
X34909Y34086D02*
Y34638D01*
X35755D01*
X34909Y34086D02*
X35755D01*
X31535Y30102D02*
Y30654D01*
X32381Y30102D02*
Y30654D01*
X31535Y30102D02*
X32381D01*
X31535Y30654D02*
X32381D01*
X34668Y35075D02*
X35514D01*
X34668Y35627D02*
X35514D01*
X34668Y35075D02*
Y35627D01*
X35514Y35075D02*
Y35627D01*
X30993Y36148D02*
Y36700D01*
X31839Y36148D02*
Y36700D01*
X30993Y36148D02*
X31839D01*
X30993Y36700D02*
X31839D01*
X33095Y36788D02*
X33941D01*
X33095Y36236D02*
X33941D01*
Y36788D01*
X33095Y36236D02*
Y36788D01*
X29491Y36156D02*
Y36708D01*
X28645Y36156D02*
Y36708D01*
X29491D01*
X28645Y36156D02*
X29491D01*
X20999Y34222D02*
X21845D01*
X20999Y34774D02*
X21845D01*
X20999Y34222D02*
Y34774D01*
X21845Y34222D02*
Y34774D01*
X18592Y37729D02*
X19144D01*
X18592Y38575D02*
X19144D01*
X18592Y37729D02*
Y38575D01*
X19144Y37729D02*
Y38575D01*
X17708Y37659D02*
X18260D01*
X17708Y38505D02*
X18260D01*
X17708Y37659D02*
Y38505D01*
X18260Y37659D02*
Y38505D01*
X30309Y31811D02*
Y33386D01*
X34246Y31811D02*
Y33386D01*
X30309D02*
X34246D01*
X30309Y31811D02*
X34246D01*
X19193Y30236D02*
Y32204D01*
X20767Y30236D02*
Y32204D01*
X19193Y30236D02*
X20767D01*
X19193Y32204D02*
X20767D01*
X39647Y22101D02*
Y25802D01*
X35553Y22101D02*
Y25802D01*
X39647D01*
X35553Y22101D02*
X39647D01*
X20856Y37459D02*
Y38641D01*
X21408Y37459D02*
Y38641D01*
X20856D02*
X21408D01*
X20856Y37459D02*
X21408D01*
X17256Y34393D02*
X17808D01*
X17256Y35239D02*
X17808D01*
Y34393D02*
Y35239D01*
X17256Y34393D02*
Y35239D01*
X17666Y28249D02*
Y29095D01*
X18218Y28249D02*
Y29095D01*
X17666D02*
X18218D01*
X17666Y28249D02*
X18218D01*
X17318Y33465D02*
X17870D01*
X17318Y32619D02*
X17870D01*
X17318D02*
Y33465D01*
X17870Y32619D02*
Y33465D01*
X17318Y30861D02*
Y31707D01*
X17870Y30861D02*
Y31707D01*
X17318D02*
X17870D01*
X17318Y30861D02*
X17870D01*
X26862Y30813D02*
X27414D01*
X26862Y29967D02*
X27414D01*
Y30813D01*
X26862Y29967D02*
Y30813D01*
X30320Y28259D02*
Y29105D01*
X29768Y28259D02*
Y29105D01*
X30320D01*
X29768Y28259D02*
X30320D01*
X28628Y28261D02*
X29180D01*
X28628Y29107D02*
X29180D01*
X28628Y28261D02*
Y29107D01*
X29180Y28261D02*
Y29107D01*
X25097Y29400D02*
X25943D01*
X25097Y28848D02*
X25943D01*
X25097D02*
Y29400D01*
X25943Y28848D02*
Y29400D01*
X27023Y34724D02*
Y35276D01*
X26177Y34724D02*
Y35276D01*
X27023D01*
X26177Y34724D02*
X27023D01*
X21620Y26651D02*
Y27497D01*
X21068Y26651D02*
Y27497D01*
Y26651D02*
X21620D01*
X21068Y27497D02*
X21620D01*
X38724Y22177D02*
X39276D01*
X38724Y23023D02*
X39276D01*
Y22177D02*
Y23023D01*
X38724Y22177D02*
Y23023D01*
X36377Y22476D02*
X37223D01*
X36377Y21924D02*
X37223D01*
Y22476D01*
X36377Y21924D02*
Y22476D01*
X37924Y22177D02*
X38476D01*
X37924Y23023D02*
X38476D01*
Y22177D02*
Y23023D01*
X37924Y22177D02*
Y23023D01*
X41676Y33233D02*
Y34079D01*
X42228Y33233D02*
Y34079D01*
X41676D02*
X42228D01*
X41676Y33233D02*
X42228D01*
X37917Y36086D02*
Y36638D01*
X37071Y36086D02*
Y36638D01*
Y36086D02*
X37917D01*
X37071Y36638D02*
X37917D01*
X39411Y34696D02*
X40257D01*
X39411Y34144D02*
X40257D01*
Y34696D01*
X39411Y34144D02*
Y34696D01*
X40124Y21177D02*
X40676D01*
X40124Y22023D02*
X40676D01*
Y21177D02*
Y22023D01*
X40124Y21177D02*
Y22023D01*
X34698Y19565D02*
Y20411D01*
X34146Y19565D02*
Y20411D01*
Y19565D02*
X34698D01*
X34146Y20411D02*
X34698D01*
M02*
