%FSLAX24Y24*%
%MOIN*%
G70*
G01*
G75*
G04 Layer_Physical_Order=1*
G04 Layer_Color=255*
%ADD10R,0.0650X0.0315*%
%ADD11R,0.0571X0.0512*%
%ADD12R,0.0512X0.0571*%
%ADD13R,0.0315X0.0650*%
%ADD14R,0.0079X0.0827*%
%ADD15R,0.4134X0.3386*%
%ADD16R,0.0433X0.1378*%
%ADD17C,0.0079*%
%ADD18C,0.0098*%
%ADD19C,0.0118*%
%ADD20C,0.0787*%
%ADD21C,0.1142*%
%ADD22R,0.0591X0.0591*%
%ADD23C,0.0591*%
%ADD24C,0.0984*%
%ADD25O,0.1004X0.0984*%
%ADD26C,0.0630*%
%ADD27C,0.0669*%
%ADD28C,0.0665*%
%ADD29R,0.0665X0.0665*%
%ADD30C,0.1874*%
%ADD31C,0.0512*%
%ADD32C,0.3307*%
%ADD33C,0.0236*%
G36*
X19845Y38036D02*
X20032D01*
Y37948D01*
Y37749D01*
X20672D01*
Y37670D01*
X20751D01*
Y37198D01*
X21312D01*
Y37578D01*
X22232D01*
Y37666D01*
X23051D01*
X23696Y37021D01*
Y33617D01*
X23533Y33508D01*
X23393Y33566D01*
Y32639D01*
Y31713D01*
X23733Y31854D01*
X23809Y31823D01*
X23809Y31823D01*
Y31823D01*
X24049Y31583D01*
X24320Y31470D01*
X24544D01*
X24815Y31583D01*
X24987Y31511D01*
Y31281D01*
X24987Y31281D01*
X24987Y31281D01*
X24960Y31214D01*
X23360D01*
X23089Y31101D01*
X22689Y30701D01*
X22576Y30430D01*
Y28520D01*
X22689Y28249D01*
X23179Y27759D01*
X23194Y27752D01*
X23270Y27571D01*
X22958Y26819D01*
X24281D01*
Y26661D01*
X22958D01*
X22926Y26740D01*
X22762Y26630D01*
X22530Y26863D01*
Y27995D01*
X20482D01*
Y27204D01*
X20034D01*
Y28451D01*
X21841Y30259D01*
X21954Y30530D01*
Y30786D01*
X22017Y30940D01*
X21886Y31256D01*
X21570Y31387D01*
X21254Y31256D01*
X21123Y30940D01*
X21186Y30786D01*
Y30689D01*
X19829Y29332D01*
X19560Y29443D01*
X19244Y29312D01*
X19180Y29158D01*
X19065Y29044D01*
X18814D01*
X18660Y29107D01*
X18344Y28976D01*
X18213Y28660D01*
X18344Y28344D01*
X18660Y28213D01*
X18814Y28276D01*
X19224D01*
X19266Y28248D01*
Y24818D01*
X19272Y24804D01*
X19197Y24622D01*
X18949Y24519D01*
D01*
Y24519D01*
X18883D01*
Y24519D01*
X18495Y24680D01*
Y24052D01*
X18416D01*
Y23973D01*
X17788D01*
X17949Y23585D01*
D01*
Y23585D01*
Y23585D01*
D01*
X17949Y23519D01*
X17949D01*
X17788Y23131D01*
X18416D01*
Y23052D01*
X18495D01*
Y22424D01*
X18836Y22565D01*
X19000Y22456D01*
Y22367D01*
X17588Y21782D01*
X17123Y20660D01*
X16930Y20699D01*
Y35596D01*
X17024Y35615D01*
X17176Y35490D01*
Y33430D01*
X17176Y33430D01*
X17176Y33430D01*
X17289Y33159D01*
X19590Y30858D01*
X19654Y30704D01*
X19970Y30573D01*
X20286Y30704D01*
X20417Y31020D01*
X20286Y31336D01*
X20132Y31400D01*
X18861Y32671D01*
X18947Y32880D01*
X18816Y33196D01*
X18662Y33260D01*
X18368Y33555D01*
Y37058D01*
X18555D01*
Y37128D01*
X19439D01*
Y37975D01*
Y38014D01*
X19481Y38056D01*
X19603Y38137D01*
X19845Y38036D01*
D02*
G37*
G36*
X39062Y33725D02*
X39352Y33423D01*
Y33373D01*
Y32760D01*
X39330Y32737D01*
X39122Y32520D01*
X39118D01*
X38708Y32515D01*
Y28378D01*
X38486Y28140D01*
X38449Y28141D01*
X38254Y27822D01*
X38249Y27821D01*
X38249Y27821D01*
X38249Y27821D01*
X37341D01*
X37055Y28157D01*
X36994Y28229D01*
Y29603D01*
Y29647D01*
X36790Y29888D01*
X32832D01*
X32740Y29987D01*
X32648Y30087D01*
Y30980D01*
X32195Y31467D01*
Y31498D01*
X32172D01*
Y32010D01*
X32310D01*
Y31498D01*
X32350D01*
Y32010D01*
X32507D01*
Y31498D01*
X32546D01*
Y32010D01*
X32704D01*
Y31498D01*
X32743D01*
Y32010D01*
X32901D01*
Y31498D01*
X32940D01*
Y32010D01*
X33019D01*
Y32088D01*
X33157D01*
Y32521D01*
X33157D01*
Y32539D01*
X33296Y32679D01*
X33488D01*
X33941Y32192D01*
Y31676D01*
X34310Y31278D01*
X37452D01*
X37778Y31629D01*
X37784Y31636D01*
Y33384D01*
X37806Y33407D01*
Y33475D01*
X37826Y33496D01*
X38080Y33760D01*
X39028D01*
X39062Y33725D01*
D02*
G37*
G36*
X39817Y20614D02*
X39652Y20449D01*
X39470Y20524D01*
Y20939D01*
X38938D01*
Y21018D01*
X38860D01*
Y22022D01*
X38544D01*
X38540Y22031D01*
X38148Y22423D01*
X38126Y22476D01*
X37883Y22577D01*
X37922Y22770D01*
X39817D01*
Y20614D01*
D02*
G37*
G36*
X42521Y39834D02*
X42490Y39813D01*
Y39594D01*
X42298Y39514D01*
X41982Y39645D01*
X41666Y39514D01*
X41535Y39198D01*
X41666Y38882D01*
X41871Y38796D01*
Y38600D01*
X41666Y38514D01*
X41567Y38277D01*
X41982D01*
Y38198D01*
X42061D01*
Y37783D01*
X42298Y37882D01*
X42490Y37802D01*
Y37352D01*
X42302Y37274D01*
X41986Y37405D01*
X41670Y37274D01*
X41539Y36958D01*
X41670Y36642D01*
X41875Y36556D01*
Y36360D01*
X41670Y36274D01*
X41539Y35958D01*
X41586Y35843D01*
X41477Y35679D01*
X40430D01*
X40428Y35684D01*
X40428Y35684D01*
X40428Y35684D01*
X40428Y35684D01*
X40428D01*
X40423Y35696D01*
X40257Y35764D01*
X40246Y35760D01*
X40246Y35760D01*
Y35760D01*
D01*
D01*
Y35760D01*
X40091Y35696D01*
X40023Y35530D01*
X40091Y35364D01*
X40246Y35300D01*
Y35300D01*
D01*
D01*
X40246Y35300D01*
Y35300D01*
X40257Y35296D01*
X40423Y35364D01*
X40428Y35376D01*
X40428D01*
X40428Y35376D01*
X40428Y35376D01*
X40428Y35376D01*
X40430Y35381D01*
X41558D01*
X41558Y35381D01*
X41663Y35425D01*
X41819Y35580D01*
X41986Y35511D01*
X42302Y35642D01*
X42490Y35564D01*
Y35345D01*
X42524Y35322D01*
X42533Y20030D01*
X42369Y19921D01*
X42194Y19993D01*
X42191Y20000D01*
X42191Y20000D01*
X42191D01*
Y28760D01*
X42189Y28765D01*
Y29173D01*
X42145Y29280D01*
X42110Y29391D01*
X42084Y29422D01*
X42084D01*
Y29422D01*
X41840Y29716D01*
X41825Y29724D01*
X41819Y29739D01*
X41712Y29783D01*
X41609Y29837D01*
X41593Y29833D01*
X41578Y29839D01*
X40198D01*
X40183Y29833D01*
X40167Y29837D01*
X40064Y29783D01*
X40037Y29772D01*
X39874Y29882D01*
Y32882D01*
X40067Y32920D01*
X40132Y32763D01*
X40490Y32615D01*
Y33200D01*
X40647D01*
Y32615D01*
X41005Y32763D01*
X41013Y32781D01*
X41195Y32857D01*
X41367Y32785D01*
X41684Y32916D01*
X41815Y33233D01*
X41684Y33549D01*
X41529Y33613D01*
X40538Y34605D01*
X38251Y34610D01*
Y36008D01*
X38301D01*
Y36213D01*
X39087D01*
X39144Y36074D01*
X39310Y36006D01*
X39476Y36074D01*
X39540Y36229D01*
Y36229D01*
X39544Y36240D01*
X39476Y36406D01*
D01*
D01*
D01*
X39476D01*
X39472Y36407D01*
D01*
X39466Y36410D01*
X39310Y36474D01*
X39299Y36470D01*
D01*
Y36470D01*
X39293Y36467D01*
X39188Y36511D01*
X39188Y36511D01*
X38301D01*
Y36716D01*
X38251D01*
Y36933D01*
X36752D01*
X36677Y37115D01*
X38251Y38689D01*
Y39020D01*
X38339Y39108D01*
X39812D01*
X39875Y38956D01*
X40176Y38831D01*
X40478Y38956D01*
X40602Y39257D01*
X40478Y39558D01*
X40176Y39683D01*
X39875Y39558D01*
X39812Y39406D01*
X38277D01*
D01*
X38277Y39406D01*
X38277Y39406D01*
X38251Y39424D01*
Y39630D01*
X38006Y39528D01*
X33878Y35400D01*
X33724Y35336D01*
X33620Y35086D01*
Y34861D01*
X33456Y34752D01*
X33330Y34804D01*
X33164Y34736D01*
X33096Y34570D01*
X33151Y34437D01*
X33057Y34297D01*
X33001Y34274D01*
X33098D01*
Y33762D01*
X32940D01*
Y34274D01*
X32901D01*
Y33762D01*
X32743D01*
Y34274D01*
X32704D01*
Y33762D01*
X32546D01*
Y34274D01*
X32507D01*
Y33762D01*
X32350D01*
Y34274D01*
X32310D01*
Y33762D01*
X32172D01*
Y34274D01*
X32220D01*
Y34802D01*
X32346Y34854D01*
X32414Y35020D01*
X32346Y35186D01*
X32220Y35238D01*
Y35640D01*
X31759D01*
X31488Y35527D01*
X31415Y35455D01*
X31234Y35530D01*
Y42600D01*
X31121Y42871D01*
X30282Y43711D01*
X30218Y43865D01*
X29901Y43996D01*
X29585Y43865D01*
X29454Y43549D01*
X29585Y43232D01*
X29739Y43168D01*
X30466Y42441D01*
Y35756D01*
X30303Y35647D01*
X30295Y35650D01*
X28539D01*
X28268Y35537D01*
X28025Y35295D01*
X27844Y35370D01*
Y37601D01*
X28412Y38169D01*
X28566Y38233D01*
X28581Y38269D01*
X28790Y38183D01*
X29106Y38314D01*
X29237Y38630D01*
X29106Y38946D01*
X28952Y39010D01*
X22671Y45291D01*
X22400Y45404D01*
X17760D01*
X17489Y45291D01*
X17349Y45151D01*
X17236Y44880D01*
Y42416D01*
X17186D01*
Y41472D01*
X17338D01*
X17413Y41290D01*
X17359Y41235D01*
X17246Y40964D01*
Y38505D01*
X17359Y38234D01*
X17413Y38212D01*
Y37905D01*
Y37058D01*
X17600D01*
Y36134D01*
X17560Y36107D01*
X17560Y36107D01*
Y36107D01*
X17244Y35976D01*
X17123Y35685D01*
X16930Y35724D01*
Y45676D01*
X42518D01*
X42521Y39834D01*
D02*
G37*
G36*
X35946Y21097D02*
X36262D01*
Y20939D01*
X35946D01*
Y20330D01*
X35090D01*
X35088Y20328D01*
X34198D01*
X33788Y19918D01*
X33666Y19796D01*
Y19156D01*
Y19138D01*
X33438Y18910D01*
X33382Y18854D01*
X28152D01*
X27900Y19106D01*
X27896Y19110D01*
Y20162D01*
Y20188D01*
X28226Y20518D01*
X28414Y20706D01*
X33030D01*
X33662Y21338D01*
X34024Y21700D01*
X35946D01*
Y21097D01*
D02*
G37*
G36*
X42079Y18359D02*
X42370Y18480D01*
X42476Y18409D01*
X42496Y18213D01*
X42395Y18112D01*
X37108D01*
X37033Y18294D01*
X37088Y18349D01*
X37115Y18415D01*
X37333Y18633D01*
X37333Y18633D01*
X37611Y18911D01*
X41102D01*
X41225Y18962D01*
X41382Y18582D01*
X41921Y18359D01*
Y19200D01*
X42079D01*
Y18359D01*
D02*
G37*
G36*
X41822Y29204D02*
X41848Y29173D01*
Y28770D01*
Y28765D01*
X41850Y28760D01*
Y20215D01*
X41850Y20215D01*
X41106Y19485D01*
X37464D01*
X37496Y19462D01*
Y19436D01*
X37107Y19106D01*
X36807Y18852D01*
X36648Y18968D01*
X36711Y19121D01*
X35478D01*
X35528Y19001D01*
Y18854D01*
X35349Y18771D01*
X35212Y18888D01*
X35200Y18897D01*
Y19685D01*
Y19731D01*
X35330Y19841D01*
Y19967D01*
X35373Y20008D01*
X35484Y20118D01*
X35658D01*
X35675Y20132D01*
X36368D01*
X36469Y20231D01*
X36576D01*
Y20231D01*
X36576D01*
X36576Y20231D01*
X36616D01*
Y20231D01*
X36852D01*
Y21018D01*
X37009D01*
Y20231D01*
X37246D01*
Y20231D01*
X37246D01*
X37246Y20231D01*
X37285D01*
Y20231D01*
X37475D01*
X37495Y20185D01*
X37655Y20025D01*
X37655Y20025D01*
X37760Y19981D01*
X38749D01*
X38749Y19981D01*
X38854Y20025D01*
X38930Y20100D01*
X39579D01*
X39606Y20127D01*
X39652Y20108D01*
X39715Y20134D01*
X39782D01*
X39830Y20182D01*
X39893Y20208D01*
X40058Y20373D01*
X40157Y20614D01*
Y20668D01*
X40166Y20677D01*
Y26611D01*
X40187Y26631D01*
X39992Y26823D01*
X39980D01*
Y27766D01*
X39970Y27764D01*
X39750Y28029D01*
Y28422D01*
Y28959D01*
X40158Y29450D01*
X40198Y29498D01*
X41578D01*
X41822Y29204D01*
D02*
G37*
G36*
X33055Y27443D02*
X32797Y26819D01*
X35442D01*
X35316Y27123D01*
X35425Y27286D01*
X39220D01*
X39466Y27388D01*
X39630Y27279D01*
Y26786D01*
X37679D01*
Y24778D01*
Y22770D01*
X37698D01*
X37737Y22577D01*
X37494Y22476D01*
X37363Y22160D01*
X37363Y22160D01*
X37363Y22160D01*
X37270Y22022D01*
X35992D01*
X35946Y22041D01*
X34024D01*
X33854Y21970D01*
X33783Y21941D01*
X33640Y21798D01*
X33447Y21837D01*
X33443Y21847D01*
X33085Y21996D01*
Y21410D01*
X33006D01*
Y21332D01*
X32421D01*
X32471Y21211D01*
X32362Y21047D01*
X28414D01*
X28244Y20976D01*
X28173Y20947D01*
X27985Y20759D01*
X27985Y20759D01*
X27655Y20429D01*
X27559Y20198D01*
X27363Y20198D01*
X27298Y20355D01*
X26834Y20547D01*
Y19813D01*
Y19079D01*
X27298Y19271D01*
X27362Y19426D01*
X27555Y19388D01*
Y19110D01*
X27605Y18989D01*
X27655Y18869D01*
X27659Y18865D01*
X27659Y18865D01*
X27911Y18613D01*
X28152Y18513D01*
X33382D01*
X33503Y18563D01*
X33623Y18613D01*
X33679Y18669D01*
X33679Y18669D01*
X33907Y18897D01*
X34007Y19138D01*
Y19156D01*
Y19655D01*
X34029Y19677D01*
X34029Y19677D01*
X34339Y19987D01*
X34740D01*
X34849Y19823D01*
X34773Y19640D01*
Y19584D01*
Y18618D01*
X34873Y18377D01*
X34885Y18365D01*
X34885Y18365D01*
X34956Y18294D01*
X34881Y18112D01*
X19520D01*
X19481Y18305D01*
X20601Y18769D01*
X21193Y20197D01*
X19094D01*
Y20354D01*
X21193D01*
X20601Y21782D01*
X19511Y22234D01*
Y22431D01*
X19883Y22585D01*
X19883Y22585D01*
X19949D01*
Y22585D01*
X20416Y22391D01*
X20883Y22585D01*
X20883Y22585D01*
X20949D01*
Y22585D01*
X21416Y22391D01*
X21883Y22585D01*
X21883Y22585D01*
X21949D01*
Y22585D01*
X22416Y22391D01*
X22883Y22585D01*
X23077Y23052D01*
X22958Y23339D01*
X23026Y23442D01*
X23026D01*
Y24662D01*
X22423D01*
Y24953D01*
X22640D01*
Y25006D01*
X25267D01*
X25538Y25119D01*
X26677Y26258D01*
X26863Y26181D01*
Y26181D01*
X26863Y26181D01*
X27069Y25685D01*
X27564Y25480D01*
X28060Y25685D01*
X28060Y25685D01*
X28159D01*
Y25685D01*
X28655Y25480D01*
X29150Y25685D01*
X29150Y25685D01*
X29250D01*
Y25685D01*
X29745Y25480D01*
X30241Y25685D01*
X30241Y25685D01*
X30340D01*
Y25685D01*
X30836Y25480D01*
X31332Y25685D01*
X31537Y26181D01*
X31369Y26586D01*
X31381Y26598D01*
X31361Y26607D01*
X31332Y26677D01*
X31302Y26689D01*
Y27299D01*
X31381D01*
Y27378D01*
X32049D01*
X32023Y27443D01*
X32132Y27606D01*
X32946D01*
X33055Y27443D01*
D02*
G37*
%LPC*%
G36*
X39470Y22022D02*
X39017D01*
Y21097D01*
X39470D01*
Y22022D01*
D02*
G37*
G36*
X32927Y21996D02*
X32569Y21847D01*
X32421Y21489D01*
X32927D01*
Y21996D01*
D02*
G37*
G36*
X37521Y26786D02*
X35456D01*
X35474Y26740D01*
X35442Y26661D01*
X34198D01*
Y25418D01*
X35054Y25772D01*
X35218Y25663D01*
Y24857D01*
X37521D01*
Y26786D01*
D02*
G37*
G36*
X34041Y26661D02*
X32797D01*
X33161Y25782D01*
X34041Y25418D01*
Y26661D01*
D02*
G37*
G36*
X18337Y24680D02*
X17949Y24519D01*
X17788Y24131D01*
X18337D01*
Y24680D01*
D02*
G37*
G36*
Y22973D02*
X17788D01*
X17949Y22585D01*
X18337Y22424D01*
Y22973D01*
D02*
G37*
G36*
X37521Y24699D02*
X35218D01*
Y22770D01*
X37521D01*
Y24699D01*
D02*
G37*
G36*
X36016Y19811D02*
X35633Y19652D01*
X35478Y19279D01*
X36016D01*
Y19811D01*
D02*
G37*
G36*
X36173D02*
Y19279D01*
X36711D01*
X36650Y19426D01*
X36556Y19652D01*
X36173Y19811D01*
D02*
G37*
G36*
X28645Y19734D02*
X28224D01*
X28347Y19436D01*
X28645Y19313D01*
Y19734D01*
D02*
G37*
G36*
X26676D02*
X26021D01*
X26213Y19271D01*
X26676Y19079D01*
Y19734D01*
D02*
G37*
G36*
X32927Y19363D02*
X32676D01*
X32750Y19186D01*
X32927Y19112D01*
Y19363D01*
D02*
G37*
G36*
X33336D02*
X33085D01*
Y19112D01*
X33262Y19186D01*
X33336Y19363D01*
D02*
G37*
G36*
X26676Y20547D02*
X26213Y20355D01*
X26021Y19892D01*
X26676D01*
Y20547D01*
D02*
G37*
G36*
X28645Y20313D02*
X28347Y20190D01*
X28224Y19892D01*
X28645D01*
Y20313D01*
D02*
G37*
G36*
X28802D02*
Y19892D01*
X29224D01*
X29100Y20190D01*
X28802Y20313D01*
D02*
G37*
G36*
X29224Y19734D02*
X28802D01*
Y19313D01*
X29100Y19436D01*
X29224Y19734D01*
D02*
G37*
G36*
X32927Y19772D02*
X32750Y19698D01*
X32676Y19521D01*
X32927D01*
Y19772D01*
D02*
G37*
G36*
X33085D02*
Y19521D01*
X33336D01*
X33262Y19698D01*
X33085Y19772D01*
D02*
G37*
G36*
X38679Y33530D02*
Y33279D01*
X38930D01*
X38856Y33456D01*
X38679Y33530D01*
D02*
G37*
G36*
X20593Y37591D02*
X20032D01*
Y37198D01*
X20593D01*
Y37591D01*
D02*
G37*
G36*
X41903Y38119D02*
X41567D01*
X41666Y37882D01*
X41903Y37783D01*
Y38119D01*
D02*
G37*
G36*
X38521Y33121D02*
X38270D01*
X38344Y32944D01*
X38521Y32870D01*
Y33121D01*
D02*
G37*
G36*
X38930D02*
X38679D01*
Y32870D01*
X38856Y32944D01*
X38930Y33121D01*
D02*
G37*
G36*
X38521Y33530D02*
X38344Y33456D01*
X38270Y33279D01*
X38521D01*
Y33530D01*
D02*
G37*
G36*
X39348Y43214D02*
X38092D01*
X38222Y42899D01*
X38092Y42584D01*
X39348D01*
X39217Y42899D01*
X39348Y43214D01*
D02*
G37*
G36*
X38641Y43920D02*
X38253Y43760D01*
X38092Y43371D01*
X38641D01*
Y43920D01*
D02*
G37*
G36*
X38798D02*
Y43371D01*
X39348D01*
X39187Y43760D01*
X38798Y43920D01*
D02*
G37*
G36*
X40176Y40803D02*
X39830Y40660D01*
X39891D01*
X39930Y40467D01*
X39875Y40444D01*
X39750Y40143D01*
X39875Y39842D01*
X40176Y39717D01*
X40478Y39842D01*
X40602Y40143D01*
X40478Y40444D01*
X40423Y40467D01*
X40461Y40660D01*
X40523D01*
X40176Y40803D01*
D02*
G37*
G36*
X38641Y42426D02*
X38092D01*
X38253Y42038D01*
X38641Y41877D01*
Y42426D01*
D02*
G37*
G36*
X39348D02*
X38798D01*
Y41877D01*
X39187Y42038D01*
X39348Y42426D01*
D02*
G37*
G36*
X40521Y28521D02*
X40164D01*
X40174Y28498D01*
D01*
X40269Y28269D01*
X40521Y28164D01*
Y28521D01*
D02*
G37*
G36*
X41036D02*
X40679D01*
Y28164D01*
X40931Y28269D01*
X41036Y28521D01*
D02*
G37*
G36*
X37765Y29036D02*
X37513Y28931D01*
X37408Y28679D01*
X37765D01*
Y29036D01*
D02*
G37*
G36*
X32049Y27220D02*
X31460D01*
Y26631D01*
X31877Y26804D01*
X32049Y27220D01*
D02*
G37*
G36*
X37765Y28521D02*
X37408D01*
X37513Y28269D01*
X37765Y28164D01*
Y28521D01*
D02*
G37*
G36*
X38280D02*
X37923D01*
Y28164D01*
X38176Y28269D01*
X38280Y28521D01*
D02*
G37*
G36*
X33157Y31931D02*
X33098D01*
Y31498D01*
X33157D01*
Y31931D01*
D02*
G37*
G36*
X23235Y32561D02*
X22388D01*
X22636Y31961D01*
X23235Y31713D01*
Y32561D01*
D02*
G37*
G36*
Y33566D02*
X22636Y33317D01*
X22388Y32718D01*
X23235D01*
Y33566D01*
D02*
G37*
G36*
X37923Y29036D02*
Y28679D01*
X38280D01*
X38176Y28931D01*
X37923Y29036D01*
D02*
G37*
G36*
X40521D02*
X40269Y28931D01*
X40164Y28679D01*
X40521D01*
Y29036D01*
D02*
G37*
G36*
X40679D02*
Y28679D01*
X41036D01*
X40931Y28931D01*
X40679Y29036D01*
D02*
G37*
%LPD*%
D10*
X19774Y42112D02*
D03*
Y42862D02*
D03*
X20694Y42492D02*
D03*
X18746Y42324D02*
D03*
Y41574D02*
D03*
X17826Y41944D02*
D03*
X20672Y37670D02*
D03*
Y38420D02*
D03*
X21592Y38050D02*
D03*
D11*
X18061Y40484D02*
D03*
X18907D02*
D03*
X21193Y25524D02*
D03*
X22039D02*
D03*
X21929Y27424D02*
D03*
X21083D02*
D03*
X25943Y29124D02*
D03*
X25097D02*
D03*
X37071Y36362D02*
D03*
X37917D02*
D03*
D12*
X20904Y41393D02*
D03*
Y40547D02*
D03*
X19838Y43727D02*
D03*
Y44573D02*
D03*
X18014Y44497D02*
D03*
Y43651D02*
D03*
X18868Y38575D02*
D03*
Y37729D02*
D03*
X17984Y38505D02*
D03*
Y37659D02*
D03*
X27138Y29967D02*
D03*
Y30813D02*
D03*
X30044Y28259D02*
D03*
Y29105D02*
D03*
X28904Y29107D02*
D03*
Y28261D02*
D03*
D13*
X19946Y26564D02*
D03*
X20696D02*
D03*
X20326Y25644D02*
D03*
D14*
X25342Y33762D02*
D03*
X25539D02*
D03*
X25735D02*
D03*
X25932D02*
D03*
X26129D02*
D03*
X26326D02*
D03*
X26523D02*
D03*
X26720D02*
D03*
X26917D02*
D03*
X27113D02*
D03*
X27310D02*
D03*
X27507D02*
D03*
X27704D02*
D03*
X27901D02*
D03*
X28098D02*
D03*
X28294D02*
D03*
X28491D02*
D03*
X28688D02*
D03*
X28885D02*
D03*
X29082D02*
D03*
X29279D02*
D03*
X29476D02*
D03*
X29672D02*
D03*
X29869D02*
D03*
X30066D02*
D03*
X30263D02*
D03*
X30460D02*
D03*
X30657D02*
D03*
X30854D02*
D03*
X31050D02*
D03*
X31247D02*
D03*
X31444D02*
D03*
X31641D02*
D03*
X31838D02*
D03*
X32035D02*
D03*
X32232D02*
D03*
X32428D02*
D03*
X32625D02*
D03*
X32822D02*
D03*
X33019D02*
D03*
X25342Y32009D02*
D03*
X25539D02*
D03*
X25735D02*
D03*
X25932D02*
D03*
X26129D02*
D03*
X26326D02*
D03*
X26523D02*
D03*
X26720D02*
D03*
X26917D02*
D03*
X27113D02*
D03*
X27310D02*
D03*
X27507D02*
D03*
X27704D02*
D03*
X27901D02*
D03*
X28098D02*
D03*
X28294D02*
D03*
X28491D02*
D03*
X28688D02*
D03*
X28885D02*
D03*
X29082D02*
D03*
X29279D02*
D03*
X29476D02*
D03*
X29672D02*
D03*
X29869D02*
D03*
X30066D02*
D03*
X30263D02*
D03*
X30460D02*
D03*
X30657D02*
D03*
X30854D02*
D03*
X31050D02*
D03*
X31247D02*
D03*
X31444D02*
D03*
X31641D02*
D03*
X31838D02*
D03*
X32035D02*
D03*
X32232D02*
D03*
X32428D02*
D03*
X32625D02*
D03*
X32822D02*
D03*
X33019D02*
D03*
D15*
X37600Y24778D02*
D03*
D16*
X38939Y21018D02*
D03*
X38269D02*
D03*
X37600D02*
D03*
X36931D02*
D03*
X36261D02*
D03*
D17*
X17000Y35540D02*
X17050Y35490D01*
X16970Y35490D02*
Y35740D01*
X17000Y35770D01*
Y35540D02*
Y35770D01*
X17050Y35490D02*
Y35770D01*
X17110Y35830D01*
Y35420D02*
Y35830D01*
X34030Y32750D02*
Y32827D01*
X25100Y32480D02*
X25150Y32530D01*
Y32748D01*
X24544Y31854D02*
X24710Y32020D01*
Y40783D01*
X20920Y44573D02*
X24710Y40783D01*
X25327Y32535D02*
Y32821D01*
Y32535D02*
X25356Y32506D01*
Y32294D02*
Y32506D01*
X25314Y32252D02*
X25356Y32294D01*
X25314Y32037D02*
Y32252D01*
Y32037D02*
X25342Y32009D01*
X24420Y32090D02*
Y38527D01*
X25137Y32761D02*
Y33119D01*
Y32761D02*
X25150Y32748D01*
X25314Y33046D02*
X25342Y33074D01*
X25314Y32834D02*
Y33046D01*
Y32834D02*
X25327Y32821D01*
X24170Y32222D02*
Y37090D01*
X24164Y31956D02*
Y32216D01*
X24170Y32222D01*
X24266Y31854D02*
X24544D01*
X24164Y31956D02*
X24266Y31854D01*
X23903Y31655D02*
X25342D01*
X25840Y33210D02*
X25932Y33302D01*
X25440Y33210D02*
X25840D01*
X25570Y32940D02*
X25663Y33033D01*
X25930Y32670D02*
X25970D01*
X25895Y32704D02*
X25930Y32670D01*
X18350Y28860D02*
X20670Y31180D01*
X18350Y24118D02*
Y28860D01*
Y24118D02*
X18416Y24052D01*
X26206Y29906D02*
X26650Y30350D01*
X26184Y29906D02*
X26206D01*
X26168Y29890D02*
X26184Y29906D01*
X25369Y29890D02*
X26168D01*
X26650Y30350D02*
Y31193D01*
X37470Y22740D02*
X37600Y22870D01*
X37740Y22730D02*
X38030D01*
X37750Y22655D02*
X37955D01*
X37630Y22600D02*
X38010D01*
X37575Y22655D02*
X37750D01*
Y22720D01*
X37955Y22655D02*
X37980Y22680D01*
X37600Y22312D02*
Y22630D01*
X37575Y22655D02*
X37600Y22630D01*
X37630Y22600D01*
X37600Y22870D02*
X37740Y22730D01*
X37600Y22870D02*
Y24778D01*
X37554Y22266D02*
X37600Y22312D01*
X37554Y22054D02*
Y22266D01*
Y22054D02*
X37600Y22008D01*
X23210Y38050D02*
X24170Y37090D01*
X21680Y31180D02*
X21850Y31010D01*
Y30384D02*
Y31010D01*
X27470Y34390D02*
Y34460D01*
X27460Y34380D02*
X27470Y34390D01*
X31116Y32769D02*
X31187Y32840D01*
X31116Y32744D02*
Y32769D01*
X30966Y32594D02*
X31116Y32744D01*
X30754Y32594D02*
X30966D01*
X30604Y32744D02*
X30754Y32594D01*
X30604Y32744D02*
Y32956D01*
X30624Y32976D01*
Y33050D01*
X31200Y32820D02*
Y32827D01*
X31187Y32840D02*
X31200Y32827D01*
X31050Y33040D02*
Y33762D01*
X30860Y32850D02*
X31050Y33040D01*
X30586Y31086D02*
X30740Y30932D01*
Y30672D02*
Y30932D01*
X30384Y31260D02*
X30558Y31086D01*
X30586D01*
X30704Y30636D02*
X30740Y30672D01*
X30704Y30424D02*
Y30636D01*
X30040Y29760D02*
X30704Y30424D01*
X28688Y33248D02*
Y33762D01*
X28210Y32770D02*
X28688Y33248D01*
X25150Y33132D02*
Y35000D01*
X25137Y33119D02*
X25150Y33132D01*
X35921Y34310D02*
X37071Y35460D01*
X33850Y34310D02*
X35921D01*
X33790Y34250D02*
X33850Y34310D01*
X33780Y34260D02*
Y34330D01*
Y34260D02*
X33790Y34250D01*
X34445Y33083D02*
X35204Y32324D01*
X33924Y33083D02*
X34445D01*
X33907Y33066D02*
X33924Y33083D01*
X33214Y33066D02*
X33907D01*
X34027Y32830D02*
X34030Y32827D01*
X29034Y34780D02*
X29910D01*
X29146Y34524D02*
X29213D01*
X28894Y34640D02*
X29034Y34780D01*
X30657Y33762D02*
Y34413D01*
X30320Y34750D02*
X30657Y34413D01*
X30220Y34750D02*
X30320D01*
X30260Y34790D02*
X30290D01*
X30220Y34750D02*
X30260Y34790D01*
X31140Y34417D02*
X31169Y34446D01*
X33330Y34348D02*
Y34570D01*
Y34348D02*
X33684Y33994D01*
X33896D02*
X33916Y34014D01*
X33684Y33994D02*
X33896D01*
X25342Y33074D02*
Y33308D01*
X18746Y42324D02*
X19150D01*
X19362Y42112D01*
X19774D01*
X18907Y40484D02*
X19870D01*
X19933Y40547D01*
X20904D01*
X18416Y23052D02*
Y24052D01*
X17984Y37659D02*
X18390D01*
X18460Y37729D01*
X18868D01*
X25097Y29124D02*
Y29580D01*
X24746Y29931D02*
X25097Y29580D01*
X24746Y29931D02*
Y30392D01*
X20904Y41393D02*
Y41830D01*
X20694Y42040D02*
X20904Y41830D01*
X20694Y42040D02*
Y42492D01*
X18868Y38575D02*
X19690D01*
X19845Y38420D01*
X20672D01*
X18014Y44497D02*
X18880D01*
X18956Y44573D01*
X19838D01*
X19774Y42862D02*
Y43260D01*
X19838Y43324D01*
Y43727D01*
X20326Y25644D02*
X20690D01*
X20810Y25524D01*
X21193D01*
X32232Y33760D02*
Y33762D01*
X32428Y33760D02*
Y33762D01*
X25932Y33302D02*
Y33762D01*
X38939Y20320D02*
Y21018D01*
X38749Y20130D02*
X38939Y20320D01*
X37760Y20130D02*
X38749D01*
X37600Y20290D02*
X37760Y20130D01*
X37600Y20290D02*
Y21018D01*
X20696Y26564D02*
Y26800D01*
X21083Y27187D01*
Y27424D01*
X23746Y28800D02*
Y30392D01*
Y28800D02*
X24116Y28430D01*
X26768D01*
X27138Y28800D01*
Y29967D01*
X37600Y24778D02*
Y26580D01*
X37440Y26740D02*
X37600Y26580D01*
X34119Y26740D02*
X37440D01*
X25342Y30796D02*
X25746Y30392D01*
X31804Y32920D02*
X32027D01*
X31444Y33280D02*
X31804Y32920D01*
X31444Y33280D02*
Y33762D01*
X38269Y21018D02*
Y21760D01*
X37869Y22160D02*
X38269Y21760D01*
X37810Y22160D02*
X37869D01*
X37600Y21018D02*
Y22008D01*
X33006Y21411D02*
Y25627D01*
X34119Y26740D01*
X39188Y36362D02*
X39310Y36240D01*
X37917Y36362D02*
X39188D01*
X17630Y38505D02*
X17984D01*
X17630D02*
Y40964D01*
X18240Y41574D01*
X18746D01*
X33019Y33261D02*
X33214Y33066D01*
X33019Y33261D02*
Y33762D01*
X26210Y29570D02*
X26290Y29650D01*
X25943Y29124D02*
X26210D01*
X17826Y41944D02*
X19136D01*
X19210Y41870D01*
Y41210D02*
Y41870D01*
X18880Y40880D02*
X19210Y41210D01*
X18141Y40880D02*
X18880D01*
X18061Y40800D02*
X18141Y40880D01*
X18061Y40484D02*
Y40800D01*
X17620Y41944D02*
X17826D01*
X17620Y44880D02*
X17760Y45020D01*
X22400D01*
X28790Y38630D01*
X18014Y43336D02*
X18380Y42970D01*
X18014Y43336D02*
Y43651D01*
X21929Y26921D02*
Y27424D01*
Y26921D02*
X23190Y25660D01*
X24990D01*
X25360Y26030D01*
Y27630D01*
X24960Y28030D02*
X25360Y27630D01*
X23450Y28030D02*
X24960D01*
X22960Y28520D02*
X23450Y28030D01*
X22960Y28520D02*
Y30430D01*
X23360Y30830D01*
X24960D01*
X25179Y30611D01*
Y30080D02*
Y30611D01*
Y30080D02*
X25369Y29890D01*
X26650Y31193D02*
X26917Y31460D01*
Y32009D01*
X28904Y29107D02*
Y29440D01*
X28994Y29530D01*
X30840D01*
X25735Y32009D02*
Y32544D01*
X25895Y32704D01*
X28294Y33265D02*
Y33762D01*
X28160Y33130D02*
X28294Y33265D01*
X27460Y34380D02*
Y37760D01*
X28249Y38549D01*
X31641Y33762D02*
Y34481D01*
X32180Y35020D01*
X34040D02*
X38277Y39257D01*
X40176D01*
X32232Y32009D02*
Y32480D01*
X19730Y42470D02*
X19774Y42426D01*
Y42112D02*
Y42426D01*
X30263Y32009D02*
Y32487D01*
X30080Y32670D02*
X30263Y32487D01*
X28660Y32670D02*
X30080D01*
X23314Y32009D02*
X23548D01*
X23314D02*
Y32639D01*
X19838Y44573D02*
X20920D01*
X21592Y38050D02*
X23210D01*
X20416Y23052D02*
X20890Y23526D01*
Y24566D01*
X20326Y25130D02*
X20890Y24566D01*
X20326Y25130D02*
Y25644D01*
X20904Y41393D02*
X21413D01*
X37071Y35460D02*
Y36362D01*
X28491Y33762D02*
Y34742D01*
X28717Y34968D01*
X29130Y34540D02*
X29279Y34391D01*
Y33762D02*
Y34391D01*
X20670Y37670D02*
X20672D01*
X18416Y28906D02*
X20670Y31160D01*
X19224Y28660D02*
X19560Y28996D01*
X18660Y28660D02*
X19224D01*
X29901Y43549D02*
X30850Y42600D01*
Y35180D02*
Y42600D01*
X28894Y34400D02*
Y34640D01*
Y34400D02*
X28981Y34313D01*
X29062D01*
X29082Y34293D01*
Y33762D02*
Y34293D01*
X28885Y33195D02*
Y33762D01*
Y33195D02*
X28930Y33150D01*
X22400Y40547D02*
X24420Y38527D01*
X20904Y40547D02*
X22400D01*
X20266Y27840D02*
X23181D01*
X24281Y26740D01*
X21570Y30530D02*
Y30940D01*
X19650Y28610D02*
X21570Y30530D01*
X19650Y24818D02*
Y28610D01*
Y24818D02*
X20416Y24052D01*
X17984Y33396D02*
Y37659D01*
Y33396D02*
X18500Y32880D01*
X17560Y33430D02*
Y35660D01*
Y33430D02*
X19970Y31020D01*
X27023Y33100D02*
X27113Y33190D01*
Y33762D01*
X30066Y31544D02*
Y32009D01*
X28109Y27299D02*
X28904Y28094D01*
Y28261D01*
X29200Y27299D02*
X29741Y27840D01*
X30044Y27920D01*
Y28259D01*
Y29105D02*
X30570D01*
X31685Y27990D01*
X34560D01*
X34880Y27670D01*
X39220D01*
X39490Y27940D01*
Y34010D01*
X30624Y33050D02*
X30854Y33280D01*
Y33762D01*
X31247D02*
Y34310D01*
X31140Y34417D02*
X31247Y34310D01*
X33369Y32830D02*
X34027D01*
X25267Y25390D02*
X26520Y26643D01*
Y27670D01*
X28610Y29760D01*
X27901Y31519D02*
X28160Y31260D01*
X27901Y31519D02*
Y32009D01*
X26813Y32740D02*
X27520D01*
X26520Y33033D02*
X26813Y32740D01*
X25663Y33033D02*
X26520D01*
X22039Y24429D02*
X22416Y24052D01*
X19946Y27520D02*
X20266Y27840D01*
X19946Y27520D02*
Y28480D01*
X20670Y31160D02*
Y31180D01*
Y37670D01*
X19946Y28480D02*
X23121Y31655D01*
X25342Y30796D02*
Y31655D01*
X20670Y31180D02*
X21680D01*
X23548Y32009D02*
X23903Y31655D01*
X23121D02*
X23903D01*
X25342Y33308D02*
X25440Y33210D01*
X32232Y33760D02*
X32428D01*
X32625D02*
X32822D01*
Y33762D01*
X32625Y33760D02*
Y33762D01*
X32822D02*
X33019D01*
X26210Y29124D02*
Y29570D01*
X22039Y24429D02*
Y25390D01*
X27520Y32740D02*
X27901Y33121D01*
Y32009D02*
Y33121D01*
X33019Y32009D02*
Y32480D01*
X32232D02*
X33019D01*
X33450D01*
X33019D02*
X33369Y32830D01*
X17620Y41944D02*
Y44880D01*
X25342Y31655D02*
Y32009D01*
X27901Y33121D02*
Y33762D01*
X22039Y25390D02*
Y25524D01*
X32625Y33762D02*
X32822D01*
X32428D02*
X32625D01*
X25342Y33308D02*
Y33762D01*
X19946Y26564D02*
Y27520D01*
X30840Y29530D02*
X31150Y29220D01*
X34332D01*
X39486Y34014D02*
X39490Y34010D01*
X33916Y34014D02*
X39486D01*
X42254Y19961D02*
Y20108D01*
X41860Y19567D02*
X42254Y19961D01*
X30066Y31544D02*
X30170Y31440D01*
X30480Y30830D02*
X30496D01*
X27138Y30813D02*
X30496D01*
Y30830D01*
X28160Y31260D02*
X30384D01*
X30170Y31440D02*
X30780D01*
X30965Y31255D01*
Y30575D02*
Y31255D01*
X22039Y25390D02*
X25267D01*
X28610Y29760D02*
X30040D01*
X41558Y35530D02*
X41986Y35958D01*
X40257Y35530D02*
X41558D01*
X34570Y18170D02*
X37210D01*
X34570D02*
X34610Y18210D01*
X37240Y18290D02*
X37320Y18210D01*
X34720Y18380D02*
X37520D01*
X37480Y18340D02*
X37520Y18380D01*
X34610Y18210D02*
X37320D01*
X34630Y18290D02*
X34680Y18340D01*
X34720Y18380D01*
X34630Y18290D02*
X37240D01*
X34640Y18340D02*
X34680D01*
X37480D01*
D18*
X17150Y20658D02*
Y21762D01*
Y20658D02*
X17684Y20124D01*
X18734Y21174D01*
Y22350D01*
X19094Y20276D02*
X19598D01*
X21050Y21728D01*
X17328Y22042D02*
X19094Y20276D01*
Y18786D02*
Y20276D01*
Y18786D02*
X19520Y18360D01*
X19094Y20276D02*
X19776D01*
X21140Y18912D01*
X39961Y32835D02*
X40404Y33278D01*
X40568Y33200D02*
X40796D01*
X41211Y32785D01*
X40404Y33278D02*
X41033Y32648D01*
X42411Y18327D02*
Y20325D01*
X41024Y18839D02*
X41191D01*
X41565Y19213D01*
D19*
X30270Y29950D02*
X33120D01*
D20*
X26755Y19813D02*
D03*
X28724D02*
D03*
D21*
X35204Y32324D02*
D03*
X23314Y32639D02*
D03*
D22*
X25746Y30392D02*
D03*
X22416Y24052D02*
D03*
D23*
X23746Y30392D02*
D03*
X24746D02*
D03*
X40176Y39257D02*
D03*
X38720Y43292D02*
D03*
Y42505D02*
D03*
X40176Y40143D02*
D03*
X18416Y23052D02*
D03*
X19416D02*
D03*
X20416D02*
D03*
X21416D02*
D03*
X22416D02*
D03*
X18416Y24052D02*
D03*
X19416D02*
D03*
X20416D02*
D03*
X21416D02*
D03*
D24*
X42000Y19200D02*
D03*
D25*
X36094D02*
D03*
D26*
X41986Y36958D02*
D03*
Y35958D02*
D03*
X41982Y39198D02*
D03*
Y38198D02*
D03*
D27*
X40600Y28600D02*
D03*
X37844D02*
D03*
D28*
X31381Y27299D02*
D03*
X30836Y26181D02*
D03*
X30291Y27299D02*
D03*
X29745Y26181D02*
D03*
X29200Y27299D02*
D03*
X28655Y26181D02*
D03*
X28109Y27299D02*
D03*
X27564Y26181D02*
D03*
D29*
X27019Y27299D02*
D03*
D30*
X24281Y26740D02*
D03*
X34119D02*
D03*
D31*
X40568Y33200D02*
D03*
X38600D02*
D03*
X33006Y21411D02*
D03*
Y19442D02*
D03*
D32*
X19094Y20276D02*
D03*
D33*
X34030Y32750D02*
D03*
X25020Y32400D02*
D03*
X24420Y32110D02*
D03*
X25570Y32940D02*
D03*
X25970Y32730D02*
D03*
X19560Y28996D02*
D03*
X18660Y28660D02*
D03*
X21570Y30920D02*
D03*
X27470Y34460D02*
D03*
X31200Y32820D02*
D03*
X33780Y34330D02*
D03*
X40257Y35530D02*
D03*
X29910Y34780D02*
D03*
X29213Y34524D02*
D03*
X30290Y34790D02*
D03*
X31150Y34490D02*
D03*
X32027Y32920D02*
D03*
X37810Y22160D02*
D03*
X30860Y32850D02*
D03*
X26290Y29650D02*
D03*
X28790Y38630D02*
D03*
X18380Y42970D02*
D03*
X28160Y33130D02*
D03*
X28249Y38549D02*
D03*
X32180Y35020D02*
D03*
X34040D02*
D03*
X19730Y42470D02*
D03*
X28660Y32670D02*
D03*
X25150Y35000D02*
D03*
X21413Y41393D02*
D03*
X28717Y34968D02*
D03*
X29901Y43549D02*
D03*
X30850Y35180D02*
D03*
X28210Y32770D02*
D03*
X28930Y33150D02*
D03*
X18500Y32880D02*
D03*
X17560Y35660D02*
D03*
X19970Y31020D02*
D03*
X27023Y33100D02*
D03*
X33330Y34570D02*
D03*
X34332Y29220D02*
D03*
X32898Y30100D02*
D03*
X25118Y18590D02*
D03*
Y19378D02*
D03*
Y20165D02*
D03*
Y20952D02*
D03*
Y21740D02*
D03*
X24330Y18590D02*
D03*
Y19378D02*
D03*
Y20165D02*
D03*
Y20952D02*
D03*
Y21740D02*
D03*
X23543Y18590D02*
D03*
Y19378D02*
D03*
Y20165D02*
D03*
Y20952D02*
D03*
Y21740D02*
D03*
X22755Y18590D02*
D03*
Y19378D02*
D03*
Y20165D02*
D03*
Y20952D02*
D03*
Y21740D02*
D03*
X21968Y18590D02*
D03*
Y19378D02*
D03*
Y20165D02*
D03*
Y20952D02*
D03*
Y21740D02*
D03*
X29251Y21966D02*
D03*
Y22754D02*
D03*
Y23541D02*
D03*
Y24328D02*
D03*
Y25116D02*
D03*
X28464Y21966D02*
D03*
Y22754D02*
D03*
Y23541D02*
D03*
Y24328D02*
D03*
Y25116D02*
D03*
X27677Y21966D02*
D03*
Y22754D02*
D03*
Y23541D02*
D03*
Y24328D02*
D03*
Y25116D02*
D03*
X26889Y21966D02*
D03*
Y22754D02*
D03*
Y23541D02*
D03*
Y24328D02*
D03*
Y25116D02*
D03*
X26102Y21966D02*
D03*
Y22754D02*
D03*
Y23541D02*
D03*
Y24328D02*
D03*
Y25116D02*
D03*
X25344Y22763D02*
D03*
Y23551D02*
D03*
Y24338D02*
D03*
X24557Y22763D02*
D03*
Y23551D02*
D03*
Y24338D02*
D03*
X23769Y22763D02*
D03*
Y23551D02*
D03*
Y24338D02*
D03*
X30679Y21966D02*
D03*
Y22754D02*
D03*
Y23541D02*
D03*
Y24328D02*
D03*
Y25116D02*
D03*
X29891Y21966D02*
D03*
Y22754D02*
D03*
Y23541D02*
D03*
Y24328D02*
D03*
Y25116D02*
D03*
X27686Y20943D02*
D03*
X26899D02*
D03*
X26112D02*
D03*
X27706Y18580D02*
D03*
X26919D02*
D03*
X26131D02*
D03*
X31666Y25118D02*
D03*
Y24330D02*
D03*
Y23543D02*
D03*
Y22755D02*
D03*
Y21968D02*
D03*
X34517Y24309D02*
D03*
Y25096D02*
D03*
X33730Y24309D02*
D03*
Y25096D02*
D03*
X41988Y30549D02*
D03*
Y31336D02*
D03*
Y32124D02*
D03*
X41200Y30549D02*
D03*
Y31336D02*
D03*
Y32124D02*
D03*
X40413Y30549D02*
D03*
Y31336D02*
D03*
Y32124D02*
D03*
X17972Y22380D02*
D03*
X17184Y21592D02*
D03*
Y22380D02*
D03*
X17135Y36661D02*
D03*
Y37448D02*
D03*
X21564Y35372D02*
D03*
Y36159D02*
D03*
Y36946D02*
D03*
X20777Y36159D02*
D03*
Y36946D02*
D03*
X22313Y36171D02*
D03*
X23110Y35374D02*
D03*
X19990Y36946D02*
D03*
X22343Y35374D02*
D03*
X27273Y45096D02*
D03*
X26486D02*
D03*
X25698D02*
D03*
X24911D02*
D03*
X24123D02*
D03*
X31279Y45057D02*
D03*
X30492D02*
D03*
X29704D02*
D03*
X28917D02*
D03*
X28129D02*
D03*
X35205Y45098D02*
D03*
X34418D02*
D03*
X33631D02*
D03*
X32843D02*
D03*
X32056D02*
D03*
X22230Y30280D02*
D03*
X22210Y31070D02*
D03*
Y29590D02*
D03*
X37136Y44634D02*
D03*
Y43846D02*
D03*
Y43059D02*
D03*
Y42272D02*
D03*
Y41484D02*
D03*
X37923Y44634D02*
D03*
Y43846D02*
D03*
Y43059D02*
D03*
Y42272D02*
D03*
Y41484D02*
D03*
X38710Y44634D02*
D03*
Y41484D02*
D03*
X39498Y44634D02*
D03*
Y43846D02*
D03*
Y43059D02*
D03*
Y42272D02*
D03*
Y41484D02*
D03*
X40285Y44634D02*
D03*
Y43846D02*
D03*
Y43059D02*
D03*
Y42272D02*
D03*
Y41484D02*
D03*
X36310Y44642D02*
D03*
Y43855D02*
D03*
Y43067D02*
D03*
Y42280D02*
D03*
Y41493D02*
D03*
X41210Y44662D02*
D03*
Y43875D02*
D03*
Y43087D02*
D03*
Y42300D02*
D03*
Y41513D02*
D03*
X34580Y41447D02*
D03*
X35505Y41476D02*
D03*
X38310Y38347D02*
D03*
Y37560D02*
D03*
X39235Y38376D02*
D03*
Y37588D02*
D03*
X36343Y39440D02*
D03*
X37130D02*
D03*
X36314Y40365D02*
D03*
X37102D02*
D03*
X37889D02*
D03*
X38715Y23852D02*
D03*
Y24639D02*
D03*
Y25426D02*
D03*
Y26214D02*
D03*
X37928Y23852D02*
D03*
Y24639D02*
D03*
Y25426D02*
D03*
Y26214D02*
D03*
X37140Y23852D02*
D03*
Y24639D02*
D03*
Y25426D02*
D03*
Y26214D02*
D03*
X36353Y23852D02*
D03*
Y24639D02*
D03*
Y25426D02*
D03*
Y26214D02*
D03*
X30480Y30830D02*
D03*
X30960Y30530D02*
D03*
X36363Y38710D02*
D03*
X39310Y36240D02*
D03*
X37573Y37520D02*
D03*
X40840Y36010D02*
D03*
X40850Y37550D02*
D03*
X40870Y38410D02*
D03*
X40080Y37590D02*
D03*
X40030Y38380D02*
D03*
X40995Y18504D02*
D03*
X40208D02*
D03*
X39420D02*
D03*
X38633D02*
D03*
X37846D02*
D03*
X34296D02*
D03*
X42402Y45539D02*
D03*
X16929Y18238D02*
D03*
Y45552D02*
D03*
M02*
