%FSLAX24Y24*%
%MOIN*%
G70*
G01*
G75*
G04 Layer_Color=32896*
%ADD10R,0.0650X0.0315*%
%ADD11R,0.0571X0.0512*%
%ADD12R,0.0512X0.0571*%
%ADD13R,0.0315X0.0650*%
%ADD14R,0.0079X0.0827*%
%ADD15R,0.4134X0.3386*%
%ADD16R,0.0433X0.1378*%
%ADD17C,0.0079*%
%ADD18C,0.0098*%
%ADD19C,0.0118*%
%ADD20C,0.0787*%
%ADD21C,0.1142*%
%ADD22R,0.0591X0.0591*%
%ADD23C,0.0591*%
%ADD24C,0.0984*%
%ADD25O,0.1004X0.0984*%
%ADD26C,0.0630*%
%ADD27C,0.0669*%
%ADD28C,0.0665*%
%ADD29R,0.0665X0.0665*%
%ADD30C,0.1874*%
%ADD31C,0.0512*%
%ADD32C,0.3307*%
%ADD33C,0.0236*%
%ADD34R,0.0472X0.0709*%
%ADD35R,0.0472X0.0650*%
%ADD36R,0.0512X0.0591*%
%ADD37O,0.0276X0.0984*%
%ADD38O,0.0984X0.0276*%
%ADD39C,0.0100*%
%ADD40R,0.0730X0.0395*%
%ADD41R,0.0651X0.0592*%
%ADD42R,0.0592X0.0651*%
%ADD43R,0.0395X0.0730*%
%ADD44R,0.0159X0.0907*%
%ADD45R,0.4214X0.3466*%
%ADD46R,0.0513X0.1458*%
%ADD47C,0.0867*%
%ADD48C,0.1222*%
%ADD49R,0.0671X0.0671*%
%ADD50C,0.0671*%
%ADD51C,0.1064*%
%ADD52O,0.1084X0.1064*%
%ADD53C,0.0710*%
%ADD54C,0.0749*%
%ADD55C,0.0745*%
%ADD56R,0.0745X0.0745*%
%ADD57C,0.1954*%
%ADD58C,0.0592*%
%ADD59C,0.3387*%
%ADD60C,0.0316*%
%ADD61R,0.0552X0.0789*%
%ADD62R,0.0552X0.0730*%
%ADD63R,0.0592X0.0671*%
%ADD64O,0.0356X0.1064*%
%ADD65O,0.1064X0.0356*%
D17*
X34816Y21647D02*
X34902Y21732D01*
X35072D01*
X35157Y21647D01*
Y21306D01*
X35072Y21220D01*
X34902D01*
X34816Y21306D01*
X34646Y21647D02*
X34561Y21732D01*
X34390D01*
X34305Y21647D01*
Y21562D01*
X34390Y21476D01*
X34475D01*
X34390D01*
X34305Y21391D01*
Y21306D01*
X34390Y21220D01*
X34561D01*
X34646Y21306D01*
X41529Y21758D02*
X41614Y21673D01*
Y21503D01*
X41529Y21417D01*
X41188D01*
X41102Y21503D01*
Y21673D01*
X41188Y21758D01*
X41614Y22270D02*
Y21929D01*
X41358D01*
X41443Y22100D01*
Y22185D01*
X41358Y22270D01*
X41188D01*
X41102Y22185D01*
Y22014D01*
X41188Y21929D01*
X40186Y33390D02*
Y33902D01*
X39930D01*
X39845Y33816D01*
Y33646D01*
X39930Y33561D01*
X40186D01*
X40015D02*
X39845Y33390D01*
X39674Y33816D02*
X39589Y33902D01*
X39419D01*
X39333Y33816D01*
Y33731D01*
X39419Y33646D01*
X39333Y33561D01*
Y33475D01*
X39419Y33390D01*
X39589D01*
X39674Y33475D01*
Y33561D01*
X39589Y33646D01*
X39674Y33731D01*
Y33816D01*
X39589Y33646D02*
X39419D01*
X41575Y34528D02*
X41063D01*
Y34272D01*
X41148Y34186D01*
X41319D01*
X41404Y34272D01*
Y34528D01*
Y34357D02*
X41575Y34186D01*
X41063Y34016D02*
Y33675D01*
X41148D01*
X41490Y34016D01*
X41575D01*
X37953Y23583D02*
X38464D01*
Y23839D01*
X38379Y23924D01*
X38209D01*
X38123Y23839D01*
Y23583D01*
Y23753D02*
X37953Y23924D01*
X38464Y24435D02*
X38379Y24265D01*
X38209Y24094D01*
X38038D01*
X37953Y24180D01*
Y24350D01*
X38038Y24435D01*
X38123D01*
X38209Y24350D01*
Y24094D01*
X37047Y22677D02*
Y23189D01*
X36791D01*
X36706Y23104D01*
Y22933D01*
X36791Y22848D01*
X37047D01*
X36877D02*
X36706Y22677D01*
X36195Y23189D02*
X36536D01*
Y22933D01*
X36365Y23018D01*
X36280D01*
X36195Y22933D01*
Y22762D01*
X36280Y22677D01*
X36450D01*
X36536Y22762D01*
X39354Y23909D02*
X39440Y23824D01*
Y23653D01*
X39354Y23568D01*
X39013D01*
X38928Y23653D01*
Y23824D01*
X39013Y23909D01*
X38928Y24080D02*
Y24250D01*
Y24165D01*
X39440D01*
X39354Y24080D01*
X32542Y34770D02*
Y34343D01*
X32457Y34258D01*
X32286D01*
X32201Y34343D01*
Y34770D01*
X32030Y34684D02*
X31945Y34770D01*
X31775D01*
X31689Y34684D01*
Y34599D01*
X31775Y34514D01*
X31860D01*
X31775D01*
X31689Y34429D01*
Y34343D01*
X31775Y34258D01*
X31945D01*
X32030Y34343D01*
X21570Y33212D02*
Y32785D01*
X21485Y32700D01*
X21314D01*
X21229Y32785D01*
Y33212D01*
X21058Y32700D02*
X20888D01*
X20973D01*
Y33212D01*
X21058Y33126D01*
X20750Y34026D02*
Y33514D01*
X21006D01*
X21091Y33600D01*
Y33770D01*
X21006Y33855D01*
X20750D01*
X20921D02*
X21091Y34026D01*
X21603D02*
X21262D01*
X21603Y33685D01*
Y33600D01*
X21517Y33514D01*
X21347D01*
X21262Y33600D01*
X22029Y34026D02*
Y33514D01*
X21773Y33770D01*
X22114D01*
X21837Y26398D02*
X22349D01*
Y26654D01*
X22263Y26740D01*
X22093D01*
X22008Y26654D01*
Y26398D01*
Y26569D02*
X21837Y26740D01*
Y27251D02*
Y26910D01*
X22178Y27251D01*
X22263D01*
X22349Y27166D01*
Y26995D01*
X22263Y26910D01*
Y27422D02*
X22349Y27507D01*
Y27678D01*
X22263Y27763D01*
X21922D01*
X21837Y27678D01*
Y27507D01*
X21922Y27422D01*
X22263D01*
X27192Y35526D02*
Y36038D01*
X26936D01*
X26851Y35953D01*
Y35782D01*
X26936Y35697D01*
X27192D01*
X27021D02*
X26851Y35526D01*
X26339D02*
X26680D01*
X26339Y35867D01*
Y35953D01*
X26425Y36038D01*
X26595D01*
X26680Y35953D01*
X25828Y35526D02*
X26169D01*
X25828Y35867D01*
Y35953D01*
X25913Y36038D01*
X26083D01*
X26169Y35953D01*
X17953Y29921D02*
Y30433D01*
X17697D01*
X17612Y30348D01*
Y30177D01*
X17697Y30092D01*
X17953D01*
X17782D02*
X17612Y29921D01*
X17100D02*
X17441D01*
X17100Y30262D01*
Y30348D01*
X17185Y30433D01*
X17356D01*
X17441Y30348D01*
X18882Y32398D02*
Y32910D01*
X18626D01*
X18541Y32824D01*
Y32654D01*
X18626Y32569D01*
X18882D01*
X18711D02*
X18541Y32398D01*
X18115D02*
Y32910D01*
X18370Y32654D01*
X18029D01*
X17511Y29108D02*
X16999D01*
Y28852D01*
X17084Y28767D01*
X17255D01*
X17340Y28852D01*
Y29108D01*
Y28937D02*
X17511Y28767D01*
Y28596D02*
Y28425D01*
Y28511D01*
X16999D01*
X17084Y28596D01*
X17948Y34474D02*
X18460D01*
Y34730D01*
X18374Y34815D01*
X18204D01*
X18119Y34730D01*
Y34474D01*
Y34645D02*
X17948Y34815D01*
X18374Y34986D02*
X18460Y35071D01*
Y35241D01*
X18374Y35327D01*
X18289D01*
X18204Y35241D01*
Y35156D01*
Y35241D01*
X18119Y35327D01*
X18033D01*
X17948Y35241D01*
Y35071D01*
X18033Y34986D01*
X35212Y28742D02*
X35382D01*
X35297D01*
Y28315D01*
X35382Y28230D01*
X35467D01*
X35553Y28315D01*
X35041Y28230D02*
X34871D01*
X34956D01*
Y28742D01*
X35041Y28656D01*
X27769Y36666D02*
X27854Y36751D01*
X28025D01*
X28110Y36666D01*
Y36325D01*
X28025Y36240D01*
X27854D01*
X27769Y36325D01*
X27599Y36240D02*
X27428D01*
X27513D01*
Y36751D01*
X27599Y36666D01*
X27172D02*
X27087Y36751D01*
X26916D01*
X26831Y36666D01*
Y36581D01*
X26916Y36496D01*
X27002D01*
X26916D01*
X26831Y36410D01*
Y36325D01*
X26916Y36240D01*
X27087D01*
X27172Y36325D01*
X33607Y35954D02*
X33692Y36040D01*
X33863D01*
X33948Y35954D01*
Y35613D01*
X33863Y35528D01*
X33692D01*
X33607Y35613D01*
X33436Y35528D02*
X33266D01*
X33351D01*
Y36040D01*
X33436Y35954D01*
X32669Y35528D02*
X33010D01*
X32669Y35869D01*
Y35954D01*
X32754Y36040D01*
X32925D01*
X33010Y35954D01*
X31303Y35502D02*
X31218Y35416D01*
X31047D01*
X30962Y35502D01*
Y35843D01*
X31047Y35928D01*
X31218D01*
X31303Y35843D01*
X31474Y35928D02*
X31644D01*
X31559D01*
Y35416D01*
X31474Y35502D01*
X31900Y35928D02*
X32071D01*
X31985D01*
Y35416D01*
X31900Y35502D01*
X35244Y36269D02*
X35329Y36355D01*
X35499D01*
X35585Y36269D01*
Y35928D01*
X35499Y35843D01*
X35329D01*
X35244Y35928D01*
X35073Y35843D02*
X34902D01*
X34988D01*
Y36355D01*
X35073Y36269D01*
X34647D02*
X34561Y36355D01*
X34391D01*
X34306Y36269D01*
Y35928D01*
X34391Y35843D01*
X34561D01*
X34647Y35928D01*
Y36269D01*
X35411Y33790D02*
X35496Y33876D01*
X35667D01*
X35752Y33790D01*
Y33449D01*
X35667Y33364D01*
X35496D01*
X35411Y33449D01*
X35240Y33790D02*
X35155Y33876D01*
X34985D01*
X34899Y33790D01*
Y33705D01*
X34985Y33620D01*
X34899Y33535D01*
Y33449D01*
X34985Y33364D01*
X35155D01*
X35240Y33449D01*
Y33535D01*
X35155Y33620D01*
X35240Y33705D01*
Y33790D01*
X35155Y33620D02*
X34985D01*
X29158Y34065D02*
X29244Y34150D01*
X29414D01*
X29500Y34065D01*
Y33724D01*
X29414Y33638D01*
X29244D01*
X29158Y33724D01*
X28988Y34150D02*
X28647D01*
Y34065D01*
X28988Y33724D01*
Y33638D01*
X31487Y29908D02*
X31572Y29994D01*
X31743D01*
X31828Y29908D01*
Y29567D01*
X31743Y29482D01*
X31572D01*
X31487Y29567D01*
X31316D02*
X31231Y29482D01*
X31061D01*
X30975Y29567D01*
Y29908D01*
X31061Y29994D01*
X31231D01*
X31316Y29908D01*
Y29823D01*
X31231Y29738D01*
X30975D01*
X34985Y30132D02*
X35070Y30047D01*
Y29876D01*
X34985Y29791D01*
X34644D01*
X34559Y29876D01*
Y30047D01*
X34644Y30132D01*
X35070Y30644D02*
X34985Y30473D01*
X34814Y30303D01*
X34644D01*
X34559Y30388D01*
Y30559D01*
X34644Y30644D01*
X34729D01*
X34814Y30559D01*
Y30303D01*
X34332Y44452D02*
X33991Y44111D01*
X34332D02*
X33991Y44452D01*
X34332Y44282D02*
X33991D01*
X34161Y44111D02*
Y44452D01*
X33820Y44026D02*
X33650D01*
X33735D01*
Y44538D01*
X33820Y44452D01*
X39163Y37191D02*
Y37532D01*
X39248Y37618D01*
X39419D01*
X39504Y37532D01*
Y37191D01*
X39419Y37106D01*
X39248D01*
X39333Y37277D02*
X39163Y37106D01*
X39248D02*
X39163Y37191D01*
X38992Y37532D02*
X38907Y37618D01*
X38737D01*
X38651Y37532D01*
Y37447D01*
X38737Y37362D01*
X38822D01*
X38737D01*
X38651Y37277D01*
Y37191D01*
X38737Y37106D01*
X38907D01*
X38992Y37191D01*
X20321Y26365D02*
X20663D01*
X20748Y26279D01*
Y26109D01*
X20663Y26024D01*
X20321D01*
X20236Y26109D01*
Y26279D01*
X20407Y26194D02*
X20236Y26365D01*
Y26279D02*
X20321Y26365D01*
X20236Y26535D02*
Y26706D01*
Y26621D01*
X20748D01*
X20663Y26535D01*
X20205Y33833D02*
X19864D01*
X19779Y33918D01*
Y34088D01*
X19864Y34174D01*
X20205D01*
X20290Y34088D01*
Y33918D01*
X20120Y34003D02*
X20290Y33833D01*
Y33918D02*
X20205Y33833D01*
X20290Y33321D02*
Y33662D01*
X19949Y33321D01*
X19864D01*
X19779Y33406D01*
Y33577D01*
X19864Y33662D01*
X19696Y27613D02*
X20037D01*
X20122Y27527D01*
Y27357D01*
X20037Y27271D01*
X19696D01*
X19610Y27357D01*
Y27527D01*
X19781Y27442D02*
X19610Y27613D01*
Y27527D02*
X19696Y27613D01*
X20122Y27783D02*
Y28124D01*
X20037D01*
X19696Y27783D01*
X19610D01*
X26920Y28659D02*
X26750D01*
X26835D01*
Y29171D01*
X26920Y29086D01*
X30843Y29171D02*
X31184D01*
Y28915D01*
X31014Y29001D01*
X30928D01*
X30843Y28915D01*
Y28745D01*
X30928Y28659D01*
X31099D01*
X31184Y28745D01*
X30639Y25044D02*
X30554Y24959D01*
X30383D01*
X30298Y25044D01*
Y25385D01*
X30383Y25470D01*
X30554D01*
X30639Y25385D01*
Y25300D01*
X30554Y25214D01*
X30298D01*
X27026Y25470D02*
X27197Y25385D01*
X27367Y25214D01*
Y25044D01*
X27282Y24959D01*
X27111D01*
X27026Y25044D01*
Y25129D01*
X27111Y25214D01*
X27367D01*
D39*
X16535Y17844D02*
Y45946D01*
X16533Y17835D02*
X42795D01*
Y17953D01*
X42795Y45932D01*
X16563Y45946D02*
X42794Y45932D01*
X23758Y38700D02*
X23858Y38800D01*
X24058D01*
X24158Y38700D01*
Y38300D01*
X24058Y38200D01*
X23858D01*
X23758Y38300D01*
X23558Y38200D02*
X23358D01*
X23458D01*
Y38800D01*
X23558Y38700D01*
X22758Y38200D02*
Y38800D01*
X23058Y38500D01*
X22658D01*
X28016Y44734D02*
X27616Y44334D01*
X28016D02*
X27616Y44734D01*
X28016Y44534D02*
X27616D01*
X27816Y44334D02*
Y44734D01*
X27016Y44234D02*
X27416D01*
X27016Y44634D01*
Y44734D01*
X27116Y44834D01*
X27316D01*
X27416Y44734D01*
M02*
