M48
;Layer_Color=9474304
;FILE_FORMAT=2:4
INCH,LZ
;TYPE=PLATED
T1F00S00C0.0180
T2F00S00C0.0276
T3F00S00C0.0280
T4F00S00C0.0315
T5F00S00C0.0380
T6F00S00C0.0394
T7F00S00C0.0433
T8F00S00C0.0460
T9F00S00C0.0472
T10F00S00C0.0591
T11F00S00C0.1240
T12F00S00C0.1575
%
T01
X12586Y0806
Y08153
X12679
Y08246
X12586
Y08339
X12679
X12772
Y08246
X12865Y08339
Y08432
X12958
X12772
X12679
X12586
X12524Y08711
Y08804
X126181Y089961
X12679Y0806
X12989Y08184
X13082
Y08277
X13175
X13268Y0837
X12493Y08339
Y08246
X124
X12307
Y08339
Y08432
X124
Y08339
Y08153
Y0806
X12307
X12214
Y08153
Y08246
X12121
Y08153
X12028
Y0806
X11935
X12121
X12307Y08153
X12493
Y0806
Y08432
X12431Y08711
X121654Y08563
X12214Y08339
X11904
Y08432
X11811
Y08339
X11718
Y08246
X11625
X11532
X11439
X11346
Y08339
Y08432
X11253
Y08339
X1116
X11067
X10974
Y08246
X11067
X1116
X11253
X11439Y08339
X11532
X11625
Y08432
X11718
X11532
X11439
X1116
X11067
X10974
X11346Y08928
Y09021
X112992Y091732
X116614Y087008
X11811Y08246
X122638Y091732
X10881Y08432
Y08339
Y08246
X104134Y086929
X108Y1023
X109843Y104921
X11346Y10788
Y10881
X11439
X11718
X11811
X11904
X11997
Y10788
Y10695
X11904
X11811
X11718
Y10788
X11811
X11904
X1209
X12183
X12276
Y10695
X12183
X1209
Y10881
X12183
X12276
X124701Y1033
X123228Y101181
X122244
X117244Y098425
X113386Y1
X12595Y09565
X126701
X12745
X129134Y094291
Y097047
X128937Y098425
X131299Y097047
X130906Y101575
X129185Y103346
X12834Y1054
Y10633
Y10726
Y10819
X129921Y105512
X136614
X137795Y102717
X137205Y098622
X134252Y094291
X14384Y09455
X14477
X1457
X14663
X14756
X14849
X14942
X15035
Y09548
Y09641
X14942
X14849
X14756
X14663
Y09734
Y09827
X14756
X14849
X14942
X15035
Y0992
X14942
X14849
X14756
X14663
X1457
Y09827
X14477
X14384
Y0992
X14477
Y09734
Y09641
X14384
Y09734
X1457
Y09641
Y09548
X14663
X14756
X14849
X14942
Y09734
X15035
X14849
X14756
X14477Y09548
X14384
X14252Y104921
X1333Y10943
X13237
X13144
Y11036
X13237
X1333
X13423
X136614Y114961
X11997Y1147
X11904
X11811
Y11377
Y11284
X11904
Y11191
Y11098
X11997
Y11191
X1209
Y11098
X12183
Y10974
X12276
X12369
X1209
X11997
X11904
X11811
X11718
X11811Y11098
X11718Y11377
Y1147
X11439
X11346
X11253
Y11563
X11346
X11439
Y11377
X11346
Y11067
X11439
Y10974
X11346
X11253
Y11067
X1116
X10974Y10974
X1116Y11563
X11904Y11377
X11997
Y11284
X1209
X10788Y11005
X10385Y11594
X10168Y1147
T02
X123681Y10585
X12565
T03
X10315Y104331
X10565
X109843
X112343
X129921
X132421
X136614
X139114
X143307Y103937
X145807
X15
X1525
X134858Y115748
X133858
T04
X144291Y084843
X145276Y084787
X14626Y084843
Y088047
X145276Y087992
X144291Y088047
X141732Y088724
X140748Y08878
Y091984
X141732Y091929
X148425Y091984
X149409Y092126
Y088921
X148425Y08878
X139031Y089961
X1392Y0912
X135995
X135827Y089961
X1329Y089355
X13195Y08935
Y086145
X1329Y08615
X135969Y085039
Y083858
X139173
Y085039
X11811Y08937
Y092575
X111024Y092913
X11122Y091787
Y088583
X105906Y088441
X106102Y08937
Y092575
X101181Y09252
X10115Y093445
X101181Y089315
Y088189
Y084984
X101378Y083661
Y080457
X105906Y080709
Y083913
Y085236
X106102Y093898
Y097102
X1056Y097995
Y1012
X104976Y102559
X101772
X100945Y101181
Y097976
X10115Y09665
X101378Y104669
Y107874
Y109
X109Y102953
X112205
X111024Y100252
Y097047
Y096118
X11648Y101378
X119685
X129528Y102362
X132732
X135827Y101968
X139031
X14252
X145724
X149213Y102362
X152417
X135882Y11378
X132677
X101378Y112205
T05
X155031Y083071
X154031
X153032
X152031
X151032
X150031
X149031
X148032
X146063Y082677
Y083677
X14685Y080709
X14785
X149213
X150213
X151575
X152575
X153032Y086071
X152031
X151032
X150031
X149031
X148032
X147835Y087402
X149835
X14725Y089
X14625
X14525
X14425
X142913Y089535
Y091535
X14425Y092
X14525
X14625
X14725
X140764Y093504
X142717Y087614
Y086614
X141535Y084843
Y083843
X154031Y086071
X155031
X140551Y086402
Y087402
X138827Y086024
X137827
X136827
X135827
X134449Y086583
Y088583
X135827Y089024
X136827
X137827
X138827
X139764Y093504
X137701Y093701
X136701
X135701
X134701
X133701
X132701
X131701
X130701
X129701
X128701
X127701
X126701
X125701
X126378Y09252
X127378
X125016
X130283Y092323
X130315Y090551
X129315
X132283
X133283
X132283Y092323
X134646Y09252
X135646
X136646
X134858Y084252
X133858
X124016Y09252
X122654
X121654
X121701Y093701
X120701
X119701
X118701
X119291Y092126
Y090126
X115205Y089929
Y090929
Y091929
X11605Y0929
X11705
X112205Y091929
Y090929
Y089929
X109843Y089173
Y091173
Y093701
X122701
X123701
X124701
X107283Y092157
Y090157
Y08763
Y08563
Y082906
Y080906
X104756
X103756
X102756
Y083906
X103756
X104756
Y085236
X103756
X102756
Y088236
X103756
X104756
X104953Y089567
X103953
X102953
Y092567
X103953
X104953
Y093898
X103953
X102953
Y096898
X103953
X104953
X104559Y098228
X103559
X102559
Y101228
X103559
X104559
X10689Y100591
Y098591
X107283Y096488
Y094488
X10672Y102705
X10748Y103543
X10672Y104378
X113413
X114173Y103543
X113413Y102705
X112205Y099606
Y098606
Y097606
Y095866
Y094866
Y093866
X115205
Y094866
Y095866
Y097606
Y098606
Y099606
X118701Y099701
X119701
X120701
X121701
X122701
X123701
X124701
X1238Y10235
X109843Y099835
Y097835
Y095701
X125701Y099701
X126701
X127701
X128701
X129701
X130701
X131701
X132701
X133701
X134701
X135701
X136701
X137701
X133874Y100984
X132874
X133886Y102705
X134646Y103543
X133886Y104378
X140579
Y102705
X1258Y10235
X141339Y103543
X146878Y103984
X147638Y10315
X146878Y102311
X153965Y101917
X154724Y102756
X153965Y103591
X1265Y11425
Y11675
T06
X12645Y109144
Y1119
T07
X10315Y107087
X105512Y106299
X107874Y107087
X109843
X112205Y106299
X114567Y107087
X129921
X132283Y106299
X134646Y107087
X136614
X138976Y106299
X141339Y107087
X143307
X145669Y106299
X148032Y107087
X15
X152362Y106299
X154724Y107087
Y111811
X15
X148032
X143307
X141339
X136614
X134646
X129921
X123489Y1144
X122819
X12215
X121481
X120811
X114567Y111811
X109843
X107874
X10315
T08
X153486Y09308
X152362Y09362
Y09253
Y09471
Y0958
Y09689
X153486Y09635
Y09526
Y09417
T09
X142346Y080394
X140346
X138346
X136346
X134346
X132346
X130346
X128346
X097323Y082717
Y084717
Y086717
Y088717
Y090717
Y092717
Y094717
Y096717
Y100394
Y102394
Y104394
Y106394
Y108394
X142008Y11685
X144008
X146008
X148008
X150008
X152008
X140008
X138008
X131134
X129134
X108968Y11689
X106968
X104953
X102953
X097323Y114394
Y112394
Y110394
T10
X1169Y11195
X122806
T11
X152944Y08979
Y09963
T12
X154724Y080315
X097244
X154724Y116929
X097244
M30
