%FSLAX24Y24*%
%MOIN*%
G70*
G01*
G75*
G04 Layer_Color=16711935*
%ADD10C,0.0300*%
%ADD11C,0.0394*%
%ADD12C,0.0197*%
%ADD13C,0.0200*%
%ADD14C,0.0295*%
%ADD15O,0.0551X0.0850*%
%ADD16R,0.0551X0.0850*%
%ADD17C,0.0984*%
%ADD18O,0.1004X0.0984*%
%ADD19C,0.0700*%
%ADD20C,0.0866*%
%ADD21R,0.0700X0.0700*%
%ADD22R,0.0700X0.0700*%
%ADD23C,0.1969*%
%ADD24C,0.2000*%
%ADD25C,0.0800*%
%ADD26R,0.0800X0.0800*%
%ADD27C,0.0400*%
%ADD28R,0.0394X0.0394*%
%ADD29C,0.0400*%
%ADD30C,0.0098*%
%ADD31C,0.0079*%
%ADD32C,0.0100*%
%ADD33C,0.0138*%
%ADD34C,0.0080*%
%ADD35O,0.0631X0.0930*%
%ADD36R,0.0631X0.0930*%
%ADD37C,0.1064*%
%ADD38O,0.1084X0.1064*%
%ADD39C,0.0780*%
%ADD40C,0.0946*%
%ADD41R,0.0780X0.0780*%
%ADD42R,0.0780X0.0780*%
%ADD43C,0.2049*%
%ADD44C,0.2080*%
%ADD45C,0.0880*%
%ADD46R,0.0880X0.0880*%
%ADD47C,0.0480*%
%ADD48R,0.0474X0.0474*%
D35*
X120811Y114400D02*
D03*
X121481D02*
D03*
X122150D02*
D03*
X122819D02*
D03*
D36*
X123489D02*
D03*
D37*
X116900Y111950D02*
D03*
D38*
X122806D02*
D03*
D39*
X126450Y111900D02*
D03*
Y109144D02*
D03*
X123681Y105850D02*
D03*
X125650D02*
D03*
X133874Y100984D02*
D03*
X101378Y80457D02*
D03*
X101181Y89315D02*
D03*
X101150Y93445D02*
D03*
X101378Y104669D02*
D03*
X100945Y97976D02*
D03*
X106102Y92575D02*
D03*
Y97102D02*
D03*
X109843Y91173D02*
D03*
Y95701D02*
D03*
X125016Y92520D02*
D03*
X132900Y89355D02*
D03*
X142913Y89535D02*
D03*
X141732Y88724D02*
D03*
X148425Y91984D02*
D03*
X154724Y102756D02*
D03*
X153965Y103591D02*
D03*
Y101917D02*
D03*
X101181Y84984D02*
D03*
X109843Y99835D02*
D03*
X142717Y87614D02*
D03*
X145276Y84787D02*
D03*
X104976Y102559D02*
D03*
X105650Y104331D02*
D03*
X116480Y101378D02*
D03*
X130283Y92323D02*
D03*
X135969Y85039D02*
D03*
X135995Y91200D02*
D03*
X105906Y83913D02*
D03*
X103756Y80906D02*
D03*
X104756D02*
D03*
X102756Y83906D02*
D03*
X103756D02*
D03*
X104756D02*
D03*
X107283Y96488D02*
D03*
Y92157D02*
D03*
X103953Y89567D02*
D03*
X104953D02*
D03*
X102953Y92567D02*
D03*
X103953D02*
D03*
X104953D02*
D03*
X105600Y97995D02*
D03*
X106890Y98591D02*
D03*
X107480Y103543D02*
D03*
X106720Y104378D02*
D03*
Y102705D02*
D03*
X103559Y98228D02*
D03*
X104559D02*
D03*
X102559Y101228D02*
D03*
X103559D02*
D03*
X104559D02*
D03*
X111220Y91787D02*
D03*
X111024Y96118D02*
D03*
X118110Y92575D02*
D03*
X112205Y94866D02*
D03*
Y93866D02*
D03*
X115205Y95866D02*
D03*
Y94866D02*
D03*
Y93866D02*
D03*
X112205Y90929D02*
D03*
Y89929D02*
D03*
X115205Y91929D02*
D03*
Y90929D02*
D03*
Y89929D02*
D03*
X116050Y92900D02*
D03*
X119291Y90126D02*
D03*
X114173Y103543D02*
D03*
X113413Y104378D02*
D03*
Y102705D02*
D03*
X127378Y92520D02*
D03*
X129315Y90551D02*
D03*
X131950Y86145D02*
D03*
X132732Y102362D02*
D03*
X132421Y104331D02*
D03*
X135969Y83858D02*
D03*
X136646Y92520D02*
D03*
X135646D02*
D03*
X134646D02*
D03*
X140764Y93504D02*
D03*
X139031Y89961D02*
D03*
X140748Y91984D02*
D03*
X134449Y86583D02*
D03*
X136827Y86024D02*
D03*
X137827D02*
D03*
X138827D02*
D03*
X135827Y89024D02*
D03*
X136827D02*
D03*
X137827D02*
D03*
X138827D02*
D03*
X140551Y86402D02*
D03*
X139031Y101968D02*
D03*
X139114Y104331D02*
D03*
X141339Y103543D02*
D03*
X140579Y104378D02*
D03*
Y102705D02*
D03*
X152575Y80709D02*
D03*
X150213D02*
D03*
X147850D02*
D03*
X149409Y88921D02*
D03*
X149835Y87402D02*
D03*
X152500Y103937D02*
D03*
X147638Y103150D02*
D03*
X146878Y103984D02*
D03*
Y102311D02*
D03*
X152417Y102362D02*
D03*
X105906Y88441D02*
D03*
X103756Y85236D02*
D03*
X104756D02*
D03*
X102756Y88236D02*
D03*
X103756D02*
D03*
X104756D02*
D03*
X103953Y93898D02*
D03*
X104953D02*
D03*
X102953Y96898D02*
D03*
X103953D02*
D03*
X104953D02*
D03*
X101378Y109000D02*
D03*
X111024Y100252D02*
D03*
X123800Y102350D02*
D03*
X112205Y98606D02*
D03*
Y97606D02*
D03*
X115205Y99606D02*
D03*
Y98606D02*
D03*
Y97606D02*
D03*
X144291Y88047D02*
D03*
X141535Y83843D02*
D03*
X149031Y83071D02*
D03*
X150031D02*
D03*
X151032D02*
D03*
X152031D02*
D03*
X153032D02*
D03*
X154031D02*
D03*
X148032Y86071D02*
D03*
X149031D02*
D03*
X150031D02*
D03*
X151032D02*
D03*
X152031D02*
D03*
X153032D02*
D03*
X154031D02*
D03*
X155031D02*
D03*
Y83071D02*
D03*
X146260Y88047D02*
D03*
X107283Y82906D02*
D03*
X134858Y84252D02*
D03*
X146063Y83677D02*
D03*
X122654Y92520D02*
D03*
X133283Y90551D02*
D03*
X145250Y89000D02*
D03*
X146250D02*
D03*
X147250D02*
D03*
X144250Y92000D02*
D03*
X145250D02*
D03*
X146250D02*
D03*
X147250D02*
D03*
X109000Y102953D02*
D03*
X112343Y104331D02*
D03*
X145724Y101968D02*
D03*
X134646Y103543D02*
D03*
X133886Y104378D02*
D03*
Y102705D02*
D03*
X145807Y103937D02*
D03*
X134858Y115748D02*
D03*
X126500Y116750D02*
D03*
X135882Y113780D02*
D03*
X107283Y87630D02*
D03*
X119701Y93701D02*
D03*
X120701D02*
D03*
X121701D02*
D03*
X122701D02*
D03*
X123701D02*
D03*
X124701D02*
D03*
X125701D02*
D03*
X118701Y99701D02*
D03*
X119701D02*
D03*
X120701D02*
D03*
X121701D02*
D03*
X122701D02*
D03*
X123701D02*
D03*
X124701D02*
D03*
X125701D02*
D03*
X126701Y93701D02*
D03*
X127701D02*
D03*
X126701Y99701D02*
D03*
X127701D02*
D03*
X128701Y93701D02*
D03*
X129701D02*
D03*
X130701D02*
D03*
X131701D02*
D03*
X132701D02*
D03*
X133701D02*
D03*
X134701D02*
D03*
X135701D02*
D03*
X136701D02*
D03*
X128701Y99701D02*
D03*
X129701D02*
D03*
X130701D02*
D03*
X131701D02*
D03*
X132701D02*
D03*
X133701D02*
D03*
X134701D02*
D03*
X135701D02*
D03*
X136701D02*
D03*
X137701Y93701D02*
D03*
Y99701D02*
D03*
D40*
X102953Y116890D02*
D03*
X104953D02*
D03*
X106968D02*
D03*
X108968D02*
D03*
X129921Y107087D02*
D03*
Y111811D02*
D03*
X132283Y106299D02*
D03*
X134646Y107087D02*
D03*
Y111811D02*
D03*
X129134Y116850D02*
D03*
X131134D02*
D03*
X97323Y96717D02*
D03*
Y94717D02*
D03*
Y92717D02*
D03*
Y90717D02*
D03*
Y88717D02*
D03*
Y86717D02*
D03*
Y84717D02*
D03*
Y82717D02*
D03*
X103150Y107087D02*
D03*
Y111811D02*
D03*
X105512Y106299D02*
D03*
X107874Y107087D02*
D03*
Y111811D02*
D03*
X136614Y107087D02*
D03*
Y111811D02*
D03*
X138976Y106299D02*
D03*
X141339Y107087D02*
D03*
Y111811D02*
D03*
X150000Y107087D02*
D03*
Y111811D02*
D03*
X152362Y106299D02*
D03*
X154724Y107087D02*
D03*
Y111811D02*
D03*
X97323Y114394D02*
D03*
Y112394D02*
D03*
Y110394D02*
D03*
Y108394D02*
D03*
Y106394D02*
D03*
Y104394D02*
D03*
Y102394D02*
D03*
Y100394D02*
D03*
X142346Y80394D02*
D03*
X140346D02*
D03*
X138346D02*
D03*
X136346D02*
D03*
X134346D02*
D03*
X132346D02*
D03*
X130346D02*
D03*
X128346D02*
D03*
X109843Y107087D02*
D03*
Y111811D02*
D03*
X112205Y106299D02*
D03*
X114567Y107087D02*
D03*
Y111811D02*
D03*
X143307Y107087D02*
D03*
Y111811D02*
D03*
X145669Y106299D02*
D03*
X148032Y107087D02*
D03*
Y111811D02*
D03*
X138008Y116850D02*
D03*
X140008D02*
D03*
X142008D02*
D03*
X144008D02*
D03*
X146008D02*
D03*
X148008D02*
D03*
X150008D02*
D03*
X152008D02*
D03*
D41*
X132874Y100984D02*
D03*
X124016Y92520D02*
D03*
X101772Y102559D02*
D03*
X103150Y104331D02*
D03*
X119685Y101378D02*
D03*
X132283Y92323D02*
D03*
X139173Y85039D02*
D03*
X139200Y91200D02*
D03*
X112205Y95866D02*
D03*
Y91929D02*
D03*
X117050Y92900D02*
D03*
X126378Y92520D02*
D03*
X130315Y90551D02*
D03*
X129528Y102362D02*
D03*
X129921Y104331D02*
D03*
X139173Y83858D02*
D03*
X139764Y93504D02*
D03*
X135827Y89961D02*
D03*
Y101968D02*
D03*
X136614Y104331D02*
D03*
X151575Y80709D02*
D03*
X149213D02*
D03*
X146850D02*
D03*
X147835Y87402D02*
D03*
X150000Y103937D02*
D03*
X149213Y102362D02*
D03*
X125800Y102350D02*
D03*
X112205Y99606D02*
D03*
X133858Y84252D02*
D03*
X121654Y92520D02*
D03*
X132283Y90551D02*
D03*
X112205Y102953D02*
D03*
X109843Y104331D02*
D03*
X142520Y101968D02*
D03*
X143307Y103937D02*
D03*
X132677Y113780D02*
D03*
D42*
X101378Y83661D02*
D03*
X101181Y92520D02*
D03*
X101150Y96650D02*
D03*
X101378Y107874D02*
D03*
X100945Y101181D02*
D03*
X106102Y89370D02*
D03*
Y93898D02*
D03*
X109843Y89173D02*
D03*
Y93701D02*
D03*
X132900Y86150D02*
D03*
X142913Y91535D02*
D03*
X141732Y91929D02*
D03*
X148425Y88780D02*
D03*
X101181Y88189D02*
D03*
X109843Y97835D02*
D03*
X142717Y86614D02*
D03*
X145276Y87992D02*
D03*
X105906Y80709D02*
D03*
X102756Y80906D02*
D03*
X107283Y94488D02*
D03*
Y90157D02*
D03*
X102953Y89567D02*
D03*
X105600Y101200D02*
D03*
X106890Y100591D02*
D03*
X102559Y98228D02*
D03*
X111220Y88583D02*
D03*
X111024Y92913D02*
D03*
X118110Y89370D02*
D03*
X119291Y92126D02*
D03*
X131950Y89350D02*
D03*
X140748Y88780D02*
D03*
X134449Y88583D02*
D03*
X135827Y86024D02*
D03*
X140551Y87402D02*
D03*
X149409Y92126D02*
D03*
X105906Y85236D02*
D03*
X102756D02*
D03*
X102953Y93898D02*
D03*
X101378Y112205D02*
D03*
X111024Y97047D02*
D03*
X144291Y84843D02*
D03*
X141535D02*
D03*
X148032Y83071D02*
D03*
X146260Y84843D02*
D03*
X107283Y80906D02*
D03*
X146063Y82677D02*
D03*
X144250Y89000D02*
D03*
X133858Y115748D02*
D03*
X126500Y114250D02*
D03*
X107283Y85630D02*
D03*
X118701Y93701D02*
D03*
D43*
X154724Y80315D02*
D03*
Y116929D02*
D03*
X97244Y80315D02*
D03*
Y116929D02*
D03*
D44*
X152944Y89790D02*
D03*
Y99630D02*
D03*
D45*
X152362Y94710D02*
D03*
Y93620D02*
D03*
Y95800D02*
D03*
Y96890D02*
D03*
X153486Y93080D02*
D03*
Y94170D02*
D03*
Y95260D02*
D03*
Y96350D02*
D03*
D46*
X152362Y92530D02*
D03*
D47*
X109740Y109740D02*
D03*
X107880Y110050D02*
D03*
X103850Y115940D02*
D03*
X101680Y114700D02*
D03*
X132680Y83700D02*
D03*
X123070Y83390D02*
D03*
X125240Y87110D02*
D03*
X124310D02*
D03*
X126790Y81530D02*
D03*
X125860D02*
D03*
Y82460D02*
D03*
X126790D02*
D03*
X125240Y88040D02*
D03*
X123070Y84320D02*
D03*
X119040D02*
D03*
X117180Y108810D02*
D03*
X118110D02*
D03*
X119040D02*
D03*
X119970D02*
D03*
Y109740D02*
D03*
X119040D02*
D03*
X118110D02*
D03*
X117180D02*
D03*
X126790Y80600D02*
D03*
X113460Y84320D02*
D03*
X117180Y106950D02*
D03*
X118110D02*
D03*
X119040D02*
D03*
X119970D02*
D03*
Y107880D02*
D03*
X119040D02*
D03*
X118110D02*
D03*
X117180D02*
D03*
X119040Y83390D02*
D03*
X113460Y82460D02*
D03*
X114390D02*
D03*
X115320D02*
D03*
X116250D02*
D03*
X117180D02*
D03*
X119970Y110980D02*
D03*
X119040D02*
D03*
X118110D02*
D03*
X113460Y83390D02*
D03*
X108810D02*
D03*
X109740D02*
D03*
X110670D02*
D03*
X111600D02*
D03*
X112530D02*
D03*
Y82460D02*
D03*
X111600D02*
D03*
X110670D02*
D03*
X109740D02*
D03*
X108810D02*
D03*
X114390Y83390D02*
D03*
X115320D02*
D03*
X116250D02*
D03*
X117180D02*
D03*
X118110D02*
D03*
X112530Y84320D02*
D03*
X111600D02*
D03*
X110670D02*
D03*
X109740D02*
D03*
X108810D02*
D03*
X122140Y80600D02*
D03*
X123070D02*
D03*
X124000D02*
D03*
X124930D02*
D03*
X125860D02*
D03*
X118110Y84320D02*
D03*
X117180D02*
D03*
X116250D02*
D03*
X115320D02*
D03*
X114390D02*
D03*
X124930Y82460D02*
D03*
X124000D02*
D03*
X123070D02*
D03*
X122140D02*
D03*
X121210D02*
D03*
Y81530D02*
D03*
X122140D02*
D03*
X123070D02*
D03*
X124000D02*
D03*
X124930D02*
D03*
X112530Y114700D02*
D03*
X113460D02*
D03*
X114390D02*
D03*
Y113770D02*
D03*
X113460D02*
D03*
X131440Y109430D02*
D03*
X132370D02*
D03*
X133300D02*
D03*
X114390Y115630D02*
D03*
X113460D02*
D03*
X112530D02*
D03*
X111600D02*
D03*
X134230Y110360D02*
D03*
X133300D02*
D03*
X132370D02*
D03*
X131440D02*
D03*
X146630Y98270D02*
D03*
X147560D02*
D03*
X148490D02*
D03*
X149420D02*
D03*
X150350D02*
D03*
Y99200D02*
D03*
X149420D02*
D03*
X148490D02*
D03*
X147560D02*
D03*
X146630D02*
D03*
Y96410D02*
D03*
X147560D02*
D03*
X148490D02*
D03*
X149420D02*
D03*
X150350D02*
D03*
Y97340D02*
D03*
X149420D02*
D03*
X148490D02*
D03*
X147560D02*
D03*
X146630D02*
D03*
Y94550D02*
D03*
X147560D02*
D03*
X148490D02*
D03*
X149420D02*
D03*
X150350D02*
D03*
Y95480D02*
D03*
X149420D02*
D03*
X148490D02*
D03*
X147560D02*
D03*
X146630D02*
D03*
X143840Y98270D02*
D03*
X144770D02*
D03*
X145700D02*
D03*
Y99200D02*
D03*
X144770D02*
D03*
X143840D02*
D03*
Y96410D02*
D03*
X144770D02*
D03*
X145700D02*
D03*
Y97340D02*
D03*
X144770D02*
D03*
X143840D02*
D03*
Y94550D02*
D03*
X144770D02*
D03*
X145700D02*
D03*
Y95480D02*
D03*
X144770D02*
D03*
X143840D02*
D03*
X119040Y112840D02*
D03*
X118110D02*
D03*
X121830Y107880D02*
D03*
X122760D02*
D03*
X124000Y83390D02*
D03*
Y84320D02*
D03*
X122760Y106950D02*
D03*
X121830D02*
D03*
X119040Y111910D02*
D03*
X119970D02*
D03*
X120900Y108810D02*
D03*
X122760Y109740D02*
D03*
X121830D02*
D03*
X117180Y113770D02*
D03*
X118110D02*
D03*
Y114700D02*
D03*
X117180D02*
D03*
X121830Y108810D02*
D03*
X122760D02*
D03*
X120900Y109740D02*
D03*
Y106950D02*
D03*
Y107880D02*
D03*
X128340Y105400D02*
D03*
Y107260D02*
D03*
Y106330D02*
D03*
X119040Y114700D02*
D03*
X119970D02*
D03*
X113460Y108810D02*
D03*
X114390D02*
D03*
X128340Y108190D02*
D03*
X119970Y113770D02*
D03*
X119040D02*
D03*
X113460Y90210D02*
D03*
Y89280D02*
D03*
X121830Y110980D02*
D03*
X120900D02*
D03*
X112530Y109740D02*
D03*
X118110Y82460D02*
D03*
X120280Y81530D02*
D03*
X119350Y80600D02*
D03*
X120280D02*
D03*
X121210D02*
D03*
X114390Y110670D02*
D03*
X113460D02*
D03*
X112530D02*
D03*
X111600D02*
D03*
X120900Y111910D02*
D03*
X119970Y112840D02*
D03*
X120900D02*
D03*
X113460Y109740D02*
D03*
X114390D02*
D03*
X129580Y84320D02*
D03*
X130820Y82770D02*
D03*
X123690Y109740D02*
D03*
X122140Y83390D02*
D03*
X127720Y82460D02*
D03*
X131750Y82770D02*
D03*
X113460Y107880D02*
D03*
X129890Y81840D02*
D03*
X130820D02*
D03*
X128650Y83390D02*
D03*
X127720D02*
D03*
X126790D02*
D03*
X125860D02*
D03*
X124930D02*
D03*
Y84320D02*
D03*
X125860D02*
D03*
X126790D02*
D03*
X127720D02*
D03*
X128650D02*
D03*
X108000Y102300D02*
D03*
X127450Y95650D02*
D03*
X125950D02*
D03*
X126701D02*
D03*
X129134Y94291D02*
D03*
X117244Y98425D02*
D03*
X124701Y103300D02*
D03*
X129185Y103346D02*
D03*
X112992Y91732D02*
D03*
X113386Y100000D02*
D03*
X121654Y85630D02*
D03*
X122638Y91732D02*
D03*
X122244Y101181D02*
D03*
X131299Y97047D02*
D03*
X130906Y101575D02*
D03*
X129921Y105512D02*
D03*
X134252Y94291D02*
D03*
X137205Y98622D02*
D03*
X136614Y105512D02*
D03*
Y114961D02*
D03*
X104134Y86929D02*
D03*
X109843Y104921D02*
D03*
X116614Y87008D02*
D03*
X142520Y104921D02*
D03*
X129134Y97047D02*
D03*
X128937Y98425D02*
D03*
X123228Y101181D02*
D03*
X137795Y102717D02*
D03*
X126181Y89961D02*
D03*
D48*
X112220Y111819D02*
D03*
X112831D02*
D03*
X111610D02*
D03*
X138992D02*
D03*
X139602D02*
D03*
X138382D02*
D03*
X146079D02*
D03*
X146689D02*
D03*
X145469D02*
D03*
X105528D02*
D03*
X106138D02*
D03*
X104917D02*
D03*
X132299D02*
D03*
X132909D02*
D03*
X131689D02*
D03*
X152378D02*
D03*
X152988D02*
D03*
X151768D02*
D03*
M02*
