%FSLAX24Y24*%
%MOIN*%
G70*
G01*
G75*
G04 Layer_Physical_Order=2*
G04 Layer_Color=16711680*
%ADD10C,0.0300*%
%ADD11C,0.0394*%
%ADD12C,0.0197*%
%ADD13C,0.0200*%
%ADD14C,0.0295*%
%ADD15O,0.0551X0.0850*%
%ADD16R,0.0551X0.0850*%
%ADD17C,0.0984*%
%ADD18O,0.1004X0.0984*%
%ADD19C,0.0700*%
%ADD20C,0.0866*%
%ADD21R,0.0700X0.0700*%
%ADD22R,0.0700X0.0700*%
%ADD23C,0.1969*%
%ADD24C,0.2000*%
%ADD25C,0.0800*%
%ADD26R,0.0800X0.0800*%
%ADD27C,0.0400*%
%ADD28R,0.0394X0.0394*%
%ADD29C,0.0400*%
G36*
X131290Y88690D02*
X132610D01*
Y88690D01*
X132675Y88734D01*
X132900Y88640D01*
D01*
X133022Y88583D01*
D01*
X133022Y88583D01*
X133152Y88270D01*
X133416Y88006D01*
Y86810D01*
X132240D01*
Y86810D01*
X132175Y86767D01*
X131950Y86860D01*
X131445Y86650D01*
X131427Y86607D01*
X128585D01*
X125865Y89327D01*
X125976Y89494D01*
X126181Y89409D01*
X126447Y89519D01*
X131290D01*
Y88690D01*
D02*
G37*
G36*
X99164Y102836D02*
X97944D01*
X97892Y102962D01*
X97323Y103198D01*
X96754Y102962D01*
X96723Y102886D01*
X96526Y102925D01*
Y103862D01*
X96723Y103901D01*
X96754Y103825D01*
X97323Y103589D01*
X97892Y103825D01*
X98127Y104394D01*
X97892Y104962D01*
X97323Y105198D01*
X96754Y104962D01*
X96723Y104886D01*
X96526Y104925D01*
Y105862D01*
X96723Y105901D01*
X96754Y105825D01*
X97323Y105589D01*
X97892Y105825D01*
X97944Y105952D01*
X99164D01*
Y102836D01*
D02*
G37*
G36*
X135167Y90383D02*
Y89301D01*
X135167D01*
X135176Y89287D01*
X135167Y89301D01*
X135203Y89243D01*
X135109D01*
Y89243D01*
X133789D01*
Y89243D01*
X133752D01*
X133657Y89419D01*
X133724Y89519D01*
X133858D01*
X134171Y89648D01*
X134982Y90459D01*
X135167Y90383D01*
D02*
G37*
G36*
X112971Y105696D02*
Y104965D01*
X112805Y104854D01*
X112343Y105045D01*
X111837Y104836D01*
X111662Y104412D01*
X111466Y104451D01*
Y105697D01*
X111636Y105730D01*
X111636D01*
D01*
X112205Y105495D01*
X112773Y105730D01*
X112775Y105735D01*
X112971Y105696D01*
D02*
G37*
G36*
X104511Y91723D02*
Y90748D01*
X104640Y90435D01*
X104654Y90430D01*
X104719Y90364D01*
X104680Y90168D01*
X104453Y90074D01*
X104453Y90074D01*
X104448Y90072D01*
X104342Y89817D01*
X104022Y89497D01*
X103883Y89636D01*
X104359Y90113D01*
X103953Y90281D01*
X103693Y90174D01*
X103613Y90227D01*
Y90227D01*
X102585D01*
Y90474D01*
X102816Y90723D01*
X103307D01*
X103347Y90739D01*
X103389Y90729D01*
X103518Y90810D01*
X103659Y90868D01*
X103676Y90908D01*
X103712Y90931D01*
X104320Y91784D01*
X104511Y91723D01*
D02*
G37*
G36*
X131615Y93022D02*
X131615Y93022D01*
X131615D01*
X131623Y93018D01*
Y92983D01*
X131623D01*
Y91663D01*
X131841D01*
Y91211D01*
X131623D01*
Y90403D01*
X130975D01*
Y91211D01*
X130757D01*
Y91701D01*
X130726Y91777D01*
Y91792D01*
X130789Y91818D01*
X130998Y92323D01*
X130789Y92828D01*
X130658Y92882D01*
X130701Y92986D01*
X131201Y93194D01*
X131615Y93022D01*
D02*
G37*
G36*
X139266Y98580D02*
Y94164D01*
X139104D01*
Y92844D01*
X139266D01*
Y91860D01*
X138540D01*
Y90540D01*
X138540Y90540D01*
X138540D01*
X138553Y90477D01*
X138526Y90466D01*
X138317Y89961D01*
X138430Y89688D01*
X138289Y89547D01*
X137827Y89738D01*
X137327Y89531D01*
X136827Y89738D01*
X136653Y89666D01*
X136487Y89777D01*
Y90621D01*
X136487Y90621D01*
X136487D01*
X136474Y90684D01*
X136500Y90695D01*
X136710Y91200D01*
X136710Y91200D01*
X136710Y91200D01*
X136815Y91358D01*
X137272D01*
X137585Y91487D01*
X137585D01*
X138698Y92601D01*
X138828Y92913D01*
X138828Y92913D01*
Y92913D01*
Y98757D01*
X139013Y98833D01*
X139266Y98580D01*
D02*
G37*
G36*
X99558Y107050D02*
X99380Y106836D01*
X97944D01*
X97892Y106962D01*
X97323Y107198D01*
X96754Y106962D01*
X96723Y106886D01*
X96526Y106925D01*
Y107862D01*
X96723Y107901D01*
X96754Y107825D01*
X97323Y107589D01*
X97892Y107825D01*
X98127Y108394D01*
X97892Y108962D01*
X97323Y109198D01*
X96754Y108962D01*
X96723Y108886D01*
X96526Y108925D01*
Y109862D01*
X96723Y109901D01*
X96754Y109825D01*
X97323Y109589D01*
X97892Y109825D01*
X97944Y109952D01*
X99558D01*
Y107050D01*
D02*
G37*
G36*
X105463Y86305D02*
Y85896D01*
X105246D01*
Y85896D01*
X105108Y85805D01*
X104756Y85951D01*
X104256Y85743D01*
X104256Y85744D01*
X104251Y85741D01*
X104145Y85486D01*
X103825Y85167D01*
X103686Y85306D01*
X104163Y85782D01*
X103756Y85951D01*
X103496Y85843D01*
X103416Y85896D01*
Y85896D01*
X102585D01*
Y86471D01*
X103071D01*
X103423Y86616D01*
X103500Y86693D01*
D01*
X103696Y86654D01*
X103711Y86616D01*
X103744Y86539D01*
X104134Y86377D01*
X104524Y86539D01*
X104662Y86871D01*
X104858Y86910D01*
X105463Y86305D01*
D02*
G37*
G36*
X135322Y88518D02*
X135827Y88309D01*
X136327Y88516D01*
X136827Y88309D01*
X137327Y88516D01*
X137827Y88309D01*
X138218Y88471D01*
X138385Y88360D01*
Y86961D01*
X138385Y86961D01*
X138385D01*
X138474Y86745D01*
X138398Y86560D01*
X138420Y86570D01*
X138896Y86093D01*
X138757Y85954D01*
X138438Y86274D01*
X138332Y86529D01*
X138327Y86531D01*
X138327Y86531D01*
X137827Y86738D01*
X137327Y86531D01*
X136827Y86738D01*
X136567Y86630D01*
X136487Y86684D01*
Y86684D01*
X135167D01*
Y86684D01*
X135121D01*
X134995Y86989D01*
X134518Y86513D01*
X134379Y86652D01*
X134856Y87129D01*
X134449Y87297D01*
X134449Y87297D01*
X134449Y87297D01*
X134300Y87396D01*
Y87923D01*
X135109D01*
Y88520D01*
X135305Y88559D01*
X135322Y88518D01*
D02*
G37*
G36*
X155442Y106400D02*
Y103260D01*
X155246Y103221D01*
X155230Y103261D01*
X154724Y103470D01*
X154724Y103470D01*
Y103470D01*
X154724D01*
D01*
X154657Y103538D01*
X154679Y103591D01*
X154470Y104096D01*
X154407Y104122D01*
Y106144D01*
X154598Y106335D01*
X154724Y106282D01*
X155276Y106511D01*
X155442Y106400D01*
D02*
G37*
G36*
X140790Y90002D02*
X140893Y89960D01*
X141142Y89856D01*
X142152D01*
X142263Y89690D01*
X142199Y89535D01*
X142244Y89427D01*
X142103Y89285D01*
X141732Y89439D01*
X141533Y89356D01*
X141408Y89440D01*
Y89440D01*
X140178D01*
X139720Y89898D01*
X139746Y89961D01*
X139552Y90429D01*
X139552Y90429D01*
X139552Y90429D01*
X139537Y90466D01*
Y90466D01*
X139551Y90540D01*
X139860D01*
Y90671D01*
X140045Y90747D01*
X140790Y90002D01*
D02*
G37*
G36*
X143459Y89129D02*
X143419Y89030D01*
X143590Y88996D01*
Y88340D01*
X143590D01*
X143657Y88240D01*
X143577Y88047D01*
X143786Y87542D01*
X144291Y87333D01*
X144491Y87415D01*
X144616Y87332D01*
Y87332D01*
X145936D01*
Y87332D01*
X146060Y87415D01*
X146260Y87333D01*
X146765Y87542D01*
X146974Y88047D01*
X146898Y88231D01*
X147039Y88373D01*
X147250Y88286D01*
X147250Y88286D01*
X147250Y88286D01*
X147299Y88253D01*
X147241Y88062D01*
X147175D01*
Y86900D01*
X147128Y86854D01*
X146999Y86541D01*
Y85503D01*
X146920D01*
Y85363D01*
X146329Y84773D01*
X146260Y84842D01*
X146190Y84773D01*
X145859Y85105D01*
X145781Y85293D01*
X145600Y85367D01*
Y85503D01*
X145475Y85419D01*
D01*
X145276Y85502D01*
X145076Y85419D01*
X144951Y85503D01*
Y85503D01*
X144733D01*
Y85827D01*
X144604Y86139D01*
X143817Y86927D01*
X143504Y87056D01*
X143377D01*
Y87274D01*
X143377D01*
X143323Y87354D01*
X143431Y87614D01*
X143262Y88021D01*
X142786Y87545D01*
X142647Y87684D01*
X143123Y88160D01*
X142717Y88329D01*
X142434Y88212D01*
X142293Y88353D01*
X142447Y88724D01*
X142402Y88833D01*
X142543Y88974D01*
X142913Y88821D01*
X143320Y88990D01*
X142844Y89466D01*
X142983Y89605D01*
X143459Y89129D01*
D02*
G37*
G36*
X99164Y85648D02*
X98659Y85142D01*
X97951D01*
X97892Y85285D01*
X97323Y85521D01*
X96754Y85285D01*
X96723Y85209D01*
X96526Y85248D01*
Y86185D01*
X96723Y86224D01*
X96754Y86148D01*
X97323Y85912D01*
X97892Y86148D01*
X98127Y86717D01*
X97892Y87285D01*
X97323Y87521D01*
X96754Y87285D01*
X96723Y87209D01*
X96526Y87248D01*
Y88185D01*
X96723Y88224D01*
X96754Y88148D01*
X97323Y87912D01*
X97892Y88148D01*
X97937Y88259D01*
X98762D01*
X98819Y88235D01*
X98876Y88259D01*
X99164D01*
Y85648D01*
D02*
G37*
G36*
X136487Y101308D02*
X136690D01*
X136798Y101048D01*
X137383Y100463D01*
X137353Y100313D01*
X137176Y100218D01*
X136701Y100415D01*
X136309Y100253D01*
X136143Y100364D01*
Y100520D01*
X136013Y100832D01*
X135722Y101124D01*
X135798Y101308D01*
X136487D01*
Y101308D01*
D02*
G37*
G36*
X127200Y96400D02*
X127250Y96350D01*
X127800D01*
X128000Y96150D01*
Y95550D01*
Y95500D01*
X127700Y95200D01*
X125750D01*
X125450Y95500D01*
Y96100D01*
X125700Y96350D01*
X126150D01*
X126500Y96700D01*
X126900D01*
X127200Y96400D01*
D02*
G37*
G36*
X133701Y98986D02*
X133764Y99013D01*
X134467Y98309D01*
X134780Y98180D01*
X136939D01*
X137205Y98070D01*
X137595Y98232D01*
X137675Y98425D01*
X137748Y98600D01*
X137944Y98561D01*
Y94495D01*
X137777Y94383D01*
X137701Y94415D01*
X137201Y94208D01*
X136701Y94415D01*
X136201Y94208D01*
X135701Y94415D01*
X135201Y94208D01*
X134763Y94389D01*
X134642Y94682D01*
X134377Y94792D01*
X133143Y96026D01*
Y99038D01*
X133309Y99149D01*
X133701Y98986D01*
D02*
G37*
G36*
X126945Y109750D02*
X127200Y109500D01*
Y109250D01*
Y108550D01*
Y99847D01*
X127151Y99837D01*
X127110Y99937D01*
X127035Y100035D01*
X126937Y100110D01*
X126823Y100157D01*
X126751Y100166D01*
Y99701D01*
X126701D01*
Y99651D01*
X126235D01*
X126229Y99701D01*
X126232Y99724D01*
X126182Y99727D01*
Y100000D01*
X125571Y100600D01*
X125164Y101000D01*
Y101100D01*
Y103700D01*
X124400Y104450D01*
Y105350D01*
Y108450D01*
X125469Y109500D01*
X125775Y109800D01*
X126895D01*
X126945Y109750D01*
D02*
G37*
G36*
X116692Y98425D02*
X116692Y98425D01*
X116692D01*
X116802Y98160D01*
Y97427D01*
X116667Y97292D01*
X115969D01*
X115858Y97459D01*
X115919Y97606D01*
X115712Y98106D01*
X115899Y98557D01*
X116604D01*
X116692Y98425D01*
D02*
G37*
G36*
X104584Y96161D02*
X104640Y96026D01*
X105621Y95045D01*
D01*
Y94558D01*
X105442Y94558D01*
Y94558D01*
X105305Y94466D01*
X104953Y94612D01*
X104453Y94405D01*
X104453Y94405D01*
X104448Y94403D01*
X104342Y94148D01*
X104022Y93828D01*
X103883Y93967D01*
X104359Y94444D01*
X103953Y94612D01*
X103693Y94504D01*
X103613Y94558D01*
Y94558D01*
X102388D01*
Y95289D01*
X103386D01*
X103738Y95435D01*
X103738Y95435D01*
X103738Y95435D01*
X104328Y96026D01*
X104359Y96100D01*
X104371Y96129D01*
X104384Y96161D01*
X104584D01*
D02*
G37*
G36*
X104559Y100514D02*
X104818Y100621D01*
X104940Y100540D01*
Y100540D01*
X105857D01*
Y98783D01*
X105691Y98672D01*
X105600Y98710D01*
X105282Y98578D01*
X105097Y98654D01*
X105064Y98733D01*
X104559Y98943D01*
X104059Y98736D01*
X104059Y98736D01*
X104054Y98734D01*
X103948Y98478D01*
X103629Y98159D01*
X103489Y98298D01*
X103966Y98774D01*
X103559Y98943D01*
X103299Y98835D01*
X103219Y98888D01*
Y98888D01*
X102610D01*
X102533Y99073D01*
D01*
X102765Y99305D01*
X102890D01*
X103242Y99451D01*
X103242Y99451D01*
X103242Y99451D01*
X103911Y100120D01*
X103954Y100223D01*
X104057Y100472D01*
Y100542D01*
X104223Y100653D01*
X104559Y100514D01*
D02*
G37*
G36*
X110582Y103529D02*
Y102756D01*
X110582Y102756D01*
X110582D01*
X110711Y102443D01*
X111425Y101729D01*
X111314Y101563D01*
X111169Y101623D01*
X109252D01*
X108742Y102133D01*
X108854Y102299D01*
X109000Y102238D01*
X109505Y102448D01*
X109714Y102953D01*
X109505Y103458D01*
X109465Y103475D01*
X109504Y103671D01*
X110440D01*
X110582Y103529D01*
D02*
G37*
G36*
X147250Y91286D02*
X147736Y91487D01*
X147917D01*
X147920Y91479D01*
X148425Y91270D01*
X148488Y91296D01*
X149325Y90459D01*
X149558Y90226D01*
Y89735D01*
X149409Y89636D01*
X149409Y89636D01*
Y89636D01*
X148936Y89440D01*
X148418D01*
X148333Y89567D01*
X148333Y89567D01*
X148333D01*
X148187Y89919D01*
X147399Y90706D01*
X147047Y90852D01*
X145093D01*
X145017Y91037D01*
X145276Y91296D01*
X145750Y91493D01*
X146250Y91286D01*
X146750Y91493D01*
X147250Y91286D01*
D02*
G37*
G36*
X133291Y92668D02*
X133573D01*
X133931Y92520D01*
Y92520D01*
X133931Y92520D01*
X134141Y92015D01*
X134646Y91805D01*
X134910Y91915D01*
X135021Y91748D01*
X134074Y90802D01*
X133878Y90841D01*
X133829Y90958D01*
X133353Y90482D01*
X133214Y90621D01*
X133690Y91097D01*
X133283Y91266D01*
X133023Y91158D01*
X132943Y91211D01*
Y91211D01*
X132726D01*
Y91663D01*
X132943D01*
Y92632D01*
X133110Y92743D01*
X133291Y92668D01*
D02*
G37*
G36*
X99164Y89143D02*
X97951D01*
X97892Y89285D01*
X97323Y89521D01*
X96754Y89285D01*
X96723Y89209D01*
X96526Y89248D01*
Y90185D01*
X96723Y90224D01*
X96754Y90148D01*
X97323Y89912D01*
X97892Y90148D01*
X98127Y90717D01*
X97892Y91285D01*
X97323Y91521D01*
X96754Y91285D01*
X96723Y91209D01*
X96526Y91248D01*
Y92185D01*
X96723Y92224D01*
X96754Y92148D01*
X97323Y91912D01*
X97892Y92148D01*
X97928Y92235D01*
X99164D01*
Y89143D01*
D02*
G37*
G36*
X100440Y97471D02*
X100516Y97440D01*
X100490Y97310D01*
X100490D01*
X100490Y97310D01*
Y95990D01*
X101392D01*
Y95787D01*
Y94239D01*
X101226Y94128D01*
X101150Y94160D01*
X100645Y93950D01*
X100436Y93445D01*
X100536Y93202D01*
X100521Y93180D01*
X100521D01*
Y91860D01*
X101328D01*
X101392Y91835D01*
Y91835D01*
X101392Y91835D01*
X101467Y91668D01*
X101538Y91498D01*
X101545Y91495D01*
X101549Y91488D01*
X101879Y91177D01*
X101722Y91008D01*
X101658Y90837D01*
D01*
X101589Y90669D01*
Y90041D01*
X101422Y89929D01*
X101181Y90029D01*
X100676Y89820D01*
X100467Y89315D01*
X100607Y88977D01*
X100521Y88849D01*
X100521D01*
Y87529D01*
X101589D01*
Y86969D01*
X101589Y86968D01*
X101589D01*
Y85710D01*
X101422Y85599D01*
X101181Y85699D01*
X100676Y85489D01*
X100467Y84984D01*
X100676Y84479D01*
X100744Y84451D01*
X100718Y84321D01*
X100718D01*
X100718Y84321D01*
Y83001D01*
X101688D01*
X101735Y82955D01*
X101735Y82955D01*
X101735Y82955D01*
X102246Y82443D01*
X102349Y82400D01*
X102598Y82297D01*
X103244D01*
X103420Y82370D01*
X103596Y82443D01*
X104108Y82955D01*
X104118Y82978D01*
X104232Y82956D01*
X104314Y82939D01*
Y82874D01*
D01*
D01*
X104379Y82717D01*
X104443Y82561D01*
X105177Y81828D01*
X105199Y81774D01*
X105376Y81597D01*
X105318Y81406D01*
X105267Y81396D01*
X105261Y81411D01*
X104756Y81620D01*
X104256Y81413D01*
X104256Y81413D01*
X104251Y81411D01*
X104145Y81155D01*
X103895Y80906D01*
X104145Y80656D01*
X104251Y80400D01*
X104256Y80398D01*
X104256Y80398D01*
X104756Y80191D01*
X105079Y80325D01*
X105246Y80214D01*
Y80049D01*
X106566D01*
Y80246D01*
X106623D01*
Y80246D01*
X107943D01*
Y80463D01*
X118150D01*
X118154Y80465D01*
X118159Y80464D01*
X118310Y80530D01*
X118462Y80593D01*
X118464Y80598D01*
X118469Y80600D01*
X122957Y85285D01*
X123017Y85438D01*
X123037Y85486D01*
X123080Y85591D01*
Y90601D01*
X123265Y90677D01*
X128089Y85853D01*
X128402Y85723D01*
X131410D01*
X131445Y85640D01*
X131950Y85431D01*
X132184Y85528D01*
X132240Y85490D01*
Y85490D01*
X133416D01*
Y84912D01*
X133198D01*
Y83592D01*
X134518D01*
Y83592D01*
X134598Y83645D01*
X134858Y83538D01*
X135179Y83670D01*
X135364Y83594D01*
X135463Y83353D01*
X135969Y83144D01*
X136474Y83353D01*
X136683Y83858D01*
X136657Y83921D01*
X136742Y84007D01*
X138513D01*
Y83337D01*
X139104Y83928D01*
X139173Y83858D01*
X139243Y83928D01*
X139833Y83337D01*
Y84042D01*
D01*
X140061Y84136D01*
X140263Y84337D01*
X140362Y84576D01*
X140392Y84650D01*
Y84650D01*
Y85581D01*
X140551Y85687D01*
X140551Y85687D01*
Y85687D01*
X140927Y85843D01*
X141093Y85732D01*
Y85503D01*
X140875D01*
Y84183D01*
X140875D01*
X140929Y84103D01*
X140821Y83843D01*
X140990Y83436D01*
X141466Y83912D01*
X141535Y83843D01*
X141605Y83912D01*
X142081Y83436D01*
X142250Y83843D01*
X142142Y84103D01*
X142195Y84183D01*
X142195D01*
Y85503D01*
X141978D01*
Y85954D01*
X142057D01*
Y85954D01*
X143377D01*
X143377Y85954D01*
Y85954D01*
X143491Y86002D01*
X143806Y85687D01*
X143729Y85503D01*
X143631D01*
Y84183D01*
X144713D01*
X144790Y83998D01*
X143979Y83187D01*
X143849Y82874D01*
Y81474D01*
X143166Y80791D01*
X142970Y80830D01*
X142956Y80864D01*
X142416Y80324D01*
X142346Y80394D01*
X142277Y80324D01*
X141737Y80864D01*
X141579Y80482D01*
X141382Y80443D01*
X140952Y80873D01*
X140915Y80962D01*
X140826Y80999D01*
X140663Y81163D01*
X140350Y81292D01*
X140037Y81163D01*
X139991Y81051D01*
X139778Y80962D01*
X139542Y80394D01*
X139778Y79825D01*
X139854Y79793D01*
X139815Y79597D01*
X138878D01*
X138839Y79793D01*
X138817Y79784D01*
X138346Y80255D01*
X137876Y79784D01*
X137854Y79793D01*
X137815Y79597D01*
X136878D01*
X136839Y79793D01*
X136915Y79825D01*
X137151Y80394D01*
X136915Y80962D01*
X136346Y81198D01*
X135778Y80962D01*
X135542Y80394D01*
X135778Y79825D01*
X135854Y79793D01*
X135815Y79597D01*
X134878D01*
X134839Y79793D01*
X134817Y79784D01*
X134346Y80255D01*
X133876Y79784D01*
X133854Y79793D01*
X133815Y79597D01*
X132878D01*
X132839Y79793D01*
X132915Y79825D01*
X133151Y80394D01*
X132915Y80962D01*
X132346Y81198D01*
X131778Y80962D01*
X131542Y80394D01*
X131778Y79825D01*
X131854Y79793D01*
X131815Y79597D01*
X130878D01*
X130839Y79793D01*
X130817Y79784D01*
X130346Y80255D01*
X129876Y79784D01*
X129854Y79793D01*
X129815Y79597D01*
X128878D01*
X128839Y79793D01*
X128915Y79825D01*
X129151Y80394D01*
X128915Y80962D01*
X128346Y81198D01*
X127778Y80962D01*
X127542Y80394D01*
X127778Y79825D01*
X127854Y79793D01*
X127815Y79597D01*
X101540D01*
X101501Y79793D01*
X101883Y79952D01*
X102005Y80246D01*
X102096D01*
X102096D01*
X102185Y80246D01*
Y80246D01*
X102185Y80246D01*
X103416D01*
Y80246D01*
X103496Y80299D01*
X103756Y80191D01*
X104163Y80360D01*
X103686Y80836D01*
X103756Y80906D01*
X103686Y80975D01*
X104163Y81451D01*
X103756Y81620D01*
X103496Y81512D01*
X103416Y81566D01*
Y81566D01*
X102096D01*
Y80961D01*
X101900Y80922D01*
X101883Y80962D01*
X101378Y81171D01*
X100873Y80962D01*
X100664Y80457D01*
X100873Y79952D01*
X101255Y79793D01*
X101216Y79597D01*
X98528D01*
X98417Y79764D01*
X98645Y80315D01*
X98275Y81207D01*
X97314Y80245D01*
X97174Y80384D01*
X98136Y81346D01*
X97244Y81716D01*
X96693Y81487D01*
X96526Y81599D01*
Y82185D01*
X96723Y82224D01*
X96754Y82148D01*
X97323Y81912D01*
X97892Y82148D01*
X98127Y82717D01*
X97892Y83285D01*
X97323Y83521D01*
X96754Y83285D01*
X96723Y83209D01*
X96526Y83248D01*
Y84185D01*
X96723Y84224D01*
X96754Y84148D01*
X97323Y83912D01*
X97892Y84148D01*
X97937Y84258D01*
X98842D01*
X99154Y84387D01*
X99154Y84387D01*
X99154Y84387D01*
X99919Y85152D01*
X99977Y85293D01*
X100048Y85465D01*
X100048Y85465D01*
Y85465D01*
Y88701D01*
X100048Y88701D01*
X100048Y88701D01*
Y88701D01*
Y92638D01*
Y92638D01*
Y92638D01*
Y92677D01*
Y92677D01*
Y92677D01*
Y96654D01*
X100048Y96654D01*
X100048Y96654D01*
Y96654D01*
Y97903D01*
X100245Y97943D01*
X100440Y97471D01*
D02*
G37*
G36*
X99164Y97096D02*
X97970D01*
X97892Y97285D01*
X97323Y97521D01*
X96754Y97285D01*
X96723Y97209D01*
X96526Y97248D01*
Y99862D01*
X96723Y99901D01*
X96754Y99825D01*
X97323Y99589D01*
X97892Y99825D01*
X98127Y100394D01*
X97892Y100962D01*
X97323Y101198D01*
X96754Y100962D01*
X96723Y100886D01*
X96526Y100925D01*
Y101862D01*
X96723Y101901D01*
X96754Y101825D01*
X97323Y101589D01*
X97892Y101825D01*
X97944Y101952D01*
X99164D01*
Y97096D01*
D02*
G37*
G36*
X96754Y96148D02*
X97323Y95912D01*
X97892Y96148D01*
X97918Y96211D01*
X99164D01*
Y93119D01*
X97960D01*
X97892Y93285D01*
X97323Y93521D01*
X96754Y93285D01*
X96723Y93209D01*
X96526Y93248D01*
Y94185D01*
X96723Y94224D01*
X96754Y94148D01*
X97323Y93912D01*
X97892Y94148D01*
X98127Y94717D01*
X97892Y95285D01*
X97323Y95521D01*
X96754Y95285D01*
X96723Y95209D01*
X96526Y95248D01*
Y96185D01*
X96723Y96224D01*
X96754Y96148D01*
D02*
G37*
G36*
X149421Y85821D02*
X149526Y85566D01*
X149531Y85564D01*
X149531Y85564D01*
X150031Y85356D01*
X150532Y85564D01*
X151032Y85356D01*
X151531Y85564D01*
X152031Y85356D01*
X152531Y85564D01*
X153032Y85356D01*
X153532Y85564D01*
X154031Y85356D01*
X154531Y85564D01*
X155031Y85356D01*
X155276Y85458D01*
X155442Y85347D01*
Y83795D01*
X155276Y83684D01*
X155031Y83785D01*
X154531Y83578D01*
X154031Y83785D01*
X153532Y83578D01*
X153032Y83785D01*
X152531Y83578D01*
X152031Y83785D01*
X151531Y83578D01*
X151032Y83785D01*
X150532Y83578D01*
X150031Y83785D01*
X149531Y83578D01*
X149031Y83785D01*
X148771Y83678D01*
X148692Y83731D01*
Y83731D01*
X148263D01*
X148187Y83916D01*
X148384Y84113D01*
X148529Y84465D01*
X148529Y84465D01*
X148529Y84465D01*
Y84465D01*
Y85384D01*
X148696Y85496D01*
X149031Y85356D01*
X149438Y85525D01*
X148962Y86001D01*
X149101Y86141D01*
X149421Y85821D01*
D02*
G37*
G36*
X106400Y117458D02*
Y117458D01*
D01*
X106164Y116890D01*
X106400Y116321D01*
X106487Y116285D01*
Y115354D01*
X106617Y115042D01*
X108613Y113045D01*
D01*
Y112414D01*
X108443Y112380D01*
X108443D01*
D01*
X107874Y112615D01*
X107305Y112380D01*
X107297Y112360D01*
X107098D01*
X107079Y112368D01*
X106173D01*
X106068Y112621D01*
X106060Y113431D01*
X106058Y113435D01*
X106060Y113440D01*
X105976Y113628D01*
X105896Y113817D01*
X105891Y113819D01*
X105889Y113824D01*
X105478Y114213D01*
Y116303D01*
X105521Y116321D01*
X105757Y116890D01*
X105521Y117458D01*
Y117458D01*
Y117458D01*
X105559Y117647D01*
X106362D01*
X106400Y117458D01*
D02*
G37*
G36*
X104384D02*
Y117458D01*
D01*
X104148Y116890D01*
X104381Y116330D01*
Y113976D01*
X104384Y113969D01*
X104381Y113961D01*
X104464Y113776D01*
X104541Y113588D01*
X104549Y113585D01*
X104552Y113578D01*
X104965Y113187D01*
X104972Y112510D01*
X104831Y112368D01*
X103945D01*
X103945Y112368D01*
X103926Y112360D01*
X103727D01*
X103718Y112380D01*
X103150Y112615D01*
X102581Y112380D01*
X102345Y111811D01*
X102581Y111242D01*
X103150Y111007D01*
X103718Y111242D01*
X103727Y111262D01*
X103937D01*
X103956Y111270D01*
X104917D01*
X105018Y111312D01*
X105408D01*
X105528Y111262D01*
X105530Y111264D01*
X105533Y111262D01*
X105649Y111312D01*
X106072D01*
X106173Y111270D01*
X107068D01*
X107087Y111262D01*
X107087Y111262D01*
X107297D01*
X107305Y111242D01*
X107874Y111007D01*
X108443Y111242D01*
X108505Y111392D01*
X108705D01*
X108743Y111302D01*
X111763Y108281D01*
Y107000D01*
X111608Y106874D01*
X111466Y106902D01*
Y107622D01*
X111336Y107935D01*
X109958Y109313D01*
X109646Y109442D01*
X101909D01*
X101883Y109505D01*
X101378Y109714D01*
X100873Y109505D01*
X100664Y109000D01*
X100804Y108662D01*
X100718Y108534D01*
X100718D01*
Y107332D01*
X100442D01*
Y110394D01*
X100434Y110413D01*
X100442Y110433D01*
Y113606D01*
X100425Y113648D01*
X100433Y113693D01*
X100362Y113800D01*
X100313Y113919D01*
X100271Y113936D01*
X100245Y113974D01*
X99064Y114762D01*
X98938Y114787D01*
X98819Y114836D01*
X97944D01*
X97892Y114962D01*
X97323Y115198D01*
X96754Y114962D01*
X96723Y114886D01*
X96526Y114925D01*
Y115646D01*
X96693Y115757D01*
X97244Y115528D01*
X98136Y115898D01*
X97174Y116860D01*
X97314Y116999D01*
X98275Y116037D01*
X98645Y116929D01*
X98417Y117481D01*
X98528Y117647D01*
X102347D01*
X102384Y117458D01*
Y117458D01*
D01*
X102148Y116890D01*
X102384Y116321D01*
X102953Y116085D01*
X103521Y116321D01*
X103757Y116890D01*
X103521Y117458D01*
Y117458D01*
Y117458D01*
X103559Y117647D01*
X104347D01*
X104384Y117458D01*
D02*
G37*
G36*
X145403Y83099D02*
Y82017D01*
X146408D01*
Y81369D01*
X146190D01*
Y80049D01*
X147510D01*
Y80049D01*
X147590Y80102D01*
X147850Y79994D01*
X148356Y80204D01*
X148356Y80206D01*
X148553Y80167D01*
Y80049D01*
X149873D01*
Y80049D01*
X149952Y80102D01*
X150213Y79994D01*
X150718Y80204D01*
X150719Y80206D01*
X150915Y80167D01*
Y80188D01*
X151505Y80778D01*
X152096Y81369D01*
X151287D01*
X151210Y81553D01*
X152019Y82362D01*
X152031Y82356D01*
X152531Y82564D01*
X153032Y82356D01*
X153532Y82564D01*
X154031Y82356D01*
X154531Y82564D01*
X155031Y82356D01*
X155276Y82458D01*
X155442Y82347D01*
Y81599D01*
X155276Y81487D01*
X154724Y81716D01*
X153832Y81346D01*
X154794Y80384D01*
X154655Y80245D01*
X153693Y81207D01*
X153488Y80712D01*
X153288D01*
X153080Y81214D01*
X152575Y81423D01*
X152315Y81315D01*
X152235Y81369D01*
Y81282D01*
X152070Y81214D01*
X151964Y80959D01*
X151714Y80709D01*
X151964Y80459D01*
X152070Y80204D01*
X152235Y80135D01*
Y80049D01*
X152315Y80102D01*
X152575Y79994D01*
X153080Y80204D01*
X153125Y80312D01*
X153325D01*
X153552Y79764D01*
X153441Y79597D01*
X143484D01*
X143407Y79782D01*
X144604Y80979D01*
X144733Y81291D01*
Y82691D01*
X145218Y83176D01*
X145403Y83099D01*
D02*
G37*
G36*
X108400Y117458D02*
Y117458D01*
D01*
X108164Y116890D01*
X108381Y116368D01*
Y115354D01*
X108541Y114966D01*
X109329Y114179D01*
X109717Y114018D01*
X110615D01*
X111672Y112962D01*
Y112409D01*
X111610Y112368D01*
X110638D01*
X110638Y112368D01*
X110619Y112360D01*
X110420D01*
X110411Y112380D01*
X109843Y112615D01*
X109663Y112541D01*
X109497Y112652D01*
Y113228D01*
X109368Y113541D01*
X107371Y115537D01*
Y116252D01*
X107537Y116321D01*
X107773Y116890D01*
X107537Y117458D01*
Y117458D01*
Y117458D01*
X107575Y117647D01*
X108362D01*
X108400Y117458D01*
D02*
G37*
G36*
X99558Y113370D02*
Y110836D01*
X97944D01*
X97892Y110962D01*
X97323Y111198D01*
X96754Y110962D01*
X96723Y110886D01*
X96526Y110925D01*
Y111862D01*
X96723Y111901D01*
X96754Y111825D01*
X97323Y111589D01*
X97892Y111825D01*
X98127Y112394D01*
X97892Y112962D01*
X97323Y113198D01*
X96754Y112962D01*
X96723Y112886D01*
X96526Y112925D01*
Y113862D01*
X96723Y113901D01*
X96754Y113825D01*
X97323Y113589D01*
X97892Y113825D01*
X97944Y113952D01*
X98685D01*
X99558Y113370D01*
D02*
G37*
G36*
X143515Y117451D02*
X143439Y117419D01*
X143204Y116850D01*
X143420Y116328D01*
Y115582D01*
X142954Y115116D01*
X140370D01*
X139982Y114955D01*
X138689Y113662D01*
X137008Y115343D01*
X137005Y115351D01*
X136614Y115513D01*
X136224Y115351D01*
X136062Y114961D01*
X136224Y114570D01*
D01*
X136180Y114465D01*
X136131Y114391D01*
X135882Y114494D01*
X135377Y114285D01*
X135168Y113780D01*
X135377Y113274D01*
X135882Y113065D01*
X135889Y113068D01*
X136294Y112663D01*
X136255Y112467D01*
X136045Y112380D01*
X135810Y111811D01*
X136045Y111242D01*
X136614Y111007D01*
X136886Y111119D01*
X137052Y111008D01*
Y107890D01*
X136886Y107778D01*
X136614Y107891D01*
X136045Y107655D01*
X135810Y107087D01*
X136045Y106518D01*
X136119Y106488D01*
Y105649D01*
X136062Y105512D01*
X136119Y105375D01*
Y104991D01*
X135954D01*
Y103671D01*
X136626D01*
X136737Y103504D01*
X136652Y103300D01*
Y102629D01*
X136487D01*
Y102628D01*
X135167D01*
Y101940D01*
X134982Y101864D01*
X134958Y101887D01*
X134646Y102017D01*
X134427D01*
X134391Y102200D01*
X134293Y102159D01*
X133816Y102635D01*
X133955Y102774D01*
X134432Y102298D01*
X134600Y102705D01*
X134579Y102756D01*
X134577Y102760D01*
X134646Y102829D01*
X134646Y102829D01*
X134646Y102829D01*
X135151Y103038D01*
X135360Y103543D01*
X135151Y104048D01*
X134646Y104258D01*
X134646Y104258D01*
Y104258D01*
X134646D01*
D01*
X134578Y104325D01*
X134600Y104378D01*
X134574Y104441D01*
X134574Y104441D01*
X134958Y104825D01*
X135088Y105138D01*
X135088Y105138D01*
X135088Y105138D01*
Y105138D01*
Y106465D01*
X135214Y106518D01*
X135450Y107087D01*
X135214Y107655D01*
X134646Y107891D01*
X134077Y107655D01*
X133841Y107087D01*
X134077Y106518D01*
X134204Y106465D01*
Y105321D01*
X133949Y105066D01*
X133886Y105092D01*
X133381Y104883D01*
X133244Y104553D01*
X133044D01*
X132926Y104836D01*
X132421Y105045D01*
X131916Y104836D01*
X131707Y104331D01*
X131916Y103826D01*
X132421Y103616D01*
X132926Y103826D01*
X133063Y104156D01*
X133263D01*
X133381Y103873D01*
X133382Y103872D01*
X133421Y103676D01*
X132795Y103050D01*
D01*
X132732Y103077D01*
X132227Y102867D01*
X132018Y102362D01*
X132092Y102183D01*
X131981Y102017D01*
X131171D01*
X130906Y102127D01*
X130515Y101965D01*
X130353Y101575D01*
X130515Y101184D01*
X130906Y101023D01*
X131171Y101133D01*
X131356D01*
X131433Y100948D01*
X131388Y100903D01*
X131259Y100591D01*
Y100364D01*
X131092Y100253D01*
X130701Y100415D01*
X130201Y100208D01*
X129701Y100415D01*
X129201Y100208D01*
X128701Y100415D01*
X128201Y100208D01*
X128201Y100208D01*
X128196Y100206D01*
X128090Y99951D01*
X127840Y99701D01*
X128090Y99451D01*
X128196Y99196D01*
X128201Y99193D01*
X128201Y99194D01*
X128589Y99033D01*
Y98833D01*
X128547Y98816D01*
X128385Y98425D01*
X128547Y98035D01*
X128937Y97873D01*
X129202Y97983D01*
X129425D01*
X129738Y98113D01*
X130638Y99013D01*
X130701Y98986D01*
X131201Y99194D01*
X131701Y98986D01*
X132092Y99149D01*
X132259Y99038D01*
Y95843D01*
D01*
D01*
X132388Y95530D01*
X133434Y94485D01*
X133395Y94288D01*
X133201Y94208D01*
X132701Y94415D01*
X132201Y94208D01*
X131701Y94415D01*
X131201Y94208D01*
X130701Y94415D01*
X130201Y94208D01*
X130201Y94208D01*
X130196Y94206D01*
X130090Y93951D01*
X129770Y93631D01*
X129294Y93155D01*
X129701Y92986D01*
X129711Y92991D01*
X129778Y92828D01*
X129569Y92323D01*
X129778Y91818D01*
X129841Y91792D01*
Y91732D01*
X129873Y91656D01*
D01*
Y91211D01*
X129655D01*
Y91211D01*
X129575Y91158D01*
X129315Y91266D01*
X128908Y91097D01*
X129385Y90621D01*
X129245Y90482D01*
X128769Y90958D01*
X128601Y90551D01*
X128601Y90551D01*
X128601Y90551D01*
X128501Y90403D01*
X126447D01*
X126181Y90513D01*
X125791Y90351D01*
X125629Y89961D01*
X125714Y89755D01*
X125548Y89644D01*
X123670Y91522D01*
Y91860D01*
X124676D01*
Y91860D01*
X124756Y91913D01*
X125016Y91805D01*
X125521Y92015D01*
X125522Y92017D01*
X125718Y91978D01*
Y91860D01*
X127038D01*
Y91860D01*
X127118Y91913D01*
X127378Y91805D01*
X127883Y92015D01*
X128092Y92520D01*
X127883Y93025D01*
Y93025D01*
X128201Y93194D01*
X128701Y92986D01*
X129201Y93194D01*
X129201Y93194D01*
X129206Y93196D01*
X129312Y93451D01*
X129631Y93770D01*
X130107Y94247D01*
X129701Y94415D01*
X129701Y94415D01*
X129701Y94415D01*
X129621Y94448D01*
X129524Y94682D01*
X129134Y94843D01*
X128868Y94733D01*
X127896D01*
X127857Y94930D01*
X127937Y94963D01*
X128237Y95263D01*
X128336Y95500D01*
Y95550D01*
Y96150D01*
X128237Y96387D01*
X128037Y96587D01*
X127800Y96686D01*
X127389D01*
X127199Y96876D01*
Y99014D01*
X127365Y99125D01*
X127701Y98986D01*
X128108Y99155D01*
X127631Y99631D01*
X127701Y99701D01*
X127631Y99770D01*
X128108Y100247D01*
X127701Y100415D01*
X127701Y100415D01*
X127701Y100415D01*
X127536Y100526D01*
Y108550D01*
Y109250D01*
Y109500D01*
X127535Y109502D01*
X127536Y109503D01*
X127486Y109620D01*
X127437Y109737D01*
X127436Y109738D01*
X127435Y109739D01*
X127181Y109989D01*
D01*
X127130Y110039D01*
X127012Y110087D01*
X126895Y110136D01*
X125775D01*
X125657Y110087D01*
X125539Y110039D01*
X125234Y109739D01*
X124165Y108689D01*
X124164Y108688D01*
X124163Y108687D01*
X124114Y108570D01*
X124064Y108453D01*
X124065Y108452D01*
X124064Y108450D01*
Y106586D01*
X123898Y106475D01*
X123681Y106564D01*
X123275Y106396D01*
X123751Y105920D01*
X123682Y105850D01*
X123751Y105780D01*
X123275Y105304D01*
X123681Y105136D01*
X123898Y105225D01*
X124064Y105114D01*
Y104450D01*
X124065Y104448D01*
X124064Y104447D01*
X124114Y104330D01*
X124163Y104213D01*
X124164Y104212D01*
X124165Y104211D01*
X124451Y103929D01*
X124413Y103733D01*
X124310Y103690D01*
X124149Y103300D01*
X124239Y103083D01*
X124097Y102941D01*
X123800Y103064D01*
X123393Y102896D01*
X123870Y102420D01*
X123800Y102350D01*
X123870Y102280D01*
X123393Y101804D01*
X123295Y101845D01*
X123270Y101904D01*
X123194Y101719D01*
X122963Y101623D01*
X122510D01*
X122244Y101733D01*
X121854Y101571D01*
X121692Y101181D01*
X121854Y100791D01*
X122244Y100629D01*
X122510Y100739D01*
X122963D01*
X123228Y100629D01*
X123619Y100791D01*
X123780Y101181D01*
X123649Y101498D01*
X123790Y101640D01*
X123800Y101636D01*
X124091Y101756D01*
X124257Y101645D01*
Y100365D01*
X124091Y100254D01*
X123701Y100415D01*
X123201Y100208D01*
X122701Y100415D01*
X122201Y100208D01*
X121701Y100415D01*
X121201Y100208D01*
X120701Y100415D01*
X120293Y100246D01*
X120127Y100358D01*
Y100718D01*
X120345D01*
Y102038D01*
X119025D01*
Y100718D01*
X119243D01*
Y100371D01*
X119077Y100259D01*
X118701Y100415D01*
X118196Y100206D01*
X117986Y99701D01*
X118196Y99196D01*
X118701Y98986D01*
X119201Y99194D01*
X119701Y98986D01*
X120201Y99194D01*
X120701Y98986D01*
X121201Y99194D01*
X121701Y98986D01*
X122201Y99194D01*
X122701Y98986D01*
X123201Y99194D01*
X123701Y98986D01*
X124201Y99194D01*
X124701Y98986D01*
X125201Y99194D01*
X125701Y98986D01*
X126037Y99125D01*
X126203Y99014D01*
Y96877D01*
X126011Y96686D01*
X125700D01*
X125463Y96587D01*
X125213Y96337D01*
X125114Y96100D01*
Y95500D01*
X125213Y95263D01*
X125513Y94963D01*
X125593Y94930D01*
X125554Y94733D01*
X123291D01*
X122979Y94604D01*
X122764Y94389D01*
X122701Y94415D01*
X122201Y94208D01*
X121701Y94415D01*
X121201Y94208D01*
X120701Y94415D01*
X120201Y94208D01*
X119701Y94415D01*
X119441Y94307D01*
X119361Y94361D01*
Y94361D01*
X118041D01*
Y93701D01*
X117899Y93560D01*
X117710Y93560D01*
Y93560D01*
X116390D01*
Y93560D01*
X116310Y93507D01*
X116050Y93614D01*
X116008Y93597D01*
X115866Y93738D01*
X115919Y93866D01*
X115712Y94366D01*
X115723Y94392D01*
X116018Y94514D01*
X116872Y95368D01*
X117087D01*
X117439Y95514D01*
X118102Y96177D01*
X118145Y96281D01*
X118248Y96530D01*
Y98628D01*
X118102Y98980D01*
X117675Y99407D01*
X117323Y99553D01*
X115955D01*
X115919Y99606D01*
X115919Y99606D01*
X115919D01*
X115710Y100111D01*
X115205Y100321D01*
X114700Y100111D01*
X114490Y99606D01*
X114697Y99106D01*
X114490Y98606D01*
X114697Y98106D01*
X114490Y97606D01*
X114661Y97194D01*
X114648Y97163D01*
X114648Y97163D01*
X114648D01*
X113861Y96376D01*
X113731Y96063D01*
Y91793D01*
X113535Y91754D01*
X113423Y92024D01*
X113131Y91732D01*
X113423Y91440D01*
X113535Y91710D01*
X113731Y91671D01*
Y90945D01*
X113861Y90632D01*
X114512Y89981D01*
X114490Y89929D01*
X114700Y89424D01*
X114700Y89424D01*
X114700D01*
X114708Y89381D01*
X114313Y88985D01*
X111950D01*
X111892Y89177D01*
X112047Y89280D01*
X112205Y89215D01*
X112710Y89424D01*
X112919Y89929D01*
X112712Y90429D01*
X112712Y90429D01*
X112710Y90434D01*
X112455Y90540D01*
X112205Y90790D01*
X111955Y90540D01*
X111700Y90434D01*
X111697Y90429D01*
X111697Y90429D01*
X111490Y89929D01*
X111700Y89424D01*
D01*
X111624Y89243D01*
X111186D01*
X110943Y89486D01*
X110630Y89615D01*
X110503D01*
Y89833D01*
X109183D01*
Y88513D01*
X110503D01*
D01*
X110503D01*
X110560Y88455D01*
Y87923D01*
X111880D01*
Y88101D01*
X114496D01*
X114809Y88231D01*
X114809D01*
X114813Y88235D01*
X115019Y88441D01*
X115517Y88939D01*
D01*
D01*
X115647Y89252D01*
Y89398D01*
X115710Y89424D01*
X115919Y89929D01*
X115712Y90429D01*
X115919Y90929D01*
X115712Y91429D01*
X115919Y91929D01*
X115864Y92063D01*
X116005Y92204D01*
D01*
X116050Y92186D01*
X116310Y92293D01*
X116390Y92240D01*
Y92240D01*
X117535D01*
X117605Y92070D01*
X118110Y91860D01*
X118465Y92007D01*
X118631Y91896D01*
Y91466D01*
X119951D01*
Y92629D01*
X120118Y92740D01*
X120291Y92668D01*
X120994D01*
Y91860D01*
X121211D01*
Y85895D01*
X121102Y85630D01*
X121263Y85240D01*
X121405Y85181D01*
X121446Y84985D01*
X117961Y81348D01*
X107943D01*
Y81566D01*
X106623D01*
Y81369D01*
X106566D01*
Y81369D01*
X106348D01*
Y81693D01*
X106218Y82006D01*
X105878Y82345D01*
X105872Y82360D01*
X105864Y82380D01*
X105856Y82399D01*
X105198Y83057D01*
Y83374D01*
X105261Y83400D01*
X105264Y83408D01*
X105400D01*
X105360Y83507D01*
X105836Y83983D01*
X106312Y84459D01*
X106411Y84419D01*
X106442Y84576D01*
X106566D01*
Y84970D01*
X106566D01*
X106623D01*
X106707Y84970D01*
X106707Y84970D01*
Y84970D01*
X107943D01*
Y86290D01*
X106623D01*
Y85954D01*
X106566Y85896D01*
X106489Y85896D01*
X106348Y86038D01*
Y86496D01*
X106218Y86809D01*
X106205Y86814D01*
X105269Y87750D01*
X105346Y87936D01*
X105400D01*
X105373Y88002D01*
X105406Y88080D01*
X105836Y88511D01*
X105906Y88441D01*
X105975Y88511D01*
X106451Y88034D01*
X106620Y88441D01*
X106577Y88544D01*
X106688Y88710D01*
X106762D01*
Y89497D01*
X107943D01*
Y90817D01*
X106623D01*
Y90030D01*
X106304D01*
X105395Y90939D01*
Y92036D01*
X105458Y92062D01*
X105461Y92070D01*
X105597D01*
X105556Y92168D01*
X106033Y92644D01*
X106509Y93121D01*
X106608Y93080D01*
X106639Y93238D01*
X106762D01*
Y93828D01*
X107943D01*
Y95148D01*
X106623D01*
Y95148D01*
X106593D01*
X106505Y95236D01*
D01*
X106376Y95549D01*
X106362Y95554D01*
X105477Y96439D01*
X105543Y96597D01*
X105597D01*
X105570Y96663D01*
X105603Y96742D01*
X106033Y97172D01*
X106172Y97033D01*
X105696Y96556D01*
X106102Y96388D01*
X106457Y96535D01*
X106569Y96488D01*
Y96488D01*
X106569Y96488D01*
X106738Y96081D01*
X107214Y96558D01*
X107283Y96488D01*
X107353Y96558D01*
X107829Y96081D01*
X107911Y96279D01*
X108065Y96309D01*
X108219Y96182D01*
Y95889D01*
X108219Y95889D01*
X108219D01*
X108349Y95576D01*
X109379Y94546D01*
X109303Y94361D01*
X109183D01*
Y93041D01*
X110364D01*
Y92253D01*
X110519D01*
X110630Y92087D01*
X110506Y91787D01*
X110521Y91750D01*
X110348Y91678D01*
X110388Y91580D01*
X109982Y91173D01*
X110388Y90767D01*
X110557Y91173D01*
X110542Y91210D01*
X110715Y91282D01*
X110675Y91381D01*
X111151Y91857D01*
X111290Y91718D01*
X110814Y91241D01*
X111220Y91073D01*
X111377Y91138D01*
X111518Y90996D01*
X111490Y90929D01*
X111659Y90522D01*
X112135Y90999D01*
X112205Y90929D01*
X112274Y90999D01*
X112751Y90522D01*
X112919Y90929D01*
X112867Y91055D01*
X112992Y91180D01*
X112992Y91180D01*
X112992Y91180D01*
X113284Y91301D01*
X112922Y91663D01*
X112992Y91732D01*
X112922Y91802D01*
X113284Y92163D01*
X112992Y92284D01*
X112992Y92284D01*
X112992Y92284D01*
X112865Y92369D01*
Y92589D01*
X112647D01*
Y92995D01*
X112527Y93285D01*
X112710Y93361D01*
X112919Y93866D01*
X112712Y94366D01*
X112712Y94366D01*
X112710Y94371D01*
X112455Y94477D01*
X112205Y94727D01*
X111955Y94477D01*
X111700Y94371D01*
X111697Y94366D01*
X111697Y94366D01*
X111559Y94031D01*
X111144D01*
X110215Y94961D01*
X110254Y95157D01*
X110249Y95155D01*
X109773Y95631D01*
X109773Y95631D01*
X109297Y96108D01*
X109300Y96115D01*
X109103Y96154D01*
Y96389D01*
X108974Y96701D01*
X107913Y97763D01*
X107600Y97892D01*
X107475D01*
X107395Y98085D01*
X107296Y98045D01*
X106820Y98521D01*
X106890Y98591D01*
X106820Y98660D01*
X107296Y99136D01*
X106890Y99305D01*
X106890Y99305D01*
X106890Y99305D01*
X106741Y99404D01*
Y99931D01*
X107550D01*
Y101251D01*
X106741D01*
Y101851D01*
X106694Y101964D01*
X106720Y101990D01*
D01*
X107127Y102159D01*
X106651Y102635D01*
X106651Y102635D01*
X106175Y103111D01*
X106006Y102705D01*
X106025Y102658D01*
X105914Y102492D01*
X105852D01*
X105691Y102559D01*
Y102559D01*
X105691Y102559D01*
X105482Y103064D01*
X104976Y103273D01*
X104471Y103064D01*
X104262Y102559D01*
X104469Y102059D01*
X104393Y101874D01*
X104059Y101736D01*
X103559Y101943D01*
X103059Y101736D01*
X102559Y101943D01*
X102559Y101943D01*
Y101943D01*
X102432Y102250D01*
Y103219D01*
X101112D01*
Y101983D01*
X101112Y101983D01*
X101112D01*
X101112Y101899D01*
X101054Y101841D01*
X100285D01*
Y100521D01*
X101605D01*
Y101758D01*
X101605Y101758D01*
D01*
D01*
X101605Y101841D01*
D01*
X101663Y101899D01*
X101943D01*
X102054Y101733D01*
X101845Y101228D01*
X102054Y100723D01*
X102559Y100514D01*
X102661Y100556D01*
X102714Y100477D01*
X102620Y100301D01*
X102559D01*
X102310Y100198D01*
X102207Y100155D01*
X101538Y99486D01*
X101465Y99310D01*
X101392Y99134D01*
Y98686D01*
X101226Y98574D01*
X100945Y98691D01*
X100440Y98482D01*
X100245Y98010D01*
X100048Y98049D01*
Y102394D01*
Y102394D01*
Y102394D01*
Y106257D01*
X100207Y106448D01*
X102165D01*
X102207Y106465D01*
X102252Y106456D01*
X102579Y106522D01*
X102581Y106518D01*
X103150Y106282D01*
X103718Y106518D01*
X103954Y107087D01*
X103718Y107655D01*
X103150Y107891D01*
X102581Y107655D01*
X102476Y107403D01*
X102193Y107346D01*
X102038Y107473D01*
Y108534D01*
D01*
Y108534D01*
X102062Y108558D01*
X109463D01*
X109970Y108050D01*
X109859Y107884D01*
X109843Y107891D01*
X109274Y107655D01*
X109038Y107087D01*
X109274Y106518D01*
X109843Y106282D01*
X110411Y106518D01*
X110411D01*
X110411D01*
X110582Y106484D01*
Y104991D01*
X110582D01*
X110503D01*
X110440Y104991D01*
X110440Y104991D01*
Y104991D01*
X110366D01*
X110233Y105312D01*
X109843Y105473D01*
X109452Y105312D01*
X109319Y104991D01*
X109183D01*
Y103772D01*
X109016Y103660D01*
X109000Y103667D01*
X108495Y103458D01*
X108286Y102953D01*
X108295Y102930D01*
X108191Y102826D01*
X107995Y102865D01*
X107932Y103016D01*
X107985Y103038D01*
X108195Y103543D01*
X107985Y104048D01*
X107480Y104258D01*
X107480Y104258D01*
Y104258D01*
X107480D01*
D01*
X107413Y104325D01*
X107435Y104378D01*
X107226Y104883D01*
X107163Y104909D01*
Y105750D01*
X107747Y106335D01*
X107874Y106282D01*
X108443Y106518D01*
X108678Y107087D01*
X108443Y107655D01*
X107874Y107891D01*
X107305Y107655D01*
X107070Y107087D01*
X107122Y106960D01*
X106486Y106324D01*
X106290Y106363D01*
X106081Y106868D01*
X105512Y107104D01*
X104943Y106868D01*
X104708Y106299D01*
X104943Y105730D01*
X105512Y105495D01*
X106081Y105730D01*
X106082Y105735D01*
X106278Y105696D01*
Y104965D01*
X106112Y104854D01*
X105650Y105045D01*
X105144Y104836D01*
X104935Y104331D01*
X105144Y103826D01*
X105650Y103616D01*
X106155Y103826D01*
X106174Y103873D01*
X106215D01*
X106215Y103873D01*
Y103873D01*
X106720Y103664D01*
X106720Y103664D01*
Y103664D01*
D01*
X106766Y103543D01*
X106766Y103543D01*
X106766D01*
X106789Y103488D01*
X106720Y103419D01*
X106720Y103419D01*
X106720Y103419D01*
X106314Y103251D01*
X106790Y102774D01*
X107266Y102298D01*
X107258Y102277D01*
X107458D01*
X107610Y101910D01*
X107790Y101835D01*
X108756Y100869D01*
X109069Y100739D01*
X109789D01*
X109828Y100543D01*
X109436Y100381D01*
X109912Y99904D01*
X110388Y99428D01*
X110466Y99615D01*
X110651Y99692D01*
X111024Y99538D01*
X111024Y99538D01*
X111024Y99538D01*
X111172Y99438D01*
Y98314D01*
X111006Y98203D01*
X110956Y98223D01*
D01*
X110827Y98277D01*
X110827D01*
D01*
X110503D01*
Y98495D01*
X109183D01*
Y97175D01*
X110364D01*
Y96387D01*
X110364Y96387D01*
X110364Y96387D01*
D01*
X110351Y96357D01*
D01*
D01*
X110167Y96281D01*
X109843Y96415D01*
X109436Y96247D01*
X109912Y95770D01*
X110388Y95294D01*
X110520Y95612D01*
X110518Y95613D01*
X110478Y95711D01*
X110954Y96188D01*
X111093Y96049D01*
X110617Y95572D01*
X111024Y95404D01*
X111378Y95551D01*
X111545Y95440D01*
Y95206D01*
X111545D01*
X111598Y95126D01*
X111490Y94866D01*
X111659Y94459D01*
X112135Y94936D01*
X112205Y94866D01*
X112274Y94936D01*
X112751Y94459D01*
X112919Y94866D01*
X112811Y95126D01*
X112865Y95206D01*
X112865D01*
Y96526D01*
X112131D01*
X112056Y96600D01*
Y96793D01*
X112205Y96892D01*
X112205Y96892D01*
Y96892D01*
X112710Y97101D01*
X112919Y97606D01*
X112712Y98106D01*
X112712Y98106D01*
X112710Y98111D01*
X112455Y98217D01*
X112135Y98537D01*
X112274Y98676D01*
X112751Y98200D01*
X112919Y98606D01*
X112811Y98866D01*
X112865Y98946D01*
X112865D01*
Y99484D01*
X113031Y99595D01*
X112995Y99610D01*
X112955Y99708D01*
X113247Y100000D01*
X112955Y100292D01*
X112938Y100252D01*
X112865Y100266D01*
Y100266D01*
X112865Y100266D01*
X112647D01*
Y101575D01*
X112517Y101887D01*
X112297Y102108D01*
X112373Y102293D01*
X112865D01*
X112865Y102293D01*
Y102293D01*
X112869Y102294D01*
X112867Y102298D01*
X113344Y102774D01*
X113413Y102705D01*
X113483Y102774D01*
X113959Y102298D01*
X114128Y102705D01*
X114107Y102756D01*
X114105Y102760D01*
D01*
X114173Y102829D01*
X114173Y102829D01*
X114173Y102829D01*
X114678Y103038D01*
X114888Y103543D01*
X114678Y104048D01*
X114173Y104258D01*
X114173Y104258D01*
Y104258D01*
X114173D01*
D01*
X114106Y104325D01*
D01*
X114128Y104378D01*
X113919Y104883D01*
X113855Y104909D01*
Y105750D01*
X114440Y106335D01*
X114567Y106282D01*
X115136Y106518D01*
X115371Y107087D01*
X115136Y107655D01*
X114567Y107891D01*
X113998Y107655D01*
X113763Y107087D01*
X113815Y106960D01*
X113179Y106324D01*
X112983Y106363D01*
X112773Y106868D01*
X112647Y106920D01*
Y108465D01*
X112517Y108777D01*
X110285Y111010D01*
X110324Y111206D01*
X110411Y111242D01*
X110420Y111262D01*
X110630D01*
X110649Y111270D01*
X111610D01*
X111711Y111312D01*
X112120D01*
X112220Y111270D01*
X112321Y111312D01*
X112765D01*
X112866Y111270D01*
X113761D01*
X113780Y111262D01*
X113780Y111262D01*
X113990D01*
X113998Y111242D01*
X114567Y111007D01*
X115136Y111242D01*
X115371Y111811D01*
X115136Y112380D01*
X114567Y112615D01*
X113998Y112380D01*
X113990Y112360D01*
X113791D01*
X113772Y112368D01*
X112866D01*
X112769Y112432D01*
Y113189D01*
X112608Y113577D01*
X111230Y114955D01*
X110843Y115116D01*
X109944D01*
X109478Y115582D01*
Y116296D01*
X109537Y116321D01*
X109773Y116890D01*
X109537Y117458D01*
Y117458D01*
Y117458D01*
X109575Y117647D01*
X126428D01*
X126467Y117451D01*
Y117451D01*
X126467D01*
X126093Y117296D01*
X126500Y116889D01*
X126907Y117296D01*
X126533Y117451D01*
X126572Y117647D01*
X128602D01*
X128641Y117451D01*
X128565Y117419D01*
X128330Y116850D01*
X128565Y116282D01*
X129134Y116046D01*
X129703Y116282D01*
X129938Y116850D01*
X129703Y117419D01*
X129626Y117451D01*
X129665Y117647D01*
X130602D01*
X130641Y117451D01*
X130664Y117460D01*
X131134Y116990D01*
X131604Y117460D01*
X131626Y117451D01*
X131665Y117647D01*
X133539D01*
X133615Y117462D01*
X131312Y115159D01*
X131151Y114771D01*
Y113001D01*
X131312Y112613D01*
X131373Y112552D01*
X131296Y112368D01*
X130717D01*
X130717Y112368D01*
X130698Y112360D01*
X130498D01*
X130490Y112380D01*
X129921Y112615D01*
X129353Y112380D01*
X129117Y111811D01*
X129353Y111242D01*
X129921Y111007D01*
X130490Y111242D01*
X130498Y111262D01*
X130709D01*
X130728Y111270D01*
X131689D01*
X131790Y111312D01*
X132198D01*
X132299Y111270D01*
X132400Y111312D01*
X132809D01*
X132909Y111270D01*
X133839D01*
X133858Y111262D01*
X133858Y111262D01*
X134069D01*
X134077Y111242D01*
X134646Y111007D01*
X135214Y111242D01*
X135450Y111811D01*
X135214Y112380D01*
X134646Y112615D01*
X134077Y112380D01*
X134069Y112360D01*
X133869D01*
X133850Y112368D01*
X132909D01*
X132903Y112365D01*
X132848Y112402D01*
X132687Y112789D01*
X132542Y112935D01*
X132618Y113120D01*
X133337D01*
Y114440D01*
X132406D01*
X132329Y114624D01*
X133013Y115309D01*
X133198Y115232D01*
Y115227D01*
X133789Y115818D01*
X134379Y116408D01*
X134374D01*
X134298Y116593D01*
X134834Y117129D01*
X137139D01*
X137250Y116962D01*
X137204Y116850D01*
X137439Y116282D01*
X138008Y116046D01*
X138577Y116282D01*
X138812Y116850D01*
X138766Y116962D01*
X138833Y117062D01*
X139032Y117082D01*
X139221Y116893D01*
X139204Y116850D01*
X139439Y116282D01*
X140008Y116046D01*
X140577Y116282D01*
X140812Y116850D01*
X140577Y117419D01*
X140500Y117451D01*
X140539Y117647D01*
X141476D01*
X141515Y117451D01*
X141439Y117419D01*
X141204Y116850D01*
X141439Y116282D01*
X142008Y116046D01*
X142577Y116282D01*
X142812Y116850D01*
X142577Y117419D01*
X142500Y117451D01*
X142539Y117647D01*
X143476D01*
X143515Y117451D01*
D02*
G37*
G36*
X153552Y117481D02*
X153324Y116929D01*
X153693Y116037D01*
X154655Y116999D01*
X154794Y116860D01*
X153832Y115898D01*
X154724Y115528D01*
X155276Y115757D01*
X155442Y115646D01*
Y112498D01*
X155276Y112387D01*
X154724Y112615D01*
X154156Y112380D01*
X154147Y112360D01*
X153948D01*
X153929Y112368D01*
X153024D01*
X152927Y112432D01*
Y113764D01*
X152766Y114152D01*
X152517Y114400D01*
Y116257D01*
X152577Y116282D01*
X152812Y116850D01*
X152577Y117419D01*
X152500Y117451D01*
X152539Y117647D01*
X153441D01*
X153552Y117481D01*
D02*
G37*
G36*
X151515Y117451D02*
X151439Y117419D01*
X151204Y116850D01*
X151420Y116328D01*
Y114173D01*
D01*
Y114173D01*
X151467Y114060D01*
X151525Y113919D01*
X151581Y113785D01*
X151581Y113785D01*
X151829Y113537D01*
Y112409D01*
X151768Y112368D01*
X150795D01*
X150795Y112368D01*
X150776Y112360D01*
X150577D01*
X150569Y112380D01*
X150000Y112615D01*
X149431Y112380D01*
X149196Y111811D01*
X149431Y111242D01*
X150000Y111007D01*
X150569Y111242D01*
X150577Y111262D01*
X150787D01*
X150806Y111270D01*
X151768D01*
X151869Y111312D01*
X152277D01*
X152378Y111270D01*
X152479Y111312D01*
X152923D01*
X153024Y111270D01*
X153918D01*
X153937Y111262D01*
X153937Y111262D01*
X154147D01*
X154156Y111242D01*
X154724Y111007D01*
X155276Y111235D01*
X155442Y111124D01*
Y107774D01*
X155276Y107662D01*
X154724Y107891D01*
X154156Y107655D01*
X153920Y107087D01*
X153973Y106960D01*
X153652Y106639D01*
X153522Y106327D01*
Y104122D01*
X153459Y104096D01*
X153404Y103962D01*
X153204D01*
X153005Y104442D01*
X152500Y104651D01*
X151995Y104442D01*
X151786Y103937D01*
X151995Y103432D01*
X152394Y103267D01*
Y103232D01*
X152394D01*
Y103067D01*
X151912Y102867D01*
X151703Y102362D01*
X151912Y101857D01*
X152417Y101648D01*
X152922Y101857D01*
X153132Y102362D01*
X152922Y102867D01*
X152524Y103032D01*
Y103067D01*
X152524D01*
Y103232D01*
X153005Y103432D01*
X153061Y103566D01*
X153261D01*
X153459Y103085D01*
X153965Y102876D01*
X153965Y102876D01*
Y102876D01*
D01*
X154010Y102756D01*
X154010Y102756D01*
X154010D01*
X154033Y102700D01*
X153965Y102632D01*
X153965Y102632D01*
X153965Y102632D01*
X153558Y102463D01*
X154034Y101987D01*
X154510Y101511D01*
X154679Y101917D01*
X154656Y101973D01*
D01*
X154724Y102042D01*
X154724Y102042D01*
X154724Y102042D01*
X155230Y102251D01*
X155246Y102290D01*
X155442Y102251D01*
Y86795D01*
X155276Y86684D01*
X155031Y86785D01*
X154531Y86578D01*
X154031Y86785D01*
X153532Y86578D01*
X153032Y86785D01*
X152531Y86578D01*
X152031Y86785D01*
X151789Y86685D01*
X151623Y86796D01*
Y89043D01*
X151819Y89082D01*
X151941Y88787D01*
X152944Y88372D01*
X153947Y88787D01*
X154362Y89790D01*
X153947Y90792D01*
X152944Y91208D01*
X151941Y90792D01*
X151819Y90498D01*
X151623Y90537D01*
Y91820D01*
X151652D01*
Y91820D01*
X153072D01*
Y92303D01*
X153238Y92414D01*
X153486Y92311D01*
X154030Y92536D01*
X154255Y93080D01*
X154030Y93623D01*
Y93623D01*
X154030D01*
X154255Y94170D01*
X154255Y94170D01*
D01*
X154255Y94170D01*
X154255Y94170D01*
Y94170D01*
Y94170D01*
X154255D01*
X154030Y94713D01*
Y94713D01*
X154030D01*
X154255Y95260D01*
X154255Y95260D01*
D01*
X154255Y95260D01*
X154255Y95260D01*
Y95260D01*
Y95260D01*
X154255D01*
X154030Y95803D01*
Y95803D01*
X154030D01*
X154255Y96350D01*
X154255Y96350D01*
D01*
X154255Y96350D01*
X154255Y96350D01*
Y96350D01*
Y96350D01*
X154255D01*
X154030Y96893D01*
X153486Y97118D01*
X153102Y96959D01*
X152946Y97335D01*
X152432Y96820D01*
X152051Y96439D01*
X151823Y96345D01*
X151819Y96346D01*
X151819Y96343D01*
X151819D01*
X151594Y95800D01*
X151819Y95256D01*
D01*
Y95256D01*
Y95256D01*
D01*
X151819Y95253D01*
X151819D01*
X151594Y94710D01*
X151636Y94608D01*
X150475Y93448D01*
X150345Y93135D01*
Y90951D01*
X150317Y90939D01*
X150161Y90874D01*
X149753Y91281D01*
X149830Y91466D01*
X150069D01*
Y92786D01*
X148749D01*
Y92744D01*
X148583Y92633D01*
X148425Y92699D01*
X147920Y92489D01*
X147920Y92489D01*
Y92489D01*
X147909Y92478D01*
X147755Y92505D01*
Y92505D01*
X147250Y92714D01*
X146750Y92507D01*
X146250Y92714D01*
X145750Y92507D01*
X145250Y92714D01*
X144750Y92507D01*
X144250Y92714D01*
X144116Y92659D01*
X143943Y92832D01*
X143630Y92962D01*
X142309D01*
X142174Y93097D01*
D01*
Y97205D01*
X142045Y97517D01*
X141545Y98017D01*
Y100495D01*
X141605Y100555D01*
X143050D01*
X143400Y100700D01*
X143657Y100957D01*
X143802Y101307D01*
Y103277D01*
X143967D01*
Y104597D01*
X143117D01*
X143006Y104763D01*
X143072Y104921D01*
X142910Y105312D01*
X142520Y105473D01*
X142129Y105312D01*
X141968Y104921D01*
X142078Y104656D01*
Y103996D01*
X141881Y103957D01*
X141844Y104048D01*
X141339Y104258D01*
X141339Y104258D01*
Y104258D01*
X141339D01*
D01*
X141271Y104325D01*
X141293Y104378D01*
X141267Y104441D01*
D01*
X141651Y104825D01*
X141781Y105138D01*
X141781Y105138D01*
X141781Y105138D01*
Y105138D01*
Y106465D01*
X141907Y106518D01*
X142143Y107087D01*
X141907Y107655D01*
X141339Y107891D01*
X140770Y107655D01*
X140534Y107087D01*
X140770Y106518D01*
X140897Y106465D01*
Y105321D01*
X140642Y105066D01*
X140579Y105092D01*
X140074Y104883D01*
X139937Y104553D01*
X139737D01*
X139619Y104836D01*
X139114Y105045D01*
X138609Y104836D01*
X138400Y104331D01*
X138609Y103826D01*
X139114Y103616D01*
X139619Y103826D01*
X139756Y104156D01*
X139956D01*
X140074Y103873D01*
X140075Y103872D01*
X140114Y103676D01*
X139095Y102657D01*
X139031Y102683D01*
X138526Y102474D01*
X138317Y101968D01*
X138526Y101463D01*
X139031Y101254D01*
X139537Y101463D01*
X139746Y101968D01*
X139720Y102032D01*
X139919Y102230D01*
X140074Y102200D01*
X140033Y102298D01*
X140509Y102774D01*
X140579Y102705D01*
X140648Y102774D01*
X141125Y102298D01*
X141293Y102705D01*
X141270Y102760D01*
X141339Y102829D01*
X141339Y102829D01*
X141339Y102829D01*
X141844Y103038D01*
X141881Y103129D01*
X142078Y103090D01*
Y102628D01*
X141860D01*
Y101545D01*
X141400D01*
X141050Y101400D01*
X140700Y101050D01*
X140555Y100700D01*
Y97887D01*
X140700Y97537D01*
X140828Y97483D01*
X141290Y97022D01*
Y94180D01*
X141124Y94069D01*
X140764Y94218D01*
X140504Y94111D01*
D01*
D01*
X140424Y94164D01*
Y94164D01*
X140301D01*
X140262Y94190D01*
Y98786D01*
X140159Y99035D01*
X140116Y99138D01*
X137648Y101606D01*
Y102066D01*
X137795Y102165D01*
X137795Y102165D01*
Y102165D01*
X138087Y102285D01*
X137726Y102647D01*
X137795Y102717D01*
X137726Y102786D01*
X138087Y103148D01*
X138082Y103150D01*
X137929Y103213D01*
X137902Y103348D01*
X137945Y103451D01*
X137953Y103470D01*
X138048Y103700D01*
Y106086D01*
X138244Y106125D01*
X138408Y105730D01*
X138976Y105495D01*
X139545Y105730D01*
X139781Y106299D01*
X139545Y106868D01*
X138976Y107104D01*
X138408Y106868D01*
X138244Y106473D01*
X138048Y106512D01*
Y111312D01*
X138280D01*
X138380Y111270D01*
X138482Y111312D01*
X138891D01*
X138992Y111270D01*
X139093Y111312D01*
X139502D01*
X139602Y111270D01*
X140532D01*
X140551Y111262D01*
X140551Y111262D01*
X140762D01*
X140770Y111242D01*
X141339Y111007D01*
X141907Y111242D01*
X142143Y111811D01*
X141907Y112380D01*
X141339Y112615D01*
X140770Y112380D01*
X140762Y112360D01*
X140562D01*
X140543Y112368D01*
X139602D01*
X139541Y112409D01*
Y112962D01*
X140597Y114018D01*
X143181D01*
X143569Y114179D01*
X144356Y114966D01*
X144517Y115354D01*
X144517Y115354D01*
Y116257D01*
X144577Y116282D01*
X144812Y116850D01*
X144577Y117419D01*
X144500Y117451D01*
X144539Y117647D01*
X145476D01*
X145515Y117451D01*
X145439Y117419D01*
X145204Y116850D01*
X145439Y116282D01*
X146008Y116046D01*
X146577Y116282D01*
X146812Y116850D01*
X146577Y117419D01*
X146500Y117451D01*
X146539Y117647D01*
X147476D01*
X147515Y117451D01*
X147439Y117419D01*
X147204Y116850D01*
X147420Y116328D01*
Y115582D01*
X145691Y113852D01*
X145530Y113465D01*
Y112409D01*
X145469Y112368D01*
X144102D01*
X144102Y112368D01*
X144083Y112360D01*
X143884D01*
X143876Y112380D01*
X143307Y112615D01*
X142738Y112380D01*
X142503Y111811D01*
X142738Y111242D01*
X143307Y111007D01*
X143876Y111242D01*
X143884Y111262D01*
X144094D01*
X144114Y111270D01*
X145469D01*
X145569Y111312D01*
X145978D01*
X146079Y111270D01*
X146180Y111312D01*
X146588D01*
X146689Y111270D01*
X147225D01*
X147244Y111262D01*
X147244Y111262D01*
X147454D01*
X147463Y111242D01*
X148032Y111007D01*
X148600Y111242D01*
X148836Y111811D01*
X148600Y112380D01*
X148032Y112615D01*
X147463Y112380D01*
X147454Y112360D01*
X147255D01*
X147236Y112368D01*
X146689D01*
X146627Y112409D01*
D01*
Y113237D01*
X148356Y114966D01*
X148517Y115354D01*
X148517Y115354D01*
X148517Y115354D01*
Y115354D01*
Y116257D01*
X148577Y116282D01*
X148812Y116850D01*
X148577Y117419D01*
X148500Y117451D01*
X148539Y117647D01*
X149476D01*
X149515Y117451D01*
X149439Y117419D01*
X149204Y116850D01*
X149439Y116282D01*
X150008Y116046D01*
X150577Y116282D01*
X150812Y116850D01*
X150577Y117419D01*
X150500Y117451D01*
X150539Y117647D01*
X151476D01*
X151515Y117451D01*
D02*
G37*
%LPC*%
G36*
X126751Y95964D02*
Y95700D01*
X127015D01*
X127011Y95733D01*
X126979Y95810D01*
X126928Y95877D01*
X126861Y95928D01*
X126784Y95960D01*
X126751Y95964D01*
D02*
G37*
G36*
X127400D02*
X127367Y95960D01*
X127290Y95928D01*
X127223Y95877D01*
X127172Y95810D01*
X127140Y95733D01*
X127136Y95700D01*
X127400D01*
Y95964D01*
D02*
G37*
G36*
X126651D02*
X126618Y95960D01*
X126540Y95928D01*
X126474Y95877D01*
X126423Y95810D01*
X126391Y95733D01*
X126387Y95700D01*
X126651D01*
Y95964D01*
D02*
G37*
G36*
X126000D02*
Y95700D01*
X126264D01*
X126260Y95733D01*
X126228Y95810D01*
X126177Y95877D01*
X126110Y95928D01*
X126033Y95960D01*
X126000Y95964D01*
D02*
G37*
G36*
X134956Y80864D02*
X134486Y80394D01*
X134956Y79923D01*
X135151Y80394D01*
X134956Y80864D01*
D02*
G37*
G36*
X133737D02*
X133542Y80394D01*
X133737Y79923D01*
X134207Y80394D01*
X133737Y80864D01*
D02*
G37*
G36*
X106102Y92436D02*
X105696Y92029D01*
X106102Y91860D01*
X106509Y92029D01*
X106102Y92436D01*
D02*
G37*
G36*
X107829Y92564D02*
X107423Y92157D01*
X107829Y91751D01*
X107998Y92157D01*
X107829Y92564D01*
D02*
G37*
G36*
X130346Y81198D02*
X129876Y81003D01*
X130346Y80533D01*
X130817Y81003D01*
X130346Y81198D01*
D02*
G37*
G36*
X151575Y80569D02*
X151054Y80049D01*
X152096D01*
X151575Y80569D01*
D02*
G37*
G36*
X107283Y92872D02*
X106877Y92703D01*
X107283Y92297D01*
X107690Y92703D01*
X107283Y92872D01*
D02*
G37*
G36*
X126651Y95600D02*
X126387D01*
X126391Y95567D01*
X126423Y95490D01*
X126474Y95423D01*
X126540Y95372D01*
X126618Y95340D01*
X126651Y95336D01*
Y95600D01*
D02*
G37*
G36*
X126264D02*
X126000D01*
Y95336D01*
X126033Y95340D01*
X126110Y95372D01*
X126177Y95423D01*
X126228Y95490D01*
X126260Y95567D01*
X126264Y95600D01*
D02*
G37*
G36*
X138956Y80864D02*
X138486Y80394D01*
X138956Y79923D01*
X139151Y80394D01*
X138956Y80864D01*
D02*
G37*
G36*
X127400Y95600D02*
X127136D01*
X127140Y95567D01*
X127172Y95490D01*
X127223Y95423D01*
X127290Y95372D01*
X127367Y95340D01*
X127400Y95336D01*
Y95600D01*
D02*
G37*
G36*
X127015D02*
X126751D01*
Y95336D01*
X126784Y95340D01*
X126861Y95372D01*
X126928Y95423D01*
X126979Y95490D01*
X127011Y95567D01*
X127015Y95600D01*
D02*
G37*
G36*
X129737Y80864D02*
X129542Y80394D01*
X129737Y79923D01*
X130207Y80394D01*
X129737Y80864D01*
D02*
G37*
G36*
X125900Y95964D02*
X125867Y95960D01*
X125790Y95928D01*
X125723Y95877D01*
X125672Y95810D01*
X125640Y95733D01*
X125636Y95700D01*
X125900D01*
Y95964D01*
D02*
G37*
G36*
X130956Y80864D02*
X130486Y80394D01*
X130956Y79923D01*
X131151Y80394D01*
X130956Y80864D01*
D02*
G37*
G36*
X137737D02*
X137542Y80394D01*
X137737Y79923D01*
X138207Y80394D01*
X137737Y80864D01*
D02*
G37*
G36*
X127764Y95600D02*
X127500D01*
Y95336D01*
X127533Y95340D01*
X127610Y95372D01*
X127677Y95423D01*
X127728Y95490D01*
X127760Y95567D01*
X127764Y95600D01*
D02*
G37*
G36*
X125900D02*
X125636D01*
X125640Y95567D01*
X125672Y95490D01*
X125723Y95423D01*
X125790Y95372D01*
X125867Y95340D01*
X125900Y95336D01*
Y95600D01*
D02*
G37*
G36*
X139173Y83719D02*
X138652Y83198D01*
X139694D01*
X139173Y83719D01*
D02*
G37*
G36*
X107283Y88344D02*
X106877Y88176D01*
X107283Y87769D01*
X107690Y88176D01*
X107283Y88344D01*
D02*
G37*
G36*
X105906Y88302D02*
X105499Y87895D01*
X105906Y87727D01*
X106312Y87895D01*
X105906Y88302D01*
D02*
G37*
G36*
X107829Y83312D02*
X107423Y82906D01*
X107829Y82499D01*
X107998Y82906D01*
X107829Y83312D01*
D02*
G37*
G36*
X107283Y83620D02*
X106877Y83451D01*
X107283Y83045D01*
X107690Y83451D01*
X107283Y83620D01*
D02*
G37*
G36*
X141535Y83703D02*
X141129Y83297D01*
X141535Y83128D01*
X141942Y83297D01*
X141535Y83703D01*
D02*
G37*
G36*
X105906Y83774D02*
X105499Y83367D01*
X105906Y83199D01*
X106312Y83367D01*
X105906Y83774D01*
D02*
G37*
G36*
X106451Y84320D02*
X106045Y83913D01*
X106451Y83507D01*
X106620Y83913D01*
X106451Y84320D01*
D02*
G37*
G36*
X146781Y85503D02*
X145739D01*
X146260Y84982D01*
X146781Y85503D01*
D02*
G37*
G36*
X107829Y88037D02*
X107423Y87630D01*
X107829Y87223D01*
X107998Y87630D01*
X107829Y88037D01*
D02*
G37*
G36*
X106738D02*
X106569Y87630D01*
X106738Y87223D01*
X107144Y87630D01*
X106738Y88037D01*
D02*
G37*
G36*
X107283Y87491D02*
X106877Y87084D01*
X107283Y86916D01*
X107690Y87084D01*
X107283Y87491D01*
D02*
G37*
G36*
X106738Y83312D02*
X106569Y82906D01*
X106738Y82499D01*
X107144Y82906D01*
X106738Y83312D01*
D02*
G37*
G36*
X109843Y91888D02*
X109436Y91719D01*
X109843Y91312D01*
X110249Y91719D01*
X109843Y91888D01*
D02*
G37*
G36*
X138346Y81198D02*
X137876Y81003D01*
X138346Y80533D01*
X138817Y81003D01*
X138346Y81198D01*
D02*
G37*
G36*
X142346D02*
X141876Y81003D01*
X142346Y80533D01*
X142817Y81003D01*
X142346Y81198D01*
D02*
G37*
G36*
X106648Y92982D02*
X106242Y92575D01*
X106648Y92168D01*
X106608Y92070D01*
X106606Y92069D01*
X106738Y91751D01*
X107144Y92157D01*
X106738Y92564D01*
X106778Y92663D01*
X106780Y92663D01*
X106648Y92982D01*
D02*
G37*
G36*
X134346Y81198D02*
X133876Y81003D01*
X134346Y80533D01*
X134817Y81003D01*
X134346Y81198D01*
D02*
G37*
G36*
X107283Y92018D02*
X106877Y91612D01*
X107283Y91443D01*
X107690Y91612D01*
X107283Y92018D01*
D02*
G37*
G36*
X119837Y90533D02*
X119431Y90126D01*
X119837Y89719D01*
X120006Y90126D01*
X119837Y90533D01*
D02*
G37*
G36*
X118745D02*
X118577Y90126D01*
X118577Y90126D01*
X118577Y90126D01*
X118513Y90030D01*
X117450D01*
Y89414D01*
X116262Y88226D01*
X116116Y87874D01*
Y87139D01*
X116062Y87008D01*
X116224Y86618D01*
X116614Y86456D01*
X117005Y86618D01*
X117166Y87008D01*
X117112Y87139D01*
Y87668D01*
X118154Y88710D01*
X118770D01*
Y89447D01*
X118937Y89559D01*
X119291Y89412D01*
X119698Y89580D01*
X119222Y90056D01*
X119222Y90056D01*
X118745Y90533D01*
D02*
G37*
G36*
X107283Y82766D02*
X106877Y82360D01*
X107283Y82191D01*
X107690Y82360D01*
X107283Y82766D01*
D02*
G37*
G36*
X109297Y91580D02*
X109128Y91173D01*
X109297Y90767D01*
X109703Y91173D01*
X109297Y91580D01*
D02*
G37*
G36*
X109843Y91034D02*
X109436Y90627D01*
X109843Y90459D01*
X110249Y90627D01*
X109843Y91034D01*
D02*
G37*
G36*
X119291Y90840D02*
X118885Y90672D01*
X119291Y90265D01*
X119698Y90672D01*
X119291Y90840D01*
D02*
G37*
G36*
X127500Y95964D02*
Y95700D01*
X127764D01*
X127760Y95733D01*
X127728Y95810D01*
X127677Y95877D01*
X127610Y95928D01*
X127533Y95960D01*
X127500Y95964D01*
D02*
G37*
G36*
X148032Y107891D02*
X147463Y107655D01*
X147227Y107087D01*
X147280Y106960D01*
X146643Y106324D01*
X146447Y106363D01*
X146238Y106868D01*
X145669Y107104D01*
X145101Y106868D01*
X144865Y106299D01*
X145101Y105730D01*
X145669Y105495D01*
X146238Y105730D01*
X146240Y105735D01*
X146436Y105696D01*
Y104571D01*
X146270Y104460D01*
X145807Y104651D01*
X145302Y104442D01*
X145093Y103937D01*
X145302Y103432D01*
X145807Y103223D01*
X146266Y103413D01*
X146377Y103246D01*
X145787Y102657D01*
X145724Y102683D01*
X145219Y102474D01*
X145010Y101968D01*
X145219Y101463D01*
X145724Y101254D01*
X146230Y101463D01*
X146318Y101676D01*
X146502Y101752D01*
X146878Y101597D01*
X147285Y101765D01*
X146808Y102241D01*
X146947Y102381D01*
X147424Y101904D01*
X147592Y102311D01*
X147569Y102367D01*
X147638Y102435D01*
X147638Y102435D01*
X147638Y102435D01*
X148143Y102644D01*
X148352Y103150D01*
X148143Y103655D01*
X147638Y103864D01*
X147638Y103864D01*
Y103864D01*
X147638D01*
D01*
X147570Y103931D01*
X147592Y103984D01*
X147383Y104489D01*
X147320Y104516D01*
Y105750D01*
X147905Y106335D01*
X148032Y106282D01*
X148600Y106518D01*
X148836Y107087D01*
X148600Y107655D01*
X148032Y107891D01*
D02*
G37*
G36*
X150000D02*
X149431Y107655D01*
X149196Y107087D01*
X149431Y106518D01*
X150000Y106282D01*
X150569Y106518D01*
X150804Y107087D01*
X150569Y107655D01*
X150000Y107891D01*
D02*
G37*
G36*
X143307D02*
X142738Y107655D01*
X142503Y107087D01*
X142738Y106518D01*
X143307Y106282D01*
X143876Y106518D01*
X144111Y107087D01*
X143876Y107655D01*
X143307Y107891D01*
D02*
G37*
G36*
X126400Y109094D02*
X126000D01*
X126009Y109026D01*
X126055Y108916D01*
X126127Y108821D01*
X126222Y108749D01*
X126332Y108703D01*
X126400Y108694D01*
Y109094D01*
D02*
G37*
G36*
X126500Y109594D02*
Y109194D01*
X126900D01*
X126891Y109262D01*
X126845Y109372D01*
X126773Y109467D01*
X126678Y109540D01*
X126568Y109585D01*
X126500Y109594D01*
D02*
G37*
G36*
X126400D02*
X126332Y109585D01*
X126222Y109540D01*
X126127Y109467D01*
X126055Y109372D01*
X126009Y109262D01*
X126000Y109194D01*
X126400D01*
Y109594D01*
D02*
G37*
G36*
X126900Y109094D02*
X126500D01*
Y108694D01*
X126568Y108703D01*
X126678Y108749D01*
X126773Y108821D01*
X126845Y108916D01*
X126891Y109026D01*
X126900Y109094D01*
D02*
G37*
G36*
X123136Y106257D02*
X122967Y105850D01*
X123136Y105443D01*
X123542Y105850D01*
X123136Y106257D01*
D02*
G37*
G36*
X126116Y105800D02*
X125700D01*
Y105384D01*
X125772Y105394D01*
X125886Y105441D01*
X125984Y105516D01*
X126059Y105614D01*
X126106Y105728D01*
X126116Y105800D01*
D02*
G37*
G36*
X125600D02*
X125184D01*
X125194Y105728D01*
X125241Y105614D01*
X125316Y105516D01*
X125414Y105441D01*
X125528Y105394D01*
X125600Y105384D01*
Y105800D01*
D02*
G37*
G36*
X132283Y107104D02*
X131715Y106868D01*
X131479Y106299D01*
X131715Y105730D01*
X132283Y105495D01*
X132852Y105730D01*
X133088Y106299D01*
X132852Y106868D01*
X132283Y107104D01*
D02*
G37*
G36*
X125700Y106316D02*
Y105900D01*
X126116D01*
X126106Y105972D01*
X126059Y106086D01*
X125984Y106184D01*
X125886Y106259D01*
X125772Y106306D01*
X125700Y106316D01*
D02*
G37*
G36*
X125600D02*
X125528Y106306D01*
X125414Y106259D01*
X125316Y106184D01*
X125241Y106086D01*
X125194Y105972D01*
X125184Y105900D01*
X125600D01*
Y106316D01*
D02*
G37*
G36*
X152362Y107104D02*
X151793Y106868D01*
X151558Y106299D01*
X151793Y105730D01*
X152362Y105495D01*
X152931Y105730D01*
X153167Y106299D01*
X152931Y106868D01*
X152362Y107104D01*
D02*
G37*
G36*
X116900Y111811D02*
X116384Y111295D01*
X116900Y111082D01*
X117416Y111295D01*
X116900Y111811D01*
D02*
G37*
G36*
X125954Y117157D02*
X125786Y116750D01*
X125954Y116343D01*
X126361Y116750D01*
X125954Y117157D01*
D02*
G37*
G36*
X131134Y116711D02*
X130664Y116241D01*
X131134Y116046D01*
X131604Y116241D01*
X131134Y116711D01*
D02*
G37*
G36*
X126500Y116611D02*
X126093Y116204D01*
X126500Y116036D01*
X126907Y116204D01*
X126500Y116611D01*
D02*
G37*
G36*
X127046Y117157D02*
X126639Y116750D01*
X127046Y116343D01*
X127214Y116750D01*
X127046Y117157D01*
D02*
G37*
G36*
X131743Y117321D02*
X131273Y116850D01*
X131743Y116380D01*
X131938Y116850D01*
X131743Y117321D01*
D02*
G37*
G36*
X130524D02*
X130330Y116850D01*
X130524Y116380D01*
X130995Y116850D01*
X130524Y117321D01*
D02*
G37*
G36*
X134858Y116462D02*
X134598Y116355D01*
X134518Y116408D01*
Y116322D01*
X134353Y116253D01*
X134247Y115998D01*
X133997Y115748D01*
X134247Y115498D01*
X134353Y115243D01*
X134518Y115174D01*
Y115088D01*
X134598Y115141D01*
X134858Y115034D01*
X135363Y115243D01*
X135573Y115748D01*
X135363Y116253D01*
X134858Y116462D01*
D02*
G37*
G36*
X102038Y112865D02*
X100718D01*
Y111545D01*
X102038D01*
Y112865D01*
D02*
G37*
G36*
X117555Y112465D02*
X117039Y111950D01*
X117555Y111434D01*
X117768Y111950D01*
X117555Y112465D01*
D02*
G37*
G36*
X116245D02*
X116032Y111950D01*
X116245Y111434D01*
X116761Y111950D01*
X116245Y112465D01*
D02*
G37*
G36*
X116900Y112818D02*
X116384Y112605D01*
X116900Y112089D01*
X117416Y112605D01*
X116900Y112818D01*
D02*
G37*
G36*
X133858Y115609D02*
X133337Y115088D01*
X134379D01*
X133858Y115609D01*
D02*
G37*
G36*
X122819Y115183D02*
X122485Y115045D01*
X122150Y115183D01*
X121815Y115045D01*
X121481Y115183D01*
X121146Y115045D01*
X120811Y115183D01*
X120363Y114998D01*
X120360Y114990D01*
X120847Y114504D01*
Y114435D01*
X120812Y114400D01*
X120847Y114365D01*
Y114296D01*
X120360Y113810D01*
X120363Y113802D01*
X120811Y113617D01*
X121146Y113755D01*
X121481Y113617D01*
X121778Y113740D01*
X121954Y113646D01*
X121982Y113506D01*
X121713Y113237D01*
X121614Y113000D01*
X121664Y112879D01*
Y111800D01*
Y111550D01*
X121763Y111313D01*
X122063Y111013D01*
X122300Y110914D01*
X126850D01*
X127087Y111013D01*
X127387Y111313D01*
X127486Y111550D01*
Y112900D01*
X127387Y113137D01*
X127087Y113437D01*
X127091Y113533D01*
X127160Y113590D01*
X127160Y113616D01*
X127160D01*
X127160Y113616D01*
Y114910D01*
X125840D01*
Y113727D01*
X125840Y113727D01*
X125840D01*
X125840Y113590D01*
X125836Y113586D01*
X124074D01*
Y113665D01*
X124074D01*
Y115135D01*
X122936D01*
X122819Y115183D01*
D02*
G37*
G36*
X120279Y114794D02*
X120178Y114549D01*
Y114251D01*
X120279Y114006D01*
X120672Y114400D01*
X120279Y114794D01*
D02*
G37*
G36*
X113817Y100292D02*
X113525Y100000D01*
X113817Y99708D01*
X113938Y100000D01*
X113817Y100292D01*
D02*
G37*
G36*
X113386Y99861D02*
X113094Y99569D01*
X113386Y99448D01*
X113678Y99569D01*
X113386Y99861D01*
D02*
G37*
G36*
X109297Y100241D02*
X109128Y99835D01*
X109297Y99428D01*
X109703Y99835D01*
X109297Y100241D01*
D02*
G37*
G36*
X126651Y100166D02*
X126579Y100157D01*
X126465Y100110D01*
X126367Y100035D01*
X126292Y99937D01*
X126245Y99823D01*
X126235Y99751D01*
X126651D01*
Y100166D01*
D02*
G37*
G36*
X153965Y101778D02*
X153558Y101371D01*
X153965Y101203D01*
X154371Y101371D01*
X153965Y101778D01*
D02*
G37*
G36*
X116480Y102092D02*
X115975Y101883D01*
X115766Y101378D01*
X115975Y100873D01*
X116480Y100664D01*
X116985Y100873D01*
X117195Y101378D01*
X116985Y101883D01*
X116480Y102092D01*
D02*
G37*
G36*
X113386Y100552D02*
X113094Y100431D01*
X113386Y100139D01*
X113678Y100431D01*
X113386Y100552D01*
D02*
G37*
G36*
X152362Y97658D02*
X151917Y97474D01*
X152362Y97029D01*
X152807Y97474D01*
X152362Y97658D01*
D02*
G37*
G36*
X151778Y97335D02*
X151594Y96890D01*
X151778Y96445D01*
X152223Y96890D01*
X151778Y97335D01*
D02*
G37*
G36*
X107283Y96349D02*
X106877Y95942D01*
X107283Y95774D01*
X107690Y95942D01*
X107283Y96349D01*
D02*
G37*
G36*
X131299Y97599D02*
X131034Y97489D01*
X129399D01*
X129134Y97599D01*
X128744Y97438D01*
X128582Y97047D01*
X128744Y96657D01*
X129134Y96495D01*
X129399Y96605D01*
X131034D01*
X131299Y96495D01*
X131690Y96657D01*
X131851Y97047D01*
X131690Y97438D01*
X131299Y97599D01*
D02*
G37*
G36*
X109843Y99695D02*
X109436Y99289D01*
X109843Y99120D01*
X110249Y99289D01*
X109843Y99695D01*
D02*
G37*
G36*
X152944Y101048D02*
X151941Y100632D01*
X151526Y99630D01*
X151941Y98627D01*
X152944Y98212D01*
X153947Y98627D01*
X154362Y99630D01*
X153947Y100632D01*
X152944Y101048D01*
D02*
G37*
G36*
X107436Y98997D02*
X107029Y98591D01*
X107436Y98184D01*
X107604Y98591D01*
X107436Y98997D01*
D02*
G37*
G36*
X153419Y102324D02*
X153250Y101917D01*
X153419Y101511D01*
X153825Y101917D01*
X153419Y102324D01*
D02*
G37*
G36*
X125750Y102818D02*
X125332D01*
Y102400D01*
X125750D01*
Y102818D01*
D02*
G37*
G36*
X126268D02*
X125850D01*
Y102400D01*
X126268D01*
Y102818D01*
D02*
G37*
G36*
X140579Y102566D02*
X140172Y102159D01*
X140579Y101990D01*
X140985Y102159D01*
X140579Y102566D01*
D02*
G37*
G36*
X123254Y102757D02*
X123086Y102350D01*
X123254Y101943D01*
X123661Y102350D01*
X123254Y102757D01*
D02*
G37*
G36*
X113413Y102566D02*
X113007Y102159D01*
X113413Y101990D01*
X113820Y102159D01*
X113413Y102566D01*
D02*
G37*
G36*
X138226Y103008D02*
X137934Y102717D01*
X138226Y102425D01*
X138347Y102717D01*
X138226Y103008D01*
D02*
G37*
G36*
X129921Y107891D02*
X129353Y107655D01*
X129117Y107087D01*
X129353Y106518D01*
X129426Y106488D01*
Y105649D01*
X129369Y105512D01*
X129422Y105384D01*
X129426Y105375D01*
Y104991D01*
X129261D01*
Y103949D01*
X129185Y103898D01*
X129185Y103898D01*
Y103898D01*
X128893Y103778D01*
X129255Y103416D01*
X129185Y103346D01*
X129255Y103277D01*
X129000Y103022D01*
X128868D01*
Y102926D01*
X128868Y102926D01*
Y101702D01*
X130188D01*
Y103022D01*
X129783D01*
X129672Y103188D01*
X129737Y103346D01*
X129672Y103504D01*
X129783Y103671D01*
X130581D01*
Y104991D01*
X130417D01*
Y105375D01*
D01*
X130473Y105512D01*
X130417Y105649D01*
Y106488D01*
X130490Y106518D01*
X130726Y107087D01*
X130490Y107655D01*
X129921Y107891D01*
D02*
G37*
G36*
X101378Y105384D02*
X100873Y105174D01*
X100664Y104669D01*
X100873Y104164D01*
X101378Y103955D01*
X101883Y104164D01*
X102092Y104669D01*
X101883Y105174D01*
X101378Y105384D01*
D02*
G37*
G36*
X103810Y104991D02*
X102490D01*
Y103671D01*
X103810D01*
Y104991D01*
D02*
G37*
G36*
X128754Y103638D02*
X128633Y103346D01*
X128754Y103055D01*
X129046Y103346D01*
X128754Y103638D01*
D02*
G37*
G36*
X150660Y104597D02*
X149340D01*
Y103277D01*
X150660D01*
Y104597D01*
D02*
G37*
G36*
X126268Y102300D02*
X125850D01*
Y101882D01*
X126268D01*
Y102300D01*
D02*
G37*
G36*
X125750D02*
X125332D01*
Y101882D01*
X125750D01*
Y102300D01*
D02*
G37*
G36*
X149873Y103022D02*
X148553D01*
Y101702D01*
X149873D01*
Y103022D01*
D02*
G37*
%LPD*%
G36*
X122869Y113891D02*
X122922Y113898D01*
X123008Y113934D01*
X123050Y113906D01*
Y113875D01*
Y113500D01*
X123200Y113350D01*
X123300Y113250D01*
X126800D01*
X126850Y113200D01*
X127150Y112900D01*
Y111550D01*
X126850Y111250D01*
X122300D01*
X122000Y111550D01*
Y111800D01*
Y112950D01*
X121950Y113000D01*
X122550Y113600D01*
Y113904D01*
Y113936D01*
X122595Y113958D01*
X122621Y113938D01*
X122717Y113898D01*
X122769Y113891D01*
Y114400D01*
X122869D01*
Y113891D01*
D02*
G37*
%LPC*%
G36*
X122856Y112559D02*
Y112000D01*
X123424D01*
X123417Y112070D01*
X123382Y112185D01*
X123325Y112291D01*
X123249Y112384D01*
X123156Y112460D01*
X123050Y112517D01*
X122935Y112551D01*
X122856Y112559D01*
D02*
G37*
G36*
X122756Y111900D02*
X122187D01*
X122194Y111830D01*
X122229Y111715D01*
X122286Y111609D01*
X122362Y111516D01*
X122455Y111440D01*
X122561Y111383D01*
X122676Y111349D01*
X122756Y111341D01*
Y111900D01*
D02*
G37*
G36*
X123424D02*
X122856D01*
Y111341D01*
X122935Y111349D01*
X123050Y111383D01*
X123156Y111440D01*
X123249Y111516D01*
X123325Y111609D01*
X123382Y111715D01*
X123417Y111830D01*
X123424Y111900D01*
D02*
G37*
G36*
X126400Y111850D02*
X126000D01*
X126009Y111782D01*
X126055Y111672D01*
X126127Y111577D01*
X126222Y111505D01*
X126332Y111459D01*
X126400Y111450D01*
Y111850D01*
D02*
G37*
G36*
Y112350D02*
X126332Y112341D01*
X126222Y112295D01*
X126127Y112223D01*
X126055Y112128D01*
X126009Y112018D01*
X126000Y111950D01*
X126400D01*
Y112350D01*
D02*
G37*
G36*
X126500D02*
Y111950D01*
X126900D01*
X126891Y112018D01*
X126845Y112128D01*
X126773Y112223D01*
X126678Y112295D01*
X126568Y112341D01*
X126500Y112350D01*
D02*
G37*
G36*
X126900Y111850D02*
X126500D01*
Y111450D01*
X126568Y111459D01*
X126678Y111505D01*
X126773Y111577D01*
X126845Y111672D01*
X126891Y111782D01*
X126900Y111850D01*
D02*
G37*
G36*
X122756Y112559D02*
X122676Y112551D01*
X122561Y112517D01*
X122455Y112460D01*
X122362Y112384D01*
X122286Y112291D01*
X122229Y112185D01*
X122194Y112070D01*
X122187Y112000D01*
X122756D01*
Y112559D01*
D02*
G37*
%LPD*%
D10*
X135882Y113780D02*
X137550Y112111D01*
Y103700D02*
Y112111D01*
X137150Y103300D02*
X137550Y103700D01*
X137150Y101400D02*
Y103300D01*
X147047Y90354D02*
X147835Y89567D01*
X137150Y101400D02*
X139764Y98786D01*
Y93504D02*
Y98786D01*
X126701Y95650D02*
Y99701D01*
X115666Y94866D02*
X116666Y95866D01*
X117087D01*
X115205Y94866D02*
X115666D01*
X117323Y99055D02*
X117750Y98628D01*
Y96530D02*
Y98628D01*
X117087Y95866D02*
X117750Y96530D01*
X125800Y102350D02*
Y108494D01*
X115216Y98596D02*
X115638Y99055D01*
X115205Y98583D02*
X115216Y98596D01*
X103976Y96378D02*
Y96929D01*
X125800Y108494D02*
X126450Y109144D01*
X125800Y102350D02*
X126701Y101449D01*
Y99701D02*
Y101449D01*
X102598Y82795D02*
X103244D01*
X103756Y83307D01*
X103740Y87638D02*
Y88189D01*
X103756Y88205D02*
Y88236D01*
X103740Y88189D02*
X103756Y88205D01*
X102598Y91220D02*
X103307D01*
X103953Y92126D01*
Y92567D01*
X102559Y91220D02*
X102598D01*
X103953Y96898D02*
Y96906D01*
X103976Y96929D01*
X102559Y99803D02*
X102890D01*
X103559Y100472D01*
Y101228D01*
X115205Y98583D02*
Y98606D01*
X148032Y84465D02*
Y86071D01*
X101890Y91850D02*
Y95787D01*
X103756Y83307D02*
Y83906D01*
X103740Y87638D02*
X104134Y86968D01*
X103071D02*
X103740Y87638D01*
X103386Y95787D02*
X103976Y96378D01*
X104134Y86929D02*
Y86968D01*
X116614Y87008D02*
Y87874D01*
X139764Y91732D02*
Y93504D01*
X147244Y83677D02*
X148032Y84465D01*
X101890Y95787D02*
Y99134D01*
X102087Y83307D02*
X102598Y82795D01*
X102087Y90669D02*
X102598Y91220D01*
X101890Y91850D02*
X102559Y91220D01*
X101890Y95787D02*
X103386D01*
X101890Y99134D02*
X102559Y99803D01*
X116614Y87874D02*
X118110Y89370D01*
X139764Y91732D02*
X141142Y90354D01*
X146063Y83677D02*
X147244D01*
X102087Y86968D02*
X103071D01*
X102087D02*
Y90669D01*
X115638Y99055D02*
X117323D01*
X102087Y83307D02*
Y86968D01*
X141142Y90354D02*
X147047D01*
D11*
X139213Y117677D02*
X140000Y116890D01*
X134606Y117677D02*
X139213D01*
X131700Y114771D02*
X134606Y117677D01*
X122150Y114557D02*
X122229Y114479D01*
X130315Y117598D02*
X131083Y116831D01*
X127409Y117598D02*
X130315D01*
X126543Y116732D02*
X127409Y117598D01*
X106173Y111819D02*
X107079D01*
X105512Y113425D02*
X105527Y111819D01*
X105528Y111811D01*
X104929Y113976D02*
Y116479D01*
X112866Y111819D02*
X113772D01*
X108929Y115354D02*
Y116479D01*
X143968Y115354D02*
Y116850D01*
X147969Y115354D02*
Y116850D01*
X153024Y111819D02*
X153929D01*
X151968Y114173D02*
Y116369D01*
X131700Y113001D02*
Y114771D01*
Y113001D02*
X132299Y112402D01*
X122150Y115550D02*
X123350Y116750D01*
X122150Y114557D02*
Y115550D01*
X123350Y116750D02*
X126500D01*
X103150Y111811D02*
X103937D01*
X103945Y111819D01*
X105528Y111811D02*
Y111819D01*
X107079D02*
X107087Y111811D01*
X109843D02*
X110630D01*
X110638Y111819D01*
X108929Y115354D02*
X109717Y114567D01*
X112220Y111819D02*
Y113189D01*
X113772Y111819D02*
X113780Y111811D01*
X130717Y111819D02*
X131689D01*
X129921Y111811D02*
X130709D01*
X130717Y111819D01*
X132299D02*
Y112402D01*
X132909Y111819D02*
X133850D01*
X133858Y111811D02*
X134646D01*
X133850Y111819D02*
X133858Y111811D01*
X138992Y111819D02*
Y113189D01*
X139602Y111819D02*
X140543D01*
X138382D02*
X138386Y113189D01*
X140543Y111819D02*
X140551Y111811D01*
X146079Y111819D02*
Y113465D01*
X147244Y111811D02*
X148032D01*
X147236Y111819D02*
X147244Y111811D01*
X152378Y111819D02*
Y113764D01*
X150795Y111819D02*
X151768D01*
X150787Y111811D02*
X150795Y111819D01*
X153937Y111811D02*
X154724D01*
X153929Y111819D02*
X153937Y111811D01*
X138992Y113189D02*
X140370Y114567D01*
X151968Y114173D02*
X152378Y113764D01*
X107087Y111811D02*
X107874D01*
X103945Y111819D02*
X104917D01*
X113780Y111811D02*
X114567D01*
X110638Y111819D02*
X111610D01*
X109717Y114567D02*
X110843D01*
X143307Y111811D02*
X144094D01*
X140551D02*
X141339D01*
X144094D02*
X144102Y111819D01*
X143181Y114567D02*
X143968Y115354D01*
X140370Y114567D02*
X143181D01*
X150000Y111811D02*
X150787D01*
X146689Y111819D02*
X147236D01*
X104929Y113976D02*
X105512Y113425D01*
X110843Y114567D02*
X112220Y113189D01*
X136614Y114961D02*
X138386Y113189D01*
X146079Y113465D02*
X147969Y115354D01*
X144102Y111819D02*
X145469D01*
D12*
X106063Y92559D02*
X106094Y92549D01*
X107283Y87630D02*
X108228Y88150D01*
X107283Y87630D02*
X107283Y87630D01*
X107240Y87606D02*
X107244Y87598D01*
X99606Y102394D02*
Y106394D01*
X97323D02*
X99606D01*
X100000Y106890D02*
Y110394D01*
X97323D02*
X100000D01*
X143630Y92520D02*
X144200Y91950D01*
X144252Y91898D01*
X98842Y84700D02*
X99606Y85465D01*
X97339Y84700D02*
X98842D01*
X99606Y96654D02*
Y102394D01*
X97323D02*
X99606D01*
X97323Y84717D02*
X97339Y84700D01*
X142685Y79685D02*
X144291Y81291D01*
X141515Y79685D02*
X142685D01*
X140350Y80850D02*
X141515Y79685D01*
X151920Y93620D02*
X152362D01*
X151181Y92881D02*
X151920Y93620D01*
X151181Y86220D02*
Y92881D01*
X142346Y80850D02*
Y83032D01*
X97339Y88701D02*
X98819D01*
X97323Y114394D02*
X98819D01*
X106929Y115354D02*
Y116479D01*
X130346Y80854D02*
Y81496D01*
X134346Y80854D02*
Y81496D01*
X138346Y81496D02*
Y82874D01*
X137165Y82677D02*
X138346Y81496D01*
X138350Y80850D02*
Y81696D01*
X144291Y81291D02*
Y82874D01*
X137968Y111533D02*
Y112583D01*
Y111533D02*
X138050Y111451D01*
X136181Y114370D02*
X137968Y112583D01*
X138050Y102971D02*
Y111451D01*
X137795Y102717D02*
X138050Y102971D01*
X113559Y102559D02*
X113976D01*
X107975Y102275D02*
X109069Y101181D01*
X111169D01*
X112205Y91929D02*
Y92995D01*
X111611Y93589D02*
X112205Y92995D01*
X110961Y93589D02*
X111611D01*
X108661Y95889D02*
X110961Y93589D01*
X108661Y95889D02*
Y96389D01*
X111614Y96417D02*
Y100736D01*
X111169Y101181D02*
X111614Y100736D01*
X106299Y98201D02*
Y101851D01*
X106100Y102050D02*
X106299Y101851D01*
X105485Y102050D02*
X106100D01*
X104976Y102559D02*
X105485Y102050D01*
X131955Y89355D02*
X132900D01*
X133465Y88790D01*
Y88583D02*
Y88790D01*
X137272Y91800D02*
X138386Y92913D01*
X135698Y91800D02*
X137272D01*
X133858Y89961D02*
X135698Y91800D01*
X139950Y84650D02*
Y85837D01*
X139749Y84449D02*
X139950Y84650D01*
X136559Y84449D02*
X139749D01*
X138827Y86961D02*
X139950Y85837D01*
X147441Y84741D02*
Y86541D01*
X146952Y84252D02*
X147441Y84741D01*
X145669Y84252D02*
X146952D01*
X114173Y90945D02*
X115197Y89921D01*
X114173Y90945D02*
Y96063D01*
X112992Y91492D02*
Y91732D01*
X112429Y90929D02*
X112992Y91492D01*
X112205Y90929D02*
X112429D01*
X123228Y91339D02*
Y92922D01*
X123040Y93110D02*
X123228Y92922D01*
X120291Y93110D02*
X123040D01*
X126500Y93550D02*
X127378Y92672D01*
X126500Y93550D02*
X126701D01*
Y93701D01*
X127378Y92520D02*
Y92672D01*
X106486Y92157D02*
X107283D01*
X106094Y92549D02*
X106486Y92157D01*
X106299Y98201D02*
X107050Y97450D01*
X107600D01*
X108661Y96389D01*
X147632Y86732D02*
X148228D01*
X147441Y86541D02*
X147632Y86732D01*
X140354Y94898D02*
Y99296D01*
X137795Y101855D02*
X140354Y99296D01*
X137795Y101855D02*
Y102717D01*
X121142Y103346D02*
X123800D01*
X97386Y96654D02*
X99606D01*
X98819Y88701D02*
X99606D01*
X122819Y111964D02*
X126386D01*
X107239Y87607D02*
X107240Y87606D01*
X107240Y87606D01*
X107240Y87606D01*
X128300Y102461D02*
X129185Y103346D01*
X128300Y100550D02*
Y102461D01*
X127701Y99951D02*
X128300Y100550D01*
X113386Y98606D02*
Y100000D01*
X107276Y87630D02*
X107283D01*
X107276D02*
X107276D01*
X107283D02*
X107283D01*
X107275Y87629D02*
X107276Y87630D01*
X107270Y87624D02*
X107275Y87629D01*
X107269Y87622D02*
X107270Y87624D01*
X107269Y87622D02*
X107276Y87630D01*
X107269Y87622D02*
X107283Y87630D01*
X107262D02*
X107267Y87625D01*
X107267Y87624D01*
X107269Y87623D01*
X107269Y87623D01*
X107269Y87622D01*
X107274Y87629D02*
X107276Y87630D01*
X107269Y87623D02*
X107274Y87629D01*
X107267Y87622D02*
X107269Y87623D01*
X107244Y87598D02*
X107267Y87622D01*
X107267Y87625D02*
X107276Y87630D01*
X107255Y87617D02*
X107267Y87625D01*
X107239Y87607D02*
X107255Y87617D01*
X107275Y87629D02*
X107276Y87630D01*
X107274Y87629D02*
X107275Y87629D01*
X107267Y87624D02*
X107274Y87629D01*
X107254Y87616D02*
X107267Y87624D01*
X107239Y87607D02*
X107254Y87616D01*
X107269Y87622D02*
X107269Y87622D01*
X107267Y87622D02*
X107269Y87622D01*
X107253Y87614D02*
X107267Y87622D01*
X107239Y87607D02*
X107253Y87614D01*
X107270Y87624D02*
X107276Y87630D01*
X107269Y87623D02*
X107270Y87624D01*
X107269Y87622D02*
X107269Y87623D01*
X107244Y87598D02*
X107269Y87622D01*
X107255Y87617D02*
X107262Y87630D01*
X107254Y87616D02*
X107255Y87617D01*
X107253Y87614D02*
X107254Y87616D01*
X107244Y87598D02*
X107253Y87614D01*
X127701Y99701D02*
Y99951D01*
X119961Y102165D02*
X121142Y103346D01*
X141050Y97887D02*
X141732Y97205D01*
X98819Y88677D02*
Y88701D01*
X99567Y92638D02*
X99606Y92677D01*
X99567Y92638D02*
X99606D01*
Y92677D01*
Y106417D02*
X100000Y106890D01*
X104756Y87638D02*
Y88236D01*
X103953Y93661D02*
X104346Y93268D01*
X103953Y93661D02*
Y93898D01*
X102165Y106890D02*
X103150Y107087D01*
X105512Y82087D02*
X105906Y81693D01*
X105512Y82087D02*
X105543D01*
X105906Y85236D02*
Y86496D01*
X105898D02*
X105906D01*
X106978Y87473D02*
X107239Y87607D01*
X106978Y87473D02*
X107244Y87598D01*
X106496Y87244D02*
X106978Y87473D01*
X106535Y87244D02*
X106978Y87473D01*
X105906Y87795D02*
X106496Y87205D01*
X105906Y87795D02*
Y88441D01*
X106102Y89370D02*
Y89606D01*
X107262Y87630D02*
X107276D01*
X107244Y87598D02*
X107269Y87622D01*
X106496Y87205D02*
X106535Y87244D01*
X106496D02*
X106535D01*
X106496Y87205D02*
Y87244D01*
X107239Y87607D02*
X107262Y87630D01*
X106063Y92559D02*
X106079Y92575D01*
X106063Y92559D02*
X106102Y92575D01*
X106079D02*
X106102D01*
X106063Y93898D02*
Y95236D01*
Y93898D02*
X106102D01*
X106055Y95236D02*
X106063D01*
X105709Y101181D02*
Y101228D01*
X106720Y105933D02*
X107874Y107087D01*
X109843Y89173D02*
X110630D01*
X108268Y91173D02*
X109843D01*
X108228Y88150D02*
Y91181D01*
X110591Y91165D02*
X110827Y90929D01*
X109843Y91173D02*
X110591D01*
Y91181D01*
Y91165D02*
X110606Y91173D01*
X110591D02*
X110606D01*
X110591Y91165D02*
Y91173D01*
X108228Y91181D02*
X108268Y91173D01*
X109843Y97835D02*
X110827D01*
X109055Y111614D02*
Y113228D01*
X111220Y88543D02*
Y88583D01*
X112244Y94843D02*
X112992D01*
X111433Y94866D02*
X112205D01*
X112244Y94843D01*
X112165Y95866D02*
X112205D01*
Y98606D02*
X113386D01*
Y98032D02*
Y98606D01*
X112992Y97638D02*
X113386Y98032D01*
X112205Y99646D02*
Y101575D01*
Y99606D02*
Y99646D01*
X114496Y88543D02*
X115205Y89252D01*
X114961Y96850D02*
X116850D01*
X118701Y92717D02*
X119291Y92126D01*
X118110Y93110D02*
X118701Y93701D01*
X117244Y97244D02*
Y98425D01*
X119685Y99724D02*
Y101378D01*
X119701Y99701D02*
Y99709D01*
X119685Y99724D02*
X119701Y99709D01*
X125701Y93268D02*
Y93701D01*
X126378Y92520D02*
X126449D01*
X130346Y81496D02*
X131213Y82598D01*
X130283Y91732D02*
Y92323D01*
X130315Y90551D02*
Y91701D01*
X129315Y90551D02*
Y91339D01*
X129701Y91724D01*
X130283Y91732D02*
X130315Y91701D01*
X129701Y93701D02*
Y95638D01*
X129134Y97047D02*
X131299D01*
X131701Y99701D02*
Y100591D01*
X134331Y81535D02*
X134858Y82677D01*
X133638Y82598D02*
X134346Y81496D01*
X134331Y81535D02*
X134346Y81496D01*
Y81520D01*
X134331Y81535D02*
X134346Y81520D01*
X134858Y84252D02*
Y84843D01*
X134449Y85252D02*
X134858Y84843D01*
X134449Y85252D02*
Y86583D01*
X133465Y88583D02*
X133858Y88189D01*
X132283Y90551D02*
Y92323D01*
X132701Y95843D02*
X134252Y94291D01*
X132701Y93701D02*
X133291Y93110D01*
X134055D01*
X134701Y99701D02*
Y100787D01*
X134504Y100984D02*
X134701Y100787D01*
X133874Y100984D02*
X134504D01*
X132732Y102362D02*
X133913Y103543D01*
X134646D01*
Y105138D02*
Y107087D01*
X135709Y93701D02*
X136055Y93110D01*
X135701Y93701D02*
X135709D01*
X135701Y99701D02*
Y100520D01*
X135236Y114370D02*
X136181D01*
X138346Y82874D02*
X139173Y83858D01*
X139961Y87992D02*
Y89031D01*
Y87992D02*
X140551Y87402D01*
X140764Y93504D02*
Y94488D01*
X140354Y94898D02*
X140764Y94488D01*
X141535Y83843D02*
X142346Y83032D01*
X142717Y86614D02*
X143504D01*
X142913Y88386D02*
Y89535D01*
X142717Y88189D02*
X142913Y88386D01*
X142717Y87614D02*
Y88189D01*
X141732D02*
Y88724D01*
X141535Y87992D02*
X141732Y88189D01*
X142913Y92520D02*
X143630D01*
X142913Y91535D02*
Y92520D01*
X142126D02*
X142913D01*
X141732Y91339D02*
Y91929D01*
Y91339D02*
X142126Y90945D01*
X141339Y105138D02*
Y107087D01*
X144291Y84843D02*
Y85827D01*
X144299Y90945D02*
X145252Y91898D01*
X147244Y83071D02*
X148032D01*
X147850Y81693D02*
X148598Y82323D01*
X149291D01*
X147252Y91929D02*
X148425D01*
X147252Y91898D02*
Y91929D01*
X148425D02*
Y91984D01*
X150213Y81181D02*
X152031Y83000D01*
Y83071D01*
X151032Y86071D02*
X151181Y86220D01*
X150787Y93135D02*
X152362Y94710D01*
Y94710D02*
Y94710D01*
X151575Y98032D02*
X151968D01*
X150394Y96850D02*
X151575Y98032D01*
X151968D02*
X152362Y97638D01*
Y96890D02*
Y97638D01*
X151181Y101378D02*
X151575Y100984D01*
X153965Y106327D02*
X154724Y107087D01*
X99606Y92677D02*
Y96654D01*
Y88701D02*
Y92638D01*
X100000Y110433D02*
Y113606D01*
X104756Y82874D02*
Y83906D01*
X105906Y83913D02*
X106496Y84504D01*
X105906Y80906D02*
X107283D01*
X105906D02*
Y81693D01*
Y80709D02*
Y80906D01*
X106102Y92575D02*
Y92913D01*
X105748Y93268D02*
X106102Y92913D01*
X106720Y104378D02*
Y105933D01*
X106890Y98591D02*
X107480Y99181D01*
Y101945D01*
X106720Y102705D02*
X107480Y101945D01*
X109843Y104331D02*
Y104921D01*
X112992Y91732D02*
Y94843D01*
X111614Y96417D02*
X112165Y95866D01*
X113413Y104378D02*
Y105933D01*
X112205Y106299D02*
Y108465D01*
X114173Y96063D02*
X114961Y96850D01*
X115205Y89252D02*
Y89929D01*
X115197Y89921D02*
X115205Y89929D01*
X118110Y92575D02*
Y93110D01*
X118701Y92717D02*
Y93701D01*
X121654Y85630D02*
Y92520D01*
X127701Y97638D02*
Y99701D01*
X129701Y91724D02*
Y93701D01*
X129425Y98425D02*
X130701Y99701D01*
X134858Y82677D02*
Y84252D01*
X134055Y93110D02*
X134646Y92520D01*
X133701Y99701D02*
X134780Y98622D01*
X133886Y104378D02*
X134646Y105138D01*
X135969Y83858D02*
X136559Y84449D01*
X136055Y93110D02*
X136646Y92520D01*
X139031Y89961D02*
X139961Y89031D01*
X138827Y86961D02*
Y89024D01*
X139031Y101968D02*
X140606Y103543D01*
X141732Y92913D02*
X142126Y92520D01*
X141732Y92913D02*
Y97205D01*
X142520Y101968D02*
Y104921D01*
X144291Y82874D02*
X145669Y84252D01*
X146850Y80709D02*
Y82677D01*
X146878Y103984D02*
Y105933D01*
X149213Y80709D02*
Y81252D01*
X147850Y80709D02*
Y81693D01*
X150213Y80709D02*
Y81181D01*
X150394Y87961D02*
Y96850D01*
X150787Y86827D02*
Y93135D01*
X151575Y98032D02*
Y100984D01*
X153965Y103591D02*
Y106327D01*
X99606Y85465D02*
Y88701D01*
X106496Y84504D02*
Y87205D01*
X112992Y94843D02*
Y97638D01*
X122638Y85591D02*
Y91732D01*
X132701Y95843D02*
Y99701D01*
X133858Y84252D02*
Y88189D01*
X138386Y92913D02*
Y99016D01*
X141535Y84843D02*
Y87992D01*
X104756Y82874D02*
X105543Y82087D01*
X107283Y92157D02*
X108268Y91173D01*
X104953Y90748D02*
Y92567D01*
X97362Y92677D02*
X99606D01*
X104953Y90748D02*
X104961D01*
X104346Y93268D02*
X105748D01*
X104953Y96339D02*
Y96898D01*
X104559Y101228D02*
X105709D01*
X100000Y106890D02*
X102165D01*
X111220Y88543D02*
X114496D01*
X110630Y89173D02*
X111220Y88583D01*
X110827Y90929D02*
X112205D01*
X110606Y91173D02*
X111220Y91787D01*
X111024Y95276D02*
X111433Y94866D01*
X119701Y93701D02*
X120291Y93110D01*
X116850Y96850D02*
X117244Y97244D01*
X111024Y97047D02*
Y97638D01*
X110827Y97835D02*
X111024Y97638D01*
X113386Y100000D02*
X113976Y100472D01*
X114370Y102165D02*
X119961D01*
X113976Y102559D02*
X114370Y102165D01*
X113976Y100472D02*
Y102559D01*
X113413Y105933D02*
X114567Y107087D01*
X128402Y86165D02*
X132283D01*
X122701Y93701D02*
X123291Y94291D01*
X129134D01*
X128937Y98425D02*
X129425D01*
X122244Y101181D02*
X123228D01*
X131701Y100591D02*
X132094Y100984D01*
X132874D01*
X134858Y82677D02*
X137165D01*
X143504Y86614D02*
X144291Y85827D01*
X142126Y90945D02*
X144299D01*
X134780Y98622D02*
X137205D01*
X134646Y101575D02*
X135701Y100520D01*
X140606Y103543D02*
X141339D01*
X133858Y115748D02*
X135236Y114370D01*
X146850Y82677D02*
X147244Y83071D01*
X149213Y81252D02*
X151032Y83071D01*
X149291Y82323D02*
X150031Y83071D01*
Y86071D02*
X150787Y86827D01*
X149835Y87402D02*
X150394Y87961D01*
X148425Y91984D02*
X150000Y90409D01*
X147811Y101378D02*
X151181D01*
X151575Y100984D02*
X153032D01*
X146906Y103150D02*
X147638D01*
X146878Y105933D02*
X148032Y107087D01*
X104756Y87638D02*
X105898Y86496D01*
X104961Y90748D02*
X106102Y89606D01*
X104953Y96339D02*
X106055Y95236D01*
X106929Y115354D02*
X109055Y113228D01*
X98819Y114394D02*
X100000Y113606D01*
X111024Y95276D02*
Y96118D01*
X109646Y109000D02*
X111024Y107622D01*
Y102756D02*
Y107622D01*
Y102756D02*
X112205Y101575D01*
X125701Y93268D02*
X126449Y92520D01*
X123228Y91339D02*
X128402Y86165D01*
X137701Y99701D02*
X138386Y99016D01*
X140579Y104378D02*
X141339Y105138D01*
X150000Y88386D02*
Y90409D01*
X148228Y86732D02*
X150000Y88386D01*
X146878Y102311D02*
X147811Y101378D01*
X153032Y100984D02*
X153965Y101917D01*
X145724Y101968D02*
X146906Y103150D01*
X127701Y97638D02*
X129701Y95638D01*
X131213Y82598D02*
X133638D01*
X130906Y101575D02*
X134646D01*
X107283Y80906D02*
X118150D01*
X126181Y89961D02*
X133858D01*
X118150Y80906D02*
X122638Y85591D01*
X109055Y111614D02*
X112205Y108465D01*
X101378Y109000D02*
X109646D01*
D13*
X147835Y87402D02*
Y89567D01*
X123800Y103346D02*
Y105731D01*
Y102350D02*
Y103346D01*
X123681Y105850D02*
X123800Y105731D01*
X124701Y99701D02*
Y103300D01*
D14*
X105528Y111811D02*
X106181D01*
X106173Y111819D02*
X106181Y111811D01*
X112220D02*
X112874D01*
X112866Y111819D02*
X112874Y111811D01*
X138953D02*
X139606D01*
X146039D02*
X146693D01*
X152378D02*
X153032D01*
X153024Y111819D02*
X153032Y111811D01*
X143307Y101307D02*
Y103937D01*
X143050Y101050D02*
X143307Y101307D01*
X141400Y101050D02*
X143050D01*
X141050Y100700D02*
X141400Y101050D01*
X141050Y97887D02*
Y100700D01*
X106138Y111819D02*
X106181Y111811D01*
X106138Y111819D02*
X106173D01*
X112220Y111811D02*
Y111819D01*
X112831D02*
X112874Y111811D01*
X112831Y111819D02*
X112866D01*
X129921Y105512D02*
Y107087D01*
X132260Y111811D02*
X132913D01*
X132909Y111819D02*
X132913Y111811D01*
X132909Y111815D02*
Y111819D01*
X132260Y111811D02*
X132299Y111819D01*
X132260Y111811D02*
X132268Y111819D01*
X132909Y111815D02*
X132913Y111811D01*
X132268Y111819D02*
X132299D01*
X136614Y105512D02*
Y107087D01*
X139602Y111819D02*
X139606Y111811D01*
X139602Y111815D02*
Y111819D01*
X138953Y111811D02*
X138992Y111819D01*
X138953Y111811D02*
X138961Y111819D01*
X139602Y111815D02*
X139606Y111811D01*
X138961Y111819D02*
X138992D01*
X146039Y111811D02*
X146079Y111819D01*
X146047D02*
X146079D01*
X146689Y111815D02*
X146693Y111811D01*
X146039D02*
X146047Y111819D01*
X146689D02*
X146693Y111811D01*
X146689Y111815D02*
Y111819D01*
X152378Y111811D02*
Y111819D01*
X129921Y104331D02*
Y105512D01*
X136614Y104331D02*
Y105512D01*
X152988Y111819D02*
X153032Y111811D01*
X152988Y111819D02*
X153024D01*
D15*
X120811Y114400D02*
D03*
X121481D02*
D03*
X122150D02*
D03*
X122819D02*
D03*
D16*
X123489D02*
D03*
D17*
X116900Y111950D02*
D03*
D18*
X122806D02*
D03*
D19*
X126450Y111900D02*
D03*
Y109144D02*
D03*
X123681Y105850D02*
D03*
X125650D02*
D03*
X133874Y100984D02*
D03*
X101378Y80457D02*
D03*
X101181Y89315D02*
D03*
X101150Y93445D02*
D03*
X101378Y104669D02*
D03*
X100945Y97976D02*
D03*
X106102Y92575D02*
D03*
Y97102D02*
D03*
X109843Y91173D02*
D03*
Y95701D02*
D03*
X125016Y92520D02*
D03*
X132900Y89355D02*
D03*
X142913Y89535D02*
D03*
X141732Y88724D02*
D03*
X148425Y91984D02*
D03*
X154724Y102756D02*
D03*
X153965Y103591D02*
D03*
Y101917D02*
D03*
X101181Y84984D02*
D03*
X109843Y99835D02*
D03*
X142717Y87614D02*
D03*
X145276Y84787D02*
D03*
X104976Y102559D02*
D03*
X105650Y104331D02*
D03*
X116480Y101378D02*
D03*
X130283Y92323D02*
D03*
X135969Y85039D02*
D03*
X135995Y91200D02*
D03*
X105906Y83913D02*
D03*
X103756Y80906D02*
D03*
X104756D02*
D03*
X102756Y83906D02*
D03*
X103756D02*
D03*
X104756D02*
D03*
X107283Y96488D02*
D03*
Y92157D02*
D03*
X103953Y89567D02*
D03*
X104953D02*
D03*
X102953Y92567D02*
D03*
X103953D02*
D03*
X104953D02*
D03*
X105600Y97995D02*
D03*
X106890Y98591D02*
D03*
X107480Y103543D02*
D03*
X106720Y104378D02*
D03*
Y102705D02*
D03*
X103559Y98228D02*
D03*
X104559D02*
D03*
X102559Y101228D02*
D03*
X103559D02*
D03*
X104559D02*
D03*
X111220Y91787D02*
D03*
X111024Y96118D02*
D03*
X118110Y92575D02*
D03*
X112205Y94866D02*
D03*
Y93866D02*
D03*
X115205Y95866D02*
D03*
Y94866D02*
D03*
Y93866D02*
D03*
X112205Y90929D02*
D03*
Y89929D02*
D03*
X115205Y91929D02*
D03*
Y90929D02*
D03*
Y89929D02*
D03*
X116050Y92900D02*
D03*
X119291Y90126D02*
D03*
X114173Y103543D02*
D03*
X113413Y104378D02*
D03*
Y102705D02*
D03*
X127378Y92520D02*
D03*
X129315Y90551D02*
D03*
X131950Y86145D02*
D03*
X132732Y102362D02*
D03*
X132421Y104331D02*
D03*
X135969Y83858D02*
D03*
X136646Y92520D02*
D03*
X135646D02*
D03*
X134646D02*
D03*
X140764Y93504D02*
D03*
X139031Y89961D02*
D03*
X140748Y91984D02*
D03*
X134449Y86583D02*
D03*
X136827Y86024D02*
D03*
X137827D02*
D03*
X138827D02*
D03*
X135827Y89024D02*
D03*
X136827D02*
D03*
X137827D02*
D03*
X138827D02*
D03*
X140551Y86402D02*
D03*
X139031Y101968D02*
D03*
X139114Y104331D02*
D03*
X141339Y103543D02*
D03*
X140579Y104378D02*
D03*
Y102705D02*
D03*
X152575Y80709D02*
D03*
X150213D02*
D03*
X147850D02*
D03*
X149409Y88921D02*
D03*
X149835Y87402D02*
D03*
X152500Y103937D02*
D03*
X147638Y103150D02*
D03*
X146878Y103984D02*
D03*
Y102311D02*
D03*
X152417Y102362D02*
D03*
X105906Y88441D02*
D03*
X103756Y85236D02*
D03*
X104756D02*
D03*
X102756Y88236D02*
D03*
X103756D02*
D03*
X104756D02*
D03*
X103953Y93898D02*
D03*
X104953D02*
D03*
X102953Y96898D02*
D03*
X103953D02*
D03*
X104953D02*
D03*
X101378Y109000D02*
D03*
X111024Y100252D02*
D03*
X123800Y102350D02*
D03*
X112205Y98606D02*
D03*
Y97606D02*
D03*
X115205Y99606D02*
D03*
Y98606D02*
D03*
Y97606D02*
D03*
X144291Y88047D02*
D03*
X141535Y83843D02*
D03*
X149031Y83071D02*
D03*
X150031D02*
D03*
X151032D02*
D03*
X152031D02*
D03*
X153032D02*
D03*
X154031D02*
D03*
X148032Y86071D02*
D03*
X149031D02*
D03*
X150031D02*
D03*
X151032D02*
D03*
X152031D02*
D03*
X153032D02*
D03*
X154031D02*
D03*
X155031D02*
D03*
Y83071D02*
D03*
X146260Y88047D02*
D03*
X107283Y82906D02*
D03*
X134858Y84252D02*
D03*
X146063Y83677D02*
D03*
X122654Y92520D02*
D03*
X133283Y90551D02*
D03*
X145250Y89000D02*
D03*
X146250D02*
D03*
X147250D02*
D03*
X144250Y92000D02*
D03*
X145250D02*
D03*
X146250D02*
D03*
X147250D02*
D03*
X109000Y102953D02*
D03*
X112343Y104331D02*
D03*
X145724Y101968D02*
D03*
X134646Y103543D02*
D03*
X133886Y104378D02*
D03*
Y102705D02*
D03*
X145807Y103937D02*
D03*
X134858Y115748D02*
D03*
X126500Y116750D02*
D03*
X135882Y113780D02*
D03*
X107283Y87630D02*
D03*
X119701Y93701D02*
D03*
X120701D02*
D03*
X121701D02*
D03*
X122701D02*
D03*
X123701D02*
D03*
X124701D02*
D03*
X125701D02*
D03*
X118701Y99701D02*
D03*
X119701D02*
D03*
X120701D02*
D03*
X121701D02*
D03*
X122701D02*
D03*
X123701D02*
D03*
X124701D02*
D03*
X125701D02*
D03*
X126701Y93701D02*
D03*
X127701D02*
D03*
X126701Y99701D02*
D03*
X127701D02*
D03*
X128701Y93701D02*
D03*
X129701D02*
D03*
X130701D02*
D03*
X131701D02*
D03*
X132701D02*
D03*
X133701D02*
D03*
X134701D02*
D03*
X135701D02*
D03*
X136701D02*
D03*
X128701Y99701D02*
D03*
X129701D02*
D03*
X130701D02*
D03*
X131701D02*
D03*
X132701D02*
D03*
X133701D02*
D03*
X134701D02*
D03*
X135701D02*
D03*
X136701D02*
D03*
X137701Y93701D02*
D03*
Y99701D02*
D03*
D20*
X102953Y116890D02*
D03*
X104953D02*
D03*
X106968D02*
D03*
X108968D02*
D03*
X129921Y107087D02*
D03*
Y111811D02*
D03*
X132283Y106299D02*
D03*
X134646Y107087D02*
D03*
Y111811D02*
D03*
X129134Y116850D02*
D03*
X131134D02*
D03*
X97323Y96717D02*
D03*
Y94717D02*
D03*
Y92717D02*
D03*
Y90717D02*
D03*
Y88717D02*
D03*
Y86717D02*
D03*
Y84717D02*
D03*
Y82717D02*
D03*
X103150Y107087D02*
D03*
Y111811D02*
D03*
X105512Y106299D02*
D03*
X107874Y107087D02*
D03*
Y111811D02*
D03*
X136614Y107087D02*
D03*
Y111811D02*
D03*
X138976Y106299D02*
D03*
X141339Y107087D02*
D03*
Y111811D02*
D03*
X150000Y107087D02*
D03*
Y111811D02*
D03*
X152362Y106299D02*
D03*
X154724Y107087D02*
D03*
Y111811D02*
D03*
X97323Y114394D02*
D03*
Y112394D02*
D03*
Y110394D02*
D03*
Y108394D02*
D03*
Y106394D02*
D03*
Y104394D02*
D03*
Y102394D02*
D03*
Y100394D02*
D03*
X142346Y80394D02*
D03*
X140346D02*
D03*
X138346D02*
D03*
X136346D02*
D03*
X134346D02*
D03*
X132346D02*
D03*
X130346D02*
D03*
X128346D02*
D03*
X109843Y107087D02*
D03*
Y111811D02*
D03*
X112205Y106299D02*
D03*
X114567Y107087D02*
D03*
Y111811D02*
D03*
X143307Y107087D02*
D03*
Y111811D02*
D03*
X145669Y106299D02*
D03*
X148032Y107087D02*
D03*
Y111811D02*
D03*
X138008Y116850D02*
D03*
X140008D02*
D03*
X142008D02*
D03*
X144008D02*
D03*
X146008D02*
D03*
X148008D02*
D03*
X150008D02*
D03*
X152008D02*
D03*
D21*
X132874Y100984D02*
D03*
X124016Y92520D02*
D03*
X101772Y102559D02*
D03*
X103150Y104331D02*
D03*
X119685Y101378D02*
D03*
X132283Y92323D02*
D03*
X139173Y85039D02*
D03*
X139200Y91200D02*
D03*
X112205Y95866D02*
D03*
Y91929D02*
D03*
X117050Y92900D02*
D03*
X126378Y92520D02*
D03*
X130315Y90551D02*
D03*
X129528Y102362D02*
D03*
X129921Y104331D02*
D03*
X139173Y83858D02*
D03*
X139764Y93504D02*
D03*
X135827Y89961D02*
D03*
Y101968D02*
D03*
X136614Y104331D02*
D03*
X151575Y80709D02*
D03*
X149213D02*
D03*
X146850D02*
D03*
X147835Y87402D02*
D03*
X150000Y103937D02*
D03*
X149213Y102362D02*
D03*
X125800Y102350D02*
D03*
X112205Y99606D02*
D03*
X133858Y84252D02*
D03*
X121654Y92520D02*
D03*
X132283Y90551D02*
D03*
X112205Y102953D02*
D03*
X109843Y104331D02*
D03*
X142520Y101968D02*
D03*
X143307Y103937D02*
D03*
X132677Y113780D02*
D03*
D22*
X101378Y83661D02*
D03*
X101181Y92520D02*
D03*
X101150Y96650D02*
D03*
X101378Y107874D02*
D03*
X100945Y101181D02*
D03*
X106102Y89370D02*
D03*
Y93898D02*
D03*
X109843Y89173D02*
D03*
Y93701D02*
D03*
X132900Y86150D02*
D03*
X142913Y91535D02*
D03*
X141732Y91929D02*
D03*
X148425Y88780D02*
D03*
X101181Y88189D02*
D03*
X109843Y97835D02*
D03*
X142717Y86614D02*
D03*
X145276Y87992D02*
D03*
X105906Y80709D02*
D03*
X102756Y80906D02*
D03*
X107283Y94488D02*
D03*
Y90157D02*
D03*
X102953Y89567D02*
D03*
X105600Y101200D02*
D03*
X106890Y100591D02*
D03*
X102559Y98228D02*
D03*
X111220Y88583D02*
D03*
X111024Y92913D02*
D03*
X118110Y89370D02*
D03*
X119291Y92126D02*
D03*
X131950Y89350D02*
D03*
X140748Y88780D02*
D03*
X134449Y88583D02*
D03*
X135827Y86024D02*
D03*
X140551Y87402D02*
D03*
X149409Y92126D02*
D03*
X105906Y85236D02*
D03*
X102756D02*
D03*
X102953Y93898D02*
D03*
X101378Y112205D02*
D03*
X111024Y97047D02*
D03*
X144291Y84843D02*
D03*
X141535D02*
D03*
X148032Y83071D02*
D03*
X146260Y84843D02*
D03*
X107283Y80906D02*
D03*
X146063Y82677D02*
D03*
X144250Y89000D02*
D03*
X133858Y115748D02*
D03*
X126500Y114250D02*
D03*
X107283Y85630D02*
D03*
X118701Y93701D02*
D03*
D23*
X154724Y80315D02*
D03*
Y116929D02*
D03*
X97244Y80315D02*
D03*
Y116929D02*
D03*
D24*
X152944Y89790D02*
D03*
Y99630D02*
D03*
D25*
X152362Y94710D02*
D03*
Y93620D02*
D03*
Y95800D02*
D03*
Y96890D02*
D03*
X153486Y93080D02*
D03*
Y94170D02*
D03*
Y95260D02*
D03*
Y96350D02*
D03*
D26*
X152362Y92530D02*
D03*
D27*
X109740Y109740D02*
D03*
X107880Y110050D02*
D03*
X103850Y115940D02*
D03*
X101680Y114700D02*
D03*
X132680Y83700D02*
D03*
X123070Y83390D02*
D03*
X125240Y87110D02*
D03*
X124310D02*
D03*
X126790Y81530D02*
D03*
X125860D02*
D03*
Y82460D02*
D03*
X126790D02*
D03*
X125240Y88040D02*
D03*
X123070Y84320D02*
D03*
X119040D02*
D03*
X117180Y108810D02*
D03*
X118110D02*
D03*
X119040D02*
D03*
X119970D02*
D03*
Y109740D02*
D03*
X119040D02*
D03*
X118110D02*
D03*
X117180D02*
D03*
X126790Y80600D02*
D03*
X113460Y84320D02*
D03*
X117180Y106950D02*
D03*
X118110D02*
D03*
X119040D02*
D03*
X119970D02*
D03*
Y107880D02*
D03*
X119040D02*
D03*
X118110D02*
D03*
X117180D02*
D03*
X119040Y83390D02*
D03*
X113460Y82460D02*
D03*
X114390D02*
D03*
X115320D02*
D03*
X116250D02*
D03*
X117180D02*
D03*
X119970Y110980D02*
D03*
X119040D02*
D03*
X118110D02*
D03*
X113460Y83390D02*
D03*
X108810D02*
D03*
X109740D02*
D03*
X110670D02*
D03*
X111600D02*
D03*
X112530D02*
D03*
Y82460D02*
D03*
X111600D02*
D03*
X110670D02*
D03*
X109740D02*
D03*
X108810D02*
D03*
X114390Y83390D02*
D03*
X115320D02*
D03*
X116250D02*
D03*
X117180D02*
D03*
X118110D02*
D03*
X112530Y84320D02*
D03*
X111600D02*
D03*
X110670D02*
D03*
X109740D02*
D03*
X108810D02*
D03*
X122140Y80600D02*
D03*
X123070D02*
D03*
X124000D02*
D03*
X124930D02*
D03*
X125860D02*
D03*
X118110Y84320D02*
D03*
X117180D02*
D03*
X116250D02*
D03*
X115320D02*
D03*
X114390D02*
D03*
X124930Y82460D02*
D03*
X124000D02*
D03*
X123070D02*
D03*
X122140D02*
D03*
X121210D02*
D03*
Y81530D02*
D03*
X122140D02*
D03*
X123070D02*
D03*
X124000D02*
D03*
X124930D02*
D03*
X112530Y114700D02*
D03*
X113460D02*
D03*
X114390D02*
D03*
Y113770D02*
D03*
X113460D02*
D03*
X131440Y109430D02*
D03*
X132370D02*
D03*
X133300D02*
D03*
X114390Y115630D02*
D03*
X113460D02*
D03*
X112530D02*
D03*
X111600D02*
D03*
X134230Y110360D02*
D03*
X133300D02*
D03*
X132370D02*
D03*
X131440D02*
D03*
X146630Y98270D02*
D03*
X147560D02*
D03*
X148490D02*
D03*
X149420D02*
D03*
X150350D02*
D03*
Y99200D02*
D03*
X149420D02*
D03*
X148490D02*
D03*
X147560D02*
D03*
X146630D02*
D03*
Y96410D02*
D03*
X147560D02*
D03*
X148490D02*
D03*
X149420D02*
D03*
X150350D02*
D03*
Y97340D02*
D03*
X149420D02*
D03*
X148490D02*
D03*
X147560D02*
D03*
X146630D02*
D03*
Y94550D02*
D03*
X147560D02*
D03*
X148490D02*
D03*
X149420D02*
D03*
X150350D02*
D03*
Y95480D02*
D03*
X149420D02*
D03*
X148490D02*
D03*
X147560D02*
D03*
X146630D02*
D03*
X143840Y98270D02*
D03*
X144770D02*
D03*
X145700D02*
D03*
Y99200D02*
D03*
X144770D02*
D03*
X143840D02*
D03*
Y96410D02*
D03*
X144770D02*
D03*
X145700D02*
D03*
Y97340D02*
D03*
X144770D02*
D03*
X143840D02*
D03*
Y94550D02*
D03*
X144770D02*
D03*
X145700D02*
D03*
Y95480D02*
D03*
X144770D02*
D03*
X143840D02*
D03*
X119040Y112840D02*
D03*
X118110D02*
D03*
X121830Y107880D02*
D03*
X122760D02*
D03*
X124000Y83390D02*
D03*
Y84320D02*
D03*
X122760Y106950D02*
D03*
X121830D02*
D03*
X119040Y111910D02*
D03*
X119970D02*
D03*
X120900Y108810D02*
D03*
X122760Y109740D02*
D03*
X121830D02*
D03*
X117180Y113770D02*
D03*
X118110D02*
D03*
Y114700D02*
D03*
X117180D02*
D03*
X121830Y108810D02*
D03*
X122760D02*
D03*
X120900Y109740D02*
D03*
Y106950D02*
D03*
Y107880D02*
D03*
X128340Y105400D02*
D03*
Y107260D02*
D03*
Y106330D02*
D03*
X119040Y114700D02*
D03*
X119970D02*
D03*
X113460Y108810D02*
D03*
X114390D02*
D03*
X128340Y108190D02*
D03*
X119970Y113770D02*
D03*
X119040D02*
D03*
X113460Y90210D02*
D03*
Y89280D02*
D03*
X121830Y110980D02*
D03*
X120900D02*
D03*
X112530Y109740D02*
D03*
X118110Y82460D02*
D03*
X120280Y81530D02*
D03*
X119350Y80600D02*
D03*
X120280D02*
D03*
X121210D02*
D03*
X114390Y110670D02*
D03*
X113460D02*
D03*
X112530D02*
D03*
X111600D02*
D03*
X120900Y111910D02*
D03*
X119970Y112840D02*
D03*
X120900D02*
D03*
X113460Y109740D02*
D03*
X114390D02*
D03*
X129580Y84320D02*
D03*
X130820Y82770D02*
D03*
X123690Y109740D02*
D03*
X122140Y83390D02*
D03*
X127720Y82460D02*
D03*
X131750Y82770D02*
D03*
X113460Y107880D02*
D03*
X129890Y81840D02*
D03*
X130820D02*
D03*
X128650Y83390D02*
D03*
X127720D02*
D03*
X126790D02*
D03*
X125860D02*
D03*
X124930D02*
D03*
Y84320D02*
D03*
X125860D02*
D03*
X126790D02*
D03*
X127720D02*
D03*
X128650D02*
D03*
X108000Y102300D02*
D03*
X127450Y95650D02*
D03*
X125950D02*
D03*
X126701D02*
D03*
X129134Y94291D02*
D03*
X117244Y98425D02*
D03*
X124701Y103300D02*
D03*
X129185Y103346D02*
D03*
X112992Y91732D02*
D03*
X113386Y100000D02*
D03*
X121654Y85630D02*
D03*
X122638Y91732D02*
D03*
X122244Y101181D02*
D03*
X131299Y97047D02*
D03*
X130906Y101575D02*
D03*
X129921Y105512D02*
D03*
X134252Y94291D02*
D03*
X137205Y98622D02*
D03*
X136614Y105512D02*
D03*
Y114961D02*
D03*
X104134Y86929D02*
D03*
X109843Y104921D02*
D03*
X116614Y87008D02*
D03*
X142520Y104921D02*
D03*
X129134Y97047D02*
D03*
X128937Y98425D02*
D03*
X123228Y101181D02*
D03*
X137795Y102717D02*
D03*
X126181Y89961D02*
D03*
D28*
X112220Y111819D02*
D03*
X112831D02*
D03*
X111610D02*
D03*
X138992D02*
D03*
X139602D02*
D03*
X138382D02*
D03*
X146079D02*
D03*
X146689D02*
D03*
X145469D02*
D03*
X105528D02*
D03*
X106138D02*
D03*
X104917D02*
D03*
X132299D02*
D03*
X132909D02*
D03*
X131689D02*
D03*
X152378D02*
D03*
X152988D02*
D03*
X151768D02*
D03*
D29*
X122819Y111964D02*
Y114400D01*
M02*
