%FSLAX24Y24*%
%MOIN*%
G70*
G01*
G75*
G04 Layer_Physical_Order=1*
G04 Layer_Color=255*
%ADD10C,0.0300*%
%ADD11C,0.0394*%
%ADD12C,0.0197*%
%ADD13C,0.0200*%
%ADD14C,0.0295*%
%ADD15O,0.0551X0.0850*%
%ADD16R,0.0551X0.0850*%
%ADD17C,0.0984*%
%ADD18O,0.1004X0.0984*%
%ADD19C,0.0700*%
%ADD20C,0.0866*%
%ADD21R,0.0700X0.0700*%
%ADD22R,0.0700X0.0700*%
%ADD23C,0.1969*%
%ADD24C,0.2000*%
%ADD25C,0.0800*%
%ADD26R,0.0800X0.0800*%
%ADD27C,0.0400*%
G36*
X131398Y85754D02*
X131445Y85640D01*
X131617Y85569D01*
Y85369D01*
X131577Y85352D01*
X128034Y81809D01*
X127904Y81496D01*
Y81015D01*
X127778Y80962D01*
X127542Y80394D01*
X127778Y79825D01*
X127854Y79793D01*
X127815Y79597D01*
X101540D01*
X101506Y79768D01*
D01*
X101501Y79793D01*
X101883Y79952D01*
X101927Y80059D01*
X101936Y80062D01*
X102002Y80126D01*
X102045Y80144D01*
X102048Y80151D01*
X102099Y80175D01*
X102163Y80246D01*
X103416D01*
Y80246D01*
X103496Y80299D01*
X103756Y80191D01*
X104186Y80369D01*
X103703Y80853D01*
X103756Y80906D01*
X103703Y80958D01*
X104186Y81442D01*
X103756Y81620D01*
X103496Y81512D01*
X103416Y81566D01*
Y81566D01*
X102096D01*
Y81324D01*
X102000Y81279D01*
X101853Y81218D01*
X101848Y81208D01*
X101838Y81203D01*
X101691Y81041D01*
X101378Y81171D01*
X100873Y80962D01*
X100664Y80457D01*
X100873Y79952D01*
X101255Y79793D01*
X101216Y79597D01*
X98528D01*
X98417Y79764D01*
X98645Y80315D01*
X98266Y81231D01*
X97297Y80262D01*
X97191Y80368D01*
X98160Y81337D01*
X97244Y81716D01*
X96693Y81487D01*
X96526Y81599D01*
Y82185D01*
X96723Y82224D01*
X96754Y82148D01*
X97323Y81912D01*
X97892Y82148D01*
X97937Y82258D01*
X98842D01*
X99154Y82387D01*
X99154Y82387D01*
X99154Y82387D01*
X99986Y83219D01*
X100718D01*
Y83001D01*
X102038D01*
Y83402D01*
X102234Y83441D01*
X102251Y83400D01*
X102756Y83191D01*
X103256Y83398D01*
X103756Y83191D01*
X104256Y83398D01*
X104756Y83191D01*
X105261Y83400D01*
X105264Y83408D01*
X105400D01*
X105369Y83483D01*
X105852Y83966D01*
X106336Y84450D01*
X106411Y84419D01*
X106442Y84576D01*
X106566D01*
Y84904D01*
X106612Y84924D01*
X106658Y84970D01*
X107943D01*
Y85660D01*
X121081D01*
X121102Y85630D01*
X121102Y85630D01*
X121102D01*
X121263Y85240D01*
X121654Y85078D01*
X121919Y85188D01*
X130413D01*
X130726Y85317D01*
X130726D01*
D01*
X131202Y85793D01*
X131398Y85754D01*
D02*
G37*
G36*
X129238Y103294D02*
X128967Y103022D01*
X128868D01*
Y102926D01*
X128868Y102926D01*
Y102327D01*
X128754Y102214D01*
X126460D01*
Y103010D01*
X125588D01*
X125240Y103154D01*
X125223Y103195D01*
X125335Y103306D01*
X128250D01*
X128250Y103306D01*
X128461Y103393D01*
X128645Y103317D01*
X128764Y103031D01*
X129132Y103400D01*
X129238Y103294D01*
D02*
G37*
G36*
X105002Y104492D02*
X104935Y104331D01*
X105144Y103826D01*
X105650Y103616D01*
X106155Y103826D01*
X106155Y103826D01*
X106215Y103873D01*
D01*
D01*
X106215D01*
X106720Y103664D01*
X106720Y103664D01*
Y103664D01*
D01*
X106766Y103543D01*
X106766Y103543D01*
X106766D01*
X106789Y103488D01*
X106720Y103419D01*
X106720Y103419D01*
X106720Y103419D01*
X106290Y103241D01*
X106774Y102758D01*
X106668Y102652D01*
X106184Y103135D01*
X106006Y102705D01*
X106087Y102508D01*
X105979Y102345D01*
X105779D01*
X105670Y102508D01*
X105691Y102559D01*
X105482Y103064D01*
X104976Y103273D01*
X104471Y103064D01*
X104287Y102620D01*
X104091Y102581D01*
X103187Y103486D01*
X103263Y103671D01*
X103810D01*
Y104366D01*
X104102Y104658D01*
X104891D01*
X105002Y104492D01*
D02*
G37*
G36*
X143786Y87542D02*
X144291Y87333D01*
X144491Y87415D01*
X144616Y87332D01*
Y87332D01*
X145446D01*
X145497Y87208D01*
X145386Y87042D01*
X144550D01*
X144237Y86913D01*
X143561Y86236D01*
X143377Y86313D01*
Y87274D01*
X143377D01*
X143323Y87354D01*
X143427Y87605D01*
X143760D01*
X143786Y87542D01*
D02*
G37*
G36*
X113950Y102275D02*
X113919Y102200D01*
X114074Y102230D01*
X114890Y101414D01*
X114813Y101229D01*
X113766D01*
X113079Y101917D01*
X113190Y102083D01*
X113413Y101990D01*
X113844Y102169D01*
X113360Y102652D01*
X113466Y102758D01*
X113950Y102275D01*
D02*
G37*
G36*
X142110Y87354D02*
X142057Y87274D01*
X142057D01*
Y85954D01*
X143016D01*
X143127Y85788D01*
X143008Y85500D01*
Y84184D01*
X142318Y83494D01*
X142152Y83605D01*
X142250Y83843D01*
X142142Y84103D01*
X142195Y84183D01*
X142195D01*
Y85503D01*
X140875D01*
Y84183D01*
X140875D01*
X140929Y84103D01*
X140821Y83843D01*
X140970Y83482D01*
X140859Y83316D01*
X139833D01*
Y84379D01*
X139800D01*
X139226Y83805D01*
X139173Y83858D01*
X139120Y83805D01*
X138546Y84379D01*
X138513D01*
Y83316D01*
X137724D01*
X137412Y83187D01*
X136034Y81809D01*
X135904Y81496D01*
Y81015D01*
X135778Y80962D01*
X135542Y80394D01*
X135778Y79825D01*
X135854Y79793D01*
X135815Y79597D01*
X134878D01*
X134839Y79793D01*
X134840Y79794D01*
X134346Y80288D01*
X133853Y79794D01*
X133854Y79793D01*
X133815Y79597D01*
X132878D01*
X132839Y79793D01*
X132915Y79825D01*
X133151Y80394D01*
X132915Y80962D01*
X132789Y81015D01*
Y81313D01*
X134104Y82629D01*
X135181D01*
X135494Y82758D01*
X135905Y83170D01*
X135969Y83144D01*
X136474Y83353D01*
X136683Y83858D01*
X136474Y84363D01*
D01*
X136474Y84363D01*
Y84534D01*
X136474D01*
X136500Y84597D01*
X136843D01*
X137155Y84727D01*
X137764Y85335D01*
X137827Y85309D01*
X138327Y85516D01*
X138327Y85516D01*
X138332Y85518D01*
X138414Y85717D01*
X138721Y86024D01*
X138414Y86330D01*
X138332Y86529D01*
X138327Y86531D01*
X138327Y86531D01*
X137827Y86738D01*
X137327Y86531D01*
X136827Y86738D01*
X136567Y86630D01*
X136487Y86684D01*
Y86684D01*
X135167D01*
Y86684D01*
X135121D01*
X134985Y87013D01*
X134502Y86530D01*
X134449Y86583D01*
X134396Y86530D01*
X133913Y87013D01*
X133756Y86635D01*
X133560Y86674D01*
Y86810D01*
X132480D01*
X132403Y86995D01*
X132959Y87550D01*
X139843D01*
X139891Y87518D01*
Y86742D01*
X139891D01*
X139945Y86662D01*
X139837Y86402D01*
X140015Y85971D01*
X140498Y86455D01*
X140551Y86402D01*
X140604Y86455D01*
X141087Y85971D01*
X141266Y86402D01*
X141158Y86662D01*
X141211Y86742D01*
X141211D01*
Y87558D01*
X142025D01*
X142110Y87354D01*
D02*
G37*
G36*
X138349Y110523D02*
X138428Y110332D01*
Y106876D01*
X138408Y106868D01*
X138172Y106299D01*
X138224Y106173D01*
X138113Y106007D01*
X136751D01*
X136614Y106064D01*
X136477Y106007D01*
X133147D01*
X133036Y106173D01*
X133088Y106299D01*
X132852Y106868D01*
X132832Y106876D01*
Y107293D01*
X138158Y110584D01*
X138349Y110523D01*
D02*
G37*
G36*
X145276Y84073D02*
X145320Y84092D01*
X145462Y83950D01*
D01*
D01*
X145349Y83677D01*
X145456Y83417D01*
X145403Y83337D01*
X145403D01*
Y82017D01*
X146688D01*
X146695Y82010D01*
X146695Y82010D01*
X147008Y81881D01*
X148598D01*
X148653Y81904D01*
X148712Y81896D01*
X148804Y81966D01*
X148911Y82010D01*
X148934Y82065D01*
X148981Y82101D01*
X149159Y82409D01*
X149531Y82564D01*
X150031Y82356D01*
X150532Y82564D01*
X151032Y82356D01*
X151531Y82564D01*
X152031Y82356D01*
X152423Y82519D01*
X152589Y82408D01*
Y82136D01*
X152262Y81809D01*
X152133Y81496D01*
Y81369D01*
X152133D01*
Y81240D01*
X152070Y81214D01*
X151987Y81015D01*
X151681Y80709D01*
X151987Y80402D01*
X152070Y80204D01*
X152235Y80135D01*
Y80049D01*
X152315Y80102D01*
X152575Y79994D01*
X153080Y80204D01*
X153125Y80312D01*
X153325D01*
X153552Y79764D01*
X153441Y79597D01*
X142878D01*
X142839Y79793D01*
X142840Y79794D01*
X142346Y80288D01*
X141853Y79794D01*
X141854Y79793D01*
X141815Y79597D01*
X140878D01*
X140839Y79793D01*
X140915Y79825D01*
X141151Y80394D01*
X140915Y80962D01*
X140346Y81198D01*
X139778Y80962D01*
X139542Y80394D01*
X139778Y79825D01*
X139854Y79793D01*
X139815Y79597D01*
X138878D01*
X138839Y79793D01*
X138840Y79794D01*
X138346Y80288D01*
X137853Y79794D01*
X137854Y79793D01*
X137815Y79597D01*
X136878D01*
X136839Y79793D01*
X136915Y79825D01*
X137151Y80394D01*
X136915Y80962D01*
X136789Y81015D01*
Y81313D01*
X137908Y82432D01*
X142323D01*
X142635Y82561D01*
X143763Y83689D01*
X143892Y84001D01*
Y84183D01*
X144951D01*
Y84183D01*
X144974Y84198D01*
X145276Y84073D01*
D02*
G37*
G36*
X155031Y82356D02*
X155276Y82458D01*
X155442Y82347D01*
Y81599D01*
X155276Y81487D01*
X154724Y81716D01*
X153809Y81337D01*
X154778Y80368D01*
X154671Y80262D01*
X153703Y81231D01*
X153488Y80712D01*
X153288D01*
X153080Y81214D01*
X153017Y81240D01*
Y81313D01*
X153344Y81640D01*
X153474Y81953D01*
Y82408D01*
X153640Y82519D01*
X154031Y82356D01*
X154531Y82564D01*
X155031Y82356D01*
D02*
G37*
G36*
X131753Y104442D02*
X131707Y104331D01*
X131916Y103826D01*
X132421Y103616D01*
X132926Y103826D01*
X132953Y103889D01*
X133220D01*
X133335Y103936D01*
X133355D01*
X133381Y103873D01*
X133886Y103664D01*
X133886Y103664D01*
Y103664D01*
D01*
X133931Y103543D01*
X133931Y103543D01*
X133931D01*
X133954Y103488D01*
X133886Y103419D01*
X133886Y103419D01*
X133886Y103419D01*
X133456Y103241D01*
X133939Y102758D01*
X133833Y102652D01*
X133350Y103135D01*
X133293Y102998D01*
X133108Y102921D01*
X132732Y103077D01*
X132227Y102867D01*
X132018Y102362D01*
X132125Y102104D01*
D01*
D01*
X132095Y102031D01*
X132048Y101919D01*
X131971Y101887D01*
X131644Y101560D01*
X131447Y101599D01*
X131296Y101965D01*
X130906Y102127D01*
X130640Y102017D01*
X130315D01*
X130188Y102102D01*
Y103022D01*
X129783D01*
X129672Y103188D01*
X129737Y103346D01*
X129672Y103504D01*
X129783Y103671D01*
X130581D01*
Y104608D01*
X131642D01*
X131753Y104442D01*
D02*
G37*
G36*
X99357Y103231D02*
X99357Y103231D01*
X99357D01*
X99357Y103231D01*
X99357Y103231D01*
X99669Y103101D01*
X100604D01*
X101112Y102594D01*
Y101899D01*
D01*
Y101899D01*
X101054Y101841D01*
X100285D01*
Y101623D01*
X99606D01*
X99294Y101494D01*
X98636Y100836D01*
X97944D01*
X97892Y100962D01*
X97323Y101198D01*
X96754Y100962D01*
X96723Y100886D01*
X96526Y100925D01*
Y101862D01*
X96723Y101901D01*
X96754Y101825D01*
X97323Y101589D01*
X97892Y101825D01*
X98127Y102394D01*
X97892Y102962D01*
X97323Y103198D01*
X96754Y102962D01*
X96723Y102886D01*
X96526Y102925D01*
Y103862D01*
X96723Y103901D01*
X96754Y103825D01*
X97323Y103589D01*
X97892Y103825D01*
X97944Y103952D01*
X98636D01*
X99357Y103231D01*
D02*
G37*
G36*
X109183Y103772D02*
X109016Y103660D01*
X109000Y103667D01*
X108937Y103641D01*
X108722Y103856D01*
X108409Y103985D01*
X108012D01*
X107985Y104048D01*
X107480Y104258D01*
X107480Y104258D01*
Y104258D01*
X107480D01*
D01*
X107413Y104325D01*
X107435Y104378D01*
X107388Y104492D01*
X107499Y104658D01*
X109183D01*
Y103772D01*
D02*
G37*
G36*
X121802Y103360D02*
Y101447D01*
X121692Y101181D01*
X121854Y100791D01*
X122244Y100629D01*
X122244Y100629D01*
X122244Y100629D01*
X122259Y100619D01*
Y100364D01*
X122092Y100253D01*
X121701Y100415D01*
X121201Y100208D01*
X120701Y100415D01*
X120201Y100208D01*
X119701Y100415D01*
X119201Y100208D01*
X118701Y100415D01*
X118638Y100389D01*
X117927Y101100D01*
X117614Y101229D01*
X117294D01*
X117195Y101378D01*
X117195Y101378D01*
X117195D01*
X116985Y101883D01*
X116480Y102092D01*
X115975Y101883D01*
X115949Y101820D01*
X115734D01*
X114615Y102939D01*
Y103012D01*
X114678Y103038D01*
X114888Y103543D01*
X114678Y104048D01*
X114173Y104258D01*
X114173Y104258D01*
Y104258D01*
X114173D01*
D01*
D01*
X114106Y104325D01*
X114128Y104378D01*
X114081Y104492D01*
X114192Y104658D01*
X120504D01*
X121802Y103360D01*
D02*
G37*
G36*
X109183Y93041D02*
X110310D01*
X110364Y92988D01*
Y92253D01*
X110519D01*
X110630Y92087D01*
X110506Y91787D01*
X110521Y91750D01*
X110348Y91678D01*
X110379Y91603D01*
X109949Y91173D01*
X110379Y90743D01*
X110557Y91173D01*
X110542Y91210D01*
X110715Y91282D01*
X110684Y91357D01*
X111168Y91840D01*
X111274Y91734D01*
X110790Y91251D01*
X111220Y91073D01*
X111377Y91138D01*
X111518Y90996D01*
X111490Y90929D01*
X111669Y90499D01*
X112152Y90982D01*
X112205Y90929D01*
X112258Y90982D01*
X112741Y90499D01*
X112919Y90929D01*
X112867Y91055D01*
X112992Y91180D01*
X112992Y91180D01*
X112992Y91180D01*
X113307Y91311D01*
X112939Y91679D01*
X112992Y91732D01*
X112939Y91785D01*
X113307Y92154D01*
X112992Y92284D01*
D01*
D01*
D01*
Y92330D01*
X113134Y92471D01*
X114181D01*
X114494Y92601D01*
X115092Y93199D01*
X115205Y93152D01*
X115247Y93169D01*
X115389Y93028D01*
X115336Y92900D01*
X115391Y92766D01*
X115250Y92625D01*
X115205Y92644D01*
X114700Y92434D01*
X114490Y91929D01*
X114697Y91429D01*
X114490Y90929D01*
X114697Y90429D01*
X114490Y89929D01*
X114700Y89424D01*
X115205Y89215D01*
X115646Y89398D01*
X116026Y89018D01*
X116125Y88977D01*
X116129Y88975D01*
X116378Y88872D01*
X117450D01*
Y88710D01*
X118770D01*
Y89447D01*
X118937Y89559D01*
X119291Y89412D01*
X119721Y89590D01*
X119238Y90073D01*
X119238Y90073D01*
X118755Y90556D01*
X118577Y90126D01*
X118577Y90126D01*
X118577Y90126D01*
X118513Y90030D01*
X117450D01*
Y89868D01*
X116584D01*
X116403Y90049D01*
Y90723D01*
X117252Y91572D01*
X117295Y91675D01*
D01*
X117398Y91924D01*
Y92057D01*
X117594Y92096D01*
X117605Y92070D01*
X118110Y91860D01*
X118465Y92007D01*
X118631Y91896D01*
Y91466D01*
X119951D01*
Y92786D01*
X118853D01*
X118759Y92962D01*
X118812Y93041D01*
X119361D01*
Y93041D01*
X119441Y93094D01*
X119701Y92986D01*
X120092Y93149D01*
X120259Y93038D01*
Y92249D01*
X120259Y92249D01*
X120259D01*
X120388Y91937D01*
X121496Y90829D01*
X121808Y90700D01*
X126120D01*
X126159Y90504D01*
X125791Y90351D01*
X125681Y90086D01*
X124029Y88434D01*
X111880D01*
Y89169D01*
X112047Y89280D01*
X112205Y89215D01*
X112710Y89424D01*
X112919Y89929D01*
X112712Y90429D01*
X112712Y90429D01*
X112710Y90434D01*
X112511Y90517D01*
X112205Y90823D01*
X111898Y90517D01*
X111700Y90434D01*
X111697Y90429D01*
X111697Y90429D01*
X111490Y89929D01*
X111700Y89424D01*
Y89424D01*
Y89424D01*
X111624Y89243D01*
X110560D01*
D01*
X110560D01*
X110503Y89301D01*
Y89833D01*
X109183D01*
Y89145D01*
X108998Y89068D01*
X107943Y90123D01*
Y90817D01*
X106623D01*
Y90030D01*
X105475D01*
X105458Y90072D01*
X104953Y90281D01*
X104453Y90074D01*
X104453Y90074D01*
X104448Y90072D01*
X104365Y89873D01*
X104006Y89514D01*
X103900Y89620D01*
X104383Y90103D01*
X103953Y90281D01*
X103693Y90174D01*
X103613Y90227D01*
Y90227D01*
X102293D01*
Y89980D01*
X102050Y89880D01*
X101927Y89757D01*
X101712D01*
X101686Y89820D01*
X101181Y90029D01*
X100676Y89820D01*
X100467Y89315D01*
X100607Y88977D01*
X100521Y88849D01*
X100521D01*
Y88154D01*
X99486Y87119D01*
X97960D01*
X97892Y87285D01*
X97323Y87521D01*
X96754Y87285D01*
X96723Y87209D01*
X96526Y87248D01*
Y88185D01*
X96723Y88224D01*
X96754Y88148D01*
X97323Y87912D01*
X97892Y88148D01*
X98127Y88717D01*
X97892Y89285D01*
X97323Y89521D01*
X96754Y89285D01*
X96723Y89209D01*
X96526Y89248D01*
Y90185D01*
X96723Y90224D01*
X96754Y90148D01*
X97323Y89912D01*
X97892Y90148D01*
X97928Y90235D01*
X99929D01*
X100242Y90365D01*
X100242Y90365D01*
X100242Y90365D01*
X101494Y91617D01*
X101594Y91860D01*
X101841D01*
Y92891D01*
X101933Y92932D01*
X102084Y92994D01*
X102221Y93131D01*
X102420Y93112D01*
X102447Y93071D01*
X102238Y92567D01*
X102448Y92062D01*
X102953Y91853D01*
X103453Y92060D01*
X103953Y91853D01*
X104453Y92060D01*
X104953Y91853D01*
X105458Y92062D01*
X105461Y92070D01*
X105597D01*
X105566Y92145D01*
X106049Y92628D01*
X106533Y93111D01*
X106608Y93080D01*
X106639Y93238D01*
X106762D01*
Y93484D01*
X107006Y93585D01*
X107006D01*
X107068Y93648D01*
X107249Y93828D01*
X107943D01*
Y94046D01*
X109183D01*
Y93041D01*
D02*
G37*
G36*
X150345Y91695D02*
Y89252D01*
X150475Y88939D01*
X150848Y88566D01*
X150737Y88400D01*
X150654Y88434D01*
X150522D01*
X150098Y88858D01*
X150124Y88921D01*
X149915Y89426D01*
X149409Y89636D01*
X148936Y89440D01*
X147871D01*
X148478Y88833D01*
X149085Y88226D01*
Y88161D01*
X149251Y88272D01*
X149409Y88207D01*
D01*
X149498Y87992D01*
X149503Y88014D01*
X149495Y87975D01*
X149404Y87938D01*
X149888Y87455D01*
X149835Y87402D01*
X149888Y87349D01*
X149404Y86865D01*
X149573Y86795D01*
Y86741D01*
X149407Y86630D01*
X149031Y86785D01*
X148661Y86632D01*
X148495Y86743D01*
Y88062D01*
D01*
Y88062D01*
X148553Y88120D01*
X148979D01*
X148425Y88673D01*
X147871Y88120D01*
X147765D01*
Y88120D01*
X147707Y88062D01*
X147175D01*
Y86742D01*
X147366D01*
X147422Y86605D01*
X147447Y86544D01*
X147480Y86465D01*
X147385Y86235D01*
X147317Y86071D01*
X147526Y85566D01*
X148032Y85356D01*
X148532Y85564D01*
X148532Y85564D01*
X148537Y85566D01*
X148619Y85764D01*
X148979Y86124D01*
X149031Y86071D01*
X149084Y86124D01*
X149444Y85764D01*
X149526Y85566D01*
X149531Y85564D01*
X149531Y85564D01*
X150031Y85356D01*
X150532Y85564D01*
X151032Y85356D01*
X151531Y85564D01*
X152031Y85356D01*
X152531Y85564D01*
X153032Y85356D01*
X153532Y85564D01*
X154031Y85356D01*
X154531Y85564D01*
X155031Y85356D01*
X155276Y85458D01*
X155442Y85347D01*
Y83795D01*
X155276Y83684D01*
X155031Y83785D01*
X154531Y83578D01*
X154031Y83785D01*
X153532Y83578D01*
X153032Y83785D01*
X152531Y83578D01*
X152031Y83785D01*
X151531Y83578D01*
X151032Y83785D01*
X150532Y83578D01*
X150031Y83785D01*
X149531Y83578D01*
X149031Y83785D01*
X148771Y83678D01*
X148692Y83731D01*
Y83731D01*
X147372D01*
Y82846D01*
X147187Y82769D01*
X146966Y82990D01*
X146966Y82990D01*
X146723Y83090D01*
Y83337D01*
X146723D01*
X146670Y83417D01*
X146777Y83677D01*
X146568Y84182D01*
Y84182D01*
D01*
D01*
D01*
X146568D01*
X146568Y84183D01*
D01*
Y84183D01*
X146814D01*
X146207Y84789D01*
X146207Y84790D01*
X145835Y85161D01*
X145781Y85293D01*
X145649Y85347D01*
X145600Y85396D01*
Y85503D01*
X145475Y85419D01*
X145276Y85502D01*
X145076Y85419D01*
X144951Y85503D01*
Y85503D01*
X144339D01*
X144262Y85687D01*
X144733Y86158D01*
X145600D01*
X145913Y86287D01*
X145913Y86287D01*
X145913Y86287D01*
X146572Y86947D01*
X146702Y87260D01*
X146702Y87260D01*
X146702Y87260D01*
Y87260D01*
Y87516D01*
X146765Y87542D01*
X146974Y88047D01*
X146898Y88231D01*
X147039Y88373D01*
X147250Y88286D01*
X147599Y88430D01*
X147765Y88319D01*
Y88226D01*
X148319Y88780D01*
X147765Y89333D01*
Y89409D01*
X147303Y88947D01*
X147250Y89000D01*
X147197Y88947D01*
X146837Y89306D01*
X146755Y89505D01*
X146750Y89507D01*
X146750Y89507D01*
X146250Y89714D01*
X145750Y89507D01*
X145250Y89714D01*
X144990Y89607D01*
X144910Y89660D01*
Y89660D01*
X143590D01*
X143590Y89660D01*
Y89660D01*
X143577Y89657D01*
D01*
X143450Y89966D01*
X142966Y89482D01*
X142860Y89588D01*
X143344Y90072D01*
X142913Y90250D01*
X142913Y90250D01*
X142982Y90416D01*
X143029Y90435D01*
X143226Y90632D01*
X143327Y90875D01*
X143573D01*
X143573Y90875D01*
Y90875D01*
X143688Y90923D01*
X143979Y90632D01*
X144291Y90503D01*
X148228D01*
X148541Y90632D01*
X148541Y90632D01*
X148541Y90632D01*
X149375Y91466D01*
X150069D01*
Y91761D01*
X150179Y91806D01*
X150345Y91695D01*
D02*
G37*
G36*
X131623Y90010D02*
X131290D01*
Y88690D01*
X131701D01*
X131778Y88505D01*
X129817Y86544D01*
X117154D01*
X117043Y86711D01*
X117166Y87008D01*
X117005Y87398D01*
Y87398D01*
Y87398D01*
X117035Y87550D01*
X124213D01*
X124525Y87680D01*
X124525Y87680D01*
X124525Y87680D01*
X126306Y89460D01*
X126571Y89570D01*
X126733Y89961D01*
X126571Y90351D01*
X126203Y90504D01*
X126242Y90700D01*
X128501D01*
X128601Y90551D01*
X128601Y90551D01*
X128601D01*
X128779Y90121D01*
X129262Y90604D01*
X129368Y90498D01*
X128885Y90015D01*
X129315Y89837D01*
X129575Y89945D01*
X129655Y89891D01*
Y89891D01*
X130975D01*
Y90700D01*
X131623D01*
Y90010D01*
D02*
G37*
G36*
X125518Y94961D02*
X125636Y94913D01*
X125754Y94864D01*
X127795D01*
X127851Y94810D01*
Y94650D01*
Y94515D01*
X127701Y94415D01*
X127701Y94415D01*
Y94415D01*
X127201Y94208D01*
X126701Y94415D01*
X126201Y94208D01*
X125701Y94415D01*
X125201Y94208D01*
X124701Y94415D01*
X124201Y94208D01*
X123701Y94415D01*
X123201Y94208D01*
X122701Y94415D01*
X122201Y94208D01*
X121701Y94415D01*
X121201Y94208D01*
X120701Y94415D01*
X120201Y94208D01*
X119701Y94415D01*
X119441Y94307D01*
X119361Y94361D01*
Y94361D01*
X118041D01*
Y93295D01*
X117864Y93200D01*
X117710Y93303D01*
Y93560D01*
X117560D01*
X117420Y93703D01*
X117427Y94004D01*
X117425Y94010D01*
X117427Y94016D01*
X117356Y94187D01*
X117289Y94360D01*
X117284Y94362D01*
X117281Y94368D01*
X116902Y94747D01*
Y94947D01*
X117106Y95152D01*
X125325D01*
X125518Y94961D01*
D02*
G37*
G36*
X128085Y96100D02*
X128850D01*
X129400Y95550D01*
X129250Y95400D01*
X128845D01*
Y94426D01*
X128824Y94374D01*
X128813Y94291D01*
X128824Y94208D01*
X128827Y94200D01*
X128797Y94160D01*
X128751Y94166D01*
Y93701D01*
X128651D01*
Y94166D01*
X128579Y94157D01*
X128465Y94110D01*
X128367Y94035D01*
X128292Y93937D01*
X128245Y93823D01*
X128236Y93760D01*
X128186Y93763D01*
Y94650D01*
Y94950D01*
X127933Y95200D01*
X125754D01*
X125450Y95500D01*
Y96100D01*
X125551Y96200D01*
X127984D01*
X128085Y96100D01*
D02*
G37*
G36*
X129754Y93648D02*
X129271Y93165D01*
X129701Y92986D01*
X129701Y92986D01*
X129701Y92986D01*
X129716Y92979D01*
X129778Y92828D01*
X129569Y92323D01*
X129569Y92323D01*
X129569Y92323D01*
X129549Y92292D01*
X128178D01*
X128067Y92458D01*
X128092Y92520D01*
X127883Y93025D01*
Y93025D01*
X128201Y93194D01*
X128701Y92986D01*
X129201Y93194D01*
X129201Y93194D01*
X129206Y93196D01*
X129288Y93394D01*
X129648Y93754D01*
X129754Y93648D01*
D02*
G37*
G36*
X134701Y98986D02*
X135134Y99166D01*
X135311Y99072D01*
X135333Y98959D01*
X133864Y97489D01*
X131565D01*
X131299Y97599D01*
X130909Y97438D01*
X130747Y97047D01*
X130909Y96657D01*
X131299Y96495D01*
X131565Y96605D01*
X134047D01*
X134360Y96735D01*
X136577Y98952D01*
X136743Y98841D01*
X136653Y98622D01*
X136814Y98232D01*
X137205Y98070D01*
X137470Y98180D01*
X141290D01*
Y94180D01*
X141124Y94069D01*
X140764Y94218D01*
X140504Y94111D01*
X140424Y94164D01*
Y94164D01*
X140301D01*
X140262Y94190D01*
Y95079D01*
X140159Y95328D01*
X140116Y95431D01*
X139722Y95825D01*
X139370Y95970D01*
X129707D01*
X129631Y96155D01*
X130013Y96538D01*
X130089Y96721D01*
X130143Y96850D01*
Y99038D01*
X130309Y99149D01*
X130701Y98986D01*
X131201Y99194D01*
X131701Y98986D01*
X132201Y99194D01*
X132701Y98986D01*
X133201Y99194D01*
X133701Y98986D01*
X134201Y99194D01*
X134701Y98986D01*
D02*
G37*
G36*
X109136Y87680D02*
X109272Y87623D01*
X109233Y87427D01*
X108094D01*
X107983Y87593D01*
X107998Y87630D01*
X107820Y88060D01*
X107336Y87577D01*
X107283Y87630D01*
X107231Y87577D01*
X106747Y88060D01*
X106569Y87630D01*
X106584Y87593D01*
X106473Y87427D01*
X105040D01*
X105001Y87623D01*
X105261Y87731D01*
X105300Y87824D01*
X105484Y87901D01*
X105906Y87727D01*
X106336Y87905D01*
X105852Y88388D01*
X105958Y88494D01*
X106442Y88011D01*
X106620Y88441D01*
X106577Y88544D01*
X106688Y88710D01*
X106762D01*
Y88928D01*
X107087D01*
X107216Y88982D01*
X107399Y89057D01*
X107579Y89237D01*
X109136Y87680D01*
D02*
G37*
G36*
X111761Y104011D02*
X111837Y103826D01*
X111878Y103809D01*
X111839Y103613D01*
X111545D01*
Y102293D01*
X111635D01*
X111763Y102165D01*
X111763Y102165D01*
D01*
X111892Y101853D01*
X113122Y100623D01*
X113083Y100427D01*
X113070Y100421D01*
X113439Y100053D01*
X113386Y100000D01*
X113439Y99947D01*
X113070Y99579D01*
X113386Y99448D01*
X113683Y99571D01*
X113849Y99460D01*
Y98039D01*
X113917Y97876D01*
X113936Y97829D01*
X113360Y97253D01*
X112953D01*
X112842Y97419D01*
X112919Y97606D01*
X112712Y98106D01*
X112712Y98106D01*
X112710Y98111D01*
X112511Y98194D01*
X112205Y98500D01*
X111898Y98194D01*
X111700Y98111D01*
X111697Y98106D01*
X111697Y98106D01*
X111532Y97707D01*
X110503D01*
Y98495D01*
X109183D01*
Y97175D01*
X110364D01*
Y96387D01*
X110364Y96387D01*
X110364Y96387D01*
D01*
X110351Y96357D01*
X110167Y96281D01*
X109843Y96415D01*
X109412Y96237D01*
X109895Y95754D01*
X110379Y95271D01*
X110520Y95612D01*
X110518Y95613D01*
X110487Y95688D01*
X110971Y96171D01*
X111077Y96065D01*
X110593Y95582D01*
X111024Y95404D01*
X111378Y95551D01*
X111545Y95440D01*
Y95206D01*
X111545D01*
X111598Y95126D01*
X111490Y94866D01*
X111669Y94436D01*
X112152Y94919D01*
X112258Y94813D01*
X111898Y94454D01*
X111700Y94371D01*
X111697Y94366D01*
X111678Y94414D01*
X111584Y94237D01*
X111453Y94211D01*
X110864Y94801D01*
X110551Y94930D01*
X110220D01*
X110181Y95126D01*
X110273Y95165D01*
X109843Y95595D01*
X109412Y95165D01*
X109504Y95126D01*
X109465Y94930D01*
X107943D01*
Y95148D01*
X106623D01*
Y94558D01*
X105442D01*
Y94558D01*
X105305Y94466D01*
X104953Y94612D01*
X104453Y94405D01*
X104453Y94405D01*
X104448Y94403D01*
X104365Y94204D01*
X104006Y93845D01*
X103900Y93951D01*
X104383Y94434D01*
X103953Y94612D01*
X103693Y94504D01*
X103613Y94558D01*
Y94558D01*
X102293D01*
Y94311D01*
X102050Y94210D01*
X101767Y93928D01*
X101655Y93950D01*
X101655Y93950D01*
X101655Y93950D01*
X101150Y94160D01*
X100645Y93950D01*
X100436Y93445D01*
X100536Y93202D01*
X100521Y93180D01*
X100521D01*
Y91894D01*
X99746Y91119D01*
X97960D01*
X97892Y91285D01*
X97323Y91521D01*
X96754Y91285D01*
X96723Y91209D01*
X96526Y91248D01*
Y92185D01*
X96723Y92224D01*
X96754Y92148D01*
X97323Y91912D01*
X97892Y92148D01*
X98127Y92717D01*
X97892Y93285D01*
X97323Y93521D01*
X96754Y93285D01*
X96723Y93209D01*
X96526Y93248D01*
Y94185D01*
X96723Y94224D01*
X96754Y94148D01*
X97323Y93912D01*
X97892Y94148D01*
X97928Y94235D01*
X99795D01*
X100108Y94365D01*
X100108Y94365D01*
X100108Y94365D01*
X101494Y95750D01*
X101593Y95990D01*
X101810D01*
Y97310D01*
X101563D01*
X101452Y97476D01*
X101476Y97534D01*
X101693D01*
X101852Y97600D01*
X101899Y97568D01*
Y97568D01*
X102336D01*
X102447Y97402D01*
X102238Y96898D01*
X102448Y96392D01*
X102953Y96183D01*
X103453Y96390D01*
X103953Y96183D01*
X104453Y96390D01*
X104953Y96183D01*
X105458Y96392D01*
X105497Y96486D01*
X105681Y96562D01*
X106102Y96388D01*
X106406Y96514D01*
X106590Y96437D01*
X106747Y96058D01*
X107230Y96541D01*
X107714Y97024D01*
X107283Y97203D01*
X106980Y97077D01*
X106796Y97154D01*
X106639Y97533D01*
X106155Y97049D01*
X106049Y97155D01*
X106532Y97639D01*
X106351Y97714D01*
X106274Y97899D01*
X106302Y97966D01*
X106487Y98043D01*
X106890Y97876D01*
X107320Y98054D01*
X106837Y98537D01*
X106837Y98538D01*
X106354Y99021D01*
X106175Y98591D01*
X106175Y98591D01*
X106175D01*
X106031Y98531D01*
X106105Y98500D01*
X106136Y98425D01*
X105653Y97942D01*
X105547Y98048D01*
X106030Y98531D01*
X105600Y98710D01*
X105282Y98578D01*
X105097Y98654D01*
X105064Y98733D01*
X104559Y98943D01*
X104059Y98736D01*
X104059Y98736D01*
X104054Y98734D01*
X103972Y98535D01*
X103612Y98175D01*
X103506Y98281D01*
X103989Y98765D01*
X103559Y98943D01*
X103299Y98835D01*
X103219Y98888D01*
Y98888D01*
X101899D01*
Y98665D01*
X101656Y98565D01*
X101571Y98480D01*
X101450Y98482D01*
Y98482D01*
X101450Y98482D01*
D01*
D01*
D01*
X100945Y98691D01*
X100440Y98482D01*
X100231Y97976D01*
X100440Y97471D01*
X100516Y97440D01*
X100490Y97310D01*
X100490D01*
X100490Y97310D01*
Y95997D01*
X99612Y95119D01*
X97960D01*
X97892Y95285D01*
X97323Y95521D01*
X96754Y95285D01*
X96723Y95209D01*
X96526Y95248D01*
Y96185D01*
X96723Y96224D01*
X96754Y96148D01*
X97323Y95912D01*
X97892Y96148D01*
X98127Y96717D01*
X97892Y97285D01*
X97323Y97521D01*
X96754Y97285D01*
X96723Y97209D01*
X96526Y97248D01*
Y99862D01*
X96723Y99901D01*
X96754Y99825D01*
X97323Y99589D01*
X97892Y99825D01*
X97944Y99952D01*
X98819D01*
X99131Y100081D01*
X99789Y100739D01*
X100285D01*
Y100521D01*
X101605D01*
Y101841D01*
D01*
Y101841D01*
X101663Y101899D01*
X101943D01*
X102054Y101733D01*
X101845Y101228D01*
X102054Y100723D01*
X102559Y100514D01*
X103059Y100721D01*
X103559Y100514D01*
X104059Y100721D01*
X104559Y100514D01*
X104818Y100621D01*
X104940Y100540D01*
Y100540D01*
X105725D01*
X105987Y100278D01*
X106230Y100177D01*
Y99931D01*
X107550D01*
Y100177D01*
X107793Y100278D01*
X111565Y104050D01*
X111761Y104011D01*
D02*
G37*
G36*
X138467Y92508D02*
X138930Y92045D01*
X138854Y91860D01*
X138540D01*
Y90540D01*
X138540D01*
Y90471D01*
X138526Y90466D01*
X138317Y89961D01*
X138430Y89688D01*
X138289Y89547D01*
X137827Y89738D01*
X137415Y89568D01*
X137230Y89644D01*
X137139Y89864D01*
X136854Y90149D01*
X136881Y90287D01*
X138013Y91420D01*
X138143Y91732D01*
Y92778D01*
X138339Y92817D01*
X138467Y92508D01*
D02*
G37*
G36*
X102208Y88637D02*
X102042Y88236D01*
X102251Y87731D01*
X102756Y87522D01*
X103256Y87729D01*
X103753Y87523D01*
Y87341D01*
X103744Y87319D01*
X103744Y87319D01*
X103582Y86929D01*
X103744Y86539D01*
X104134Y86377D01*
X104265Y86431D01*
X106623D01*
Y86290D01*
X106623D01*
Y86043D01*
X106380Y85943D01*
X106334Y85896D01*
X105246D01*
Y85896D01*
X105108Y85805D01*
X104756Y85951D01*
X104256Y85743D01*
X104256Y85744D01*
X104251Y85741D01*
X104168Y85543D01*
X103809Y85183D01*
X103703Y85289D01*
X104186Y85772D01*
X103756Y85951D01*
X103496Y85843D01*
X103416Y85896D01*
Y85896D01*
X102096D01*
Y85650D01*
X101853Y85549D01*
X101785Y85481D01*
X101686Y85489D01*
Y85489D01*
X101686Y85489D01*
D01*
D01*
D01*
X101181Y85699D01*
X100676Y85489D01*
X100467Y84984D01*
X100676Y84479D01*
X100744Y84451D01*
X100718Y84321D01*
X100718D01*
X100718Y84321D01*
Y84103D01*
X99803D01*
X99491Y83974D01*
X98659Y83142D01*
X97951D01*
X97892Y83285D01*
X97323Y83521D01*
X96754Y83285D01*
X96723Y83209D01*
X96526Y83248D01*
Y84185D01*
X96723Y84224D01*
X96754Y84148D01*
X97323Y83912D01*
X97892Y84148D01*
X98127Y84717D01*
X97892Y85285D01*
X97323Y85521D01*
X96754Y85285D01*
X96723Y85209D01*
X96526Y85248D01*
Y86185D01*
X96723Y86224D01*
X96754Y86148D01*
X97323Y85912D01*
X97892Y86148D01*
X97928Y86235D01*
X99669D01*
X99982Y86365D01*
X99982Y86365D01*
X99982Y86365D01*
X101146Y87529D01*
X101841D01*
Y88849D01*
D01*
Y88849D01*
X101865Y88873D01*
X102110D01*
X102208Y88637D01*
D02*
G37*
G36*
X117493Y99086D02*
X117382Y98920D01*
X117244Y98977D01*
X116854Y98816D01*
X116692Y98425D01*
X116854Y98035D01*
X117244Y97873D01*
X117510Y97983D01*
X128672D01*
X128937Y97873D01*
X129092Y97938D01*
X129217Y97855D01*
X129217Y97655D01*
X129134Y97599D01*
X129134Y97599D01*
Y97599D01*
X128744Y97438D01*
X128683Y97292D01*
X115969D01*
X115858Y97458D01*
X115919Y97606D01*
X115712Y98106D01*
X115919Y98606D01*
X115712Y99106D01*
X115919Y99606D01*
X115919Y99606D01*
X115919Y99606D01*
X116018Y99755D01*
X116825D01*
X117493Y99086D01*
D02*
G37*
G36*
X145515Y117451D02*
X145439Y117419D01*
X145204Y116850D01*
X145364Y116463D01*
X145420Y116328D01*
Y109778D01*
X145281Y109640D01*
X145281Y109640D01*
X145168Y109366D01*
X145121Y109252D01*
D01*
Y109252D01*
Y106876D01*
X145101Y106868D01*
X144865Y106299D01*
X144917Y106173D01*
X144806Y106007D01*
X143802D01*
Y106488D01*
X143876Y106518D01*
X144111Y107087D01*
X143876Y107655D01*
X143307Y107891D01*
X142738Y107655D01*
X142503Y107087D01*
X142738Y106518D01*
X142812Y106488D01*
Y106007D01*
X139840D01*
X139729Y106173D01*
X139781Y106299D01*
X139545Y106868D01*
X139525Y106876D01*
Y112135D01*
X142356Y114966D01*
X142409Y115094D01*
X142517Y115354D01*
Y115354D01*
Y116257D01*
D01*
X142577Y116282D01*
X142812Y116850D01*
X142577Y117419D01*
X142500Y117451D01*
X142539Y117647D01*
X143476D01*
X143515Y117451D01*
X143439Y117419D01*
X143204Y116850D01*
X143439Y116282D01*
X144008Y116046D01*
X144577Y116282D01*
X144812Y116850D01*
X144577Y117419D01*
X144500Y117451D01*
X144539Y117647D01*
X145476D01*
X145515Y117451D01*
D02*
G37*
G36*
X141515D02*
X141439Y117419D01*
X141204Y116850D01*
X141364Y116463D01*
X141420Y116328D01*
Y115582D01*
X138686Y112848D01*
X138501Y112924D01*
Y115316D01*
X138517Y115354D01*
Y115378D01*
X138501Y115416D01*
Y116251D01*
X138577Y116282D01*
X138812Y116850D01*
X138577Y117419D01*
X138500Y117451D01*
X138539Y117647D01*
X139476D01*
X139515Y117451D01*
X139439Y117419D01*
X139204Y116850D01*
X139439Y116282D01*
X140008Y116046D01*
X140577Y116282D01*
X140812Y116850D01*
X140577Y117419D01*
X140500Y117451D01*
X140539Y117647D01*
X141476D01*
X141515Y117451D01*
D02*
G37*
G36*
X115982Y116286D02*
X115348Y115652D01*
X115202Y115300D01*
Y112532D01*
X115036Y112421D01*
X114567Y112615D01*
X113998Y112380D01*
X113763Y111811D01*
X113998Y111242D01*
X114567Y111007D01*
X115036Y111201D01*
X115202Y111090D01*
Y107808D01*
X115036Y107697D01*
X114567Y107891D01*
X113998Y107655D01*
X113763Y107087D01*
X113998Y106518D01*
X114567Y106282D01*
X115036Y106477D01*
X115202Y106365D01*
Y106250D01*
X115348Y105898D01*
X115348Y105898D01*
X115348Y105898D01*
X115519Y105727D01*
X115442Y105542D01*
X112811D01*
X112773Y105730D01*
Y105730D01*
D01*
X113009Y106299D01*
X112773Y106868D01*
X112205Y107104D01*
X111636Y106868D01*
X111400Y106299D01*
X111636Y105730D01*
X111799Y105663D01*
Y105463D01*
X111677Y105413D01*
X110687Y104423D01*
X110503Y104499D01*
Y104991D01*
X110366D01*
X110285Y105187D01*
Y106465D01*
X110411Y106518D01*
X110647Y107087D01*
X110411Y107655D01*
X109843Y107891D01*
X109772Y107862D01*
X109248Y108385D01*
Y111073D01*
X109414Y111184D01*
X109843Y111007D01*
X110411Y111242D01*
X110647Y111811D01*
X110411Y112380D01*
X109843Y112615D01*
X109414Y112438D01*
X109248Y112549D01*
Y113194D01*
X110352Y114298D01*
X110352Y114298D01*
X110352Y114298D01*
X110498Y114650D01*
Y116394D01*
X110575Y116471D01*
X115905D01*
X115982Y116286D01*
D02*
G37*
G36*
X108400Y117458D02*
Y117458D01*
D01*
X108164Y116890D01*
X108400Y116321D01*
X108968Y116085D01*
X109336Y116238D01*
X109502Y116126D01*
Y114856D01*
X108398Y113752D01*
X108252Y113400D01*
Y112639D01*
X108086Y112528D01*
X107874Y112615D01*
X107305Y112380D01*
X107070Y111811D01*
X107305Y111242D01*
X107874Y111007D01*
X108086Y111094D01*
X108252Y110983D01*
Y108179D01*
X108375Y107884D01*
X108233Y107742D01*
X107874Y107891D01*
X107305Y107655D01*
X107070Y107087D01*
X107305Y106518D01*
X107874Y106282D01*
X108443Y106518D01*
X108678Y107087D01*
X108549Y107398D01*
X108715Y107510D01*
X109068Y107157D01*
X109038Y107087D01*
X109274Y106518D01*
X109400Y106465D01*
Y105542D01*
X106118D01*
X106081Y105730D01*
Y105730D01*
D01*
X106316Y106299D01*
X106081Y106868D01*
X105512Y107104D01*
X105512Y107104D01*
Y107104D01*
X105470Y107205D01*
Y113362D01*
X105309Y113750D01*
X103478Y115582D01*
Y116303D01*
X103521Y116321D01*
X103757Y116890D01*
X103521Y117458D01*
Y117458D01*
Y117458D01*
X103559Y117647D01*
X104347D01*
X104384Y117458D01*
Y117458D01*
D01*
X104148Y116890D01*
X104384Y116321D01*
X104953Y116085D01*
X105521Y116321D01*
X105757Y116890D01*
X105521Y117458D01*
Y117458D01*
Y117458D01*
X105559Y117647D01*
X106362D01*
X106400Y117458D01*
Y117458D01*
D01*
X106164Y116890D01*
X106400Y116321D01*
X106968Y116085D01*
X107537Y116321D01*
X107773Y116890D01*
X107537Y117458D01*
Y117458D01*
Y117458D01*
X107575Y117647D01*
X108362D01*
X108400Y117458D01*
D02*
G37*
G36*
X153552Y117481D02*
X153324Y116929D01*
X153703Y116014D01*
X154671Y116982D01*
X154778Y116876D01*
X153809Y115907D01*
X154724Y115528D01*
X155276Y115757D01*
X155442Y115646D01*
Y112498D01*
X155276Y112387D01*
X154724Y112615D01*
X154156Y112380D01*
X153920Y111811D01*
X154156Y111242D01*
X154724Y111007D01*
X155276Y111235D01*
X155442Y111124D01*
Y107774D01*
X155276Y107662D01*
X154724Y107891D01*
X154156Y107655D01*
X153920Y107087D01*
X154156Y106518D01*
X154724Y106282D01*
X155276Y106511D01*
X155442Y106400D01*
Y103260D01*
X155246Y103221D01*
X155230Y103261D01*
X154724Y103470D01*
X154724Y103470D01*
Y103470D01*
X154724D01*
D01*
X154657Y103538D01*
X154679Y103591D01*
X154470Y104096D01*
X153965Y104305D01*
X153464Y104098D01*
X153313Y104250D01*
X153038Y104363D01*
X153005Y104442D01*
X152500Y104651D01*
X151995Y104442D01*
X151786Y103937D01*
X151995Y103432D01*
X152394Y103267D01*
Y103067D01*
X151912Y102867D01*
X151703Y102362D01*
X151912Y101857D01*
X152417Y101648D01*
X152922Y101857D01*
X152949Y101920D01*
X153150D01*
X153150Y101920D01*
X153150Y101920D01*
X153250Y101917D01*
X153250Y101917D01*
X153250D01*
X153250Y101917D01*
X153428Y101487D01*
X153912Y101970D01*
X153965Y101917D01*
X154018Y101970D01*
X154501Y101487D01*
X154679Y101917D01*
X154656Y101973D01*
X154724Y102042D01*
X154724Y102042D01*
X154724Y102042D01*
X155230Y102251D01*
X155246Y102290D01*
X155442Y102251D01*
Y86795D01*
X155276Y86684D01*
X155031Y86785D01*
X154531Y86578D01*
X154031Y86785D01*
X153640Y86623D01*
X153474Y86734D01*
Y87008D01*
X153344Y87320D01*
X152195Y88470D01*
X152306Y88636D01*
X152944Y88372D01*
X153947Y88787D01*
X154362Y89790D01*
X153947Y90792D01*
X152944Y91208D01*
X151941Y90792D01*
X151526Y89790D01*
X151790Y89152D01*
X151649Y89057D01*
X151624Y89041D01*
X151229Y89435D01*
D01*
Y91929D01*
X151100Y92242D01*
X150329Y93013D01*
X150017Y93142D01*
X142633D01*
X142174Y93601D01*
Y98425D01*
X142045Y98738D01*
X141848Y98935D01*
X141535Y99064D01*
X138331D01*
X138220Y99230D01*
X138415Y99701D01*
X138206Y100206D01*
X137701Y100415D01*
X137201Y100208D01*
X136701Y100415D01*
X136201Y100208D01*
X135701Y100415D01*
X135300Y100249D01*
X135124Y100343D01*
X135107Y100427D01*
X135419Y100739D01*
X148032D01*
X148344Y100869D01*
X148344Y100869D01*
X148344Y100869D01*
X149178Y101702D01*
X149873D01*
Y103022D01*
X148553D01*
Y102327D01*
X147848Y101623D01*
X147419D01*
X147383Y101806D01*
X147308Y101775D01*
X146825Y102258D01*
X146342Y102741D01*
X146285Y102604D01*
X146100Y102527D01*
X145724Y102683D01*
X145219Y102474D01*
X145010Y101968D01*
X145084Y101789D01*
X144973Y101623D01*
X143180D01*
Y102628D01*
X141860D01*
Y101623D01*
X139783D01*
X139672Y101789D01*
X139746Y101968D01*
X139537Y102474D01*
X139031Y102683D01*
X138526Y102474D01*
X138317Y101968D01*
X138391Y101789D01*
X138280Y101623D01*
X136487D01*
Y102628D01*
X135167D01*
Y102411D01*
X134658D01*
X134547Y102577D01*
X134600Y102705D01*
X134577Y102760D01*
X134646Y102829D01*
X134646Y102829D01*
X134646Y102829D01*
X135151Y103038D01*
X135360Y103543D01*
X135151Y104048D01*
X134646Y104258D01*
X134646Y104258D01*
Y104258D01*
X134646D01*
D01*
X134578Y104325D01*
D01*
X134600Y104378D01*
X134574Y104442D01*
X134685Y104608D01*
X135954D01*
Y103671D01*
X137274D01*
Y104608D01*
X138335D01*
X138446Y104442D01*
X138400Y104331D01*
X138609Y103826D01*
X139114Y103616D01*
X139619Y103826D01*
X139645Y103889D01*
X139913D01*
X140027Y103936D01*
X140047D01*
X140074Y103873D01*
X140579Y103664D01*
X140579Y103664D01*
Y103664D01*
D01*
X140624Y103543D01*
X140624Y103543D01*
X140624D01*
X140647Y103488D01*
X140579Y103419D01*
X140579Y103419D01*
X140579Y103419D01*
X140149Y103241D01*
X140632Y102758D01*
X141115Y102275D01*
X141293Y102705D01*
X141270Y102760D01*
X141339Y102829D01*
X141339Y102829D01*
X141339Y102829D01*
X141844Y103038D01*
X142053Y103543D01*
X141844Y104048D01*
X141339Y104258D01*
X141339Y104258D01*
Y104258D01*
X141339D01*
D01*
X141271Y104325D01*
X141293Y104378D01*
X141267Y104442D01*
X141378Y104608D01*
X142097D01*
X142129Y104531D01*
X142520Y104369D01*
X142520Y104369D01*
X142520Y104369D01*
X142647Y104284D01*
Y103277D01*
X143967D01*
Y104597D01*
X143802D01*
Y105016D01*
X149401D01*
X149505Y104913D01*
Y104597D01*
X149340D01*
Y103277D01*
X150660D01*
Y104597D01*
X150495D01*
Y105118D01*
X150373Y105413D01*
X150350Y105468D01*
X150307Y105512D01*
X150350Y105555D01*
X150495Y105906D01*
D01*
D01*
Y105906D01*
Y105906D01*
Y106488D01*
X150569Y106518D01*
X150714Y106868D01*
X150734Y106917D01*
X150930Y106956D01*
X151420Y106465D01*
X151566Y106319D01*
X151558Y106299D01*
X151793Y105730D01*
X152362Y105495D01*
X152931Y105730D01*
X153167Y106299D01*
X152931Y106868D01*
X152362Y107104D01*
X152342Y107095D01*
X151730Y107708D01*
D01*
Y114142D01*
X151569Y114530D01*
X150517Y115582D01*
Y116257D01*
X150577Y116282D01*
X150812Y116850D01*
X150577Y117419D01*
X150500Y117451D01*
X150539Y117647D01*
X151476D01*
X151515Y117451D01*
X151439Y117419D01*
X151204Y116850D01*
X151439Y116282D01*
X152008Y116046D01*
X152577Y116282D01*
X152812Y116850D01*
X152577Y117419D01*
X152500Y117451D01*
X152539Y117647D01*
X153441D01*
X153552Y117481D01*
D02*
G37*
G36*
X149515Y117451D02*
X149439Y117419D01*
X149204Y116850D01*
X149364Y116463D01*
X149420Y116328D01*
Y115354D01*
X149420Y115354D01*
X149420D01*
X149581Y114966D01*
X150632Y113914D01*
Y112533D01*
X150466Y112422D01*
X150000Y112615D01*
X149431Y112380D01*
X149196Y111811D01*
X149431Y111242D01*
X150000Y111007D01*
X150466Y111200D01*
X150632Y111089D01*
Y107809D01*
X150466Y107698D01*
X150000Y107891D01*
X149431Y107655D01*
X149196Y107087D01*
X149431Y106518D01*
X149505Y106488D01*
Y106111D01*
X149401Y106007D01*
X146533D01*
X146421Y106173D01*
X146474Y106299D01*
X146238Y106868D01*
X146218Y106876D01*
Y109025D01*
X146356Y109163D01*
Y109163D01*
X146356D01*
X146451Y109390D01*
X146517Y109551D01*
D01*
Y109551D01*
Y116257D01*
X146577Y116282D01*
X146812Y116850D01*
X146577Y117419D01*
X146500Y117451D01*
X146539Y117647D01*
X147476D01*
X147515Y117451D01*
X147439Y117419D01*
X147204Y116850D01*
X147439Y116282D01*
X148008Y116046D01*
X148577Y116282D01*
X148812Y116850D01*
X148577Y117419D01*
X148500Y117451D01*
X148539Y117647D01*
X149476D01*
X149515Y117451D01*
D02*
G37*
G36*
X122826Y116465D02*
Y115188D01*
X122819Y115183D01*
X122819Y115183D01*
Y115183D01*
X122485Y115045D01*
X122150Y115183D01*
X122145Y115181D01*
X121979Y115292D01*
Y115969D01*
X121875Y116218D01*
X121833Y116321D01*
X121895Y116471D01*
X122820D01*
X122826Y116465D01*
D02*
G37*
G36*
X133198Y83592D02*
X133599D01*
X133638Y83396D01*
X133609Y83383D01*
X132034Y81809D01*
X131904Y81496D01*
Y81015D01*
X131778Y80962D01*
X131542Y80394D01*
X131778Y79825D01*
X131854Y79793D01*
X131815Y79597D01*
X130878D01*
X130839Y79793D01*
X130840Y79794D01*
X130346Y80288D01*
X129853Y79794D01*
X129854Y79793D01*
X129815Y79597D01*
X128878D01*
X128839Y79793D01*
X128915Y79825D01*
X129151Y80394D01*
X128915Y80962D01*
X128789Y81015D01*
Y81313D01*
X132073Y84597D01*
X133198D01*
Y83592D01*
D02*
G37*
G36*
X126467Y117451D02*
X126070Y117286D01*
X126553Y116803D01*
X126447Y116697D01*
X125964Y117180D01*
X125786Y116750D01*
X125836Y116629D01*
X125742Y116487D01*
X125543Y116463D01*
X125548Y116459D01*
X124546Y117374D01*
X124432Y117415D01*
X124320Y117462D01*
Y117505D01*
X124461Y117647D01*
X126428D01*
X126467Y117451D01*
D02*
G37*
G36*
X129764Y117248D02*
X130236Y116828D01*
Y116548D01*
Y113745D01*
X129252Y112870D01*
X128937Y112835D01*
X127992Y113675D01*
Y113700D01*
X123590D01*
X123538Y113748D01*
X123469Y113810D01*
X123487Y113857D01*
X123439D01*
Y114400D01*
Y114943D01*
X123161D01*
Y116613D01*
X122651Y117079D01*
X122669Y117126D01*
X124320D01*
X125518Y116032D01*
X125623Y116127D01*
X127637D01*
X127740Y116218D01*
X127953Y116408D01*
Y116478D01*
Y116863D01*
X128032Y116933D01*
X128425Y117283D01*
X128715D01*
X128737Y117239D01*
X128652Y117128D01*
X128597Y116994D01*
X128584Y116900D01*
X129683D01*
X129671Y116994D01*
X129615Y117128D01*
X129527Y117243D01*
X129541Y117283D01*
X129724D01*
X129764Y117248D01*
D02*
G37*
G36*
X137515Y117451D02*
X137439Y117419D01*
X137204Y116850D01*
X137407Y116359D01*
X137404Y116353D01*
Y115394D01*
X137404Y115394D01*
X137404D01*
Y112358D01*
X137317Y112341D01*
X137239Y112405D01*
X137163Y112468D01*
Y114952D01*
X137166Y114961D01*
X137005Y115351D01*
X136614Y115513D01*
X136224Y115351D01*
X136062Y114961D01*
X136066Y114952D01*
Y114598D01*
X135899Y114487D01*
X135882Y114494D01*
X135377Y114285D01*
X135168Y113780D01*
X135377Y113274D01*
X135882Y113065D01*
X135899Y113072D01*
X136066Y112961D01*
Y112388D01*
X136045Y112380D01*
X135810Y111811D01*
X136045Y111242D01*
X136495Y111056D01*
X136512Y110857D01*
X131995Y108065D01*
X131956Y108012D01*
X131896Y107986D01*
X131838Y107847D01*
X131750Y107724D01*
X131760Y107659D01*
X131735Y107598D01*
Y106876D01*
X131715Y106868D01*
X131479Y106299D01*
X131531Y106173D01*
X131420Y106007D01*
X130058D01*
X129921Y106064D01*
X129531Y105902D01*
X129369Y105512D01*
X129402Y105433D01*
D01*
D01*
X129236Y105364D01*
X128066Y104194D01*
X125151D01*
X125151Y104194D01*
X124994Y104129D01*
X124837Y104064D01*
X124837Y104064D01*
X124572Y103799D01*
X124310Y103690D01*
X124149Y103300D01*
X124239Y103083D01*
X124097Y102941D01*
X123800Y103064D01*
X123370Y102886D01*
X123853Y102403D01*
X123747Y102297D01*
X123264Y102780D01*
X123086Y102350D01*
X123086Y102350D01*
X123086Y102350D01*
X123094Y102214D01*
X122852Y102113D01*
X122686Y102225D01*
Y103543D01*
X122557Y103856D01*
X121445Y104967D01*
X121522Y105152D01*
X122344D01*
X122948Y104548D01*
X123051Y104505D01*
X123300Y104402D01*
X124700D01*
X125052Y104548D01*
X125643Y105139D01*
X125650Y105136D01*
X126155Y105345D01*
X126364Y105850D01*
X126155Y106355D01*
X125650Y106564D01*
X125145Y106355D01*
X124936Y105850D01*
X124939Y105843D01*
X124542Y105446D01*
X124343Y105466D01*
X124277Y105564D01*
X124396Y105850D01*
X124218Y106280D01*
X123734Y105797D01*
X123681Y105850D01*
X123629Y105797D01*
X123145Y106280D01*
X123065Y106087D01*
X122881Y106011D01*
X122550Y106148D01*
X116506D01*
X116198Y106456D01*
Y111193D01*
X116364Y111304D01*
X116900Y111082D01*
X117439Y111305D01*
X116847Y111897D01*
X116900Y111950D01*
X116847Y112003D01*
X117439Y112595D01*
X116900Y112818D01*
X116364Y112596D01*
X116198Y112707D01*
Y115094D01*
X116956Y115852D01*
X120894D01*
X120983Y115763D01*
Y115292D01*
X120817Y115181D01*
X120811Y115183D01*
X120363Y114998D01*
X120351Y114967D01*
X120847Y114471D01*
Y114435D01*
X120812Y114400D01*
X120847Y114365D01*
Y114329D01*
X120351Y113833D01*
X120363Y113802D01*
X120811Y113617D01*
X121146Y113755D01*
X121481Y113617D01*
X121815Y113755D01*
X122150Y113617D01*
X122485Y113755D01*
X122819Y113617D01*
X122936Y113665D01*
X123173D01*
X123189Y113649D01*
X123201Y113620D01*
X123220Y113612D01*
X123243Y113562D01*
X123312Y113500D01*
X123312Y113500D01*
X123364Y113452D01*
X123478Y113411D01*
X123590Y113364D01*
X127837D01*
X128602Y112683D01*
Y110000D01*
X128748Y109648D01*
X128748Y109648D01*
X128748Y109648D01*
X129423Y108973D01*
Y107685D01*
X129353Y107655D01*
X129117Y107087D01*
X129353Y106518D01*
X129921Y106282D01*
X130490Y106518D01*
X130726Y107087D01*
X130490Y107655D01*
X130419Y107685D01*
D01*
Y109179D01*
X130273Y109531D01*
X129598Y110206D01*
Y110961D01*
X129764Y111072D01*
X129921Y111007D01*
X130490Y111242D01*
X130726Y111811D01*
X130490Y112380D01*
X129921Y112615D01*
X129764Y112550D01*
X129598Y112661D01*
Y112728D01*
X130459Y113495D01*
X130464Y113504D01*
X130473Y113508D01*
X130519Y113618D01*
X130571Y113726D01*
X130568Y113736D01*
X130572Y113745D01*
Y116099D01*
X130738Y116210D01*
X131134Y116046D01*
X131628Y116251D01*
X131081Y116797D01*
X131134Y116850D01*
X131081Y116903D01*
X131628Y117450D01*
X131626Y117451D01*
X131665Y117647D01*
X137476D01*
X137515Y117451D01*
D02*
G37*
G36*
X102384Y117458D02*
Y117458D01*
D01*
X102148Y116890D01*
X102370Y116355D01*
X102381Y116330D01*
Y115354D01*
X102541Y114966D01*
X104373Y113135D01*
Y106890D01*
X104533Y106502D01*
X104716Y106319D01*
X104708Y106299D01*
X104943Y105730D01*
Y105730D01*
Y105730D01*
X104906Y105542D01*
X103919D01*
X103758Y105475D01*
X103592Y105587D01*
Y106465D01*
X103718Y106518D01*
X103954Y107087D01*
X103718Y107655D01*
X103150Y107891D01*
X102581Y107655D01*
X102345Y107087D01*
X102581Y106518D01*
X102708Y106465D01*
Y104991D01*
X102490D01*
Y104444D01*
X102305Y104368D01*
X102066Y104606D01*
X102092Y104669D01*
X101883Y105174D01*
X101378Y105384D01*
X100873Y105174D01*
X100664Y104669D01*
X100873Y104164D01*
X100797Y103981D01*
X100787Y103985D01*
X99852D01*
X99131Y104706D01*
X98819Y104836D01*
X97944D01*
X97892Y104962D01*
X97323Y105198D01*
X96754Y104962D01*
X96723Y104886D01*
X96526Y104925D01*
Y105862D01*
X96723Y105901D01*
X96754Y105825D01*
X97323Y105589D01*
X97892Y105825D01*
X98127Y106394D01*
X97892Y106962D01*
X97323Y107198D01*
X96754Y106962D01*
X96723Y106886D01*
X96526Y106925D01*
Y107862D01*
X96723Y107901D01*
X96754Y107825D01*
X97323Y107589D01*
X97892Y107825D01*
X97944Y107952D01*
X100675D01*
X100718Y107909D01*
Y107214D01*
X102038D01*
Y108534D01*
X102038D01*
X101952Y108662D01*
X102092Y109000D01*
X101883Y109505D01*
X101378Y109714D01*
X100873Y109505D01*
X100664Y109000D01*
X100664Y109000D01*
X100664Y109000D01*
X100554Y108836D01*
X97944D01*
X97892Y108962D01*
X97323Y109198D01*
X96754Y108962D01*
X96723Y108886D01*
X96526Y108925D01*
Y109862D01*
X96723Y109901D01*
X96754Y109825D01*
X97323Y109589D01*
X97892Y109825D01*
X98127Y110394D01*
X97892Y110962D01*
X97323Y111198D01*
X96754Y110962D01*
X96723Y110886D01*
X96526Y110925D01*
Y111862D01*
X96723Y111901D01*
X96754Y111825D01*
X97323Y111589D01*
X97892Y111825D01*
X97944Y111952D01*
X100014D01*
X100073Y111892D01*
X100386Y111763D01*
X100718D01*
Y111545D01*
X102038D01*
Y112865D01*
X100718D01*
Y112759D01*
X100533Y112683D01*
X100509Y112706D01*
X100197Y112836D01*
X97944D01*
X97892Y112962D01*
X97323Y113198D01*
X96754Y112962D01*
X96723Y112886D01*
X96526Y112925D01*
Y113862D01*
X96723Y113901D01*
X96754Y113825D01*
X97323Y113589D01*
X97892Y113825D01*
X98127Y114394D01*
X97892Y114962D01*
X97323Y115198D01*
X96754Y114962D01*
X96723Y114886D01*
X96526Y114925D01*
Y115646D01*
X96693Y115757D01*
X97244Y115528D01*
X98160Y115907D01*
X97191Y116876D01*
X97297Y116982D01*
X98266Y116014D01*
X98645Y116929D01*
X98417Y117481D01*
X98528Y117647D01*
X102347D01*
X102384Y117458D01*
D02*
G37*
%LPC*%
G36*
X119828Y90556D02*
X119397Y90126D01*
X119828Y89696D01*
X120006Y90126D01*
X119828Y90556D01*
D02*
G37*
G36*
X149298Y87832D02*
X149120Y87402D01*
X149298Y86971D01*
X149729Y87402D01*
X149298Y87832D01*
D02*
G37*
G36*
X107283Y88344D02*
X106853Y88166D01*
X107283Y87736D01*
X107714Y88166D01*
X107283Y88344D01*
D02*
G37*
G36*
X147250Y89714D02*
X146820Y89536D01*
X147250Y89106D01*
X147680Y89536D01*
X147250Y89714D01*
D02*
G37*
G36*
X107820Y92588D02*
X107390Y92157D01*
X107820Y91727D01*
X107998Y92157D01*
X107820Y92588D01*
D02*
G37*
G36*
X106639Y93005D02*
X106208Y92575D01*
X106639Y92145D01*
X106608Y92070D01*
X106606Y92069D01*
X106747Y91727D01*
X107177Y92157D01*
X106747Y92588D01*
X106778Y92663D01*
X106780Y92663D01*
X106639Y93005D01*
D02*
G37*
G36*
X107283Y92051D02*
X106853Y91621D01*
X107283Y91443D01*
X107714Y91621D01*
X107283Y92051D01*
D02*
G37*
G36*
X129747Y80887D02*
X129542Y80394D01*
X129747Y79900D01*
X130240Y80394D01*
X129747Y80887D01*
D02*
G37*
G36*
X107283Y92872D02*
X106853Y92694D01*
X107283Y92264D01*
X107714Y92694D01*
X107283Y92872D01*
D02*
G37*
G36*
X106102Y92469D02*
X105672Y92039D01*
X106102Y91860D01*
X106532Y92039D01*
X106102Y92469D01*
D02*
G37*
G36*
X113414Y92048D02*
X113098Y91732D01*
X113414Y91417D01*
X113544Y91732D01*
X113414Y92048D01*
D02*
G37*
G36*
X109843Y91067D02*
X109412Y90637D01*
X109843Y90459D01*
X110273Y90637D01*
X109843Y91067D01*
D02*
G37*
G36*
X119291Y90840D02*
X118861Y90662D01*
X119291Y90232D01*
X119721Y90662D01*
X119291Y90840D01*
D02*
G37*
G36*
X133747Y80887D02*
X133542Y80394D01*
X133747Y79900D01*
X134240Y80394D01*
X133747Y80887D01*
D02*
G37*
G36*
X109843Y91888D02*
X109412Y91709D01*
X109843Y91279D01*
X110273Y91709D01*
X109843Y91888D01*
D02*
G37*
G36*
X109306Y91603D02*
X109128Y91173D01*
X109306Y90743D01*
X109736Y91173D01*
X109306Y91603D01*
D02*
G37*
G36*
X130946Y80887D02*
X130453Y80394D01*
X130946Y79900D01*
X131151Y80394D01*
X130946Y80887D01*
D02*
G37*
G36*
X134449Y87297D02*
X134019Y87119D01*
X134449Y86689D01*
X134879Y87119D01*
X134449Y87297D01*
D02*
G37*
G36*
X106442Y84344D02*
X106012Y83913D01*
X106442Y83483D01*
X106620Y83913D01*
X106442Y84344D01*
D02*
G37*
G36*
X105906Y83807D02*
X105475Y83377D01*
X105906Y83199D01*
X106336Y83377D01*
X105906Y83807D01*
D02*
G37*
G36*
X107283Y83620D02*
X106853Y83442D01*
X107283Y83012D01*
X107714Y83442D01*
X107283Y83620D01*
D02*
G37*
G36*
X134346Y81198D02*
X133853Y80993D01*
X134346Y80500D01*
X134840Y80993D01*
X134346Y81198D01*
D02*
G37*
G36*
X138346D02*
X137853Y80993D01*
X138346Y80500D01*
X138840Y80993D01*
X138346Y81198D01*
D02*
G37*
G36*
X139173Y84933D02*
X138689Y84449D01*
X139173Y83964D01*
X139658Y84449D01*
X139173Y84933D01*
D02*
G37*
G36*
X107820Y83336D02*
X107390Y82906D01*
X107820Y82475D01*
X107998Y82906D01*
X107820Y83336D01*
D02*
G37*
G36*
X104756Y81620D02*
X104256Y81413D01*
X104256Y81413D01*
X104251Y81411D01*
X104168Y81212D01*
X103862Y80906D01*
X104168Y80599D01*
X104251Y80400D01*
X104256Y80398D01*
X104256Y80398D01*
X104756Y80191D01*
X105079Y80325D01*
X105246Y80214D01*
Y80049D01*
X106566D01*
Y80246D01*
X106566D01*
X106623D01*
X106707Y80246D01*
X106707Y80246D01*
Y80246D01*
X107943D01*
Y81566D01*
X106623D01*
Y81427D01*
X106566Y81369D01*
X106482Y81369D01*
X106482Y81369D01*
Y81369D01*
X105278D01*
X105261Y81411D01*
X104756Y81620D01*
D02*
G37*
G36*
X150213Y81423D02*
X149952Y81315D01*
X149873Y81369D01*
Y81369D01*
X148553D01*
Y81251D01*
X148356Y81212D01*
X148356Y81214D01*
X147850Y81423D01*
X147590Y81315D01*
X147510Y81369D01*
Y81369D01*
X146190D01*
Y80049D01*
X147510D01*
Y80049D01*
X147590Y80102D01*
X147850Y79994D01*
X148356Y80204D01*
X148356Y80206D01*
X148553Y80167D01*
Y80049D01*
X149873D01*
Y80049D01*
X149952Y80102D01*
X150213Y79994D01*
X150718Y80204D01*
X150719Y80206D01*
X150915Y80167D01*
Y80155D01*
X151469Y80709D01*
X150915Y81263D01*
Y81251D01*
X150719Y81212D01*
X150718Y81214D01*
X150213Y81423D01*
D02*
G37*
G36*
X152129Y81369D02*
X151021D01*
X151575Y80815D01*
X152129Y81369D01*
D02*
G37*
G36*
X106747Y83336D02*
X106569Y82906D01*
X106747Y82475D01*
X107177Y82906D01*
X106747Y83336D01*
D02*
G37*
G36*
X142346Y81198D02*
X141853Y80993D01*
X142346Y80500D01*
X142840Y80993D01*
X142346Y81198D01*
D02*
G37*
G36*
X107283Y82799D02*
X106853Y82369D01*
X107283Y82191D01*
X107714Y82369D01*
X107283Y82799D01*
D02*
G37*
G36*
X146920Y85396D02*
X146366Y84843D01*
X146920Y84289D01*
Y85396D01*
D02*
G37*
G36*
X140551Y86296D02*
X140121Y85865D01*
X140551Y85687D01*
X140981Y85865D01*
X140551Y86296D01*
D02*
G37*
G36*
X149031Y85965D02*
X148601Y85535D01*
X149031Y85356D01*
X149462Y85535D01*
X149031Y85965D01*
D02*
G37*
G36*
X138946Y80887D02*
X138453Y80394D01*
X138946Y79900D01*
X139151Y80394D01*
X138946Y80887D01*
D02*
G37*
G36*
X134946D02*
X134453Y80394D01*
X134946Y79900D01*
X135151Y80394D01*
X134946Y80887D01*
D02*
G37*
G36*
X138827Y86738D02*
X138397Y86560D01*
X138827Y86130D01*
X139257Y86560D01*
X138827Y86738D01*
D02*
G37*
G36*
X137747Y80887D02*
X137542Y80394D01*
X137747Y79900D01*
X138240Y80394D01*
X137747Y80887D01*
D02*
G37*
G36*
X146814Y85503D02*
X145706D01*
X146260Y84949D01*
X146814Y85503D01*
D02*
G37*
G36*
X151575Y80603D02*
X151021Y80049D01*
X152129D01*
X151575Y80603D01*
D02*
G37*
G36*
X130346Y81198D02*
X129853Y80993D01*
X130346Y80500D01*
X130840Y80993D01*
X130346Y81198D01*
D02*
G37*
G36*
X139363Y86454D02*
X138880Y85971D01*
X138397Y85487D01*
X138513Y85439D01*
Y84518D01*
X138546D01*
X139120Y85092D01*
X139727Y85699D01*
X139587D01*
X139476Y85866D01*
X139541Y86024D01*
X139363Y86454D01*
D02*
G37*
G36*
X139833Y85593D02*
X139279Y85039D01*
X139800Y84518D01*
X139833D01*
Y85593D01*
D02*
G37*
G36*
X141747Y80887D02*
X141542Y80394D01*
X141747Y79900D01*
X142240Y80394D01*
X141747Y80887D01*
D02*
G37*
G36*
X142946D02*
X142453Y80394D01*
X142946Y79900D01*
X143151Y80394D01*
X142946Y80887D01*
D02*
G37*
G36*
X109306Y96131D02*
X109128Y95701D01*
X109306Y95271D01*
X109736Y95701D01*
X109306Y96131D01*
D02*
G37*
G36*
X134646Y112615D02*
X134077Y112380D01*
X133841Y111811D01*
X134077Y111242D01*
X134646Y111007D01*
X135214Y111242D01*
X135450Y111811D01*
X135214Y112380D01*
X134646Y112615D01*
D02*
G37*
G36*
X103150D02*
X102581Y112380D01*
X102345Y111811D01*
X102581Y111242D01*
X103150Y111007D01*
X103718Y111242D01*
X103954Y111811D01*
X103718Y112380D01*
X103150Y112615D01*
D02*
G37*
G36*
X126450Y109858D02*
X125945Y109649D01*
X125736Y109144D01*
X125945Y108639D01*
X126450Y108430D01*
X126955Y108639D01*
X127164Y109144D01*
X126955Y109649D01*
X126450Y109858D01*
D02*
G37*
G36*
X141339Y112615D02*
X140770Y112380D01*
X140534Y111811D01*
X140770Y111242D01*
X141339Y111007D01*
X141907Y111242D01*
X142143Y111811D01*
X141907Y112380D01*
X141339Y112615D01*
D02*
G37*
G36*
X122815Y112818D02*
X122796D01*
X122182Y112564D01*
X121927Y111950D01*
X122182Y111336D01*
X122796Y111082D01*
X122815D01*
X123429Y111336D01*
X123684Y111950D01*
X123429Y112564D01*
X122815Y112818D01*
D02*
G37*
G36*
X148032Y112615D02*
X147463Y112380D01*
X147227Y111811D01*
X147463Y111242D01*
X148032Y111007D01*
X148600Y111242D01*
X148836Y111811D01*
X148600Y112380D01*
X148032Y112615D01*
D02*
G37*
G36*
X143307D02*
X142738Y112380D01*
X142503Y111811D01*
X142738Y111242D01*
X143307Y111007D01*
X143876Y111242D01*
X144111Y111811D01*
X143876Y112380D01*
X143307Y112615D01*
D02*
G37*
G36*
X148032Y107891D02*
X147463Y107655D01*
X147227Y107087D01*
X147463Y106518D01*
X148032Y106282D01*
X148600Y106518D01*
X148836Y107087D01*
X148600Y107655D01*
X148032Y107891D01*
D02*
G37*
G36*
X146878Y104699D02*
X146373Y104489D01*
X146373Y104489D01*
Y104489D01*
X146312Y104442D01*
X146312D01*
Y104442D01*
D01*
X145807Y104651D01*
X145302Y104442D01*
X145093Y103937D01*
X145302Y103432D01*
X145807Y103223D01*
X146312Y103432D01*
X146323Y103459D01*
X146373Y103479D01*
D01*
D01*
X146878Y103270D01*
X146878Y103270D01*
Y103270D01*
D01*
X146923Y103150D01*
X146923Y103150D01*
X146923D01*
X146946Y103094D01*
X146878Y103025D01*
X146878Y103025D01*
X146878Y103025D01*
X146448Y102847D01*
X146931Y102364D01*
X147414Y101881D01*
X147592Y102311D01*
X147586Y102327D01*
X147569Y102367D01*
D01*
X147638Y102435D01*
X147638Y102435D01*
X147638Y102435D01*
X148143Y102644D01*
X148352Y103150D01*
X148143Y103655D01*
X147638Y103864D01*
X147638Y103864D01*
Y103864D01*
X147638D01*
D01*
X147570Y103931D01*
X147572Y103936D01*
X147592Y103984D01*
X147383Y104489D01*
X146878Y104699D01*
D02*
G37*
G36*
X137795Y103269D02*
X137480Y103138D01*
X137795Y102823D01*
X138111Y103138D01*
X137795Y103269D01*
D02*
G37*
G36*
X138217Y103032D02*
X137901Y102717D01*
X138217Y102401D01*
X138347Y102717D01*
X138217Y103032D01*
D02*
G37*
G36*
X123681Y106564D02*
X123251Y106386D01*
X123681Y105956D01*
X124112Y106386D01*
X123681Y106564D01*
D02*
G37*
G36*
X141339Y107891D02*
X140770Y107655D01*
X140534Y107087D01*
X140770Y106518D01*
X141339Y106282D01*
X141907Y106518D01*
X142143Y107087D01*
X141907Y107655D01*
X141339Y107891D01*
D02*
G37*
G36*
X136614D02*
X136045Y107655D01*
X135810Y107087D01*
X136045Y106518D01*
X136614Y106282D01*
X137183Y106518D01*
X137418Y107087D01*
X137183Y107655D01*
X136614Y107891D01*
D02*
G37*
G36*
X134646D02*
X134077Y107655D01*
X133841Y107087D01*
X134077Y106518D01*
X134646Y106282D01*
X135214Y106518D01*
X135450Y107087D01*
X135214Y107655D01*
X134646Y107891D01*
D02*
G37*
G36*
X134412Y116408D02*
X133304D01*
X133858Y115854D01*
X134412Y116408D01*
D02*
G37*
G36*
X133198Y116302D02*
Y115194D01*
X133752Y115748D01*
X133198Y116302D01*
D02*
G37*
G36*
X123882Y114943D02*
X123539D01*
Y114450D01*
X123882D01*
Y114943D01*
D02*
G37*
G36*
X129084Y116800D02*
X128584D01*
X128597Y116707D01*
X128652Y116572D01*
X128702Y116507D01*
X128741Y116457D01*
X128856Y116369D01*
X128990Y116313D01*
X129084Y116301D01*
Y116800D01*
D02*
G37*
G36*
X131734Y117344D02*
X131240Y116850D01*
X131734Y116357D01*
X131938Y116850D01*
X131734Y117344D01*
D02*
G37*
G36*
X134858Y116462D02*
X134598Y116355D01*
X134518Y116408D01*
Y116322D01*
X134353Y116253D01*
X134271Y116055D01*
X133911Y115695D01*
X133304Y115088D01*
X133902D01*
X133979Y114903D01*
X133463Y114387D01*
D01*
X133337Y114440D01*
Y114440D01*
X133337Y114440D01*
X132017D01*
Y113120D01*
X133337D01*
Y113337D01*
X133480D01*
X133793Y113467D01*
X135171Y114845D01*
X135300Y115157D01*
X135300Y115157D01*
D01*
D01*
X135363Y115243D01*
X135363Y115243D01*
X135363Y115243D01*
X135573Y115748D01*
X135363Y116253D01*
X134858Y116462D01*
D02*
G37*
G36*
X129683Y116800D02*
X129184D01*
Y116301D01*
X129278Y116313D01*
X129412Y116369D01*
X129527Y116457D01*
X129565Y116507D01*
X129615Y116572D01*
X129671Y116707D01*
X129683Y116800D01*
D02*
G37*
G36*
X126968Y114718D02*
X126550D01*
Y114300D01*
X126968D01*
Y114718D01*
D02*
G37*
G36*
X126450Y114200D02*
X126032D01*
Y113782D01*
X126450D01*
Y114200D01*
D02*
G37*
G36*
X117545Y112489D02*
X117006Y111950D01*
X117545Y111411D01*
X117768Y111950D01*
X117545Y112489D01*
D02*
G37*
G36*
X126450Y112614D02*
X125945Y112405D01*
X125736Y111900D01*
X125945Y111395D01*
X126450Y111186D01*
X126955Y111395D01*
X127164Y111900D01*
X126955Y112405D01*
X126450Y112614D01*
D02*
G37*
G36*
X126968Y114200D02*
X126550D01*
Y113782D01*
X126968D01*
Y114200D01*
D02*
G37*
G36*
X126450Y114718D02*
X126032D01*
Y114300D01*
X126450D01*
Y114718D01*
D02*
G37*
G36*
X120288Y114817D02*
X120178Y114549D01*
Y114251D01*
X120288Y113983D01*
X120705Y114400D01*
X120288Y114817D01*
D02*
G37*
G36*
X123882Y114350D02*
X123539D01*
Y113857D01*
X123882D01*
Y114350D01*
D02*
G37*
G36*
X127400Y95964D02*
X127367Y95960D01*
X127290Y95928D01*
X127223Y95877D01*
X127172Y95810D01*
X127140Y95733D01*
X127136Y95700D01*
X127400D01*
Y95964D01*
D02*
G37*
G36*
X126751D02*
Y95700D01*
X127015D01*
X127011Y95733D01*
X126979Y95810D01*
X126928Y95877D01*
X126861Y95928D01*
X126784Y95960D01*
X126751Y95964D01*
D02*
G37*
G36*
X126651D02*
X126618Y95960D01*
X126540Y95928D01*
X126474Y95877D01*
X126423Y95810D01*
X126391Y95733D01*
X126387Y95700D01*
X126651D01*
Y95964D01*
D02*
G37*
G36*
X127500D02*
Y95700D01*
X127764D01*
X127760Y95733D01*
X127728Y95810D01*
X127677Y95877D01*
X127610Y95928D01*
X127533Y95960D01*
X127500Y95964D01*
D02*
G37*
G36*
X152937Y97358D02*
X152415Y96837D01*
X151994Y96416D01*
X151823Y96345D01*
X151819Y96346D01*
X151819Y96343D01*
X151819D01*
X151594Y95800D01*
X151819Y95256D01*
D01*
Y95256D01*
Y95256D01*
D01*
X151819Y95253D01*
X151819D01*
X151594Y94710D01*
X151819Y94166D01*
D01*
Y94166D01*
Y94166D01*
D01*
X151819Y94163D01*
X151819D01*
X151594Y93620D01*
X151713Y93331D01*
X151652Y93240D01*
X151652D01*
Y91820D01*
X153072D01*
Y92303D01*
X153238Y92414D01*
X153486Y92311D01*
X154030Y92536D01*
X154255Y93080D01*
X154030Y93623D01*
Y93623D01*
X154030D01*
X154255Y94170D01*
X154255Y94170D01*
D01*
X154255Y94170D01*
X154255Y94170D01*
Y94170D01*
Y94170D01*
X154255D01*
X154030Y94713D01*
Y94713D01*
X154030D01*
X154255Y95260D01*
X154255Y95260D01*
D01*
X154255Y95260D01*
X154255Y95260D01*
Y95260D01*
Y95260D01*
X154255D01*
X154030Y95803D01*
Y95803D01*
X154030D01*
X154255Y96350D01*
X154255Y96350D01*
D01*
X154255Y96350D01*
X154255Y96350D01*
Y96350D01*
Y96350D01*
X154255D01*
X154030Y96893D01*
X153486Y97118D01*
X153233Y97013D01*
X153048Y97090D01*
X152937Y97358D01*
D02*
G37*
G36*
X107820Y96918D02*
X107390Y96488D01*
X107820Y96058D01*
X107998Y96488D01*
X107820Y96918D01*
D02*
G37*
G36*
X107283Y96382D02*
X106853Y95952D01*
X107283Y95774D01*
X107714Y95952D01*
X107283Y96382D01*
D02*
G37*
G36*
X126000Y95964D02*
Y95700D01*
X126264D01*
X126260Y95733D01*
X126228Y95810D01*
X126177Y95877D01*
X126110Y95928D01*
X126033Y95960D01*
X126000Y95964D01*
D02*
G37*
G36*
X126651Y95600D02*
X126387D01*
X126391Y95567D01*
X126423Y95490D01*
X126474Y95423D01*
X126540Y95372D01*
X126618Y95340D01*
X126651Y95336D01*
Y95600D01*
D02*
G37*
G36*
X126264D02*
X126000D01*
Y95336D01*
X126033Y95340D01*
X126110Y95372D01*
X126177Y95423D01*
X126228Y95490D01*
X126260Y95567D01*
X126264Y95600D01*
D02*
G37*
G36*
X125900D02*
X125636D01*
X125640Y95567D01*
X125672Y95490D01*
X125723Y95423D01*
X125790Y95372D01*
X125867Y95340D01*
X125900Y95336D01*
Y95600D01*
D02*
G37*
G36*
X127015D02*
X126751D01*
Y95336D01*
X126784Y95340D01*
X126861Y95372D01*
X126928Y95423D01*
X126979Y95490D01*
X127011Y95567D01*
X127015Y95600D01*
D02*
G37*
G36*
X125900Y95964D02*
X125867Y95960D01*
X125790Y95928D01*
X125723Y95877D01*
X125672Y95810D01*
X125640Y95733D01*
X125636Y95700D01*
X125900D01*
Y95964D01*
D02*
G37*
G36*
X127764Y95600D02*
X127500D01*
Y95336D01*
X127533Y95340D01*
X127610Y95372D01*
X127677Y95423D01*
X127728Y95490D01*
X127760Y95567D01*
X127764Y95600D01*
D02*
G37*
G36*
X127400D02*
X127136D01*
X127140Y95567D01*
X127172Y95490D01*
X127223Y95423D01*
X127290Y95372D01*
X127367Y95340D01*
X127400Y95336D01*
Y95600D01*
D02*
G37*
G36*
X153965Y101811D02*
X153534Y101381D01*
X153965Y101203D01*
X154395Y101381D01*
X153965Y101811D01*
D02*
G37*
G36*
X120345Y102038D02*
X119025D01*
Y100718D01*
X120345D01*
Y102038D01*
D02*
G37*
G36*
X111024Y100966D02*
X110593Y100788D01*
X111024Y100358D01*
X111454Y100788D01*
X111024Y100966D01*
D02*
G37*
G36*
X140579Y102599D02*
X140149Y102169D01*
X140579Y101990D01*
X141009Y102169D01*
X140579Y102599D01*
D02*
G37*
G36*
X137374Y103032D02*
X137243Y102717D01*
X137374Y102401D01*
X137689Y102717D01*
X137374Y103032D01*
D02*
G37*
G36*
X140043Y103135D02*
X139864Y102705D01*
X140043Y102275D01*
X140473Y102705D01*
X140043Y103135D01*
D02*
G37*
G36*
X137795Y102610D02*
X137480Y102295D01*
X137795Y102165D01*
X138111Y102295D01*
X137795Y102610D01*
D02*
G37*
G36*
X111560Y100682D02*
X111077Y100199D01*
X111024Y100252D01*
X110971Y100199D01*
X110487Y100682D01*
X110400Y100471D01*
X110215Y100395D01*
X109843Y100549D01*
X109412Y100371D01*
X109895Y99888D01*
X110379Y99404D01*
X110466Y99615D01*
X110651Y99692D01*
X111024Y99538D01*
X111378Y99685D01*
X111545Y99573D01*
Y98946D01*
X111545D01*
X111598Y98866D01*
X111490Y98606D01*
X111669Y98176D01*
X112152Y98659D01*
X112205Y98606D01*
X112258Y98659D01*
X112741Y98176D01*
X112919Y98606D01*
X112811Y98866D01*
X112865Y98946D01*
X112865D01*
Y99484D01*
X113031Y99595D01*
X112995Y99610D01*
X112964Y99685D01*
X113280Y100000D01*
X112964Y100315D01*
X112938Y100252D01*
X112865Y100266D01*
Y100266D01*
X112865Y100266D01*
X111732D01*
X111560Y100682D01*
D02*
G37*
G36*
X107426Y99021D02*
X106996Y98591D01*
X107426Y98160D01*
X107604Y98591D01*
X107426Y99021D01*
D02*
G37*
G36*
X152362Y97658D02*
X151894Y97464D01*
X152362Y96996D01*
X152831Y97464D01*
X152362Y97658D01*
D02*
G37*
G36*
X151788Y97358D02*
X151594Y96890D01*
X151788Y96421D01*
X152256Y96890D01*
X151788Y97358D01*
D02*
G37*
G36*
X152944Y101048D02*
X151941Y100632D01*
X151526Y99630D01*
X151941Y98627D01*
X152944Y98212D01*
X153947Y98627D01*
X154362Y99630D01*
X153947Y100632D01*
X152944Y101048D01*
D02*
G37*
G36*
X109306Y100265D02*
X109128Y99835D01*
X109306Y99404D01*
X109736Y99835D01*
X109306Y100265D01*
D02*
G37*
G36*
X109843Y99729D02*
X109412Y99298D01*
X109843Y99120D01*
X110273Y99298D01*
X109843Y99729D01*
D02*
G37*
G36*
X106890Y99305D02*
X106460Y99127D01*
X106890Y98697D01*
X107320Y99127D01*
X106890Y99305D01*
D02*
G37*
%LPD*%
D10*
X126450Y114350D02*
Y114534D01*
X124016Y116968D02*
X126450Y114534D01*
X110368Y116968D02*
X124016D01*
X110000Y116600D02*
X110368Y116968D01*
X116900Y92746D02*
X116929Y94016D01*
X116732Y92913D02*
X116900Y92746D01*
X116097Y94847D02*
X116929Y94016D01*
X129100Y114724D02*
X129600Y115224D01*
Y115562D01*
X129320D02*
X129600D01*
X122550Y105650D02*
X123300Y104900D01*
X116300Y105650D02*
X122550D01*
X115700Y106250D02*
X116300Y105650D01*
X128550Y94928D02*
X129094Y95472D01*
X128550Y93852D02*
Y94928D01*
Y93852D02*
X128701Y93701D01*
X116900Y91924D02*
Y92746D01*
X115906Y90929D02*
X116900Y91924D01*
X116097Y94847D02*
X116900Y95650D01*
X128326D02*
X128701Y95276D01*
X116900Y95650D02*
X128326D01*
X115700Y115300D02*
X116750Y116350D01*
X115700Y106250D02*
Y115300D01*
X129100Y110000D02*
Y114724D01*
Y110000D02*
X129921Y109179D01*
Y107087D02*
Y109179D01*
X115197Y94843D02*
X116097D01*
X124700Y104900D02*
X125650Y105850D01*
X123300Y104900D02*
X124700D01*
X116750Y116350D02*
X121100D01*
X121481Y115969D01*
Y114400D02*
Y115969D01*
X110000Y114650D02*
Y116600D01*
X108750Y113400D02*
X110000Y114650D01*
X108750Y108179D02*
Y113400D01*
Y108179D02*
X109843Y107087D01*
X115906Y89843D02*
X116378Y89370D01*
X115205Y90929D02*
X115906D01*
X115205Y94850D02*
Y94866D01*
X115197Y94843D02*
X115205Y94850D01*
X139370Y95472D02*
X139764Y95079D01*
Y93504D02*
Y95079D01*
X147835Y86811D02*
X148032Y86614D01*
Y86071D02*
Y86614D01*
X115906Y89843D02*
Y90929D01*
X116535Y86929D02*
X116614Y87008D01*
X147835Y86811D02*
Y87402D01*
X116378Y89370D02*
X118110D01*
X129094Y95472D02*
X139370D01*
X104134Y86929D02*
X116535D01*
D11*
X141968Y115354D02*
Y116850D01*
X138976Y112362D02*
X141968Y115354D01*
X126500Y114173D02*
X127559D01*
X102929Y115354D02*
Y116479D01*
X137953Y115394D02*
Y116353D01*
X145969Y109551D02*
Y116850D01*
X149969Y115354D02*
Y116850D01*
X123489Y114400D02*
X126350D01*
X127559Y114173D02*
X129134Y115748D01*
X132283Y106299D02*
Y107598D01*
X145669Y109252D02*
X145969Y109551D01*
X151181Y107480D02*
X152362Y106299D01*
X136614Y111811D02*
Y114961D01*
X145669Y106299D02*
Y109252D01*
X138976Y106299D02*
Y112362D01*
X151181Y107480D02*
Y114142D01*
X104921Y106890D02*
X105512Y106299D01*
X137969Y115354D02*
Y115378D01*
X137953Y115394D02*
X137969Y115378D01*
X102929Y115354D02*
X104921Y113362D01*
X137953Y111102D02*
Y115394D01*
X149969Y115354D02*
X151181Y114142D01*
X104921Y106890D02*
Y113362D01*
X132283Y107598D02*
X137953Y111102D01*
D12*
X133886Y102705D02*
X140579D01*
X146400Y89750D02*
X147252Y88898D01*
X110433Y96102D02*
X111024D01*
X106092Y97102D02*
X106100Y97098D01*
X106116Y97089D01*
X106100Y97094D02*
X106116Y97089D01*
X106073Y97102D02*
X106100Y97094D01*
X105925Y83938D02*
X105955Y83913D01*
X105906Y83954D02*
X105926Y83937D01*
X105906Y83954D02*
X105925Y83938D01*
X105926Y83937D02*
X105952Y83913D01*
X110433Y100252D02*
X112717D01*
X131134Y116850D02*
X132236Y115748D01*
X133858D01*
X97323Y86717D02*
X97362Y86677D01*
X98842Y82700D02*
X99803Y83661D01*
X97339Y82700D02*
X98842D01*
X114213Y88780D02*
X118780D01*
X113701Y89291D02*
X114213Y88780D01*
X118780D02*
X119291Y89291D01*
X109449Y87992D02*
X124213D01*
X107283Y90157D02*
X109449Y87992D01*
X124213D02*
X126181Y89961D01*
X114961Y96457D02*
X129307D01*
X113583Y95079D02*
X114961Y96457D01*
X129307D02*
X129701Y96850D01*
X114488Y96850D02*
X128937D01*
X113150Y95512D02*
X114488Y96850D01*
X128937D02*
X129134Y97047D01*
X143128Y89750D02*
X146400D01*
X142913Y89535D02*
X143128Y89750D01*
X108598Y98591D02*
X109843Y99835D01*
X106890Y98591D02*
X108598D01*
X97323Y100394D02*
X98819D01*
X97323Y104394D02*
X98819D01*
X128346Y80854D02*
Y81496D01*
X132346Y80854D02*
Y81496D01*
X136346Y80854D02*
Y81496D01*
X105709Y97467D02*
Y97976D01*
Y97441D02*
Y97467D01*
X105676Y97500D02*
X105709Y97467D01*
X106050Y97126D01*
X107250Y101900D02*
X107650Y102300D01*
X104147Y101900D02*
X107250D01*
X101378Y104669D02*
X104147Y101900D01*
X107650Y102300D02*
X108000D01*
X119291Y89291D02*
Y90126D01*
X133100Y88400D02*
X135300Y90600D01*
X133100Y88386D02*
Y88400D01*
X132283Y88386D02*
X133100D01*
X132776Y87992D02*
X139843D01*
X140039Y88189D01*
X130413Y85630D02*
X132776Y87992D01*
X135300Y90600D02*
X136568D01*
X137701Y91732D01*
X135772Y91142D02*
X135969Y90945D01*
X121808Y91142D02*
X135772D01*
X140450Y91150D02*
X142150D01*
X138780Y92820D02*
X140450Y91150D01*
X138780Y92820D02*
Y93504D01*
X140166Y91984D02*
X140748D01*
X139173Y92977D02*
X140166Y91984D01*
X139173Y92977D02*
Y94094D01*
X130612Y91850D02*
X131750D01*
X130518Y91756D02*
X130612Y91850D01*
X130049Y91756D02*
X130518D01*
X129955Y91850D02*
X130049Y91756D01*
X122756Y91850D02*
X129955D01*
X132817D02*
X136929D01*
X132723Y91756D02*
X132817Y91850D01*
X131844Y91756D02*
X132723D01*
X131750Y91850D02*
X131844Y91756D01*
X136929Y91850D02*
X137350Y92271D01*
X122638Y91732D02*
X122756Y91850D01*
X143450Y85500D02*
X144550Y86600D01*
X143450Y84001D02*
Y85500D01*
X142323Y82874D02*
X143450Y84001D01*
X144550Y86600D02*
X145600D01*
X146260Y87260D01*
Y88047D01*
X142239Y88189D02*
X143268D01*
X142050Y88000D02*
X142239Y88189D01*
X141035Y88000D02*
X142050D01*
X140039Y88189D02*
X140846D01*
X141035Y88000D01*
X141648Y90748D02*
X142717D01*
X139286Y88386D02*
X141648Y90748D01*
X136465Y88386D02*
X139286D01*
X142150Y91150D02*
X142323Y91323D01*
Y92023D01*
X142450Y92700D02*
X150017D01*
X141732Y93418D02*
X142450Y92700D01*
X141732Y93418D02*
Y98425D01*
X150017Y92700D02*
X150787Y91929D01*
X129589Y89961D02*
X132911D01*
X129315Y90235D02*
X129589Y89961D01*
X129315Y90235D02*
Y90551D01*
X120701Y92249D02*
X121808Y91142D01*
X120701Y92249D02*
Y93701D01*
X142391Y105050D02*
X142520Y104921D01*
X129550Y105050D02*
X142391D01*
X120687Y105100D02*
X122244Y103543D01*
X111990Y105100D02*
X120687D01*
X107480Y100591D02*
X111990Y105100D01*
X109664D02*
X109843Y104921D01*
X103919Y105100D02*
X109664D01*
X103150Y104331D02*
X103919Y105100D01*
X112620Y93250D02*
X113150Y93780D01*
X111789Y93250D02*
X112620D01*
X110551Y94488D02*
X111789Y93250D01*
X104272Y97500D02*
X105676D01*
X136732Y93701D02*
X137350Y93083D01*
Y92271D02*
Y93083D01*
X133283Y90333D02*
Y90551D01*
X132911Y89961D02*
X133283Y90333D01*
X133268Y86024D02*
X133591Y85700D01*
X134900D01*
X135224Y86024D01*
X135827D01*
X142500Y92200D02*
X143300D01*
X142323Y92023D02*
X142500Y92200D01*
X143300D02*
X143504Y91996D01*
Y91732D02*
Y91996D01*
X117244Y98425D02*
X128937D01*
X116900Y111950D02*
X118361D01*
X120811Y114400D01*
X122100Y113650D02*
Y114350D01*
X121950Y113500D02*
X122100Y113650D01*
X120950Y113500D02*
X121950D01*
X120811Y113639D02*
X120950Y113500D01*
X120811Y113639D02*
Y114400D01*
X106050Y97126D02*
X106092Y97102D01*
X106102D01*
X106073D02*
X106092D01*
X105952Y83913D02*
X105955D01*
X105906D02*
X105952D01*
X105970Y83898D01*
X123094Y101772D02*
X128937D01*
X129528Y102362D01*
X122244Y101181D02*
Y103543D01*
X101772Y80472D02*
X101890Y80614D01*
X101378Y80457D02*
X101732D01*
X101772Y80472D01*
X99803Y83661D02*
X101378D01*
X101181Y91929D02*
Y92520D01*
X99929Y90677D02*
X101181Y91929D01*
Y93291D02*
X101772Y93307D01*
X100945Y97976D02*
X101693D01*
X99606Y101181D02*
X100945D01*
X99669Y103543D02*
X100787D01*
X101772Y102559D01*
X100386Y112205D02*
X101378D01*
X100197Y112394D02*
X100386Y112205D01*
X103740Y81496D02*
X103756D01*
Y84921D02*
X104110Y84567D01*
X103756Y84921D02*
Y85236D01*
X102165D02*
X102756D01*
X104110Y84567D02*
X105197D01*
X103953Y89213D02*
X104189Y88976D01*
X103953Y89213D02*
Y89567D01*
X102110Y89315D02*
X102362Y89567D01*
X102953D01*
X102362Y93898D02*
X102913D01*
X102953D01*
X103559Y98213D02*
X104272Y97500D01*
X103559Y98213D02*
Y98228D01*
X102543D02*
X102559D01*
X102520Y98252D02*
X102543Y98228D01*
X105970Y83898D02*
X106850D01*
X107283Y83465D01*
Y82906D02*
Y83465D01*
X105165Y82906D02*
X107283D01*
Y85630D02*
X107756Y86102D01*
X106693Y85630D02*
X107283D01*
X106299Y85236D02*
X106693Y85630D01*
X105906Y85236D02*
X106299D01*
X105472Y88441D02*
X105906D01*
X107087Y89370D02*
X107283Y89567D01*
X106102Y89370D02*
X107087D01*
X106693Y93898D02*
X107283Y94488D01*
X106102Y93898D02*
X106693D01*
X106717Y96488D02*
X107283D01*
X106116Y97089D02*
X106717Y96488D01*
X105709Y97976D02*
X106323Y98591D01*
X106890D01*
X106050Y97126D02*
X106102Y97102D01*
X106050Y97126D02*
X106073Y97102D01*
X106102D02*
X106116Y97089D01*
X106890Y100591D02*
X107480D01*
X106299D02*
X106890D01*
X105709Y101181D02*
X106299Y100591D01*
X105650Y104331D02*
X106673D01*
X106720Y104378D01*
X109843Y93701D02*
X110276D01*
X109843Y95701D02*
X109961D01*
X110000Y99835D02*
X110433Y100268D01*
X109843Y99835D02*
X110000D01*
X110433Y100252D02*
Y100268D01*
X108409Y103543D02*
X109000Y102953D01*
X112205Y90929D02*
X112953D01*
X113701Y90181D01*
X113150Y93780D02*
Y95512D01*
X111654Y96811D02*
X113543D01*
X112969Y100000D02*
X113386D01*
X112717Y100252D02*
X112969Y100000D01*
X112343Y104331D02*
X113366D01*
X112205Y102165D02*
Y102953D01*
X113366Y104331D02*
X113413Y104378D01*
X115205Y93866D02*
Y93937D01*
X114291Y98039D02*
X114724Y97606D01*
X115157D01*
X114331Y97598D02*
X115157D01*
Y97606D02*
X115205D01*
X115165D02*
X115205D01*
X115157Y97598D02*
X115165Y97606D01*
X115157Y97598D02*
Y97606D01*
Y97598D02*
Y97606D01*
Y97598D02*
Y97606D01*
X115165D01*
X114291Y99843D02*
X114646Y100197D01*
X115551Y101378D02*
X116480D01*
X114173Y102756D02*
Y103543D01*
X117614Y100787D02*
X118701Y99701D01*
X122701Y93110D02*
Y93701D01*
X121701Y93157D02*
Y93701D01*
X121654Y93110D02*
X121701Y93157D01*
X122701Y99701D02*
Y101378D01*
X120701Y99701D02*
Y99717D01*
X120709Y99724D01*
X123701Y93425D02*
X124016Y93110D01*
X123701Y93425D02*
Y93701D01*
Y99701D02*
X124787Y100787D01*
X127110Y93110D02*
X127701Y93701D01*
X130701Y93110D02*
Y93701D01*
X129134Y94291D02*
X129724Y94882D01*
X130315Y101575D02*
X130906D01*
X129921Y101181D02*
X130315Y101575D01*
X132346Y81496D02*
X133921Y83071D01*
X134449Y88583D02*
X134843D01*
X133701Y93701D02*
X134291Y93110D01*
X132283Y101575D02*
X133071D01*
X133244Y103346D02*
X133886Y102705D01*
X132421Y104331D02*
X133220D01*
X133268Y104378D02*
X133886D01*
X133220Y104331D02*
X133268Y104378D01*
X132677Y113780D02*
X133480D01*
X134858Y115157D02*
Y115748D01*
X135181Y83071D02*
X135969Y83858D01*
X136346Y81496D02*
X137724Y82874D01*
X135827Y86024D02*
X136827D01*
X135969Y85039D02*
X136843D01*
X137827Y86024D01*
X136827Y89024D02*
Y89551D01*
Y89024D02*
X137827D01*
X135283D02*
X135827D01*
X136465Y88386D01*
X136701Y93701D02*
X136732D01*
X139961Y86402D02*
X140551D01*
X139583Y86024D02*
X139961Y86402D01*
X138827Y86024D02*
X139173Y85669D01*
Y85039D02*
Y85669D01*
X138827Y86024D02*
X139583D01*
X139016Y90472D02*
X139173Y90945D01*
X138386Y94882D02*
X139173Y94094D01*
X139961Y104378D02*
X140579D01*
X139114Y104331D02*
X139913D01*
X139961Y104378D01*
X143268Y88189D02*
X143409Y88047D01*
X142236Y87614D02*
X142717D01*
X141677Y88780D02*
X141732Y88724D01*
X142913Y90945D02*
Y91535D01*
X142717Y90748D02*
X142913Y90945D01*
X141535Y98622D02*
X141732Y98425D01*
X145236Y82205D02*
X146102Y81614D01*
X145236Y82205D02*
Y83780D01*
X146063Y82677D02*
X146654D01*
X144346Y84787D02*
X145276D01*
X144291Y84843D02*
X144346Y84787D01*
X144252Y88898D02*
X145252D01*
X145276Y87992D02*
Y88874D01*
X146252Y88055D02*
Y88898D01*
X145252D02*
X145276Y88874D01*
X146252Y88055D02*
X146260Y88047D01*
X145252Y91898D02*
X146252D01*
X145807Y103937D02*
X146831D01*
X145866Y102705D02*
X146260Y102311D01*
X146878D01*
X146831Y103937D02*
X146878Y103984D01*
X148598Y82323D02*
X149031Y83071D01*
Y86071D02*
Y86598D01*
X147835Y84843D02*
X149031Y86071D01*
X147252Y88898D02*
X147835D01*
X147953Y88780D02*
X148425D01*
X147835Y88898D02*
X147953Y88780D01*
X148228Y90945D02*
X149409Y92126D01*
X152031Y86071D02*
Y86614D01*
X150339Y87992D02*
X150654D01*
X153346Y103591D02*
X153965D01*
X153543Y102756D02*
X154724D01*
X153150Y102362D02*
X153543Y102756D01*
X99669Y86677D02*
X101181Y88189D01*
X99795Y94677D02*
X101181Y96063D01*
Y96496D01*
X100858Y108394D02*
X101378Y107874D01*
X103756Y80906D02*
Y81496D01*
X102165Y80906D02*
X102756D01*
X103150Y104331D02*
Y107087D01*
X105197Y84567D02*
X105906Y83954D01*
X105955Y83913D02*
X105970Y83898D01*
X105906Y83913D02*
X105970Y83898D01*
X105906Y83913D02*
Y83954D01*
X107283Y89567D02*
Y90157D01*
X110354Y96094D02*
X110433D01*
X109961Y95701D02*
X110354Y96094D01*
X109055Y96488D02*
X109843Y95701D01*
X110354Y96094D02*
X110433Y96102D01*
Y96094D02*
Y96102D01*
X109843Y104921D02*
Y107087D01*
X113701Y89291D02*
Y90181D01*
X113583Y92913D02*
Y95079D01*
X112205Y102165D02*
X113583Y100787D01*
X115197Y92913D02*
X115929D01*
X114181D02*
X115205Y93937D01*
X114291Y98039D02*
Y99843D01*
X114173Y102756D02*
X115551Y101378D01*
X122654Y92520D02*
Y93063D01*
X121654Y92520D02*
Y93110D01*
X122654Y93063D02*
X122701Y93110D01*
X124016Y92520D02*
Y93110D01*
X125016Y92520D02*
X125606Y93110D01*
X128016Y99016D02*
X128701Y99701D01*
X130283Y92323D02*
Y92913D01*
X130504D01*
X130701Y93110D01*
X131701Y92906D02*
Y93701D01*
X133071Y101575D02*
X133465Y101968D01*
X133480Y113780D02*
X134858Y115157D01*
X137701Y91732D02*
Y93701D01*
X135827Y89961D02*
X136417D01*
X136827Y89551D01*
X139173Y83858D02*
Y85039D01*
X139016Y89921D02*
Y90472D01*
X139031Y89937D02*
Y89961D01*
X139016Y89921D02*
X139031Y89937D01*
X145236Y83780D02*
X146260Y84843D01*
X149031Y86598D02*
X149835Y87402D01*
X147252Y85835D02*
Y88898D01*
X148032Y101181D02*
X149213Y102362D01*
X150630Y81614D02*
X151575Y80709D01*
X152575D02*
Y81496D01*
X150787Y89252D02*
Y91929D01*
X150654Y87992D02*
X152031Y86614D01*
X129701Y96850D02*
Y99701D01*
X103756Y81496D02*
X105165Y82906D01*
X101913Y84984D02*
X102165Y85236D01*
X101181Y84984D02*
X101913D01*
X97362Y86677D02*
X99669D01*
X104937Y88976D02*
X105472Y88441D01*
X104189Y88976D02*
X104937D01*
X101181Y89315D02*
X102110D01*
X97362Y90677D02*
X99929D01*
X101772Y93307D02*
X102362Y93898D01*
X97362Y94677D02*
X99795D01*
X107283Y96488D02*
X109055D01*
X101693Y97976D02*
X101968Y98252D01*
Y98228D02*
Y98252D01*
X102520D01*
X98819Y100394D02*
X99606Y101181D01*
X98819Y104394D02*
X99669Y103543D01*
X107480D02*
X108409D01*
X97323Y108394D02*
X100858D01*
X97323Y112394D02*
X100197D01*
X112992Y91732D02*
X114016D01*
X113543Y96811D02*
X114331Y97598D01*
X111024Y97047D02*
X111654Y96811D01*
X111024Y96102D02*
Y96118D01*
X114646Y100197D02*
X117008D01*
X113583Y100787D02*
X117614D01*
X121654Y85630D02*
X130413D01*
X125606Y93110D02*
X127110D01*
X123228Y101181D02*
X129921D01*
X125701Y99701D02*
X126394Y100394D01*
X122701Y101378D02*
X123094Y101772D01*
X124787Y100787D02*
X131496D01*
X132283Y101575D01*
X129185Y103346D02*
X133244D01*
X139173Y83858D02*
X140929D01*
X140945Y83843D02*
X141535D01*
X133921Y83071D02*
X135181D01*
X137724Y82874D02*
X142323D01*
X140929Y83858D02*
X140945Y83843D01*
X140551Y86402D02*
X141024D01*
X140748Y88780D02*
X141677D01*
X143409Y88047D02*
X144291D01*
X134843Y88583D02*
X135283Y89024D01*
X143504Y91732D02*
X144291Y90945D01*
X134252Y94291D02*
X137992D01*
X134291Y93110D02*
X135055D01*
X137992Y94291D02*
X138780Y93504D01*
X137205Y98622D02*
X141535D01*
X134449Y100394D02*
X135236Y101181D01*
X146102Y81614D02*
X150630D01*
X147008Y82323D02*
X148598D01*
X146654Y82677D02*
X147008Y82323D01*
X153032Y81953D02*
Y83071D01*
X152575Y81496D02*
X153032Y81953D01*
X146260Y84843D02*
X147835D01*
X146260D02*
X147252Y85835D01*
X149409Y88921D02*
X150339Y87992D01*
X153000Y103937D02*
X153346Y103591D01*
X152500Y103937D02*
X153000D01*
X152417Y102362D02*
X153150D01*
X101772Y80472D02*
X102165Y80906D01*
X114016Y91732D02*
X115197Y92913D01*
X111024D02*
X113583D01*
X114181D01*
X110276Y93701D02*
X111024Y92953D01*
Y92913D02*
Y92953D01*
X117008Y100197D02*
X118189Y99016D01*
X128346Y81496D02*
X131890Y85039D01*
X131701Y92906D02*
X132283Y92323D01*
X130000Y86102D02*
X132283Y88386D01*
X135055Y93110D02*
X135646Y92520D01*
X141024Y86402D02*
X142236Y87614D01*
X150787Y89252D02*
X153032Y87008D01*
Y86071D02*
Y87008D01*
X134047Y97047D02*
X136701Y99701D01*
X107756Y86102D02*
X130000D01*
X131890Y85039D02*
X135969D01*
X144291Y90945D02*
X148228D01*
X107283Y94488D02*
X110551D01*
X129724Y94882D02*
X138386D01*
X131299Y97047D02*
X134047D01*
X126394Y100394D02*
X134449D01*
X135236Y101181D02*
X148032D01*
X140579Y102705D02*
X145866D01*
X118189Y99016D02*
X128016D01*
X133465Y101968D02*
X135827D01*
D13*
X128250Y103750D02*
X129550Y105050D01*
X125250Y102950D02*
X128789D01*
X124650Y102350D02*
X125250Y102950D01*
X123800Y102350D02*
X124650D01*
X128789Y102950D02*
X129185Y103346D01*
X125151Y103750D02*
X128250D01*
X124701Y103300D02*
X125151Y103750D01*
D14*
X143307Y105512D02*
Y107087D01*
Y103937D02*
Y105512D01*
X136614D02*
X143307D01*
X149606D02*
X150000Y105906D01*
Y107087D01*
X149606Y105512D02*
X150000Y105118D01*
Y103937D02*
Y105118D01*
X129921Y105512D02*
X136614D01*
X143307D02*
X149606D01*
D15*
X120811Y114400D02*
D03*
X121481D02*
D03*
X122150D02*
D03*
X122819D02*
D03*
D16*
X123489D02*
D03*
D17*
X116900Y111950D02*
D03*
D18*
X122806D02*
D03*
D19*
X126450Y111900D02*
D03*
Y109144D02*
D03*
X123681Y105850D02*
D03*
X125650D02*
D03*
X133874Y100984D02*
D03*
X101378Y80457D02*
D03*
X101181Y89315D02*
D03*
X101150Y93445D02*
D03*
X101378Y104669D02*
D03*
X100945Y97976D02*
D03*
X106102Y92575D02*
D03*
Y97102D02*
D03*
X109843Y91173D02*
D03*
Y95701D02*
D03*
X125016Y92520D02*
D03*
X132900Y89355D02*
D03*
X142913Y89535D02*
D03*
X141732Y88724D02*
D03*
X148425Y91984D02*
D03*
X154724Y102756D02*
D03*
X153965Y103591D02*
D03*
Y101917D02*
D03*
X101181Y84984D02*
D03*
X109843Y99835D02*
D03*
X142717Y87614D02*
D03*
X145276Y84787D02*
D03*
X104976Y102559D02*
D03*
X105650Y104331D02*
D03*
X116480Y101378D02*
D03*
X130283Y92323D02*
D03*
X135969Y85039D02*
D03*
X135995Y91200D02*
D03*
X105906Y83913D02*
D03*
X103756Y80906D02*
D03*
X104756D02*
D03*
X102756Y83906D02*
D03*
X103756D02*
D03*
X104756D02*
D03*
X107283Y96488D02*
D03*
Y92157D02*
D03*
X103953Y89567D02*
D03*
X104953D02*
D03*
X102953Y92567D02*
D03*
X103953D02*
D03*
X104953D02*
D03*
X105600Y97995D02*
D03*
X106890Y98591D02*
D03*
X107480Y103543D02*
D03*
X106720Y104378D02*
D03*
Y102705D02*
D03*
X103559Y98228D02*
D03*
X104559D02*
D03*
X102559Y101228D02*
D03*
X103559D02*
D03*
X104559D02*
D03*
X111220Y91787D02*
D03*
X111024Y96118D02*
D03*
X118110Y92575D02*
D03*
X112205Y94866D02*
D03*
Y93866D02*
D03*
X115205Y95866D02*
D03*
Y94866D02*
D03*
Y93866D02*
D03*
X112205Y90929D02*
D03*
Y89929D02*
D03*
X115205Y91929D02*
D03*
Y90929D02*
D03*
Y89929D02*
D03*
X116050Y92900D02*
D03*
X119291Y90126D02*
D03*
X114173Y103543D02*
D03*
X113413Y104378D02*
D03*
Y102705D02*
D03*
X127378Y92520D02*
D03*
X129315Y90551D02*
D03*
X131950Y86145D02*
D03*
X132732Y102362D02*
D03*
X132421Y104331D02*
D03*
X135969Y83858D02*
D03*
X136646Y92520D02*
D03*
X135646D02*
D03*
X134646D02*
D03*
X140764Y93504D02*
D03*
X139031Y89961D02*
D03*
X140748Y91984D02*
D03*
X134449Y86583D02*
D03*
X136827Y86024D02*
D03*
X137827D02*
D03*
X138827D02*
D03*
X135827Y89024D02*
D03*
X136827D02*
D03*
X137827D02*
D03*
X138827D02*
D03*
X140551Y86402D02*
D03*
X139031Y101968D02*
D03*
X139114Y104331D02*
D03*
X141339Y103543D02*
D03*
X140579Y104378D02*
D03*
Y102705D02*
D03*
X152575Y80709D02*
D03*
X150213D02*
D03*
X147850D02*
D03*
X149409Y88921D02*
D03*
X149835Y87402D02*
D03*
X152500Y103937D02*
D03*
X147638Y103150D02*
D03*
X146878Y103984D02*
D03*
Y102311D02*
D03*
X152417Y102362D02*
D03*
X105906Y88441D02*
D03*
X103756Y85236D02*
D03*
X104756D02*
D03*
X102756Y88236D02*
D03*
X103756D02*
D03*
X104756D02*
D03*
X103953Y93898D02*
D03*
X104953D02*
D03*
X102953Y96898D02*
D03*
X103953D02*
D03*
X104953D02*
D03*
X101378Y109000D02*
D03*
X111024Y100252D02*
D03*
X123800Y102350D02*
D03*
X112205Y98606D02*
D03*
Y97606D02*
D03*
X115205Y99606D02*
D03*
Y98606D02*
D03*
Y97606D02*
D03*
X144291Y88047D02*
D03*
X141535Y83843D02*
D03*
X149031Y83071D02*
D03*
X150031D02*
D03*
X151032D02*
D03*
X152031D02*
D03*
X153032D02*
D03*
X154031D02*
D03*
X148032Y86071D02*
D03*
X149031D02*
D03*
X150031D02*
D03*
X151032D02*
D03*
X152031D02*
D03*
X153032D02*
D03*
X154031D02*
D03*
X155031D02*
D03*
Y83071D02*
D03*
X146260Y88047D02*
D03*
X107283Y82906D02*
D03*
X134858Y84252D02*
D03*
X146063Y83677D02*
D03*
X122654Y92520D02*
D03*
X133283Y90551D02*
D03*
X145250Y89000D02*
D03*
X146250D02*
D03*
X147250D02*
D03*
X144250Y92000D02*
D03*
X145250D02*
D03*
X146250D02*
D03*
X147250D02*
D03*
X109000Y102953D02*
D03*
X112343Y104331D02*
D03*
X145724Y101968D02*
D03*
X134646Y103543D02*
D03*
X133886Y104378D02*
D03*
Y102705D02*
D03*
X145807Y103937D02*
D03*
X134858Y115748D02*
D03*
X126500Y116750D02*
D03*
X135882Y113780D02*
D03*
X107283Y87630D02*
D03*
X119701Y93701D02*
D03*
X120701D02*
D03*
X121701D02*
D03*
X122701D02*
D03*
X123701D02*
D03*
X124701D02*
D03*
X125701D02*
D03*
X118701Y99701D02*
D03*
X119701D02*
D03*
X120701D02*
D03*
X121701D02*
D03*
X122701D02*
D03*
X123701D02*
D03*
X124701D02*
D03*
X125701D02*
D03*
X126701Y93701D02*
D03*
X127701D02*
D03*
X126701Y99701D02*
D03*
X127701D02*
D03*
X128701Y93701D02*
D03*
X129701D02*
D03*
X130701D02*
D03*
X131701D02*
D03*
X132701D02*
D03*
X133701D02*
D03*
X134701D02*
D03*
X135701D02*
D03*
X136701D02*
D03*
X128701Y99701D02*
D03*
X129701D02*
D03*
X130701D02*
D03*
X131701D02*
D03*
X132701D02*
D03*
X133701D02*
D03*
X134701D02*
D03*
X135701D02*
D03*
X136701D02*
D03*
X137701Y93701D02*
D03*
Y99701D02*
D03*
D20*
X102953Y116890D02*
D03*
X104953D02*
D03*
X106968D02*
D03*
X108968D02*
D03*
X129921Y107087D02*
D03*
Y111811D02*
D03*
X132283Y106299D02*
D03*
X134646Y107087D02*
D03*
Y111811D02*
D03*
X129134Y116850D02*
D03*
X131134D02*
D03*
X97323Y96717D02*
D03*
Y94717D02*
D03*
Y92717D02*
D03*
Y90717D02*
D03*
Y88717D02*
D03*
Y86717D02*
D03*
Y84717D02*
D03*
Y82717D02*
D03*
X103150Y107087D02*
D03*
Y111811D02*
D03*
X105512Y106299D02*
D03*
X107874Y107087D02*
D03*
Y111811D02*
D03*
X136614Y107087D02*
D03*
Y111811D02*
D03*
X138976Y106299D02*
D03*
X141339Y107087D02*
D03*
Y111811D02*
D03*
X150000Y107087D02*
D03*
Y111811D02*
D03*
X152362Y106299D02*
D03*
X154724Y107087D02*
D03*
Y111811D02*
D03*
X97323Y114394D02*
D03*
Y112394D02*
D03*
Y110394D02*
D03*
Y108394D02*
D03*
Y106394D02*
D03*
Y104394D02*
D03*
Y102394D02*
D03*
Y100394D02*
D03*
X142346Y80394D02*
D03*
X140346D02*
D03*
X138346D02*
D03*
X136346D02*
D03*
X134346D02*
D03*
X132346D02*
D03*
X130346D02*
D03*
X128346D02*
D03*
X109843Y107087D02*
D03*
Y111811D02*
D03*
X112205Y106299D02*
D03*
X114567Y107087D02*
D03*
Y111811D02*
D03*
X143307Y107087D02*
D03*
Y111811D02*
D03*
X145669Y106299D02*
D03*
X148032Y107087D02*
D03*
Y111811D02*
D03*
X138008Y116850D02*
D03*
X140008D02*
D03*
X142008D02*
D03*
X144008D02*
D03*
X146008D02*
D03*
X148008D02*
D03*
X150008D02*
D03*
X152008D02*
D03*
D21*
X132874Y100984D02*
D03*
X124016Y92520D02*
D03*
X101772Y102559D02*
D03*
X103150Y104331D02*
D03*
X119685Y101378D02*
D03*
X132283Y92323D02*
D03*
X139173Y85039D02*
D03*
X139200Y91200D02*
D03*
X112205Y95866D02*
D03*
Y91929D02*
D03*
X117050Y92900D02*
D03*
X126378Y92520D02*
D03*
X130315Y90551D02*
D03*
X129528Y102362D02*
D03*
X129921Y104331D02*
D03*
X139173Y83858D02*
D03*
X139764Y93504D02*
D03*
X135827Y89961D02*
D03*
Y101968D02*
D03*
X136614Y104331D02*
D03*
X151575Y80709D02*
D03*
X149213D02*
D03*
X146850D02*
D03*
X147835Y87402D02*
D03*
X150000Y103937D02*
D03*
X149213Y102362D02*
D03*
X125800Y102350D02*
D03*
X112205Y99606D02*
D03*
X133858Y84252D02*
D03*
X121654Y92520D02*
D03*
X132283Y90551D02*
D03*
X112205Y102953D02*
D03*
X109843Y104331D02*
D03*
X142520Y101968D02*
D03*
X143307Y103937D02*
D03*
X132677Y113780D02*
D03*
D22*
X101378Y83661D02*
D03*
X101181Y92520D02*
D03*
X101150Y96650D02*
D03*
X101378Y107874D02*
D03*
X100945Y101181D02*
D03*
X106102Y89370D02*
D03*
Y93898D02*
D03*
X109843Y89173D02*
D03*
Y93701D02*
D03*
X132900Y86150D02*
D03*
X142913Y91535D02*
D03*
X141732Y91929D02*
D03*
X148425Y88780D02*
D03*
X101181Y88189D02*
D03*
X109843Y97835D02*
D03*
X142717Y86614D02*
D03*
X145276Y87992D02*
D03*
X105906Y80709D02*
D03*
X102756Y80906D02*
D03*
X107283Y94488D02*
D03*
Y90157D02*
D03*
X102953Y89567D02*
D03*
X105600Y101200D02*
D03*
X106890Y100591D02*
D03*
X102559Y98228D02*
D03*
X111220Y88583D02*
D03*
X111024Y92913D02*
D03*
X118110Y89370D02*
D03*
X119291Y92126D02*
D03*
X131950Y89350D02*
D03*
X140748Y88780D02*
D03*
X134449Y88583D02*
D03*
X135827Y86024D02*
D03*
X140551Y87402D02*
D03*
X149409Y92126D02*
D03*
X105906Y85236D02*
D03*
X102756D02*
D03*
X102953Y93898D02*
D03*
X101378Y112205D02*
D03*
X111024Y97047D02*
D03*
X144291Y84843D02*
D03*
X141535D02*
D03*
X148032Y83071D02*
D03*
X146260Y84843D02*
D03*
X107283Y80906D02*
D03*
X146063Y82677D02*
D03*
X144250Y89000D02*
D03*
X133858Y115748D02*
D03*
X126500Y114250D02*
D03*
X107283Y85630D02*
D03*
X118701Y93701D02*
D03*
D23*
X154724Y80315D02*
D03*
Y116929D02*
D03*
X97244Y80315D02*
D03*
Y116929D02*
D03*
D24*
X152944Y89790D02*
D03*
Y99630D02*
D03*
D25*
X152362Y94710D02*
D03*
Y93620D02*
D03*
Y95800D02*
D03*
Y96890D02*
D03*
X153486Y93080D02*
D03*
Y94170D02*
D03*
Y95260D02*
D03*
Y96350D02*
D03*
D26*
X152362Y92530D02*
D03*
D27*
X109740Y109740D02*
D03*
X107880Y110050D02*
D03*
X103850Y115940D02*
D03*
X101680Y114700D02*
D03*
X132680Y83700D02*
D03*
X123070Y83390D02*
D03*
X125240Y87110D02*
D03*
X124310D02*
D03*
X126790Y81530D02*
D03*
X125860D02*
D03*
Y82460D02*
D03*
X126790D02*
D03*
X125240Y88040D02*
D03*
X123070Y84320D02*
D03*
X119040D02*
D03*
X117180Y108810D02*
D03*
X118110D02*
D03*
X119040D02*
D03*
X119970D02*
D03*
Y109740D02*
D03*
X119040D02*
D03*
X118110D02*
D03*
X117180D02*
D03*
X126790Y80600D02*
D03*
X113460Y84320D02*
D03*
X117180Y106950D02*
D03*
X118110D02*
D03*
X119040D02*
D03*
X119970D02*
D03*
Y107880D02*
D03*
X119040D02*
D03*
X118110D02*
D03*
X117180D02*
D03*
X119040Y83390D02*
D03*
X113460Y82460D02*
D03*
X114390D02*
D03*
X115320D02*
D03*
X116250D02*
D03*
X117180D02*
D03*
X119970Y110980D02*
D03*
X119040D02*
D03*
X118110D02*
D03*
X113460Y83390D02*
D03*
X108810D02*
D03*
X109740D02*
D03*
X110670D02*
D03*
X111600D02*
D03*
X112530D02*
D03*
Y82460D02*
D03*
X111600D02*
D03*
X110670D02*
D03*
X109740D02*
D03*
X108810D02*
D03*
X114390Y83390D02*
D03*
X115320D02*
D03*
X116250D02*
D03*
X117180D02*
D03*
X118110D02*
D03*
X112530Y84320D02*
D03*
X111600D02*
D03*
X110670D02*
D03*
X109740D02*
D03*
X108810D02*
D03*
X122140Y80600D02*
D03*
X123070D02*
D03*
X124000D02*
D03*
X124930D02*
D03*
X125860D02*
D03*
X118110Y84320D02*
D03*
X117180D02*
D03*
X116250D02*
D03*
X115320D02*
D03*
X114390D02*
D03*
X124930Y82460D02*
D03*
X124000D02*
D03*
X123070D02*
D03*
X122140D02*
D03*
X121210D02*
D03*
Y81530D02*
D03*
X122140D02*
D03*
X123070D02*
D03*
X124000D02*
D03*
X124930D02*
D03*
X112530Y114700D02*
D03*
X113460D02*
D03*
X114390D02*
D03*
Y113770D02*
D03*
X113460D02*
D03*
X131440Y109430D02*
D03*
X132370D02*
D03*
X133300D02*
D03*
X114390Y115630D02*
D03*
X113460D02*
D03*
X112530D02*
D03*
X111600D02*
D03*
X134230Y110360D02*
D03*
X133300D02*
D03*
X132370D02*
D03*
X131440D02*
D03*
X146630Y98270D02*
D03*
X147560D02*
D03*
X148490D02*
D03*
X149420D02*
D03*
X150350D02*
D03*
Y99200D02*
D03*
X149420D02*
D03*
X148490D02*
D03*
X147560D02*
D03*
X146630D02*
D03*
Y96410D02*
D03*
X147560D02*
D03*
X148490D02*
D03*
X149420D02*
D03*
X150350D02*
D03*
Y97340D02*
D03*
X149420D02*
D03*
X148490D02*
D03*
X147560D02*
D03*
X146630D02*
D03*
Y94550D02*
D03*
X147560D02*
D03*
X148490D02*
D03*
X149420D02*
D03*
X150350D02*
D03*
Y95480D02*
D03*
X149420D02*
D03*
X148490D02*
D03*
X147560D02*
D03*
X146630D02*
D03*
X143840Y98270D02*
D03*
X144770D02*
D03*
X145700D02*
D03*
Y99200D02*
D03*
X144770D02*
D03*
X143840D02*
D03*
Y96410D02*
D03*
X144770D02*
D03*
X145700D02*
D03*
Y97340D02*
D03*
X144770D02*
D03*
X143840D02*
D03*
Y94550D02*
D03*
X144770D02*
D03*
X145700D02*
D03*
Y95480D02*
D03*
X144770D02*
D03*
X143840D02*
D03*
X119040Y112840D02*
D03*
X118110D02*
D03*
X121830Y107880D02*
D03*
X122760D02*
D03*
X124000Y83390D02*
D03*
Y84320D02*
D03*
X122760Y106950D02*
D03*
X121830D02*
D03*
X119040Y111910D02*
D03*
X119970D02*
D03*
X120900Y108810D02*
D03*
X122760Y109740D02*
D03*
X121830D02*
D03*
X117180Y113770D02*
D03*
X118110D02*
D03*
Y114700D02*
D03*
X117180D02*
D03*
X121830Y108810D02*
D03*
X122760D02*
D03*
X120900Y109740D02*
D03*
Y106950D02*
D03*
Y107880D02*
D03*
X128340Y105400D02*
D03*
Y107260D02*
D03*
Y106330D02*
D03*
X119040Y114700D02*
D03*
X119970D02*
D03*
X113460Y108810D02*
D03*
X114390D02*
D03*
X128340Y108190D02*
D03*
X119970Y113770D02*
D03*
X119040D02*
D03*
X113460Y90210D02*
D03*
Y89280D02*
D03*
X121830Y110980D02*
D03*
X120900D02*
D03*
X112530Y109740D02*
D03*
X118110Y82460D02*
D03*
X120280Y81530D02*
D03*
X119350Y80600D02*
D03*
X120280D02*
D03*
X121210D02*
D03*
X114390Y110670D02*
D03*
X113460D02*
D03*
X112530D02*
D03*
X111600D02*
D03*
X120900Y111910D02*
D03*
X119970Y112840D02*
D03*
X120900D02*
D03*
X113460Y109740D02*
D03*
X114390D02*
D03*
X129580Y84320D02*
D03*
X130820Y82770D02*
D03*
X123690Y109740D02*
D03*
X122140Y83390D02*
D03*
X127720Y82460D02*
D03*
X131750Y82770D02*
D03*
X113460Y107880D02*
D03*
X129890Y81840D02*
D03*
X130820D02*
D03*
X128650Y83390D02*
D03*
X127720D02*
D03*
X126790D02*
D03*
X125860D02*
D03*
X124930D02*
D03*
Y84320D02*
D03*
X125860D02*
D03*
X126790D02*
D03*
X127720D02*
D03*
X128650D02*
D03*
X108000Y102300D02*
D03*
X127450Y95650D02*
D03*
X125950D02*
D03*
X126701D02*
D03*
X129134Y94291D02*
D03*
X117244Y98425D02*
D03*
X124701Y103300D02*
D03*
X129185Y103346D02*
D03*
X112992Y91732D02*
D03*
X113386Y100000D02*
D03*
X121654Y85630D02*
D03*
X122638Y91732D02*
D03*
X122244Y101181D02*
D03*
X131299Y97047D02*
D03*
X130906Y101575D02*
D03*
X129921Y105512D02*
D03*
X134252Y94291D02*
D03*
X137205Y98622D02*
D03*
X136614Y105512D02*
D03*
Y114961D02*
D03*
X104134Y86929D02*
D03*
X109843Y104921D02*
D03*
X116614Y87008D02*
D03*
X142520Y104921D02*
D03*
X129134Y97047D02*
D03*
X128937Y98425D02*
D03*
X123228Y101181D02*
D03*
X137795Y102717D02*
D03*
X126181Y89961D02*
D03*
M02*
