%FSLAX24Y24*%
%MOIN*%
G70*
G01*
G75*
%ADD10C,0.0300*%
%ADD11C,0.0394*%
%ADD12C,0.0197*%
%ADD13C,0.0200*%
%ADD14C,0.0295*%
%ADD15O,0.0551X0.0850*%
%ADD16R,0.0551X0.0850*%
%ADD17C,0.0984*%
%ADD18O,0.1004X0.0984*%
%ADD19C,0.0700*%
%ADD20C,0.0866*%
%ADD21R,0.0700X0.0700*%
%ADD22R,0.0700X0.0700*%
%ADD23C,0.1969*%
%ADD24C,0.2000*%
%ADD25C,0.0800*%
%ADD26R,0.0800X0.0800*%
%ADD27C,0.0400*%
%ADD28R,0.0394X0.0394*%
%ADD29C,0.0400*%
%ADD30C,0.0098*%
%ADD31C,0.0079*%
%ADD32C,0.0100*%
%ADD33C,0.0138*%
%ADD34C,0.0080*%
G36*
X104100Y103931D02*
X103650D01*
Y104731D01*
X104100D01*
Y103931D01*
D02*
G37*
G36*
X150950Y103537D02*
X150500D01*
Y104337D01*
X150950D01*
Y103537D01*
D02*
G37*
G36*
X144257D02*
X143807D01*
Y104337D01*
X144257D01*
Y103537D01*
D02*
G37*
G36*
X137564Y103931D02*
X137114D01*
Y104731D01*
X137564D01*
Y103931D01*
D02*
G37*
G36*
X130871D02*
X130421D01*
Y104731D01*
X130871D01*
Y103931D01*
D02*
G37*
G36*
X110793D02*
X110343D01*
Y104731D01*
X110793D01*
Y103931D01*
D02*
G37*
D30*
X124030Y114971D02*
G03*
X124030Y114971I-49J0D01*
G01*
X118140Y111645D02*
Y112974D01*
X121600D01*
Y110926D02*
Y112974D01*
X118140Y110926D02*
X121600D01*
X118140D02*
Y111645D01*
X120788Y110926D02*
Y112974D01*
X121630Y111950D02*
X122410D01*
X117331Y111960D02*
X118130D01*
X124490Y112490D02*
X128420D01*
X124490Y108540D02*
Y112490D01*
Y108540D02*
X128420D01*
Y112490D01*
X127270Y105620D02*
Y106020D01*
X127070Y105820D02*
X127470D01*
X102457Y116000D02*
Y117811D01*
X105449D01*
Y116000D02*
Y117811D01*
X102457Y116000D02*
X105449D01*
X106472D02*
Y117811D01*
X109465D01*
Y116000D02*
Y117811D01*
X106472Y116000D02*
X109465D01*
X128638Y115961D02*
Y117772D01*
X131630D01*
Y115961D02*
Y117772D01*
X128638Y115961D02*
X131630D01*
X137122Y92039D02*
Y92984D01*
X134169D02*
X137122D01*
X134169Y92039D02*
X137122D01*
X134169D02*
Y92984D01*
D31*
X128419Y110522D02*
G03*
X128419Y110522I-1969J0D01*
G01*
X126831Y105850D02*
G03*
X126831Y105850I-2165J0D01*
G01*
X120063Y113298D02*
Y115227D01*
X124237Y113298D02*
Y115227D01*
X120063D02*
X124237D01*
X120063Y113298D02*
X124237D01*
X120063Y113494D02*
X124237D01*
X117758Y110520D02*
Y111032D01*
X117502D01*
X117417Y110947D01*
Y110606D01*
X117502Y110520D01*
X117758D01*
X116906D02*
X117247D01*
Y110776D01*
X117076D01*
X117247D01*
Y111032D01*
X127400Y108212D02*
Y107700D01*
X127741D01*
X128253Y108212D02*
X127912D01*
Y107956D01*
X128082D01*
X127912D01*
Y107700D01*
X122091Y107976D02*
X122006Y108062D01*
X121835D01*
X121750Y107976D01*
Y107635D01*
X121835Y107550D01*
X122006D01*
X122091Y107635D01*
X122603Y108062D02*
X122262D01*
Y107806D01*
X122432D01*
X122262D01*
Y107550D01*
X123114D02*
X122773D01*
X123114Y107891D01*
Y107976D01*
X123029Y108062D01*
X122859D01*
X122773Y107976D01*
D32*
X110443Y91373D02*
G03*
X109243Y91373I-600J0D01*
G01*
Y88973D02*
G03*
X110443Y88973I600J0D01*
G01*
Y95901D02*
G03*
X109243Y95901I-600J0D01*
G01*
Y93501D02*
G03*
X110443Y93501I600J0D01*
G01*
X142313Y89335D02*
G03*
X143513Y89335I600J0D01*
G01*
Y91735D02*
G03*
X142313Y91735I-600J0D01*
G01*
X153549Y101266D02*
G03*
X153477Y104235I175J1490D01*
G01*
X110443Y100035D02*
G03*
X109243Y100035I-600J0D01*
G01*
Y97635D02*
G03*
X110443Y97635I600J0D01*
G01*
X143717Y87114D02*
G03*
X143717Y87114I-1000J0D01*
G01*
X130083Y92923D02*
G03*
X130083Y91723I0J-600D01*
G01*
X132483D02*
G03*
X132483Y92923I0J600D01*
G01*
X102256Y82006D02*
G03*
X102256Y82806I0J400D01*
G01*
X107883Y96688D02*
G03*
X106683Y96688I-600J0D01*
G01*
Y94288D02*
G03*
X107883Y94288I600J0D01*
G01*
Y92357D02*
G03*
X106683Y92357I-600J0D01*
G01*
Y89957D02*
G03*
X107883Y89957I600J0D01*
G01*
X102453Y90667D02*
G03*
X102453Y91467I0J400D01*
G01*
X106290Y98391D02*
G03*
X107490Y98391I600J0D01*
G01*
Y100791D02*
G03*
X106290Y100791I-600J0D01*
G01*
X106305Y102054D02*
G03*
X106233Y105023I175J1490D01*
G01*
X102059Y99328D02*
G03*
X102059Y100128I0J400D01*
G01*
X113305Y96366D02*
G03*
X114105Y96366I400J0D01*
G01*
X113305Y92429D02*
G03*
X114105Y92429I400J0D01*
G01*
X117550Y92900D02*
G03*
X117550Y92900I-1000J0D01*
G01*
X118691Y89926D02*
G03*
X119891Y89926I600J0D01*
G01*
Y92326D02*
G03*
X118691Y92326I-600J0D01*
G01*
X112998Y102054D02*
G03*
X112926Y105023I175J1490D01*
G01*
X129115Y91151D02*
G03*
X129115Y89951I0J-600D01*
G01*
X130515D02*
G03*
X130515Y91151I0J600D01*
G01*
X141264Y93504D02*
G03*
X141264Y93504I-1000J0D01*
G01*
X133849Y86383D02*
G03*
X135049Y86383I600J0D01*
G01*
Y88783D02*
G03*
X133849Y88783I-600J0D01*
G01*
X135327Y87124D02*
G03*
X135327Y87924I0J400D01*
G01*
X141551Y86902D02*
G03*
X141551Y86902I-1000J0D01*
G01*
X140164Y102054D02*
G03*
X140091Y105023I175J1490D01*
G01*
X153075Y80709D02*
G03*
X153075Y80709I-1000J0D01*
G01*
X150713D02*
G03*
X150713Y80709I-1000J0D01*
G01*
X148350D02*
G03*
X148350Y80709I-1000J0D01*
G01*
X150035Y86802D02*
G03*
X150035Y88002I0J600D01*
G01*
X147635D02*
G03*
X147635Y86802I0J-600D01*
G01*
X146463Y101660D02*
G03*
X146390Y104629I175J1490D01*
G01*
X102256Y86336D02*
G03*
X102256Y87136I0J400D01*
G01*
X102453Y94998D02*
G03*
X102453Y95798I0J400D01*
G01*
X123600Y102950D02*
G03*
X123600Y101750I0J-600D01*
G01*
X126000D02*
G03*
X126000Y102950I0J600D01*
G01*
X113305Y100106D02*
G03*
X114105Y100106I400J0D01*
G01*
X142535Y84343D02*
G03*
X142535Y84343I-1000J0D01*
G01*
X147531Y84171D02*
G03*
X147531Y84971I0J400D01*
G01*
X107883Y83106D02*
G03*
X106683Y83106I-600J0D01*
G01*
Y80706D02*
G03*
X107883Y80706I600J0D01*
G01*
X135358Y84252D02*
G03*
X135358Y84252I-1000J0D01*
G01*
X147063Y83177D02*
G03*
X147063Y83177I-1000J0D01*
G01*
X133483Y89951D02*
G03*
X133483Y91151I0J600D01*
G01*
X132083D02*
G03*
X132083Y89951I0J-600D01*
G01*
X143750Y90100D02*
G03*
X143750Y90900I0J400D01*
G01*
X133471Y102054D02*
G03*
X133398Y105023I175J1490D01*
G01*
X133360Y114996D02*
G03*
X133360Y116500I998J752D01*
G01*
X128250Y115500D02*
G03*
X128250Y115500I-1750J0D01*
G01*
X107883Y87830D02*
G03*
X106683Y87830I-600J0D01*
G01*
Y85430D02*
G03*
X107883Y85430I600J0D01*
G01*
X117701Y96301D02*
G03*
X117701Y97101I0J400D01*
G01*
X129134Y105512D02*
X135433D01*
X129134D02*
Y112598D01*
X135433D01*
Y105512D02*
Y112598D01*
X132624Y100484D02*
X134124D01*
X134374Y100734D01*
Y101234D01*
X134124Y101484D02*
X134374Y101234D01*
X132624Y101484D02*
X134124D01*
X132374Y101234D02*
X132624Y101484D01*
X132374Y100734D02*
Y101234D01*
Y100734D02*
X132624Y100484D01*
X101678Y81204D02*
Y82804D01*
X101078D02*
X101678D01*
X101078Y81204D02*
Y82804D01*
Y81204D02*
X101678D01*
X101481Y90062D02*
Y91662D01*
X100881D02*
X101481D01*
X100881Y90062D02*
Y91662D01*
Y90062D02*
X101481D01*
X101450Y94193D02*
Y95793D01*
X100850D02*
X101450D01*
X100850Y94193D02*
Y95793D01*
Y94193D02*
X101450D01*
X101678Y105417D02*
Y107017D01*
X101078D02*
X101678D01*
X101078Y105417D02*
Y107017D01*
Y105417D02*
X101678D01*
X101245Y98724D02*
Y100324D01*
X100645D02*
X101245D01*
X100645Y98724D02*
Y100324D01*
Y98724D02*
X101245D01*
X105802Y90228D02*
Y91828D01*
Y90228D02*
X106402D01*
Y91828D01*
X105802D02*
X106402D01*
X105802Y94755D02*
Y96355D01*
Y94755D02*
X106402D01*
Y96355D01*
X105802D02*
X106402D01*
X109243Y88973D02*
Y91373D01*
X110443Y88973D02*
Y91373D01*
X109243Y93501D02*
Y95901D01*
X110443Y93501D02*
Y95901D01*
X123766Y92020D02*
X125266D01*
X125516Y92270D01*
Y92770D01*
X125266Y93020D02*
X125516Y92770D01*
X123766Y93020D02*
X125266D01*
X123516Y92770D02*
X123766Y93020D01*
X123516Y92270D02*
Y92770D01*
Y92270D02*
X123766Y92020D01*
X132600Y87007D02*
Y88607D01*
Y87007D02*
X133200D01*
Y88607D01*
X132600D02*
X133200D01*
X143513Y89335D02*
Y91735D01*
X142313Y89335D02*
Y91735D01*
X142032Y89472D02*
Y91072D01*
X141432D02*
X142032D01*
X141432Y89472D02*
Y91072D01*
Y89472D02*
X142032D01*
X148125Y89637D02*
Y91237D01*
Y89637D02*
X148725D01*
Y91237D01*
X148125D02*
X148725D01*
X153474Y101256D02*
Y104256D01*
X101481Y85731D02*
Y87331D01*
X100881D02*
X101481D01*
X100881Y85731D02*
Y87331D01*
Y85731D02*
X101481D01*
X109243Y97635D02*
Y100035D01*
X110443Y97635D02*
Y100035D01*
X142717Y85364D02*
Y85864D01*
X142467Y85614D02*
X142967D01*
X145576Y85535D02*
Y87135D01*
X144976D02*
X145576D01*
X144976Y85535D02*
Y87135D01*
Y85535D02*
X145576D01*
X102629Y102859D02*
X104229D01*
X102629Y102259D02*
Y102859D01*
Y102259D02*
X104229D01*
Y102859D01*
X103650Y103931D02*
X105150D01*
Y104731D01*
X103650D02*
X105150D01*
X103650Y103931D02*
Y104731D01*
X117228Y101078D02*
X118828D01*
Y101678D01*
X117228D02*
X118828D01*
X117228Y101078D02*
Y101678D01*
X130083Y91723D02*
X132483D01*
X130083Y92923D02*
X132483D01*
X136716Y84739D02*
X138316D01*
Y85339D01*
X136716D02*
X138316D01*
X136716Y84739D02*
Y85339D01*
X136743Y90900D02*
X138343D01*
Y91500D01*
X136743D02*
X138343D01*
X136743Y90900D02*
Y91500D01*
X105606Y81566D02*
Y83166D01*
Y81566D02*
X106206D01*
Y83166D01*
X105606D02*
X106206D01*
X102256Y81506D02*
Y82006D01*
Y82806D02*
Y83306D01*
Y81506D02*
X105256D01*
Y83306D01*
X102256D02*
X105256D01*
X106683Y94288D02*
Y96688D01*
X107883Y94288D02*
Y96688D01*
X106683Y89957D02*
Y92357D01*
X107883Y89957D02*
Y92357D01*
X102453Y90167D02*
Y90667D01*
Y91467D02*
Y91967D01*
Y90167D02*
X105453D01*
Y91967D01*
X102453D02*
X105453D01*
X105900Y98743D02*
Y100343D01*
X105300D02*
X105900D01*
X105300Y98743D02*
Y100343D01*
Y98743D02*
X105900D01*
X107490Y98391D02*
Y100791D01*
X106290Y98391D02*
Y100791D01*
X106230Y102043D02*
Y105043D01*
X102059Y98828D02*
Y99328D01*
Y100128D02*
Y100628D01*
Y98828D02*
X105059D01*
Y100628D01*
X102059D02*
X105059D01*
X110920Y89440D02*
Y91040D01*
Y89440D02*
X111520D01*
Y91040D01*
X110920D02*
X111520D01*
X110724Y93771D02*
Y95371D01*
Y93771D02*
X111324D01*
Y95371D01*
X110724D02*
X111324D01*
X117810Y90228D02*
Y91828D01*
Y90228D02*
X118410D01*
Y91828D01*
X117810D02*
X118410D01*
X112805Y96366D02*
X113305D01*
X114105D02*
X114605D01*
X112805Y93366D02*
Y96366D01*
Y93366D02*
X114605D01*
Y96366D01*
X112805Y92429D02*
X113305D01*
X114105D02*
X114605D01*
X112805Y89429D02*
Y92429D01*
Y89429D02*
X114605D01*
Y92429D01*
X117800Y92900D02*
X118300D01*
X118050Y92650D02*
Y93150D01*
X119891Y89926D02*
Y92326D01*
X118691Y89926D02*
Y92326D01*
X112923Y102043D02*
Y105043D01*
X126128Y92020D02*
X127628D01*
X127878Y92270D01*
Y92770D01*
X127628Y93020D02*
X127878Y92770D01*
X126128Y93020D02*
X127628D01*
X125878Y92770D02*
X126128Y93020D01*
X125878Y92270D02*
Y92770D01*
Y92270D02*
X126128Y92020D01*
X129115Y91151D02*
X130515D01*
X129115Y89951D02*
X130515D01*
X132250Y86893D02*
Y88493D01*
X131650D02*
X132250D01*
X131650Y86893D02*
Y88493D01*
Y86893D02*
X132250D01*
X130385Y102662D02*
X131985D01*
X130385Y102062D02*
Y102662D01*
Y102062D02*
X131985D01*
Y102662D01*
X130421Y103931D02*
X131921D01*
Y104731D01*
X130421D02*
X131921D01*
X130421Y103931D02*
Y104731D01*
X136716Y83558D02*
X138316D01*
Y84158D01*
X136716D02*
X138316D01*
X136716Y83558D02*
Y84158D01*
X138514Y93504D02*
X139014D01*
X138764Y93254D02*
Y93754D01*
X136684Y90261D02*
X138284D01*
X136684Y89661D02*
Y90261D01*
Y89661D02*
X138284D01*
Y90261D01*
X140448Y89637D02*
Y91237D01*
Y89637D02*
X141048D01*
Y91237D01*
X140448D02*
X141048D01*
X135049Y86383D02*
Y88783D01*
X133849Y86383D02*
Y88783D01*
X135327Y88424D02*
X139327D01*
Y86624D02*
Y88424D01*
X135327Y86624D02*
X139327D01*
X135327D02*
Y87124D01*
Y87924D02*
Y88424D01*
X141378Y87797D02*
Y88297D01*
X141128Y88047D02*
X141628D01*
X136684Y102268D02*
X138284D01*
X136684Y101669D02*
Y102268D01*
Y101669D02*
X138284D01*
Y102268D01*
X137114Y103931D02*
X138614D01*
Y104731D01*
X137114D02*
X138614D01*
X137114Y103931D02*
Y104731D01*
X140089Y102043D02*
Y105043D01*
X150718Y79882D02*
X151219D01*
X150969Y79632D02*
Y80132D01*
X148317Y79882D02*
X148817D01*
X148567Y79632D02*
Y80132D01*
X145929Y79829D02*
Y80329D01*
X145679Y80079D02*
X146179D01*
X149709Y89669D02*
Y91269D01*
X149109D02*
X149709D01*
X149109Y89669D02*
Y91269D01*
Y89669D02*
X149709D01*
X147635Y88002D02*
X150035D01*
X147635Y86802D02*
X150035D01*
X150500Y103537D02*
X152000D01*
Y104337D01*
X150500D02*
X152000D01*
X150500Y103537D02*
Y104337D01*
X146388Y101650D02*
Y104650D01*
X150070Y102662D02*
X151670D01*
X150070Y102062D02*
Y102662D01*
Y102062D02*
X151670D01*
Y102662D01*
X105606Y86094D02*
Y87694D01*
Y86094D02*
X106206D01*
Y87694D01*
X105606D02*
X106206D01*
X102256Y85836D02*
Y86336D01*
Y87136D02*
Y87636D01*
Y85836D02*
X105256D01*
Y87636D01*
X102256D02*
X105256D01*
X102453Y94498D02*
Y94998D01*
Y95798D02*
Y96298D01*
Y94498D02*
X105453D01*
Y96298D01*
X102453D02*
X105453D01*
X101678Y109747D02*
Y111347D01*
X101078D02*
X101678D01*
X101078Y109747D02*
Y111347D01*
Y109747D02*
X101678D01*
X102362Y105512D02*
X108661D01*
X102362D02*
Y112598D01*
X108661D01*
Y105512D02*
Y112598D01*
X110724Y97905D02*
Y99505D01*
Y97905D02*
X111324D01*
Y99505D01*
X110724D02*
X111324D01*
X123600Y101750D02*
X126000D01*
X123600Y102950D02*
X126000D01*
X112805Y100106D02*
X113305D01*
X114105D02*
X114605D01*
X112805Y97106D02*
Y100106D01*
Y97106D02*
X114605D01*
Y100106D01*
X143991Y85700D02*
Y87300D01*
Y85700D02*
X144591D01*
Y87300D01*
X143991D02*
X144591D01*
X141482Y85724D02*
X141982D01*
X141732Y85474D02*
Y85974D01*
X135827Y105512D02*
X142126D01*
X135827D02*
Y112598D01*
X142126D01*
Y105512D02*
Y112598D01*
X150394Y88570D02*
X155494D01*
X150394D02*
Y100850D01*
X155494Y88570D02*
Y100850D01*
X150394D02*
X155494D01*
X147531Y85471D02*
X155532D01*
Y83671D02*
Y85471D01*
X147531Y83671D02*
X155532D01*
X147531D02*
Y84171D01*
Y84971D02*
Y85471D01*
X145960Y85700D02*
Y87300D01*
Y85700D02*
X146560D01*
Y87300D01*
X145960D02*
X146560D01*
X149213Y105512D02*
X155512D01*
X149213D02*
Y112598D01*
X155512D01*
Y105512D02*
Y112598D01*
X106683Y80706D02*
Y83106D01*
X107883Y80706D02*
Y83106D01*
X132608Y84252D02*
X133108D01*
X132858Y84002D02*
Y84502D01*
X146063Y81427D02*
Y81927D01*
X145813Y81677D02*
X146313D01*
X121404Y92020D02*
X122904D01*
X123154Y92270D01*
Y92770D01*
X122904Y93020D02*
X123154Y92770D01*
X121404Y93020D02*
X122904D01*
X121154Y92770D02*
X121404Y93020D01*
X121154Y92270D02*
Y92770D01*
Y92270D02*
X121404Y92020D01*
X132083Y89951D02*
X133483D01*
X132083Y91151D02*
X133483D01*
X143750Y91400D02*
X147750D01*
Y89600D02*
Y91400D01*
X143750Y89600D02*
X147750D01*
X143750D02*
Y90100D01*
Y90900D02*
Y91400D01*
X109747Y102653D02*
X111347D01*
Y103253D01*
X109747D02*
X111347D01*
X109747Y102653D02*
Y103253D01*
X110343Y103931D02*
X111843D01*
Y104731D01*
X110343D02*
X111843D01*
X110343Y103931D02*
Y104731D01*
X143377Y102268D02*
X144977D01*
X143377Y101669D02*
Y102268D01*
Y101669D02*
X144977D01*
Y102268D01*
X133396Y102043D02*
Y105043D01*
X143807Y103537D02*
X145307D01*
Y104337D01*
X143807D02*
X145307D01*
X143807Y103537D02*
Y104337D01*
X133358Y114998D02*
Y116498D01*
X126250Y113250D02*
X126750D01*
X126500Y113000D02*
Y113500D01*
X133535Y114080D02*
X135135D01*
X133535Y113480D02*
Y114080D01*
Y113480D02*
X135135D01*
Y114080D01*
X106683Y85430D02*
Y87830D01*
X107883Y85430D02*
Y87830D01*
X117701Y97101D02*
Y99101D01*
Y94301D02*
Y96301D01*
Y99101D02*
X138701D01*
Y94301D02*
Y99101D01*
X117701Y94301D02*
X138701D01*
X109055Y105512D02*
X115354D01*
X109055D02*
Y112598D01*
X115354D01*
Y105512D02*
Y112598D01*
X142520Y105512D02*
X148819D01*
X142520D02*
Y112598D01*
X148819D01*
Y105512D02*
Y112598D01*
X119728Y114134D02*
Y114634D01*
X119629Y114734D01*
X119429D01*
X119329Y114634D01*
Y114134D01*
X118729D02*
X119129D01*
Y114434D01*
X118929D01*
X119129D01*
Y114734D01*
X103359Y115750D02*
X103106D01*
X103233D01*
Y115116D01*
X103106Y114990D01*
X102979D01*
X102853Y115116D01*
X103613Y114990D02*
X103866D01*
X103739D01*
Y115750D01*
X103613Y115623D01*
X104752Y115750D02*
X104246D01*
Y115370D01*
X104499Y115496D01*
X104626D01*
X104752Y115370D01*
Y115116D01*
X104626Y114990D01*
X104372D01*
X104246Y115116D01*
X107325Y115700D02*
X107072D01*
X107198D01*
Y115066D01*
X107072Y114940D01*
X106945D01*
X106819Y115066D01*
X107578Y114940D02*
X107832D01*
X107705D01*
Y115700D01*
X107578Y115573D01*
X108591Y114940D02*
Y115700D01*
X108211Y115320D01*
X108718D01*
X130236Y113555D02*
Y112795D01*
Y113049D01*
X130743Y113555D01*
X130363Y113175D01*
X130743Y112795D01*
X131376D02*
Y113555D01*
X130996Y113175D01*
X131502D01*
X100984Y81102D02*
X100293D01*
Y81448D01*
X100408Y81563D01*
X100639D01*
X100754Y81448D01*
Y81102D01*
Y81333D02*
X100984Y81563D01*
Y82255D02*
Y81794D01*
X100523Y82255D01*
X100408D01*
X100293Y82139D01*
Y81909D01*
X100408Y81794D01*
X100869Y82485D02*
X100984Y82600D01*
Y82831D01*
X100869Y82946D01*
X100408D01*
X100293Y82831D01*
Y82600D01*
X100408Y82485D01*
X100523D01*
X100639Y82600D01*
Y82946D01*
X100827Y90039D02*
X100135D01*
Y90385D01*
X100251Y90500D01*
X100481D01*
X100596Y90385D01*
Y90039D01*
Y90270D02*
X100827Y90500D01*
X100251Y90731D02*
X100135Y90846D01*
Y91076D01*
X100251Y91192D01*
X100366D01*
X100481Y91076D01*
Y90961D01*
Y91076D01*
X100596Y91192D01*
X100712D01*
X100827Y91076D01*
Y90846D01*
X100712Y90731D01*
X100251Y91422D02*
X100135Y91537D01*
Y91768D01*
X100251Y91883D01*
X100712D01*
X100827Y91768D01*
Y91537D01*
X100712Y91422D01*
X100251D01*
X100835Y94248D02*
X100144D01*
Y94594D01*
X100259Y94709D01*
X100489D01*
X100605Y94594D01*
Y94248D01*
Y94479D02*
X100835Y94709D01*
X100259Y94940D02*
X100144Y95055D01*
Y95285D01*
X100259Y95401D01*
X100374D01*
X100489Y95285D01*
Y95170D01*
Y95285D01*
X100605Y95401D01*
X100720D01*
X100835Y95285D01*
Y95055D01*
X100720Y94940D01*
X100835Y96092D02*
Y95631D01*
X100374Y96092D01*
X100259D01*
X100144Y95977D01*
Y95746D01*
X100259Y95631D01*
X100750Y105350D02*
X100059D01*
Y105696D01*
X100174Y105811D01*
X100404D01*
X100520Y105696D01*
Y105350D01*
Y105580D02*
X100750Y105811D01*
X100174Y106041D02*
X100059Y106157D01*
Y106387D01*
X100174Y106502D01*
X100289D01*
X100404Y106387D01*
Y106272D01*
Y106387D01*
X100520Y106502D01*
X100635D01*
X100750Y106387D01*
Y106157D01*
X100635Y106041D01*
Y106733D02*
X100750Y106848D01*
Y107078D01*
X100635Y107194D01*
X100174D01*
X100059Y107078D01*
Y106848D01*
X100174Y106733D01*
X100289D01*
X100404Y106848D01*
Y107194D01*
X100591Y98780D02*
X99899D01*
Y99125D01*
X100014Y99240D01*
X100245D01*
X100360Y99125D01*
Y98780D01*
Y99010D02*
X100591Y99240D01*
X100014Y99471D02*
X99899Y99586D01*
Y99817D01*
X100014Y99932D01*
X100130D01*
X100245Y99817D01*
Y99701D01*
Y99817D01*
X100360Y99932D01*
X100475D01*
X100591Y99817D01*
Y99586D01*
X100475Y99471D01*
X99899Y100162D02*
Y100623D01*
X100014D01*
X100475Y100162D01*
X100591D01*
X106417Y90472D02*
X106025D01*
Y90668D01*
X106091Y90734D01*
X106221D01*
X106287Y90668D01*
Y90472D01*
Y90603D02*
X106417Y90734D01*
X106091Y90864D02*
X106025Y90930D01*
Y91060D01*
X106091Y91126D01*
X106156D01*
X106221Y91060D01*
Y90995D01*
Y91060D01*
X106287Y91126D01*
X106352D01*
X106417Y91060D01*
Y90930D01*
X106352Y90864D01*
X106417Y91452D02*
X106025D01*
X106221Y91256D01*
Y91517D01*
X106417Y95079D02*
X106025D01*
Y95275D01*
X106091Y95340D01*
X106221D01*
X106287Y95275D01*
Y95079D01*
Y95209D02*
X106417Y95340D01*
X106091Y95471D02*
X106025Y95536D01*
Y95667D01*
X106091Y95732D01*
X106156D01*
X106221Y95667D01*
Y95601D01*
Y95667D01*
X106287Y95732D01*
X106352D01*
X106417Y95667D01*
Y95536D01*
X106352Y95471D01*
X106025Y96124D02*
X106091Y95993D01*
X106221Y95862D01*
X106352D01*
X106417Y95928D01*
Y96058D01*
X106352Y96124D01*
X106287D01*
X106221Y96058D01*
Y95862D01*
X109516Y88017D02*
X109401Y88132D01*
X109170D01*
X109055Y88017D01*
Y87556D01*
X109170Y87441D01*
X109401D01*
X109516Y87556D01*
X110207Y87441D02*
X109746D01*
X110207Y87902D01*
Y88017D01*
X110092Y88132D01*
X109862D01*
X109746Y88017D01*
X110438Y87556D02*
X110553Y87441D01*
X110784D01*
X110899Y87556D01*
Y88017D01*
X110784Y88132D01*
X110553D01*
X110438Y88017D01*
Y87902D01*
X110553Y87787D01*
X110899D01*
X108636Y93689D02*
X108521Y93574D01*
Y93344D01*
X108636Y93228D01*
X109097D01*
X109213Y93344D01*
Y93574D01*
X109097Y93689D01*
X108636Y93920D02*
X108521Y94035D01*
Y94265D01*
X108636Y94381D01*
X108752D01*
X108867Y94265D01*
Y94150D01*
Y94265D01*
X108982Y94381D01*
X109097D01*
X109213Y94265D01*
Y94035D01*
X109097Y93920D01*
X108636Y94611D02*
X108521Y94726D01*
Y94957D01*
X108636Y95072D01*
X109097D01*
X109213Y94957D01*
Y94726D01*
X109097Y94611D01*
X108636D01*
X133176Y87292D02*
X132784D01*
Y87488D01*
X132849Y87553D01*
X132980D01*
X133045Y87488D01*
Y87292D01*
Y87422D02*
X133176Y87553D01*
Y87684D02*
Y87814D01*
Y87749D01*
X132784D01*
X132849Y87684D01*
X132784Y88010D02*
Y88271D01*
X132849D01*
X133110Y88010D01*
X133176D01*
X142587Y93017D02*
X142472Y93132D01*
X142241D01*
X142126Y93017D01*
Y92556D01*
X142241Y92441D01*
X142472D01*
X142587Y92556D01*
X142817Y92441D02*
X143048D01*
X142933D01*
Y93132D01*
X142817Y93017D01*
X143394D02*
X143509Y93132D01*
X143739D01*
X143854Y93017D01*
Y92902D01*
X143739Y92787D01*
X143624D01*
X143739D01*
X143854Y92671D01*
Y92556D01*
X143739Y92441D01*
X143509D01*
X143394Y92556D01*
X142047Y89764D02*
X141655D01*
Y89960D01*
X141721Y90025D01*
X141851D01*
X141917Y89960D01*
Y89764D01*
Y89894D02*
X142047Y90025D01*
Y90156D02*
Y90286D01*
Y90221D01*
X141655D01*
X141721Y90156D01*
X142047Y90678D02*
X141655D01*
X141851Y90482D01*
Y90743D01*
X147520Y92362D02*
Y93054D01*
X147865D01*
X147981Y92938D01*
Y92708D01*
X147865Y92593D01*
X147520D01*
X147750D02*
X147981Y92362D01*
X148557D02*
Y93054D01*
X148211Y92708D01*
X148672D01*
X154756Y104527D02*
Y105033D01*
X154630Y105160D01*
X154377D01*
X154250Y105033D01*
Y104527D01*
X154377Y104400D01*
X154630D01*
X154503Y104653D02*
X154756Y104400D01*
X154630D02*
X154756Y104527D01*
X155010Y104400D02*
X155263D01*
X155136D01*
Y105160D01*
X155010Y105033D01*
X100866Y85669D02*
X100175D01*
Y86015D01*
X100290Y86130D01*
X100520D01*
X100636Y86015D01*
Y85669D01*
Y85900D02*
X100866Y86130D01*
X100290Y86361D02*
X100175Y86476D01*
Y86706D01*
X100290Y86822D01*
X100405D01*
X100520Y86706D01*
Y86591D01*
Y86706D01*
X100636Y86822D01*
X100751D01*
X100866Y86706D01*
Y86476D01*
X100751Y86361D01*
X100866Y87052D02*
Y87282D01*
Y87167D01*
X100175D01*
X100290Y87052D01*
X109516Y101167D02*
X109401Y101282D01*
X109170D01*
X109055Y101167D01*
Y100706D01*
X109170Y100591D01*
X109401D01*
X109516Y100706D01*
X109746Y101167D02*
X109862Y101282D01*
X110092D01*
X110207Y101167D01*
Y101051D01*
X110092Y100936D01*
X109977D01*
X110092D01*
X110207Y100821D01*
Y100706D01*
X110092Y100591D01*
X109862D01*
X109746Y100706D01*
X110438Y100591D02*
X110668D01*
X110553D01*
Y101282D01*
X110438Y101167D01*
X142506Y88522D02*
X142439Y88589D01*
X142306D01*
X142239Y88522D01*
Y88256D01*
X142306Y88189D01*
X142439D01*
X142506Y88256D01*
X142639Y88189D02*
X142772D01*
X142705D01*
Y88589D01*
X142639Y88522D01*
X143239Y88589D02*
X142972D01*
Y88389D01*
X143105Y88456D01*
X143172D01*
X143239Y88389D01*
Y88256D01*
X143172Y88189D01*
X143039D01*
X142972Y88256D01*
X145551Y85866D02*
X145159D01*
Y86062D01*
X145225Y86127D01*
X145355D01*
X145421Y86062D01*
Y85866D01*
Y85997D02*
X145551Y86127D01*
Y86258D02*
Y86389D01*
Y86323D01*
X145159D01*
X145225Y86258D01*
X145486Y86585D02*
X145551Y86650D01*
Y86780D01*
X145486Y86846D01*
X145225D01*
X145159Y86780D01*
Y86650D01*
X145225Y86585D01*
X145290D01*
X145355Y86650D01*
Y86846D01*
X100400Y103150D02*
Y103841D01*
X100746D01*
X100861Y103726D01*
Y103496D01*
X100746Y103380D01*
X100400D01*
X100630D02*
X100861Y103150D01*
X101091Y103726D02*
X101207Y103841D01*
X101437D01*
X101552Y103726D01*
Y103611D01*
X101437Y103496D01*
X101322D01*
X101437D01*
X101552Y103380D01*
Y103265D01*
X101437Y103150D01*
X101207D01*
X101091Y103265D01*
X101783Y103726D02*
X101898Y103841D01*
X102128D01*
X102244Y103726D01*
Y103611D01*
X102128Y103496D01*
X102244Y103380D01*
Y103265D01*
X102128Y103150D01*
X101898D01*
X101783Y103265D01*
Y103380D01*
X101898Y103496D01*
X101783Y103611D01*
Y103726D01*
X101898Y103496D02*
X102128D01*
X105200Y103109D02*
Y103800D01*
X104854D01*
X104739Y103685D01*
Y103224D01*
X104854Y103109D01*
X105200D01*
X104509Y103800D02*
X104278D01*
X104393D01*
Y103109D01*
X104509Y103224D01*
X103932Y103109D02*
X103472D01*
Y103224D01*
X103932Y103685D01*
Y103800D01*
X116496Y100039D02*
Y100731D01*
X116842D01*
X116957Y100616D01*
Y100385D01*
X116842Y100270D01*
X116496D01*
X116727D02*
X116957Y100039D01*
X117648Y100731D02*
X117187D01*
Y100385D01*
X117418Y100500D01*
X117533D01*
X117648Y100385D01*
Y100155D01*
X117533Y100039D01*
X117303D01*
X117187Y100155D01*
X118340Y100039D02*
X117879D01*
X118340Y100500D01*
Y100616D01*
X118224Y100731D01*
X117994D01*
X117879Y100616D01*
X128189Y92581D02*
X128650Y91890D01*
Y92581D02*
X128189Y91890D01*
X128880D02*
X129111D01*
X128996D01*
Y92581D01*
X128880Y92466D01*
X139409Y84567D02*
Y85258D01*
X139755D01*
X139870Y85143D01*
Y84913D01*
X139755Y84797D01*
X139409D01*
X139640D02*
X139870Y84567D01*
X140101Y84682D02*
X140216Y84567D01*
X140447D01*
X140562Y84682D01*
Y85143D01*
X140447Y85258D01*
X140216D01*
X140101Y85143D01*
Y85028D01*
X140216Y84913D01*
X140562D01*
X137350Y91554D02*
Y92246D01*
X137695D01*
X137811Y92130D01*
Y91900D01*
X137695Y91785D01*
X137350D01*
X137580D02*
X137811Y91554D01*
X138041D02*
X138271D01*
X138156D01*
Y92246D01*
X138041Y92130D01*
X139078Y92246D02*
X138617D01*
Y91900D01*
X138848Y92015D01*
X138963D01*
X139078Y91900D01*
Y91670D01*
X138963Y91554D01*
X138732D01*
X138617Y91670D01*
X104055Y79488D02*
Y80180D01*
X104401D01*
X104516Y80064D01*
Y79834D01*
X104401Y79719D01*
X104055D01*
X104286D02*
X104516Y79488D01*
X104746Y80064D02*
X104862Y80180D01*
X105092D01*
X105207Y80064D01*
Y79949D01*
X105092Y79834D01*
X104977D01*
X105092D01*
X105207Y79719D01*
Y79603D01*
X105092Y79488D01*
X104862D01*
X104746Y79603D01*
X105438Y80064D02*
X105553Y80180D01*
X105784D01*
X105899Y80064D01*
Y79949D01*
X105784Y79834D01*
X105668D01*
X105784D01*
X105899Y79719D01*
Y79603D01*
X105784Y79488D01*
X105553D01*
X105438Y79603D01*
X103350Y82691D02*
Y82115D01*
X103465Y82000D01*
X103696D01*
X103811Y82115D01*
Y82691D01*
X104502D02*
X104041D01*
Y82346D01*
X104272Y82461D01*
X104387D01*
X104502Y82346D01*
Y82115D01*
X104387Y82000D01*
X104157D01*
X104041Y82115D01*
X108203Y95933D02*
X108088Y95818D01*
Y95588D01*
X108203Y95472D01*
X108664D01*
X108780Y95588D01*
Y95818D01*
X108664Y95933D01*
X108780Y96625D02*
Y96164D01*
X108319Y96625D01*
X108203D01*
X108088Y96510D01*
Y96279D01*
X108203Y96164D01*
Y96855D02*
X108088Y96970D01*
Y97201D01*
X108203Y97316D01*
X108319D01*
X108434Y97201D01*
Y97086D01*
Y97201D01*
X108549Y97316D01*
X108664D01*
X108780Y97201D01*
Y96970D01*
X108664Y96855D01*
X108243Y90855D02*
X108128Y90739D01*
Y90509D01*
X108243Y90394D01*
X108704D01*
X108819Y90509D01*
Y90739D01*
X108704Y90855D01*
X108819Y91546D02*
Y91085D01*
X108358Y91546D01*
X108243D01*
X108128Y91431D01*
Y91200D01*
X108243Y91085D01*
X108819Y91776D02*
Y92007D01*
Y91892D01*
X108128D01*
X108243Y91776D01*
X103400Y91391D02*
Y90815D01*
X103515Y90700D01*
X103746D01*
X103861Y90815D01*
Y91391D01*
X104091Y91276D02*
X104207Y91391D01*
X104437D01*
X104552Y91276D01*
Y91161D01*
X104437Y91046D01*
X104552Y90930D01*
Y90815D01*
X104437Y90700D01*
X104207D01*
X104091Y90815D01*
Y90930D01*
X104207Y91046D01*
X104091Y91161D01*
Y91276D01*
X104207Y91046D02*
X104437D01*
X107888Y99240D02*
X107773Y99125D01*
Y98895D01*
X107888Y98780D01*
X108349D01*
X108465Y98895D01*
Y99125D01*
X108349Y99240D01*
X108465Y99932D02*
Y99471D01*
X108004Y99932D01*
X107888D01*
X107773Y99817D01*
Y99586D01*
X107888Y99471D01*
Y100162D02*
X107773Y100278D01*
Y100508D01*
X107888Y100623D01*
X108004D01*
X108119Y100508D01*
X108234Y100623D01*
X108349D01*
X108465Y100508D01*
Y100278D01*
X108349Y100162D01*
X108234D01*
X108119Y100278D01*
X108004Y100162D01*
X107888D01*
X108119Y100278D02*
Y100508D01*
X108223Y104260D02*
Y104767D01*
X108096Y104894D01*
X107843D01*
X107717Y104767D01*
Y104260D01*
X107843Y104134D01*
X108096D01*
X107970Y104387D02*
X108223Y104134D01*
X108096D02*
X108223Y104260D01*
X108476Y104767D02*
X108603Y104894D01*
X108856D01*
X108983Y104767D01*
Y104640D01*
X108856Y104514D01*
X108983Y104387D01*
Y104260D01*
X108856Y104134D01*
X108603D01*
X108476Y104260D01*
Y104387D01*
X108603Y104514D01*
X108476Y104640D01*
Y104767D01*
X108603Y104514D02*
X108856D01*
X103050Y100141D02*
Y99565D01*
X103165Y99450D01*
X103396D01*
X103511Y99565D01*
Y100141D01*
X104202D02*
X103972Y100026D01*
X103741Y99796D01*
Y99565D01*
X103857Y99450D01*
X104087D01*
X104202Y99565D01*
Y99680D01*
X104087Y99796D01*
X103741D01*
X111693Y88307D02*
Y88998D01*
X112039D01*
X112154Y88883D01*
Y88653D01*
X112039Y88538D01*
X111693D01*
X111923D02*
X112154Y88307D01*
X112730D02*
Y88998D01*
X112384Y88653D01*
X112845D01*
X113537Y88307D02*
X113076D01*
X113537Y88768D01*
Y88883D01*
X113421Y88998D01*
X113191D01*
X113076Y88883D01*
X111339Y94055D02*
X110947D01*
Y94251D01*
X111012Y94316D01*
X111143D01*
X111208Y94251D01*
Y94055D01*
Y94186D02*
X111339Y94316D01*
Y94643D02*
X110947D01*
X111143Y94447D01*
Y94708D01*
X111012Y94839D02*
X110947Y94904D01*
Y95035D01*
X111012Y95100D01*
X111077D01*
X111143Y95035D01*
Y94969D01*
Y95035D01*
X111208Y95100D01*
X111273D01*
X111339Y95035D01*
Y94904D01*
X111273Y94839D01*
X116457Y90551D02*
Y91243D01*
X116802D01*
X116918Y91127D01*
Y90897D01*
X116802Y90782D01*
X116457D01*
X116687D02*
X116918Y90551D01*
X117148D02*
X117379D01*
X117263D01*
Y91243D01*
X117148Y91127D01*
X113359Y94000D02*
X113935D01*
X114050Y94115D01*
Y94346D01*
X113935Y94461D01*
X113359D01*
X114050Y94691D02*
Y94922D01*
Y94807D01*
X113359D01*
X113474Y94691D01*
X114050Y95268D02*
Y95498D01*
Y95383D01*
X113359D01*
X113474Y95268D01*
X113409Y89900D02*
X113985D01*
X114100Y90015D01*
Y90246D01*
X113985Y90361D01*
X113409D01*
X114100Y90591D02*
Y90822D01*
Y90707D01*
X113409D01*
X113524Y90591D01*
Y91168D02*
X113409Y91283D01*
Y91513D01*
X113524Y91628D01*
X113985D01*
X114100Y91513D01*
Y91283D01*
X113985Y91168D01*
X113524D01*
X116232Y94763D02*
X116117Y94878D01*
X115886D01*
X115771Y94763D01*
Y94302D01*
X115886Y94187D01*
X116117D01*
X116232Y94302D01*
X116462Y94187D02*
X116693D01*
X116577D01*
Y94878D01*
X116462Y94763D01*
X117499Y94878D02*
X117269Y94763D01*
X117038Y94532D01*
Y94302D01*
X117154Y94187D01*
X117384D01*
X117499Y94302D01*
Y94417D01*
X117384Y94532D01*
X117038D01*
X120461Y91167D02*
X120346Y91282D01*
X120115D01*
X120000Y91167D01*
Y90706D01*
X120115Y90591D01*
X120346D01*
X120461Y90706D01*
X121152Y90591D02*
X120691D01*
X121152Y91051D01*
Y91167D01*
X121037Y91282D01*
X120807D01*
X120691Y91167D01*
X114837Y104418D02*
Y104924D01*
X114711Y105051D01*
X114457D01*
X114331Y104924D01*
Y104418D01*
X114457Y104291D01*
X114711D01*
X114584Y104545D02*
X114837Y104291D01*
X114711D02*
X114837Y104418D01*
X115090Y105051D02*
X115597D01*
Y104924D01*
X115090Y104418D01*
Y104291D01*
X127626Y90616D02*
X127511Y90731D01*
X127281D01*
X127165Y90616D01*
Y90155D01*
X127281Y90039D01*
X127511D01*
X127626Y90155D01*
X127857Y90616D02*
X127972Y90731D01*
X128202D01*
X128318Y90616D01*
Y90500D01*
X128202Y90385D01*
X128087D01*
X128202D01*
X128318Y90270D01*
Y90155D01*
X128202Y90039D01*
X127972D01*
X127857Y90155D01*
X129706Y87263D02*
Y87955D01*
X130052D01*
X130167Y87840D01*
Y87609D01*
X130052Y87494D01*
X129706D01*
X129936D02*
X130167Y87263D01*
X130397D02*
X130628D01*
X130513D01*
Y87955D01*
X130397Y87840D01*
X130973D02*
X131089Y87955D01*
X131319D01*
X131434Y87840D01*
Y87724D01*
X131319Y87609D01*
X131434Y87494D01*
Y87379D01*
X131319Y87263D01*
X131089D01*
X130973Y87379D01*
Y87494D01*
X131089Y87609D01*
X130973Y87724D01*
Y87840D01*
X131089Y87609D02*
X131319D01*
X128700Y101400D02*
X128009D01*
Y101746D01*
X128124Y101861D01*
X128354D01*
X128470Y101746D01*
Y101400D01*
Y101630D02*
X128700Y101861D01*
Y102437D02*
X128009D01*
X128354Y102091D01*
Y102552D01*
X128585Y102783D02*
X128700Y102898D01*
Y103128D01*
X128585Y103244D01*
X128124D01*
X128009Y103128D01*
Y102898D01*
X128124Y102783D01*
X128239D01*
X128354Y102898D01*
Y103244D01*
X131400Y103691D02*
Y103000D01*
X131746D01*
X131861Y103115D01*
Y103576D01*
X131746Y103691D01*
X131400D01*
X132091Y103000D02*
X132322D01*
X132207D01*
Y103691D01*
X132091Y103576D01*
X132668D02*
X132783Y103691D01*
X133013D01*
X133128Y103576D01*
Y103461D01*
X133013Y103346D01*
X132898D01*
X133013D01*
X133128Y103230D01*
Y103115D01*
X133013Y103000D01*
X132783D01*
X132668Y103115D01*
X129837Y115563D02*
X129584D01*
X129711D01*
Y114930D01*
X129584Y114803D01*
X129457D01*
X129331Y114930D01*
X130090Y114803D02*
X130344D01*
X130217D01*
Y115563D01*
X130090Y115436D01*
X130724D02*
X130850Y115563D01*
X131103D01*
X131230Y115436D01*
Y115310D01*
X131103Y115183D01*
X130977D01*
X131103D01*
X131230Y115056D01*
Y114930D01*
X131103Y114803D01*
X130850D01*
X130724Y114930D01*
X136968Y82638D02*
Y83329D01*
X137314D01*
X137429Y83214D01*
Y82983D01*
X137314Y82868D01*
X136968D01*
X137199D02*
X137429Y82638D01*
X137660Y83214D02*
X137775Y83329D01*
X138006D01*
X138121Y83214D01*
Y83099D01*
X138006Y82983D01*
X137890D01*
X138006D01*
X138121Y82868D01*
Y82753D01*
X138006Y82638D01*
X137775D01*
X137660Y82753D01*
X139831Y95104D02*
X139716Y95219D01*
X139485D01*
X139370Y95104D01*
Y94643D01*
X139485Y94528D01*
X139716D01*
X139831Y94643D01*
X140061Y95104D02*
X140177Y95219D01*
X140407D01*
X140522Y95104D01*
Y94988D01*
X140407Y94873D01*
X140292D01*
X140407D01*
X140522Y94758D01*
Y94643D01*
X140407Y94528D01*
X140177D01*
X140061Y94643D01*
X141214Y95219D02*
X140983Y95104D01*
X140753Y94873D01*
Y94643D01*
X140868Y94528D01*
X141099D01*
X141214Y94643D01*
Y94758D01*
X141099Y94873D01*
X140753D01*
X136929Y89646D02*
Y90038D01*
X137125D01*
X137190Y89972D01*
Y89842D01*
X137125Y89776D01*
X136929D01*
X137060D02*
X137190Y89646D01*
X137321D02*
X137452D01*
X137386D01*
Y90038D01*
X137321Y89972D01*
X137648D02*
X137713Y90038D01*
X137843D01*
X137909Y89972D01*
Y89907D01*
X137843Y89842D01*
X137778D01*
X137843D01*
X137909Y89776D01*
Y89711D01*
X137843Y89646D01*
X137713D01*
X137648Y89711D01*
X140512Y89528D02*
X139820D01*
Y89873D01*
X139936Y89988D01*
X140166D01*
X140281Y89873D01*
Y89528D01*
Y89758D02*
X140512Y89988D01*
Y90219D02*
Y90449D01*
Y90334D01*
X139820D01*
X139936Y90219D01*
X139820Y91256D02*
X139936Y91026D01*
X140166Y90795D01*
X140397D01*
X140512Y90910D01*
Y91141D01*
X140397Y91256D01*
X140281D01*
X140166Y91141D01*
Y90795D01*
X134359Y87348D02*
X134293Y87283D01*
Y87152D01*
X134359Y87087D01*
X134620D01*
X134685Y87152D01*
Y87283D01*
X134620Y87348D01*
X134685Y87478D02*
Y87609D01*
Y87544D01*
X134293D01*
X134359Y87478D01*
X134685Y87805D02*
Y87936D01*
Y87870D01*
X134293D01*
X134359Y87805D01*
X136654Y87778D02*
Y87202D01*
X136769Y87087D01*
X136999D01*
X137114Y87202D01*
Y87778D01*
X137345Y87663D02*
X137460Y87778D01*
X137691D01*
X137806Y87663D01*
Y87548D01*
X137691Y87432D01*
X137575D01*
X137691D01*
X137806Y87317D01*
Y87202D01*
X137691Y87087D01*
X137460D01*
X137345Y87202D01*
X139633Y86533D02*
X139550Y86450D01*
Y86283D01*
X139633Y86200D01*
X139967D01*
X140050Y86283D01*
Y86450D01*
X139967Y86533D01*
X140050Y86700D02*
Y86866D01*
Y86783D01*
X139550D01*
X139633Y86700D01*
Y87116D02*
X139550Y87200D01*
Y87366D01*
X139633Y87450D01*
X139967D01*
X140050Y87366D01*
Y87200D01*
X139967Y87116D01*
X139633D01*
X136700Y100550D02*
Y101241D01*
X137046D01*
X137161Y101126D01*
Y100896D01*
X137046Y100780D01*
X136700D01*
X136930D02*
X137161Y100550D01*
X137737D02*
Y101241D01*
X137391Y100896D01*
X137852D01*
X138083Y101126D02*
X138198Y101241D01*
X138428D01*
X138544Y101126D01*
Y101011D01*
X138428Y100896D01*
X138544Y100780D01*
Y100665D01*
X138428Y100550D01*
X138198D01*
X138083Y100665D01*
Y100780D01*
X138198Y100896D01*
X138083Y101011D01*
Y101126D01*
X138198Y100896D02*
X138428D01*
X137900Y103641D02*
Y102950D01*
X138246D01*
X138361Y103065D01*
Y103526D01*
X138246Y103641D01*
X137900D01*
X138591Y102950D02*
X138822D01*
X138707D01*
Y103641D01*
X138591Y103526D01*
X139628Y102950D02*
X139168D01*
X139628Y103411D01*
Y103526D01*
X139513Y103641D01*
X139283D01*
X139168Y103526D01*
X141766Y104575D02*
Y105082D01*
X141640Y105209D01*
X141386D01*
X141260Y105082D01*
Y104575D01*
X141386Y104449D01*
X141640D01*
X141513Y104702D02*
X141766Y104449D01*
X141640D02*
X141766Y104575D01*
X142020Y105082D02*
X142146Y105209D01*
X142399D01*
X142526Y105082D01*
Y104955D01*
X142399Y104829D01*
X142273D01*
X142399D01*
X142526Y104702D01*
Y104575D01*
X142399Y104449D01*
X142146D01*
X142020Y104575D01*
X151839Y82308D02*
X151724Y82424D01*
X151493D01*
X151378Y82308D01*
Y81848D01*
X151493Y81732D01*
X151724D01*
X151839Y81848D01*
X152069Y82308D02*
X152185Y82424D01*
X152415D01*
X152530Y82308D01*
Y82193D01*
X152415Y82078D01*
X152530Y81963D01*
Y81848D01*
X152415Y81732D01*
X152185D01*
X152069Y81848D01*
Y81963D01*
X152185Y82078D01*
X152069Y82193D01*
Y82308D01*
X152185Y82078D02*
X152415D01*
X149595Y82269D02*
X149480Y82384D01*
X149249D01*
X149134Y82269D01*
Y81808D01*
X149249Y81693D01*
X149480D01*
X149595Y81808D01*
X150286Y82384D02*
X150056Y82269D01*
X149825Y82039D01*
Y81808D01*
X149940Y81693D01*
X150171D01*
X150286Y81808D01*
Y81923D01*
X150171Y82039D01*
X149825D01*
X147311Y82308D02*
X147196Y82424D01*
X146966D01*
X146850Y82308D01*
Y81848D01*
X146966Y81732D01*
X147196D01*
X147311Y81848D01*
X148003Y82424D02*
X147542D01*
Y82078D01*
X147772Y82193D01*
X147887D01*
X148003Y82078D01*
Y81848D01*
X147887Y81732D01*
X147657D01*
X147542Y81848D01*
X149016Y92362D02*
Y93054D01*
X149361D01*
X149477Y92938D01*
Y92708D01*
X149361Y92593D01*
X149016D01*
X149246D02*
X149477Y92362D01*
X150168D02*
X149707D01*
X150168Y92823D01*
Y92938D01*
X150053Y93054D01*
X149822D01*
X149707Y92938D01*
X151209Y87505D02*
X151094Y87621D01*
X150863D01*
X150748Y87505D01*
Y87044D01*
X150863Y86929D01*
X151094D01*
X151209Y87044D01*
X151439D02*
X151555Y86929D01*
X151785D01*
X151900Y87044D01*
Y87505D01*
X151785Y87621D01*
X151555D01*
X151439Y87505D01*
Y87390D01*
X151555Y87275D01*
X151900D01*
X150000Y105188D02*
Y104497D01*
X150346D01*
X150461Y104612D01*
Y105073D01*
X150346Y105188D01*
X150000D01*
X150691Y104497D02*
X150922D01*
X150807D01*
Y105188D01*
X150691Y105073D01*
X151268D02*
X151383Y105188D01*
X151613D01*
X151728Y105073D01*
Y104612D01*
X151613Y104497D01*
X151383D01*
X151268Y104612D01*
Y105073D01*
X148105Y104221D02*
Y104728D01*
X147978Y104854D01*
X147725D01*
X147598Y104728D01*
Y104221D01*
X147725Y104094D01*
X147978D01*
X147852Y104348D02*
X148105Y104094D01*
X147978D02*
X148105Y104221D01*
X148865Y104094D02*
X148358D01*
X148865Y104601D01*
Y104728D01*
X148738Y104854D01*
X148485D01*
X148358Y104728D01*
X149961Y101142D02*
Y101833D01*
X150306D01*
X150422Y101718D01*
Y101487D01*
X150306Y101372D01*
X149961D01*
X150191D02*
X150422Y101142D01*
X150998D02*
Y101833D01*
X150652Y101487D01*
X151113D01*
X151804Y101833D02*
X151574Y101718D01*
X151343Y101487D01*
Y101257D01*
X151459Y101142D01*
X151689D01*
X151804Y101257D01*
Y101372D01*
X151689Y101487D01*
X151343D01*
X106800Y88300D02*
Y88991D01*
X107146D01*
X107261Y88876D01*
Y88646D01*
X107146Y88530D01*
X106800D01*
X107030D02*
X107261Y88300D01*
X107491Y88876D02*
X107607Y88991D01*
X107837D01*
X107952Y88876D01*
Y88761D01*
X107837Y88646D01*
X107722D01*
X107837D01*
X107952Y88530D01*
Y88415D01*
X107837Y88300D01*
X107607D01*
X107491Y88415D01*
X108644Y88991D02*
X108183D01*
Y88646D01*
X108413Y88761D01*
X108528D01*
X108644Y88646D01*
Y88415D01*
X108528Y88300D01*
X108298D01*
X108183Y88415D01*
X97199Y98516D02*
X96946D01*
X97073D01*
Y97883D01*
X96946Y97756D01*
X96820D01*
X96693Y97883D01*
X97453Y98389D02*
X97579Y98516D01*
X97833D01*
X97959Y98389D01*
Y98262D01*
X97833Y98136D01*
X97706D01*
X97833D01*
X97959Y98009D01*
Y97883D01*
X97833Y97756D01*
X97579D01*
X97453Y97883D01*
X102950Y86741D02*
Y86165D01*
X103065Y86050D01*
X103296D01*
X103411Y86165D01*
Y86741D01*
X103641Y86165D02*
X103757Y86050D01*
X103987D01*
X104102Y86165D01*
Y86626D01*
X103987Y86741D01*
X103757D01*
X103641Y86626D01*
Y86511D01*
X103757Y86396D01*
X104102D01*
X103300Y95691D02*
Y95115D01*
X103415Y95000D01*
X103646D01*
X103761Y95115D01*
Y95691D01*
X103991Y95000D02*
X104222D01*
X104107D01*
Y95691D01*
X103991Y95576D01*
X105028Y95000D02*
X104568D01*
X105028Y95461D01*
Y95576D01*
X104913Y95691D01*
X104683D01*
X104568Y95576D01*
X100700Y109700D02*
X100009D01*
Y110046D01*
X100124Y110161D01*
X100354D01*
X100470Y110046D01*
Y109700D01*
Y109930D02*
X100700Y110161D01*
Y110737D02*
X100009D01*
X100354Y110391D01*
Y110852D01*
X100124Y111083D02*
X100009Y111198D01*
Y111428D01*
X100124Y111544D01*
X100585D01*
X100700Y111428D01*
Y111198D01*
X100585Y111083D01*
X100124D01*
X104882Y113516D02*
Y112756D01*
Y113009D01*
X105388Y113516D01*
X105009Y113136D01*
X105388Y112756D01*
X105642Y113389D02*
X105768Y113516D01*
X106022D01*
X106148Y113389D01*
Y113262D01*
X106022Y113136D01*
X106148Y113009D01*
Y112883D01*
X106022Y112756D01*
X105768D01*
X105642Y112883D01*
Y113009D01*
X105768Y113136D01*
X105642Y113262D01*
Y113389D01*
X105768Y113136D02*
X106022D01*
X110906Y100394D02*
Y101085D01*
X111251D01*
X111366Y100970D01*
Y100739D01*
X111251Y100624D01*
X110906D01*
X111136D02*
X111366Y100394D01*
X111943D02*
Y101085D01*
X111597Y100739D01*
X112058D01*
X112634Y100394D02*
Y101085D01*
X112288Y100739D01*
X112749D01*
X125839Y100964D02*
X125954Y100849D01*
X126185D01*
X126300Y100964D01*
Y101425D01*
X126185Y101540D01*
X125954D01*
X125839Y101425D01*
X125263Y101540D02*
Y100849D01*
X125609Y101194D01*
X125148D01*
X113309Y97600D02*
X113885D01*
X114000Y97715D01*
Y97946D01*
X113885Y98061D01*
X113309D01*
X114000Y98291D02*
Y98522D01*
Y98407D01*
X113309D01*
X113424Y98291D01*
Y98868D02*
X113309Y98983D01*
Y99213D01*
X113424Y99328D01*
X113539D01*
X113654Y99213D01*
Y99098D01*
Y99213D01*
X113770Y99328D01*
X113885D01*
X114000Y99213D01*
Y98983D01*
X113885Y98868D01*
X143981Y84593D02*
X143290D01*
Y84938D01*
X143405Y85053D01*
X143636D01*
X143751Y84938D01*
Y84593D01*
Y84823D02*
X143981Y85053D01*
Y85745D02*
Y85284D01*
X143520Y85745D01*
X143405D01*
X143290Y85630D01*
Y85399D01*
X143405Y85284D01*
Y85975D02*
X143290Y86090D01*
Y86321D01*
X143405Y86436D01*
X143866D01*
X143981Y86321D01*
Y86090D01*
X143866Y85975D01*
X143405D01*
X142823Y83608D02*
X142708Y83723D01*
X142477D01*
X142362Y83608D01*
Y83147D01*
X142477Y83032D01*
X142708D01*
X142823Y83147D01*
X143054Y83032D02*
X143284D01*
X143169D01*
Y83723D01*
X143054Y83608D01*
X144091Y83032D02*
X143630D01*
X144091Y83492D01*
Y83608D01*
X143975Y83723D01*
X143745D01*
X143630Y83608D01*
X138268Y113555D02*
Y112795D01*
Y113049D01*
X138774Y113555D01*
X138394Y113175D01*
X138774Y112795D01*
X139027Y113428D02*
X139154Y113555D01*
X139407D01*
X139534Y113428D01*
Y113302D01*
X139407Y113175D01*
X139281D01*
X139407D01*
X139534Y113049D01*
Y112922D01*
X139407Y112795D01*
X139154D01*
X139027Y112922D01*
X148976Y99606D02*
Y100298D01*
X149322D01*
X149437Y100182D01*
Y99952D01*
X149322Y99837D01*
X148976D01*
X149668Y99606D02*
X149898D01*
X149783D01*
Y100298D01*
X149668Y100182D01*
X146417Y84786D02*
Y84210D01*
X146533Y84094D01*
X146763D01*
X146878Y84210D01*
Y84786D01*
X147570Y84094D02*
X147109D01*
X147570Y84555D01*
Y84671D01*
X147454Y84786D01*
X147224D01*
X147109Y84671D01*
X147165Y85984D02*
X146774D01*
Y86180D01*
X146839Y86245D01*
X146969D01*
X147035Y86180D01*
Y85984D01*
Y86115D02*
X147165Y86245D01*
Y86376D02*
Y86507D01*
Y86441D01*
X146774D01*
X146839Y86376D01*
Y86703D02*
X146774Y86768D01*
Y86899D01*
X146839Y86964D01*
X147100D01*
X147165Y86899D01*
Y86768D01*
X147100Y86703D01*
X146839D01*
X151693Y113555D02*
Y112795D01*
Y113049D01*
X152199Y113555D01*
X151820Y113175D01*
X152199Y112795D01*
X152453D02*
X152706D01*
X152579D01*
Y113555D01*
X152453Y113428D01*
X98971Y116508D02*
X98718D01*
X98844D01*
Y115875D01*
X98718Y115748D01*
X98591D01*
X98465Y115875D01*
X99731Y115748D02*
X99224D01*
X99731Y116255D01*
Y116381D01*
X99604Y116508D01*
X99351D01*
X99224Y116381D01*
X108611Y81915D02*
X108495Y82030D01*
X108265D01*
X108150Y81915D01*
Y81454D01*
X108265Y81339D01*
X108495D01*
X108611Y81454D01*
X109302Y81339D02*
X108841D01*
X109302Y81799D01*
Y81915D01*
X109187Y82030D01*
X108956D01*
X108841Y81915D01*
X109532D02*
X109648Y82030D01*
X109878D01*
X109993Y81915D01*
Y81454D01*
X109878Y81339D01*
X109648D01*
X109532Y81454D01*
Y81915D01*
X125585Y80720D02*
X125332D01*
X125459D01*
Y80087D01*
X125332Y79961D01*
X125205D01*
X125079Y80087D01*
X126345Y80720D02*
X126092Y80594D01*
X125838Y80341D01*
Y80087D01*
X125965Y79961D01*
X126218D01*
X126345Y80087D01*
Y80214D01*
X126218Y80341D01*
X125838D01*
X132114Y83450D02*
X131999Y83565D01*
X131769D01*
X131654Y83450D01*
Y82989D01*
X131769Y82874D01*
X131999D01*
X132114Y82989D01*
X132345Y82874D02*
X132575D01*
X132460D01*
Y83565D01*
X132345Y83450D01*
X133267Y82874D02*
Y83565D01*
X132921Y83220D01*
X133382D01*
X144516Y82387D02*
X144401Y82502D01*
X144170D01*
X144055Y82387D01*
Y81926D01*
X144170Y81811D01*
X144401D01*
X144516Y81926D01*
X144746Y82502D02*
X145207D01*
Y82387D01*
X144746Y81926D01*
Y81811D01*
X134713Y90694D02*
X134598Y90809D01*
X134367D01*
X134252Y90694D01*
Y90233D01*
X134367Y90118D01*
X134598D01*
X134713Y90233D01*
X134943Y90118D02*
X135174D01*
X135059D01*
Y90809D01*
X134943Y90694D01*
X145234Y93117D02*
Y92540D01*
X145349Y92425D01*
X145580D01*
X145695Y92540D01*
Y93117D01*
X146271Y92425D02*
Y93117D01*
X145926Y92771D01*
X146387D01*
X109606Y101732D02*
Y102424D01*
X109952D01*
X110067Y102308D01*
Y102078D01*
X109952Y101963D01*
X109606D01*
X109837D02*
X110067Y101732D01*
X110759Y102424D02*
X110298D01*
Y102078D01*
X110528Y102193D01*
X110643D01*
X110759Y102078D01*
Y101848D01*
X110643Y101732D01*
X110413D01*
X110298Y101848D01*
X110989Y102308D02*
X111104Y102424D01*
X111335D01*
X111450Y102308D01*
Y102193D01*
X111335Y102078D01*
X111220D01*
X111335D01*
X111450Y101963D01*
Y101848D01*
X111335Y101732D01*
X111104D01*
X110989Y101848D01*
X110236Y105337D02*
Y104646D01*
X110582D01*
X110697Y104761D01*
Y105222D01*
X110582Y105337D01*
X110236D01*
X110928Y104646D02*
X111158D01*
X111043D01*
Y105337D01*
X110928Y105222D01*
X111965Y105337D02*
X111734Y105222D01*
X111504Y104991D01*
Y104761D01*
X111619Y104646D01*
X111849D01*
X111965Y104761D01*
Y104876D01*
X111849Y104991D01*
X111504D01*
X143150Y102500D02*
Y103191D01*
X143496D01*
X143611Y103076D01*
Y102846D01*
X143496Y102730D01*
X143150D01*
X143380D02*
X143611Y102500D01*
X144187D02*
Y103191D01*
X143841Y102846D01*
X144302D01*
X144533Y103191D02*
X144994D01*
Y103076D01*
X144533Y102615D01*
Y102500D01*
X135231Y104497D02*
Y105003D01*
X135104Y105130D01*
X134851D01*
X134724Y105003D01*
Y104497D01*
X134851Y104370D01*
X135104D01*
X134978Y104623D02*
X135231Y104370D01*
X135104D02*
X135231Y104497D01*
X135864Y104370D02*
Y105130D01*
X135484Y104750D01*
X135991D01*
X143800Y105191D02*
Y104500D01*
X144146D01*
X144261Y104615D01*
Y105076D01*
X144146Y105191D01*
X143800D01*
X144491Y104500D02*
X144722D01*
X144607D01*
Y105191D01*
X144491Y105076D01*
X145068Y104500D02*
X145298D01*
X145183D01*
Y105191D01*
X145068Y105076D01*
X135197Y117424D02*
Y116732D01*
X135543D01*
X135658Y116848D01*
Y117308D01*
X135543Y117424D01*
X135197D01*
X135888Y116848D02*
X136003Y116732D01*
X136234D01*
X136349Y116848D01*
Y117308D01*
X136234Y117424D01*
X136003D01*
X135888Y117308D01*
Y117193D01*
X136003Y117078D01*
X136349D01*
X123911Y117476D02*
X123796Y117591D01*
X123565D01*
X123450Y117476D01*
Y117015D01*
X123565Y116900D01*
X123796D01*
X123911Y117015D01*
X124602Y117591D02*
X124141D01*
Y117246D01*
X124372D01*
X124141D01*
Y116900D01*
X124833D02*
X125063D01*
X124948D01*
Y117591D01*
X124833Y117476D01*
X131614Y114094D02*
Y114786D01*
X131960D01*
X132075Y114671D01*
Y114440D01*
X131960Y114325D01*
X131614D01*
X131845D02*
X132075Y114094D01*
X132651D02*
Y114786D01*
X132306Y114440D01*
X132766D01*
X133458Y114786D02*
X132997D01*
Y114440D01*
X133227Y114555D01*
X133343D01*
X133458Y114440D01*
Y114210D01*
X133343Y114094D01*
X133112D01*
X132997Y114210D01*
X108571Y86797D02*
X108456Y86912D01*
X108225D01*
X108110Y86797D01*
Y86336D01*
X108225Y86220D01*
X108456D01*
X108571Y86336D01*
X109263Y86220D02*
X108802D01*
X109263Y86681D01*
Y86797D01*
X109147Y86912D01*
X108917D01*
X108802Y86797D01*
X109954Y86220D02*
X109493D01*
X109954Y86681D01*
Y86797D01*
X109839Y86912D01*
X109608D01*
X109493Y86797D01*
X116772Y99786D02*
Y99210D01*
X116887Y99094D01*
X117117D01*
X117233Y99210D01*
Y99786D01*
X117463Y99094D02*
X117693D01*
X117578D01*
Y99786D01*
X117463Y99671D01*
X111535Y113516D02*
Y112756D01*
Y113009D01*
X112042Y113516D01*
X111662Y113136D01*
X112042Y112756D01*
X112295Y113516D02*
X112802D01*
Y113389D01*
X112295Y112883D01*
Y112756D01*
X144882Y113634D02*
Y112874D01*
Y113127D01*
X145388Y113634D01*
X145009Y113254D01*
X145388Y112874D01*
X146148D02*
X145642D01*
X146148Y113381D01*
Y113507D01*
X146022Y113634D01*
X145768D01*
X145642Y113507D01*
X144764Y115410D02*
X144511D01*
X144638D01*
Y114777D01*
X144511Y114650D01*
X144384D01*
X144258Y114777D01*
X145398Y114650D02*
Y115410D01*
X145018Y115030D01*
X145524D01*
X134534Y92638D02*
X134504Y92697D01*
X134415Y92787D01*
X135039D01*
X116000Y82775D02*
X116238Y82150D01*
X116476Y82775D02*
X116238Y82150D01*
X116556Y82388D02*
X116913D01*
Y82448D01*
X116884Y82507D01*
X116854Y82537D01*
X116794Y82567D01*
X116705D01*
X116646Y82537D01*
X116586Y82477D01*
X116556Y82388D01*
Y82329D01*
X116586Y82239D01*
X116646Y82180D01*
X116705Y82150D01*
X116794D01*
X116854Y82180D01*
X116913Y82239D01*
X117047Y82567D02*
Y82150D01*
Y82388D02*
X117077Y82477D01*
X117137Y82537D01*
X117196Y82567D01*
X117285D01*
X117669Y82477D02*
X117640Y82537D01*
X117550Y82567D01*
X117461D01*
X117372Y82537D01*
X117342Y82477D01*
X117372Y82418D01*
X117431Y82388D01*
X117580Y82358D01*
X117640Y82329D01*
X117669Y82269D01*
Y82239D01*
X117640Y82180D01*
X117550Y82150D01*
X117461D01*
X117372Y82180D01*
X117342Y82239D01*
X118157Y82567D02*
Y82150D01*
Y82477D02*
X118098Y82537D01*
X118038Y82567D01*
X117949D01*
X117889Y82537D01*
X117830Y82477D01*
X117800Y82388D01*
Y82329D01*
X117830Y82239D01*
X117889Y82180D01*
X117949Y82150D01*
X118038D01*
X118098Y82180D01*
X118157Y82239D01*
X118473Y82567D02*
X118413Y82537D01*
X118354Y82477D01*
X118324Y82388D01*
Y82329D01*
X118354Y82239D01*
X118413Y82180D01*
X118473Y82150D01*
X118562D01*
X118621Y82180D01*
X118681Y82239D01*
X118711Y82329D01*
Y82388D01*
X118681Y82477D01*
X118621Y82537D01*
X118562Y82567D01*
X118473D01*
X119725Y82775D02*
X119339D01*
Y82150D01*
X119725D01*
X119339Y82477D02*
X119577D01*
X112402Y85452D02*
Y84827D01*
Y85452D02*
X112788D01*
X112402Y85154D02*
X112640D01*
X112860Y85452D02*
Y84827D01*
X112991Y85452D02*
Y84827D01*
Y85452D02*
X113407Y84827D01*
Y85452D02*
Y84827D01*
X113580Y85452D02*
Y84827D01*
X113996Y85452D02*
X113580Y85035D01*
X113729Y85184D02*
X113996Y84827D01*
X114136Y85452D02*
Y84827D01*
X114493D01*
X114949Y85452D02*
X114562D01*
Y84827D01*
X114949D01*
X114562Y85154D02*
X114800D01*
X115053Y85452D02*
Y84827D01*
Y85452D02*
X115321D01*
X115410Y85422D01*
X115440Y85392D01*
X115469Y85333D01*
Y85273D01*
X115440Y85214D01*
X115410Y85184D01*
X115321Y85154D01*
X115053D01*
X115261D02*
X115469Y84827D01*
X116487Y85452D02*
X116100D01*
Y84827D01*
X116487D01*
X116100Y85154D02*
X116338D01*
X116591Y85452D02*
Y84827D01*
Y85452D02*
X117008Y84827D01*
Y85452D02*
Y84827D01*
X117627Y85303D02*
X117597Y85363D01*
X117537Y85422D01*
X117478Y85452D01*
X117359D01*
X117299Y85422D01*
X117240Y85363D01*
X117210Y85303D01*
X117180Y85214D01*
Y85065D01*
X117210Y84976D01*
X117240Y84916D01*
X117299Y84857D01*
X117359Y84827D01*
X117478D01*
X117537Y84857D01*
X117597Y84916D01*
X117627Y84976D01*
Y85065D01*
X117478D02*
X117627D01*
X118156Y85452D02*
X117769D01*
Y84827D01*
X118156D01*
X117769Y85154D02*
X118008D01*
X118260Y85452D02*
Y84827D01*
Y85452D02*
X118677Y84827D01*
Y85452D02*
Y84827D01*
X118850Y85452D02*
Y84827D01*
X119266Y85452D02*
Y84827D01*
X118850Y85154D02*
X119266D01*
X119915Y84827D02*
X119677Y85452D01*
X119439Y84827D01*
X119528Y85035D02*
X119826D01*
X120061Y85452D02*
Y84827D01*
Y85452D02*
X120328D01*
X120418Y85422D01*
X120447Y85392D01*
X120477Y85333D01*
Y85273D01*
X120447Y85214D01*
X120418Y85184D01*
X120328Y85154D01*
X120061D01*
X120269D02*
X120477Y84827D01*
X120617Y85452D02*
Y84827D01*
X121224D02*
X120986Y85452D01*
X120748Y84827D01*
X120837Y85035D02*
X121135D01*
X121861Y85452D02*
Y84827D01*
X122218D01*
X122495Y85452D02*
Y84827D01*
X122286Y85452D02*
X122703D01*
X122777D02*
Y84827D01*
Y85452D02*
X122986D01*
X123075Y85422D01*
X123134Y85363D01*
X123164Y85303D01*
X123194Y85214D01*
Y85065D01*
X123164Y84976D01*
X123134Y84916D01*
X123075Y84857D01*
X122986Y84827D01*
X122777D01*
X123810D02*
X123572Y85452D01*
X123334Y84827D01*
X123423Y85035D02*
X123721D01*
X114856Y83881D02*
X114975Y83465D01*
X115094Y83881D02*
X114975Y83465D01*
X115094Y83881D02*
X115213Y83465D01*
X115332Y83881D02*
X115213Y83465D01*
X115478Y83881D02*
X115597Y83465D01*
X115716Y83881D02*
X115597Y83465D01*
X115716Y83881D02*
X115835Y83465D01*
X115954Y83881D02*
X115835Y83465D01*
X116100Y83881D02*
X116219Y83465D01*
X116338Y83881D02*
X116219Y83465D01*
X116338Y83881D02*
X116457Y83465D01*
X116576Y83881D02*
X116457Y83465D01*
X116752Y83524D02*
X116722Y83494D01*
X116752Y83465D01*
X116782Y83494D01*
X116752Y83524D01*
X117157Y84089D02*
X117097D01*
X117037Y84060D01*
X117008Y83970D01*
Y83465D01*
X116918Y83881D02*
X117127D01*
X117305Y84089D02*
X117335Y84060D01*
X117365Y84089D01*
X117335Y84119D01*
X117305Y84089D01*
X117335Y83881D02*
Y83465D01*
X117475Y83881D02*
Y83465D01*
Y83762D02*
X117564Y83851D01*
X117624Y83881D01*
X117713D01*
X117772Y83851D01*
X117802Y83762D01*
Y83465D01*
X117966Y84089D02*
Y83465D01*
X118263Y83881D02*
X117966Y83584D01*
X118085Y83703D02*
X118293Y83465D01*
X118391Y84089D02*
Y83465D01*
X118522Y83703D02*
X118879D01*
Y83762D01*
X118850Y83822D01*
X118820Y83851D01*
X118760Y83881D01*
X118671D01*
X118612Y83851D01*
X118552Y83792D01*
X118522Y83703D01*
Y83643D01*
X118552Y83554D01*
X118612Y83494D01*
X118671Y83465D01*
X118760D01*
X118820Y83494D01*
X118879Y83554D01*
X119013Y83881D02*
Y83465D01*
Y83703D02*
X119043Y83792D01*
X119103Y83851D01*
X119162Y83881D01*
X119251D01*
X119338Y83524D02*
X119308Y83494D01*
X119338Y83465D01*
X119367Y83494D01*
X119338Y83524D01*
X119504Y83703D02*
X119861D01*
Y83762D01*
X119832Y83822D01*
X119802Y83851D01*
X119742Y83881D01*
X119653D01*
X119593Y83851D01*
X119534Y83792D01*
X119504Y83703D01*
Y83643D01*
X119534Y83554D01*
X119593Y83494D01*
X119653Y83465D01*
X119742D01*
X119802Y83494D01*
X119861Y83554D01*
X119995Y83881D02*
Y83465D01*
Y83762D02*
X120084Y83851D01*
X120144Y83881D01*
X120233D01*
X120293Y83851D01*
X120323Y83762D01*
Y83465D01*
X120843Y83881D02*
Y83405D01*
X120813Y83316D01*
X120784Y83286D01*
X120724Y83256D01*
X120635D01*
X120575Y83286D01*
X120843Y83792D02*
X120784Y83851D01*
X120724Y83881D01*
X120635D01*
X120575Y83851D01*
X120516Y83792D01*
X120486Y83703D01*
Y83643D01*
X120516Y83554D01*
X120575Y83494D01*
X120635Y83465D01*
X120724D01*
X120784Y83494D01*
X120843Y83554D01*
X121040Y83524D02*
X121010Y83494D01*
X121040Y83465D01*
X121069Y83494D01*
X121040Y83524D01*
X121206Y84089D02*
Y83465D01*
Y83792D02*
X121266Y83851D01*
X121325Y83881D01*
X121415D01*
X121474Y83851D01*
X121534Y83792D01*
X121563Y83703D01*
Y83643D01*
X121534Y83554D01*
X121474Y83494D01*
X121415Y83465D01*
X121325D01*
X121266Y83494D01*
X121206Y83554D01*
X121697Y83881D02*
Y83465D01*
Y83703D02*
X121727Y83792D01*
X121786Y83851D01*
X121846Y83881D01*
X121935D01*
D33*
X96323Y81717D02*
X98323D01*
X96323D02*
Y97717D01*
X98323D01*
Y81717D02*
Y97717D01*
X96323Y99394D02*
X98323D01*
X96323D02*
Y115394D01*
X98323D01*
Y99394D02*
Y115394D01*
X127346Y79394D02*
Y81394D01*
X143346D01*
Y79394D02*
Y81394D01*
X127346Y79394D02*
X143346D01*
X153008Y115850D02*
Y117850D01*
X137008Y115850D02*
X153008D01*
X137008D02*
Y117850D01*
X153008D01*
D34*
X105850Y98950D02*
X105350D01*
Y99200D01*
X105433Y99283D01*
X105600D01*
X105683Y99200D01*
Y98950D01*
Y99117D02*
X105850Y99283D01*
Y99700D02*
X105350D01*
X105600Y99450D01*
Y99783D01*
X105850Y99950D02*
Y100116D01*
Y100033D01*
X105350D01*
X105433Y99950D01*
M02*
